%
M48
M72
T01C0.0150
T02C0.0197
T03C0.0236
T04C0.0315
T05C0.0400
T06C0.1260
%
T01
X32913Y20155
X36938Y22405
X45313Y23955
X48713Y21455
X16013Y23220
X15688Y23478
X12388Y23733
X12088Y23475
X12388Y23220
T02
X4449Y17075
X4055Y17075
X3661Y17075
X3268Y17075
X2874Y17075
X2874Y16075
X3268Y16075
X3661Y16075
X4055Y16075
X4449Y16075
X20874Y16075
X21268Y16075
X21661Y16075
X22055Y16075
X22449Y16075
X22449Y17075
X22055Y17075
X21661Y17075
X21268Y17075
X20874Y17075
X38874Y17075
X39268Y17075
X39661Y17075
X40055Y17075
X40449Y17075
X40449Y16075
X40055Y16075
X39661Y16075
X39268Y16075
X38874Y16075
X56878Y16085
X57272Y16085
X57665Y16085
X58059Y16085
X58453Y16085
X58453Y17085
X58059Y17085
X57665Y17085
X57272Y17085
X56878Y17085
T03
X8913Y4205
X7838Y5080
X8413Y6080
X9663Y6080
X10788Y6080
X9663Y7080
X9663Y8080
X9663Y9080
X8413Y9205
X9663Y10080
X10038Y11155
X11663Y12080
X10288Y13205
X10288Y14205
X16788Y14205
X18163Y14580
X16788Y13205
X16788Y11330
X18538Y11330
X17288Y10205
X16288Y8955
X15588Y7930
X15588Y6930
X16788Y6930
X17663Y7830
X24538Y8955
X24538Y11330
X32538Y11330
X32538Y10455
X35913Y12330
X41163Y12330
X41163Y11330
X41163Y10455
X41163Y8955
X42413Y8205
X41163Y7830
X41163Y7030
X38663Y5705
X36913Y5580
X32538Y5455
X29038Y5455
X32538Y8330
X36913Y8580
X44038Y7630
X44163Y5705
X49038Y7005
X50888Y7005
X52163Y7205
X49538Y8080
X48538Y8505
X49538Y8955
X52538Y9205
X54788Y8330
X59038Y8330
X59038Y6580
X59038Y5330
X58088Y5455
X54788Y5205
X54788Y6330
X52413Y4830
X51613Y5130
X51913Y10830
X48538Y11080
X48538Y12330
X51788Y12205
X37538Y19805
X35663Y19830
X32163Y21205
X31788Y20830
X31413Y20455
X31063Y20105
X28688Y19730
X28163Y20205
X27663Y20955
X27663Y21455
X28513Y21280
X29663Y21455
X32913Y21955
X30038Y23830
X26163Y21330
X26163Y20862
X24313Y20555
X23163Y21005
X22163Y21005
X21163Y21380
X19788Y21080
X18288Y22330
X18413Y23330
X18038Y23705
X17663Y24080
X21863Y19455
X24163Y19455
X48788Y21955
X18288Y3580
T04
X19038Y6080
X19038Y7080
X19038Y8080
X19038Y9080
X19038Y10080
X19038Y11080
X19038Y12080
X19038Y13080
X19038Y14080
X21538Y13330
X21538Y12330
X21538Y11330
X21538Y10330
X21538Y9330
X21538Y8330
X27538Y8330
X27538Y7330
X27538Y6330
X29538Y8330
X29538Y9330
X29538Y10330
X29538Y11330
X29538Y12330
X29538Y13330
X27538Y13330
X27538Y11330
X27538Y10330
X27538Y9330
X35538Y9330
X35538Y10330
X37538Y10330
X37538Y9330
X37538Y8330
X35538Y8330
X35538Y7330
X35538Y6330
X43538Y6330
X43538Y7330
X43538Y8330
X45538Y8330
X45538Y9330
X45538Y10330
X43538Y10330
X43538Y9330
X43538Y11330
X45538Y11330
X45538Y12330
X45538Y13330
X43538Y13330
X37538Y13330
X35538Y13330
X37538Y12330
X37538Y11330
X35538Y11330
X51538Y11330
X51538Y10330
X51538Y9330
X53288Y9330
X53288Y8330
X51538Y8330
X51538Y7330
X53288Y7330
X53288Y6330
X53288Y5330
X51538Y6330
X56288Y6330
X57538Y6330
X57538Y5330
X56288Y5330
X56288Y7330
X57538Y7330
X57538Y8330
X56288Y8330
X56288Y9330
X57538Y9330
X60538Y9330
X60538Y8330
X60538Y7330
X60538Y6330
X60538Y5330
X51538Y13330
X14038Y13080
X12538Y13080
X12538Y12080
X14038Y12080
X14038Y11080
X12538Y11080
X12538Y10080
X14038Y10080
X14038Y9080
X12538Y9080
X12538Y8080
X14038Y8080
X14038Y7080
X12538Y7080
X12538Y6080
X14038Y6080
X7538Y6080
X6038Y6080
X6038Y7080
X7538Y7080
X7538Y8080
X6038Y8080
X6038Y9080
X7538Y9080
X7538Y10080
X7538Y11080
X6038Y11080
X6038Y10080
X6038Y12080
X7538Y12080
X7538Y13080
X6038Y13080
X6038Y14080
X7538Y14080
X12538Y14080
X14038Y14080
X1038Y14080
X1038Y13080
X1038Y12080
X1038Y11080
X1038Y10080
X1038Y9080
X1038Y8080
X1038Y7080
X1038Y6080
T05
X9788Y5080
X10788Y5080
X11788Y5080
X12788Y5080
X13788Y5080
X14788Y5080
X15788Y5080
X16788Y5080
X17788Y5080
X18788Y5080
X18788Y4080
X17788Y4080
X16788Y4080
X15788Y4080
X14788Y4080
X13788Y4080
X12788Y4080
X11788Y4080
X10788Y4080
X9788Y4080
X42038Y4080
X43038Y4080
X44038Y4080
X45038Y4080
X46038Y4080
X47038Y4080
X48038Y4080
X49038Y4080
X50038Y4080
X51038Y4080
X51038Y5080
X50038Y5080
X49038Y5080
X48038Y5080
X47038Y5080
X46038Y5080
X45038Y5080
X44038Y5080
X43038Y5080
X42038Y5080
X42038Y18580
X43038Y18580
X44038Y18580
X45038Y18580
X46038Y18580
X47038Y18580
X48038Y18580
X49038Y18580
X50038Y18580
X51038Y18580
X51038Y19580
X50038Y19580
X49038Y19580
X48038Y19580
X47038Y19580
X46038Y19580
X45038Y19580
X44038Y19580
X43038Y19580
X42038Y19580
X33538Y23205
X32538Y23305
X31538Y23205
X31538Y24205
X32538Y24305
X33538Y24205
X26163Y23830
X25163Y23830
X24163Y23830
X23163Y23830
X22163Y23830
X21163Y23830
X18788Y19580
X17788Y19580
X16788Y19580
X15788Y19580
X14788Y19580
X13788Y19580
X12788Y19580
X11788Y19580
X10788Y19580
X9788Y19580
X9788Y18580
X10788Y18580
X11788Y18580
X12788Y18580
X13788Y18580
X14788Y18580
X15788Y18580
X16788Y18580
X17788Y18580
X18788Y18580
T06
X7038Y19580
X7038Y23580
X54538Y24580
X54538Y19580
M30
