G75*
%MOIN*%
%OFA0B0*%
%FSLAX24Y24*%
%IPPOS*%
%LPD*%
%AMOC8*
5,1,8,0,0,1.08239X$1,22.5*
%
%ADD10C,0.0277*%
%ADD11R,0.0552X0.0552*%
%ADD12C,0.0552*%
%ADD13R,0.0620X0.0197*%
%ADD14R,0.0470X0.0200*%
%ADD15OC8,0.0680*%
%ADD16R,0.1261X0.0710*%
%ADD17R,0.2330X0.1980*%
%ADD18R,0.0592X0.0671*%
%ADD19R,0.0300X0.0580*%
%ADD20R,0.0580X0.0300*%
%ADD21R,0.0820X0.0820*%
%ADD22C,0.0820*%
%ADD23OC8,0.0820*%
%ADD24R,0.0474X0.0513*%
%ADD25C,0.2580*%
%ADD26R,0.0513X0.0474*%
%ADD27R,0.0552X0.0631*%
%ADD28C,0.0300*%
D10*
X002874Y016075D03*
X003268Y016075D03*
X003661Y016075D03*
X004055Y016075D03*
X004449Y016075D03*
X004449Y017075D03*
X004055Y017075D03*
X003661Y017075D03*
X003268Y017075D03*
X002874Y017075D03*
X020874Y017075D03*
X021268Y017075D03*
X021661Y017075D03*
X022055Y017075D03*
X022449Y017075D03*
X022449Y016075D03*
X022055Y016075D03*
X021661Y016075D03*
X021268Y016075D03*
X020874Y016075D03*
X038874Y016075D03*
X039268Y016075D03*
X039661Y016075D03*
X040055Y016075D03*
X040449Y016075D03*
X040449Y017075D03*
X040055Y017075D03*
X039661Y017075D03*
X039268Y017075D03*
X038874Y017075D03*
X056878Y017085D03*
X057272Y017085D03*
X057665Y017085D03*
X058059Y017085D03*
X058453Y017085D03*
X058453Y016085D03*
X058059Y016085D03*
X057665Y016085D03*
X057272Y016085D03*
X056878Y016085D03*
D11*
X045538Y013580D03*
X037538Y013580D03*
X029538Y013580D03*
X021538Y013580D03*
X014288Y014080D03*
X007538Y014080D03*
X001038Y014080D03*
X053288Y009330D03*
X057538Y009330D03*
D12*
X056288Y009330D03*
X056288Y008330D03*
X057538Y008330D03*
X057538Y007330D03*
X056288Y007330D03*
X056288Y006330D03*
X057538Y006330D03*
X057538Y005330D03*
X056288Y005330D03*
X053288Y005330D03*
X053288Y006330D03*
X051538Y006580D03*
X053288Y007330D03*
X051538Y007580D03*
X053288Y008330D03*
X051538Y008580D03*
X051538Y009580D03*
X051538Y010580D03*
X051538Y011580D03*
X051538Y012580D03*
X051538Y013580D03*
X045538Y012580D03*
X043538Y012580D03*
X043538Y011580D03*
X045538Y011580D03*
X045538Y010580D03*
X045538Y009580D03*
X043538Y009580D03*
X043538Y010580D03*
X043538Y008580D03*
X045538Y008580D03*
X045538Y007580D03*
X043538Y007580D03*
X043538Y006580D03*
X045538Y006580D03*
X037538Y006580D03*
X035538Y006580D03*
X035538Y007580D03*
X037538Y007580D03*
X037538Y008580D03*
X035538Y008580D03*
X035538Y009580D03*
X035538Y010580D03*
X037538Y010580D03*
X037538Y009580D03*
X037538Y011580D03*
X035538Y011580D03*
X035538Y012580D03*
X037538Y012580D03*
X035538Y013580D03*
X029538Y012580D03*
X029538Y011580D03*
X029538Y010580D03*
X029538Y009580D03*
X029538Y008580D03*
X029538Y007580D03*
X029538Y006580D03*
X027538Y006580D03*
X027538Y007580D03*
X027538Y008580D03*
X027538Y009580D03*
X027538Y010580D03*
X027538Y011580D03*
X027538Y012580D03*
X027538Y013580D03*
X021538Y012580D03*
X021538Y011580D03*
X021538Y010580D03*
X021538Y009580D03*
X021538Y008580D03*
X021538Y007580D03*
X021538Y006580D03*
X019288Y006080D03*
X019288Y007080D03*
X019288Y008080D03*
X019288Y009080D03*
X019288Y010080D03*
X019288Y011080D03*
X019288Y012080D03*
X019288Y013080D03*
X019288Y014080D03*
X014288Y013080D03*
X012538Y013080D03*
X012538Y012080D03*
X014288Y012080D03*
X014288Y011080D03*
X012538Y011080D03*
X012538Y010080D03*
X014288Y010080D03*
X014288Y009080D03*
X012538Y009080D03*
X012538Y008080D03*
X014288Y008080D03*
X014288Y007080D03*
X012538Y007080D03*
X012538Y006080D03*
X014288Y006080D03*
X007538Y006080D03*
X006038Y006080D03*
X006038Y007080D03*
X007538Y007080D03*
X007538Y008080D03*
X006038Y008080D03*
X006038Y009080D03*
X007538Y009080D03*
X007538Y010080D03*
X007538Y011080D03*
X006038Y011080D03*
X006038Y010080D03*
X006038Y012080D03*
X007538Y012080D03*
X007538Y013080D03*
X006038Y013080D03*
X006038Y014080D03*
X001038Y013080D03*
X001038Y012080D03*
X001038Y011080D03*
X001038Y010080D03*
X001038Y009080D03*
X001038Y008080D03*
X001038Y007080D03*
X001038Y006080D03*
X012538Y014080D03*
X043538Y013580D03*
X060538Y009330D03*
X060538Y008330D03*
X060538Y007330D03*
X060538Y006330D03*
X060538Y005330D03*
D13*
X048096Y021206D03*
X048096Y021456D03*
X048096Y021706D03*
X048096Y021956D03*
X048096Y022206D03*
X048096Y022456D03*
X048096Y022706D03*
X048096Y022956D03*
X048096Y023206D03*
X048096Y023456D03*
X048096Y023706D03*
X048096Y023956D03*
X045980Y023954D03*
X045980Y023704D03*
X045980Y023454D03*
X045980Y023204D03*
X045980Y022954D03*
X045980Y022704D03*
X045980Y022454D03*
X045980Y022204D03*
X045980Y021954D03*
X045980Y021704D03*
X045980Y021454D03*
X045980Y021204D03*
D14*
X015187Y021173D03*
X015187Y021428D03*
X015187Y021684D03*
X015187Y021940D03*
X015187Y022196D03*
X015187Y022452D03*
X015187Y022708D03*
X015187Y022964D03*
X015187Y023220D03*
X015187Y023476D03*
X015187Y023732D03*
X015187Y023987D03*
X012890Y023987D03*
X012890Y023732D03*
X012890Y023476D03*
X012890Y023220D03*
X012890Y022964D03*
X012890Y022708D03*
X012890Y022452D03*
X012890Y022196D03*
X012890Y021940D03*
X012890Y021684D03*
X012890Y021428D03*
X012890Y021173D03*
D15*
X009788Y004080D03*
X010788Y004080D03*
X011788Y004080D03*
X012788Y004080D03*
X013788Y004080D03*
X014788Y004080D03*
X015788Y004080D03*
X016788Y004080D03*
X017788Y004080D03*
X018788Y004080D03*
X018788Y005080D03*
X017788Y005080D03*
X016788Y005080D03*
X015788Y005080D03*
X014788Y005080D03*
X013788Y005080D03*
X012788Y005080D03*
X011788Y005080D03*
X010788Y005080D03*
X009788Y005080D03*
X009788Y018580D03*
X010788Y018580D03*
X011788Y018580D03*
X012788Y018580D03*
X013788Y018580D03*
X014788Y018580D03*
X015788Y018580D03*
X016788Y018580D03*
X017788Y018580D03*
X018788Y018580D03*
X018788Y019580D03*
X017788Y019580D03*
X016788Y019580D03*
X015788Y019580D03*
X014788Y019580D03*
X013788Y019580D03*
X012788Y019580D03*
X011788Y019580D03*
X010788Y019580D03*
X009788Y019580D03*
X042538Y019580D03*
X043538Y019580D03*
X044538Y019580D03*
X045538Y019580D03*
X046538Y019580D03*
X047538Y019580D03*
X048538Y019580D03*
X049538Y019580D03*
X050538Y019580D03*
X051538Y019580D03*
X051538Y018580D03*
X050538Y018580D03*
X049538Y018580D03*
X048538Y018580D03*
X047538Y018580D03*
X046538Y018580D03*
X045538Y018580D03*
X044538Y018580D03*
X043538Y018580D03*
X042538Y018580D03*
X042538Y005080D03*
X043538Y005080D03*
X044538Y005080D03*
X045538Y005080D03*
X046538Y005080D03*
X047538Y005080D03*
X048538Y005080D03*
X049538Y005080D03*
X050538Y005080D03*
X051538Y005080D03*
X051538Y004080D03*
X050538Y004080D03*
X049538Y004080D03*
X048538Y004080D03*
X047538Y004080D03*
X046538Y004080D03*
X045538Y004080D03*
X044538Y004080D03*
X043538Y004080D03*
X042538Y004080D03*
D16*
X041504Y022182D03*
X041504Y023978D03*
D17*
X038788Y023080D03*
D18*
X036937Y023080D03*
X036189Y023080D03*
X042689Y023855D03*
X043437Y023855D03*
D19*
X029641Y022395D03*
X029326Y022395D03*
X029011Y022395D03*
X028696Y022395D03*
X028381Y022395D03*
X028066Y022395D03*
X027751Y022395D03*
X027436Y022395D03*
X027436Y019015D03*
X027751Y019015D03*
X028066Y019015D03*
X028381Y019015D03*
X028696Y019015D03*
X029011Y019015D03*
X029326Y019015D03*
X029641Y019015D03*
D20*
X030228Y019603D03*
X030228Y019918D03*
X030228Y020233D03*
X030228Y020548D03*
X030228Y020862D03*
X030228Y021177D03*
X030228Y021492D03*
X030228Y021807D03*
X026848Y021807D03*
X026848Y021492D03*
X026848Y021177D03*
X026848Y020862D03*
X026848Y020548D03*
X026848Y020233D03*
X026848Y019918D03*
X026848Y019603D03*
D21*
X021163Y023830D03*
D22*
X022163Y023830D03*
X023163Y023830D03*
X024163Y023830D03*
X025163Y023830D03*
X026163Y023830D03*
D23*
X031538Y024205D03*
X032538Y024305D03*
X033538Y024205D03*
X033538Y023205D03*
X032538Y023305D03*
X031538Y023205D03*
D24*
X033954Y020955D03*
X034623Y020955D03*
X032248Y019855D03*
X031579Y019855D03*
X025623Y020555D03*
X024954Y020555D03*
X016873Y023790D03*
X016204Y023790D03*
X049204Y021205D03*
X049873Y021205D03*
D25*
X054538Y019580D03*
X054538Y024580D03*
X007038Y023580D03*
X007038Y019580D03*
D26*
X013704Y024580D03*
X014373Y024580D03*
X024954Y021380D03*
X025623Y021380D03*
X028654Y023780D03*
X029323Y023780D03*
X029173Y018305D03*
X028504Y018305D03*
X049204Y022580D03*
X049873Y022580D03*
D27*
X035129Y019830D03*
X033948Y019830D03*
D28*
X032913Y020155D03*
X036938Y022405D03*
X045313Y023955D03*
X048713Y021455D03*
X016013Y023220D03*
X015688Y023478D03*
X012388Y023733D03*
X012088Y023475D03*
X012388Y023220D03*
M02*
