G75*
%MOIN*%
%OFA0B0*%
%FSLAX24Y24*%
%IPPOS*%
%LPD*%
%AMOC8*
5,1,8,0,0,1.08239X$1,22.5*
%
%ADD10R,0.0600X0.0600*%
%ADD11C,0.0600*%
%ADD12OC8,0.0600*%
%ADD13R,0.0740X0.0740*%
%ADD14C,0.0740*%
%ADD15OC8,0.0740*%
%ADD16C,0.2500*%
%ADD17R,0.0630X0.0710*%
%ADD18C,0.0290*%
%ADD19C,0.0376*%
%ADD20C,0.0100*%
%ADD21C,0.0160*%
%ADD22C,0.0250*%
%ADD23C,0.0200*%
D10*
X021538Y013330D03*
X014038Y014080D03*
X007538Y014080D03*
X001038Y014080D03*
X029538Y013330D03*
X037538Y013330D03*
X045538Y013330D03*
X053288Y009330D03*
X057538Y009330D03*
D11*
X056288Y009330D03*
X056288Y008330D03*
X057538Y008330D03*
X057538Y007330D03*
X056288Y007330D03*
X056288Y006330D03*
X057538Y006330D03*
X057538Y005330D03*
X056288Y005330D03*
X053288Y005330D03*
X053288Y006330D03*
X051538Y006330D03*
X051538Y007330D03*
X053288Y007330D03*
X053288Y008330D03*
X051538Y008330D03*
X051538Y009330D03*
X051538Y010330D03*
X051538Y011330D03*
X051538Y013330D03*
X045538Y012330D03*
X045538Y011330D03*
X043538Y011330D03*
X043538Y010330D03*
X043538Y009330D03*
X045538Y009330D03*
X045538Y010330D03*
X045538Y008330D03*
X043538Y008330D03*
X043538Y007330D03*
X043538Y006330D03*
X037538Y008330D03*
X035538Y008330D03*
X035538Y007330D03*
X035538Y006330D03*
X029538Y008330D03*
X029538Y009330D03*
X029538Y010330D03*
X029538Y011330D03*
X029538Y012330D03*
X027538Y011330D03*
X027538Y010330D03*
X027538Y009330D03*
X027538Y008330D03*
X027538Y007330D03*
X027538Y006330D03*
X021538Y008330D03*
X021538Y009330D03*
X021538Y010330D03*
X021538Y011330D03*
X021538Y012330D03*
X019038Y012080D03*
X019038Y011080D03*
X019038Y010080D03*
X019038Y009080D03*
X019038Y008080D03*
X019038Y007080D03*
X019038Y006080D03*
X014038Y006080D03*
X012538Y006080D03*
X012538Y007080D03*
X014038Y007080D03*
X014038Y008080D03*
X012538Y008080D03*
X012538Y009080D03*
X014038Y009080D03*
X014038Y010080D03*
X012538Y010080D03*
X012538Y011080D03*
X014038Y011080D03*
X014038Y012080D03*
X012538Y012080D03*
X012538Y013080D03*
X014038Y013080D03*
X012538Y014080D03*
X007538Y013080D03*
X006038Y013080D03*
X006038Y012080D03*
X007538Y012080D03*
X007538Y011080D03*
X007538Y010080D03*
X006038Y010080D03*
X006038Y011080D03*
X006038Y009080D03*
X007538Y009080D03*
X007538Y008080D03*
X006038Y008080D03*
X006038Y007080D03*
X007538Y007080D03*
X007538Y006080D03*
X006038Y006080D03*
X001038Y006080D03*
X001038Y007080D03*
X001038Y008080D03*
X001038Y009080D03*
X001038Y010080D03*
X001038Y011080D03*
X001038Y012080D03*
X001038Y013080D03*
X006038Y014080D03*
X019038Y014080D03*
X019038Y013080D03*
X027538Y013330D03*
X035538Y013330D03*
X037538Y012330D03*
X037538Y011330D03*
X035538Y011330D03*
X035538Y010330D03*
X035538Y009330D03*
X037538Y009330D03*
X037538Y010330D03*
X043538Y013330D03*
X060538Y009330D03*
X060538Y008330D03*
X060538Y007330D03*
X060538Y006330D03*
X060538Y005330D03*
D12*
X051038Y005080D03*
X050038Y005080D03*
X049038Y005080D03*
X048038Y005080D03*
X047038Y005080D03*
X046038Y005080D03*
X045038Y005080D03*
X044038Y005080D03*
X043038Y005080D03*
X042038Y005080D03*
X042038Y004080D03*
X043038Y004080D03*
X044038Y004080D03*
X045038Y004080D03*
X046038Y004080D03*
X047038Y004080D03*
X048038Y004080D03*
X049038Y004080D03*
X050038Y004080D03*
X051038Y004080D03*
X018788Y004080D03*
X017788Y004080D03*
X016788Y004080D03*
X015788Y004080D03*
X014788Y004080D03*
X013788Y004080D03*
X012788Y004080D03*
X011788Y004080D03*
X010788Y004080D03*
X009788Y004080D03*
X009788Y005080D03*
X010788Y005080D03*
X011788Y005080D03*
X012788Y005080D03*
X013788Y005080D03*
X014788Y005080D03*
X015788Y005080D03*
X016788Y005080D03*
X017788Y005080D03*
X018788Y005080D03*
X018788Y018580D03*
X017788Y018580D03*
X016788Y018580D03*
X015788Y018580D03*
X014788Y018580D03*
X013788Y018580D03*
X012788Y018580D03*
X011788Y018580D03*
X010788Y018580D03*
X009788Y018580D03*
X009788Y019580D03*
X010788Y019580D03*
X011788Y019580D03*
X012788Y019580D03*
X013788Y019580D03*
X014788Y019580D03*
X015788Y019580D03*
X016788Y019580D03*
X017788Y019580D03*
X018788Y019580D03*
X042038Y019580D03*
X043038Y019580D03*
X044038Y019580D03*
X045038Y019580D03*
X046038Y019580D03*
X047038Y019580D03*
X048038Y019580D03*
X049038Y019580D03*
X050038Y019580D03*
X051038Y019580D03*
X051038Y018580D03*
X050038Y018580D03*
X049038Y018580D03*
X048038Y018580D03*
X047038Y018580D03*
X046038Y018580D03*
X045038Y018580D03*
X044038Y018580D03*
X043038Y018580D03*
X042038Y018580D03*
D13*
X021163Y023830D03*
D14*
X022163Y023830D03*
X023163Y023830D03*
X024163Y023830D03*
X025163Y023830D03*
X026163Y023830D03*
D15*
X031538Y024205D03*
X032538Y024305D03*
X033538Y024205D03*
X033538Y023205D03*
X032538Y023305D03*
X031538Y023205D03*
D16*
X054538Y024580D03*
X054538Y019580D03*
X007038Y019580D03*
X007038Y023580D03*
D17*
X033978Y019830D03*
X035098Y019830D03*
D18*
X032913Y020155D03*
X036938Y022405D03*
X045313Y023955D03*
X048713Y021455D03*
X016013Y023220D03*
X015688Y023478D03*
X012388Y023733D03*
X012088Y023475D03*
X012388Y023220D03*
D19*
X017663Y024080D03*
X018038Y023705D03*
X018413Y023330D03*
X021163Y021380D03*
X022163Y021005D03*
X023163Y021005D03*
X024313Y020555D03*
X026163Y020862D03*
X026163Y021330D03*
X027663Y021455D03*
X027663Y020955D03*
X028513Y021280D03*
X029663Y021455D03*
X031413Y020455D03*
X031788Y020830D03*
X032163Y021205D03*
X032913Y021955D03*
X031063Y020105D03*
X028688Y019730D03*
X028163Y020205D03*
X024163Y019455D03*
X021863Y019455D03*
X019788Y021080D03*
X030038Y023830D03*
X035663Y019830D03*
X037538Y019805D03*
X048788Y021955D03*
X048538Y012330D03*
X048538Y011080D03*
X051913Y010830D03*
X051788Y012205D03*
X052538Y009205D03*
X054788Y008330D03*
X052163Y007205D03*
X050888Y007005D03*
X049038Y007005D03*
X049538Y008080D03*
X048538Y008505D03*
X049538Y008955D03*
X044038Y007630D03*
X042413Y008205D03*
X041163Y007830D03*
X041163Y007030D03*
X038663Y005705D03*
X036913Y005580D03*
X032538Y005455D03*
X029038Y005455D03*
X032538Y008330D03*
X036913Y008580D03*
X041163Y008955D03*
X041163Y010455D03*
X041163Y011330D03*
X041163Y012330D03*
X035913Y012330D03*
X032538Y011330D03*
X032538Y010455D03*
X024538Y011330D03*
X024538Y008955D03*
X018538Y011330D03*
X016788Y011330D03*
X017288Y010205D03*
X016288Y008955D03*
X015588Y007930D03*
X015588Y006930D03*
X016788Y006930D03*
X017663Y007830D03*
X010788Y006080D03*
X009663Y006080D03*
X008413Y006080D03*
X007838Y005080D03*
X008913Y004205D03*
X009663Y007080D03*
X009663Y008080D03*
X009663Y009080D03*
X008413Y009205D03*
X009663Y010080D03*
X010038Y011155D03*
X011663Y012080D03*
X010288Y013205D03*
X010288Y014205D03*
X016788Y014205D03*
X018163Y014580D03*
X016788Y013205D03*
X018288Y003580D03*
X044163Y005705D03*
X051613Y005130D03*
X052413Y004830D03*
X054788Y005205D03*
X054788Y006330D03*
X058088Y005455D03*
X059038Y005330D03*
X059038Y006580D03*
X059038Y008330D03*
D20*
X060038Y007830D02*
X056788Y007830D01*
X056288Y008330D01*
X056538Y008830D02*
X057038Y008330D01*
X057538Y008330D01*
X056788Y008830D02*
X056288Y009330D01*
X056538Y008830D02*
X053788Y008830D01*
X053288Y008330D01*
X052538Y008080D02*
X052538Y009205D01*
X052413Y009330D01*
X052163Y009330D01*
X051538Y009330D01*
X051038Y009830D02*
X044038Y009830D01*
X043538Y010330D01*
X043038Y009830D01*
X036038Y009830D01*
X035538Y010330D01*
X035038Y009830D01*
X028038Y009830D01*
X027538Y010330D01*
X027538Y009330D02*
X028038Y008830D01*
X035038Y008830D01*
X035538Y009330D01*
X036788Y009330D01*
X037288Y008830D01*
X038288Y008830D01*
X038788Y009330D01*
X043538Y009330D01*
X042913Y008830D02*
X048213Y008830D01*
X048538Y008505D01*
X049363Y007905D02*
X049538Y008080D01*
X049363Y007905D02*
X045188Y007905D01*
X045063Y008030D01*
X043838Y008030D01*
X043538Y008330D01*
X042913Y008830D02*
X042663Y008580D01*
X038913Y008580D01*
X037913Y007580D01*
X036288Y007580D01*
X035538Y008330D01*
X035163Y007705D02*
X035538Y007330D01*
X043538Y007330D01*
X043913Y007330D01*
X051163Y007330D01*
X051538Y007330D01*
X051538Y007080D01*
X053288Y005330D01*
X053788Y005830D01*
X056538Y005830D01*
X057038Y005330D01*
X057538Y005330D01*
X056788Y005830D02*
X056288Y006330D01*
X056788Y005830D02*
X060038Y005830D01*
X060538Y006330D01*
X060538Y005330D02*
X060038Y004830D01*
X056788Y004830D01*
X056288Y005330D01*
X055788Y004830D01*
X053038Y004830D01*
X051538Y006330D01*
X051163Y006705D01*
X043913Y006705D01*
X043538Y006330D01*
X043538Y005580D01*
X044038Y005080D01*
X044538Y005330D02*
X044538Y004580D01*
X045038Y004080D01*
X046288Y003330D02*
X031163Y003330D01*
X029038Y005455D01*
X027913Y006705D02*
X027538Y006330D01*
X027913Y006705D02*
X035163Y006705D01*
X035538Y006330D01*
X035913Y006705D01*
X043163Y006705D01*
X043538Y006330D01*
X044163Y005705D02*
X044538Y005330D01*
X045038Y005080D02*
X045538Y005580D01*
X051663Y005580D01*
X052413Y004830D01*
X053288Y006330D02*
X053788Y006830D01*
X057038Y006830D01*
X057538Y006330D01*
X057538Y007330D02*
X060538Y007330D01*
X060038Y007830D02*
X060288Y008080D01*
X060538Y008330D01*
X060038Y008830D02*
X056788Y008830D01*
X057538Y009330D02*
X057038Y009830D01*
X053788Y009830D01*
X053288Y009330D01*
X052288Y010330D01*
X051538Y010330D01*
X051038Y009830D01*
X050538Y009330D02*
X045538Y009330D01*
X045538Y010330D02*
X045038Y010830D01*
X038038Y010830D01*
X037538Y010330D01*
X037038Y010830D01*
X030038Y010830D01*
X029538Y010330D01*
X029038Y010830D01*
X022038Y010830D01*
X021538Y010330D01*
X021038Y009830D02*
X021038Y010830D01*
X021538Y011330D01*
X021038Y011830D01*
X021038Y012455D01*
X021413Y012830D01*
X021913Y012830D01*
X022413Y013330D01*
X027538Y013330D01*
X029038Y012830D02*
X022288Y012830D01*
X021788Y012330D01*
X021538Y012330D01*
X019788Y012830D02*
X019788Y013080D01*
X019288Y013580D01*
X018163Y013580D01*
X013663Y013580D01*
X013163Y014080D01*
X012538Y014080D01*
X012913Y013580D02*
X013413Y013080D01*
X014038Y013080D01*
X013038Y012580D02*
X012538Y012080D01*
X012013Y012605D01*
X006563Y012605D01*
X006038Y012080D01*
X007038Y011580D02*
X007538Y011080D01*
X008038Y011580D01*
X013538Y011580D01*
X014038Y011080D01*
X013663Y010705D02*
X012913Y010705D01*
X012538Y011080D01*
X012163Y010705D01*
X007913Y010705D01*
X007788Y010580D01*
X007288Y010580D01*
X007163Y010705D01*
X006413Y010705D01*
X006038Y011080D01*
X006288Y010580D02*
X001538Y010580D01*
X001038Y010080D01*
X001038Y011080D02*
X001538Y011580D01*
X007038Y011580D01*
X007538Y012080D02*
X011663Y012080D01*
X013038Y012580D02*
X018538Y012580D01*
X019038Y012080D01*
X019788Y012830D02*
X019788Y005955D01*
X019788Y005080D01*
X018788Y004080D01*
X018288Y004455D02*
X018288Y003705D01*
X018288Y003580D01*
X018288Y004455D02*
X018413Y004580D01*
X018913Y004580D01*
X019538Y005205D01*
X019538Y008580D01*
X019038Y009080D01*
X018538Y009580D02*
X019038Y010080D01*
X018913Y010705D02*
X014413Y010705D01*
X014288Y010580D01*
X013788Y010580D01*
X013663Y010705D01*
X013663Y010455D02*
X012913Y010455D01*
X012788Y010580D01*
X012288Y010580D01*
X012163Y010455D01*
X007913Y010455D01*
X007538Y010080D01*
X007163Y010455D01*
X006413Y010455D01*
X006288Y010580D01*
X006038Y010080D02*
X006538Y009580D01*
X008413Y009580D01*
X008538Y009705D01*
X012163Y009705D01*
X012538Y010080D01*
X013038Y009580D01*
X018538Y009580D01*
X018913Y010705D02*
X019038Y010830D01*
X019038Y011080D01*
X021038Y009830D02*
X021538Y009330D01*
X019038Y008080D02*
X018663Y008455D01*
X014413Y008455D01*
X014288Y008580D01*
X013788Y008580D01*
X013663Y008455D01*
X012913Y008455D01*
X012538Y008080D01*
X012163Y008455D01*
X007913Y008455D01*
X007788Y008580D01*
X007288Y008580D01*
X007163Y008455D01*
X006413Y008455D01*
X006038Y008080D01*
X006413Y007705D02*
X006288Y007580D01*
X001538Y007580D01*
X001038Y008080D01*
X001538Y008580D02*
X006288Y008580D01*
X006413Y008705D01*
X007163Y008705D01*
X007538Y009080D01*
X007913Y008705D01*
X012163Y008705D01*
X012288Y008580D01*
X012788Y008580D01*
X012913Y008705D01*
X013663Y008705D01*
X014038Y009080D01*
X012538Y009080D02*
X012163Y009455D01*
X008663Y009455D01*
X008413Y009205D01*
X007538Y008080D02*
X007163Y007705D01*
X006413Y007705D01*
X006413Y007455D02*
X006038Y007080D01*
X006413Y007455D02*
X007163Y007455D01*
X007288Y007580D01*
X007788Y007580D01*
X007913Y007455D01*
X012163Y007455D01*
X012538Y007080D01*
X012913Y007455D01*
X013663Y007455D01*
X013788Y007580D01*
X014288Y007580D01*
X014413Y007455D01*
X018663Y007455D01*
X019038Y007080D01*
X014538Y006580D02*
X014538Y005705D01*
X014288Y005455D01*
X014288Y004580D01*
X013788Y004080D01*
X012788Y005080D02*
X012288Y004580D01*
X012288Y003830D01*
X012038Y003580D01*
X009538Y003580D01*
X008913Y004205D01*
X009788Y005080D02*
X007838Y005080D01*
X008038Y005580D02*
X013538Y005580D01*
X014038Y006080D01*
X013538Y006580D02*
X014038Y007080D01*
X014538Y006580D01*
X013538Y006580D02*
X008038Y006580D01*
X007538Y007080D01*
X007038Y006580D01*
X001538Y006580D01*
X001038Y007080D01*
X001038Y006080D02*
X001538Y005580D01*
X007038Y005580D01*
X007538Y006080D01*
X008038Y005580D01*
X012163Y007705D02*
X012288Y007580D01*
X012788Y007580D01*
X012913Y007705D01*
X013663Y007705D01*
X014038Y008080D01*
X012163Y007705D02*
X007913Y007705D01*
X007538Y008080D01*
X013663Y010455D02*
X014038Y010080D01*
X008038Y013580D02*
X007538Y013080D01*
X007038Y013580D01*
X001538Y013580D01*
X001038Y013080D01*
X001038Y014080D02*
X001663Y014705D01*
X006913Y014705D01*
X007538Y014080D01*
X008163Y014705D01*
X013413Y014705D01*
X014038Y014080D01*
X012913Y013580D02*
X008038Y013580D01*
X001538Y008580D02*
X001038Y009080D01*
X021538Y013330D02*
X022038Y013830D01*
X029038Y013830D01*
X029538Y013330D01*
X030038Y013830D01*
X037038Y013830D01*
X037538Y013330D01*
X038038Y013830D01*
X045038Y013830D01*
X045538Y013330D01*
X046288Y014080D01*
X051663Y014080D01*
X051788Y014080D01*
X055788Y014080D01*
X059913Y009955D01*
X060538Y009330D01*
X060038Y008830D01*
X059913Y009955D02*
X059788Y010080D01*
X052538Y008080D02*
X052413Y007955D01*
X052288Y007830D01*
X051288Y007830D01*
X051088Y007630D01*
X044038Y007630D01*
X047038Y005080D02*
X047538Y004580D01*
X047538Y003705D01*
X047163Y003330D01*
X046288Y003330D01*
X046538Y003580D02*
X038913Y003580D01*
X036913Y005580D01*
X035163Y007705D02*
X027913Y007705D01*
X027538Y007330D01*
X027538Y011330D02*
X028038Y011830D01*
X035038Y011830D01*
X035538Y011330D01*
X036038Y011830D01*
X043038Y011830D01*
X043538Y011330D01*
X044038Y011830D01*
X051038Y011830D01*
X051538Y011330D01*
X050538Y009330D02*
X051538Y008330D01*
X045538Y012330D02*
X045038Y012830D01*
X038038Y012830D01*
X037538Y012330D01*
X037038Y012830D01*
X030038Y012830D01*
X029538Y012330D01*
X029038Y012830D01*
X031663Y019080D02*
X046038Y019080D01*
X046038Y019580D01*
X046538Y019830D02*
X046163Y020205D01*
X040038Y020205D01*
X039788Y020455D01*
X037538Y020455D01*
X031413Y020455D01*
X031788Y020830D02*
X037413Y020830D01*
X039738Y020830D01*
X040113Y020455D01*
X046163Y020455D01*
X047038Y019580D01*
X046538Y019830D02*
X046538Y019080D01*
X047038Y018580D01*
X047538Y019080D02*
X047538Y019830D01*
X047538Y020330D01*
X047163Y020705D01*
X040163Y020705D01*
X039788Y021080D01*
X037413Y021080D01*
X032413Y021080D01*
X032288Y021080D01*
X032163Y021205D01*
X031788Y021455D02*
X031913Y021580D01*
X032413Y021580D01*
X032538Y021455D01*
X048713Y021455D01*
X047538Y019080D02*
X048038Y018580D01*
X036938Y022405D02*
X034438Y022405D01*
X034338Y022405D01*
X033538Y023205D01*
X031538Y024205D02*
X031438Y024205D01*
X028513Y021280D01*
X029013Y020955D02*
X027663Y020955D01*
X029013Y020955D02*
X029338Y021280D01*
X029338Y021755D01*
X029538Y021955D01*
X032913Y021955D01*
X031788Y021455D02*
X029663Y021455D01*
X028163Y020205D02*
X024663Y020205D01*
X024313Y020555D01*
X024313Y019605D01*
X024163Y019455D01*
X021863Y019455D01*
X023413Y020080D02*
X020163Y020080D01*
X019163Y019080D01*
X007538Y019080D01*
X007476Y019143D01*
X007038Y019580D01*
X007476Y019143D02*
X007538Y019080D01*
X010163Y020455D02*
X007038Y023580D01*
X012088Y023475D02*
X012088Y024130D01*
X012663Y024705D01*
X018038Y024705D01*
X018413Y024330D01*
X018413Y023330D01*
X018038Y023705D02*
X018038Y024205D01*
X017788Y024455D01*
X017538Y024455D01*
X013111Y024455D01*
X012388Y023733D01*
X012388Y023220D02*
X013248Y024080D01*
X017663Y024080D01*
X021163Y023830D02*
X021163Y021405D01*
X021163Y021380D01*
X022163Y021005D02*
X022163Y023830D01*
X023163Y023830D02*
X023163Y021005D01*
X023413Y020455D02*
X011163Y020455D01*
X010163Y020455D01*
X023413Y020455D02*
X024288Y021330D01*
X026163Y021330D01*
X026163Y020862D02*
X024196Y020862D01*
X023413Y020080D01*
X031063Y020105D02*
X031088Y020130D01*
X031088Y019655D01*
X031663Y019080D01*
X032913Y020155D02*
X033238Y019830D01*
X033978Y019830D01*
X047038Y004080D02*
X046538Y003580D01*
D21*
X000521Y003312D02*
X000521Y015848D01*
X002637Y015848D01*
X002688Y015797D01*
X002809Y015747D01*
X002939Y015747D01*
X003060Y015797D01*
X003071Y015807D01*
X003082Y015797D01*
X003202Y015747D01*
X003333Y015747D01*
X003454Y015797D01*
X003464Y015807D01*
X003475Y015797D01*
X003596Y015747D01*
X003727Y015747D01*
X003847Y015797D01*
X003858Y015807D01*
X003869Y015797D01*
X003990Y015747D01*
X004120Y015747D01*
X004241Y015797D01*
X004252Y015807D01*
X004263Y015797D01*
X004383Y015747D01*
X004514Y015747D01*
X004635Y015797D01*
X004686Y015848D01*
X020637Y015848D01*
X020688Y015797D01*
X020809Y015747D01*
X020939Y015747D01*
X021060Y015797D01*
X021071Y015807D01*
X021082Y015797D01*
X021202Y015747D01*
X021333Y015747D01*
X021454Y015797D01*
X021464Y015807D01*
X021475Y015797D01*
X021596Y015747D01*
X021727Y015747D01*
X021847Y015797D01*
X021858Y015807D01*
X021869Y015797D01*
X021990Y015747D01*
X022120Y015747D01*
X022241Y015797D01*
X022252Y015807D01*
X022263Y015797D01*
X022383Y015747D01*
X022514Y015747D01*
X022635Y015797D01*
X022686Y015848D01*
X038637Y015848D01*
X038688Y015797D01*
X038809Y015747D01*
X038939Y015747D01*
X039060Y015797D01*
X039071Y015807D01*
X039082Y015797D01*
X039202Y015747D01*
X039333Y015747D01*
X039454Y015797D01*
X039464Y015807D01*
X039475Y015797D01*
X039596Y015747D01*
X039727Y015747D01*
X039847Y015797D01*
X039858Y015807D01*
X039869Y015797D01*
X039990Y015747D01*
X040120Y015747D01*
X040241Y015797D01*
X040252Y015807D01*
X040263Y015797D01*
X040383Y015747D01*
X040514Y015747D01*
X040635Y015797D01*
X040686Y015848D01*
X056651Y015848D01*
X056692Y015806D01*
X056813Y015756D01*
X056943Y015756D01*
X057064Y015806D01*
X057075Y015817D01*
X057086Y015806D01*
X057206Y015756D01*
X057337Y015756D01*
X057458Y015806D01*
X057468Y015817D01*
X057479Y015806D01*
X057600Y015756D01*
X057731Y015756D01*
X057851Y015806D01*
X057862Y015817D01*
X057873Y015806D01*
X057994Y015756D01*
X058124Y015756D01*
X058245Y015806D01*
X058256Y015817D01*
X058267Y015806D01*
X058387Y015756D01*
X058518Y015756D01*
X058639Y015806D01*
X058680Y015848D01*
X060798Y015848D01*
X060798Y009693D01*
X060788Y009703D01*
X060626Y009770D01*
X060451Y009770D01*
X060392Y009745D01*
X060103Y010034D01*
X055867Y014270D01*
X046210Y014270D01*
X045710Y013770D01*
X045367Y013770D01*
X045117Y014020D01*
X037960Y014020D01*
X037848Y013909D01*
X037848Y013909D01*
X037710Y013770D01*
X037367Y013770D01*
X037117Y014020D01*
X029960Y014020D01*
X029848Y013909D01*
X029710Y013770D01*
X029367Y013770D01*
X029117Y014020D01*
X021960Y014020D01*
X021848Y013909D01*
X021710Y013770D01*
X021180Y013770D01*
X021098Y013688D01*
X021098Y012972D01*
X021180Y012890D01*
X021205Y012890D01*
X020960Y012645D01*
X020848Y012534D01*
X020848Y011751D01*
X021123Y011477D01*
X021098Y011418D01*
X021098Y011242D01*
X021123Y011183D01*
X020848Y010909D01*
X020848Y009751D01*
X020960Y009640D01*
X021123Y009477D01*
X021098Y009418D01*
X021098Y009242D01*
X021165Y009081D01*
X021289Y008957D01*
X021451Y008890D01*
X021626Y008890D01*
X021788Y008957D01*
X021911Y009081D01*
X021978Y009242D01*
X021978Y009418D01*
X021911Y009579D01*
X021788Y009703D01*
X021626Y009770D01*
X021451Y009770D01*
X021392Y009745D01*
X021228Y009909D01*
X021228Y010018D01*
X021289Y009957D01*
X021451Y009890D01*
X021626Y009890D01*
X021788Y009957D01*
X021911Y010081D01*
X021978Y010242D01*
X021978Y010418D01*
X021954Y010477D01*
X022117Y010640D01*
X027226Y010640D01*
X027165Y010579D01*
X027098Y010418D01*
X027098Y010242D01*
X027165Y010081D01*
X027289Y009957D01*
X027451Y009890D01*
X027626Y009890D01*
X027685Y009915D01*
X027960Y009640D01*
X029226Y009640D01*
X029165Y009579D01*
X029098Y009418D01*
X029098Y009242D01*
X029165Y009081D01*
X029226Y009020D01*
X028117Y009020D01*
X027954Y009183D01*
X027978Y009242D01*
X027978Y009418D01*
X027911Y009579D01*
X027788Y009703D01*
X027626Y009770D01*
X027451Y009770D01*
X027289Y009703D01*
X027165Y009579D01*
X027098Y009418D01*
X027098Y009242D01*
X027165Y009081D01*
X027289Y008957D01*
X027451Y008890D01*
X027626Y008890D01*
X027685Y008915D01*
X027960Y008640D01*
X029226Y008640D01*
X029165Y008579D01*
X029098Y008418D01*
X029098Y008242D01*
X029165Y008081D01*
X029289Y007957D01*
X029439Y007895D01*
X027835Y007895D01*
X027723Y007784D01*
X027685Y007745D01*
X027626Y007770D01*
X027451Y007770D01*
X027289Y007703D01*
X027165Y007579D01*
X027098Y007418D01*
X027098Y007242D01*
X027165Y007081D01*
X027289Y006957D01*
X027451Y006890D01*
X027626Y006890D01*
X027788Y006957D01*
X027911Y007081D01*
X027978Y007242D01*
X027978Y007418D01*
X027954Y007477D01*
X027992Y007515D01*
X035085Y007515D01*
X035123Y007477D01*
X035098Y007418D01*
X035098Y007242D01*
X035165Y007081D01*
X035289Y006957D01*
X035451Y006890D01*
X035626Y006890D01*
X035788Y006957D01*
X035911Y007081D01*
X035936Y007140D01*
X043141Y007140D01*
X043165Y007081D01*
X043289Y006957D01*
X043451Y006890D01*
X043626Y006890D01*
X043788Y006957D01*
X043911Y007081D01*
X043936Y007140D01*
X051141Y007140D01*
X051165Y007081D01*
X051289Y006957D01*
X051451Y006890D01*
X051460Y006890D01*
X051580Y006770D01*
X051451Y006770D01*
X051392Y006745D01*
X051242Y006895D01*
X043835Y006895D01*
X043685Y006745D01*
X043626Y006770D01*
X043451Y006770D01*
X043392Y006745D01*
X043242Y006895D01*
X035835Y006895D01*
X035723Y006784D01*
X035685Y006745D01*
X035626Y006770D01*
X035451Y006770D01*
X035392Y006745D01*
X035242Y006895D01*
X027835Y006895D01*
X027723Y006784D01*
X027685Y006745D01*
X027626Y006770D01*
X027451Y006770D01*
X027289Y006703D01*
X027165Y006579D01*
X027098Y006418D01*
X027098Y006242D01*
X027165Y006081D01*
X027289Y005957D01*
X027451Y005890D01*
X027626Y005890D01*
X027788Y005957D01*
X027911Y006081D01*
X027978Y006242D01*
X027978Y006418D01*
X027954Y006477D01*
X027992Y006515D01*
X035085Y006515D01*
X035123Y006477D01*
X035098Y006418D01*
X035098Y006242D01*
X035165Y006081D01*
X035289Y005957D01*
X035451Y005890D01*
X035626Y005890D01*
X035788Y005957D01*
X035911Y006081D01*
X035978Y006242D01*
X035978Y006418D01*
X035954Y006477D01*
X035992Y006515D01*
X043085Y006515D01*
X043123Y006477D01*
X043098Y006418D01*
X043098Y006242D01*
X043165Y006081D01*
X043289Y005957D01*
X043348Y005932D01*
X043348Y005501D01*
X043598Y005251D01*
X043598Y004898D01*
X043856Y004640D01*
X044221Y004640D01*
X044348Y004768D01*
X044348Y004501D01*
X044460Y004390D01*
X044598Y004251D01*
X044598Y003898D01*
X044726Y003770D01*
X044351Y003770D01*
X044478Y003898D01*
X044478Y004262D01*
X044221Y004520D01*
X043856Y004520D01*
X043598Y004262D01*
X043598Y003898D01*
X043726Y003770D01*
X043351Y003770D01*
X043478Y003898D01*
X043478Y004262D01*
X043221Y004520D01*
X042856Y004520D01*
X042598Y004262D01*
X042598Y003898D01*
X042726Y003770D01*
X042351Y003770D01*
X042478Y003898D01*
X042478Y004262D01*
X042221Y004520D01*
X041856Y004520D01*
X041598Y004262D01*
X041598Y003898D01*
X041726Y003770D01*
X038992Y003770D01*
X037241Y005521D01*
X037241Y005645D01*
X037191Y005766D01*
X037099Y005858D01*
X036979Y005908D01*
X036848Y005908D01*
X036727Y005858D01*
X036635Y005766D01*
X036585Y005645D01*
X036585Y005515D01*
X036635Y005394D01*
X036727Y005302D01*
X036848Y005252D01*
X036973Y005252D01*
X038705Y003520D01*
X031242Y003520D01*
X029366Y005396D01*
X029366Y005520D01*
X029316Y005641D01*
X029224Y005733D01*
X029104Y005783D01*
X028973Y005783D01*
X028852Y005733D01*
X028760Y005641D01*
X028710Y005520D01*
X028710Y005390D01*
X028760Y005269D01*
X028852Y005177D01*
X028973Y005127D01*
X029098Y005127D01*
X030912Y003312D01*
X018485Y003312D01*
X018566Y003394D01*
X018616Y003515D01*
X018616Y003640D01*
X018971Y003640D01*
X019228Y003898D01*
X019228Y004251D01*
X019978Y005001D01*
X019978Y013159D01*
X019867Y013270D01*
X019367Y013770D01*
X019351Y013770D01*
X019411Y013831D01*
X019478Y013992D01*
X019478Y014168D01*
X019411Y014329D01*
X019288Y014453D01*
X019126Y014520D01*
X018951Y014520D01*
X018789Y014453D01*
X018665Y014329D01*
X018598Y014168D01*
X018598Y013992D01*
X018665Y013831D01*
X018726Y013770D01*
X014478Y013770D01*
X014478Y014438D01*
X014396Y014520D01*
X013867Y014520D01*
X013603Y014784D01*
X013492Y014895D01*
X008085Y014895D01*
X007710Y014520D01*
X007367Y014520D01*
X006992Y014895D01*
X001585Y014895D01*
X001473Y014784D01*
X001210Y014520D01*
X000680Y014520D01*
X000598Y014438D01*
X000598Y013722D01*
X000680Y013640D01*
X001330Y013640D01*
X001185Y013495D01*
X001126Y013520D01*
X000951Y013520D01*
X000789Y013453D01*
X000665Y013329D01*
X000598Y013168D01*
X000598Y012992D01*
X000665Y012831D01*
X000789Y012707D01*
X000951Y012640D01*
X001126Y012640D01*
X001288Y012707D01*
X001411Y012831D01*
X001478Y012992D01*
X001478Y013168D01*
X001454Y013227D01*
X001617Y013390D01*
X005726Y013390D01*
X005665Y013329D01*
X005598Y013168D01*
X005598Y012992D01*
X005665Y012831D01*
X005789Y012707D01*
X005951Y012640D01*
X006126Y012640D01*
X006288Y012707D01*
X006411Y012831D01*
X006478Y012992D01*
X006478Y013168D01*
X006411Y013329D01*
X006351Y013390D01*
X006960Y013390D01*
X007123Y013227D01*
X007098Y013168D01*
X007098Y012992D01*
X007165Y012831D01*
X007201Y012795D01*
X006485Y012795D01*
X006185Y012495D01*
X006126Y012520D01*
X005951Y012520D01*
X005789Y012453D01*
X005665Y012329D01*
X005598Y012168D01*
X005598Y011992D01*
X005665Y011831D01*
X005726Y011770D01*
X001460Y011770D01*
X001348Y011659D01*
X001185Y011495D01*
X001126Y011520D01*
X000951Y011520D01*
X000789Y011453D01*
X000665Y011329D01*
X000598Y011168D01*
X000598Y010992D01*
X000665Y010831D01*
X000789Y010707D01*
X000951Y010640D01*
X001126Y010640D01*
X001288Y010707D01*
X001411Y010831D01*
X001478Y010992D01*
X001478Y011168D01*
X001454Y011227D01*
X001617Y011390D01*
X005726Y011390D01*
X005665Y011329D01*
X005598Y011168D01*
X005598Y010992D01*
X005665Y010831D01*
X005726Y010770D01*
X001460Y010770D01*
X001185Y010495D01*
X001126Y010520D01*
X000951Y010520D01*
X000789Y010453D01*
X000665Y010329D01*
X000598Y010168D01*
X000598Y009992D01*
X000665Y009831D01*
X000789Y009707D01*
X000951Y009640D01*
X001126Y009640D01*
X001288Y009707D01*
X001411Y009831D01*
X001478Y009992D01*
X001478Y010168D01*
X001454Y010227D01*
X001617Y010390D01*
X005726Y010390D01*
X005665Y010329D01*
X005598Y010168D01*
X005598Y009992D01*
X005665Y009831D01*
X005789Y009707D01*
X005951Y009640D01*
X006126Y009640D01*
X006185Y009665D01*
X006348Y009501D01*
X006460Y009390D01*
X007226Y009390D01*
X007165Y009329D01*
X007098Y009168D01*
X007098Y008992D01*
X007123Y008933D01*
X007085Y008895D01*
X006438Y008895D01*
X006478Y008992D01*
X006478Y009168D01*
X006411Y009329D01*
X006288Y009453D01*
X006126Y009520D01*
X005951Y009520D01*
X005789Y009453D01*
X005665Y009329D01*
X005598Y009168D01*
X005598Y008992D01*
X005665Y008831D01*
X005726Y008770D01*
X001617Y008770D01*
X001454Y008933D01*
X001478Y008992D01*
X001478Y009168D01*
X001411Y009329D01*
X001288Y009453D01*
X001126Y009520D01*
X000951Y009520D01*
X000789Y009453D01*
X000665Y009329D01*
X000598Y009168D01*
X000598Y008992D01*
X000665Y008831D01*
X000789Y008707D01*
X000951Y008640D01*
X001126Y008640D01*
X001185Y008665D01*
X001348Y008501D01*
X001460Y008390D01*
X005726Y008390D01*
X005665Y008329D01*
X005598Y008168D01*
X005598Y007992D01*
X005665Y007831D01*
X005726Y007770D01*
X001617Y007770D01*
X001454Y007933D01*
X001478Y007992D01*
X001478Y008168D01*
X001411Y008329D01*
X001288Y008453D01*
X001126Y008520D01*
X000951Y008520D01*
X000789Y008453D01*
X000665Y008329D01*
X000598Y008168D01*
X000598Y007992D01*
X000665Y007831D01*
X000789Y007707D01*
X000951Y007640D01*
X001126Y007640D01*
X001185Y007665D01*
X001460Y007390D01*
X005726Y007390D01*
X005665Y007329D01*
X005598Y007168D01*
X005598Y006992D01*
X005665Y006831D01*
X005726Y006770D01*
X001617Y006770D01*
X001454Y006933D01*
X001478Y006992D01*
X001478Y007168D01*
X001411Y007329D01*
X001288Y007453D01*
X001126Y007520D01*
X000951Y007520D01*
X000789Y007453D01*
X000665Y007329D01*
X000598Y007168D01*
X000598Y006992D01*
X000665Y006831D01*
X000789Y006707D01*
X000951Y006640D01*
X001126Y006640D01*
X001185Y006665D01*
X001460Y006390D01*
X005726Y006390D01*
X005665Y006329D01*
X005598Y006168D01*
X005598Y005992D01*
X005665Y005831D01*
X005726Y005770D01*
X001617Y005770D01*
X001454Y005933D01*
X005623Y005933D01*
X005598Y006092D02*
X001478Y006092D01*
X001478Y006168D02*
X001478Y005992D01*
X001454Y005933D01*
X001613Y005775D02*
X005722Y005775D01*
X006351Y005770D02*
X006411Y005831D01*
X006478Y005992D01*
X006478Y006168D01*
X006411Y006329D01*
X006351Y006390D01*
X007117Y006390D01*
X007228Y006501D01*
X007392Y006665D01*
X007451Y006640D01*
X007626Y006640D01*
X007685Y006665D01*
X007848Y006501D01*
X007960Y006390D01*
X012226Y006390D01*
X012165Y006329D01*
X012098Y006168D01*
X012098Y005992D01*
X012165Y005831D01*
X012226Y005770D01*
X008117Y005770D01*
X007954Y005933D01*
X012123Y005933D01*
X012098Y006092D02*
X007978Y006092D01*
X007978Y006168D02*
X007978Y005992D01*
X007954Y005933D01*
X008113Y005775D02*
X012222Y005775D01*
X012101Y005390D02*
X012476Y005390D01*
X012348Y005262D01*
X012348Y004909D01*
X012098Y004659D01*
X012098Y004392D01*
X011971Y004520D01*
X011606Y004520D01*
X011348Y004262D01*
X011348Y003898D01*
X011476Y003770D01*
X011101Y003770D01*
X011228Y003898D01*
X011228Y004262D01*
X010971Y004520D01*
X010606Y004520D01*
X010348Y004262D01*
X010348Y003898D01*
X010476Y003770D01*
X010101Y003770D01*
X010228Y003898D01*
X010228Y004262D01*
X009971Y004520D01*
X009606Y004520D01*
X009348Y004262D01*
X009348Y004039D01*
X009241Y004146D01*
X009241Y004270D01*
X009191Y004391D01*
X009099Y004483D01*
X008979Y004533D01*
X008848Y004533D01*
X008727Y004483D01*
X008635Y004391D01*
X008585Y004270D01*
X008585Y004140D01*
X008635Y004019D01*
X008727Y003927D01*
X008848Y003877D01*
X008973Y003877D01*
X009460Y003390D01*
X012117Y003390D01*
X012367Y003640D01*
X012478Y003751D01*
X012478Y003768D01*
X012606Y003640D01*
X012971Y003640D01*
X013228Y003898D01*
X013228Y004262D01*
X012971Y004520D01*
X012606Y004520D01*
X012478Y004392D01*
X012478Y004501D01*
X012617Y004640D01*
X012971Y004640D01*
X013228Y004898D01*
X013228Y005262D01*
X013101Y005390D01*
X013476Y005390D01*
X013348Y005262D01*
X013348Y004898D01*
X013606Y004640D01*
X013971Y004640D01*
X014098Y004768D01*
X014098Y004659D01*
X013960Y004520D01*
X013606Y004520D01*
X013348Y004262D01*
X013348Y003898D01*
X013606Y003640D01*
X013971Y003640D01*
X014228Y003898D01*
X014228Y004251D01*
X014478Y004501D01*
X014478Y004768D01*
X014606Y004640D01*
X014971Y004640D01*
X015228Y004898D01*
X015228Y005262D01*
X014971Y005520D01*
X014622Y005520D01*
X014728Y005626D01*
X014728Y006659D01*
X014617Y006770D01*
X014454Y006933D01*
X014478Y006992D01*
X014478Y007168D01*
X014438Y007265D01*
X018585Y007265D01*
X018623Y007227D01*
X018598Y007168D01*
X018598Y006992D01*
X018665Y006831D01*
X018789Y006707D01*
X018951Y006640D01*
X019126Y006640D01*
X019288Y006707D01*
X019348Y006768D01*
X019348Y006392D01*
X019288Y006453D01*
X019126Y006520D01*
X018951Y006520D01*
X018789Y006453D01*
X018665Y006329D01*
X018598Y006168D01*
X018598Y005992D01*
X018665Y005831D01*
X018789Y005707D01*
X018951Y005640D01*
X019126Y005640D01*
X019288Y005707D01*
X019348Y005768D01*
X019348Y005284D01*
X019228Y005164D01*
X019228Y005262D01*
X018971Y005520D01*
X018606Y005520D01*
X018348Y005262D01*
X018348Y004898D01*
X018476Y004770D01*
X018335Y004770D01*
X018210Y004645D01*
X018098Y004534D01*
X018098Y004449D01*
X017987Y004560D01*
X017808Y004560D01*
X017808Y004100D01*
X017768Y004100D01*
X017768Y004060D01*
X017308Y004060D01*
X017308Y003881D01*
X017589Y003600D01*
X017768Y003600D01*
X017768Y004060D01*
X017808Y004060D01*
X017808Y003600D01*
X017960Y003600D01*
X017960Y003515D01*
X018010Y003394D01*
X018092Y003312D01*
X000521Y003312D01*
X000521Y003397D02*
X009453Y003397D01*
X009294Y003556D02*
X000521Y003556D01*
X000521Y003714D02*
X009136Y003714D01*
X008977Y003873D02*
X000521Y003873D01*
X000521Y004031D02*
X008630Y004031D01*
X008585Y004190D02*
X000521Y004190D01*
X000521Y004348D02*
X008617Y004348D01*
X008784Y004507D02*
X000521Y004507D01*
X000521Y004665D02*
X009581Y004665D01*
X009606Y004640D02*
X009971Y004640D01*
X010228Y004898D01*
X010228Y005262D01*
X010101Y005390D01*
X010476Y005390D01*
X010348Y005262D01*
X010348Y004898D01*
X010606Y004640D01*
X010971Y004640D01*
X011228Y004898D01*
X011228Y005262D01*
X011101Y005390D01*
X011476Y005390D01*
X011348Y005262D01*
X011348Y004898D01*
X011606Y004640D01*
X011971Y004640D01*
X012228Y004898D01*
X012228Y005262D01*
X012101Y005390D01*
X012192Y005299D02*
X012385Y005299D01*
X012348Y005141D02*
X012228Y005141D01*
X012228Y004982D02*
X012348Y004982D01*
X012263Y004824D02*
X012154Y004824D01*
X012105Y004665D02*
X011996Y004665D01*
X011984Y004507D02*
X012098Y004507D01*
X012484Y004507D02*
X012593Y004507D01*
X012984Y004507D02*
X013593Y004507D01*
X013581Y004665D02*
X012996Y004665D01*
X013154Y004824D02*
X013423Y004824D01*
X013348Y004982D02*
X013228Y004982D01*
X013228Y005141D02*
X013348Y005141D01*
X013385Y005299D02*
X013192Y005299D01*
X013996Y004665D02*
X014098Y004665D01*
X014478Y004665D02*
X014581Y004665D01*
X014606Y004520D02*
X014348Y004262D01*
X014348Y003898D01*
X014606Y003640D01*
X014971Y003640D01*
X015228Y003898D01*
X015228Y004262D01*
X014971Y004520D01*
X014606Y004520D01*
X014593Y004507D02*
X014478Y004507D01*
X014434Y004348D02*
X014325Y004348D01*
X014348Y004190D02*
X014228Y004190D01*
X014228Y004031D02*
X014348Y004031D01*
X014374Y003873D02*
X014203Y003873D01*
X014045Y003714D02*
X014532Y003714D01*
X015045Y003714D02*
X015532Y003714D01*
X015606Y003640D02*
X015348Y003898D01*
X015348Y004262D01*
X015606Y004520D01*
X015971Y004520D01*
X016228Y004262D01*
X016228Y003898D01*
X015971Y003640D01*
X015606Y003640D01*
X015374Y003873D02*
X015203Y003873D01*
X015228Y004031D02*
X015348Y004031D01*
X015348Y004190D02*
X015228Y004190D01*
X015143Y004348D02*
X015434Y004348D01*
X015593Y004507D02*
X014984Y004507D01*
X014996Y004665D02*
X015581Y004665D01*
X015606Y004640D02*
X015971Y004640D01*
X016228Y004898D01*
X016228Y005262D01*
X015971Y005520D01*
X015606Y005520D01*
X015348Y005262D01*
X015348Y004898D01*
X015606Y004640D01*
X015423Y004824D02*
X015154Y004824D01*
X015228Y004982D02*
X015348Y004982D01*
X015348Y005141D02*
X015228Y005141D01*
X015192Y005299D02*
X015385Y005299D01*
X015544Y005458D02*
X015033Y005458D01*
X014718Y005616D02*
X019348Y005616D01*
X019348Y005458D02*
X019033Y005458D01*
X019192Y005299D02*
X019348Y005299D01*
X019978Y005299D02*
X028748Y005299D01*
X028710Y005458D02*
X019978Y005458D01*
X019978Y005616D02*
X028750Y005616D01*
X028952Y005775D02*
X019978Y005775D01*
X019978Y005933D02*
X027347Y005933D01*
X027161Y006092D02*
X019978Y006092D01*
X019978Y006250D02*
X027098Y006250D01*
X027098Y006409D02*
X019978Y006409D01*
X019978Y006567D02*
X027160Y006567D01*
X027343Y006726D02*
X019978Y006726D01*
X019978Y006884D02*
X027824Y006884D01*
X027873Y007043D02*
X035204Y007043D01*
X035253Y006884D02*
X035824Y006884D01*
X035873Y007043D02*
X043204Y007043D01*
X043253Y006884D02*
X043824Y006884D01*
X043873Y007043D02*
X051204Y007043D01*
X051253Y006884D02*
X051466Y006884D01*
X051859Y007028D02*
X051911Y007081D01*
X051978Y007242D01*
X051978Y007418D01*
X051911Y007579D01*
X051851Y007640D01*
X052367Y007640D01*
X052492Y007765D01*
X052617Y007890D01*
X052728Y008001D01*
X052728Y008931D01*
X052816Y009019D01*
X052848Y009096D01*
X052848Y008972D01*
X052930Y008890D01*
X053580Y008890D01*
X053435Y008745D01*
X053376Y008770D01*
X053201Y008770D01*
X053039Y008703D01*
X052915Y008579D01*
X052848Y008418D01*
X052848Y008242D01*
X052915Y008081D01*
X053039Y007957D01*
X053201Y007890D01*
X053376Y007890D01*
X053538Y007957D01*
X053661Y008081D01*
X053728Y008242D01*
X053728Y008418D01*
X053704Y008477D01*
X053867Y008640D01*
X055976Y008640D01*
X055915Y008579D01*
X055848Y008418D01*
X055848Y008242D01*
X055915Y008081D01*
X056039Y007957D01*
X056201Y007890D01*
X056376Y007890D01*
X056435Y007915D01*
X056710Y007640D01*
X057226Y007640D01*
X057165Y007579D01*
X057098Y007418D01*
X057098Y007242D01*
X057165Y007081D01*
X057289Y006957D01*
X057451Y006890D01*
X057626Y006890D01*
X057788Y006957D01*
X057911Y007081D01*
X057936Y007140D01*
X060141Y007140D01*
X060165Y007081D01*
X060289Y006957D01*
X060451Y006890D01*
X060626Y006890D01*
X060788Y006957D01*
X060798Y006967D01*
X060798Y006693D01*
X060788Y006703D01*
X060626Y006770D01*
X060451Y006770D01*
X060289Y006703D01*
X060165Y006579D01*
X060098Y006418D01*
X060098Y006242D01*
X060123Y006183D01*
X059960Y006020D01*
X057851Y006020D01*
X057911Y006081D01*
X057978Y006242D01*
X057978Y006418D01*
X057911Y006579D01*
X057788Y006703D01*
X057626Y006770D01*
X057451Y006770D01*
X057392Y006745D01*
X057228Y006909D01*
X057117Y007020D01*
X056601Y007020D01*
X056661Y007081D01*
X056728Y007242D01*
X056728Y007418D01*
X056661Y007579D01*
X056538Y007703D01*
X056376Y007770D01*
X056201Y007770D01*
X056039Y007703D01*
X055915Y007579D01*
X055848Y007418D01*
X055848Y007242D01*
X055915Y007081D01*
X055976Y007020D01*
X053710Y007020D01*
X053598Y006909D01*
X053598Y006909D01*
X053435Y006745D01*
X053376Y006770D01*
X053201Y006770D01*
X053039Y006703D01*
X052915Y006579D01*
X052848Y006418D01*
X052848Y006242D01*
X052915Y006081D01*
X053039Y005957D01*
X053201Y005890D01*
X053376Y005890D01*
X053538Y005957D01*
X053661Y006081D01*
X053728Y006242D01*
X053728Y006418D01*
X053704Y006477D01*
X053867Y006640D01*
X055976Y006640D01*
X055915Y006579D01*
X055848Y006418D01*
X055848Y006242D01*
X055915Y006081D01*
X055976Y006020D01*
X053710Y006020D01*
X053435Y005745D01*
X053376Y005770D01*
X053201Y005770D01*
X053142Y005745D01*
X051859Y007028D01*
X051873Y007043D02*
X052954Y007043D01*
X052915Y007081D02*
X053039Y006957D01*
X053201Y006890D01*
X053376Y006890D01*
X053538Y006957D01*
X053661Y007081D01*
X053728Y007242D01*
X053728Y007418D01*
X053661Y007579D01*
X053538Y007703D01*
X053376Y007770D01*
X053201Y007770D01*
X053039Y007703D01*
X052915Y007579D01*
X052848Y007418D01*
X052848Y007242D01*
X052915Y007081D01*
X052865Y007201D02*
X051961Y007201D01*
X051978Y007360D02*
X052848Y007360D01*
X052890Y007518D02*
X051937Y007518D01*
X052404Y007677D02*
X053013Y007677D01*
X052562Y007835D02*
X056515Y007835D01*
X056564Y007677D02*
X056673Y007677D01*
X056687Y007518D02*
X057140Y007518D01*
X057098Y007360D02*
X056728Y007360D01*
X056711Y007201D02*
X057115Y007201D01*
X057204Y007043D02*
X056623Y007043D01*
X057253Y006884D02*
X060798Y006884D01*
X060798Y006726D02*
X060733Y006726D01*
X060343Y006726D02*
X057733Y006726D01*
X057916Y006567D02*
X060160Y006567D01*
X060098Y006409D02*
X057978Y006409D01*
X057978Y006250D02*
X060098Y006250D01*
X060031Y006092D02*
X057916Y006092D01*
X057851Y005640D02*
X060117Y005640D01*
X060228Y005751D01*
X060392Y005915D01*
X060451Y005890D01*
X060626Y005890D01*
X060788Y005957D01*
X060798Y005967D01*
X060798Y005693D01*
X060788Y005703D01*
X060626Y005770D01*
X060451Y005770D01*
X060289Y005703D01*
X060165Y005579D01*
X060098Y005418D01*
X060098Y005242D01*
X060123Y005183D01*
X059960Y005020D01*
X057851Y005020D01*
X057911Y005081D01*
X057978Y005242D01*
X057978Y005418D01*
X057911Y005579D01*
X057851Y005640D01*
X057875Y005616D02*
X060202Y005616D01*
X060252Y005775D02*
X060798Y005775D01*
X060798Y005933D02*
X060730Y005933D01*
X060115Y005458D02*
X057962Y005458D01*
X057978Y005299D02*
X060098Y005299D01*
X060080Y005141D02*
X057936Y005141D01*
X056710Y004640D02*
X060117Y004640D01*
X060228Y004751D01*
X060392Y004915D01*
X060451Y004890D01*
X060626Y004890D01*
X060788Y004957D01*
X060798Y004967D01*
X060798Y003312D01*
X047415Y003312D01*
X047728Y003626D01*
X047728Y003768D01*
X047856Y003640D01*
X048221Y003640D01*
X048478Y003898D01*
X048478Y004262D01*
X048221Y004520D01*
X047856Y004520D01*
X047728Y004392D01*
X047728Y004659D01*
X047617Y004770D01*
X047478Y004909D01*
X047478Y005262D01*
X047351Y005390D01*
X047726Y005390D01*
X047598Y005262D01*
X047598Y004898D01*
X047856Y004640D01*
X048221Y004640D01*
X048478Y004898D01*
X048478Y005262D01*
X048351Y005390D01*
X048726Y005390D01*
X048598Y005262D01*
X048598Y004898D01*
X048856Y004640D01*
X049221Y004640D01*
X049478Y004898D01*
X049478Y005262D01*
X049351Y005390D01*
X049726Y005390D01*
X049598Y005262D01*
X049598Y004898D01*
X049856Y004640D01*
X050221Y004640D01*
X050478Y004898D01*
X050478Y005262D01*
X050351Y005390D01*
X050726Y005390D01*
X050598Y005262D01*
X050598Y004898D01*
X050856Y004640D01*
X051221Y004640D01*
X051478Y004898D01*
X051478Y005262D01*
X051351Y005390D01*
X051585Y005390D01*
X052085Y004889D01*
X052085Y004765D01*
X052135Y004644D01*
X052227Y004552D01*
X052348Y004502D01*
X052479Y004502D01*
X052599Y004552D01*
X052691Y004644D01*
X052741Y004765D01*
X052741Y004858D01*
X052848Y004751D01*
X052960Y004640D01*
X055867Y004640D01*
X056142Y004915D01*
X056201Y004890D01*
X056376Y004890D01*
X056435Y004915D01*
X056710Y004640D01*
X056685Y004665D02*
X055892Y004665D01*
X056051Y004824D02*
X056526Y004824D01*
X055873Y005183D02*
X055710Y005020D01*
X053601Y005020D01*
X053661Y005081D01*
X053728Y005242D01*
X053728Y005418D01*
X053704Y005477D01*
X053867Y005640D01*
X055976Y005640D01*
X055915Y005579D01*
X055848Y005418D01*
X055848Y005242D01*
X055873Y005183D01*
X055830Y005141D02*
X053686Y005141D01*
X053728Y005299D02*
X055848Y005299D01*
X055865Y005458D02*
X053712Y005458D01*
X053843Y005616D02*
X055952Y005616D01*
X055911Y006092D02*
X053666Y006092D01*
X053623Y005933D02*
X053480Y005933D01*
X053464Y005775D02*
X053113Y005775D01*
X053097Y005933D02*
X052954Y005933D01*
X052911Y006092D02*
X052796Y006092D01*
X052848Y006250D02*
X052637Y006250D01*
X052479Y006409D02*
X052848Y006409D01*
X052910Y006567D02*
X052320Y006567D01*
X052162Y006726D02*
X053093Y006726D01*
X053574Y006884D02*
X052003Y006884D01*
X053623Y007043D02*
X055954Y007043D01*
X055865Y007201D02*
X053711Y007201D01*
X053728Y007360D02*
X055848Y007360D01*
X055890Y007518D02*
X053687Y007518D01*
X053564Y007677D02*
X056013Y007677D01*
X056003Y007994D02*
X053574Y007994D01*
X053691Y008152D02*
X055886Y008152D01*
X055848Y008311D02*
X053728Y008311D01*
X053707Y008469D02*
X055870Y008469D01*
X055964Y008628D02*
X053855Y008628D01*
X053476Y008786D02*
X052728Y008786D01*
X052728Y008628D02*
X052964Y008628D01*
X052870Y008469D02*
X052728Y008469D01*
X052728Y008311D02*
X052848Y008311D01*
X052886Y008152D02*
X052728Y008152D01*
X052721Y007994D02*
X053003Y007994D01*
X052876Y008945D02*
X052742Y008945D01*
X053117Y009770D02*
X052367Y010520D01*
X052210Y010520D01*
X051936Y010520D01*
X051911Y010579D01*
X051788Y010703D01*
X051626Y010770D01*
X051451Y010770D01*
X051289Y010703D01*
X051165Y010579D01*
X051098Y010418D01*
X051098Y010242D01*
X051123Y010183D01*
X050960Y010020D01*
X045851Y010020D01*
X045911Y010081D01*
X045978Y010242D01*
X045978Y010418D01*
X045911Y010579D01*
X045788Y010703D01*
X045626Y010770D01*
X045451Y010770D01*
X045392Y010745D01*
X045117Y011020D01*
X043851Y011020D01*
X043911Y011081D01*
X043978Y011242D01*
X043978Y011418D01*
X043954Y011477D01*
X044117Y011640D01*
X045226Y011640D01*
X045165Y011579D01*
X045098Y011418D01*
X045098Y011242D01*
X045165Y011081D01*
X045289Y010957D01*
X045451Y010890D01*
X045626Y010890D01*
X045788Y010957D01*
X045911Y011081D01*
X045978Y011242D01*
X045978Y011418D01*
X045911Y011579D01*
X045851Y011640D01*
X050960Y011640D01*
X051123Y011477D01*
X051098Y011418D01*
X051098Y011242D01*
X051165Y011081D01*
X051289Y010957D01*
X051451Y010890D01*
X051626Y010890D01*
X051788Y010957D01*
X051911Y011081D01*
X051978Y011242D01*
X051978Y011418D01*
X051911Y011579D01*
X051788Y011703D01*
X051626Y011770D01*
X051451Y011770D01*
X051392Y011745D01*
X051117Y012020D01*
X045851Y012020D01*
X045911Y012081D01*
X045978Y012242D01*
X045978Y012418D01*
X045911Y012579D01*
X045788Y012703D01*
X045626Y012770D01*
X045451Y012770D01*
X045392Y012745D01*
X045247Y012890D01*
X045896Y012890D01*
X045978Y012972D01*
X045978Y013501D01*
X046367Y013890D01*
X055710Y013890D01*
X059835Y009765D01*
X060123Y009477D01*
X060098Y009418D01*
X060098Y009242D01*
X060123Y009183D01*
X059960Y009020D01*
X057978Y009020D01*
X057978Y009688D01*
X057896Y009770D01*
X057367Y009770D01*
X057228Y009909D01*
X057117Y010020D01*
X053710Y010020D01*
X053460Y009770D01*
X053117Y009770D01*
X052992Y009896D02*
X053585Y009896D01*
X052833Y010054D02*
X059546Y010054D01*
X059704Y009896D02*
X057242Y009896D01*
X057929Y009737D02*
X059863Y009737D01*
X060021Y009579D02*
X057978Y009579D01*
X057978Y009420D02*
X060099Y009420D01*
X060098Y009262D02*
X057978Y009262D01*
X057978Y009103D02*
X060043Y009103D01*
X060263Y008786D02*
X060798Y008786D01*
X060788Y008703D02*
X060626Y008770D01*
X060451Y008770D01*
X060289Y008703D01*
X060165Y008579D01*
X060098Y008418D01*
X060098Y008242D01*
X060123Y008183D01*
X059960Y008020D01*
X057851Y008020D01*
X057911Y008081D01*
X057978Y008242D01*
X057978Y008418D01*
X057911Y008579D01*
X057851Y008640D01*
X060117Y008640D01*
X060228Y008751D01*
X060392Y008915D01*
X060451Y008890D01*
X060626Y008890D01*
X060788Y008957D01*
X060798Y008967D01*
X060798Y008693D01*
X060788Y008703D01*
X060798Y008945D02*
X060757Y008945D01*
X060214Y008628D02*
X057863Y008628D01*
X057957Y008469D02*
X060120Y008469D01*
X060098Y008311D02*
X057978Y008311D01*
X057941Y008152D02*
X060092Y008152D01*
X060204Y007043D02*
X057873Y007043D01*
X055910Y006567D02*
X053794Y006567D01*
X053728Y006409D02*
X055848Y006409D01*
X055848Y006250D02*
X053728Y006250D01*
X051834Y005141D02*
X051478Y005141D01*
X051478Y004982D02*
X051993Y004982D01*
X052085Y004824D02*
X051404Y004824D01*
X051246Y004665D02*
X052127Y004665D01*
X052337Y004507D02*
X051234Y004507D01*
X051221Y004520D02*
X050856Y004520D01*
X050598Y004262D01*
X050598Y003898D01*
X050856Y003640D01*
X051221Y003640D01*
X051478Y003898D01*
X051478Y004262D01*
X051221Y004520D01*
X051393Y004348D02*
X060798Y004348D01*
X060798Y004190D02*
X051478Y004190D01*
X051478Y004031D02*
X060798Y004031D01*
X060798Y003873D02*
X051453Y003873D01*
X051295Y003714D02*
X060798Y003714D01*
X060798Y003556D02*
X047658Y003556D01*
X047728Y003714D02*
X047782Y003714D01*
X048295Y003714D02*
X048782Y003714D01*
X048856Y003640D02*
X048598Y003898D01*
X048598Y004262D01*
X048856Y004520D01*
X049221Y004520D01*
X049478Y004262D01*
X049478Y003898D01*
X049221Y003640D01*
X048856Y003640D01*
X048624Y003873D02*
X048453Y003873D01*
X048478Y004031D02*
X048598Y004031D01*
X048598Y004190D02*
X048478Y004190D01*
X048393Y004348D02*
X048684Y004348D01*
X048843Y004507D02*
X048234Y004507D01*
X048246Y004665D02*
X048831Y004665D01*
X048673Y004824D02*
X048404Y004824D01*
X048478Y004982D02*
X048598Y004982D01*
X048598Y005141D02*
X048478Y005141D01*
X048442Y005299D02*
X048635Y005299D01*
X049442Y005299D02*
X049635Y005299D01*
X049598Y005141D02*
X049478Y005141D01*
X049478Y004982D02*
X049598Y004982D01*
X049673Y004824D02*
X049404Y004824D01*
X049246Y004665D02*
X049831Y004665D01*
X049856Y004520D02*
X049598Y004262D01*
X049598Y003898D01*
X049856Y003640D01*
X050221Y003640D01*
X050478Y003898D01*
X050478Y004262D01*
X050221Y004520D01*
X049856Y004520D01*
X049843Y004507D02*
X049234Y004507D01*
X049393Y004348D02*
X049684Y004348D01*
X049598Y004190D02*
X049478Y004190D01*
X049478Y004031D02*
X049598Y004031D01*
X049624Y003873D02*
X049453Y003873D01*
X049295Y003714D02*
X049782Y003714D01*
X050295Y003714D02*
X050782Y003714D01*
X050624Y003873D02*
X050453Y003873D01*
X050478Y004031D02*
X050598Y004031D01*
X050598Y004190D02*
X050478Y004190D01*
X050393Y004348D02*
X050684Y004348D01*
X050843Y004507D02*
X050234Y004507D01*
X050246Y004665D02*
X050831Y004665D01*
X050673Y004824D02*
X050404Y004824D01*
X050478Y004982D02*
X050598Y004982D01*
X050598Y005141D02*
X050478Y005141D01*
X050442Y005299D02*
X050635Y005299D01*
X051442Y005299D02*
X051676Y005299D01*
X052741Y004824D02*
X052776Y004824D01*
X052700Y004665D02*
X052935Y004665D01*
X052490Y004507D02*
X060798Y004507D01*
X060798Y004665D02*
X060142Y004665D01*
X060301Y004824D02*
X060798Y004824D01*
X060798Y003397D02*
X047499Y003397D01*
X047728Y004507D02*
X047843Y004507D01*
X047831Y004665D02*
X047722Y004665D01*
X047617Y004770D02*
X047617Y004770D01*
X047564Y004824D02*
X047673Y004824D01*
X047598Y004982D02*
X047478Y004982D01*
X047478Y005141D02*
X047598Y005141D01*
X047635Y005299D02*
X047442Y005299D01*
X044598Y004190D02*
X044478Y004190D01*
X044478Y004031D02*
X044598Y004031D01*
X044624Y003873D02*
X044453Y003873D01*
X043624Y003873D02*
X043453Y003873D01*
X043478Y004031D02*
X043598Y004031D01*
X043598Y004190D02*
X043478Y004190D01*
X043393Y004348D02*
X043684Y004348D01*
X043843Y004507D02*
X043234Y004507D01*
X043221Y004640D02*
X043478Y004898D01*
X043478Y005262D01*
X043221Y005520D01*
X042856Y005520D01*
X042598Y005262D01*
X042598Y004898D01*
X042856Y004640D01*
X043221Y004640D01*
X043246Y004665D02*
X043831Y004665D01*
X043673Y004824D02*
X043404Y004824D01*
X043478Y004982D02*
X043598Y004982D01*
X043598Y005141D02*
X043478Y005141D01*
X043442Y005299D02*
X043551Y005299D01*
X043392Y005458D02*
X043283Y005458D01*
X043348Y005616D02*
X037241Y005616D01*
X037183Y005775D02*
X043348Y005775D01*
X043347Y005933D02*
X035730Y005933D01*
X035916Y006092D02*
X043161Y006092D01*
X043098Y006250D02*
X035978Y006250D01*
X035978Y006409D02*
X043098Y006409D01*
X042794Y005458D02*
X042283Y005458D01*
X042221Y005520D02*
X041856Y005520D01*
X041598Y005262D01*
X041598Y004898D01*
X041856Y004640D01*
X042221Y004640D01*
X042478Y004898D01*
X042478Y005262D01*
X042221Y005520D01*
X042442Y005299D02*
X042635Y005299D01*
X042598Y005141D02*
X042478Y005141D01*
X042478Y004982D02*
X042598Y004982D01*
X042673Y004824D02*
X042404Y004824D01*
X042246Y004665D02*
X042831Y004665D01*
X042843Y004507D02*
X042234Y004507D01*
X042393Y004348D02*
X042684Y004348D01*
X042598Y004190D02*
X042478Y004190D01*
X042478Y004031D02*
X042598Y004031D01*
X042624Y003873D02*
X042453Y003873D01*
X041624Y003873D02*
X038890Y003873D01*
X038731Y004031D02*
X041598Y004031D01*
X041598Y004190D02*
X038573Y004190D01*
X038414Y004348D02*
X041684Y004348D01*
X041843Y004507D02*
X038256Y004507D01*
X038097Y004665D02*
X041831Y004665D01*
X041673Y004824D02*
X037939Y004824D01*
X037780Y004982D02*
X041598Y004982D01*
X041598Y005141D02*
X037622Y005141D01*
X037463Y005299D02*
X041635Y005299D01*
X041794Y005458D02*
X037305Y005458D01*
X037084Y005141D02*
X029622Y005141D01*
X029463Y005299D02*
X036734Y005299D01*
X036609Y005458D02*
X029366Y005458D01*
X029327Y005616D02*
X036585Y005616D01*
X036644Y005775D02*
X029124Y005775D01*
X028940Y005141D02*
X019978Y005141D01*
X019959Y004982D02*
X029243Y004982D01*
X029401Y004824D02*
X019801Y004824D01*
X019642Y004665D02*
X029560Y004665D01*
X029718Y004507D02*
X019484Y004507D01*
X019325Y004348D02*
X029877Y004348D01*
X030035Y004190D02*
X019228Y004190D01*
X019228Y004031D02*
X030194Y004031D01*
X030352Y003873D02*
X019203Y003873D01*
X019045Y003714D02*
X030511Y003714D01*
X030669Y003556D02*
X018616Y003556D01*
X018568Y003397D02*
X030828Y003397D01*
X031207Y003556D02*
X038669Y003556D01*
X038511Y003714D02*
X031048Y003714D01*
X030890Y003873D02*
X038352Y003873D01*
X038194Y004031D02*
X030731Y004031D01*
X030573Y004190D02*
X038035Y004190D01*
X037877Y004348D02*
X030414Y004348D01*
X030256Y004507D02*
X037718Y004507D01*
X037560Y004665D02*
X030097Y004665D01*
X029939Y004824D02*
X037401Y004824D01*
X037243Y004982D02*
X029780Y004982D01*
X027916Y006092D02*
X035161Y006092D01*
X035098Y006250D02*
X027978Y006250D01*
X027978Y006409D02*
X035098Y006409D01*
X035347Y005933D02*
X027730Y005933D01*
X027204Y007043D02*
X019978Y007043D01*
X019978Y007201D02*
X027115Y007201D01*
X027098Y007360D02*
X019978Y007360D01*
X019978Y007518D02*
X027140Y007518D01*
X027263Y007677D02*
X019978Y007677D01*
X019978Y007835D02*
X027775Y007835D01*
X027788Y007957D02*
X027626Y007890D01*
X027451Y007890D01*
X027289Y007957D01*
X027165Y008081D01*
X027098Y008242D01*
X027098Y008418D01*
X027165Y008579D01*
X027289Y008703D01*
X027451Y008770D01*
X027626Y008770D01*
X027788Y008703D01*
X027911Y008579D01*
X027978Y008418D01*
X027978Y008242D01*
X027911Y008081D01*
X027788Y007957D01*
X027824Y007994D02*
X029253Y007994D01*
X029136Y008152D02*
X027941Y008152D01*
X027978Y008311D02*
X029098Y008311D01*
X029120Y008469D02*
X027957Y008469D01*
X027863Y008628D02*
X029214Y008628D01*
X029851Y008640D02*
X035117Y008640D01*
X035228Y008751D01*
X035392Y008915D01*
X035451Y008890D01*
X035626Y008890D01*
X035788Y008957D01*
X035911Y009081D01*
X035936Y009140D01*
X036710Y009140D01*
X037210Y008640D01*
X037226Y008640D01*
X037165Y008579D01*
X037098Y008418D01*
X037098Y008242D01*
X037165Y008081D01*
X037289Y007957D01*
X037451Y007890D01*
X037626Y007890D01*
X037788Y007957D01*
X037911Y008081D01*
X037978Y008242D01*
X037978Y008418D01*
X037911Y008579D01*
X037851Y008640D01*
X038367Y008640D01*
X038478Y008751D01*
X038867Y009140D01*
X043141Y009140D01*
X043165Y009081D01*
X043226Y009020D01*
X042835Y009020D01*
X042723Y008909D01*
X042585Y008770D01*
X038835Y008770D01*
X038723Y008659D01*
X037835Y007770D01*
X036367Y007770D01*
X035954Y008183D01*
X035978Y008242D01*
X035978Y008418D01*
X035911Y008579D01*
X035788Y008703D01*
X035626Y008770D01*
X035451Y008770D01*
X035289Y008703D01*
X035165Y008579D01*
X035098Y008418D01*
X035098Y008242D01*
X035165Y008081D01*
X035289Y007957D01*
X035451Y007890D01*
X035626Y007890D01*
X035685Y007915D01*
X036080Y007520D01*
X035936Y007520D01*
X035911Y007579D01*
X035788Y007703D01*
X035626Y007770D01*
X035451Y007770D01*
X035392Y007745D01*
X035242Y007895D01*
X029638Y007895D01*
X029788Y007957D01*
X029911Y008081D01*
X029978Y008242D01*
X029978Y008418D01*
X029911Y008579D01*
X029851Y008640D01*
X029863Y008628D02*
X035214Y008628D01*
X035228Y008751D02*
X035228Y008751D01*
X035263Y008786D02*
X037064Y008786D01*
X037214Y008628D02*
X035863Y008628D01*
X035957Y008469D02*
X037120Y008469D01*
X037098Y008311D02*
X035978Y008311D01*
X035985Y008152D02*
X037136Y008152D01*
X037253Y007994D02*
X036144Y007994D01*
X036302Y007835D02*
X037900Y007835D01*
X037824Y007994D02*
X038058Y007994D01*
X037941Y008152D02*
X038217Y008152D01*
X038375Y008311D02*
X037978Y008311D01*
X037957Y008469D02*
X038534Y008469D01*
X038692Y008628D02*
X037863Y008628D01*
X038513Y008786D02*
X042601Y008786D01*
X042759Y008945D02*
X038672Y008945D01*
X038830Y009103D02*
X043156Y009103D01*
X043226Y008640D02*
X043165Y008579D01*
X043098Y008418D01*
X043098Y008242D01*
X043165Y008081D01*
X043289Y007957D01*
X043451Y007890D01*
X043626Y007890D01*
X043685Y007915D01*
X043760Y007840D01*
X043784Y007840D01*
X043760Y007816D01*
X043724Y007729D01*
X043626Y007770D01*
X043451Y007770D01*
X043289Y007703D01*
X043165Y007579D01*
X043141Y007520D01*
X038122Y007520D01*
X038992Y008390D01*
X042742Y008390D01*
X042992Y008640D01*
X043226Y008640D01*
X043214Y008628D02*
X042980Y008628D01*
X043120Y008469D02*
X042821Y008469D01*
X043098Y008311D02*
X038913Y008311D01*
X038754Y008152D02*
X043136Y008152D01*
X043253Y007994D02*
X038596Y007994D01*
X038437Y007835D02*
X043779Y007835D01*
X043263Y007677D02*
X038279Y007677D01*
X035923Y007677D02*
X035814Y007677D01*
X035765Y007835D02*
X035302Y007835D01*
X035253Y007994D02*
X029824Y007994D01*
X029941Y008152D02*
X035136Y008152D01*
X035098Y008311D02*
X029978Y008311D01*
X029957Y008469D02*
X035120Y008469D01*
X035757Y008945D02*
X036905Y008945D01*
X036747Y009103D02*
X035921Y009103D01*
X034994Y010054D02*
X029885Y010054D01*
X029911Y010081D02*
X029851Y010020D01*
X034960Y010020D01*
X035123Y010183D01*
X035098Y010242D01*
X035098Y010418D01*
X035165Y010579D01*
X035226Y010640D01*
X030117Y010640D01*
X029954Y010477D01*
X029978Y010418D01*
X029978Y010242D01*
X029911Y010081D01*
X029966Y010213D02*
X035111Y010213D01*
X035098Y010371D02*
X029978Y010371D01*
X030007Y010530D02*
X035145Y010530D01*
X035226Y011020D02*
X029960Y011020D01*
X029848Y010909D01*
X029685Y010745D01*
X029626Y010770D01*
X029451Y010770D01*
X029392Y010745D01*
X029117Y011020D01*
X027851Y011020D01*
X027911Y011081D01*
X027978Y011242D01*
X027978Y011418D01*
X027954Y011477D01*
X028117Y011640D01*
X029226Y011640D01*
X029165Y011579D01*
X029098Y011418D01*
X029098Y011242D01*
X029165Y011081D01*
X029289Y010957D01*
X029451Y010890D01*
X029626Y010890D01*
X029788Y010957D01*
X029911Y011081D01*
X029978Y011242D01*
X029978Y011418D01*
X029911Y011579D01*
X029851Y011640D01*
X034960Y011640D01*
X035123Y011477D01*
X035098Y011418D01*
X035098Y011242D01*
X035165Y011081D01*
X035226Y011020D01*
X035131Y011164D02*
X029946Y011164D01*
X029945Y011005D02*
X029836Y011005D01*
X029786Y010847D02*
X029291Y010847D01*
X029241Y011005D02*
X029132Y011005D01*
X029131Y011164D02*
X027946Y011164D01*
X027978Y011322D02*
X029098Y011322D01*
X029124Y011481D02*
X027958Y011481D01*
X028116Y011639D02*
X029225Y011639D01*
X029852Y011639D02*
X034961Y011639D01*
X035119Y011481D02*
X029952Y011481D01*
X029978Y011322D02*
X035098Y011322D01*
X035851Y011020D02*
X035911Y011081D01*
X035978Y011242D01*
X035978Y011418D01*
X035954Y011477D01*
X036117Y011640D01*
X037226Y011640D01*
X037165Y011579D01*
X037098Y011418D01*
X037098Y011242D01*
X037165Y011081D01*
X037289Y010957D01*
X037451Y010890D01*
X037626Y010890D01*
X037788Y010957D01*
X037911Y011081D01*
X037978Y011242D01*
X037978Y011418D01*
X037911Y011579D01*
X037851Y011640D01*
X042960Y011640D01*
X043123Y011477D01*
X043098Y011418D01*
X043098Y011242D01*
X043165Y011081D01*
X043226Y011020D01*
X037960Y011020D01*
X037848Y010909D01*
X037685Y010745D01*
X037626Y010770D01*
X037451Y010770D01*
X037392Y010745D01*
X037117Y011020D01*
X035851Y011020D01*
X035946Y011164D02*
X037131Y011164D01*
X037132Y011005D02*
X037241Y011005D01*
X037291Y010847D02*
X037786Y010847D01*
X037836Y011005D02*
X037945Y011005D01*
X037946Y011164D02*
X043131Y011164D01*
X043098Y011322D02*
X037978Y011322D01*
X037952Y011481D02*
X043119Y011481D01*
X042961Y011639D02*
X037852Y011639D01*
X037225Y011639D02*
X036116Y011639D01*
X035958Y011481D02*
X037124Y011481D01*
X037098Y011322D02*
X035978Y011322D01*
X035685Y011745D02*
X035626Y011770D01*
X035451Y011770D01*
X035392Y011745D01*
X035117Y012020D01*
X029851Y012020D01*
X029911Y012081D01*
X029978Y012242D01*
X029978Y012418D01*
X029954Y012477D01*
X030117Y012640D01*
X036960Y012640D01*
X037123Y012477D01*
X037098Y012418D01*
X037098Y012242D01*
X037165Y012081D01*
X037226Y012020D01*
X035960Y012020D01*
X035848Y011909D01*
X035685Y011745D01*
X035737Y011798D02*
X035340Y011798D01*
X035181Y011956D02*
X035896Y011956D01*
X037098Y012273D02*
X029978Y012273D01*
X029973Y012432D02*
X037104Y012432D01*
X037010Y012590D02*
X030067Y012590D01*
X029123Y012477D02*
X029098Y012418D01*
X029098Y012242D01*
X029165Y012081D01*
X029226Y012020D01*
X027960Y012020D01*
X027848Y011909D01*
X027685Y011745D01*
X027626Y011770D01*
X027451Y011770D01*
X027289Y011703D01*
X027165Y011579D01*
X027098Y011418D01*
X027098Y011242D01*
X027165Y011081D01*
X027226Y011020D01*
X021960Y011020D01*
X021848Y010909D01*
X021685Y010745D01*
X021626Y010770D01*
X021451Y010770D01*
X021289Y010703D01*
X021228Y010642D01*
X021228Y010751D01*
X021392Y010915D01*
X021451Y010890D01*
X021626Y010890D01*
X021788Y010957D01*
X021911Y011081D01*
X021978Y011242D01*
X021978Y011418D01*
X021911Y011579D01*
X021788Y011703D01*
X021626Y011770D01*
X021451Y011770D01*
X021392Y011745D01*
X021228Y011909D01*
X021228Y012018D01*
X021289Y011957D01*
X021451Y011890D01*
X021626Y011890D01*
X021788Y011957D01*
X021911Y012081D01*
X021978Y012242D01*
X021978Y012251D01*
X022367Y012640D01*
X028960Y012640D01*
X029123Y012477D01*
X029104Y012432D02*
X022159Y012432D01*
X022317Y012590D02*
X029010Y012590D01*
X029098Y012273D02*
X022000Y012273D01*
X021925Y012115D02*
X029151Y012115D01*
X029925Y012115D02*
X037151Y012115D01*
X037851Y012020D02*
X037911Y012081D01*
X037978Y012242D01*
X037978Y012418D01*
X037954Y012477D01*
X038117Y012640D01*
X044960Y012640D01*
X045123Y012477D01*
X045098Y012418D01*
X045098Y012242D01*
X045165Y012081D01*
X045226Y012020D01*
X043960Y012020D01*
X043848Y011909D01*
X043685Y011745D01*
X043626Y011770D01*
X043451Y011770D01*
X043392Y011745D01*
X043117Y012020D01*
X037851Y012020D01*
X037925Y012115D02*
X045151Y012115D01*
X045098Y012273D02*
X037978Y012273D01*
X037973Y012432D02*
X045104Y012432D01*
X045010Y012590D02*
X038067Y012590D01*
X037798Y013858D02*
X037279Y013858D01*
X037121Y014017D02*
X037956Y014017D01*
X038776Y015760D02*
X022546Y015760D01*
X022351Y015760D02*
X022153Y015760D01*
X021957Y015760D02*
X021759Y015760D01*
X021564Y015760D02*
X021365Y015760D01*
X021170Y015760D02*
X020972Y015760D01*
X020776Y015760D02*
X004546Y015760D01*
X004351Y015760D02*
X004153Y015760D01*
X003957Y015760D02*
X003759Y015760D01*
X003564Y015760D02*
X003365Y015760D01*
X003170Y015760D02*
X002972Y015760D01*
X002776Y015760D02*
X000521Y015760D01*
X000521Y015602D02*
X060798Y015602D01*
X060798Y015760D02*
X058527Y015760D01*
X058379Y015760D02*
X058133Y015760D01*
X057985Y015760D02*
X057739Y015760D01*
X057591Y015760D02*
X057345Y015760D01*
X057198Y015760D02*
X056952Y015760D01*
X056804Y015760D02*
X040546Y015760D01*
X040351Y015760D02*
X040153Y015760D01*
X039957Y015760D02*
X039759Y015760D01*
X039564Y015760D02*
X039365Y015760D01*
X039170Y015760D02*
X038972Y015760D01*
X039071Y017343D02*
X039060Y017354D01*
X038939Y017404D01*
X038809Y017404D01*
X038688Y017354D01*
X038647Y017312D01*
X022676Y017312D01*
X022635Y017354D01*
X022514Y017404D01*
X022383Y017404D01*
X022263Y017354D01*
X022252Y017343D01*
X022241Y017354D01*
X022120Y017404D01*
X021990Y017404D01*
X021869Y017354D01*
X021858Y017343D01*
X021847Y017354D01*
X021727Y017404D01*
X021596Y017404D01*
X021475Y017354D01*
X021464Y017343D01*
X021454Y017354D01*
X021333Y017404D01*
X021202Y017404D01*
X021082Y017354D01*
X021071Y017343D01*
X021060Y017354D01*
X020939Y017404D01*
X020809Y017404D01*
X020688Y017354D01*
X020647Y017312D01*
X004676Y017312D01*
X004635Y017354D01*
X004514Y017404D01*
X004383Y017404D01*
X004263Y017354D01*
X004252Y017343D01*
X004241Y017354D01*
X004120Y017404D01*
X003990Y017404D01*
X003869Y017354D01*
X003858Y017343D01*
X003847Y017354D01*
X003727Y017404D01*
X003596Y017404D01*
X003475Y017354D01*
X003464Y017343D01*
X003454Y017354D01*
X003333Y017404D01*
X003202Y017404D01*
X003082Y017354D01*
X003071Y017343D01*
X003060Y017354D01*
X002939Y017404D01*
X002809Y017404D01*
X002688Y017354D01*
X002647Y017312D01*
X000521Y017312D01*
X000521Y026093D01*
X060798Y026093D01*
X060798Y017312D01*
X058690Y017312D01*
X058639Y017363D01*
X058518Y017413D01*
X058387Y017413D01*
X058267Y017363D01*
X058256Y017353D01*
X058245Y017363D01*
X058124Y017413D01*
X057994Y017413D01*
X057873Y017363D01*
X057862Y017353D01*
X057851Y017363D01*
X057731Y017413D01*
X057600Y017413D01*
X057479Y017363D01*
X057468Y017353D01*
X057458Y017363D01*
X057337Y017413D01*
X057206Y017413D01*
X057086Y017363D01*
X057075Y017353D01*
X057064Y017363D01*
X056943Y017413D01*
X056813Y017413D01*
X056692Y017363D01*
X056641Y017312D01*
X040676Y017312D01*
X040635Y017354D01*
X040514Y017404D01*
X040383Y017404D01*
X040263Y017354D01*
X040252Y017343D01*
X040241Y017354D01*
X040120Y017404D01*
X039990Y017404D01*
X039869Y017354D01*
X039858Y017343D01*
X039847Y017354D01*
X039727Y017404D01*
X039596Y017404D01*
X039475Y017354D01*
X039464Y017343D01*
X039454Y017354D01*
X039333Y017404D01*
X039202Y017404D01*
X039082Y017354D01*
X039071Y017343D01*
X039073Y017345D02*
X039068Y017345D01*
X038679Y017345D02*
X022643Y017345D01*
X022254Y017345D02*
X022250Y017345D01*
X021861Y017345D02*
X021856Y017345D01*
X021467Y017345D02*
X021462Y017345D01*
X021073Y017345D02*
X021068Y017345D01*
X020679Y017345D02*
X004643Y017345D01*
X004254Y017345D02*
X004250Y017345D01*
X003861Y017345D02*
X003856Y017345D01*
X003467Y017345D02*
X003462Y017345D01*
X003073Y017345D02*
X003068Y017345D01*
X002679Y017345D02*
X000521Y017345D01*
X000521Y017504D02*
X060798Y017504D01*
X060798Y017662D02*
X000521Y017662D01*
X000521Y017821D02*
X060798Y017821D01*
X060798Y017979D02*
X000521Y017979D01*
X000521Y018138D02*
X017552Y018138D01*
X017589Y018100D02*
X017768Y018100D01*
X017768Y018560D01*
X017308Y018560D01*
X017308Y018381D01*
X017589Y018100D01*
X017768Y018138D02*
X017808Y018138D01*
X017808Y018100D02*
X017987Y018100D01*
X018268Y018381D01*
X018268Y018560D01*
X017808Y018560D01*
X017808Y018100D01*
X017808Y018296D02*
X017768Y018296D01*
X017768Y018455D02*
X017808Y018455D01*
X017808Y018560D02*
X017768Y018560D01*
X017768Y018600D01*
X017308Y018600D01*
X017308Y018779D01*
X017419Y018890D01*
X017101Y018890D01*
X017228Y018762D01*
X017228Y018398D01*
X016971Y018140D01*
X016606Y018140D01*
X016348Y018398D01*
X016348Y018762D01*
X016476Y018890D01*
X016101Y018890D01*
X016228Y018762D01*
X016228Y018398D01*
X015971Y018140D01*
X015606Y018140D01*
X015348Y018398D01*
X015348Y018762D01*
X015476Y018890D01*
X015101Y018890D01*
X015228Y018762D01*
X015228Y018398D01*
X014971Y018140D01*
X014606Y018140D01*
X014348Y018398D01*
X014348Y018762D01*
X014476Y018890D01*
X014101Y018890D01*
X014228Y018762D01*
X014228Y018398D01*
X013971Y018140D01*
X013606Y018140D01*
X013348Y018398D01*
X013348Y018762D01*
X013476Y018890D01*
X013101Y018890D01*
X013228Y018762D01*
X013228Y018398D01*
X012971Y018140D01*
X012606Y018140D01*
X012348Y018398D01*
X012348Y018762D01*
X012476Y018890D01*
X012101Y018890D01*
X012228Y018762D01*
X012228Y018398D01*
X011971Y018140D01*
X011606Y018140D01*
X011348Y018398D01*
X011348Y018762D01*
X011476Y018890D01*
X011101Y018890D01*
X011228Y018762D01*
X011228Y018398D01*
X010971Y018140D01*
X010606Y018140D01*
X010348Y018398D01*
X010348Y018762D01*
X010476Y018890D01*
X010101Y018890D01*
X010228Y018762D01*
X010228Y018398D01*
X009971Y018140D01*
X009606Y018140D01*
X009348Y018398D01*
X009348Y018762D01*
X009476Y018890D01*
X008245Y018890D01*
X008151Y018727D01*
X007892Y018468D01*
X007575Y018285D01*
X007221Y018190D01*
X006855Y018190D01*
X006502Y018285D01*
X006185Y018468D01*
X005926Y018727D01*
X005743Y019043D01*
X005648Y019397D01*
X005648Y019763D01*
X005743Y020117D01*
X005926Y020433D01*
X006185Y020692D01*
X006502Y020875D01*
X006855Y020970D01*
X007221Y020970D01*
X007575Y020875D01*
X007892Y020692D01*
X008151Y020433D01*
X008334Y020117D01*
X008428Y019763D01*
X008428Y019397D01*
X008394Y019270D01*
X009476Y019270D01*
X009348Y019398D01*
X009348Y019762D01*
X009606Y020020D01*
X009971Y020020D01*
X010228Y019762D01*
X010228Y019398D01*
X010101Y019270D01*
X010476Y019270D01*
X010348Y019398D01*
X010348Y019762D01*
X010606Y020020D01*
X010971Y020020D01*
X011228Y019762D01*
X011228Y019398D01*
X011101Y019270D01*
X011476Y019270D01*
X011348Y019398D01*
X011348Y019762D01*
X011606Y020020D01*
X011971Y020020D01*
X012228Y019762D01*
X012228Y019398D01*
X012101Y019270D01*
X012476Y019270D01*
X012348Y019398D01*
X012348Y019762D01*
X012606Y020020D01*
X012971Y020020D01*
X013228Y019762D01*
X013228Y019398D01*
X013101Y019270D01*
X013476Y019270D01*
X013348Y019398D01*
X013348Y019762D01*
X013606Y020020D01*
X013971Y020020D01*
X014228Y019762D01*
X014228Y019398D01*
X014101Y019270D01*
X014476Y019270D01*
X014348Y019398D01*
X014348Y019762D01*
X014606Y020020D01*
X014971Y020020D01*
X015228Y019762D01*
X015228Y019398D01*
X015101Y019270D01*
X015476Y019270D01*
X015348Y019398D01*
X015348Y019762D01*
X015606Y020020D01*
X015971Y020020D01*
X016228Y019762D01*
X016228Y019398D01*
X016101Y019270D01*
X016476Y019270D01*
X016348Y019398D01*
X016348Y019762D01*
X016606Y020020D01*
X016971Y020020D01*
X017228Y019762D01*
X017228Y019398D01*
X017101Y019270D01*
X017476Y019270D01*
X017348Y019398D01*
X017348Y019762D01*
X017606Y020020D01*
X017971Y020020D01*
X018228Y019762D01*
X018228Y019398D01*
X018101Y019270D01*
X018476Y019270D01*
X018348Y019398D01*
X018348Y019762D01*
X018606Y020020D01*
X018971Y020020D01*
X019228Y019762D01*
X019228Y019414D01*
X020080Y020265D01*
X010085Y020265D01*
X007886Y022464D01*
X007575Y022285D01*
X007221Y022190D01*
X006855Y022190D01*
X006502Y022285D01*
X006185Y022468D01*
X005926Y022727D01*
X005743Y023043D01*
X005648Y023397D01*
X005648Y023763D01*
X005743Y024117D01*
X005926Y024433D01*
X006185Y024692D01*
X006502Y024875D01*
X006855Y024970D01*
X007221Y024970D01*
X007575Y024875D01*
X007892Y024692D01*
X008151Y024433D01*
X008334Y024117D01*
X008428Y023763D01*
X008428Y023397D01*
X008334Y023043D01*
X008154Y022733D01*
X010242Y020645D01*
X023335Y020645D01*
X024210Y021520D01*
X025889Y021520D01*
X025977Y021608D01*
X026098Y021658D01*
X026229Y021658D01*
X026349Y021608D01*
X026441Y021516D01*
X026491Y021395D01*
X026491Y021265D01*
X026441Y021144D01*
X026394Y021096D01*
X026441Y021048D01*
X026491Y020928D01*
X026491Y020797D01*
X026441Y020677D01*
X026349Y020584D01*
X026229Y020534D01*
X026098Y020534D01*
X025977Y020584D01*
X025889Y020672D01*
X024620Y020672D01*
X024641Y020620D01*
X024641Y020496D01*
X024742Y020395D01*
X027889Y020395D01*
X027977Y020483D01*
X028098Y020533D01*
X028229Y020533D01*
X028349Y020483D01*
X028441Y020391D01*
X028491Y020270D01*
X028491Y020140D01*
X028441Y020019D01*
X028349Y019927D01*
X028229Y019877D01*
X028098Y019877D01*
X027977Y019927D01*
X027889Y020015D01*
X024585Y020015D01*
X024503Y020096D01*
X024503Y019526D01*
X024491Y019514D01*
X024491Y019390D01*
X024441Y019269D01*
X024349Y019177D01*
X024229Y019127D01*
X024098Y019127D01*
X023977Y019177D01*
X023889Y019265D01*
X022137Y019265D01*
X022049Y019177D01*
X021929Y019127D01*
X021798Y019127D01*
X021677Y019177D01*
X021585Y019269D01*
X021535Y019390D01*
X021535Y019520D01*
X021585Y019641D01*
X021677Y019733D01*
X021798Y019783D01*
X021929Y019783D01*
X022049Y019733D01*
X022137Y019645D01*
X023889Y019645D01*
X023977Y019733D01*
X024098Y019783D01*
X024123Y019783D01*
X024123Y020281D01*
X024035Y020369D01*
X024016Y020414D01*
X023603Y020001D01*
X023492Y019890D01*
X020242Y019890D01*
X019353Y019001D01*
X019242Y018890D01*
X019101Y018890D01*
X019228Y018762D01*
X019228Y018398D01*
X018971Y018140D01*
X018606Y018140D01*
X018348Y018398D01*
X018348Y018762D01*
X018476Y018890D01*
X018157Y018890D01*
X018268Y018779D01*
X018268Y018600D01*
X017808Y018600D01*
X017808Y018560D01*
X018183Y018296D02*
X018450Y018296D01*
X018348Y018455D02*
X018268Y018455D01*
X018268Y018613D02*
X018348Y018613D01*
X018358Y018772D02*
X018268Y018772D01*
X019219Y018772D02*
X041608Y018772D01*
X041598Y018762D02*
X041598Y018398D01*
X041856Y018140D01*
X042221Y018140D01*
X042478Y018398D01*
X042478Y018762D01*
X042351Y018890D01*
X042726Y018890D01*
X042598Y018762D01*
X042598Y018398D01*
X042856Y018140D01*
X043221Y018140D01*
X043478Y018398D01*
X043478Y018762D01*
X043351Y018890D01*
X043726Y018890D01*
X043598Y018762D01*
X043598Y018398D01*
X043856Y018140D01*
X044221Y018140D01*
X044478Y018398D01*
X044478Y018762D01*
X044351Y018890D01*
X044726Y018890D01*
X044598Y018762D01*
X044598Y018398D01*
X044856Y018140D01*
X045221Y018140D01*
X045478Y018398D01*
X045478Y018762D01*
X045351Y018890D01*
X045726Y018890D01*
X045598Y018762D01*
X045598Y018398D01*
X045856Y018140D01*
X046221Y018140D01*
X046478Y018398D01*
X046478Y018762D01*
X046228Y019012D01*
X046228Y019148D01*
X046348Y019268D01*
X046348Y019001D01*
X046460Y018890D01*
X046598Y018751D01*
X046598Y018398D01*
X046856Y018140D01*
X047221Y018140D01*
X047478Y018398D01*
X047478Y018762D01*
X047221Y019020D01*
X046867Y019020D01*
X046728Y019159D01*
X046728Y019268D01*
X046856Y019140D01*
X047221Y019140D01*
X047348Y019268D01*
X047348Y019001D01*
X047460Y018890D01*
X047598Y018751D01*
X047598Y018398D01*
X047856Y018140D01*
X048221Y018140D01*
X048478Y018398D01*
X048478Y018762D01*
X048221Y019020D01*
X047867Y019020D01*
X047728Y019159D01*
X047728Y019268D01*
X047856Y019140D01*
X048221Y019140D01*
X048478Y019398D01*
X048478Y019762D01*
X048221Y020020D01*
X047856Y020020D01*
X047728Y019892D01*
X047728Y020409D01*
X047353Y020784D01*
X047242Y020895D01*
X040242Y020895D01*
X039872Y021265D01*
X048500Y021265D01*
X048552Y021213D01*
X048657Y021170D01*
X048770Y021170D01*
X048875Y021213D01*
X048955Y021294D01*
X048998Y021398D01*
X048998Y021512D01*
X048955Y021616D01*
X048918Y021654D01*
X048974Y021677D01*
X049066Y021769D01*
X049116Y021890D01*
X049116Y022020D01*
X049066Y022141D01*
X048974Y022233D01*
X048854Y022283D01*
X048800Y022283D01*
X048499Y022583D01*
X048411Y022620D01*
X037126Y022620D01*
X037100Y022647D01*
X036995Y022690D01*
X036882Y022690D01*
X036777Y022647D01*
X036725Y022595D01*
X034417Y022595D01*
X034033Y022979D01*
X034048Y022994D01*
X034048Y023416D01*
X033760Y023705D01*
X034048Y023994D01*
X034048Y024416D01*
X033750Y024715D01*
X033327Y024715D01*
X033048Y024436D01*
X033048Y024516D01*
X032750Y024815D01*
X032327Y024815D01*
X032028Y024516D01*
X032028Y024436D01*
X031750Y024715D01*
X031327Y024715D01*
X031028Y024416D01*
X031028Y024064D01*
X028573Y021608D01*
X028448Y021608D01*
X028327Y021558D01*
X028235Y021466D01*
X028185Y021345D01*
X028185Y021215D01*
X028214Y021145D01*
X027937Y021145D01*
X027849Y021233D01*
X027729Y021283D01*
X027598Y021283D01*
X027477Y021233D01*
X027385Y021141D01*
X027335Y021020D01*
X027335Y020890D01*
X027385Y020769D01*
X027477Y020677D01*
X027598Y020627D01*
X027729Y020627D01*
X027849Y020677D01*
X027937Y020765D01*
X029092Y020765D01*
X029417Y021090D01*
X029496Y021169D01*
X029598Y021127D01*
X029729Y021127D01*
X029849Y021177D01*
X029937Y021265D01*
X031835Y021265D01*
X031835Y021158D01*
X031723Y021158D01*
X031602Y021108D01*
X031510Y021016D01*
X031460Y020895D01*
X031460Y020783D01*
X031348Y020783D01*
X031227Y020733D01*
X031135Y020641D01*
X031085Y020520D01*
X031085Y020433D01*
X030998Y020433D01*
X030877Y020383D01*
X030785Y020291D01*
X030735Y020170D01*
X030735Y020040D01*
X030785Y019919D01*
X030877Y019827D01*
X030898Y019818D01*
X030898Y019576D01*
X031010Y019465D01*
X031473Y019001D01*
X031585Y018890D01*
X041726Y018890D01*
X041598Y018762D01*
X041598Y018613D02*
X019228Y018613D01*
X019228Y018455D02*
X041598Y018455D01*
X041700Y018296D02*
X019127Y018296D01*
X019282Y018930D02*
X031545Y018930D01*
X031473Y019001D02*
X031473Y019001D01*
X031386Y019089D02*
X019441Y019089D01*
X019599Y019247D02*
X021607Y019247D01*
X021535Y019406D02*
X019758Y019406D01*
X019916Y019564D02*
X021553Y019564D01*
X021667Y019723D02*
X020075Y019723D01*
X020233Y019881D02*
X024123Y019881D01*
X024123Y020040D02*
X023642Y020040D01*
X023800Y020198D02*
X024123Y020198D01*
X024048Y020357D02*
X023959Y020357D01*
X024503Y020040D02*
X024560Y020040D01*
X024503Y019881D02*
X028088Y019881D01*
X028239Y019881D02*
X030823Y019881D01*
X030898Y019723D02*
X024503Y019723D01*
X024503Y019564D02*
X030911Y019564D01*
X031010Y019465D02*
X031010Y019465D01*
X031069Y019406D02*
X024491Y019406D01*
X024419Y019247D02*
X031228Y019247D01*
X031448Y019564D02*
X033524Y019564D01*
X033524Y019640D02*
X033524Y019417D01*
X033606Y019335D01*
X034351Y019335D01*
X034433Y019417D01*
X034433Y020243D01*
X034411Y020265D01*
X034665Y020265D01*
X034643Y020243D01*
X034643Y019417D01*
X034725Y019335D01*
X035471Y019335D01*
X035553Y019417D01*
X035553Y019521D01*
X035598Y019502D01*
X035729Y019502D01*
X035849Y019552D01*
X035941Y019644D01*
X035991Y019765D01*
X035991Y019895D01*
X035941Y020016D01*
X035849Y020108D01*
X035729Y020158D01*
X035598Y020158D01*
X035553Y020139D01*
X035553Y020243D01*
X035531Y020265D01*
X039710Y020265D01*
X039960Y020015D01*
X041851Y020015D01*
X041598Y019762D01*
X041598Y019398D01*
X041726Y019270D01*
X031742Y019270D01*
X031278Y019734D01*
X031278Y019856D01*
X031341Y019919D01*
X031391Y020040D01*
X031391Y020127D01*
X031479Y020127D01*
X031599Y020177D01*
X031687Y020265D01*
X032650Y020265D01*
X032628Y020212D01*
X032628Y020098D01*
X032672Y019994D01*
X032752Y019913D01*
X032857Y019870D01*
X032930Y019870D01*
X033160Y019640D01*
X033524Y019640D01*
X033535Y019406D02*
X031606Y019406D01*
X031289Y019723D02*
X033077Y019723D01*
X032830Y019881D02*
X031303Y019881D01*
X031391Y020040D02*
X032653Y020040D01*
X032628Y020198D02*
X031620Y020198D01*
X031085Y020515D02*
X028272Y020515D01*
X028054Y020515D02*
X024641Y020515D01*
X023839Y021149D02*
X023459Y021149D01*
X023441Y021191D02*
X023353Y021279D01*
X023353Y023357D01*
X023452Y023398D01*
X023596Y023541D01*
X023663Y023704D01*
X023731Y023541D01*
X023874Y023398D01*
X024062Y023320D01*
X024265Y023320D01*
X024452Y023398D01*
X024596Y023541D01*
X024663Y023704D01*
X024731Y023541D01*
X024874Y023398D01*
X025062Y023320D01*
X025265Y023320D01*
X025452Y023398D01*
X025596Y023541D01*
X025642Y023654D01*
X025654Y023619D01*
X025693Y023542D01*
X025744Y023472D01*
X025805Y023410D01*
X025875Y023360D01*
X025952Y023320D01*
X026035Y023294D01*
X026120Y023280D01*
X026143Y023280D01*
X026143Y023810D01*
X026183Y023810D01*
X026183Y023280D01*
X026207Y023280D01*
X026292Y023294D01*
X026374Y023320D01*
X026452Y023360D01*
X026522Y023410D01*
X026583Y023472D01*
X026634Y023542D01*
X026673Y023619D01*
X026700Y023701D01*
X026713Y023787D01*
X026713Y023810D01*
X026183Y023810D01*
X026183Y023850D01*
X026143Y023850D01*
X026143Y024380D01*
X026120Y024380D01*
X026035Y024366D01*
X025952Y024340D01*
X025875Y024300D01*
X025805Y024250D01*
X025744Y024188D01*
X025693Y024118D01*
X025654Y024041D01*
X025642Y024006D01*
X025596Y024119D01*
X025452Y024262D01*
X025265Y024340D01*
X025062Y024340D01*
X024874Y024262D01*
X024731Y024119D01*
X024663Y023956D01*
X024596Y024119D01*
X024452Y024262D01*
X024265Y024340D01*
X024062Y024340D01*
X023874Y024262D01*
X023731Y024119D01*
X023663Y023956D01*
X023596Y024119D01*
X023452Y024262D01*
X023265Y024340D01*
X023062Y024340D01*
X022874Y024262D01*
X022731Y024119D01*
X022663Y023956D01*
X022596Y024119D01*
X022452Y024262D01*
X022265Y024340D01*
X022062Y024340D01*
X021874Y024262D01*
X021731Y024119D01*
X021673Y023980D01*
X021673Y024258D01*
X021591Y024340D01*
X020735Y024340D01*
X020653Y024258D01*
X020653Y023402D01*
X020735Y023320D01*
X020973Y023320D01*
X020973Y021654D01*
X020885Y021566D01*
X020835Y021445D01*
X020835Y021315D01*
X020885Y021194D01*
X020977Y021102D01*
X021098Y021052D01*
X021229Y021052D01*
X021349Y021102D01*
X021441Y021194D01*
X021491Y021315D01*
X021491Y021445D01*
X021441Y021566D01*
X021353Y021654D01*
X021353Y023320D01*
X021591Y023320D01*
X021673Y023402D01*
X021673Y023680D01*
X021731Y023541D01*
X021874Y023398D01*
X021973Y023357D01*
X021973Y021279D01*
X021885Y021191D01*
X021835Y021070D01*
X021835Y020940D01*
X021885Y020819D01*
X021977Y020727D01*
X022098Y020677D01*
X022229Y020677D01*
X022349Y020727D01*
X022441Y020819D01*
X022491Y020940D01*
X022491Y021070D01*
X022441Y021191D01*
X022353Y021279D01*
X022353Y023357D01*
X022452Y023398D01*
X022596Y023541D01*
X022663Y023704D01*
X022731Y023541D01*
X022874Y023398D01*
X022973Y023357D01*
X022973Y021279D01*
X022885Y021191D01*
X022835Y021070D01*
X022835Y020940D01*
X022885Y020819D01*
X022977Y020727D01*
X023098Y020677D01*
X023229Y020677D01*
X023349Y020727D01*
X023441Y020819D01*
X023491Y020940D01*
X023491Y021070D01*
X023441Y021191D01*
X023353Y021308D02*
X023997Y021308D01*
X024156Y021466D02*
X023353Y021466D01*
X023353Y021625D02*
X026017Y021625D01*
X026310Y021625D02*
X028589Y021625D01*
X028748Y021783D02*
X023353Y021783D01*
X023353Y021942D02*
X028906Y021942D01*
X029065Y022100D02*
X023353Y022100D01*
X023353Y022259D02*
X029223Y022259D01*
X029382Y022417D02*
X023353Y022417D01*
X023353Y022576D02*
X029540Y022576D01*
X029699Y022734D02*
X023353Y022734D01*
X023353Y022893D02*
X029857Y022893D01*
X030016Y023051D02*
X023353Y023051D01*
X023353Y023210D02*
X030174Y023210D01*
X030333Y023368D02*
X026463Y023368D01*
X026623Y023527D02*
X030491Y023527D01*
X030650Y023685D02*
X026695Y023685D01*
X026713Y023850D02*
X026713Y023873D01*
X026700Y023959D01*
X026673Y024041D01*
X026634Y024118D01*
X026583Y024188D01*
X026522Y024250D01*
X026452Y024300D01*
X026374Y024340D01*
X026292Y024366D01*
X026207Y024380D01*
X026183Y024380D01*
X026183Y023850D01*
X026713Y023850D01*
X026686Y024002D02*
X030967Y024002D01*
X031028Y024161D02*
X026603Y024161D01*
X026415Y024319D02*
X031028Y024319D01*
X031090Y024478D02*
X018534Y024478D01*
X018603Y024409D02*
X018228Y024784D01*
X018117Y024895D01*
X012585Y024895D01*
X011898Y024209D01*
X011898Y023688D01*
X011847Y023636D01*
X011803Y023532D01*
X011803Y023418D01*
X011847Y023314D01*
X011927Y023233D01*
X012032Y023190D01*
X012103Y023190D01*
X012103Y023163D01*
X012147Y023059D01*
X012227Y022978D01*
X012332Y022935D01*
X012445Y022935D01*
X012550Y022978D01*
X012630Y023059D01*
X012673Y023163D01*
X012673Y023236D01*
X013327Y023890D01*
X017389Y023890D01*
X017477Y023802D01*
X017598Y023752D01*
X017710Y023752D01*
X017710Y023640D01*
X017760Y023519D01*
X017852Y023427D01*
X017973Y023377D01*
X018085Y023377D01*
X018085Y023265D01*
X018135Y023144D01*
X018227Y023052D01*
X018348Y023002D01*
X018479Y023002D01*
X018599Y023052D01*
X018691Y023144D01*
X018741Y023265D01*
X018741Y023395D01*
X018691Y023516D01*
X018603Y023604D01*
X018603Y024409D01*
X018603Y024319D02*
X020714Y024319D01*
X020653Y024161D02*
X018603Y024161D01*
X018603Y024002D02*
X020653Y024002D01*
X020653Y023844D02*
X018603Y023844D01*
X018603Y023685D02*
X020653Y023685D01*
X020653Y023527D02*
X018681Y023527D01*
X018741Y023368D02*
X020687Y023368D01*
X020973Y023210D02*
X018719Y023210D01*
X018597Y023051D02*
X020973Y023051D01*
X020973Y022893D02*
X008246Y022893D01*
X008336Y023051D02*
X012154Y023051D01*
X011984Y023210D02*
X008378Y023210D01*
X008421Y023368D02*
X011824Y023368D01*
X011803Y023527D02*
X008428Y023527D01*
X008428Y023685D02*
X011895Y023685D01*
X011898Y023844D02*
X008407Y023844D01*
X008364Y024002D02*
X011898Y024002D01*
X011898Y024161D02*
X008308Y024161D01*
X008217Y024319D02*
X012009Y024319D01*
X012167Y024478D02*
X008107Y024478D01*
X007948Y024636D02*
X012326Y024636D01*
X012484Y024795D02*
X007715Y024795D01*
X007285Y024953D02*
X053199Y024953D01*
X053157Y024795D02*
X032770Y024795D01*
X032929Y024636D02*
X033248Y024636D01*
X033090Y024478D02*
X033048Y024478D01*
X033829Y024636D02*
X053148Y024636D01*
X053148Y024763D02*
X053148Y024397D01*
X053243Y024043D01*
X053426Y023727D01*
X053685Y023468D01*
X054002Y023285D01*
X054355Y023190D01*
X054721Y023190D01*
X055075Y023285D01*
X055392Y023468D01*
X055651Y023727D01*
X055834Y024043D01*
X055928Y024397D01*
X055928Y024763D01*
X055834Y025117D01*
X055651Y025433D01*
X055392Y025692D01*
X055075Y025875D01*
X054721Y025970D01*
X054355Y025970D01*
X054002Y025875D01*
X053685Y025692D01*
X053426Y025433D01*
X053243Y025117D01*
X053148Y024763D01*
X053148Y024478D02*
X033987Y024478D01*
X034048Y024319D02*
X053169Y024319D01*
X053212Y024161D02*
X045511Y024161D01*
X045475Y024197D02*
X045370Y024240D01*
X045257Y024240D01*
X045152Y024197D01*
X045072Y024116D01*
X045028Y024012D01*
X045028Y023898D01*
X045072Y023794D01*
X045152Y023713D01*
X045257Y023670D01*
X045370Y023670D01*
X045475Y023713D01*
X045555Y023794D01*
X045598Y023898D01*
X045598Y024012D01*
X045555Y024116D01*
X045475Y024197D01*
X045598Y024002D02*
X053267Y024002D01*
X053358Y023844D02*
X045576Y023844D01*
X045406Y023685D02*
X053468Y023685D01*
X053626Y023527D02*
X033938Y023527D01*
X034048Y023368D02*
X053858Y023368D01*
X054282Y023210D02*
X034048Y023210D01*
X034048Y023051D02*
X060798Y023051D01*
X060798Y022893D02*
X034119Y022893D01*
X034278Y022734D02*
X060798Y022734D01*
X060798Y022576D02*
X048507Y022576D01*
X048666Y022417D02*
X060798Y022417D01*
X060798Y022259D02*
X048913Y022259D01*
X049083Y022100D02*
X060798Y022100D01*
X060798Y021942D02*
X049116Y021942D01*
X049072Y021783D02*
X060798Y021783D01*
X060798Y021625D02*
X048947Y021625D01*
X048998Y021466D02*
X060798Y021466D01*
X060798Y021308D02*
X048961Y021308D01*
X048574Y021706D02*
X048552Y021697D01*
X048500Y021645D01*
X033022Y021645D01*
X033099Y021677D01*
X033191Y021769D01*
X033241Y021890D01*
X033241Y022020D01*
X033191Y022141D01*
X033099Y022233D01*
X032979Y022283D01*
X032848Y022283D01*
X032727Y022233D01*
X032639Y022145D01*
X029647Y022145D01*
X031262Y023760D01*
X031289Y023733D01*
X030988Y023433D01*
X030988Y023225D01*
X031518Y023225D01*
X031518Y023185D01*
X030988Y023185D01*
X030988Y022977D01*
X031311Y022655D01*
X031518Y022655D01*
X031518Y023185D01*
X031558Y023185D01*
X031558Y022655D01*
X031766Y022655D01*
X032088Y022977D01*
X032088Y023034D01*
X032327Y022795D01*
X032750Y022795D01*
X033028Y023074D01*
X033028Y022994D01*
X033327Y022695D01*
X033750Y022695D01*
X033765Y022710D01*
X034260Y022215D01*
X036725Y022215D01*
X036777Y022163D01*
X036882Y022120D01*
X036995Y022120D01*
X037043Y022140D01*
X048264Y022140D01*
X048460Y021944D01*
X048460Y021890D01*
X048510Y021769D01*
X048574Y021706D01*
X048504Y021783D02*
X033197Y021783D01*
X033241Y021942D02*
X048460Y021942D01*
X048304Y022100D02*
X033208Y022100D01*
X033038Y022259D02*
X034216Y022259D01*
X034058Y022417D02*
X029919Y022417D01*
X029761Y022259D02*
X032789Y022259D01*
X033288Y022734D02*
X031845Y022734D01*
X032004Y022893D02*
X032230Y022893D01*
X032847Y022893D02*
X033130Y022893D01*
X033028Y023051D02*
X033006Y023051D01*
X033899Y022576D02*
X030078Y022576D01*
X030236Y022734D02*
X031231Y022734D01*
X031073Y022893D02*
X030395Y022893D01*
X030553Y023051D02*
X030988Y023051D01*
X030712Y023210D02*
X031518Y023210D01*
X031518Y023051D02*
X031558Y023051D01*
X031558Y022893D02*
X031518Y022893D01*
X031518Y022734D02*
X031558Y022734D01*
X030988Y023368D02*
X030870Y023368D01*
X031029Y023527D02*
X031082Y023527D01*
X031187Y023685D02*
X031241Y023685D01*
X030808Y023844D02*
X026183Y023844D01*
X026183Y024002D02*
X026143Y024002D01*
X026143Y024161D02*
X026183Y024161D01*
X026183Y024319D02*
X026143Y024319D01*
X025912Y024319D02*
X025315Y024319D01*
X025554Y024161D02*
X025724Y024161D01*
X026143Y023685D02*
X026183Y023685D01*
X026183Y023527D02*
X026143Y023527D01*
X026143Y023368D02*
X026183Y023368D01*
X025863Y023368D02*
X025381Y023368D01*
X025581Y023527D02*
X025704Y023527D01*
X024946Y023368D02*
X024381Y023368D01*
X024581Y023527D02*
X024746Y023527D01*
X024671Y023685D02*
X024655Y023685D01*
X024644Y024002D02*
X024683Y024002D01*
X024773Y024161D02*
X024554Y024161D01*
X024315Y024319D02*
X025011Y024319D01*
X024011Y024319D02*
X023315Y024319D01*
X023554Y024161D02*
X023773Y024161D01*
X023683Y024002D02*
X023644Y024002D01*
X023655Y023685D02*
X023671Y023685D01*
X023746Y023527D02*
X023581Y023527D01*
X023381Y023368D02*
X023946Y023368D01*
X022973Y023210D02*
X022353Y023210D01*
X022353Y023051D02*
X022973Y023051D01*
X022973Y022893D02*
X022353Y022893D01*
X022353Y022734D02*
X022973Y022734D01*
X022973Y022576D02*
X022353Y022576D01*
X022353Y022417D02*
X022973Y022417D01*
X022973Y022259D02*
X022353Y022259D01*
X022353Y022100D02*
X022973Y022100D01*
X022973Y021942D02*
X022353Y021942D01*
X022353Y021783D02*
X022973Y021783D01*
X022973Y021625D02*
X022353Y021625D01*
X022353Y021466D02*
X022973Y021466D01*
X022973Y021308D02*
X022353Y021308D01*
X022459Y021149D02*
X022868Y021149D01*
X022835Y020991D02*
X022491Y020991D01*
X022447Y020832D02*
X022880Y020832D01*
X023363Y020674D02*
X010213Y020674D01*
X010055Y020832D02*
X021880Y020832D01*
X021835Y020991D02*
X009896Y020991D01*
X009738Y021149D02*
X020930Y021149D01*
X020838Y021308D02*
X009579Y021308D01*
X009421Y021466D02*
X020844Y021466D01*
X020944Y021625D02*
X009262Y021625D01*
X009104Y021783D02*
X020973Y021783D01*
X020973Y021942D02*
X008945Y021942D01*
X008787Y022100D02*
X020973Y022100D01*
X020973Y022259D02*
X008628Y022259D01*
X008470Y022417D02*
X020973Y022417D01*
X020973Y022576D02*
X008311Y022576D01*
X008155Y022734D02*
X020973Y022734D01*
X021353Y022734D02*
X021973Y022734D01*
X021973Y022576D02*
X021353Y022576D01*
X021353Y022417D02*
X021973Y022417D01*
X021973Y022259D02*
X021353Y022259D01*
X021353Y022100D02*
X021973Y022100D01*
X021973Y021942D02*
X021353Y021942D01*
X021353Y021783D02*
X021973Y021783D01*
X021973Y021625D02*
X021383Y021625D01*
X021483Y021466D02*
X021973Y021466D01*
X021973Y021308D02*
X021488Y021308D01*
X021396Y021149D02*
X021868Y021149D01*
X023447Y020832D02*
X023522Y020832D01*
X023491Y020991D02*
X023680Y020991D01*
X023967Y019723D02*
X022060Y019723D01*
X022119Y019247D02*
X023907Y019247D01*
X026438Y020674D02*
X027485Y020674D01*
X027359Y020832D02*
X026491Y020832D01*
X026465Y020991D02*
X027335Y020991D01*
X027393Y021149D02*
X026444Y021149D01*
X026491Y021308D02*
X028185Y021308D01*
X028212Y021149D02*
X027933Y021149D01*
X028235Y021466D02*
X026462Y021466D01*
X027841Y020674D02*
X031168Y020674D01*
X031460Y020832D02*
X029159Y020832D01*
X029318Y020991D02*
X031500Y020991D01*
X031701Y021149D02*
X029782Y021149D01*
X029545Y021149D02*
X029476Y021149D01*
X028456Y020357D02*
X030851Y020357D01*
X030747Y020198D02*
X028491Y020198D01*
X028450Y020040D02*
X030735Y020040D01*
X034433Y020040D02*
X034643Y020040D01*
X034643Y020198D02*
X034433Y020198D01*
X034433Y019881D02*
X034643Y019881D01*
X034643Y019723D02*
X034433Y019723D01*
X034433Y019564D02*
X034643Y019564D01*
X034655Y019406D02*
X034422Y019406D01*
X035542Y019406D02*
X041598Y019406D01*
X041598Y019564D02*
X035861Y019564D01*
X035974Y019723D02*
X041598Y019723D01*
X041717Y019881D02*
X035991Y019881D01*
X035918Y020040D02*
X039935Y020040D01*
X039777Y020198D02*
X035553Y020198D01*
X039988Y021149D02*
X060798Y021149D01*
X060798Y020991D02*
X054777Y020991D01*
X054748Y020996D02*
X054618Y021009D01*
X054618Y019660D01*
X054458Y019660D01*
X054458Y019500D01*
X053109Y019500D01*
X053122Y019370D01*
X053150Y019232D01*
X053190Y019098D01*
X053244Y018968D01*
X053310Y018844D01*
X053388Y018727D01*
X053477Y018619D01*
X053577Y018519D01*
X053685Y018430D01*
X053802Y018352D01*
X053926Y018286D01*
X054056Y018232D01*
X054190Y018191D01*
X054328Y018164D01*
X054458Y018151D01*
X054458Y019500D01*
X054618Y019500D01*
X054618Y018151D01*
X054748Y018164D01*
X054886Y018191D01*
X055021Y018232D01*
X055150Y018286D01*
X055274Y018352D01*
X055391Y018430D01*
X055500Y018519D01*
X055599Y018619D01*
X055688Y018727D01*
X055766Y018844D01*
X055833Y018968D01*
X055886Y019098D01*
X055927Y019232D01*
X055955Y019370D01*
X055967Y019500D01*
X054618Y019500D01*
X054618Y019660D01*
X055967Y019660D01*
X055955Y019790D01*
X055927Y019928D01*
X055886Y020062D01*
X055833Y020192D01*
X055766Y020316D01*
X055688Y020433D01*
X055599Y020541D01*
X055500Y020641D01*
X055391Y020730D01*
X055274Y020808D01*
X055150Y020874D01*
X055021Y020928D01*
X054886Y020969D01*
X054748Y020996D01*
X054618Y020991D02*
X054458Y020991D01*
X054458Y021009D02*
X054328Y020996D01*
X054190Y020969D01*
X054056Y020928D01*
X053926Y020874D01*
X053802Y020808D01*
X053685Y020730D01*
X053577Y020641D01*
X053477Y020541D01*
X053388Y020433D01*
X053310Y020316D01*
X053244Y020192D01*
X053190Y020062D01*
X053150Y019928D01*
X053122Y019790D01*
X053109Y019660D01*
X054458Y019660D01*
X054458Y021009D01*
X054300Y020991D02*
X040146Y020991D01*
X036938Y022380D02*
X036938Y022405D01*
X033898Y023844D02*
X045051Y023844D01*
X045028Y024002D02*
X034048Y024002D01*
X034048Y024161D02*
X045116Y024161D01*
X045220Y023685D02*
X033780Y023685D01*
X032148Y024636D02*
X031829Y024636D01*
X031987Y024478D02*
X032028Y024478D01*
X032307Y024795D02*
X018217Y024795D01*
X018376Y024636D02*
X031248Y024636D01*
X023011Y024319D02*
X022315Y024319D01*
X022554Y024161D02*
X022773Y024161D01*
X022683Y024002D02*
X022644Y024002D01*
X022655Y023685D02*
X022671Y023685D01*
X022746Y023527D02*
X022581Y023527D01*
X022381Y023368D02*
X022946Y023368D01*
X021973Y023210D02*
X021353Y023210D01*
X021353Y023051D02*
X021973Y023051D01*
X021973Y022893D02*
X021353Y022893D01*
X021639Y023368D02*
X021946Y023368D01*
X021746Y023527D02*
X021673Y023527D01*
X021673Y024002D02*
X021683Y024002D01*
X021673Y024161D02*
X021773Y024161D01*
X021612Y024319D02*
X022011Y024319D01*
X018229Y023051D02*
X016247Y023051D01*
X016255Y023059D02*
X016298Y023163D01*
X016298Y023277D01*
X016255Y023381D01*
X016175Y023462D01*
X016070Y023505D01*
X015973Y023505D01*
X015973Y023534D01*
X015930Y023639D01*
X015850Y023719D01*
X015745Y023762D01*
X015632Y023762D01*
X015527Y023719D01*
X015447Y023639D01*
X015403Y023534D01*
X015403Y023421D01*
X015447Y023316D01*
X015527Y023236D01*
X015632Y023193D01*
X015728Y023193D01*
X015728Y023163D01*
X015772Y023059D01*
X015852Y022978D01*
X015957Y022935D01*
X016070Y022935D01*
X016175Y022978D01*
X016255Y023059D01*
X016298Y023210D02*
X018108Y023210D01*
X018085Y023368D02*
X016260Y023368D01*
X015973Y023527D02*
X017757Y023527D01*
X017710Y023685D02*
X015884Y023685D01*
X015493Y023685D02*
X013122Y023685D01*
X012964Y023527D02*
X015403Y023527D01*
X015425Y023368D02*
X012805Y023368D01*
X012673Y023210D02*
X015591Y023210D01*
X015779Y023051D02*
X012622Y023051D01*
X013281Y023844D02*
X017436Y023844D01*
X009835Y020515D02*
X008069Y020515D01*
X008195Y020357D02*
X009993Y020357D01*
X009676Y020674D02*
X007911Y020674D01*
X007650Y020832D02*
X009518Y020832D01*
X009359Y020991D02*
X000521Y020991D01*
X000521Y021149D02*
X009201Y021149D01*
X009042Y021308D02*
X000521Y021308D01*
X000521Y021466D02*
X008884Y021466D01*
X008725Y021625D02*
X000521Y021625D01*
X000521Y021783D02*
X008567Y021783D01*
X008408Y021942D02*
X000521Y021942D01*
X000521Y022100D02*
X008250Y022100D01*
X008091Y022259D02*
X007477Y022259D01*
X007804Y022417D02*
X007933Y022417D01*
X006600Y022259D02*
X000521Y022259D01*
X000521Y022417D02*
X006273Y022417D01*
X006077Y022576D02*
X000521Y022576D01*
X000521Y022734D02*
X005922Y022734D01*
X005830Y022893D02*
X000521Y022893D01*
X000521Y023051D02*
X005741Y023051D01*
X005699Y023210D02*
X000521Y023210D01*
X000521Y023368D02*
X005656Y023368D01*
X005648Y023527D02*
X000521Y023527D01*
X000521Y023685D02*
X005648Y023685D01*
X005670Y023844D02*
X000521Y023844D01*
X000521Y024002D02*
X005712Y024002D01*
X005768Y024161D02*
X000521Y024161D01*
X000521Y024319D02*
X005860Y024319D01*
X005970Y024478D02*
X000521Y024478D01*
X000521Y024636D02*
X006129Y024636D01*
X006362Y024795D02*
X000521Y024795D01*
X000521Y024953D02*
X006792Y024953D01*
X000521Y025112D02*
X053242Y025112D01*
X053332Y025270D02*
X000521Y025270D01*
X000521Y025429D02*
X053423Y025429D01*
X053580Y025587D02*
X000521Y025587D01*
X000521Y025746D02*
X053777Y025746D01*
X054109Y025904D02*
X000521Y025904D01*
X000521Y026063D02*
X060798Y026063D01*
X060798Y025904D02*
X054967Y025904D01*
X055300Y025746D02*
X060798Y025746D01*
X060798Y025587D02*
X055497Y025587D01*
X055653Y025429D02*
X060798Y025429D01*
X060798Y025270D02*
X055745Y025270D01*
X055835Y025112D02*
X060798Y025112D01*
X060798Y024953D02*
X055877Y024953D01*
X055920Y024795D02*
X060798Y024795D01*
X060798Y024636D02*
X055928Y024636D01*
X055928Y024478D02*
X060798Y024478D01*
X060798Y024319D02*
X055907Y024319D01*
X055865Y024161D02*
X060798Y024161D01*
X060798Y024002D02*
X055810Y024002D01*
X055718Y023844D02*
X060798Y023844D01*
X060798Y023685D02*
X055609Y023685D01*
X055451Y023527D02*
X060798Y023527D01*
X060798Y023368D02*
X055219Y023368D01*
X054794Y023210D02*
X060798Y023210D01*
X060798Y020832D02*
X055229Y020832D01*
X055460Y020674D02*
X060798Y020674D01*
X060798Y020515D02*
X055621Y020515D01*
X055739Y020357D02*
X060798Y020357D01*
X060798Y020198D02*
X055829Y020198D01*
X055893Y020040D02*
X060798Y020040D01*
X060798Y019881D02*
X055936Y019881D01*
X055961Y019723D02*
X060798Y019723D01*
X060798Y019564D02*
X054618Y019564D01*
X054618Y019406D02*
X054458Y019406D01*
X054458Y019564D02*
X051478Y019564D01*
X051478Y019406D02*
X053119Y019406D01*
X053147Y019247D02*
X051328Y019247D01*
X051221Y019140D02*
X051478Y019398D01*
X051478Y019762D01*
X051221Y020020D01*
X050856Y020020D01*
X050598Y019762D01*
X050598Y019398D01*
X050856Y019140D01*
X051221Y019140D01*
X051221Y019020D02*
X050856Y019020D01*
X050598Y018762D01*
X050598Y018398D01*
X050856Y018140D01*
X051221Y018140D01*
X051478Y018398D01*
X051478Y018762D01*
X051221Y019020D01*
X051311Y018930D02*
X053264Y018930D01*
X053194Y019089D02*
X047798Y019089D01*
X047749Y019247D02*
X047728Y019247D01*
X047348Y019247D02*
X047328Y019247D01*
X047348Y019089D02*
X046798Y019089D01*
X046749Y019247D02*
X046728Y019247D01*
X046348Y019247D02*
X046328Y019247D01*
X046348Y019089D02*
X046228Y019089D01*
X046311Y018930D02*
X046420Y018930D01*
X046469Y018772D02*
X046578Y018772D01*
X046598Y018613D02*
X046478Y018613D01*
X046478Y018455D02*
X046598Y018455D01*
X046700Y018296D02*
X046377Y018296D01*
X047377Y018296D02*
X047700Y018296D01*
X047598Y018455D02*
X047478Y018455D01*
X047478Y018613D02*
X047598Y018613D01*
X047578Y018772D02*
X047469Y018772D01*
X047420Y018930D02*
X047311Y018930D01*
X048311Y018930D02*
X048766Y018930D01*
X048856Y019020D02*
X048598Y018762D01*
X048598Y018398D01*
X048856Y018140D01*
X049221Y018140D01*
X049478Y018398D01*
X049478Y018762D01*
X049221Y019020D01*
X048856Y019020D01*
X048856Y019140D02*
X049221Y019140D01*
X049478Y019398D01*
X049478Y019762D01*
X049221Y020020D01*
X048856Y020020D01*
X048598Y019762D01*
X048598Y019398D01*
X048856Y019140D01*
X048749Y019247D02*
X048328Y019247D01*
X048478Y019406D02*
X048598Y019406D01*
X048598Y019564D02*
X048478Y019564D01*
X048478Y019723D02*
X048598Y019723D01*
X048717Y019881D02*
X048360Y019881D01*
X047728Y020040D02*
X053183Y020040D01*
X053140Y019881D02*
X051360Y019881D01*
X051478Y019723D02*
X053115Y019723D01*
X053247Y020198D02*
X047728Y020198D01*
X047728Y020357D02*
X053337Y020357D01*
X053456Y020515D02*
X047622Y020515D01*
X047463Y020674D02*
X053617Y020674D01*
X053847Y020832D02*
X047305Y020832D01*
X049360Y019881D02*
X049717Y019881D01*
X049598Y019762D02*
X049598Y019398D01*
X049856Y019140D01*
X050221Y019140D01*
X050478Y019398D01*
X050478Y019762D01*
X050221Y020020D01*
X049856Y020020D01*
X049598Y019762D01*
X049598Y019723D02*
X049478Y019723D01*
X049478Y019564D02*
X049598Y019564D01*
X049598Y019406D02*
X049478Y019406D01*
X049328Y019247D02*
X049749Y019247D01*
X049856Y019020D02*
X049598Y018762D01*
X049598Y018398D01*
X049856Y018140D01*
X050221Y018140D01*
X050478Y018398D01*
X050478Y018762D01*
X050221Y019020D01*
X049856Y019020D01*
X049766Y018930D02*
X049311Y018930D01*
X049469Y018772D02*
X049608Y018772D01*
X049598Y018613D02*
X049478Y018613D01*
X049478Y018455D02*
X049598Y018455D01*
X049700Y018296D02*
X049377Y018296D01*
X048700Y018296D02*
X048377Y018296D01*
X048478Y018455D02*
X048598Y018455D01*
X048598Y018613D02*
X048478Y018613D01*
X048469Y018772D02*
X048608Y018772D01*
X050311Y018930D02*
X050766Y018930D01*
X050608Y018772D02*
X050469Y018772D01*
X050478Y018613D02*
X050598Y018613D01*
X050598Y018455D02*
X050478Y018455D01*
X050377Y018296D02*
X050700Y018296D01*
X051377Y018296D02*
X053907Y018296D01*
X053656Y018455D02*
X051478Y018455D01*
X051478Y018613D02*
X053483Y018613D01*
X053359Y018772D02*
X051469Y018772D01*
X050749Y019247D02*
X050328Y019247D01*
X050478Y019406D02*
X050598Y019406D01*
X050598Y019564D02*
X050478Y019564D01*
X050478Y019723D02*
X050598Y019723D01*
X050717Y019881D02*
X050360Y019881D01*
X054458Y019881D02*
X054618Y019881D01*
X054618Y019723D02*
X054458Y019723D01*
X054458Y020040D02*
X054618Y020040D01*
X054618Y020198D02*
X054458Y020198D01*
X054458Y020357D02*
X054618Y020357D01*
X054618Y020515D02*
X054458Y020515D01*
X054458Y020674D02*
X054618Y020674D01*
X054618Y020832D02*
X054458Y020832D01*
X055958Y019406D02*
X060798Y019406D01*
X060798Y019247D02*
X055930Y019247D01*
X055883Y019089D02*
X060798Y019089D01*
X060798Y018930D02*
X055812Y018930D01*
X055718Y018772D02*
X060798Y018772D01*
X060798Y018613D02*
X055594Y018613D01*
X055421Y018455D02*
X060798Y018455D01*
X060798Y018296D02*
X055170Y018296D01*
X054618Y018296D02*
X054458Y018296D01*
X054458Y018455D02*
X054618Y018455D01*
X054618Y018613D02*
X054458Y018613D01*
X054458Y018772D02*
X054618Y018772D01*
X054618Y018930D02*
X054458Y018930D01*
X054458Y019089D02*
X054618Y019089D01*
X054618Y019247D02*
X054458Y019247D01*
X056674Y017345D02*
X040643Y017345D01*
X040254Y017345D02*
X040250Y017345D01*
X039861Y017345D02*
X039856Y017345D01*
X039467Y017345D02*
X039462Y017345D01*
X042377Y018296D02*
X042700Y018296D01*
X042598Y018455D02*
X042478Y018455D01*
X042478Y018613D02*
X042598Y018613D01*
X042608Y018772D02*
X042469Y018772D01*
X043469Y018772D02*
X043608Y018772D01*
X043598Y018613D02*
X043478Y018613D01*
X043478Y018455D02*
X043598Y018455D01*
X043700Y018296D02*
X043377Y018296D01*
X044377Y018296D02*
X044700Y018296D01*
X044598Y018455D02*
X044478Y018455D01*
X044478Y018613D02*
X044598Y018613D01*
X044608Y018772D02*
X044469Y018772D01*
X045469Y018772D02*
X045608Y018772D01*
X045598Y018613D02*
X045478Y018613D01*
X045478Y018455D02*
X045598Y018455D01*
X045700Y018296D02*
X045377Y018296D01*
X046115Y014175D02*
X019475Y014175D01*
X019478Y014017D02*
X021956Y014017D01*
X021798Y013858D02*
X019423Y013858D01*
X019438Y013700D02*
X021110Y013700D01*
X021098Y013541D02*
X019596Y013541D01*
X019755Y013383D02*
X021098Y013383D01*
X021098Y013224D02*
X019913Y013224D01*
X019978Y013066D02*
X021098Y013066D01*
X021163Y012907D02*
X019978Y012907D01*
X019978Y012749D02*
X021063Y012749D01*
X020905Y012590D02*
X019978Y012590D01*
X019978Y012432D02*
X020848Y012432D01*
X020848Y012273D02*
X019978Y012273D01*
X019978Y012115D02*
X020848Y012115D01*
X020848Y011956D02*
X019978Y011956D01*
X019978Y011798D02*
X020848Y011798D01*
X020961Y011639D02*
X019978Y011639D01*
X019978Y011481D02*
X021119Y011481D01*
X021098Y011322D02*
X019978Y011322D01*
X019978Y011164D02*
X021103Y011164D01*
X020945Y011005D02*
X019978Y011005D01*
X019978Y010847D02*
X020848Y010847D01*
X020848Y010688D02*
X019978Y010688D01*
X019978Y010530D02*
X020848Y010530D01*
X020848Y010371D02*
X019978Y010371D01*
X019978Y010213D02*
X020848Y010213D01*
X020848Y010054D02*
X019978Y010054D01*
X019978Y009896D02*
X020848Y009896D01*
X020863Y009737D02*
X019978Y009737D01*
X019978Y009579D02*
X021021Y009579D01*
X021099Y009420D02*
X019978Y009420D01*
X019978Y009262D02*
X021098Y009262D01*
X021156Y009103D02*
X019978Y009103D01*
X019978Y008945D02*
X021319Y008945D01*
X021451Y008770D02*
X021289Y008703D01*
X021165Y008579D01*
X021098Y008418D01*
X021098Y008242D01*
X021165Y008081D01*
X021289Y007957D01*
X021451Y007890D01*
X021626Y007890D01*
X021788Y007957D01*
X021911Y008081D01*
X021978Y008242D01*
X021978Y008418D01*
X021911Y008579D01*
X021788Y008703D01*
X021626Y008770D01*
X021451Y008770D01*
X021214Y008628D02*
X019978Y008628D01*
X019978Y008786D02*
X027814Y008786D01*
X028034Y009103D02*
X029156Y009103D01*
X029098Y009262D02*
X027978Y009262D01*
X027977Y009420D02*
X029099Y009420D01*
X029165Y009579D02*
X027912Y009579D01*
X027863Y009737D02*
X027705Y009737D01*
X027704Y009896D02*
X027639Y009896D01*
X027437Y009896D02*
X021639Y009896D01*
X021705Y009737D02*
X027371Y009737D01*
X027165Y009579D02*
X021912Y009579D01*
X021977Y009420D02*
X027099Y009420D01*
X027098Y009262D02*
X021978Y009262D01*
X021921Y009103D02*
X027156Y009103D01*
X027319Y008945D02*
X021757Y008945D01*
X021863Y008628D02*
X027214Y008628D01*
X027120Y008469D02*
X021957Y008469D01*
X021978Y008311D02*
X027098Y008311D01*
X027136Y008152D02*
X021941Y008152D01*
X021824Y007994D02*
X027253Y007994D01*
X027978Y007360D02*
X035098Y007360D01*
X035115Y007201D02*
X027961Y007201D01*
X027192Y010054D02*
X021885Y010054D01*
X021966Y010213D02*
X027111Y010213D01*
X027098Y010371D02*
X021978Y010371D01*
X022007Y010530D02*
X027145Y010530D01*
X027131Y011164D02*
X021946Y011164D01*
X021945Y011005D02*
X021836Y011005D01*
X021786Y010847D02*
X021324Y010847D01*
X021274Y010688D02*
X021228Y010688D01*
X021978Y011322D02*
X027098Y011322D01*
X027124Y011481D02*
X021952Y011481D01*
X021852Y011639D02*
X027225Y011639D01*
X027737Y011798D02*
X021340Y011798D01*
X021291Y011956D02*
X021228Y011956D01*
X021785Y011956D02*
X027896Y011956D01*
X029279Y013858D02*
X029798Y013858D01*
X029956Y014017D02*
X029121Y014017D01*
X037954Y010477D02*
X038117Y010640D01*
X043226Y010640D01*
X043165Y010579D01*
X043098Y010418D01*
X043098Y010242D01*
X043123Y010183D01*
X042960Y010020D01*
X037851Y010020D01*
X037911Y010081D01*
X037978Y010242D01*
X037978Y010418D01*
X037954Y010477D01*
X038007Y010530D02*
X043145Y010530D01*
X043098Y010371D02*
X037978Y010371D01*
X037966Y010213D02*
X043111Y010213D01*
X042994Y010054D02*
X037885Y010054D01*
X043181Y011956D02*
X043896Y011956D01*
X043737Y011798D02*
X043340Y011798D01*
X043958Y011481D02*
X045124Y011481D01*
X045098Y011322D02*
X043978Y011322D01*
X043946Y011164D02*
X045131Y011164D01*
X045132Y011005D02*
X045241Y011005D01*
X045291Y010847D02*
X058753Y010847D01*
X058595Y011005D02*
X051836Y011005D01*
X051946Y011164D02*
X058436Y011164D01*
X058278Y011322D02*
X051978Y011322D01*
X051952Y011481D02*
X058119Y011481D01*
X057961Y011639D02*
X051852Y011639D01*
X051340Y011798D02*
X057802Y011798D01*
X057644Y011956D02*
X051181Y011956D01*
X050961Y011639D02*
X045852Y011639D01*
X045952Y011481D02*
X051119Y011481D01*
X051098Y011322D02*
X045978Y011322D01*
X045946Y011164D02*
X051131Y011164D01*
X051241Y011005D02*
X045836Y011005D01*
X045803Y010688D02*
X051274Y010688D01*
X051145Y010530D02*
X045932Y010530D01*
X045978Y010371D02*
X051098Y010371D01*
X051111Y010213D02*
X045966Y010213D01*
X045885Y010054D02*
X050994Y010054D01*
X051932Y010530D02*
X059070Y010530D01*
X058912Y010688D02*
X051803Y010688D01*
X052516Y010371D02*
X059229Y010371D01*
X059387Y010213D02*
X052675Y010213D01*
X051123Y008477D02*
X050460Y009140D01*
X045936Y009140D01*
X045911Y009081D01*
X045851Y009020D01*
X048292Y009020D01*
X048479Y008833D01*
X048604Y008833D01*
X048724Y008783D01*
X048816Y008691D01*
X048866Y008570D01*
X048866Y008440D01*
X048816Y008319D01*
X048724Y008227D01*
X048604Y008177D01*
X048473Y008177D01*
X048352Y008227D01*
X048260Y008319D01*
X048210Y008440D01*
X048210Y008564D01*
X048135Y008640D01*
X045851Y008640D01*
X045911Y008579D01*
X045978Y008418D01*
X045978Y008242D01*
X045917Y008095D01*
X049210Y008095D01*
X049210Y008145D01*
X049260Y008266D01*
X049352Y008358D01*
X049473Y008408D01*
X049604Y008408D01*
X049724Y008358D01*
X049816Y008266D01*
X049866Y008145D01*
X049866Y008015D01*
X049816Y007894D01*
X049742Y007820D01*
X051010Y007820D01*
X051098Y007909D01*
X051210Y008020D01*
X051226Y008020D01*
X051165Y008081D01*
X051098Y008242D01*
X051098Y008418D01*
X051123Y008477D01*
X051120Y008469D02*
X048866Y008469D01*
X048843Y008628D02*
X050972Y008628D01*
X050814Y008786D02*
X048717Y008786D01*
X048368Y008945D02*
X050655Y008945D01*
X050497Y009103D02*
X045921Y009103D01*
X045863Y008628D02*
X048147Y008628D01*
X048210Y008469D02*
X045957Y008469D01*
X045978Y008311D02*
X048269Y008311D01*
X048808Y008311D02*
X049305Y008311D01*
X049213Y008152D02*
X045941Y008152D01*
X049757Y007835D02*
X051025Y007835D01*
X051183Y007994D02*
X049858Y007994D01*
X049864Y008152D02*
X051136Y008152D01*
X051098Y008311D02*
X049772Y008311D01*
X045225Y011639D02*
X044116Y011639D01*
X045925Y012115D02*
X057485Y012115D01*
X057327Y012273D02*
X045978Y012273D01*
X045973Y012432D02*
X057168Y012432D01*
X057010Y012590D02*
X045901Y012590D01*
X045678Y012749D02*
X056851Y012749D01*
X056693Y012907D02*
X051667Y012907D01*
X051626Y012890D02*
X051788Y012957D01*
X051911Y013081D01*
X051978Y013242D01*
X051978Y013418D01*
X051911Y013579D01*
X051788Y013703D01*
X051626Y013770D01*
X051451Y013770D01*
X051289Y013703D01*
X051165Y013579D01*
X051098Y013418D01*
X051098Y013242D01*
X051165Y013081D01*
X051289Y012957D01*
X051451Y012890D01*
X051626Y012890D01*
X051410Y012907D02*
X045913Y012907D01*
X045978Y013066D02*
X051181Y013066D01*
X051106Y013224D02*
X045978Y013224D01*
X045978Y013383D02*
X051098Y013383D01*
X051149Y013541D02*
X046018Y013541D01*
X046177Y013700D02*
X051286Y013700D01*
X051791Y013700D02*
X055900Y013700D01*
X055742Y013858D02*
X046335Y013858D01*
X045956Y014017D02*
X045121Y014017D01*
X045279Y013858D02*
X045798Y013858D01*
X045399Y012749D02*
X045389Y012749D01*
X051896Y013066D02*
X056534Y013066D01*
X056376Y013224D02*
X051971Y013224D01*
X051978Y013383D02*
X056217Y013383D01*
X056059Y013541D02*
X051927Y013541D01*
X055962Y014175D02*
X060798Y014175D01*
X060798Y014017D02*
X056121Y014017D01*
X056279Y013858D02*
X060798Y013858D01*
X060798Y013700D02*
X056438Y013700D01*
X056596Y013541D02*
X060798Y013541D01*
X060798Y013383D02*
X056755Y013383D01*
X056913Y013224D02*
X060798Y013224D01*
X060798Y013066D02*
X057072Y013066D01*
X057230Y012907D02*
X060798Y012907D01*
X060798Y012749D02*
X057389Y012749D01*
X057547Y012590D02*
X060798Y012590D01*
X060798Y012432D02*
X057706Y012432D01*
X057864Y012273D02*
X060798Y012273D01*
X060798Y012115D02*
X058023Y012115D01*
X058181Y011956D02*
X060798Y011956D01*
X060798Y011798D02*
X058340Y011798D01*
X058498Y011639D02*
X060798Y011639D01*
X060798Y011481D02*
X058657Y011481D01*
X058815Y011322D02*
X060798Y011322D01*
X060798Y011164D02*
X058974Y011164D01*
X059132Y011005D02*
X060798Y011005D01*
X060798Y010847D02*
X059291Y010847D01*
X059449Y010688D02*
X060798Y010688D01*
X060798Y010530D02*
X059608Y010530D01*
X059766Y010371D02*
X060798Y010371D01*
X060798Y010213D02*
X059925Y010213D01*
X060083Y010054D02*
X060798Y010054D01*
X060798Y009896D02*
X060242Y009896D01*
X060705Y009737D02*
X060798Y009737D01*
X060798Y014334D02*
X019407Y014334D01*
X019193Y014492D02*
X060798Y014492D01*
X060798Y014651D02*
X013736Y014651D01*
X013578Y014809D02*
X060798Y014809D01*
X060798Y014968D02*
X000521Y014968D01*
X000521Y015126D02*
X060798Y015126D01*
X060798Y015285D02*
X000521Y015285D01*
X000521Y015443D02*
X060798Y015443D01*
X060798Y017345D02*
X058657Y017345D01*
X060798Y018138D02*
X018025Y018138D01*
X017393Y018296D02*
X017127Y018296D01*
X017228Y018455D02*
X017308Y018455D01*
X017308Y018613D02*
X017228Y018613D01*
X017219Y018772D02*
X017308Y018772D01*
X016358Y018772D02*
X016219Y018772D01*
X016228Y018613D02*
X016348Y018613D01*
X016348Y018455D02*
X016228Y018455D01*
X016127Y018296D02*
X016450Y018296D01*
X015450Y018296D02*
X015127Y018296D01*
X015228Y018455D02*
X015348Y018455D01*
X015348Y018613D02*
X015228Y018613D01*
X015219Y018772D02*
X015358Y018772D01*
X014450Y018296D02*
X014127Y018296D01*
X014228Y018455D02*
X014348Y018455D01*
X014348Y018613D02*
X014228Y018613D01*
X014219Y018772D02*
X014358Y018772D01*
X013358Y018772D02*
X013219Y018772D01*
X013228Y018613D02*
X013348Y018613D01*
X013348Y018455D02*
X013228Y018455D01*
X013127Y018296D02*
X013450Y018296D01*
X012450Y018296D02*
X012127Y018296D01*
X012228Y018455D02*
X012348Y018455D01*
X012348Y018613D02*
X012228Y018613D01*
X012219Y018772D02*
X012358Y018772D01*
X011358Y018772D02*
X011219Y018772D01*
X011228Y018613D02*
X011348Y018613D01*
X011348Y018455D02*
X011228Y018455D01*
X011127Y018296D02*
X011450Y018296D01*
X010450Y018296D02*
X010127Y018296D01*
X010228Y018455D02*
X010348Y018455D01*
X010348Y018613D02*
X010228Y018613D01*
X010219Y018772D02*
X010358Y018772D01*
X009450Y018296D02*
X007594Y018296D01*
X007869Y018455D02*
X009348Y018455D01*
X009348Y018613D02*
X008037Y018613D01*
X008177Y018772D02*
X009358Y018772D01*
X009348Y019406D02*
X008428Y019406D01*
X008428Y019564D02*
X009348Y019564D01*
X009348Y019723D02*
X008428Y019723D01*
X008397Y019881D02*
X009467Y019881D01*
X010110Y019881D02*
X010467Y019881D01*
X010348Y019723D02*
X010228Y019723D01*
X010228Y019564D02*
X010348Y019564D01*
X010348Y019406D02*
X010228Y019406D01*
X011228Y019406D02*
X011348Y019406D01*
X011348Y019564D02*
X011228Y019564D01*
X011228Y019723D02*
X011348Y019723D01*
X011467Y019881D02*
X011110Y019881D01*
X012110Y019881D02*
X012467Y019881D01*
X012348Y019723D02*
X012228Y019723D01*
X012228Y019564D02*
X012348Y019564D01*
X012348Y019406D02*
X012228Y019406D01*
X013110Y019881D02*
X013467Y019881D01*
X013348Y019723D02*
X013228Y019723D01*
X013228Y019564D02*
X013348Y019564D01*
X013348Y019406D02*
X013228Y019406D01*
X014228Y019406D02*
X014348Y019406D01*
X014348Y019564D02*
X014228Y019564D01*
X014228Y019723D02*
X014348Y019723D01*
X014467Y019881D02*
X014110Y019881D01*
X015110Y019881D02*
X015467Y019881D01*
X015348Y019723D02*
X015228Y019723D01*
X015228Y019564D02*
X015348Y019564D01*
X015348Y019406D02*
X015228Y019406D01*
X016228Y019406D02*
X016348Y019406D01*
X016348Y019564D02*
X016228Y019564D01*
X016228Y019723D02*
X016348Y019723D01*
X016467Y019881D02*
X016110Y019881D01*
X017110Y019881D02*
X017467Y019881D01*
X017348Y019723D02*
X017228Y019723D01*
X017228Y019564D02*
X017348Y019564D01*
X017348Y019406D02*
X017228Y019406D01*
X018110Y019881D02*
X018467Y019881D01*
X018348Y019723D02*
X018228Y019723D01*
X018228Y019564D02*
X018348Y019564D01*
X018348Y019406D02*
X018228Y019406D01*
X019110Y019881D02*
X019696Y019881D01*
X019854Y020040D02*
X008354Y020040D01*
X008287Y020198D02*
X020013Y020198D01*
X019537Y019723D02*
X019228Y019723D01*
X019228Y019564D02*
X019379Y019564D01*
X007999Y014809D02*
X007078Y014809D01*
X007236Y014651D02*
X007840Y014651D01*
X008061Y014334D02*
X012170Y014334D01*
X012165Y014329D02*
X012098Y014168D01*
X012098Y013992D01*
X012165Y013831D01*
X012226Y013770D01*
X007978Y013770D01*
X007978Y014251D01*
X008242Y014515D01*
X012439Y014515D01*
X012289Y014453D01*
X012165Y014329D01*
X012101Y014175D02*
X007978Y014175D01*
X007978Y014017D02*
X012098Y014017D01*
X012154Y013858D02*
X007978Y013858D01*
X008117Y013390D02*
X012226Y013390D01*
X012165Y013329D01*
X012098Y013168D01*
X012098Y012992D01*
X012165Y012831D01*
X012289Y012707D01*
X012451Y012640D01*
X012626Y012640D01*
X012788Y012707D01*
X012911Y012831D01*
X012978Y012992D01*
X012978Y013168D01*
X012923Y013302D01*
X013335Y012890D01*
X013641Y012890D01*
X013665Y012831D01*
X013726Y012770D01*
X012960Y012770D01*
X012685Y012495D01*
X012626Y012520D01*
X012451Y012520D01*
X012392Y012495D01*
X012203Y012684D01*
X012092Y012795D01*
X007876Y012795D01*
X007911Y012831D01*
X007978Y012992D01*
X007978Y013168D01*
X007954Y013227D01*
X008117Y013390D01*
X008110Y013383D02*
X012219Y013383D01*
X012122Y013224D02*
X007955Y013224D01*
X007978Y013066D02*
X012098Y013066D01*
X012134Y012907D02*
X007943Y012907D01*
X007134Y012907D02*
X006443Y012907D01*
X006438Y012749D02*
X006329Y012749D01*
X006280Y012590D02*
X000521Y012590D01*
X000521Y012432D02*
X000768Y012432D01*
X000789Y012453D02*
X000665Y012329D01*
X000598Y012168D01*
X000598Y011992D01*
X000665Y011831D01*
X000789Y011707D01*
X000951Y011640D01*
X001126Y011640D01*
X001288Y011707D01*
X001411Y011831D01*
X001478Y011992D01*
X001478Y012168D01*
X001411Y012329D01*
X001288Y012453D01*
X001126Y012520D01*
X000951Y012520D01*
X000789Y012453D01*
X000642Y012273D02*
X000521Y012273D01*
X000521Y012115D02*
X000598Y012115D01*
X000613Y011956D02*
X000521Y011956D01*
X000521Y011798D02*
X000699Y011798D01*
X000521Y011639D02*
X001329Y011639D01*
X001378Y011798D02*
X005699Y011798D01*
X005613Y011956D02*
X001463Y011956D01*
X001478Y012115D02*
X005598Y012115D01*
X005642Y012273D02*
X001435Y012273D01*
X001309Y012432D02*
X005768Y012432D01*
X005748Y012749D02*
X001329Y012749D01*
X001443Y012907D02*
X005634Y012907D01*
X005598Y013066D02*
X001478Y013066D01*
X001455Y013224D02*
X005622Y013224D01*
X005719Y013383D02*
X001610Y013383D01*
X001231Y013541D02*
X000521Y013541D01*
X000521Y013383D02*
X000719Y013383D01*
X000622Y013224D02*
X000521Y013224D01*
X000521Y013066D02*
X000598Y013066D01*
X000634Y012907D02*
X000521Y012907D01*
X000521Y012749D02*
X000748Y012749D01*
X000621Y013700D02*
X000521Y013700D01*
X000521Y013858D02*
X000598Y013858D01*
X000598Y014017D02*
X000521Y014017D01*
X000521Y014175D02*
X000598Y014175D01*
X000598Y014334D02*
X000521Y014334D01*
X000521Y014492D02*
X000652Y014492D01*
X000521Y014651D02*
X001340Y014651D01*
X001499Y014809D02*
X000521Y014809D01*
X006358Y013383D02*
X006967Y013383D01*
X007122Y013224D02*
X006455Y013224D01*
X006478Y013066D02*
X007098Y013066D01*
X008219Y014492D02*
X012383Y014492D01*
X014424Y014492D02*
X018883Y014492D01*
X018670Y014334D02*
X014478Y014334D01*
X014478Y014175D02*
X018601Y014175D01*
X018598Y014017D02*
X014478Y014017D01*
X014478Y013858D02*
X018654Y013858D01*
X018726Y013390D02*
X018665Y013329D01*
X018598Y013168D01*
X018598Y012992D01*
X018665Y012831D01*
X018789Y012707D01*
X018951Y012640D01*
X019126Y012640D01*
X019288Y012707D01*
X019411Y012831D01*
X019478Y012992D01*
X019478Y013121D01*
X019598Y013001D01*
X019598Y008789D01*
X019454Y008933D01*
X019478Y008992D01*
X019478Y009168D01*
X019411Y009329D01*
X019288Y009453D01*
X019126Y009520D01*
X018951Y009520D01*
X018789Y009453D01*
X018665Y009329D01*
X018598Y009168D01*
X018598Y008992D01*
X018665Y008831D01*
X018789Y008707D01*
X018951Y008640D01*
X019126Y008640D01*
X019185Y008665D01*
X019348Y008501D01*
X019348Y008392D01*
X019288Y008453D01*
X019126Y008520D01*
X018951Y008520D01*
X018892Y008495D01*
X018853Y008534D01*
X018742Y008645D01*
X014492Y008645D01*
X014478Y008659D01*
X014367Y008770D01*
X014351Y008770D01*
X014411Y008831D01*
X014478Y008992D01*
X014478Y009168D01*
X014411Y009329D01*
X014351Y009390D01*
X018617Y009390D01*
X018892Y009665D01*
X018951Y009640D01*
X019126Y009640D01*
X019288Y009707D01*
X019411Y009831D01*
X019478Y009992D01*
X019478Y010168D01*
X019411Y010329D01*
X019288Y010453D01*
X019126Y010520D01*
X018997Y010520D01*
X019103Y010626D01*
X019117Y010640D01*
X019126Y010640D01*
X019288Y010707D01*
X019411Y010831D01*
X019478Y010992D01*
X019478Y011168D01*
X019411Y011329D01*
X019288Y011453D01*
X019126Y011520D01*
X018951Y011520D01*
X018789Y011453D01*
X018665Y011329D01*
X018598Y011168D01*
X018598Y010992D01*
X018639Y010895D01*
X014438Y010895D01*
X014478Y010992D01*
X014478Y011168D01*
X014411Y011329D01*
X014288Y011453D01*
X014126Y011520D01*
X013951Y011520D01*
X013892Y011495D01*
X013728Y011659D01*
X013617Y011770D01*
X012851Y011770D01*
X012911Y011831D01*
X012978Y011992D01*
X012978Y012168D01*
X012954Y012227D01*
X013117Y012390D01*
X013726Y012390D01*
X013665Y012329D01*
X013598Y012168D01*
X013598Y011992D01*
X013665Y011831D01*
X013789Y011707D01*
X013951Y011640D01*
X014126Y011640D01*
X014288Y011707D01*
X014411Y011831D01*
X014478Y011992D01*
X014478Y012168D01*
X014411Y012329D01*
X014351Y012390D01*
X018460Y012390D01*
X018623Y012227D01*
X018598Y012168D01*
X018598Y011992D01*
X018665Y011831D01*
X018789Y011707D01*
X018951Y011640D01*
X019126Y011640D01*
X019288Y011707D01*
X019411Y011831D01*
X019478Y011992D01*
X019478Y012168D01*
X019411Y012329D01*
X019288Y012453D01*
X019126Y012520D01*
X018951Y012520D01*
X018892Y012495D01*
X018728Y012659D01*
X018617Y012770D01*
X014351Y012770D01*
X014411Y012831D01*
X014478Y012992D01*
X014478Y013168D01*
X014411Y013329D01*
X014351Y013390D01*
X018726Y013390D01*
X018719Y013383D02*
X014358Y013383D01*
X014455Y013224D02*
X018622Y013224D01*
X018598Y013066D02*
X014478Y013066D01*
X014443Y012907D02*
X018634Y012907D01*
X018639Y012749D02*
X018748Y012749D01*
X018797Y012590D02*
X019598Y012590D01*
X019598Y012432D02*
X019309Y012432D01*
X019435Y012273D02*
X019598Y012273D01*
X019598Y012115D02*
X019478Y012115D01*
X019463Y011956D02*
X019598Y011956D01*
X019598Y011798D02*
X019378Y011798D01*
X019598Y011639D02*
X013748Y011639D01*
X013699Y011798D02*
X012878Y011798D01*
X012963Y011956D02*
X013613Y011956D01*
X013598Y012115D02*
X012978Y012115D01*
X013000Y012273D02*
X013642Y012273D01*
X012780Y012590D02*
X012297Y012590D01*
X012248Y012749D02*
X012139Y012749D01*
X012829Y012749D02*
X012938Y012749D01*
X012943Y012907D02*
X013318Y012907D01*
X013159Y013066D02*
X012978Y013066D01*
X012955Y013224D02*
X013001Y013224D01*
X014435Y012273D02*
X018577Y012273D01*
X018598Y012115D02*
X014478Y012115D01*
X014463Y011956D02*
X018613Y011956D01*
X018699Y011798D02*
X014378Y011798D01*
X014221Y011481D02*
X018855Y011481D01*
X018662Y011322D02*
X014414Y011322D01*
X014478Y011164D02*
X018598Y011164D01*
X018598Y011005D02*
X014478Y011005D01*
X014492Y010515D02*
X018939Y010515D01*
X018789Y010453D01*
X018665Y010329D01*
X018598Y010168D01*
X018598Y009992D01*
X018623Y009933D01*
X018460Y009770D01*
X014351Y009770D01*
X014411Y009831D01*
X014478Y009992D01*
X014478Y010168D01*
X014411Y010329D01*
X014351Y010390D01*
X014367Y010390D01*
X014478Y010501D01*
X014492Y010515D01*
X014370Y010371D02*
X018707Y010371D01*
X018617Y010213D02*
X014460Y010213D01*
X014478Y010054D02*
X018598Y010054D01*
X018585Y009896D02*
X014438Y009896D01*
X014439Y009262D02*
X018637Y009262D01*
X018647Y009420D02*
X018756Y009420D01*
X018806Y009579D02*
X019598Y009579D01*
X019598Y009737D02*
X019318Y009737D01*
X019438Y009896D02*
X019598Y009896D01*
X019598Y010054D02*
X019478Y010054D01*
X019460Y010213D02*
X019598Y010213D01*
X019598Y010371D02*
X019370Y010371D01*
X019598Y010530D02*
X019007Y010530D01*
X019242Y010688D02*
X019598Y010688D01*
X019598Y010847D02*
X019418Y010847D01*
X019478Y011005D02*
X019598Y011005D01*
X019598Y011164D02*
X019478Y011164D01*
X019414Y011322D02*
X019598Y011322D01*
X019598Y011481D02*
X019221Y011481D01*
X019329Y012749D02*
X019598Y012749D01*
X019598Y012907D02*
X019443Y012907D01*
X019478Y013066D02*
X019534Y013066D01*
X021242Y009896D02*
X021437Y009896D01*
X019598Y009420D02*
X019321Y009420D01*
X019439Y009262D02*
X019598Y009262D01*
X019598Y009103D02*
X019478Y009103D01*
X019458Y008945D02*
X019598Y008945D01*
X019222Y008628D02*
X018760Y008628D01*
X018710Y008786D02*
X014367Y008786D01*
X014458Y008945D02*
X018618Y008945D01*
X018598Y009103D02*
X014478Y009103D01*
X014438Y008265D02*
X018585Y008265D01*
X018623Y008227D01*
X018598Y008168D01*
X018598Y007992D01*
X018665Y007831D01*
X018789Y007707D01*
X018951Y007640D01*
X019126Y007640D01*
X019288Y007707D01*
X019348Y007768D01*
X019348Y007392D01*
X019288Y007453D01*
X019126Y007520D01*
X018951Y007520D01*
X018892Y007495D01*
X018742Y007645D01*
X014492Y007645D01*
X014367Y007770D01*
X014351Y007770D01*
X014411Y007831D01*
X014478Y007992D01*
X014478Y008168D01*
X014438Y008265D01*
X014478Y008152D02*
X018598Y008152D01*
X018598Y007994D02*
X014478Y007994D01*
X014413Y007835D02*
X018664Y007835D01*
X018863Y007677D02*
X014461Y007677D01*
X014464Y007201D02*
X018612Y007201D01*
X018598Y007043D02*
X014478Y007043D01*
X014503Y006884D02*
X018643Y006884D01*
X018771Y006726D02*
X014662Y006726D01*
X014728Y006567D02*
X019348Y006567D01*
X019332Y006409D02*
X019348Y006409D01*
X019348Y006726D02*
X019306Y006726D01*
X018745Y006409D02*
X014728Y006409D01*
X014728Y006250D02*
X018632Y006250D01*
X018598Y006092D02*
X014728Y006092D01*
X014728Y005933D02*
X018623Y005933D01*
X018722Y005775D02*
X014728Y005775D01*
X016033Y005458D02*
X016544Y005458D01*
X016606Y005520D02*
X016348Y005262D01*
X016348Y004898D01*
X016606Y004640D01*
X016971Y004640D01*
X017228Y004898D01*
X017228Y005262D01*
X016971Y005520D01*
X016606Y005520D01*
X016385Y005299D02*
X016192Y005299D01*
X016228Y005141D02*
X016348Y005141D01*
X016348Y004982D02*
X016228Y004982D01*
X016154Y004824D02*
X016423Y004824D01*
X016581Y004665D02*
X015996Y004665D01*
X015984Y004507D02*
X016593Y004507D01*
X016606Y004520D02*
X016348Y004262D01*
X016348Y003898D01*
X016606Y003640D01*
X016971Y003640D01*
X017228Y003898D01*
X017228Y004262D01*
X016971Y004520D01*
X016606Y004520D01*
X016434Y004348D02*
X016143Y004348D01*
X016228Y004190D02*
X016348Y004190D01*
X016348Y004031D02*
X016228Y004031D01*
X016203Y003873D02*
X016374Y003873D01*
X016532Y003714D02*
X016045Y003714D01*
X017045Y003714D02*
X017475Y003714D01*
X017317Y003873D02*
X017203Y003873D01*
X017228Y004031D02*
X017308Y004031D01*
X017308Y004100D02*
X017768Y004100D01*
X017768Y004560D01*
X017589Y004560D01*
X017308Y004279D01*
X017308Y004100D01*
X017308Y004190D02*
X017228Y004190D01*
X017143Y004348D02*
X017378Y004348D01*
X017536Y004507D02*
X016984Y004507D01*
X016996Y004665D02*
X017581Y004665D01*
X017606Y004640D02*
X017971Y004640D01*
X018228Y004898D01*
X018228Y005262D01*
X017971Y005520D01*
X017606Y005520D01*
X017348Y005262D01*
X017348Y004898D01*
X017606Y004640D01*
X017768Y004507D02*
X017808Y004507D01*
X017808Y004348D02*
X017768Y004348D01*
X017768Y004190D02*
X017808Y004190D01*
X017808Y004031D02*
X017768Y004031D01*
X017768Y003873D02*
X017808Y003873D01*
X017808Y003714D02*
X017768Y003714D01*
X017960Y003556D02*
X012283Y003556D01*
X012441Y003714D02*
X012532Y003714D01*
X013045Y003714D02*
X013532Y003714D01*
X013374Y003873D02*
X013203Y003873D01*
X013228Y004031D02*
X013348Y004031D01*
X013348Y004190D02*
X013228Y004190D01*
X013143Y004348D02*
X013434Y004348D01*
X011593Y004507D02*
X010984Y004507D01*
X010996Y004665D02*
X011581Y004665D01*
X011423Y004824D02*
X011154Y004824D01*
X011228Y004982D02*
X011348Y004982D01*
X011348Y005141D02*
X011228Y005141D01*
X011192Y005299D02*
X011385Y005299D01*
X010385Y005299D02*
X010192Y005299D01*
X010228Y005141D02*
X010348Y005141D01*
X010348Y004982D02*
X010228Y004982D01*
X010154Y004824D02*
X010423Y004824D01*
X010581Y004665D02*
X009996Y004665D01*
X009984Y004507D02*
X010593Y004507D01*
X010434Y004348D02*
X010143Y004348D01*
X010228Y004190D02*
X010348Y004190D01*
X010348Y004031D02*
X010228Y004031D01*
X010203Y003873D02*
X010374Y003873D01*
X011203Y003873D02*
X011374Y003873D01*
X011348Y004031D02*
X011228Y004031D01*
X011228Y004190D02*
X011348Y004190D01*
X011434Y004348D02*
X011143Y004348D01*
X009593Y004507D02*
X009043Y004507D01*
X009209Y004348D02*
X009434Y004348D01*
X009348Y004190D02*
X009241Y004190D01*
X009606Y004640D02*
X009356Y004890D01*
X008112Y004890D01*
X008024Y004802D01*
X007904Y004752D01*
X007773Y004752D01*
X007652Y004802D01*
X007560Y004894D01*
X007510Y005015D01*
X007510Y005145D01*
X007560Y005266D01*
X007652Y005358D01*
X007773Y005408D01*
X007904Y005408D01*
X008024Y005358D01*
X008112Y005270D01*
X009356Y005270D01*
X009476Y005390D01*
X007960Y005390D01*
X007848Y005501D01*
X007685Y005665D01*
X007626Y005640D01*
X007451Y005640D01*
X007392Y005665D01*
X007117Y005390D01*
X001460Y005390D01*
X001348Y005501D01*
X001185Y005665D01*
X001126Y005640D01*
X000951Y005640D01*
X000789Y005707D01*
X000665Y005831D01*
X000598Y005992D01*
X000598Y006168D01*
X000665Y006329D01*
X000789Y006453D01*
X000951Y006520D01*
X001126Y006520D01*
X001288Y006453D01*
X001411Y006329D01*
X001478Y006168D01*
X001444Y006250D02*
X005632Y006250D01*
X005643Y006884D02*
X001503Y006884D01*
X001478Y007043D02*
X005598Y007043D01*
X005612Y007201D02*
X001464Y007201D01*
X001381Y007360D02*
X005696Y007360D01*
X005664Y007835D02*
X001552Y007835D01*
X001478Y007994D02*
X005598Y007994D01*
X005598Y008152D02*
X001478Y008152D01*
X001419Y008311D02*
X005658Y008311D01*
X005710Y008786D02*
X001601Y008786D01*
X001458Y008945D02*
X005618Y008945D01*
X005598Y009103D02*
X001478Y009103D01*
X001439Y009262D02*
X005637Y009262D01*
X005756Y009420D02*
X001321Y009420D01*
X001318Y009737D02*
X005759Y009737D01*
X005638Y009896D02*
X001438Y009896D01*
X001478Y010054D02*
X005598Y010054D01*
X005617Y010213D02*
X001460Y010213D01*
X001598Y010371D02*
X005707Y010371D01*
X005659Y010847D02*
X001418Y010847D01*
X001378Y010688D02*
X001242Y010688D01*
X001219Y010530D02*
X000521Y010530D01*
X000521Y010688D02*
X000835Y010688D01*
X000659Y010847D02*
X000521Y010847D01*
X000521Y011005D02*
X000598Y011005D01*
X000598Y011164D02*
X000521Y011164D01*
X000521Y011322D02*
X000662Y011322D01*
X000521Y011481D02*
X000855Y011481D01*
X001478Y011164D02*
X005598Y011164D01*
X005598Y011005D02*
X001478Y011005D01*
X001549Y011322D02*
X005662Y011322D01*
X007954Y011227D02*
X008117Y011390D01*
X012226Y011390D01*
X012165Y011329D01*
X012098Y011168D01*
X012098Y010992D01*
X012123Y010933D01*
X012085Y010895D01*
X007938Y010895D01*
X007978Y010992D01*
X007978Y011168D01*
X007954Y011227D01*
X007978Y011164D02*
X012098Y011164D01*
X012098Y011005D02*
X007978Y011005D01*
X008049Y011322D02*
X012162Y011322D01*
X012139Y010265D02*
X012098Y010168D01*
X012098Y009992D01*
X012123Y009933D01*
X012085Y009895D01*
X008460Y009895D01*
X008348Y009784D01*
X008335Y009770D01*
X007851Y009770D01*
X007911Y009831D01*
X007978Y009992D01*
X007978Y010168D01*
X007954Y010227D01*
X007992Y010265D01*
X012139Y010265D01*
X012117Y010213D02*
X007960Y010213D01*
X007978Y010054D02*
X012098Y010054D01*
X012085Y009896D02*
X007938Y009896D01*
X006430Y009420D02*
X006321Y009420D01*
X006271Y009579D02*
X000521Y009579D01*
X000521Y009737D02*
X000759Y009737D01*
X000638Y009896D02*
X000521Y009896D01*
X000521Y010054D02*
X000598Y010054D01*
X000617Y010213D02*
X000521Y010213D01*
X000521Y010371D02*
X000707Y010371D01*
X000756Y009420D02*
X000521Y009420D01*
X000521Y009262D02*
X000637Y009262D01*
X000598Y009103D02*
X000521Y009103D01*
X000521Y008945D02*
X000618Y008945D01*
X000710Y008786D02*
X000521Y008786D01*
X000521Y008628D02*
X001222Y008628D01*
X001249Y008469D02*
X001381Y008469D01*
X000828Y008469D02*
X000521Y008469D01*
X000521Y008311D02*
X000658Y008311D01*
X000598Y008152D02*
X000521Y008152D01*
X000521Y007994D02*
X000598Y007994D01*
X000664Y007835D02*
X000521Y007835D01*
X000521Y007677D02*
X000863Y007677D01*
X000946Y007518D02*
X000521Y007518D01*
X000521Y007360D02*
X000696Y007360D01*
X000612Y007201D02*
X000521Y007201D01*
X000521Y007043D02*
X000598Y007043D01*
X000643Y006884D02*
X000521Y006884D01*
X000521Y006726D02*
X000771Y006726D01*
X000521Y006567D02*
X001283Y006567D01*
X001332Y006409D02*
X001441Y006409D01*
X000745Y006409D02*
X000521Y006409D01*
X000521Y006250D02*
X000632Y006250D01*
X000598Y006092D02*
X000521Y006092D01*
X000521Y005933D02*
X000623Y005933D01*
X000722Y005775D02*
X000521Y005775D01*
X000521Y005616D02*
X001234Y005616D01*
X001392Y005458D02*
X000521Y005458D01*
X000521Y005299D02*
X007593Y005299D01*
X007510Y005141D02*
X000521Y005141D01*
X000521Y004982D02*
X007524Y004982D01*
X007631Y004824D02*
X000521Y004824D01*
X001131Y007518D02*
X001332Y007518D01*
X006444Y006250D02*
X007132Y006250D01*
X007165Y006329D02*
X007098Y006168D01*
X007098Y005992D01*
X007123Y005933D01*
X006960Y005770D01*
X006351Y005770D01*
X006355Y005775D02*
X006964Y005775D01*
X007123Y005933D02*
X006454Y005933D01*
X006478Y006092D02*
X007098Y006092D01*
X007165Y006329D02*
X007289Y006453D01*
X007451Y006520D01*
X007626Y006520D01*
X007788Y006453D01*
X007911Y006329D01*
X007978Y006168D01*
X007944Y006250D02*
X012132Y006250D01*
X012226Y006770D02*
X008117Y006770D01*
X007954Y006933D01*
X007978Y006992D01*
X007978Y007168D01*
X007938Y007265D01*
X012085Y007265D01*
X012123Y007227D01*
X012098Y007168D01*
X012098Y006992D01*
X012165Y006831D01*
X012226Y006770D01*
X012143Y006884D02*
X008003Y006884D01*
X007978Y007043D02*
X012098Y007043D01*
X012112Y007201D02*
X007964Y007201D01*
X007992Y007895D02*
X007954Y007933D01*
X007978Y007992D01*
X007978Y008168D01*
X007938Y008265D01*
X012085Y008265D01*
X012123Y008227D01*
X012098Y008168D01*
X012098Y007992D01*
X012139Y007895D01*
X007992Y007895D01*
X007978Y007994D02*
X012098Y007994D01*
X012098Y008152D02*
X007978Y008152D01*
X008522Y008895D02*
X008599Y008927D01*
X008691Y009019D01*
X008741Y009140D01*
X008741Y009264D01*
X008742Y009265D01*
X012085Y009265D01*
X012123Y009227D01*
X012098Y009168D01*
X012098Y008992D01*
X012139Y008895D01*
X008522Y008895D01*
X008617Y008945D02*
X012118Y008945D01*
X012098Y009103D02*
X008726Y009103D01*
X008741Y009262D02*
X012088Y009262D01*
X007137Y009262D02*
X006439Y009262D01*
X006478Y009103D02*
X007098Y009103D01*
X007118Y008945D02*
X006458Y008945D01*
X007294Y006567D02*
X007783Y006567D01*
X007832Y006409D02*
X007941Y006409D01*
X007245Y006409D02*
X007136Y006409D01*
X007343Y005616D02*
X007734Y005616D01*
X007892Y005458D02*
X007185Y005458D01*
X008083Y005299D02*
X009385Y005299D01*
X009423Y004824D02*
X008046Y004824D01*
X012124Y003397D02*
X018009Y003397D01*
X018041Y004507D02*
X018098Y004507D01*
X017996Y004665D02*
X018230Y004665D01*
X018154Y004824D02*
X018423Y004824D01*
X018348Y004982D02*
X018228Y004982D01*
X018228Y005141D02*
X018348Y005141D01*
X018385Y005299D02*
X018192Y005299D01*
X018033Y005458D02*
X018544Y005458D01*
X017544Y005458D02*
X017033Y005458D01*
X017192Y005299D02*
X017385Y005299D01*
X017348Y005141D02*
X017228Y005141D01*
X017228Y004982D02*
X017348Y004982D01*
X017423Y004824D02*
X017154Y004824D01*
X018869Y007518D02*
X018946Y007518D01*
X019131Y007518D02*
X019348Y007518D01*
X019348Y007677D02*
X019214Y007677D01*
X019978Y007994D02*
X021253Y007994D01*
X021136Y008152D02*
X019978Y008152D01*
X019978Y008311D02*
X021098Y008311D01*
X021120Y008469D02*
X019978Y008469D01*
X019348Y008469D02*
X019249Y008469D01*
X006482Y018296D02*
X000521Y018296D01*
X000521Y018455D02*
X006208Y018455D01*
X006040Y018613D02*
X000521Y018613D01*
X000521Y018772D02*
X005900Y018772D01*
X005809Y018930D02*
X000521Y018930D01*
X000521Y019089D02*
X005731Y019089D01*
X005689Y019247D02*
X000521Y019247D01*
X000521Y019406D02*
X005648Y019406D01*
X005648Y019564D02*
X000521Y019564D01*
X000521Y019723D02*
X005648Y019723D01*
X005680Y019881D02*
X000521Y019881D01*
X000521Y020040D02*
X005722Y020040D01*
X005790Y020198D02*
X000521Y020198D01*
X000521Y020357D02*
X005882Y020357D01*
X006008Y020515D02*
X000521Y020515D01*
X000521Y020674D02*
X006166Y020674D01*
X006427Y020832D02*
X000521Y020832D01*
X044246Y004665D02*
X044348Y004665D01*
X044348Y004507D02*
X044234Y004507D01*
X044393Y004348D02*
X044502Y004348D01*
X044460Y004390D02*
X044460Y004390D01*
D22*
X035663Y019830D02*
X035098Y019830D01*
D23*
X036938Y022380D02*
X048363Y022380D01*
X048788Y021955D01*
M02*
