G75*
%MOIN*%
%OFA0B0*%
%FSLAX24Y24*%
%IPPOS*%
%LPD*%
%AMOC8*
5,1,8,0,0,1.08239X$1,22.5*
%
%ADD10C,0.0005*%
%ADD11C,0.0000*%
%ADD12C,0.0060*%
%ADD13C,0.0040*%
%ADD14C,0.0050*%
%ADD15C,0.0080*%
%ADD16C,0.0236*%
%ADD17C,0.0020*%
%ADD18R,0.0300X0.0340*%
%ADD19C,0.0059*%
%ADD20R,0.0079X0.0020*%
%ADD21R,0.0098X0.0020*%
%ADD22R,0.0059X0.0020*%
%ADD23R,0.0118X0.0020*%
%ADD24R,0.0157X0.0020*%
%ADD25R,0.0197X0.0020*%
%ADD26R,0.0138X0.0020*%
%ADD27R,0.0217X0.0020*%
%ADD28R,0.0020X0.0020*%
%ADD29R,0.0354X0.0020*%
%ADD30R,0.0571X0.0020*%
%ADD31R,0.0531X0.0020*%
%ADD32R,0.0492X0.0020*%
%ADD33R,0.0039X0.0020*%
%ADD34R,0.0630X0.0020*%
%ADD35R,0.0768X0.0020*%
%ADD36R,0.0886X0.0020*%
%ADD37R,0.0394X0.0020*%
%ADD38R,0.0256X0.0020*%
%ADD39R,0.0177X0.0020*%
%ADD40R,0.0236X0.0020*%
%ADD41R,0.0295X0.0020*%
%ADD42R,0.0374X0.0020*%
%ADD43R,0.0413X0.0020*%
%ADD44R,0.0276X0.0020*%
%ADD45R,0.0472X0.0020*%
%ADD46R,0.0728X0.0020*%
%ADD47R,0.0610X0.0020*%
%ADD48R,0.0335X0.0020*%
D10*
X000288Y003080D02*
X000288Y016080D01*
X002663Y016080D01*
X002663Y016830D01*
X000288Y016830D01*
X000288Y019080D01*
X000288Y026075D01*
X061030Y026075D01*
X061030Y019080D01*
X061030Y016830D01*
X058663Y016830D01*
X058663Y016080D01*
X061030Y016080D01*
X061030Y013830D01*
X061030Y003080D01*
X000288Y003080D01*
X004663Y016080D02*
X020663Y016080D01*
X020663Y016830D01*
X004663Y016830D01*
X004663Y016080D01*
X022663Y016080D02*
X038663Y016080D01*
X038663Y016830D01*
X022663Y016830D01*
X022663Y016080D01*
X040663Y016080D02*
X040663Y016830D01*
X056663Y016830D01*
X056663Y016080D01*
X040663Y016080D01*
D11*
X040351Y016075D02*
X040353Y016094D01*
X040358Y016113D01*
X040368Y016129D01*
X040380Y016144D01*
X040395Y016156D01*
X040411Y016166D01*
X040430Y016171D01*
X040449Y016173D01*
X040468Y016171D01*
X040487Y016166D01*
X040503Y016156D01*
X040518Y016144D01*
X040530Y016129D01*
X040540Y016113D01*
X040545Y016094D01*
X040547Y016075D01*
X040545Y016056D01*
X040540Y016037D01*
X040530Y016021D01*
X040518Y016006D01*
X040503Y015994D01*
X040487Y015984D01*
X040468Y015979D01*
X040449Y015977D01*
X040430Y015979D01*
X040411Y015984D01*
X040395Y015994D01*
X040380Y016006D01*
X040368Y016021D01*
X040358Y016037D01*
X040353Y016056D01*
X040351Y016075D01*
X039957Y016075D02*
X039959Y016094D01*
X039964Y016113D01*
X039974Y016129D01*
X039986Y016144D01*
X040001Y016156D01*
X040017Y016166D01*
X040036Y016171D01*
X040055Y016173D01*
X040074Y016171D01*
X040093Y016166D01*
X040109Y016156D01*
X040124Y016144D01*
X040136Y016129D01*
X040146Y016113D01*
X040151Y016094D01*
X040153Y016075D01*
X040151Y016056D01*
X040146Y016037D01*
X040136Y016021D01*
X040124Y016006D01*
X040109Y015994D01*
X040093Y015984D01*
X040074Y015979D01*
X040055Y015977D01*
X040036Y015979D01*
X040017Y015984D01*
X040001Y015994D01*
X039986Y016006D01*
X039974Y016021D01*
X039964Y016037D01*
X039959Y016056D01*
X039957Y016075D01*
X039563Y016075D02*
X039565Y016094D01*
X039570Y016113D01*
X039580Y016129D01*
X039592Y016144D01*
X039607Y016156D01*
X039623Y016166D01*
X039642Y016171D01*
X039661Y016173D01*
X039680Y016171D01*
X039699Y016166D01*
X039715Y016156D01*
X039730Y016144D01*
X039742Y016129D01*
X039752Y016113D01*
X039757Y016094D01*
X039759Y016075D01*
X039757Y016056D01*
X039752Y016037D01*
X039742Y016021D01*
X039730Y016006D01*
X039715Y015994D01*
X039699Y015984D01*
X039680Y015979D01*
X039661Y015977D01*
X039642Y015979D01*
X039623Y015984D01*
X039607Y015994D01*
X039592Y016006D01*
X039580Y016021D01*
X039570Y016037D01*
X039565Y016056D01*
X039563Y016075D01*
X039170Y016075D02*
X039172Y016094D01*
X039177Y016113D01*
X039187Y016129D01*
X039199Y016144D01*
X039214Y016156D01*
X039230Y016166D01*
X039249Y016171D01*
X039268Y016173D01*
X039287Y016171D01*
X039306Y016166D01*
X039322Y016156D01*
X039337Y016144D01*
X039349Y016129D01*
X039359Y016113D01*
X039364Y016094D01*
X039366Y016075D01*
X039364Y016056D01*
X039359Y016037D01*
X039349Y016021D01*
X039337Y016006D01*
X039322Y015994D01*
X039306Y015984D01*
X039287Y015979D01*
X039268Y015977D01*
X039249Y015979D01*
X039230Y015984D01*
X039214Y015994D01*
X039199Y016006D01*
X039187Y016021D01*
X039177Y016037D01*
X039172Y016056D01*
X039170Y016075D01*
X038776Y016075D02*
X038778Y016094D01*
X038783Y016113D01*
X038793Y016129D01*
X038805Y016144D01*
X038820Y016156D01*
X038836Y016166D01*
X038855Y016171D01*
X038874Y016173D01*
X038893Y016171D01*
X038912Y016166D01*
X038928Y016156D01*
X038943Y016144D01*
X038955Y016129D01*
X038965Y016113D01*
X038970Y016094D01*
X038972Y016075D01*
X038970Y016056D01*
X038965Y016037D01*
X038955Y016021D01*
X038943Y016006D01*
X038928Y015994D01*
X038912Y015984D01*
X038893Y015979D01*
X038874Y015977D01*
X038855Y015979D01*
X038836Y015984D01*
X038820Y015994D01*
X038805Y016006D01*
X038793Y016021D01*
X038783Y016037D01*
X038778Y016056D01*
X038776Y016075D01*
X038663Y016080D02*
X036288Y016080D01*
X038776Y016825D02*
X038778Y016844D01*
X038783Y016863D01*
X038793Y016879D01*
X038805Y016894D01*
X038820Y016906D01*
X038836Y016916D01*
X038855Y016921D01*
X038874Y016923D01*
X038893Y016921D01*
X038912Y016916D01*
X038928Y016906D01*
X038943Y016894D01*
X038955Y016879D01*
X038965Y016863D01*
X038970Y016844D01*
X038972Y016825D01*
X038970Y016806D01*
X038965Y016787D01*
X038955Y016771D01*
X038943Y016756D01*
X038928Y016744D01*
X038912Y016734D01*
X038893Y016729D01*
X038874Y016727D01*
X038855Y016729D01*
X038836Y016734D01*
X038820Y016744D01*
X038805Y016756D01*
X038793Y016771D01*
X038783Y016787D01*
X038778Y016806D01*
X038776Y016825D01*
X039170Y016825D02*
X039172Y016844D01*
X039177Y016863D01*
X039187Y016879D01*
X039199Y016894D01*
X039214Y016906D01*
X039230Y016916D01*
X039249Y016921D01*
X039268Y016923D01*
X039287Y016921D01*
X039306Y016916D01*
X039322Y016906D01*
X039337Y016894D01*
X039349Y016879D01*
X039359Y016863D01*
X039364Y016844D01*
X039366Y016825D01*
X039364Y016806D01*
X039359Y016787D01*
X039349Y016771D01*
X039337Y016756D01*
X039322Y016744D01*
X039306Y016734D01*
X039287Y016729D01*
X039268Y016727D01*
X039249Y016729D01*
X039230Y016734D01*
X039214Y016744D01*
X039199Y016756D01*
X039187Y016771D01*
X039177Y016787D01*
X039172Y016806D01*
X039170Y016825D01*
X039563Y016825D02*
X039565Y016844D01*
X039570Y016863D01*
X039580Y016879D01*
X039592Y016894D01*
X039607Y016906D01*
X039623Y016916D01*
X039642Y016921D01*
X039661Y016923D01*
X039680Y016921D01*
X039699Y016916D01*
X039715Y016906D01*
X039730Y016894D01*
X039742Y016879D01*
X039752Y016863D01*
X039757Y016844D01*
X039759Y016825D01*
X039757Y016806D01*
X039752Y016787D01*
X039742Y016771D01*
X039730Y016756D01*
X039715Y016744D01*
X039699Y016734D01*
X039680Y016729D01*
X039661Y016727D01*
X039642Y016729D01*
X039623Y016734D01*
X039607Y016744D01*
X039592Y016756D01*
X039580Y016771D01*
X039570Y016787D01*
X039565Y016806D01*
X039563Y016825D01*
X039957Y016825D02*
X039959Y016844D01*
X039964Y016863D01*
X039974Y016879D01*
X039986Y016894D01*
X040001Y016906D01*
X040017Y016916D01*
X040036Y016921D01*
X040055Y016923D01*
X040074Y016921D01*
X040093Y016916D01*
X040109Y016906D01*
X040124Y016894D01*
X040136Y016879D01*
X040146Y016863D01*
X040151Y016844D01*
X040153Y016825D01*
X040151Y016806D01*
X040146Y016787D01*
X040136Y016771D01*
X040124Y016756D01*
X040109Y016744D01*
X040093Y016734D01*
X040074Y016729D01*
X040055Y016727D01*
X040036Y016729D01*
X040017Y016734D01*
X040001Y016744D01*
X039986Y016756D01*
X039974Y016771D01*
X039964Y016787D01*
X039959Y016806D01*
X039957Y016825D01*
X040351Y016825D02*
X040353Y016844D01*
X040358Y016863D01*
X040368Y016879D01*
X040380Y016894D01*
X040395Y016906D01*
X040411Y016916D01*
X040430Y016921D01*
X040449Y016923D01*
X040468Y016921D01*
X040487Y016916D01*
X040503Y016906D01*
X040518Y016894D01*
X040530Y016879D01*
X040540Y016863D01*
X040545Y016844D01*
X040547Y016825D01*
X040545Y016806D01*
X040540Y016787D01*
X040530Y016771D01*
X040518Y016756D01*
X040503Y016744D01*
X040487Y016734D01*
X040468Y016729D01*
X040449Y016727D01*
X040430Y016729D01*
X040411Y016734D01*
X040395Y016744D01*
X040380Y016756D01*
X040368Y016771D01*
X040358Y016787D01*
X040353Y016806D01*
X040351Y016825D01*
X056780Y016835D02*
X056782Y016854D01*
X056787Y016873D01*
X056797Y016889D01*
X056809Y016904D01*
X056824Y016916D01*
X056840Y016926D01*
X056859Y016931D01*
X056878Y016933D01*
X056897Y016931D01*
X056916Y016926D01*
X056932Y016916D01*
X056947Y016904D01*
X056959Y016889D01*
X056969Y016873D01*
X056974Y016854D01*
X056976Y016835D01*
X056974Y016816D01*
X056969Y016797D01*
X056959Y016781D01*
X056947Y016766D01*
X056932Y016754D01*
X056916Y016744D01*
X056897Y016739D01*
X056878Y016737D01*
X056859Y016739D01*
X056840Y016744D01*
X056824Y016754D01*
X056809Y016766D01*
X056797Y016781D01*
X056787Y016797D01*
X056782Y016816D01*
X056780Y016835D01*
X057174Y016835D02*
X057176Y016854D01*
X057181Y016873D01*
X057191Y016889D01*
X057203Y016904D01*
X057218Y016916D01*
X057234Y016926D01*
X057253Y016931D01*
X057272Y016933D01*
X057291Y016931D01*
X057310Y016926D01*
X057326Y016916D01*
X057341Y016904D01*
X057353Y016889D01*
X057363Y016873D01*
X057368Y016854D01*
X057370Y016835D01*
X057368Y016816D01*
X057363Y016797D01*
X057353Y016781D01*
X057341Y016766D01*
X057326Y016754D01*
X057310Y016744D01*
X057291Y016739D01*
X057272Y016737D01*
X057253Y016739D01*
X057234Y016744D01*
X057218Y016754D01*
X057203Y016766D01*
X057191Y016781D01*
X057181Y016797D01*
X057176Y016816D01*
X057174Y016835D01*
X057567Y016835D02*
X057569Y016854D01*
X057574Y016873D01*
X057584Y016889D01*
X057596Y016904D01*
X057611Y016916D01*
X057627Y016926D01*
X057646Y016931D01*
X057665Y016933D01*
X057684Y016931D01*
X057703Y016926D01*
X057719Y016916D01*
X057734Y016904D01*
X057746Y016889D01*
X057756Y016873D01*
X057761Y016854D01*
X057763Y016835D01*
X057761Y016816D01*
X057756Y016797D01*
X057746Y016781D01*
X057734Y016766D01*
X057719Y016754D01*
X057703Y016744D01*
X057684Y016739D01*
X057665Y016737D01*
X057646Y016739D01*
X057627Y016744D01*
X057611Y016754D01*
X057596Y016766D01*
X057584Y016781D01*
X057574Y016797D01*
X057569Y016816D01*
X057567Y016835D01*
X057961Y016835D02*
X057963Y016854D01*
X057968Y016873D01*
X057978Y016889D01*
X057990Y016904D01*
X058005Y016916D01*
X058021Y016926D01*
X058040Y016931D01*
X058059Y016933D01*
X058078Y016931D01*
X058097Y016926D01*
X058113Y016916D01*
X058128Y016904D01*
X058140Y016889D01*
X058150Y016873D01*
X058155Y016854D01*
X058157Y016835D01*
X058155Y016816D01*
X058150Y016797D01*
X058140Y016781D01*
X058128Y016766D01*
X058113Y016754D01*
X058097Y016744D01*
X058078Y016739D01*
X058059Y016737D01*
X058040Y016739D01*
X058021Y016744D01*
X058005Y016754D01*
X057990Y016766D01*
X057978Y016781D01*
X057968Y016797D01*
X057963Y016816D01*
X057961Y016835D01*
X058355Y016835D02*
X058357Y016854D01*
X058362Y016873D01*
X058372Y016889D01*
X058384Y016904D01*
X058399Y016916D01*
X058415Y016926D01*
X058434Y016931D01*
X058453Y016933D01*
X058472Y016931D01*
X058491Y016926D01*
X058507Y016916D01*
X058522Y016904D01*
X058534Y016889D01*
X058544Y016873D01*
X058549Y016854D01*
X058551Y016835D01*
X058549Y016816D01*
X058544Y016797D01*
X058534Y016781D01*
X058522Y016766D01*
X058507Y016754D01*
X058491Y016744D01*
X058472Y016739D01*
X058453Y016737D01*
X058434Y016739D01*
X058415Y016744D01*
X058399Y016754D01*
X058384Y016766D01*
X058372Y016781D01*
X058362Y016797D01*
X058357Y016816D01*
X058355Y016835D01*
X058355Y016085D02*
X058357Y016104D01*
X058362Y016123D01*
X058372Y016139D01*
X058384Y016154D01*
X058399Y016166D01*
X058415Y016176D01*
X058434Y016181D01*
X058453Y016183D01*
X058472Y016181D01*
X058491Y016176D01*
X058507Y016166D01*
X058522Y016154D01*
X058534Y016139D01*
X058544Y016123D01*
X058549Y016104D01*
X058551Y016085D01*
X058549Y016066D01*
X058544Y016047D01*
X058534Y016031D01*
X058522Y016016D01*
X058507Y016004D01*
X058491Y015994D01*
X058472Y015989D01*
X058453Y015987D01*
X058434Y015989D01*
X058415Y015994D01*
X058399Y016004D01*
X058384Y016016D01*
X058372Y016031D01*
X058362Y016047D01*
X058357Y016066D01*
X058355Y016085D01*
X057961Y016085D02*
X057963Y016104D01*
X057968Y016123D01*
X057978Y016139D01*
X057990Y016154D01*
X058005Y016166D01*
X058021Y016176D01*
X058040Y016181D01*
X058059Y016183D01*
X058078Y016181D01*
X058097Y016176D01*
X058113Y016166D01*
X058128Y016154D01*
X058140Y016139D01*
X058150Y016123D01*
X058155Y016104D01*
X058157Y016085D01*
X058155Y016066D01*
X058150Y016047D01*
X058140Y016031D01*
X058128Y016016D01*
X058113Y016004D01*
X058097Y015994D01*
X058078Y015989D01*
X058059Y015987D01*
X058040Y015989D01*
X058021Y015994D01*
X058005Y016004D01*
X057990Y016016D01*
X057978Y016031D01*
X057968Y016047D01*
X057963Y016066D01*
X057961Y016085D01*
X057567Y016085D02*
X057569Y016104D01*
X057574Y016123D01*
X057584Y016139D01*
X057596Y016154D01*
X057611Y016166D01*
X057627Y016176D01*
X057646Y016181D01*
X057665Y016183D01*
X057684Y016181D01*
X057703Y016176D01*
X057719Y016166D01*
X057734Y016154D01*
X057746Y016139D01*
X057756Y016123D01*
X057761Y016104D01*
X057763Y016085D01*
X057761Y016066D01*
X057756Y016047D01*
X057746Y016031D01*
X057734Y016016D01*
X057719Y016004D01*
X057703Y015994D01*
X057684Y015989D01*
X057665Y015987D01*
X057646Y015989D01*
X057627Y015994D01*
X057611Y016004D01*
X057596Y016016D01*
X057584Y016031D01*
X057574Y016047D01*
X057569Y016066D01*
X057567Y016085D01*
X057174Y016085D02*
X057176Y016104D01*
X057181Y016123D01*
X057191Y016139D01*
X057203Y016154D01*
X057218Y016166D01*
X057234Y016176D01*
X057253Y016181D01*
X057272Y016183D01*
X057291Y016181D01*
X057310Y016176D01*
X057326Y016166D01*
X057341Y016154D01*
X057353Y016139D01*
X057363Y016123D01*
X057368Y016104D01*
X057370Y016085D01*
X057368Y016066D01*
X057363Y016047D01*
X057353Y016031D01*
X057341Y016016D01*
X057326Y016004D01*
X057310Y015994D01*
X057291Y015989D01*
X057272Y015987D01*
X057253Y015989D01*
X057234Y015994D01*
X057218Y016004D01*
X057203Y016016D01*
X057191Y016031D01*
X057181Y016047D01*
X057176Y016066D01*
X057174Y016085D01*
X056780Y016085D02*
X056782Y016104D01*
X056787Y016123D01*
X056797Y016139D01*
X056809Y016154D01*
X056824Y016166D01*
X056840Y016176D01*
X056859Y016181D01*
X056878Y016183D01*
X056897Y016181D01*
X056916Y016176D01*
X056932Y016166D01*
X056947Y016154D01*
X056959Y016139D01*
X056969Y016123D01*
X056974Y016104D01*
X056976Y016085D01*
X056974Y016066D01*
X056969Y016047D01*
X056959Y016031D01*
X056947Y016016D01*
X056932Y016004D01*
X056916Y015994D01*
X056897Y015989D01*
X056878Y015987D01*
X056859Y015989D01*
X056840Y015994D01*
X056824Y016004D01*
X056809Y016016D01*
X056797Y016031D01*
X056787Y016047D01*
X056782Y016066D01*
X056780Y016085D01*
X061030Y016080D02*
X061030Y013830D01*
X022351Y016075D02*
X022353Y016094D01*
X022358Y016113D01*
X022368Y016129D01*
X022380Y016144D01*
X022395Y016156D01*
X022411Y016166D01*
X022430Y016171D01*
X022449Y016173D01*
X022468Y016171D01*
X022487Y016166D01*
X022503Y016156D01*
X022518Y016144D01*
X022530Y016129D01*
X022540Y016113D01*
X022545Y016094D01*
X022547Y016075D01*
X022545Y016056D01*
X022540Y016037D01*
X022530Y016021D01*
X022518Y016006D01*
X022503Y015994D01*
X022487Y015984D01*
X022468Y015979D01*
X022449Y015977D01*
X022430Y015979D01*
X022411Y015984D01*
X022395Y015994D01*
X022380Y016006D01*
X022368Y016021D01*
X022358Y016037D01*
X022353Y016056D01*
X022351Y016075D01*
X021957Y016075D02*
X021959Y016094D01*
X021964Y016113D01*
X021974Y016129D01*
X021986Y016144D01*
X022001Y016156D01*
X022017Y016166D01*
X022036Y016171D01*
X022055Y016173D01*
X022074Y016171D01*
X022093Y016166D01*
X022109Y016156D01*
X022124Y016144D01*
X022136Y016129D01*
X022146Y016113D01*
X022151Y016094D01*
X022153Y016075D01*
X022151Y016056D01*
X022146Y016037D01*
X022136Y016021D01*
X022124Y016006D01*
X022109Y015994D01*
X022093Y015984D01*
X022074Y015979D01*
X022055Y015977D01*
X022036Y015979D01*
X022017Y015984D01*
X022001Y015994D01*
X021986Y016006D01*
X021974Y016021D01*
X021964Y016037D01*
X021959Y016056D01*
X021957Y016075D01*
X021563Y016075D02*
X021565Y016094D01*
X021570Y016113D01*
X021580Y016129D01*
X021592Y016144D01*
X021607Y016156D01*
X021623Y016166D01*
X021642Y016171D01*
X021661Y016173D01*
X021680Y016171D01*
X021699Y016166D01*
X021715Y016156D01*
X021730Y016144D01*
X021742Y016129D01*
X021752Y016113D01*
X021757Y016094D01*
X021759Y016075D01*
X021757Y016056D01*
X021752Y016037D01*
X021742Y016021D01*
X021730Y016006D01*
X021715Y015994D01*
X021699Y015984D01*
X021680Y015979D01*
X021661Y015977D01*
X021642Y015979D01*
X021623Y015984D01*
X021607Y015994D01*
X021592Y016006D01*
X021580Y016021D01*
X021570Y016037D01*
X021565Y016056D01*
X021563Y016075D01*
X021170Y016075D02*
X021172Y016094D01*
X021177Y016113D01*
X021187Y016129D01*
X021199Y016144D01*
X021214Y016156D01*
X021230Y016166D01*
X021249Y016171D01*
X021268Y016173D01*
X021287Y016171D01*
X021306Y016166D01*
X021322Y016156D01*
X021337Y016144D01*
X021349Y016129D01*
X021359Y016113D01*
X021364Y016094D01*
X021366Y016075D01*
X021364Y016056D01*
X021359Y016037D01*
X021349Y016021D01*
X021337Y016006D01*
X021322Y015994D01*
X021306Y015984D01*
X021287Y015979D01*
X021268Y015977D01*
X021249Y015979D01*
X021230Y015984D01*
X021214Y015994D01*
X021199Y016006D01*
X021187Y016021D01*
X021177Y016037D01*
X021172Y016056D01*
X021170Y016075D01*
X020776Y016075D02*
X020778Y016094D01*
X020783Y016113D01*
X020793Y016129D01*
X020805Y016144D01*
X020820Y016156D01*
X020836Y016166D01*
X020855Y016171D01*
X020874Y016173D01*
X020893Y016171D01*
X020912Y016166D01*
X020928Y016156D01*
X020943Y016144D01*
X020955Y016129D01*
X020965Y016113D01*
X020970Y016094D01*
X020972Y016075D01*
X020970Y016056D01*
X020965Y016037D01*
X020955Y016021D01*
X020943Y016006D01*
X020928Y015994D01*
X020912Y015984D01*
X020893Y015979D01*
X020874Y015977D01*
X020855Y015979D01*
X020836Y015984D01*
X020820Y015994D01*
X020805Y016006D01*
X020793Y016021D01*
X020783Y016037D01*
X020778Y016056D01*
X020776Y016075D01*
X020776Y016825D02*
X020778Y016844D01*
X020783Y016863D01*
X020793Y016879D01*
X020805Y016894D01*
X020820Y016906D01*
X020836Y016916D01*
X020855Y016921D01*
X020874Y016923D01*
X020893Y016921D01*
X020912Y016916D01*
X020928Y016906D01*
X020943Y016894D01*
X020955Y016879D01*
X020965Y016863D01*
X020970Y016844D01*
X020972Y016825D01*
X020970Y016806D01*
X020965Y016787D01*
X020955Y016771D01*
X020943Y016756D01*
X020928Y016744D01*
X020912Y016734D01*
X020893Y016729D01*
X020874Y016727D01*
X020855Y016729D01*
X020836Y016734D01*
X020820Y016744D01*
X020805Y016756D01*
X020793Y016771D01*
X020783Y016787D01*
X020778Y016806D01*
X020776Y016825D01*
X021170Y016825D02*
X021172Y016844D01*
X021177Y016863D01*
X021187Y016879D01*
X021199Y016894D01*
X021214Y016906D01*
X021230Y016916D01*
X021249Y016921D01*
X021268Y016923D01*
X021287Y016921D01*
X021306Y016916D01*
X021322Y016906D01*
X021337Y016894D01*
X021349Y016879D01*
X021359Y016863D01*
X021364Y016844D01*
X021366Y016825D01*
X021364Y016806D01*
X021359Y016787D01*
X021349Y016771D01*
X021337Y016756D01*
X021322Y016744D01*
X021306Y016734D01*
X021287Y016729D01*
X021268Y016727D01*
X021249Y016729D01*
X021230Y016734D01*
X021214Y016744D01*
X021199Y016756D01*
X021187Y016771D01*
X021177Y016787D01*
X021172Y016806D01*
X021170Y016825D01*
X021563Y016825D02*
X021565Y016844D01*
X021570Y016863D01*
X021580Y016879D01*
X021592Y016894D01*
X021607Y016906D01*
X021623Y016916D01*
X021642Y016921D01*
X021661Y016923D01*
X021680Y016921D01*
X021699Y016916D01*
X021715Y016906D01*
X021730Y016894D01*
X021742Y016879D01*
X021752Y016863D01*
X021757Y016844D01*
X021759Y016825D01*
X021757Y016806D01*
X021752Y016787D01*
X021742Y016771D01*
X021730Y016756D01*
X021715Y016744D01*
X021699Y016734D01*
X021680Y016729D01*
X021661Y016727D01*
X021642Y016729D01*
X021623Y016734D01*
X021607Y016744D01*
X021592Y016756D01*
X021580Y016771D01*
X021570Y016787D01*
X021565Y016806D01*
X021563Y016825D01*
X021957Y016825D02*
X021959Y016844D01*
X021964Y016863D01*
X021974Y016879D01*
X021986Y016894D01*
X022001Y016906D01*
X022017Y016916D01*
X022036Y016921D01*
X022055Y016923D01*
X022074Y016921D01*
X022093Y016916D01*
X022109Y016906D01*
X022124Y016894D01*
X022136Y016879D01*
X022146Y016863D01*
X022151Y016844D01*
X022153Y016825D01*
X022151Y016806D01*
X022146Y016787D01*
X022136Y016771D01*
X022124Y016756D01*
X022109Y016744D01*
X022093Y016734D01*
X022074Y016729D01*
X022055Y016727D01*
X022036Y016729D01*
X022017Y016734D01*
X022001Y016744D01*
X021986Y016756D01*
X021974Y016771D01*
X021964Y016787D01*
X021959Y016806D01*
X021957Y016825D01*
X022351Y016825D02*
X022353Y016844D01*
X022358Y016863D01*
X022368Y016879D01*
X022380Y016894D01*
X022395Y016906D01*
X022411Y016916D01*
X022430Y016921D01*
X022449Y016923D01*
X022468Y016921D01*
X022487Y016916D01*
X022503Y016906D01*
X022518Y016894D01*
X022530Y016879D01*
X022540Y016863D01*
X022545Y016844D01*
X022547Y016825D01*
X022545Y016806D01*
X022540Y016787D01*
X022530Y016771D01*
X022518Y016756D01*
X022503Y016744D01*
X022487Y016734D01*
X022468Y016729D01*
X022449Y016727D01*
X022430Y016729D01*
X022411Y016734D01*
X022395Y016744D01*
X022380Y016756D01*
X022368Y016771D01*
X022358Y016787D01*
X022353Y016806D01*
X022351Y016825D01*
X004351Y016825D02*
X004353Y016844D01*
X004358Y016863D01*
X004368Y016879D01*
X004380Y016894D01*
X004395Y016906D01*
X004411Y016916D01*
X004430Y016921D01*
X004449Y016923D01*
X004468Y016921D01*
X004487Y016916D01*
X004503Y016906D01*
X004518Y016894D01*
X004530Y016879D01*
X004540Y016863D01*
X004545Y016844D01*
X004547Y016825D01*
X004545Y016806D01*
X004540Y016787D01*
X004530Y016771D01*
X004518Y016756D01*
X004503Y016744D01*
X004487Y016734D01*
X004468Y016729D01*
X004449Y016727D01*
X004430Y016729D01*
X004411Y016734D01*
X004395Y016744D01*
X004380Y016756D01*
X004368Y016771D01*
X004358Y016787D01*
X004353Y016806D01*
X004351Y016825D01*
X003957Y016825D02*
X003959Y016844D01*
X003964Y016863D01*
X003974Y016879D01*
X003986Y016894D01*
X004001Y016906D01*
X004017Y016916D01*
X004036Y016921D01*
X004055Y016923D01*
X004074Y016921D01*
X004093Y016916D01*
X004109Y016906D01*
X004124Y016894D01*
X004136Y016879D01*
X004146Y016863D01*
X004151Y016844D01*
X004153Y016825D01*
X004151Y016806D01*
X004146Y016787D01*
X004136Y016771D01*
X004124Y016756D01*
X004109Y016744D01*
X004093Y016734D01*
X004074Y016729D01*
X004055Y016727D01*
X004036Y016729D01*
X004017Y016734D01*
X004001Y016744D01*
X003986Y016756D01*
X003974Y016771D01*
X003964Y016787D01*
X003959Y016806D01*
X003957Y016825D01*
X003563Y016825D02*
X003565Y016844D01*
X003570Y016863D01*
X003580Y016879D01*
X003592Y016894D01*
X003607Y016906D01*
X003623Y016916D01*
X003642Y016921D01*
X003661Y016923D01*
X003680Y016921D01*
X003699Y016916D01*
X003715Y016906D01*
X003730Y016894D01*
X003742Y016879D01*
X003752Y016863D01*
X003757Y016844D01*
X003759Y016825D01*
X003757Y016806D01*
X003752Y016787D01*
X003742Y016771D01*
X003730Y016756D01*
X003715Y016744D01*
X003699Y016734D01*
X003680Y016729D01*
X003661Y016727D01*
X003642Y016729D01*
X003623Y016734D01*
X003607Y016744D01*
X003592Y016756D01*
X003580Y016771D01*
X003570Y016787D01*
X003565Y016806D01*
X003563Y016825D01*
X003170Y016825D02*
X003172Y016844D01*
X003177Y016863D01*
X003187Y016879D01*
X003199Y016894D01*
X003214Y016906D01*
X003230Y016916D01*
X003249Y016921D01*
X003268Y016923D01*
X003287Y016921D01*
X003306Y016916D01*
X003322Y016906D01*
X003337Y016894D01*
X003349Y016879D01*
X003359Y016863D01*
X003364Y016844D01*
X003366Y016825D01*
X003364Y016806D01*
X003359Y016787D01*
X003349Y016771D01*
X003337Y016756D01*
X003322Y016744D01*
X003306Y016734D01*
X003287Y016729D01*
X003268Y016727D01*
X003249Y016729D01*
X003230Y016734D01*
X003214Y016744D01*
X003199Y016756D01*
X003187Y016771D01*
X003177Y016787D01*
X003172Y016806D01*
X003170Y016825D01*
X002776Y016825D02*
X002778Y016844D01*
X002783Y016863D01*
X002793Y016879D01*
X002805Y016894D01*
X002820Y016906D01*
X002836Y016916D01*
X002855Y016921D01*
X002874Y016923D01*
X002893Y016921D01*
X002912Y016916D01*
X002928Y016906D01*
X002943Y016894D01*
X002955Y016879D01*
X002965Y016863D01*
X002970Y016844D01*
X002972Y016825D01*
X002970Y016806D01*
X002965Y016787D01*
X002955Y016771D01*
X002943Y016756D01*
X002928Y016744D01*
X002912Y016734D01*
X002893Y016729D01*
X002874Y016727D01*
X002855Y016729D01*
X002836Y016734D01*
X002820Y016744D01*
X002805Y016756D01*
X002793Y016771D01*
X002783Y016787D01*
X002778Y016806D01*
X002776Y016825D01*
X002776Y016075D02*
X002778Y016094D01*
X002783Y016113D01*
X002793Y016129D01*
X002805Y016144D01*
X002820Y016156D01*
X002836Y016166D01*
X002855Y016171D01*
X002874Y016173D01*
X002893Y016171D01*
X002912Y016166D01*
X002928Y016156D01*
X002943Y016144D01*
X002955Y016129D01*
X002965Y016113D01*
X002970Y016094D01*
X002972Y016075D01*
X002970Y016056D01*
X002965Y016037D01*
X002955Y016021D01*
X002943Y016006D01*
X002928Y015994D01*
X002912Y015984D01*
X002893Y015979D01*
X002874Y015977D01*
X002855Y015979D01*
X002836Y015984D01*
X002820Y015994D01*
X002805Y016006D01*
X002793Y016021D01*
X002783Y016037D01*
X002778Y016056D01*
X002776Y016075D01*
X003170Y016075D02*
X003172Y016094D01*
X003177Y016113D01*
X003187Y016129D01*
X003199Y016144D01*
X003214Y016156D01*
X003230Y016166D01*
X003249Y016171D01*
X003268Y016173D01*
X003287Y016171D01*
X003306Y016166D01*
X003322Y016156D01*
X003337Y016144D01*
X003349Y016129D01*
X003359Y016113D01*
X003364Y016094D01*
X003366Y016075D01*
X003364Y016056D01*
X003359Y016037D01*
X003349Y016021D01*
X003337Y016006D01*
X003322Y015994D01*
X003306Y015984D01*
X003287Y015979D01*
X003268Y015977D01*
X003249Y015979D01*
X003230Y015984D01*
X003214Y015994D01*
X003199Y016006D01*
X003187Y016021D01*
X003177Y016037D01*
X003172Y016056D01*
X003170Y016075D01*
X003563Y016075D02*
X003565Y016094D01*
X003570Y016113D01*
X003580Y016129D01*
X003592Y016144D01*
X003607Y016156D01*
X003623Y016166D01*
X003642Y016171D01*
X003661Y016173D01*
X003680Y016171D01*
X003699Y016166D01*
X003715Y016156D01*
X003730Y016144D01*
X003742Y016129D01*
X003752Y016113D01*
X003757Y016094D01*
X003759Y016075D01*
X003757Y016056D01*
X003752Y016037D01*
X003742Y016021D01*
X003730Y016006D01*
X003715Y015994D01*
X003699Y015984D01*
X003680Y015979D01*
X003661Y015977D01*
X003642Y015979D01*
X003623Y015984D01*
X003607Y015994D01*
X003592Y016006D01*
X003580Y016021D01*
X003570Y016037D01*
X003565Y016056D01*
X003563Y016075D01*
X003957Y016075D02*
X003959Y016094D01*
X003964Y016113D01*
X003974Y016129D01*
X003986Y016144D01*
X004001Y016156D01*
X004017Y016166D01*
X004036Y016171D01*
X004055Y016173D01*
X004074Y016171D01*
X004093Y016166D01*
X004109Y016156D01*
X004124Y016144D01*
X004136Y016129D01*
X004146Y016113D01*
X004151Y016094D01*
X004153Y016075D01*
X004151Y016056D01*
X004146Y016037D01*
X004136Y016021D01*
X004124Y016006D01*
X004109Y015994D01*
X004093Y015984D01*
X004074Y015979D01*
X004055Y015977D01*
X004036Y015979D01*
X004017Y015984D01*
X004001Y015994D01*
X003986Y016006D01*
X003974Y016021D01*
X003964Y016037D01*
X003959Y016056D01*
X003957Y016075D01*
X004351Y016075D02*
X004353Y016094D01*
X004358Y016113D01*
X004368Y016129D01*
X004380Y016144D01*
X004395Y016156D01*
X004411Y016166D01*
X004430Y016171D01*
X004449Y016173D01*
X004468Y016171D01*
X004487Y016166D01*
X004503Y016156D01*
X004518Y016144D01*
X004530Y016129D01*
X004540Y016113D01*
X004545Y016094D01*
X004547Y016075D01*
X004545Y016056D01*
X004540Y016037D01*
X004530Y016021D01*
X004518Y016006D01*
X004503Y015994D01*
X004487Y015984D01*
X004468Y015979D01*
X004449Y015977D01*
X004430Y015979D01*
X004411Y015984D01*
X004395Y015994D01*
X004380Y016006D01*
X004368Y016021D01*
X004358Y016037D01*
X004353Y016056D01*
X004351Y016075D01*
D12*
X006176Y017292D02*
X006283Y017185D01*
X006497Y017185D01*
X006604Y017292D01*
X006604Y017399D01*
X006497Y017505D01*
X006283Y017505D01*
X006176Y017612D01*
X006176Y017719D01*
X006283Y017826D01*
X006497Y017826D01*
X006604Y017719D01*
X006821Y017719D02*
X006821Y017292D01*
X006928Y017185D01*
X007141Y017185D01*
X007248Y017292D01*
X007466Y017185D02*
X007893Y017185D01*
X007466Y017185D02*
X007466Y017826D01*
X007248Y017719D02*
X007141Y017826D01*
X006928Y017826D01*
X006821Y017719D01*
X009288Y018080D02*
X009538Y017830D01*
X010038Y017830D01*
X010288Y018080D01*
X010538Y017830D01*
X011038Y017830D01*
X011288Y018080D01*
X011538Y017830D01*
X012038Y017830D01*
X012288Y018080D01*
X012538Y017830D01*
X013038Y017830D01*
X013288Y018080D01*
X013538Y017830D01*
X014038Y017830D01*
X014288Y018080D01*
X014538Y017830D01*
X015038Y017830D01*
X015288Y018080D01*
X015538Y017830D01*
X016038Y017830D01*
X016288Y018080D01*
X016538Y017830D01*
X017038Y017830D01*
X017288Y018080D01*
X017538Y017830D01*
X018038Y017830D01*
X018288Y018080D01*
X018538Y017830D01*
X019038Y017830D01*
X019288Y018080D01*
X019288Y019580D01*
X019038Y019830D01*
X018538Y019830D01*
X018288Y019580D01*
X018038Y019830D01*
X017538Y019830D01*
X017288Y019580D01*
X017038Y019830D01*
X016538Y019830D01*
X016288Y019580D01*
X016038Y019830D01*
X015538Y019830D01*
X015288Y019580D01*
X015038Y019830D01*
X014538Y019830D01*
X014288Y019580D01*
X014038Y019830D01*
X013538Y019830D01*
X013288Y019580D01*
X013038Y019830D01*
X012538Y019830D01*
X012288Y019580D01*
X012038Y019830D01*
X011538Y019830D01*
X011288Y019580D01*
X011038Y019830D01*
X010538Y019830D01*
X010288Y019580D01*
X010038Y019830D01*
X009538Y019830D01*
X009288Y019580D01*
X009288Y018080D01*
X013140Y020828D02*
X014937Y020828D01*
X014937Y023832D01*
X013140Y023832D01*
X013140Y020828D01*
X013378Y023482D02*
X013380Y023508D01*
X013386Y023534D01*
X013395Y023558D01*
X013408Y023581D01*
X013424Y023602D01*
X013443Y023620D01*
X013464Y023636D01*
X013488Y023648D01*
X013512Y023656D01*
X013538Y023661D01*
X013565Y023662D01*
X013591Y023659D01*
X013616Y023652D01*
X013640Y023642D01*
X013663Y023628D01*
X013683Y023612D01*
X013700Y023592D01*
X013715Y023570D01*
X013726Y023546D01*
X013734Y023521D01*
X013738Y023495D01*
X013738Y023469D01*
X013734Y023443D01*
X013726Y023418D01*
X013715Y023394D01*
X013700Y023372D01*
X013683Y023352D01*
X013663Y023336D01*
X013640Y023322D01*
X013616Y023312D01*
X013591Y023305D01*
X013565Y023302D01*
X013538Y023303D01*
X013512Y023308D01*
X013488Y023316D01*
X013464Y023328D01*
X013443Y023344D01*
X013424Y023362D01*
X013408Y023383D01*
X013395Y023406D01*
X013386Y023430D01*
X013380Y023456D01*
X013378Y023482D01*
X007918Y024785D02*
X007918Y025212D01*
X007704Y025426D01*
X007491Y025212D01*
X007491Y024785D01*
X007273Y024892D02*
X007273Y025319D01*
X007166Y025426D01*
X006846Y025426D01*
X006846Y024785D01*
X007166Y024785D01*
X007273Y024892D01*
X007491Y025105D02*
X007918Y025105D01*
X006629Y024999D02*
X006629Y024892D01*
X006522Y024785D01*
X006308Y024785D01*
X006201Y024892D01*
X006308Y025105D02*
X006522Y025105D01*
X006629Y024999D01*
X006629Y025319D02*
X006522Y025426D01*
X006308Y025426D01*
X006201Y025319D01*
X006201Y025212D01*
X006308Y025105D01*
X002609Y023379D02*
X002609Y023272D01*
X002609Y023379D02*
X002502Y023486D01*
X001968Y023486D01*
X002395Y023486D02*
X002395Y023165D01*
X002288Y023059D01*
X001968Y023059D01*
X002075Y022841D02*
X002395Y022841D01*
X002395Y022521D01*
X002288Y022414D01*
X002182Y022521D01*
X002182Y022841D01*
X002075Y022841D02*
X001968Y022734D01*
X001968Y022521D01*
X001755Y022091D02*
X002395Y022091D01*
X002395Y021984D02*
X002395Y022198D01*
X001755Y022091D02*
X001755Y021984D01*
X002075Y021767D02*
X002288Y021767D01*
X002395Y021660D01*
X002395Y021340D01*
X002609Y021340D02*
X001968Y021340D01*
X001968Y021660D01*
X002075Y021767D01*
X001345Y021769D02*
X001345Y021982D01*
X001238Y022089D01*
X001345Y022307D02*
X001345Y022520D01*
X001345Y022413D02*
X000705Y022413D01*
X000705Y022307D01*
X000811Y022089D02*
X000705Y021982D01*
X000705Y021769D01*
X000811Y021662D01*
X001238Y021662D01*
X001345Y021769D01*
X001345Y021445D02*
X001132Y021125D01*
X000918Y021445D01*
X000705Y021125D02*
X001345Y021125D01*
X001345Y020908D02*
X001345Y020587D01*
X001238Y020480D01*
X001025Y020480D01*
X000918Y020587D01*
X000918Y020908D01*
X001025Y020263D02*
X001345Y020263D01*
X001345Y019943D01*
X001238Y019836D01*
X001132Y019943D01*
X001132Y020263D01*
X001025Y020263D02*
X000918Y020156D01*
X000918Y019943D01*
X000918Y019620D02*
X000918Y019406D01*
X000811Y019513D02*
X001238Y019513D01*
X001345Y019620D01*
X001755Y019621D02*
X001755Y019941D01*
X001861Y020048D01*
X002288Y020048D01*
X002395Y019941D01*
X002395Y019621D01*
X001755Y019621D01*
X001238Y019189D02*
X001345Y019082D01*
X001345Y018868D01*
X001238Y018762D01*
X001025Y018868D02*
X001025Y019082D01*
X001132Y019189D01*
X001238Y019189D01*
X000811Y019189D02*
X000705Y019082D01*
X000705Y018868D01*
X000811Y018762D01*
X000918Y018762D01*
X001025Y018868D01*
X001648Y020372D02*
X001755Y020372D01*
X001968Y020372D02*
X002395Y020372D01*
X002395Y020266D02*
X002395Y020479D01*
X002395Y020695D02*
X002395Y021016D01*
X002288Y021122D01*
X002182Y021016D01*
X002182Y020802D01*
X002075Y020695D01*
X001968Y020802D01*
X001968Y021122D01*
X001968Y020372D02*
X001968Y020266D01*
X001238Y022736D02*
X001345Y022843D01*
X001345Y023057D01*
X001238Y023163D01*
X001025Y023163D01*
X000918Y023057D01*
X000918Y022843D01*
X001025Y022736D01*
X001238Y022736D01*
X001238Y023381D02*
X001345Y023488D01*
X001345Y023808D01*
X001345Y024026D02*
X000705Y024026D01*
X000918Y023808D02*
X000918Y023488D01*
X001025Y023381D01*
X001238Y023381D01*
X001132Y024026D02*
X000918Y024346D01*
X001132Y024026D02*
X001345Y024346D01*
X022107Y022901D02*
X022107Y022260D01*
X022107Y022474D02*
X022427Y022474D01*
X022534Y022580D01*
X022534Y022794D01*
X022427Y022901D01*
X022107Y022901D01*
X022751Y022794D02*
X022751Y022687D01*
X022858Y022580D01*
X023072Y022580D01*
X023179Y022474D01*
X023179Y022367D01*
X023072Y022260D01*
X022858Y022260D01*
X022751Y022367D01*
X022534Y022260D02*
X022320Y022474D01*
X022751Y022794D02*
X022858Y022901D01*
X023072Y022901D01*
X023179Y022794D01*
X023396Y022794D02*
X023503Y022901D01*
X023716Y022901D01*
X023823Y022794D01*
X023823Y022687D01*
X023396Y022260D01*
X023823Y022260D01*
X024041Y022367D02*
X024147Y022260D01*
X024361Y022260D01*
X024468Y022367D01*
X024468Y022474D01*
X024361Y022580D01*
X024254Y022580D01*
X024361Y022580D02*
X024468Y022687D01*
X024468Y022794D01*
X024361Y022901D01*
X024147Y022901D01*
X024041Y022794D01*
X024685Y022794D02*
X024792Y022901D01*
X025005Y022901D01*
X025112Y022794D01*
X025112Y022687D01*
X024685Y022260D01*
X025112Y022260D01*
X030420Y024810D02*
X030420Y025237D01*
X030633Y025451D01*
X030847Y025237D01*
X030847Y024810D01*
X031064Y025024D02*
X031278Y024810D01*
X031491Y025024D01*
X031491Y025451D01*
X031709Y025451D02*
X032029Y025451D01*
X032136Y025344D01*
X032136Y025130D01*
X032029Y025024D01*
X031709Y025024D01*
X031922Y025024D02*
X032136Y024810D01*
X031709Y024810D02*
X031709Y025451D01*
X031064Y025451D02*
X031064Y025024D01*
X030847Y025130D02*
X030420Y025130D01*
X032998Y024810D02*
X033212Y024810D01*
X033105Y024810D02*
X033105Y025451D01*
X032998Y025451D02*
X033212Y025451D01*
X033428Y025344D02*
X033428Y025237D01*
X033534Y025130D01*
X033748Y025130D01*
X033855Y025024D01*
X033855Y024917D01*
X033748Y024810D01*
X033534Y024810D01*
X033428Y024917D01*
X034072Y025024D02*
X034393Y025024D01*
X034499Y025130D01*
X034499Y025344D01*
X034393Y025451D01*
X034072Y025451D01*
X034072Y024810D01*
X033855Y025344D02*
X033748Y025451D01*
X033534Y025451D01*
X033428Y025344D01*
X042038Y019580D02*
X042288Y019830D01*
X042788Y019830D01*
X043038Y019580D01*
X043288Y019830D01*
X043788Y019830D01*
X044038Y019580D01*
X044288Y019830D01*
X044788Y019830D01*
X045038Y019580D01*
X045288Y019830D01*
X045788Y019830D01*
X046038Y019580D01*
X046288Y019830D01*
X046788Y019830D01*
X047038Y019580D01*
X047288Y019830D01*
X047788Y019830D01*
X048038Y019580D01*
X048288Y019830D01*
X048788Y019830D01*
X049038Y019580D01*
X049288Y019830D01*
X049788Y019830D01*
X050038Y019580D01*
X050288Y019830D01*
X050788Y019830D01*
X051038Y019580D01*
X051288Y019830D01*
X051788Y019830D01*
X052038Y019580D01*
X052038Y018080D01*
X051788Y017830D01*
X051288Y017830D01*
X051038Y018080D01*
X050788Y017830D01*
X050288Y017830D01*
X050038Y018080D01*
X049788Y017830D01*
X049288Y017830D01*
X049038Y018080D01*
X048788Y017830D01*
X048288Y017830D01*
X048038Y018080D01*
X047788Y017830D01*
X047288Y017830D01*
X047038Y018080D01*
X046788Y017830D01*
X046288Y017830D01*
X046038Y018080D01*
X045788Y017830D01*
X045288Y017830D01*
X045038Y018080D01*
X044788Y017830D01*
X044288Y017830D01*
X044038Y018080D01*
X043788Y017830D01*
X043288Y017830D01*
X043038Y018080D01*
X042788Y017830D01*
X042288Y017830D01*
X042038Y018080D01*
X042038Y019580D01*
X053676Y017719D02*
X053676Y017292D01*
X053783Y017185D01*
X053997Y017185D01*
X054104Y017292D01*
X054104Y017505D01*
X053890Y017505D01*
X053676Y017719D02*
X053783Y017826D01*
X053997Y017826D01*
X054104Y017719D01*
X054321Y017826D02*
X054748Y017185D01*
X054748Y017826D01*
X054966Y017826D02*
X055286Y017826D01*
X055393Y017719D01*
X055393Y017292D01*
X055286Y017185D01*
X054966Y017185D01*
X054966Y017826D01*
X054321Y017826D02*
X054321Y017185D01*
X059843Y019801D02*
X059843Y020122D01*
X059950Y020228D01*
X060163Y020228D01*
X060270Y020122D01*
X060270Y019801D01*
X060483Y019801D02*
X059843Y019801D01*
X060270Y020015D02*
X060483Y020228D01*
X060377Y020446D02*
X060163Y020446D01*
X060056Y020553D01*
X060056Y020766D01*
X060163Y020873D01*
X060270Y020873D01*
X060270Y020446D01*
X060377Y020446D02*
X060483Y020553D01*
X060483Y020766D01*
X060056Y021090D02*
X060483Y021304D01*
X060056Y021517D01*
X059950Y021735D02*
X059843Y021842D01*
X059843Y022055D01*
X059950Y022162D01*
X060377Y021735D01*
X060483Y021842D01*
X060483Y022055D01*
X060377Y022162D01*
X059950Y022162D01*
X059950Y022380D02*
X059843Y022486D01*
X059843Y022700D01*
X059950Y022807D01*
X060377Y022380D01*
X060483Y022486D01*
X060483Y022700D01*
X060377Y022807D01*
X059950Y022807D01*
X060056Y023024D02*
X059843Y023238D01*
X060483Y023238D01*
X060483Y023451D02*
X060483Y023024D01*
X060377Y022380D02*
X059950Y022380D01*
X059950Y021735D02*
X060377Y021735D01*
X055310Y022285D02*
X055310Y022926D01*
X054883Y022926D02*
X055310Y022285D01*
X054883Y022285D02*
X054883Y022926D01*
X054667Y022926D02*
X054453Y022926D01*
X054560Y022926D02*
X054560Y022285D01*
X054453Y022285D02*
X054667Y022285D01*
X054236Y022499D02*
X054236Y022926D01*
X053809Y022926D02*
X053809Y022499D01*
X054022Y022285D01*
X054236Y022499D01*
D13*
X051878Y025225D02*
X051647Y025378D01*
X051878Y025532D01*
X051647Y025685D02*
X051647Y025225D01*
X051494Y025225D02*
X051264Y025225D01*
X051187Y025302D01*
X051187Y025455D01*
X051264Y025532D01*
X051494Y025532D01*
X051033Y025455D02*
X050957Y025532D01*
X050803Y025532D01*
X050727Y025455D01*
X050727Y025302D01*
X050803Y025225D01*
X050957Y025225D01*
X051033Y025302D01*
X051033Y025455D01*
X050573Y025225D02*
X050420Y025225D01*
X050496Y025225D02*
X050496Y025685D01*
X050420Y025685D01*
X050266Y025609D02*
X050189Y025685D01*
X050036Y025685D01*
X049959Y025609D01*
X049959Y025302D01*
X050036Y025225D01*
X050189Y025225D01*
X050266Y025302D01*
X049806Y025225D02*
X049576Y025378D01*
X049806Y025532D01*
X049576Y025685D02*
X049576Y025225D01*
X049422Y025225D02*
X049192Y025225D01*
X049115Y025302D01*
X049115Y025455D01*
X049192Y025532D01*
X049422Y025532D01*
X048962Y025455D02*
X048885Y025532D01*
X048732Y025532D01*
X048732Y025378D02*
X048962Y025378D01*
X048962Y025455D02*
X048962Y025225D01*
X048732Y025225D01*
X048655Y025302D01*
X048732Y025378D01*
X048501Y025225D02*
X048425Y025302D01*
X048425Y025609D01*
X048348Y025532D02*
X048501Y025532D01*
X048194Y025609D02*
X048118Y025685D01*
X047964Y025685D01*
X047887Y025609D01*
X047887Y025532D01*
X047964Y025455D01*
X048118Y025455D01*
X048194Y025378D01*
X048194Y025302D01*
X048118Y025225D01*
X047964Y025225D01*
X047887Y025302D01*
X047734Y025685D02*
X047427Y025225D01*
X047274Y025225D02*
X046967Y025532D01*
X046813Y025532D02*
X046583Y025532D01*
X046506Y025455D01*
X046506Y025302D01*
X046583Y025225D01*
X046813Y025225D01*
X046967Y025225D02*
X047274Y025532D01*
X046353Y025302D02*
X046353Y025225D01*
X046276Y025225D01*
X046276Y025302D01*
X046353Y025302D01*
X046123Y025225D02*
X046123Y025455D01*
X046046Y025532D01*
X045816Y025532D01*
X045816Y025225D01*
X045662Y025378D02*
X045355Y025378D01*
X045355Y025302D02*
X045355Y025455D01*
X045432Y025532D01*
X045586Y025532D01*
X045662Y025455D01*
X045662Y025378D01*
X045586Y025225D02*
X045432Y025225D01*
X045355Y025302D01*
X045202Y025302D02*
X045125Y025378D01*
X044972Y025378D01*
X044895Y025455D01*
X044972Y025532D01*
X045202Y025532D01*
X045202Y025302D02*
X045125Y025225D01*
X044895Y025225D01*
X044741Y025225D02*
X044665Y025225D01*
X044665Y025302D01*
X044741Y025302D01*
X044741Y025225D01*
X044511Y025225D02*
X044511Y025455D01*
X044435Y025532D01*
X044281Y025532D01*
X044204Y025455D01*
X044051Y025532D02*
X043821Y025532D01*
X043744Y025455D01*
X043744Y025302D01*
X043821Y025225D01*
X044051Y025225D01*
X044204Y025225D02*
X044204Y025685D01*
X043514Y025685D02*
X043514Y025762D01*
X043514Y025532D02*
X043514Y025225D01*
X043590Y025225D02*
X043437Y025225D01*
X043437Y025532D02*
X043514Y025532D01*
X043284Y025532D02*
X043207Y025532D01*
X043053Y025378D01*
X043053Y025225D02*
X043053Y025532D01*
X042900Y025532D02*
X042746Y025532D01*
X042823Y025609D02*
X042823Y025302D01*
X042900Y025225D01*
X042593Y025302D02*
X042516Y025378D01*
X042363Y025378D01*
X042286Y025455D01*
X042363Y025532D01*
X042593Y025532D01*
X042593Y025302D02*
X042516Y025225D01*
X042286Y025225D01*
X042133Y025225D02*
X041902Y025378D01*
X042133Y025532D01*
X041902Y025685D02*
X041902Y025225D01*
X041749Y025225D02*
X041519Y025225D01*
X041442Y025302D01*
X041442Y025455D01*
X041519Y025532D01*
X041749Y025532D01*
X041289Y025455D02*
X041289Y025225D01*
X041058Y025225D01*
X040982Y025302D01*
X041058Y025378D01*
X041289Y025378D01*
X041289Y025455D02*
X041212Y025532D01*
X041058Y025532D01*
X040828Y025455D02*
X040751Y025532D01*
X040598Y025532D01*
X040521Y025455D01*
X040521Y025685D02*
X040521Y025225D01*
X040828Y025225D02*
X040828Y025455D01*
X040368Y025685D02*
X040061Y025225D01*
X039600Y025225D02*
X039907Y025685D01*
X039447Y025532D02*
X039447Y025455D01*
X039370Y025455D01*
X039370Y025532D01*
X039447Y025532D01*
X039447Y025302D02*
X039447Y025225D01*
X039370Y025225D01*
X039370Y025302D01*
X039447Y025302D01*
X039217Y025302D02*
X039140Y025225D01*
X038910Y025225D01*
X038910Y025072D02*
X038910Y025532D01*
X039140Y025532D01*
X039217Y025455D01*
X039217Y025302D01*
X038756Y025225D02*
X038680Y025302D01*
X038680Y025609D01*
X038603Y025532D02*
X038756Y025532D01*
X038449Y025532D02*
X038296Y025532D01*
X038373Y025609D02*
X038373Y025302D01*
X038449Y025225D01*
X038143Y025225D02*
X038143Y025455D01*
X038066Y025532D01*
X037912Y025532D01*
X037836Y025455D01*
X037836Y025685D02*
X037836Y025225D01*
D14*
X026663Y024080D02*
X026663Y023080D01*
X020663Y023080D01*
X020663Y024080D01*
X026663Y024080D01*
X026513Y024205D02*
X026558Y024250D01*
X026558Y024430D01*
X026513Y024475D01*
X026378Y024475D01*
X026378Y024205D01*
X026513Y024205D01*
X026263Y024205D02*
X026263Y024475D01*
X026083Y024475D02*
X026263Y024205D01*
X026083Y024205D02*
X026083Y024475D01*
X025968Y024430D02*
X025923Y024475D01*
X025833Y024475D01*
X025788Y024430D01*
X025788Y024250D01*
X025833Y024205D01*
X025923Y024205D01*
X025968Y024250D01*
X025968Y024340D01*
X025878Y024340D01*
X025558Y024295D02*
X025558Y024250D01*
X025513Y024205D01*
X025423Y024205D01*
X025378Y024250D01*
X025423Y024340D02*
X025513Y024340D01*
X025558Y024295D01*
X025558Y024430D02*
X025513Y024475D01*
X025423Y024475D01*
X025378Y024430D01*
X025378Y024385D01*
X025423Y024340D01*
X025263Y024475D02*
X025083Y024475D01*
X025173Y024475D02*
X025173Y024205D01*
X024968Y024250D02*
X024923Y024205D01*
X024833Y024205D01*
X024788Y024250D01*
X024788Y024430D01*
X024833Y024475D01*
X024923Y024475D01*
X024968Y024430D01*
X024558Y024430D02*
X024513Y024475D01*
X024423Y024475D01*
X024378Y024430D01*
X024378Y024250D01*
X024423Y024205D01*
X024513Y024205D01*
X024558Y024250D01*
X024263Y024250D02*
X024218Y024205D01*
X024128Y024205D01*
X024083Y024250D01*
X024083Y024430D01*
X024128Y024475D01*
X024218Y024475D01*
X024263Y024430D01*
X023968Y024475D02*
X023968Y024295D01*
X023878Y024205D01*
X023788Y024295D01*
X023788Y024475D01*
X023468Y024475D02*
X023378Y024475D01*
X023423Y024475D02*
X023423Y024205D01*
X023378Y024205D02*
X023468Y024205D01*
X023263Y024205D02*
X023083Y024475D01*
X022968Y024430D02*
X022968Y024340D01*
X022923Y024295D01*
X022788Y024295D01*
X022788Y024205D02*
X022788Y024475D01*
X022923Y024475D01*
X022968Y024430D01*
X022878Y024295D02*
X022968Y024205D01*
X023083Y024205D02*
X023263Y024475D01*
X022558Y024430D02*
X022558Y024250D01*
X022513Y024205D01*
X022423Y024205D01*
X022378Y024250D01*
X022378Y024430D01*
X022423Y024475D01*
X022513Y024475D01*
X022558Y024430D01*
X022263Y024475D02*
X022083Y024205D01*
X022263Y024205D02*
X022083Y024475D01*
X021968Y024475D02*
X021788Y024475D01*
X021878Y024475D02*
X021878Y024205D01*
X021558Y024205D02*
X021468Y024295D01*
X021513Y024295D02*
X021378Y024295D01*
X021378Y024205D02*
X021378Y024475D01*
X021513Y024475D01*
X021558Y024430D01*
X021558Y024340D01*
X021513Y024295D01*
X021263Y024475D02*
X021083Y024475D01*
X021173Y024475D02*
X021173Y024205D01*
X020968Y024250D02*
X020968Y024430D01*
X020923Y024475D01*
X020788Y024475D01*
X020788Y024205D01*
X020923Y024205D01*
X020968Y024250D01*
X018999Y020455D02*
X019074Y020380D01*
X018774Y020080D01*
X018849Y020005D01*
X018999Y020005D01*
X019074Y020080D01*
X019074Y020380D01*
X018999Y020455D02*
X018849Y020455D01*
X018774Y020380D01*
X018774Y020080D01*
X018614Y020005D02*
X018313Y020005D01*
X018614Y020305D01*
X018614Y020380D01*
X018539Y020455D01*
X018388Y020455D01*
X018313Y020380D01*
X009763Y017655D02*
X009763Y017205D01*
X009613Y017205D02*
X009914Y017205D01*
X009613Y017505D02*
X009763Y017655D01*
X006889Y015001D02*
X006889Y005159D01*
X013188Y005159D01*
X013188Y015001D01*
X006889Y015001D01*
X006688Y015001D02*
X006688Y005159D01*
X000389Y005159D01*
X000389Y015001D01*
X006688Y015001D01*
X013639Y015001D02*
X013639Y005159D01*
X019938Y005159D01*
X019938Y015001D01*
X013639Y015001D01*
X020601Y015533D02*
X020601Y004627D01*
X028475Y004627D01*
X028475Y015533D01*
X020601Y015533D01*
X028601Y015533D02*
X028601Y004627D01*
X036475Y004627D01*
X036475Y015533D01*
X028601Y015533D01*
X036601Y015533D02*
X036601Y004627D01*
X044475Y004627D01*
X044475Y015533D01*
X036601Y015533D01*
X042363Y017205D02*
X042664Y017205D01*
X042513Y017205D02*
X042513Y017655D01*
X042363Y017505D01*
X044601Y015533D02*
X044601Y004627D01*
X052475Y004627D01*
X052475Y015533D01*
X044601Y015533D01*
X051063Y020005D02*
X051364Y020305D01*
X051364Y020380D01*
X051289Y020455D01*
X051138Y020455D01*
X051063Y020380D01*
X051063Y020005D02*
X051364Y020005D01*
X051524Y020080D02*
X051824Y020380D01*
X051824Y020080D01*
X051749Y020005D01*
X051599Y020005D01*
X051524Y020080D01*
X051524Y020380D01*
X051599Y020455D01*
X051749Y020455D01*
X051824Y020380D01*
X052820Y009889D02*
X052820Y004771D01*
X056757Y004771D01*
X056757Y009889D01*
X052820Y009889D01*
X057070Y009889D02*
X057070Y004771D01*
X061007Y004771D01*
X061007Y009889D01*
X057070Y009889D01*
D15*
X035483Y019186D02*
X034932Y019186D01*
X034656Y019344D02*
X034656Y019816D01*
X034420Y019580D01*
X034656Y019344D01*
X034420Y019304D02*
X034420Y019580D01*
X034420Y019856D01*
X034145Y019974D02*
X033593Y019974D01*
X033593Y019186D01*
X034145Y019186D01*
X035483Y019186D02*
X035483Y019974D01*
X034932Y019974D01*
X038443Y021540D02*
X040881Y021540D01*
X040881Y024120D01*
X038443Y024120D01*
X034038Y024205D02*
X034038Y022705D01*
X033788Y022455D01*
X033288Y022455D01*
X033038Y022705D01*
X033038Y024205D01*
X032788Y024455D01*
X032288Y024455D01*
X032038Y024205D01*
X032038Y022705D01*
X031788Y022455D01*
X031288Y022455D01*
X031038Y022705D01*
X031038Y024205D01*
X031288Y024455D01*
X031788Y024455D01*
X032038Y024205D01*
X033038Y024205D02*
X033288Y024455D01*
X033788Y024455D01*
X034038Y024205D01*
X033788Y024587D02*
X033288Y024587D01*
X033038Y022705D02*
X032788Y022455D01*
X032288Y022455D01*
X032038Y022705D01*
X029918Y021835D02*
X029918Y019075D01*
X027298Y019075D01*
X027158Y019215D01*
X027158Y021835D01*
X029918Y021835D01*
X027223Y023270D02*
X026803Y023270D01*
X026803Y023480D01*
X026873Y023550D01*
X026943Y023550D01*
X027013Y023480D01*
X027013Y023270D01*
X027013Y023480D02*
X027083Y023550D01*
X027153Y023550D01*
X027223Y023480D01*
X027223Y023270D01*
X027223Y023730D02*
X026803Y023730D01*
X027223Y023730D02*
X027223Y024011D01*
X027223Y024191D02*
X026803Y024191D01*
X027013Y024261D02*
X027223Y024471D01*
X027083Y024191D02*
X026803Y024471D01*
X020523Y024471D02*
X020103Y024191D01*
X020523Y024191D01*
X020523Y024011D02*
X020383Y023871D01*
X020383Y023941D02*
X020383Y023730D01*
X020523Y023730D02*
X020103Y023730D01*
X020103Y023941D01*
X020173Y024011D01*
X020313Y024011D01*
X020383Y023941D01*
X020313Y023550D02*
X020313Y023410D01*
X020313Y023550D02*
X020453Y023550D01*
X020523Y023480D01*
X020523Y023340D01*
X020453Y023270D01*
X020173Y023270D01*
X020103Y023340D01*
X020103Y023480D01*
X020173Y023550D01*
X020103Y024471D02*
X020523Y024471D01*
X027028Y019015D02*
X027030Y019030D01*
X027035Y019044D01*
X027044Y019056D01*
X027056Y019066D01*
X027069Y019072D01*
X027084Y019075D01*
X027099Y019074D01*
X027114Y019069D01*
X027126Y019061D01*
X027137Y019050D01*
X027144Y019037D01*
X027148Y019023D01*
X027148Y019007D01*
X027144Y018993D01*
X027137Y018980D01*
X027126Y018969D01*
X027114Y018961D01*
X027099Y018956D01*
X027084Y018955D01*
X027069Y018958D01*
X027056Y018964D01*
X027044Y018974D01*
X027035Y018986D01*
X027030Y019000D01*
X027028Y019015D01*
X046310Y020653D02*
X046310Y020709D01*
X046310Y020653D02*
X047767Y020653D01*
X047767Y020709D01*
X047767Y023951D02*
X047767Y024007D01*
X046310Y024007D01*
X046310Y023951D01*
D16*
X046625Y023684D03*
D17*
X014847Y023742D02*
X014847Y020918D01*
X013230Y020918D01*
X013230Y023742D01*
X014847Y023742D01*
D18*
X041071Y022830D03*
D19*
X011406Y022821D02*
X010446Y022821D01*
X010457Y022853D02*
X010430Y022777D01*
X010390Y022707D01*
X010338Y022645D01*
X010275Y022595D01*
X010203Y022557D01*
X010401Y022080D01*
X010472Y022113D01*
X010540Y022152D01*
X010887Y021869D01*
X011124Y022107D01*
X010842Y022453D01*
X010892Y022545D01*
X010932Y022641D01*
X010961Y022742D01*
X011406Y022787D01*
X011406Y023123D01*
X010961Y023168D01*
X010932Y023269D01*
X010892Y023365D01*
X010842Y023457D01*
X011124Y023803D01*
X010887Y024041D01*
X010540Y023758D01*
X010449Y023809D01*
X010352Y023849D01*
X010251Y023878D01*
X010206Y024323D01*
X009870Y024323D01*
X009825Y023878D01*
X009725Y023849D01*
X009628Y023809D01*
X009536Y023758D01*
X009190Y024041D01*
X008952Y023803D01*
X009235Y023457D01*
X009184Y023365D01*
X009144Y023269D01*
X009115Y023168D01*
X008671Y023123D01*
X008671Y022787D01*
X009115Y022742D01*
X009144Y022641D01*
X009184Y022545D01*
X009235Y022453D01*
X008952Y022107D01*
X009190Y021869D01*
X009536Y022152D01*
X009605Y022113D01*
X009676Y022080D01*
X009874Y022557D01*
X009809Y022590D01*
X009751Y022634D01*
X009702Y022687D01*
X009661Y022747D01*
X009632Y022813D01*
X009614Y022883D01*
X009608Y022955D01*
X009615Y023035D01*
X009638Y023113D01*
X009674Y023185D01*
X009724Y023249D01*
X009784Y023303D01*
X009853Y023344D01*
X009929Y023372D01*
X010009Y023385D01*
X010090Y023383D01*
X010169Y023365D01*
X010243Y023334D01*
X010310Y023289D01*
X010368Y023232D01*
X010414Y023166D01*
X010446Y023092D01*
X010465Y023014D01*
X010468Y022933D01*
X010457Y022853D01*
X010460Y022879D02*
X011406Y022879D01*
X011406Y022937D02*
X010468Y022937D01*
X010466Y022994D02*
X011406Y022994D01*
X011406Y023052D02*
X010456Y023052D01*
X010439Y023109D02*
X011406Y023109D01*
X010974Y023167D02*
X010413Y023167D01*
X010373Y023224D02*
X010945Y023224D01*
X010927Y023282D02*
X010317Y023282D01*
X010230Y023339D02*
X010903Y023339D01*
X010875Y023397D02*
X009202Y023397D01*
X009174Y023339D02*
X009846Y023339D01*
X009761Y023282D02*
X009150Y023282D01*
X009132Y023224D02*
X009705Y023224D01*
X009665Y023167D02*
X009103Y023167D01*
X009234Y023455D02*
X010843Y023455D01*
X010887Y023512D02*
X009190Y023512D01*
X009143Y023570D02*
X010934Y023570D01*
X010981Y023627D02*
X009096Y023627D01*
X009049Y023685D02*
X011028Y023685D01*
X011074Y023742D02*
X009002Y023742D01*
X008955Y023800D02*
X009485Y023800D01*
X009415Y023857D02*
X009007Y023857D01*
X009064Y023915D02*
X009344Y023915D01*
X009274Y023973D02*
X009122Y023973D01*
X009179Y024030D02*
X009203Y024030D01*
X009612Y023800D02*
X010465Y023800D01*
X010591Y023800D02*
X011121Y023800D01*
X011070Y023857D02*
X010662Y023857D01*
X010732Y023915D02*
X011012Y023915D01*
X010955Y023973D02*
X010803Y023973D01*
X010874Y024030D02*
X010897Y024030D01*
X010322Y023857D02*
X009754Y023857D01*
X009829Y023915D02*
X010248Y023915D01*
X010242Y023973D02*
X009835Y023973D01*
X009841Y024030D02*
X010236Y024030D01*
X010230Y024088D02*
X009847Y024088D01*
X009852Y024145D02*
X010224Y024145D01*
X010218Y024203D02*
X009858Y024203D01*
X009864Y024260D02*
X010213Y024260D01*
X010207Y024318D02*
X009870Y024318D01*
X009637Y023109D02*
X008671Y023109D01*
X008671Y023052D02*
X009620Y023052D01*
X009611Y022994D02*
X008671Y022994D01*
X008671Y022937D02*
X009609Y022937D01*
X009615Y022879D02*
X008671Y022879D01*
X008671Y022821D02*
X009630Y022821D01*
X009654Y022764D02*
X008898Y022764D01*
X009126Y022706D02*
X009688Y022706D01*
X009737Y022649D02*
X009142Y022649D01*
X009165Y022591D02*
X009808Y022591D01*
X009864Y022534D02*
X009190Y022534D01*
X009222Y022476D02*
X009840Y022476D01*
X009816Y022419D02*
X009207Y022419D01*
X009160Y022361D02*
X009792Y022361D01*
X009768Y022303D02*
X009113Y022303D01*
X009066Y022246D02*
X009745Y022246D01*
X009721Y022188D02*
X009019Y022188D01*
X008972Y022131D02*
X009511Y022131D01*
X009573Y022131D02*
X009697Y022131D01*
X009440Y022073D02*
X008986Y022073D01*
X009043Y022016D02*
X009370Y022016D01*
X009299Y021958D02*
X009101Y021958D01*
X009159Y021901D02*
X009229Y021901D01*
X010284Y022361D02*
X010917Y022361D01*
X010964Y022303D02*
X010308Y022303D01*
X010332Y022246D02*
X011011Y022246D01*
X011058Y022188D02*
X010356Y022188D01*
X010380Y022131D02*
X010504Y022131D01*
X010566Y022131D02*
X011104Y022131D01*
X011091Y022073D02*
X010636Y022073D01*
X010707Y022016D02*
X011033Y022016D01*
X010976Y021958D02*
X010778Y021958D01*
X010848Y021901D02*
X010918Y021901D01*
X010870Y022419D02*
X010261Y022419D01*
X010237Y022476D02*
X010854Y022476D01*
X010886Y022534D02*
X010213Y022534D01*
X010268Y022591D02*
X010912Y022591D01*
X010934Y022649D02*
X010341Y022649D01*
X010390Y022706D02*
X010951Y022706D01*
X011178Y022764D02*
X010423Y022764D01*
D20*
G36*
X059943Y024924D02*
X059884Y024875D01*
X059871Y024890D01*
X059930Y024939D01*
X059943Y024924D01*
G37*
G36*
X059956Y024909D02*
X059897Y024860D01*
X059884Y024875D01*
X059943Y024924D01*
X059956Y024909D01*
G37*
G36*
X059968Y024894D02*
X059909Y024845D01*
X059896Y024860D01*
X059955Y024909D01*
X059968Y024894D01*
G37*
G36*
X060009Y024876D02*
X059950Y024827D01*
X059937Y024842D01*
X059996Y024891D01*
X060009Y024876D01*
G37*
G36*
X060115Y024811D02*
X060056Y024762D01*
X060043Y024777D01*
X060102Y024826D01*
X060115Y024811D01*
G37*
G36*
X060140Y024781D02*
X060081Y024732D01*
X060068Y024747D01*
X060127Y024796D01*
X060140Y024781D01*
G37*
G36*
X060153Y024766D02*
X060094Y024717D01*
X060081Y024732D01*
X060140Y024781D01*
X060153Y024766D01*
G37*
G36*
X060107Y025035D02*
X060048Y024986D01*
X060035Y025001D01*
X060094Y025050D01*
X060107Y025035D01*
G37*
G36*
X060094Y025050D02*
X060035Y025001D01*
X060022Y025016D01*
X060081Y025065D01*
X060094Y025050D01*
G37*
G36*
X060114Y025119D02*
X060055Y025070D01*
X060042Y025085D01*
X060101Y025134D01*
X060114Y025119D01*
G37*
G36*
X060212Y025124D02*
X060153Y025075D01*
X060140Y025090D01*
X060199Y025139D01*
X060212Y025124D01*
G37*
G36*
X060108Y025217D02*
X060049Y025168D01*
X060036Y025183D01*
X060095Y025232D01*
X060108Y025217D01*
G37*
G36*
X060523Y025488D02*
X060464Y025439D01*
X060451Y025454D01*
X060510Y025503D01*
X060523Y025488D01*
G37*
G36*
X060564Y025470D02*
X060505Y025421D01*
X060492Y025436D01*
X060551Y025485D01*
X060564Y025470D01*
G37*
G36*
X060604Y025453D02*
X060545Y025404D01*
X060532Y025419D01*
X060591Y025468D01*
X060604Y025453D01*
G37*
G36*
X060617Y025438D02*
X060558Y025389D01*
X060545Y025404D01*
X060604Y025453D01*
X060617Y025438D01*
G37*
G36*
X060657Y025420D02*
X060598Y025371D01*
X060585Y025386D01*
X060644Y025435D01*
X060657Y025420D01*
G37*
G36*
X060683Y025390D02*
X060624Y025341D01*
X060611Y025356D01*
X060670Y025405D01*
X060683Y025390D01*
G37*
G36*
X060695Y025375D02*
X060636Y025326D01*
X060623Y025341D01*
X060682Y025390D01*
X060695Y025375D01*
G37*
G36*
X060708Y025360D02*
X060649Y025311D01*
X060636Y025326D01*
X060695Y025375D01*
X060708Y025360D01*
G37*
G36*
X060720Y025345D02*
X060661Y025296D01*
X060648Y025311D01*
X060707Y025360D01*
X060720Y025345D01*
G37*
G36*
X060733Y025330D02*
X060674Y025281D01*
X060661Y025296D01*
X060720Y025345D01*
X060733Y025330D01*
G37*
G36*
X060746Y025315D02*
X060687Y025266D01*
X060674Y025281D01*
X060733Y025330D01*
X060746Y025315D01*
G37*
G36*
X060771Y025284D02*
X060712Y025235D01*
X060699Y025250D01*
X060758Y025299D01*
X060771Y025284D01*
G37*
G36*
X060796Y025255D02*
X060737Y025206D01*
X060724Y025221D01*
X060783Y025270D01*
X060796Y025255D01*
G37*
G36*
X060824Y025252D02*
X060765Y025203D01*
X060752Y025218D01*
X060811Y025267D01*
X060824Y025252D01*
G37*
G36*
X060847Y025194D02*
X060788Y025145D01*
X060775Y025160D01*
X060834Y025209D01*
X060847Y025194D01*
G37*
G36*
X060875Y025192D02*
X060816Y025143D01*
X060803Y025158D01*
X060862Y025207D01*
X060875Y025192D01*
G37*
G36*
X060872Y025164D02*
X060813Y025115D01*
X060800Y025130D01*
X060859Y025179D01*
X060872Y025164D01*
G37*
G36*
X060898Y025134D02*
X060839Y025085D01*
X060826Y025100D01*
X060885Y025149D01*
X060898Y025134D01*
G37*
G36*
X060923Y025104D02*
X060864Y025055D01*
X060851Y025070D01*
X060910Y025119D01*
X060923Y025104D01*
G37*
G36*
X060961Y025058D02*
X060902Y025009D01*
X060889Y025024D01*
X060948Y025073D01*
X060961Y025058D01*
G37*
G36*
X060974Y025043D02*
X060915Y024994D01*
X060902Y025009D01*
X060961Y025058D01*
X060974Y025043D01*
G37*
G36*
X060986Y025028D02*
X060927Y024979D01*
X060914Y024994D01*
X060973Y025043D01*
X060986Y025028D01*
G37*
G36*
X060999Y025013D02*
X060940Y024964D01*
X060927Y024979D01*
X060986Y025028D01*
X060999Y025013D01*
G37*
G36*
X061011Y024998D02*
X060952Y024949D01*
X060939Y024964D01*
X060998Y025013D01*
X061011Y024998D01*
G37*
G36*
X061024Y024983D02*
X060965Y024934D01*
X060952Y024949D01*
X061011Y024998D01*
X061024Y024983D01*
G37*
G36*
X061037Y024968D02*
X060978Y024919D01*
X060965Y024934D01*
X061024Y024983D01*
X061037Y024968D01*
G37*
G36*
X061049Y024953D02*
X060990Y024904D01*
X060977Y024919D01*
X061036Y024968D01*
X061049Y024953D01*
G37*
G36*
X061062Y024938D02*
X061003Y024889D01*
X060990Y024904D01*
X061049Y024953D01*
X061062Y024938D01*
G37*
G36*
X061075Y024923D02*
X061016Y024874D01*
X061003Y024889D01*
X061062Y024938D01*
X061075Y024923D01*
G37*
G36*
X061087Y024908D02*
X061028Y024859D01*
X061015Y024874D01*
X061074Y024923D01*
X061087Y024908D01*
G37*
G36*
X061100Y024893D02*
X061041Y024844D01*
X061028Y024859D01*
X061087Y024908D01*
X061100Y024893D01*
G37*
G36*
X061113Y024878D02*
X061054Y024829D01*
X061041Y024844D01*
X061100Y024893D01*
X061113Y024878D01*
G37*
G36*
X061125Y024862D02*
X061066Y024813D01*
X061053Y024828D01*
X061112Y024877D01*
X061125Y024862D01*
G37*
G36*
X061138Y024847D02*
X061079Y024798D01*
X061066Y024813D01*
X061125Y024862D01*
X061138Y024847D01*
G37*
G36*
X061151Y024832D02*
X061092Y024783D01*
X061079Y024798D01*
X061138Y024847D01*
X061151Y024832D01*
G37*
G36*
X061163Y024817D02*
X061104Y024768D01*
X061091Y024783D01*
X061150Y024832D01*
X061163Y024817D01*
G37*
G36*
X061176Y024802D02*
X061117Y024753D01*
X061104Y024768D01*
X061163Y024817D01*
X061176Y024802D01*
G37*
G36*
X061189Y024787D02*
X061130Y024738D01*
X061117Y024753D01*
X061176Y024802D01*
X061189Y024787D01*
G37*
G36*
X061201Y024772D02*
X061142Y024723D01*
X061129Y024738D01*
X061188Y024787D01*
X061201Y024772D01*
G37*
G36*
X061214Y024757D02*
X061155Y024708D01*
X061142Y024723D01*
X061201Y024772D01*
X061214Y024757D01*
G37*
G36*
X061227Y024742D02*
X061168Y024693D01*
X061155Y024708D01*
X061214Y024757D01*
X061227Y024742D01*
G37*
G36*
X061239Y024727D02*
X061180Y024678D01*
X061167Y024693D01*
X061226Y024742D01*
X061239Y024727D01*
G37*
G36*
X061252Y024712D02*
X061193Y024663D01*
X061180Y024678D01*
X061239Y024727D01*
X061252Y024712D01*
G37*
G36*
X061265Y024697D02*
X061206Y024648D01*
X061193Y024663D01*
X061252Y024712D01*
X061265Y024697D01*
G37*
G36*
X061277Y024681D02*
X061218Y024632D01*
X061205Y024647D01*
X061264Y024696D01*
X061277Y024681D01*
G37*
G36*
X061290Y024666D02*
X061231Y024617D01*
X061218Y024632D01*
X061277Y024681D01*
X061290Y024666D01*
G37*
G36*
X061302Y024651D02*
X061243Y024602D01*
X061230Y024617D01*
X061289Y024666D01*
X061302Y024651D01*
G37*
G36*
X061315Y024636D02*
X061256Y024587D01*
X061243Y024602D01*
X061302Y024651D01*
X061315Y024636D01*
G37*
G36*
X061328Y024621D02*
X061269Y024572D01*
X061256Y024587D01*
X061315Y024636D01*
X061328Y024621D01*
G37*
G36*
X061340Y024606D02*
X061281Y024557D01*
X061268Y024572D01*
X061327Y024621D01*
X061340Y024606D01*
G37*
G36*
X061353Y024591D02*
X061294Y024542D01*
X061281Y024557D01*
X061340Y024606D01*
X061353Y024591D01*
G37*
G36*
X061366Y024576D02*
X061307Y024527D01*
X061294Y024542D01*
X061353Y024591D01*
X061366Y024576D01*
G37*
G36*
X061378Y024561D02*
X061319Y024512D01*
X061306Y024527D01*
X061365Y024576D01*
X061378Y024561D01*
G37*
G36*
X061391Y024546D02*
X061332Y024497D01*
X061319Y024512D01*
X061378Y024561D01*
X061391Y024546D01*
G37*
G36*
X061404Y024531D02*
X061345Y024482D01*
X061332Y024497D01*
X061391Y024546D01*
X061404Y024531D01*
G37*
G36*
X061416Y024516D02*
X061357Y024467D01*
X061344Y024482D01*
X061403Y024531D01*
X061416Y024516D01*
G37*
G36*
X061429Y024501D02*
X061370Y024452D01*
X061357Y024467D01*
X061416Y024516D01*
X061429Y024501D01*
G37*
G36*
X061442Y024485D02*
X061383Y024436D01*
X061370Y024451D01*
X061429Y024500D01*
X061442Y024485D01*
G37*
G36*
X061454Y024470D02*
X061395Y024421D01*
X061382Y024436D01*
X061441Y024485D01*
X061454Y024470D01*
G37*
G36*
X061467Y024455D02*
X061408Y024406D01*
X061395Y024421D01*
X061454Y024470D01*
X061467Y024455D01*
G37*
G36*
X061480Y024440D02*
X061421Y024391D01*
X061408Y024406D01*
X061467Y024455D01*
X061480Y024440D01*
G37*
G36*
X060969Y024192D02*
X060910Y024143D01*
X060897Y024158D01*
X060956Y024207D01*
X060969Y024192D01*
G37*
G36*
X060994Y024161D02*
X060935Y024112D01*
X060922Y024127D01*
X060981Y024176D01*
X060994Y024161D01*
G37*
G36*
X061007Y024146D02*
X060948Y024097D01*
X060935Y024112D01*
X060994Y024161D01*
X061007Y024146D01*
G37*
G36*
X061020Y024131D02*
X060961Y024082D01*
X060948Y024097D01*
X061007Y024146D01*
X061020Y024131D01*
G37*
G36*
X061032Y024116D02*
X060973Y024067D01*
X060960Y024082D01*
X061019Y024131D01*
X061032Y024116D01*
G37*
G36*
X061045Y024101D02*
X060986Y024052D01*
X060973Y024067D01*
X061032Y024116D01*
X061045Y024101D01*
G37*
G36*
X061057Y024086D02*
X060998Y024037D01*
X060985Y024052D01*
X061044Y024101D01*
X061057Y024086D01*
G37*
G36*
X060941Y024194D02*
X060882Y024145D01*
X060869Y024160D01*
X060928Y024209D01*
X060941Y024194D01*
G37*
G36*
X060929Y024209D02*
X060870Y024160D01*
X060857Y024175D01*
X060916Y024224D01*
X060929Y024209D01*
G37*
G36*
X060903Y024239D02*
X060844Y024190D01*
X060831Y024205D01*
X060890Y024254D01*
X060903Y024239D01*
G37*
G36*
X060890Y024254D02*
X060831Y024205D01*
X060818Y024220D01*
X060877Y024269D01*
X060890Y024254D01*
G37*
G36*
X060878Y024269D02*
X060819Y024220D01*
X060806Y024235D01*
X060865Y024284D01*
X060878Y024269D01*
G37*
G36*
X060865Y024284D02*
X060806Y024235D01*
X060793Y024250D01*
X060852Y024299D01*
X060865Y024284D01*
G37*
G36*
X060852Y024300D02*
X060793Y024251D01*
X060780Y024266D01*
X060839Y024315D01*
X060852Y024300D01*
G37*
G36*
X060787Y024347D02*
X060728Y024298D01*
X060715Y024313D01*
X060774Y024362D01*
X060787Y024347D01*
G37*
G36*
X060774Y024362D02*
X060715Y024313D01*
X060702Y024328D01*
X060761Y024377D01*
X060774Y024362D01*
G37*
G36*
X060762Y024377D02*
X060703Y024328D01*
X060690Y024343D01*
X060749Y024392D01*
X060762Y024377D01*
G37*
G36*
X060749Y024393D02*
X060690Y024344D01*
X060677Y024359D01*
X060736Y024408D01*
X060749Y024393D01*
G37*
G36*
X060736Y024408D02*
X060677Y024359D01*
X060664Y024374D01*
X060723Y024423D01*
X060736Y024408D01*
G37*
G36*
X060709Y024410D02*
X060650Y024361D01*
X060637Y024376D01*
X060696Y024425D01*
X060709Y024410D01*
G37*
G36*
X060696Y024425D02*
X060637Y024376D01*
X060624Y024391D01*
X060683Y024440D01*
X060696Y024425D01*
G37*
G36*
X060671Y024455D02*
X060612Y024406D01*
X060599Y024421D01*
X060658Y024470D01*
X060671Y024455D01*
G37*
G36*
X060658Y024470D02*
X060599Y024421D01*
X060586Y024436D01*
X060645Y024485D01*
X060658Y024470D01*
G37*
G36*
X060618Y024488D02*
X060559Y024439D01*
X060546Y024454D01*
X060605Y024503D01*
X060618Y024488D01*
G37*
G36*
X060605Y024503D02*
X060546Y024454D01*
X060533Y024469D01*
X060592Y024518D01*
X060605Y024503D01*
G37*
G36*
X060592Y024518D02*
X060533Y024469D01*
X060520Y024484D01*
X060579Y024533D01*
X060592Y024518D01*
G37*
G36*
X060567Y024548D02*
X060508Y024499D01*
X060495Y024514D01*
X060554Y024563D01*
X060567Y024548D01*
G37*
G36*
X060539Y024550D02*
X060480Y024501D01*
X060467Y024516D01*
X060526Y024565D01*
X060539Y024550D01*
G37*
G36*
X060630Y025423D02*
X060571Y025374D01*
X060558Y025389D01*
X060617Y025438D01*
X060630Y025423D01*
G37*
G36*
X060576Y025455D02*
X060517Y025406D01*
X060504Y025421D01*
X060563Y025470D01*
X060576Y025455D01*
G37*
D21*
G36*
X060551Y025485D02*
X060477Y025423D01*
X060465Y025439D01*
X060539Y025501D01*
X060551Y025485D01*
G37*
G36*
X060402Y025540D02*
X060328Y025478D01*
X060316Y025494D01*
X060390Y025556D01*
X060402Y025540D01*
G37*
G36*
X060404Y025568D02*
X060330Y025506D01*
X060318Y025522D01*
X060392Y025584D01*
X060404Y025568D01*
G37*
G36*
X060836Y025237D02*
X060762Y025175D01*
X060750Y025191D01*
X060824Y025253D01*
X060836Y025237D01*
G37*
G36*
X060950Y025101D02*
X060876Y025039D01*
X060864Y025055D01*
X060938Y025117D01*
X060950Y025101D01*
G37*
G36*
X060963Y025086D02*
X060889Y025024D01*
X060877Y025040D01*
X060951Y025102D01*
X060963Y025086D01*
G37*
G36*
X060579Y024533D02*
X060505Y024471D01*
X060493Y024487D01*
X060567Y024549D01*
X060579Y024533D01*
G37*
G36*
X060645Y024485D02*
X060571Y024423D01*
X060559Y024439D01*
X060633Y024501D01*
X060645Y024485D01*
G37*
G36*
X060698Y024452D02*
X060624Y024390D01*
X060612Y024406D01*
X060686Y024468D01*
X060698Y024452D01*
G37*
G36*
X060814Y024344D02*
X060740Y024282D01*
X060728Y024298D01*
X060802Y024360D01*
X060814Y024344D01*
G37*
G36*
X060839Y024314D02*
X060765Y024252D01*
X060753Y024268D01*
X060827Y024330D01*
X060839Y024314D01*
G37*
G36*
X060930Y024236D02*
X060856Y024174D01*
X060844Y024190D01*
X060918Y024252D01*
X060930Y024236D01*
G37*
G36*
X060981Y024176D02*
X060907Y024114D01*
X060895Y024130D01*
X060969Y024192D01*
X060981Y024176D01*
G37*
G36*
X060287Y024544D02*
X060213Y024482D01*
X060201Y024498D01*
X060275Y024560D01*
X060287Y024544D01*
G37*
G36*
X060231Y024549D02*
X060157Y024487D01*
X060145Y024503D01*
X060219Y024565D01*
X060231Y024549D01*
G37*
G36*
X060191Y024567D02*
X060117Y024505D01*
X060105Y024521D01*
X060179Y024583D01*
X060191Y024567D01*
G37*
G36*
X060163Y024569D02*
X060089Y024507D01*
X060077Y024523D01*
X060151Y024585D01*
X060163Y024569D01*
G37*
G36*
X060150Y024584D02*
X060076Y024522D01*
X060064Y024538D01*
X060138Y024600D01*
X060150Y024584D01*
G37*
G36*
X060165Y024750D02*
X060091Y024688D01*
X060079Y024704D01*
X060153Y024766D01*
X060165Y024750D01*
G37*
G36*
X060142Y024808D02*
X060068Y024746D01*
X060056Y024762D01*
X060130Y024824D01*
X060142Y024808D01*
G37*
G36*
X060102Y024826D02*
X060028Y024764D01*
X060016Y024780D01*
X060090Y024842D01*
X060102Y024826D01*
G37*
G36*
X060021Y024861D02*
X059947Y024799D01*
X059935Y024815D01*
X060009Y024877D01*
X060021Y024861D01*
G37*
G36*
X060033Y025153D02*
X059959Y025091D01*
X059947Y025107D01*
X060021Y025169D01*
X060033Y025153D01*
G37*
G36*
X059794Y024979D02*
X059720Y024917D01*
X059708Y024933D01*
X059782Y024995D01*
X059794Y024979D01*
G37*
D22*
G36*
X059981Y024878D02*
X059938Y024842D01*
X059925Y024858D01*
X059968Y024894D01*
X059981Y024878D01*
G37*
G36*
X060000Y025100D02*
X059957Y025064D01*
X059944Y025080D01*
X059987Y025116D01*
X060000Y025100D01*
G37*
G36*
X060050Y025193D02*
X060007Y025157D01*
X059994Y025173D01*
X060037Y025209D01*
X060050Y025193D01*
G37*
G36*
X060136Y025214D02*
X060093Y025178D01*
X060080Y025194D01*
X060123Y025230D01*
X060136Y025214D01*
G37*
G36*
X060179Y025224D02*
X060136Y025188D01*
X060123Y025204D01*
X060166Y025240D01*
X060179Y025224D01*
G37*
G36*
X060077Y025498D02*
X060034Y025462D01*
X060021Y025478D01*
X060064Y025514D01*
X060077Y025498D01*
G37*
G36*
X060654Y025392D02*
X060611Y025356D01*
X060598Y025372D01*
X060641Y025408D01*
X060654Y025392D01*
G37*
G36*
X060758Y025299D02*
X060715Y025263D01*
X060702Y025279D01*
X060745Y025315D01*
X060758Y025299D01*
G37*
G36*
X060783Y025269D02*
X060740Y025233D01*
X060727Y025249D01*
X060770Y025285D01*
X060783Y025269D01*
G37*
G36*
X060834Y025209D02*
X060791Y025173D01*
X060778Y025189D01*
X060821Y025225D01*
X060834Y025209D01*
G37*
G36*
X060885Y025148D02*
X060842Y025112D01*
X060829Y025128D01*
X060872Y025164D01*
X060885Y025148D01*
G37*
G36*
X060910Y025118D02*
X060867Y025082D01*
X060854Y025098D01*
X060897Y025134D01*
X060910Y025118D01*
G37*
G36*
X060812Y024316D02*
X060769Y024280D01*
X060756Y024296D01*
X060799Y024332D01*
X060812Y024316D01*
G37*
D23*
G36*
X060526Y024566D02*
X060437Y024491D01*
X060424Y024506D01*
X060513Y024581D01*
X060526Y024566D01*
G37*
G36*
X060330Y024555D02*
X060241Y024480D01*
X060228Y024495D01*
X060317Y024570D01*
X060330Y024555D01*
G37*
G36*
X060275Y024560D02*
X060186Y024485D01*
X060173Y024500D01*
X060262Y024575D01*
X060275Y024560D01*
G37*
G36*
X060219Y024565D02*
X060130Y024490D01*
X060117Y024505D01*
X060206Y024580D01*
X060219Y024565D01*
G37*
G36*
X060138Y024600D02*
X060049Y024525D01*
X060036Y024540D01*
X060125Y024615D01*
X060138Y024600D01*
G37*
G36*
X060163Y024723D02*
X060074Y024648D01*
X060061Y024663D01*
X060150Y024738D01*
X060163Y024723D01*
G37*
G36*
X059804Y024936D02*
X059715Y024861D01*
X059702Y024876D01*
X059791Y024951D01*
X059804Y024936D01*
G37*
G36*
X059807Y024964D02*
X059718Y024889D01*
X059705Y024904D01*
X059794Y024979D01*
X059807Y024964D01*
G37*
G36*
X060443Y025523D02*
X060354Y025448D01*
X060341Y025463D01*
X060430Y025538D01*
X060443Y025523D01*
G37*
G36*
X060430Y025538D02*
X060341Y025463D01*
X060328Y025478D01*
X060417Y025553D01*
X060430Y025538D01*
G37*
G36*
X060407Y025596D02*
X060318Y025521D01*
X060305Y025536D01*
X060394Y025611D01*
X060407Y025596D01*
G37*
G36*
X059476Y024378D02*
X059387Y024303D01*
X059374Y024318D01*
X059463Y024393D01*
X059476Y024378D01*
G37*
D24*
G36*
X059509Y024431D02*
X059390Y024332D01*
X059377Y024347D01*
X059496Y024446D01*
X059509Y024431D01*
G37*
G36*
X059844Y025072D02*
X059725Y024973D01*
X059712Y024988D01*
X059831Y025087D01*
X059844Y025072D01*
G37*
G36*
X060157Y025129D02*
X060038Y025030D01*
X060025Y025045D01*
X060144Y025144D01*
X060157Y025129D01*
G37*
G36*
X060511Y025503D02*
X060392Y025404D01*
X060379Y025419D01*
X060498Y025518D01*
X060511Y025503D01*
G37*
G36*
X060394Y025611D02*
X060275Y025512D01*
X060262Y025527D01*
X060381Y025626D01*
X060394Y025611D01*
G37*
G36*
X060514Y024580D02*
X060395Y024481D01*
X060382Y024496D01*
X060501Y024595D01*
X060514Y024580D01*
G37*
G36*
X060400Y024562D02*
X060281Y024463D01*
X060268Y024478D01*
X060387Y024577D01*
X060400Y024562D01*
G37*
D25*
G36*
X060473Y024598D02*
X060324Y024473D01*
X060311Y024488D01*
X060460Y024613D01*
X060473Y024598D01*
G37*
G36*
X060501Y024596D02*
X060352Y024471D01*
X060339Y024486D01*
X060488Y024611D01*
X060501Y024596D01*
G37*
G36*
X060311Y024976D02*
X060162Y024851D01*
X060149Y024866D01*
X060298Y024991D01*
X060311Y024976D01*
G37*
G36*
X059541Y024484D02*
X059392Y024359D01*
X059379Y024374D01*
X059528Y024499D01*
X059541Y024484D01*
G37*
G36*
X059600Y024353D02*
X059451Y024228D01*
X059438Y024243D01*
X059587Y024368D01*
X059600Y024353D01*
G37*
D26*
G36*
X059721Y024454D02*
X059616Y024366D01*
X059603Y024382D01*
X059708Y024470D01*
X059721Y024454D01*
G37*
G36*
X059504Y024375D02*
X059399Y024287D01*
X059386Y024303D01*
X059491Y024391D01*
X059504Y024375D01*
G37*
G36*
X060358Y024552D02*
X060253Y024464D01*
X060240Y024480D01*
X060345Y024568D01*
X060358Y024552D01*
G37*
G36*
X060243Y024996D02*
X060138Y024908D01*
X060125Y024924D01*
X060230Y025012D01*
X060243Y024996D01*
G37*
G36*
X059827Y025032D02*
X059722Y024944D01*
X059709Y024960D01*
X059814Y025048D01*
X059827Y025032D01*
G37*
G36*
X059957Y025398D02*
X059852Y025310D01*
X059839Y025326D01*
X059944Y025414D01*
X059957Y025398D01*
G37*
G36*
X060471Y025520D02*
X060366Y025432D01*
X060353Y025448D01*
X060458Y025536D01*
X060471Y025520D01*
G37*
G36*
X060483Y025505D02*
X060378Y025417D01*
X060365Y025433D01*
X060470Y025521D01*
X060483Y025505D01*
G37*
D27*
G36*
X060248Y025051D02*
X060083Y024913D01*
X060070Y024929D01*
X060235Y025067D01*
X060248Y025051D01*
G37*
G36*
X060171Y024652D02*
X060006Y024514D01*
X059993Y024530D01*
X060158Y024668D01*
X060171Y024652D01*
G37*
G36*
X059643Y024363D02*
X059478Y024225D01*
X059465Y024241D01*
X059630Y024379D01*
X059643Y024363D01*
G37*
D28*
G36*
X059709Y024317D02*
X059694Y024304D01*
X059681Y024319D01*
X059696Y024332D01*
X059709Y024317D01*
G37*
G36*
X059751Y024481D02*
X059736Y024468D01*
X059723Y024483D01*
X059738Y024496D01*
X059751Y024481D01*
G37*
G36*
X059701Y024541D02*
X059686Y024528D01*
X059673Y024543D01*
X059688Y024556D01*
X059701Y024541D01*
G37*
G36*
X059640Y024490D02*
X059625Y024477D01*
X059612Y024492D01*
X059627Y024505D01*
X059640Y024490D01*
G37*
G36*
X059610Y024465D02*
X059595Y024452D01*
X059582Y024467D01*
X059597Y024480D01*
X059610Y024465D01*
G37*
G36*
X059580Y024440D02*
X059565Y024427D01*
X059552Y024442D01*
X059567Y024455D01*
X059580Y024440D01*
G37*
G36*
X059620Y024576D02*
X059605Y024563D01*
X059592Y024578D01*
X059607Y024591D01*
X059620Y024576D01*
G37*
G36*
X059602Y024690D02*
X059587Y024677D01*
X059574Y024692D01*
X059589Y024705D01*
X059602Y024690D01*
G37*
G36*
X059854Y024695D02*
X059839Y024682D01*
X059826Y024697D01*
X059841Y024710D01*
X059854Y024695D01*
G37*
G36*
X059965Y024686D02*
X059950Y024673D01*
X059937Y024688D01*
X059952Y024701D01*
X059965Y024686D01*
G37*
G36*
X060058Y024636D02*
X060043Y024623D01*
X060030Y024638D01*
X060045Y024651D01*
X060058Y024636D01*
G37*
G36*
X059897Y024552D02*
X059882Y024539D01*
X059869Y024554D01*
X059884Y024567D01*
X059897Y024552D01*
G37*
G36*
X059842Y024557D02*
X059827Y024544D01*
X059814Y024559D01*
X059829Y024572D01*
X059842Y024557D01*
G37*
G36*
X059887Y024441D02*
X059872Y024428D01*
X059859Y024443D01*
X059874Y024456D01*
X059887Y024441D01*
G37*
G36*
X060052Y024888D02*
X060037Y024875D01*
X060024Y024890D01*
X060039Y024903D01*
X060052Y024888D01*
G37*
G36*
X060040Y024902D02*
X060025Y024889D01*
X060012Y024904D01*
X060027Y024917D01*
X060040Y024902D01*
G37*
G36*
X060002Y024948D02*
X059987Y024935D01*
X059974Y024950D01*
X059989Y024963D01*
X060002Y024948D01*
G37*
G36*
X059976Y024978D02*
X059961Y024965D01*
X059948Y024980D01*
X059963Y024993D01*
X059976Y024978D01*
G37*
G36*
X059991Y025144D02*
X059976Y025131D01*
X059963Y025146D01*
X059978Y025159D01*
X059991Y025144D01*
G37*
G36*
X060192Y025211D02*
X060177Y025198D01*
X060164Y025213D01*
X060179Y025226D01*
X060192Y025211D01*
G37*
G36*
X060233Y025193D02*
X060218Y025180D01*
X060205Y025195D01*
X060220Y025208D01*
X060233Y025193D01*
G37*
G36*
X060286Y025161D02*
X060271Y025148D01*
X060258Y025163D01*
X060273Y025176D01*
X060286Y025161D01*
G37*
G36*
X060298Y025145D02*
X060283Y025132D01*
X060270Y025147D01*
X060285Y025160D01*
X060298Y025145D01*
G37*
G36*
X060434Y025413D02*
X060419Y025400D01*
X060406Y025415D01*
X060421Y025428D01*
X060434Y025413D01*
G37*
G36*
X060151Y025536D02*
X060136Y025523D01*
X060123Y025538D01*
X060138Y025551D01*
X060151Y025536D01*
G37*
G36*
X059899Y025376D02*
X059884Y025363D01*
X059871Y025378D01*
X059886Y025391D01*
X059899Y025376D01*
G37*
G36*
X059869Y025350D02*
X059854Y025337D01*
X059841Y025352D01*
X059856Y025365D01*
X059869Y025350D01*
G37*
G36*
X059834Y025270D02*
X059819Y025257D01*
X059806Y025272D01*
X059821Y025285D01*
X059834Y025270D01*
G37*
G36*
X059679Y025088D02*
X059664Y025075D01*
X059651Y025090D01*
X059666Y025103D01*
X059679Y025088D01*
G37*
D29*
G36*
X060174Y024681D02*
X059903Y024454D01*
X059890Y024469D01*
X060161Y024696D01*
X060174Y024681D01*
G37*
D30*
G36*
X060160Y024695D02*
X059725Y024330D01*
X059712Y024345D01*
X060147Y024710D01*
X060160Y024695D01*
G37*
G36*
X060027Y024609D02*
X059592Y024244D01*
X059579Y024259D01*
X060014Y024624D01*
X060027Y024609D01*
G37*
D31*
G36*
X059939Y024561D02*
X059534Y024222D01*
X059521Y024237D01*
X059926Y024576D01*
X059939Y024561D01*
G37*
D32*
G36*
X059915Y024927D02*
X059539Y024612D01*
X059527Y024627D01*
X059903Y024942D01*
X059915Y024927D01*
G37*
G36*
X059866Y024526D02*
X059490Y024211D01*
X059478Y024226D01*
X059854Y024541D01*
X059866Y024526D01*
G37*
D33*
G36*
X059795Y024517D02*
X059767Y024494D01*
X059755Y024509D01*
X059783Y024532D01*
X059795Y024517D01*
G37*
G36*
X059744Y024578D02*
X059716Y024555D01*
X059704Y024570D01*
X059732Y024593D01*
X059744Y024578D01*
G37*
G36*
X059681Y024653D02*
X059653Y024630D01*
X059641Y024645D01*
X059669Y024668D01*
X059681Y024653D01*
G37*
G36*
X059548Y024413D02*
X059520Y024390D01*
X059508Y024405D01*
X059536Y024428D01*
X059548Y024413D01*
G37*
G36*
X060025Y024916D02*
X059997Y024893D01*
X059985Y024908D01*
X060013Y024931D01*
X060025Y024916D01*
G37*
G36*
X060013Y024931D02*
X059985Y024908D01*
X059973Y024923D01*
X060001Y024946D01*
X060013Y024931D01*
G37*
G36*
X059988Y024962D02*
X059960Y024939D01*
X059948Y024954D01*
X059976Y024977D01*
X059988Y024962D01*
G37*
G36*
X059977Y025004D02*
X059949Y024981D01*
X059937Y024996D01*
X059965Y025019D01*
X059977Y025004D01*
G37*
G36*
X059980Y025032D02*
X059952Y025009D01*
X059940Y025024D01*
X059968Y025047D01*
X059980Y025032D01*
G37*
G36*
X059982Y025060D02*
X059954Y025037D01*
X059942Y025052D01*
X059970Y025075D01*
X059982Y025060D01*
G37*
G36*
X060184Y025126D02*
X060156Y025103D01*
X060144Y025118D01*
X060172Y025141D01*
X060184Y025126D01*
G37*
G36*
X060219Y025207D02*
X060191Y025184D01*
X060179Y025199D01*
X060207Y025222D01*
X060219Y025207D01*
G37*
G36*
X060259Y025189D02*
X060231Y025166D01*
X060219Y025181D01*
X060247Y025204D01*
X060259Y025189D01*
G37*
G36*
X060272Y025174D02*
X060244Y025151D01*
X060232Y025166D01*
X060260Y025189D01*
X060272Y025174D01*
G37*
G36*
X060309Y025129D02*
X060281Y025106D01*
X060269Y025121D01*
X060297Y025144D01*
X060309Y025129D01*
G37*
G36*
X060322Y025114D02*
X060294Y025091D01*
X060282Y025106D01*
X060310Y025129D01*
X060322Y025114D01*
G37*
G36*
X060320Y025086D02*
X060292Y025063D01*
X060280Y025078D01*
X060308Y025101D01*
X060320Y025086D01*
G37*
G36*
X060317Y025058D02*
X060289Y025035D01*
X060277Y025050D01*
X060305Y025073D01*
X060317Y025058D01*
G37*
G36*
X060315Y025031D02*
X060287Y025008D01*
X060275Y025023D01*
X060303Y025046D01*
X060315Y025031D01*
G37*
G36*
X060312Y025003D02*
X060284Y024980D01*
X060272Y024995D01*
X060300Y025018D01*
X060312Y025003D01*
G37*
G36*
X060262Y024910D02*
X060234Y024887D01*
X060222Y024902D01*
X060250Y024925D01*
X060262Y024910D01*
G37*
G36*
X060162Y024876D02*
X060134Y024853D01*
X060122Y024868D01*
X060150Y024891D01*
X060162Y024876D01*
G37*
G36*
X060134Y024879D02*
X060106Y024856D01*
X060094Y024871D01*
X060122Y024894D01*
X060134Y024879D01*
G37*
G36*
X060106Y024881D02*
X060078Y024858D01*
X060066Y024873D01*
X060094Y024896D01*
X060106Y024881D01*
G37*
G36*
X059737Y025137D02*
X059709Y025114D01*
X059697Y025129D01*
X059725Y025152D01*
X059737Y025137D01*
G37*
D34*
G36*
X059934Y024659D02*
X059453Y024255D01*
X059440Y024271D01*
X059921Y024675D01*
X059934Y024659D01*
G37*
D35*
G36*
X060012Y024751D02*
X059425Y024258D01*
X059412Y024273D01*
X059999Y024766D01*
X060012Y024751D01*
G37*
D36*
G36*
X060090Y024842D02*
X059413Y024273D01*
X059400Y024288D01*
X060077Y024857D01*
X060090Y024842D01*
G37*
D37*
G36*
X060062Y024844D02*
X059761Y024592D01*
X059748Y024608D01*
X060049Y024860D01*
X060062Y024844D01*
G37*
D38*
G36*
X060080Y024884D02*
X059885Y024721D01*
X059872Y024736D01*
X060067Y024899D01*
X060080Y024884D01*
G37*
G36*
X059589Y024550D02*
X059394Y024387D01*
X059381Y024402D01*
X059576Y024565D01*
X059589Y024550D01*
G37*
D39*
G36*
X059862Y024958D02*
X059729Y024846D01*
X059716Y024862D01*
X059849Y024974D01*
X059862Y024958D01*
G37*
G36*
X059861Y025112D02*
X059728Y025000D01*
X059715Y025016D01*
X059848Y025128D01*
X059861Y025112D01*
G37*
G36*
X059833Y025115D02*
X059700Y025003D01*
X059687Y025019D01*
X059820Y025131D01*
X059833Y025115D01*
G37*
G36*
X060260Y025035D02*
X060127Y024923D01*
X060114Y024939D01*
X060247Y025051D01*
X060260Y025035D01*
G37*
D40*
G36*
X060250Y025079D02*
X060071Y024928D01*
X060058Y024943D01*
X060237Y025094D01*
X060250Y025079D01*
G37*
G36*
X060237Y025094D02*
X060058Y024943D01*
X060045Y024958D01*
X060224Y025109D01*
X060237Y025094D01*
G37*
G36*
X060224Y025109D02*
X060045Y024958D01*
X060032Y024973D01*
X060211Y025124D01*
X060224Y025109D01*
G37*
D41*
G36*
X059890Y024956D02*
X059665Y024768D01*
X059652Y024784D01*
X059877Y024972D01*
X059890Y024956D01*
G37*
G36*
X059637Y024615D02*
X059412Y024427D01*
X059399Y024443D01*
X059624Y024631D01*
X059637Y024615D01*
G37*
G36*
X060382Y025625D02*
X060157Y025437D01*
X060144Y025453D01*
X060369Y025641D01*
X060382Y025625D01*
G37*
D42*
G36*
X059959Y025272D02*
X059674Y025033D01*
X059661Y025048D01*
X059946Y025287D01*
X059959Y025272D01*
G37*
G36*
X059903Y024941D02*
X059618Y024702D01*
X059605Y024717D01*
X059890Y024956D01*
X059903Y024941D01*
G37*
G36*
X059730Y024719D02*
X059445Y024480D01*
X059432Y024495D01*
X059717Y024734D01*
X059730Y024719D01*
G37*
D43*
G36*
X059807Y024810D02*
X059492Y024546D01*
X059479Y024562D01*
X059794Y024826D01*
X059807Y024810D01*
G37*
G36*
X059977Y025312D02*
X059662Y025048D01*
X059649Y025064D01*
X059964Y025328D01*
X059977Y025312D01*
G37*
D44*
G36*
X059897Y025194D02*
X059686Y025017D01*
X059673Y025032D01*
X059884Y025209D01*
X059897Y025194D01*
G37*
D45*
G36*
X060354Y025629D02*
X059993Y025326D01*
X059980Y025341D01*
X060341Y025644D01*
X060354Y025629D01*
G37*
D46*
G36*
X060312Y025619D02*
X059755Y025152D01*
X059742Y025167D01*
X060299Y025634D01*
X060312Y025619D01*
G37*
D47*
G36*
X060269Y025608D02*
X059802Y025217D01*
X059789Y025232D01*
X060256Y025623D01*
X060269Y025608D01*
G37*
D48*
G36*
X060120Y025509D02*
X059865Y025295D01*
X059852Y025311D01*
X060107Y025525D01*
X060120Y025509D01*
G37*
M02*
