%
M48
M72
T01C0.0150
T02C0.0197
T03C0.0236
T04C0.0315
T05C0.0400
T06C0.1260
%
T01
X32913Y20155
X36938Y22405
X45313Y23955
X48713Y21455
X16013Y23220
X15688Y23478
X12388Y23733
X12088Y23475
X12388Y23220
T02
X4449Y17075
X4055Y17075
X3661Y17075
X3268Y17075
X2874Y17075
X2874Y16075
X3268Y16075
X3661Y16075
X4055Y16075
X4449Y16075
X20874Y16075
X21268Y16075
X21661Y16075
X22055Y16075
X22449Y16075
X22449Y17075
X22055Y17075
X21661Y17075
X21268Y17075
X20874Y17075
X38874Y17075
X39268Y17075
X39661Y17075
X40055Y17075
X40449Y17075
X40449Y16075
X40055Y16075
X39661Y16075
X39268Y16075
X38874Y16075
X56878Y16085
X57272Y16085
X57665Y16085
X58059Y16085
X58453Y16085
X58453Y17085
X58059Y17085
X57665Y17085
X57272Y17085
X56878Y17085
T03
X52163Y12580
X51913Y11080
X48538Y11330
X48538Y12580
X54788Y9330
X54788Y8330
X52038Y8080
X50538Y7455
X50038Y8330
X49538Y8630
X49538Y9205
X48538Y8705
X47913Y7455
X47913Y5830
X49038Y5830
X50413Y5830
X54788Y6330
X54788Y5205
X58088Y5455
X59038Y5330
X59038Y6580
X59038Y8330
X42538Y5830
X41163Y5705
X41163Y7455
X41163Y8705
X41163Y10830
X41163Y11580
X41163Y12580
X32538Y11580
X32538Y10830
X32538Y8830
X29038Y5705
X32538Y5455
X36913Y5830
X24538Y9205
X24538Y11580
X18538Y11330
X16788Y11330
X17288Y10205
X16288Y8955
X17663Y7830
X10288Y8080
X10288Y7080
X10288Y9080
X10288Y10080
X10288Y11080
X10288Y12080
X10288Y13205
X16788Y13205
X28688Y19730
X31063Y20105
X31413Y20455
X31788Y20830
X32163Y21205
X32913Y21955
X29663Y21455
X28688Y21455
X27663Y21455
X27663Y20955
X26163Y20862
X26163Y21330
X24388Y20530
X23163Y21005
X22163Y21005
X21163Y21380
X18413Y23330
X18038Y23705
X17663Y24080
X30038Y23830
X35663Y19830
X37538Y19805
X48788Y21955
T04
X51538Y13580
X51538Y12580
X51538Y11580
X51538Y10580
X51538Y9580
X53288Y9330
X51538Y8580
X53288Y8330
X51538Y7580
X53288Y7330
X51538Y6580
X53288Y6330
X53288Y5330
X56288Y5330
X57538Y5330
X57538Y6330
X56288Y6330
X56288Y7330
X57538Y7330
X57538Y8330
X56288Y8330
X56288Y9330
X57538Y9330
X60538Y9330
X60538Y8330
X60538Y7330
X60538Y6330
X60538Y5330
X45538Y6580
X43538Y6580
X43538Y7580
X45538Y7580
X45538Y8580
X43538Y8580
X43538Y9580
X43538Y10580
X45538Y10580
X45538Y9580
X45538Y11580
X43538Y11580
X43538Y12580
X45538Y12580
X45538Y13580
X43538Y13580
X37538Y13580
X35538Y13580
X35538Y12580
X37538Y12580
X37538Y11580
X35538Y11580
X35538Y10580
X35538Y9580
X37538Y9580
X37538Y10580
X37538Y8580
X35538Y8580
X35538Y7580
X37538Y7580
X37538Y6580
X35538Y6580
X29538Y6580
X29538Y7580
X29538Y8580
X29538Y9580
X29538Y10580
X29538Y11580
X29538Y12580
X29538Y13580
X27538Y13580
X27538Y12580
X27538Y11580
X27538Y10580
X27538Y9580
X27538Y8580
X27538Y7580
X27538Y6580
X21538Y6580
X21538Y7580
X21538Y8580
X21538Y9580
X21538Y10580
X21538Y11580
X21538Y12580
X21538Y13580
X19288Y13080
X19288Y12080
X19288Y11080
X19288Y10080
X19288Y9080
X19288Y8080
X19288Y7080
X19288Y6080
X14288Y6080
X12538Y6080
X12538Y7080
X14288Y7080
X14288Y8080
X12538Y8080
X12538Y9080
X14288Y9080
X14288Y10080
X12538Y10080
X12538Y11080
X14288Y11080
X14288Y12080
X12538Y12080
X12538Y13080
X14288Y13080
X14288Y14080
X12538Y14080
X7538Y14080
X6038Y14080
X6038Y13080
X7538Y13080
X7538Y12080
X6038Y12080
X6038Y11080
X6038Y10080
X7538Y10080
X7538Y11080
X7538Y9080
X6038Y9080
X6038Y8080
X7538Y8080
X7538Y7080
X6038Y7080
X6038Y6080
X7538Y6080
X1038Y6080
X1038Y7080
X1038Y8080
X1038Y9080
X1038Y10080
X1038Y11080
X1038Y12080
X1038Y13080
X1038Y14080
X19288Y14080
T05
X9788Y4080
X10788Y4080
X11788Y4080
X12788Y4080
X13788Y4080
X14788Y4080
X15788Y4080
X16788Y4080
X17788Y4080
X18788Y4080
X18788Y5080
X17788Y5080
X16788Y5080
X15788Y5080
X14788Y5080
X13788Y5080
X12788Y5080
X11788Y5080
X10788Y5080
X9788Y5080
X9788Y18580
X10788Y18580
X11788Y18580
X12788Y18580
X13788Y18580
X14788Y18580
X15788Y18580
X16788Y18580
X17788Y18580
X18788Y18580
X18788Y19580
X17788Y19580
X16788Y19580
X15788Y19580
X14788Y19580
X13788Y19580
X12788Y19580
X11788Y19580
X10788Y19580
X9788Y19580
X21163Y23830
X22163Y23830
X23163Y23830
X24163Y23830
X25163Y23830
X26163Y23830
X31538Y24205
X32538Y24305
X33538Y24205
X33538Y23205
X32538Y23305
X31538Y23205
X42538Y19580
X43538Y19580
X44538Y19580
X45538Y19580
X46538Y19580
X47538Y19580
X48538Y19580
X49538Y19580
X50538Y19580
X51538Y19580
X51538Y18580
X50538Y18580
X49538Y18580
X48538Y18580
X47538Y18580
X46538Y18580
X45538Y18580
X44538Y18580
X43538Y18580
X42538Y18580
X42538Y5080
X43538Y5080
X44538Y5080
X45538Y5080
X46538Y5080
X47538Y5080
X48538Y5080
X49538Y5080
X50538Y5080
X51538Y5080
X51538Y4080
X50538Y4080
X49538Y4080
X48538Y4080
X47538Y4080
X46538Y4080
X45538Y4080
X44538Y4080
X43538Y4080
X42538Y4080
T06
X54538Y19580
X54538Y24580
X7038Y23580
X7038Y19580
M30
