G75*
%MOIN*%
%OFA0B0*%
%FSLAX24Y24*%
%IPPOS*%
%LPD*%
%AMOC8*
5,1,8,0,0,1.08239X$1,22.5*
%
%ADD10C,0.0005*%
%ADD11C,0.0000*%
%ADD12C,0.0060*%
%ADD13C,0.0040*%
%ADD14C,0.0050*%
%ADD15C,0.0080*%
%ADD16C,0.0236*%
%ADD17C,0.0020*%
%ADD18R,0.0300X0.0340*%
%ADD19C,0.0059*%
%ADD20R,0.0079X0.0020*%
%ADD21R,0.0098X0.0020*%
%ADD22R,0.0059X0.0020*%
%ADD23R,0.0118X0.0020*%
%ADD24R,0.0157X0.0020*%
%ADD25R,0.0197X0.0020*%
%ADD26R,0.0138X0.0020*%
%ADD27R,0.0217X0.0020*%
%ADD28R,0.0020X0.0020*%
%ADD29R,0.0354X0.0020*%
%ADD30R,0.0571X0.0020*%
%ADD31R,0.0531X0.0020*%
%ADD32R,0.0492X0.0020*%
%ADD33R,0.0039X0.0020*%
%ADD34R,0.0630X0.0020*%
%ADD35R,0.0768X0.0020*%
%ADD36R,0.0886X0.0020*%
%ADD37R,0.0394X0.0020*%
%ADD38R,0.0256X0.0020*%
%ADD39R,0.0177X0.0020*%
%ADD40R,0.0236X0.0020*%
%ADD41R,0.0295X0.0020*%
%ADD42R,0.0374X0.0020*%
%ADD43R,0.0413X0.0020*%
%ADD44R,0.0276X0.0020*%
%ADD45R,0.0472X0.0020*%
%ADD46R,0.0728X0.0020*%
%ADD47R,0.0610X0.0020*%
%ADD48R,0.0335X0.0020*%
D10*
X000288Y003080D02*
X000288Y016080D01*
X002663Y016080D01*
X002663Y017080D01*
X000288Y017080D01*
X000288Y019330D01*
X000288Y026325D01*
X061030Y026325D01*
X061030Y019330D01*
X061030Y017080D01*
X058663Y017080D01*
X058663Y016080D01*
X061030Y016080D01*
X061030Y013830D01*
X061030Y003080D01*
X000288Y003080D01*
X004663Y016080D02*
X020663Y016080D01*
X020663Y017080D01*
X004663Y017080D01*
X004663Y016080D01*
X022663Y016080D02*
X038663Y016080D01*
X038663Y017080D01*
X022663Y017080D01*
X022663Y016080D01*
X040663Y016080D02*
X040663Y017080D01*
X056663Y017080D01*
X056663Y016080D01*
X040663Y016080D01*
D11*
X040351Y016075D02*
X040353Y016094D01*
X040358Y016113D01*
X040368Y016129D01*
X040380Y016144D01*
X040395Y016156D01*
X040411Y016166D01*
X040430Y016171D01*
X040449Y016173D01*
X040468Y016171D01*
X040487Y016166D01*
X040503Y016156D01*
X040518Y016144D01*
X040530Y016129D01*
X040540Y016113D01*
X040545Y016094D01*
X040547Y016075D01*
X040545Y016056D01*
X040540Y016037D01*
X040530Y016021D01*
X040518Y016006D01*
X040503Y015994D01*
X040487Y015984D01*
X040468Y015979D01*
X040449Y015977D01*
X040430Y015979D01*
X040411Y015984D01*
X040395Y015994D01*
X040380Y016006D01*
X040368Y016021D01*
X040358Y016037D01*
X040353Y016056D01*
X040351Y016075D01*
X039957Y016075D02*
X039959Y016094D01*
X039964Y016113D01*
X039974Y016129D01*
X039986Y016144D01*
X040001Y016156D01*
X040017Y016166D01*
X040036Y016171D01*
X040055Y016173D01*
X040074Y016171D01*
X040093Y016166D01*
X040109Y016156D01*
X040124Y016144D01*
X040136Y016129D01*
X040146Y016113D01*
X040151Y016094D01*
X040153Y016075D01*
X040151Y016056D01*
X040146Y016037D01*
X040136Y016021D01*
X040124Y016006D01*
X040109Y015994D01*
X040093Y015984D01*
X040074Y015979D01*
X040055Y015977D01*
X040036Y015979D01*
X040017Y015984D01*
X040001Y015994D01*
X039986Y016006D01*
X039974Y016021D01*
X039964Y016037D01*
X039959Y016056D01*
X039957Y016075D01*
X039563Y016075D02*
X039565Y016094D01*
X039570Y016113D01*
X039580Y016129D01*
X039592Y016144D01*
X039607Y016156D01*
X039623Y016166D01*
X039642Y016171D01*
X039661Y016173D01*
X039680Y016171D01*
X039699Y016166D01*
X039715Y016156D01*
X039730Y016144D01*
X039742Y016129D01*
X039752Y016113D01*
X039757Y016094D01*
X039759Y016075D01*
X039757Y016056D01*
X039752Y016037D01*
X039742Y016021D01*
X039730Y016006D01*
X039715Y015994D01*
X039699Y015984D01*
X039680Y015979D01*
X039661Y015977D01*
X039642Y015979D01*
X039623Y015984D01*
X039607Y015994D01*
X039592Y016006D01*
X039580Y016021D01*
X039570Y016037D01*
X039565Y016056D01*
X039563Y016075D01*
X039170Y016075D02*
X039172Y016094D01*
X039177Y016113D01*
X039187Y016129D01*
X039199Y016144D01*
X039214Y016156D01*
X039230Y016166D01*
X039249Y016171D01*
X039268Y016173D01*
X039287Y016171D01*
X039306Y016166D01*
X039322Y016156D01*
X039337Y016144D01*
X039349Y016129D01*
X039359Y016113D01*
X039364Y016094D01*
X039366Y016075D01*
X039364Y016056D01*
X039359Y016037D01*
X039349Y016021D01*
X039337Y016006D01*
X039322Y015994D01*
X039306Y015984D01*
X039287Y015979D01*
X039268Y015977D01*
X039249Y015979D01*
X039230Y015984D01*
X039214Y015994D01*
X039199Y016006D01*
X039187Y016021D01*
X039177Y016037D01*
X039172Y016056D01*
X039170Y016075D01*
X038776Y016075D02*
X038778Y016094D01*
X038783Y016113D01*
X038793Y016129D01*
X038805Y016144D01*
X038820Y016156D01*
X038836Y016166D01*
X038855Y016171D01*
X038874Y016173D01*
X038893Y016171D01*
X038912Y016166D01*
X038928Y016156D01*
X038943Y016144D01*
X038955Y016129D01*
X038965Y016113D01*
X038970Y016094D01*
X038972Y016075D01*
X038970Y016056D01*
X038965Y016037D01*
X038955Y016021D01*
X038943Y016006D01*
X038928Y015994D01*
X038912Y015984D01*
X038893Y015979D01*
X038874Y015977D01*
X038855Y015979D01*
X038836Y015984D01*
X038820Y015994D01*
X038805Y016006D01*
X038793Y016021D01*
X038783Y016037D01*
X038778Y016056D01*
X038776Y016075D01*
X038663Y016080D02*
X036288Y016080D01*
X038776Y017075D02*
X038778Y017094D01*
X038783Y017113D01*
X038793Y017129D01*
X038805Y017144D01*
X038820Y017156D01*
X038836Y017166D01*
X038855Y017171D01*
X038874Y017173D01*
X038893Y017171D01*
X038912Y017166D01*
X038928Y017156D01*
X038943Y017144D01*
X038955Y017129D01*
X038965Y017113D01*
X038970Y017094D01*
X038972Y017075D01*
X038970Y017056D01*
X038965Y017037D01*
X038955Y017021D01*
X038943Y017006D01*
X038928Y016994D01*
X038912Y016984D01*
X038893Y016979D01*
X038874Y016977D01*
X038855Y016979D01*
X038836Y016984D01*
X038820Y016994D01*
X038805Y017006D01*
X038793Y017021D01*
X038783Y017037D01*
X038778Y017056D01*
X038776Y017075D01*
X039170Y017075D02*
X039172Y017094D01*
X039177Y017113D01*
X039187Y017129D01*
X039199Y017144D01*
X039214Y017156D01*
X039230Y017166D01*
X039249Y017171D01*
X039268Y017173D01*
X039287Y017171D01*
X039306Y017166D01*
X039322Y017156D01*
X039337Y017144D01*
X039349Y017129D01*
X039359Y017113D01*
X039364Y017094D01*
X039366Y017075D01*
X039364Y017056D01*
X039359Y017037D01*
X039349Y017021D01*
X039337Y017006D01*
X039322Y016994D01*
X039306Y016984D01*
X039287Y016979D01*
X039268Y016977D01*
X039249Y016979D01*
X039230Y016984D01*
X039214Y016994D01*
X039199Y017006D01*
X039187Y017021D01*
X039177Y017037D01*
X039172Y017056D01*
X039170Y017075D01*
X039563Y017075D02*
X039565Y017094D01*
X039570Y017113D01*
X039580Y017129D01*
X039592Y017144D01*
X039607Y017156D01*
X039623Y017166D01*
X039642Y017171D01*
X039661Y017173D01*
X039680Y017171D01*
X039699Y017166D01*
X039715Y017156D01*
X039730Y017144D01*
X039742Y017129D01*
X039752Y017113D01*
X039757Y017094D01*
X039759Y017075D01*
X039757Y017056D01*
X039752Y017037D01*
X039742Y017021D01*
X039730Y017006D01*
X039715Y016994D01*
X039699Y016984D01*
X039680Y016979D01*
X039661Y016977D01*
X039642Y016979D01*
X039623Y016984D01*
X039607Y016994D01*
X039592Y017006D01*
X039580Y017021D01*
X039570Y017037D01*
X039565Y017056D01*
X039563Y017075D01*
X039957Y017075D02*
X039959Y017094D01*
X039964Y017113D01*
X039974Y017129D01*
X039986Y017144D01*
X040001Y017156D01*
X040017Y017166D01*
X040036Y017171D01*
X040055Y017173D01*
X040074Y017171D01*
X040093Y017166D01*
X040109Y017156D01*
X040124Y017144D01*
X040136Y017129D01*
X040146Y017113D01*
X040151Y017094D01*
X040153Y017075D01*
X040151Y017056D01*
X040146Y017037D01*
X040136Y017021D01*
X040124Y017006D01*
X040109Y016994D01*
X040093Y016984D01*
X040074Y016979D01*
X040055Y016977D01*
X040036Y016979D01*
X040017Y016984D01*
X040001Y016994D01*
X039986Y017006D01*
X039974Y017021D01*
X039964Y017037D01*
X039959Y017056D01*
X039957Y017075D01*
X040351Y017075D02*
X040353Y017094D01*
X040358Y017113D01*
X040368Y017129D01*
X040380Y017144D01*
X040395Y017156D01*
X040411Y017166D01*
X040430Y017171D01*
X040449Y017173D01*
X040468Y017171D01*
X040487Y017166D01*
X040503Y017156D01*
X040518Y017144D01*
X040530Y017129D01*
X040540Y017113D01*
X040545Y017094D01*
X040547Y017075D01*
X040545Y017056D01*
X040540Y017037D01*
X040530Y017021D01*
X040518Y017006D01*
X040503Y016994D01*
X040487Y016984D01*
X040468Y016979D01*
X040449Y016977D01*
X040430Y016979D01*
X040411Y016984D01*
X040395Y016994D01*
X040380Y017006D01*
X040368Y017021D01*
X040358Y017037D01*
X040353Y017056D01*
X040351Y017075D01*
X056780Y017085D02*
X056782Y017104D01*
X056787Y017123D01*
X056797Y017139D01*
X056809Y017154D01*
X056824Y017166D01*
X056840Y017176D01*
X056859Y017181D01*
X056878Y017183D01*
X056897Y017181D01*
X056916Y017176D01*
X056932Y017166D01*
X056947Y017154D01*
X056959Y017139D01*
X056969Y017123D01*
X056974Y017104D01*
X056976Y017085D01*
X056974Y017066D01*
X056969Y017047D01*
X056959Y017031D01*
X056947Y017016D01*
X056932Y017004D01*
X056916Y016994D01*
X056897Y016989D01*
X056878Y016987D01*
X056859Y016989D01*
X056840Y016994D01*
X056824Y017004D01*
X056809Y017016D01*
X056797Y017031D01*
X056787Y017047D01*
X056782Y017066D01*
X056780Y017085D01*
X057174Y017085D02*
X057176Y017104D01*
X057181Y017123D01*
X057191Y017139D01*
X057203Y017154D01*
X057218Y017166D01*
X057234Y017176D01*
X057253Y017181D01*
X057272Y017183D01*
X057291Y017181D01*
X057310Y017176D01*
X057326Y017166D01*
X057341Y017154D01*
X057353Y017139D01*
X057363Y017123D01*
X057368Y017104D01*
X057370Y017085D01*
X057368Y017066D01*
X057363Y017047D01*
X057353Y017031D01*
X057341Y017016D01*
X057326Y017004D01*
X057310Y016994D01*
X057291Y016989D01*
X057272Y016987D01*
X057253Y016989D01*
X057234Y016994D01*
X057218Y017004D01*
X057203Y017016D01*
X057191Y017031D01*
X057181Y017047D01*
X057176Y017066D01*
X057174Y017085D01*
X057567Y017085D02*
X057569Y017104D01*
X057574Y017123D01*
X057584Y017139D01*
X057596Y017154D01*
X057611Y017166D01*
X057627Y017176D01*
X057646Y017181D01*
X057665Y017183D01*
X057684Y017181D01*
X057703Y017176D01*
X057719Y017166D01*
X057734Y017154D01*
X057746Y017139D01*
X057756Y017123D01*
X057761Y017104D01*
X057763Y017085D01*
X057761Y017066D01*
X057756Y017047D01*
X057746Y017031D01*
X057734Y017016D01*
X057719Y017004D01*
X057703Y016994D01*
X057684Y016989D01*
X057665Y016987D01*
X057646Y016989D01*
X057627Y016994D01*
X057611Y017004D01*
X057596Y017016D01*
X057584Y017031D01*
X057574Y017047D01*
X057569Y017066D01*
X057567Y017085D01*
X057961Y017085D02*
X057963Y017104D01*
X057968Y017123D01*
X057978Y017139D01*
X057990Y017154D01*
X058005Y017166D01*
X058021Y017176D01*
X058040Y017181D01*
X058059Y017183D01*
X058078Y017181D01*
X058097Y017176D01*
X058113Y017166D01*
X058128Y017154D01*
X058140Y017139D01*
X058150Y017123D01*
X058155Y017104D01*
X058157Y017085D01*
X058155Y017066D01*
X058150Y017047D01*
X058140Y017031D01*
X058128Y017016D01*
X058113Y017004D01*
X058097Y016994D01*
X058078Y016989D01*
X058059Y016987D01*
X058040Y016989D01*
X058021Y016994D01*
X058005Y017004D01*
X057990Y017016D01*
X057978Y017031D01*
X057968Y017047D01*
X057963Y017066D01*
X057961Y017085D01*
X058355Y017085D02*
X058357Y017104D01*
X058362Y017123D01*
X058372Y017139D01*
X058384Y017154D01*
X058399Y017166D01*
X058415Y017176D01*
X058434Y017181D01*
X058453Y017183D01*
X058472Y017181D01*
X058491Y017176D01*
X058507Y017166D01*
X058522Y017154D01*
X058534Y017139D01*
X058544Y017123D01*
X058549Y017104D01*
X058551Y017085D01*
X058549Y017066D01*
X058544Y017047D01*
X058534Y017031D01*
X058522Y017016D01*
X058507Y017004D01*
X058491Y016994D01*
X058472Y016989D01*
X058453Y016987D01*
X058434Y016989D01*
X058415Y016994D01*
X058399Y017004D01*
X058384Y017016D01*
X058372Y017031D01*
X058362Y017047D01*
X058357Y017066D01*
X058355Y017085D01*
X058355Y016085D02*
X058357Y016104D01*
X058362Y016123D01*
X058372Y016139D01*
X058384Y016154D01*
X058399Y016166D01*
X058415Y016176D01*
X058434Y016181D01*
X058453Y016183D01*
X058472Y016181D01*
X058491Y016176D01*
X058507Y016166D01*
X058522Y016154D01*
X058534Y016139D01*
X058544Y016123D01*
X058549Y016104D01*
X058551Y016085D01*
X058549Y016066D01*
X058544Y016047D01*
X058534Y016031D01*
X058522Y016016D01*
X058507Y016004D01*
X058491Y015994D01*
X058472Y015989D01*
X058453Y015987D01*
X058434Y015989D01*
X058415Y015994D01*
X058399Y016004D01*
X058384Y016016D01*
X058372Y016031D01*
X058362Y016047D01*
X058357Y016066D01*
X058355Y016085D01*
X057961Y016085D02*
X057963Y016104D01*
X057968Y016123D01*
X057978Y016139D01*
X057990Y016154D01*
X058005Y016166D01*
X058021Y016176D01*
X058040Y016181D01*
X058059Y016183D01*
X058078Y016181D01*
X058097Y016176D01*
X058113Y016166D01*
X058128Y016154D01*
X058140Y016139D01*
X058150Y016123D01*
X058155Y016104D01*
X058157Y016085D01*
X058155Y016066D01*
X058150Y016047D01*
X058140Y016031D01*
X058128Y016016D01*
X058113Y016004D01*
X058097Y015994D01*
X058078Y015989D01*
X058059Y015987D01*
X058040Y015989D01*
X058021Y015994D01*
X058005Y016004D01*
X057990Y016016D01*
X057978Y016031D01*
X057968Y016047D01*
X057963Y016066D01*
X057961Y016085D01*
X057567Y016085D02*
X057569Y016104D01*
X057574Y016123D01*
X057584Y016139D01*
X057596Y016154D01*
X057611Y016166D01*
X057627Y016176D01*
X057646Y016181D01*
X057665Y016183D01*
X057684Y016181D01*
X057703Y016176D01*
X057719Y016166D01*
X057734Y016154D01*
X057746Y016139D01*
X057756Y016123D01*
X057761Y016104D01*
X057763Y016085D01*
X057761Y016066D01*
X057756Y016047D01*
X057746Y016031D01*
X057734Y016016D01*
X057719Y016004D01*
X057703Y015994D01*
X057684Y015989D01*
X057665Y015987D01*
X057646Y015989D01*
X057627Y015994D01*
X057611Y016004D01*
X057596Y016016D01*
X057584Y016031D01*
X057574Y016047D01*
X057569Y016066D01*
X057567Y016085D01*
X057174Y016085D02*
X057176Y016104D01*
X057181Y016123D01*
X057191Y016139D01*
X057203Y016154D01*
X057218Y016166D01*
X057234Y016176D01*
X057253Y016181D01*
X057272Y016183D01*
X057291Y016181D01*
X057310Y016176D01*
X057326Y016166D01*
X057341Y016154D01*
X057353Y016139D01*
X057363Y016123D01*
X057368Y016104D01*
X057370Y016085D01*
X057368Y016066D01*
X057363Y016047D01*
X057353Y016031D01*
X057341Y016016D01*
X057326Y016004D01*
X057310Y015994D01*
X057291Y015989D01*
X057272Y015987D01*
X057253Y015989D01*
X057234Y015994D01*
X057218Y016004D01*
X057203Y016016D01*
X057191Y016031D01*
X057181Y016047D01*
X057176Y016066D01*
X057174Y016085D01*
X056780Y016085D02*
X056782Y016104D01*
X056787Y016123D01*
X056797Y016139D01*
X056809Y016154D01*
X056824Y016166D01*
X056840Y016176D01*
X056859Y016181D01*
X056878Y016183D01*
X056897Y016181D01*
X056916Y016176D01*
X056932Y016166D01*
X056947Y016154D01*
X056959Y016139D01*
X056969Y016123D01*
X056974Y016104D01*
X056976Y016085D01*
X056974Y016066D01*
X056969Y016047D01*
X056959Y016031D01*
X056947Y016016D01*
X056932Y016004D01*
X056916Y015994D01*
X056897Y015989D01*
X056878Y015987D01*
X056859Y015989D01*
X056840Y015994D01*
X056824Y016004D01*
X056809Y016016D01*
X056797Y016031D01*
X056787Y016047D01*
X056782Y016066D01*
X056780Y016085D01*
X061030Y016080D02*
X061030Y013830D01*
X022351Y016075D02*
X022353Y016094D01*
X022358Y016113D01*
X022368Y016129D01*
X022380Y016144D01*
X022395Y016156D01*
X022411Y016166D01*
X022430Y016171D01*
X022449Y016173D01*
X022468Y016171D01*
X022487Y016166D01*
X022503Y016156D01*
X022518Y016144D01*
X022530Y016129D01*
X022540Y016113D01*
X022545Y016094D01*
X022547Y016075D01*
X022545Y016056D01*
X022540Y016037D01*
X022530Y016021D01*
X022518Y016006D01*
X022503Y015994D01*
X022487Y015984D01*
X022468Y015979D01*
X022449Y015977D01*
X022430Y015979D01*
X022411Y015984D01*
X022395Y015994D01*
X022380Y016006D01*
X022368Y016021D01*
X022358Y016037D01*
X022353Y016056D01*
X022351Y016075D01*
X021957Y016075D02*
X021959Y016094D01*
X021964Y016113D01*
X021974Y016129D01*
X021986Y016144D01*
X022001Y016156D01*
X022017Y016166D01*
X022036Y016171D01*
X022055Y016173D01*
X022074Y016171D01*
X022093Y016166D01*
X022109Y016156D01*
X022124Y016144D01*
X022136Y016129D01*
X022146Y016113D01*
X022151Y016094D01*
X022153Y016075D01*
X022151Y016056D01*
X022146Y016037D01*
X022136Y016021D01*
X022124Y016006D01*
X022109Y015994D01*
X022093Y015984D01*
X022074Y015979D01*
X022055Y015977D01*
X022036Y015979D01*
X022017Y015984D01*
X022001Y015994D01*
X021986Y016006D01*
X021974Y016021D01*
X021964Y016037D01*
X021959Y016056D01*
X021957Y016075D01*
X021563Y016075D02*
X021565Y016094D01*
X021570Y016113D01*
X021580Y016129D01*
X021592Y016144D01*
X021607Y016156D01*
X021623Y016166D01*
X021642Y016171D01*
X021661Y016173D01*
X021680Y016171D01*
X021699Y016166D01*
X021715Y016156D01*
X021730Y016144D01*
X021742Y016129D01*
X021752Y016113D01*
X021757Y016094D01*
X021759Y016075D01*
X021757Y016056D01*
X021752Y016037D01*
X021742Y016021D01*
X021730Y016006D01*
X021715Y015994D01*
X021699Y015984D01*
X021680Y015979D01*
X021661Y015977D01*
X021642Y015979D01*
X021623Y015984D01*
X021607Y015994D01*
X021592Y016006D01*
X021580Y016021D01*
X021570Y016037D01*
X021565Y016056D01*
X021563Y016075D01*
X021170Y016075D02*
X021172Y016094D01*
X021177Y016113D01*
X021187Y016129D01*
X021199Y016144D01*
X021214Y016156D01*
X021230Y016166D01*
X021249Y016171D01*
X021268Y016173D01*
X021287Y016171D01*
X021306Y016166D01*
X021322Y016156D01*
X021337Y016144D01*
X021349Y016129D01*
X021359Y016113D01*
X021364Y016094D01*
X021366Y016075D01*
X021364Y016056D01*
X021359Y016037D01*
X021349Y016021D01*
X021337Y016006D01*
X021322Y015994D01*
X021306Y015984D01*
X021287Y015979D01*
X021268Y015977D01*
X021249Y015979D01*
X021230Y015984D01*
X021214Y015994D01*
X021199Y016006D01*
X021187Y016021D01*
X021177Y016037D01*
X021172Y016056D01*
X021170Y016075D01*
X020776Y016075D02*
X020778Y016094D01*
X020783Y016113D01*
X020793Y016129D01*
X020805Y016144D01*
X020820Y016156D01*
X020836Y016166D01*
X020855Y016171D01*
X020874Y016173D01*
X020893Y016171D01*
X020912Y016166D01*
X020928Y016156D01*
X020943Y016144D01*
X020955Y016129D01*
X020965Y016113D01*
X020970Y016094D01*
X020972Y016075D01*
X020970Y016056D01*
X020965Y016037D01*
X020955Y016021D01*
X020943Y016006D01*
X020928Y015994D01*
X020912Y015984D01*
X020893Y015979D01*
X020874Y015977D01*
X020855Y015979D01*
X020836Y015984D01*
X020820Y015994D01*
X020805Y016006D01*
X020793Y016021D01*
X020783Y016037D01*
X020778Y016056D01*
X020776Y016075D01*
X020776Y017075D02*
X020778Y017094D01*
X020783Y017113D01*
X020793Y017129D01*
X020805Y017144D01*
X020820Y017156D01*
X020836Y017166D01*
X020855Y017171D01*
X020874Y017173D01*
X020893Y017171D01*
X020912Y017166D01*
X020928Y017156D01*
X020943Y017144D01*
X020955Y017129D01*
X020965Y017113D01*
X020970Y017094D01*
X020972Y017075D01*
X020970Y017056D01*
X020965Y017037D01*
X020955Y017021D01*
X020943Y017006D01*
X020928Y016994D01*
X020912Y016984D01*
X020893Y016979D01*
X020874Y016977D01*
X020855Y016979D01*
X020836Y016984D01*
X020820Y016994D01*
X020805Y017006D01*
X020793Y017021D01*
X020783Y017037D01*
X020778Y017056D01*
X020776Y017075D01*
X021170Y017075D02*
X021172Y017094D01*
X021177Y017113D01*
X021187Y017129D01*
X021199Y017144D01*
X021214Y017156D01*
X021230Y017166D01*
X021249Y017171D01*
X021268Y017173D01*
X021287Y017171D01*
X021306Y017166D01*
X021322Y017156D01*
X021337Y017144D01*
X021349Y017129D01*
X021359Y017113D01*
X021364Y017094D01*
X021366Y017075D01*
X021364Y017056D01*
X021359Y017037D01*
X021349Y017021D01*
X021337Y017006D01*
X021322Y016994D01*
X021306Y016984D01*
X021287Y016979D01*
X021268Y016977D01*
X021249Y016979D01*
X021230Y016984D01*
X021214Y016994D01*
X021199Y017006D01*
X021187Y017021D01*
X021177Y017037D01*
X021172Y017056D01*
X021170Y017075D01*
X021563Y017075D02*
X021565Y017094D01*
X021570Y017113D01*
X021580Y017129D01*
X021592Y017144D01*
X021607Y017156D01*
X021623Y017166D01*
X021642Y017171D01*
X021661Y017173D01*
X021680Y017171D01*
X021699Y017166D01*
X021715Y017156D01*
X021730Y017144D01*
X021742Y017129D01*
X021752Y017113D01*
X021757Y017094D01*
X021759Y017075D01*
X021757Y017056D01*
X021752Y017037D01*
X021742Y017021D01*
X021730Y017006D01*
X021715Y016994D01*
X021699Y016984D01*
X021680Y016979D01*
X021661Y016977D01*
X021642Y016979D01*
X021623Y016984D01*
X021607Y016994D01*
X021592Y017006D01*
X021580Y017021D01*
X021570Y017037D01*
X021565Y017056D01*
X021563Y017075D01*
X021957Y017075D02*
X021959Y017094D01*
X021964Y017113D01*
X021974Y017129D01*
X021986Y017144D01*
X022001Y017156D01*
X022017Y017166D01*
X022036Y017171D01*
X022055Y017173D01*
X022074Y017171D01*
X022093Y017166D01*
X022109Y017156D01*
X022124Y017144D01*
X022136Y017129D01*
X022146Y017113D01*
X022151Y017094D01*
X022153Y017075D01*
X022151Y017056D01*
X022146Y017037D01*
X022136Y017021D01*
X022124Y017006D01*
X022109Y016994D01*
X022093Y016984D01*
X022074Y016979D01*
X022055Y016977D01*
X022036Y016979D01*
X022017Y016984D01*
X022001Y016994D01*
X021986Y017006D01*
X021974Y017021D01*
X021964Y017037D01*
X021959Y017056D01*
X021957Y017075D01*
X022351Y017075D02*
X022353Y017094D01*
X022358Y017113D01*
X022368Y017129D01*
X022380Y017144D01*
X022395Y017156D01*
X022411Y017166D01*
X022430Y017171D01*
X022449Y017173D01*
X022468Y017171D01*
X022487Y017166D01*
X022503Y017156D01*
X022518Y017144D01*
X022530Y017129D01*
X022540Y017113D01*
X022545Y017094D01*
X022547Y017075D01*
X022545Y017056D01*
X022540Y017037D01*
X022530Y017021D01*
X022518Y017006D01*
X022503Y016994D01*
X022487Y016984D01*
X022468Y016979D01*
X022449Y016977D01*
X022430Y016979D01*
X022411Y016984D01*
X022395Y016994D01*
X022380Y017006D01*
X022368Y017021D01*
X022358Y017037D01*
X022353Y017056D01*
X022351Y017075D01*
X004351Y017075D02*
X004353Y017094D01*
X004358Y017113D01*
X004368Y017129D01*
X004380Y017144D01*
X004395Y017156D01*
X004411Y017166D01*
X004430Y017171D01*
X004449Y017173D01*
X004468Y017171D01*
X004487Y017166D01*
X004503Y017156D01*
X004518Y017144D01*
X004530Y017129D01*
X004540Y017113D01*
X004545Y017094D01*
X004547Y017075D01*
X004545Y017056D01*
X004540Y017037D01*
X004530Y017021D01*
X004518Y017006D01*
X004503Y016994D01*
X004487Y016984D01*
X004468Y016979D01*
X004449Y016977D01*
X004430Y016979D01*
X004411Y016984D01*
X004395Y016994D01*
X004380Y017006D01*
X004368Y017021D01*
X004358Y017037D01*
X004353Y017056D01*
X004351Y017075D01*
X003957Y017075D02*
X003959Y017094D01*
X003964Y017113D01*
X003974Y017129D01*
X003986Y017144D01*
X004001Y017156D01*
X004017Y017166D01*
X004036Y017171D01*
X004055Y017173D01*
X004074Y017171D01*
X004093Y017166D01*
X004109Y017156D01*
X004124Y017144D01*
X004136Y017129D01*
X004146Y017113D01*
X004151Y017094D01*
X004153Y017075D01*
X004151Y017056D01*
X004146Y017037D01*
X004136Y017021D01*
X004124Y017006D01*
X004109Y016994D01*
X004093Y016984D01*
X004074Y016979D01*
X004055Y016977D01*
X004036Y016979D01*
X004017Y016984D01*
X004001Y016994D01*
X003986Y017006D01*
X003974Y017021D01*
X003964Y017037D01*
X003959Y017056D01*
X003957Y017075D01*
X003563Y017075D02*
X003565Y017094D01*
X003570Y017113D01*
X003580Y017129D01*
X003592Y017144D01*
X003607Y017156D01*
X003623Y017166D01*
X003642Y017171D01*
X003661Y017173D01*
X003680Y017171D01*
X003699Y017166D01*
X003715Y017156D01*
X003730Y017144D01*
X003742Y017129D01*
X003752Y017113D01*
X003757Y017094D01*
X003759Y017075D01*
X003757Y017056D01*
X003752Y017037D01*
X003742Y017021D01*
X003730Y017006D01*
X003715Y016994D01*
X003699Y016984D01*
X003680Y016979D01*
X003661Y016977D01*
X003642Y016979D01*
X003623Y016984D01*
X003607Y016994D01*
X003592Y017006D01*
X003580Y017021D01*
X003570Y017037D01*
X003565Y017056D01*
X003563Y017075D01*
X003170Y017075D02*
X003172Y017094D01*
X003177Y017113D01*
X003187Y017129D01*
X003199Y017144D01*
X003214Y017156D01*
X003230Y017166D01*
X003249Y017171D01*
X003268Y017173D01*
X003287Y017171D01*
X003306Y017166D01*
X003322Y017156D01*
X003337Y017144D01*
X003349Y017129D01*
X003359Y017113D01*
X003364Y017094D01*
X003366Y017075D01*
X003364Y017056D01*
X003359Y017037D01*
X003349Y017021D01*
X003337Y017006D01*
X003322Y016994D01*
X003306Y016984D01*
X003287Y016979D01*
X003268Y016977D01*
X003249Y016979D01*
X003230Y016984D01*
X003214Y016994D01*
X003199Y017006D01*
X003187Y017021D01*
X003177Y017037D01*
X003172Y017056D01*
X003170Y017075D01*
X002776Y017075D02*
X002778Y017094D01*
X002783Y017113D01*
X002793Y017129D01*
X002805Y017144D01*
X002820Y017156D01*
X002836Y017166D01*
X002855Y017171D01*
X002874Y017173D01*
X002893Y017171D01*
X002912Y017166D01*
X002928Y017156D01*
X002943Y017144D01*
X002955Y017129D01*
X002965Y017113D01*
X002970Y017094D01*
X002972Y017075D01*
X002970Y017056D01*
X002965Y017037D01*
X002955Y017021D01*
X002943Y017006D01*
X002928Y016994D01*
X002912Y016984D01*
X002893Y016979D01*
X002874Y016977D01*
X002855Y016979D01*
X002836Y016984D01*
X002820Y016994D01*
X002805Y017006D01*
X002793Y017021D01*
X002783Y017037D01*
X002778Y017056D01*
X002776Y017075D01*
X002776Y016075D02*
X002778Y016094D01*
X002783Y016113D01*
X002793Y016129D01*
X002805Y016144D01*
X002820Y016156D01*
X002836Y016166D01*
X002855Y016171D01*
X002874Y016173D01*
X002893Y016171D01*
X002912Y016166D01*
X002928Y016156D01*
X002943Y016144D01*
X002955Y016129D01*
X002965Y016113D01*
X002970Y016094D01*
X002972Y016075D01*
X002970Y016056D01*
X002965Y016037D01*
X002955Y016021D01*
X002943Y016006D01*
X002928Y015994D01*
X002912Y015984D01*
X002893Y015979D01*
X002874Y015977D01*
X002855Y015979D01*
X002836Y015984D01*
X002820Y015994D01*
X002805Y016006D01*
X002793Y016021D01*
X002783Y016037D01*
X002778Y016056D01*
X002776Y016075D01*
X003170Y016075D02*
X003172Y016094D01*
X003177Y016113D01*
X003187Y016129D01*
X003199Y016144D01*
X003214Y016156D01*
X003230Y016166D01*
X003249Y016171D01*
X003268Y016173D01*
X003287Y016171D01*
X003306Y016166D01*
X003322Y016156D01*
X003337Y016144D01*
X003349Y016129D01*
X003359Y016113D01*
X003364Y016094D01*
X003366Y016075D01*
X003364Y016056D01*
X003359Y016037D01*
X003349Y016021D01*
X003337Y016006D01*
X003322Y015994D01*
X003306Y015984D01*
X003287Y015979D01*
X003268Y015977D01*
X003249Y015979D01*
X003230Y015984D01*
X003214Y015994D01*
X003199Y016006D01*
X003187Y016021D01*
X003177Y016037D01*
X003172Y016056D01*
X003170Y016075D01*
X003563Y016075D02*
X003565Y016094D01*
X003570Y016113D01*
X003580Y016129D01*
X003592Y016144D01*
X003607Y016156D01*
X003623Y016166D01*
X003642Y016171D01*
X003661Y016173D01*
X003680Y016171D01*
X003699Y016166D01*
X003715Y016156D01*
X003730Y016144D01*
X003742Y016129D01*
X003752Y016113D01*
X003757Y016094D01*
X003759Y016075D01*
X003757Y016056D01*
X003752Y016037D01*
X003742Y016021D01*
X003730Y016006D01*
X003715Y015994D01*
X003699Y015984D01*
X003680Y015979D01*
X003661Y015977D01*
X003642Y015979D01*
X003623Y015984D01*
X003607Y015994D01*
X003592Y016006D01*
X003580Y016021D01*
X003570Y016037D01*
X003565Y016056D01*
X003563Y016075D01*
X003957Y016075D02*
X003959Y016094D01*
X003964Y016113D01*
X003974Y016129D01*
X003986Y016144D01*
X004001Y016156D01*
X004017Y016166D01*
X004036Y016171D01*
X004055Y016173D01*
X004074Y016171D01*
X004093Y016166D01*
X004109Y016156D01*
X004124Y016144D01*
X004136Y016129D01*
X004146Y016113D01*
X004151Y016094D01*
X004153Y016075D01*
X004151Y016056D01*
X004146Y016037D01*
X004136Y016021D01*
X004124Y016006D01*
X004109Y015994D01*
X004093Y015984D01*
X004074Y015979D01*
X004055Y015977D01*
X004036Y015979D01*
X004017Y015984D01*
X004001Y015994D01*
X003986Y016006D01*
X003974Y016021D01*
X003964Y016037D01*
X003959Y016056D01*
X003957Y016075D01*
X004351Y016075D02*
X004353Y016094D01*
X004358Y016113D01*
X004368Y016129D01*
X004380Y016144D01*
X004395Y016156D01*
X004411Y016166D01*
X004430Y016171D01*
X004449Y016173D01*
X004468Y016171D01*
X004487Y016166D01*
X004503Y016156D01*
X004518Y016144D01*
X004530Y016129D01*
X004540Y016113D01*
X004545Y016094D01*
X004547Y016075D01*
X004545Y016056D01*
X004540Y016037D01*
X004530Y016021D01*
X004518Y016006D01*
X004503Y015994D01*
X004487Y015984D01*
X004468Y015979D01*
X004449Y015977D01*
X004430Y015979D01*
X004411Y015984D01*
X004395Y015994D01*
X004380Y016006D01*
X004368Y016021D01*
X004358Y016037D01*
X004353Y016056D01*
X004351Y016075D01*
D12*
X006176Y017542D02*
X006283Y017435D01*
X006497Y017435D01*
X006604Y017542D01*
X006604Y017649D01*
X006497Y017755D01*
X006283Y017755D01*
X006176Y017862D01*
X006176Y017969D01*
X006283Y018076D01*
X006497Y018076D01*
X006604Y017969D01*
X006821Y017969D02*
X006821Y017542D01*
X006928Y017435D01*
X007141Y017435D01*
X007248Y017542D01*
X007466Y017435D02*
X007893Y017435D01*
X007466Y017435D02*
X007466Y018076D01*
X007248Y017969D02*
X007141Y018076D01*
X006928Y018076D01*
X006821Y017969D01*
X009288Y018330D02*
X009538Y018080D01*
X010038Y018080D01*
X010288Y018330D01*
X010538Y018080D01*
X011038Y018080D01*
X011288Y018330D01*
X011538Y018080D01*
X012038Y018080D01*
X012288Y018330D01*
X012538Y018080D01*
X013038Y018080D01*
X013288Y018330D01*
X013538Y018080D01*
X014038Y018080D01*
X014288Y018330D01*
X014538Y018080D01*
X015038Y018080D01*
X015288Y018330D01*
X015538Y018080D01*
X016038Y018080D01*
X016288Y018330D01*
X016538Y018080D01*
X017038Y018080D01*
X017288Y018330D01*
X017538Y018080D01*
X018038Y018080D01*
X018288Y018330D01*
X018538Y018080D01*
X019038Y018080D01*
X019288Y018330D01*
X019288Y019830D01*
X019038Y020080D01*
X018538Y020080D01*
X018288Y019830D01*
X018038Y020080D01*
X017538Y020080D01*
X017288Y019830D01*
X017038Y020080D01*
X016538Y020080D01*
X016288Y019830D01*
X016038Y020080D01*
X015538Y020080D01*
X015288Y019830D01*
X015038Y020080D01*
X014538Y020080D01*
X014288Y019830D01*
X014038Y020080D01*
X013538Y020080D01*
X013288Y019830D01*
X013038Y020080D01*
X012538Y020080D01*
X012288Y019830D01*
X012038Y020080D01*
X011538Y020080D01*
X011288Y019830D01*
X011038Y020080D01*
X010538Y020080D01*
X010288Y019830D01*
X010038Y020080D01*
X009538Y020080D01*
X009288Y019830D01*
X009288Y018330D01*
X010812Y016794D02*
X010812Y016367D01*
X010919Y016260D01*
X011133Y016260D01*
X011239Y016367D01*
X011457Y016367D02*
X011564Y016260D01*
X011777Y016260D01*
X011884Y016367D01*
X011884Y016901D01*
X012101Y016901D02*
X012529Y016901D01*
X012315Y016901D02*
X012315Y016260D01*
X011457Y016367D02*
X011457Y016901D01*
X011239Y016794D02*
X011133Y016901D01*
X010919Y016901D01*
X010812Y016794D01*
X013391Y016794D02*
X013391Y016367D01*
X013497Y016260D01*
X013711Y016260D01*
X013818Y016367D01*
X013818Y016794D01*
X013711Y016901D01*
X013497Y016901D01*
X013391Y016794D01*
X014035Y016901D02*
X014035Y016367D01*
X014142Y016260D01*
X014355Y016260D01*
X014462Y016367D01*
X014462Y016901D01*
X014680Y016901D02*
X015107Y016901D01*
X014893Y016901D02*
X014893Y016260D01*
X014937Y021078D02*
X013140Y021078D01*
X013140Y024082D01*
X014937Y024082D01*
X014937Y021078D01*
X013378Y023732D02*
X013380Y023758D01*
X013386Y023784D01*
X013395Y023808D01*
X013408Y023831D01*
X013424Y023852D01*
X013443Y023870D01*
X013464Y023886D01*
X013488Y023898D01*
X013512Y023906D01*
X013538Y023911D01*
X013565Y023912D01*
X013591Y023909D01*
X013616Y023902D01*
X013640Y023892D01*
X013663Y023878D01*
X013683Y023862D01*
X013700Y023842D01*
X013715Y023820D01*
X013726Y023796D01*
X013734Y023771D01*
X013738Y023745D01*
X013738Y023719D01*
X013734Y023693D01*
X013726Y023668D01*
X013715Y023644D01*
X013700Y023622D01*
X013683Y023602D01*
X013663Y023586D01*
X013640Y023572D01*
X013616Y023562D01*
X013591Y023555D01*
X013565Y023552D01*
X013538Y023553D01*
X013512Y023558D01*
X013488Y023566D01*
X013464Y023578D01*
X013443Y023594D01*
X013424Y023612D01*
X013408Y023633D01*
X013395Y023656D01*
X013386Y023680D01*
X013380Y023706D01*
X013378Y023732D01*
X007918Y025035D02*
X007918Y025462D01*
X007704Y025676D01*
X007491Y025462D01*
X007491Y025035D01*
X007273Y025142D02*
X007273Y025569D01*
X007166Y025676D01*
X006846Y025676D01*
X006846Y025035D01*
X007166Y025035D01*
X007273Y025142D01*
X007491Y025355D02*
X007918Y025355D01*
X006629Y025249D02*
X006629Y025142D01*
X006522Y025035D01*
X006308Y025035D01*
X006201Y025142D01*
X006308Y025355D02*
X006522Y025355D01*
X006629Y025249D01*
X006629Y025569D02*
X006522Y025676D01*
X006308Y025676D01*
X006201Y025569D01*
X006201Y025462D01*
X006308Y025355D01*
X002609Y023629D02*
X002609Y023522D01*
X002609Y023629D02*
X002502Y023736D01*
X001968Y023736D01*
X002395Y023736D02*
X002395Y023415D01*
X002288Y023309D01*
X001968Y023309D01*
X002075Y023091D02*
X002395Y023091D01*
X002395Y022771D01*
X002288Y022664D01*
X002182Y022771D01*
X002182Y023091D01*
X002075Y023091D02*
X001968Y022984D01*
X001968Y022771D01*
X001755Y022341D02*
X002395Y022341D01*
X002395Y022234D02*
X002395Y022448D01*
X002288Y022017D02*
X002395Y021910D01*
X002395Y021590D01*
X002609Y021590D02*
X001968Y021590D01*
X001968Y021910D01*
X002075Y022017D01*
X002288Y022017D01*
X001755Y022234D02*
X001755Y022341D01*
X001345Y022232D02*
X001238Y022339D01*
X001345Y022232D02*
X001345Y022019D01*
X001238Y021912D01*
X000811Y021912D01*
X000705Y022019D01*
X000705Y022232D01*
X000811Y022339D01*
X000705Y022557D02*
X000705Y022663D01*
X001345Y022663D01*
X001345Y022557D02*
X001345Y022770D01*
X001238Y022986D02*
X001345Y023093D01*
X001345Y023307D01*
X001238Y023413D01*
X001025Y023413D01*
X000918Y023307D01*
X000918Y023093D01*
X001025Y022986D01*
X001238Y022986D01*
X001238Y023631D02*
X001345Y023738D01*
X001345Y024058D01*
X001345Y024276D02*
X000705Y024276D01*
X000918Y024058D02*
X000918Y023738D01*
X001025Y023631D01*
X001238Y023631D01*
X001132Y024276D02*
X000918Y024596D01*
X001132Y024276D02*
X001345Y024596D01*
X001345Y021695D02*
X001132Y021375D01*
X000918Y021695D01*
X000705Y021375D02*
X001345Y021375D01*
X001345Y021158D02*
X001345Y020837D01*
X001238Y020730D01*
X001025Y020730D01*
X000918Y020837D01*
X000918Y021158D01*
X001025Y020513D02*
X001345Y020513D01*
X001345Y020193D01*
X001238Y020086D01*
X001132Y020193D01*
X001132Y020513D01*
X001025Y020513D02*
X000918Y020406D01*
X000918Y020193D01*
X001755Y020191D02*
X001755Y019871D01*
X002395Y019871D01*
X002395Y020191D01*
X002288Y020298D01*
X001861Y020298D01*
X001755Y020191D01*
X001968Y020516D02*
X001968Y020622D01*
X002395Y020622D01*
X002395Y020516D02*
X002395Y020729D01*
X002395Y020945D02*
X002395Y021266D01*
X002288Y021372D01*
X002182Y021266D01*
X002182Y021052D01*
X002075Y020945D01*
X001968Y021052D01*
X001968Y021372D01*
X001755Y020622D02*
X001648Y020622D01*
X001345Y019870D02*
X001238Y019763D01*
X000811Y019763D01*
X000918Y019656D02*
X000918Y019870D01*
X000811Y019439D02*
X000705Y019332D01*
X000705Y019118D01*
X000811Y019012D01*
X000918Y019012D01*
X001025Y019118D01*
X001025Y019332D01*
X001132Y019439D01*
X001238Y019439D01*
X001345Y019332D01*
X001345Y019118D01*
X001238Y019012D01*
X022107Y022510D02*
X022107Y023151D01*
X022427Y023151D01*
X022534Y023044D01*
X022534Y022830D01*
X022427Y022724D01*
X022107Y022724D01*
X022320Y022724D02*
X022534Y022510D01*
X022751Y022617D02*
X022858Y022510D01*
X023072Y022510D01*
X023179Y022617D01*
X023179Y022724D01*
X023072Y022830D01*
X022858Y022830D01*
X022751Y022937D01*
X022751Y023044D01*
X022858Y023151D01*
X023072Y023151D01*
X023179Y023044D01*
X023396Y023044D02*
X023503Y023151D01*
X023716Y023151D01*
X023823Y023044D01*
X023823Y022937D01*
X023396Y022510D01*
X023823Y022510D01*
X024041Y022617D02*
X024147Y022510D01*
X024361Y022510D01*
X024468Y022617D01*
X024468Y022724D01*
X024361Y022830D01*
X024254Y022830D01*
X024361Y022830D02*
X024468Y022937D01*
X024468Y023044D01*
X024361Y023151D01*
X024147Y023151D01*
X024041Y023044D01*
X024685Y023044D02*
X024792Y023151D01*
X025005Y023151D01*
X025112Y023044D01*
X025112Y022937D01*
X024685Y022510D01*
X025112Y022510D01*
X030420Y025060D02*
X030420Y025487D01*
X030633Y025701D01*
X030847Y025487D01*
X030847Y025060D01*
X031064Y025274D02*
X031278Y025060D01*
X031491Y025274D01*
X031491Y025701D01*
X031709Y025701D02*
X032029Y025701D01*
X032136Y025594D01*
X032136Y025380D01*
X032029Y025274D01*
X031709Y025274D01*
X031922Y025274D02*
X032136Y025060D01*
X031709Y025060D02*
X031709Y025701D01*
X031064Y025701D02*
X031064Y025274D01*
X030847Y025380D02*
X030420Y025380D01*
X032998Y025060D02*
X033212Y025060D01*
X033105Y025060D02*
X033105Y025701D01*
X032998Y025701D02*
X033212Y025701D01*
X033428Y025594D02*
X033428Y025487D01*
X033534Y025380D01*
X033748Y025380D01*
X033855Y025274D01*
X033855Y025167D01*
X033748Y025060D01*
X033534Y025060D01*
X033428Y025167D01*
X034072Y025274D02*
X034393Y025274D01*
X034499Y025380D01*
X034499Y025594D01*
X034393Y025701D01*
X034072Y025701D01*
X034072Y025060D01*
X033855Y025594D02*
X033748Y025701D01*
X033534Y025701D01*
X033428Y025594D01*
X042038Y019830D02*
X042288Y020080D01*
X042788Y020080D01*
X043038Y019830D01*
X043288Y020080D01*
X043788Y020080D01*
X044038Y019830D01*
X044288Y020080D01*
X044788Y020080D01*
X045038Y019830D01*
X045288Y020080D01*
X045788Y020080D01*
X046038Y019830D01*
X046288Y020080D01*
X046788Y020080D01*
X047038Y019830D01*
X047288Y020080D01*
X047788Y020080D01*
X048038Y019830D01*
X048288Y020080D01*
X048788Y020080D01*
X049038Y019830D01*
X049288Y020080D01*
X049788Y020080D01*
X050038Y019830D01*
X050288Y020080D01*
X050788Y020080D01*
X051038Y019830D01*
X051288Y020080D01*
X051788Y020080D01*
X052038Y019830D01*
X052038Y018330D01*
X051788Y018080D01*
X051288Y018080D01*
X051038Y018330D01*
X050788Y018080D01*
X050288Y018080D01*
X050038Y018330D01*
X049788Y018080D01*
X049288Y018080D01*
X049038Y018330D01*
X048788Y018080D01*
X048288Y018080D01*
X048038Y018330D01*
X047788Y018080D01*
X047288Y018080D01*
X047038Y018330D01*
X046788Y018080D01*
X046288Y018080D01*
X046038Y018330D01*
X045788Y018080D01*
X045288Y018080D01*
X045038Y018330D01*
X044788Y018080D01*
X044288Y018080D01*
X044038Y018330D01*
X043788Y018080D01*
X043288Y018080D01*
X043038Y018330D01*
X042788Y018080D01*
X042288Y018080D01*
X042038Y018330D01*
X042038Y019830D01*
X046812Y016794D02*
X046812Y016367D01*
X046919Y016260D01*
X047133Y016260D01*
X047239Y016367D01*
X047457Y016367D02*
X047564Y016260D01*
X047777Y016260D01*
X047884Y016367D01*
X047884Y016901D01*
X048101Y016901D02*
X048529Y016901D01*
X048315Y016901D02*
X048315Y016260D01*
X049391Y016367D02*
X049497Y016260D01*
X049711Y016260D01*
X049818Y016367D01*
X049818Y016794D01*
X049711Y016901D01*
X049497Y016901D01*
X049391Y016794D01*
X049391Y016367D01*
X050035Y016367D02*
X050142Y016260D01*
X050355Y016260D01*
X050462Y016367D01*
X050462Y016901D01*
X050680Y016901D02*
X051107Y016901D01*
X050893Y016901D02*
X050893Y016260D01*
X050035Y016367D02*
X050035Y016901D01*
X047457Y016901D02*
X047457Y016367D01*
X047239Y016794D02*
X047133Y016901D01*
X046919Y016901D01*
X046812Y016794D01*
X053676Y017542D02*
X053783Y017435D01*
X053997Y017435D01*
X054104Y017542D01*
X054104Y017755D01*
X053890Y017755D01*
X053676Y017542D02*
X053676Y017969D01*
X053783Y018076D01*
X053997Y018076D01*
X054104Y017969D01*
X054321Y018076D02*
X054748Y017435D01*
X054748Y018076D01*
X054966Y018076D02*
X055286Y018076D01*
X055393Y017969D01*
X055393Y017542D01*
X055286Y017435D01*
X054966Y017435D01*
X054966Y018076D01*
X054321Y018076D02*
X054321Y017435D01*
X059843Y020051D02*
X059843Y020372D01*
X059950Y020478D01*
X060163Y020478D01*
X060270Y020372D01*
X060270Y020051D01*
X060483Y020051D02*
X059843Y020051D01*
X060270Y020265D02*
X060483Y020478D01*
X060377Y020696D02*
X060163Y020696D01*
X060056Y020803D01*
X060056Y021016D01*
X060163Y021123D01*
X060270Y021123D01*
X060270Y020696D01*
X060377Y020696D02*
X060483Y020803D01*
X060483Y021016D01*
X060056Y021340D02*
X060483Y021554D01*
X060056Y021767D01*
X059950Y021985D02*
X059843Y022092D01*
X059843Y022305D01*
X059950Y022412D01*
X060377Y021985D01*
X060483Y022092D01*
X060483Y022305D01*
X060377Y022412D01*
X059950Y022412D01*
X059950Y022630D02*
X059843Y022736D01*
X059843Y022950D01*
X059950Y023057D01*
X060377Y022630D01*
X060483Y022736D01*
X060483Y022950D01*
X060377Y023057D01*
X059950Y023057D01*
X060056Y023274D02*
X059843Y023488D01*
X060483Y023488D01*
X060483Y023701D02*
X060483Y023274D01*
X060377Y022630D02*
X059950Y022630D01*
X059950Y021985D02*
X060377Y021985D01*
X055310Y022535D02*
X055310Y023176D01*
X054883Y023176D02*
X055310Y022535D01*
X054883Y022535D02*
X054883Y023176D01*
X054667Y023176D02*
X054453Y023176D01*
X054560Y023176D02*
X054560Y022535D01*
X054453Y022535D02*
X054667Y022535D01*
X054236Y022749D02*
X054236Y023176D01*
X053809Y023176D02*
X053809Y022749D01*
X054022Y022535D01*
X054236Y022749D01*
X032982Y016901D02*
X032555Y016901D01*
X032768Y016901D02*
X032768Y016260D01*
X032337Y016367D02*
X032337Y016901D01*
X031910Y016901D02*
X031910Y016367D01*
X032017Y016260D01*
X032230Y016260D01*
X032337Y016367D01*
X031693Y016367D02*
X031693Y016794D01*
X031586Y016901D01*
X031372Y016901D01*
X031266Y016794D01*
X031266Y016367D01*
X031372Y016260D01*
X031586Y016260D01*
X031693Y016367D01*
X030404Y016901D02*
X029976Y016901D01*
X030190Y016901D02*
X030190Y016260D01*
X029759Y016367D02*
X029759Y016901D01*
X029332Y016901D02*
X029332Y016367D01*
X029439Y016260D01*
X029652Y016260D01*
X029759Y016367D01*
X029114Y016367D02*
X029008Y016260D01*
X028794Y016260D01*
X028687Y016367D01*
X028687Y016794D01*
X028794Y016901D01*
X029008Y016901D01*
X029114Y016794D01*
D13*
X038910Y025322D02*
X038910Y025782D01*
X039140Y025782D01*
X039217Y025705D01*
X039217Y025552D01*
X039140Y025475D01*
X038910Y025475D01*
X038756Y025475D02*
X038680Y025552D01*
X038680Y025859D01*
X038603Y025782D02*
X038756Y025782D01*
X038449Y025782D02*
X038296Y025782D01*
X038373Y025859D02*
X038373Y025552D01*
X038449Y025475D01*
X038143Y025475D02*
X038143Y025705D01*
X038066Y025782D01*
X037912Y025782D01*
X037836Y025705D01*
X037836Y025935D02*
X037836Y025475D01*
X039370Y025475D02*
X039370Y025552D01*
X039447Y025552D01*
X039447Y025475D01*
X039370Y025475D01*
X039370Y025705D02*
X039370Y025782D01*
X039447Y025782D01*
X039447Y025705D01*
X039370Y025705D01*
X039600Y025475D02*
X039907Y025935D01*
X040368Y025935D02*
X040061Y025475D01*
X040521Y025475D02*
X040521Y025935D01*
X040598Y025782D02*
X040751Y025782D01*
X040828Y025705D01*
X040828Y025475D01*
X040982Y025552D02*
X041058Y025628D01*
X041289Y025628D01*
X041289Y025705D02*
X041289Y025475D01*
X041058Y025475D01*
X040982Y025552D01*
X041058Y025782D02*
X041212Y025782D01*
X041289Y025705D01*
X041442Y025705D02*
X041519Y025782D01*
X041749Y025782D01*
X041902Y025935D02*
X041902Y025475D01*
X041749Y025475D02*
X041519Y025475D01*
X041442Y025552D01*
X041442Y025705D01*
X041902Y025628D02*
X042133Y025782D01*
X042286Y025705D02*
X042363Y025782D01*
X042593Y025782D01*
X042746Y025782D02*
X042900Y025782D01*
X042823Y025859D02*
X042823Y025552D01*
X042900Y025475D01*
X043053Y025475D02*
X043053Y025782D01*
X043053Y025628D02*
X043207Y025782D01*
X043284Y025782D01*
X043437Y025782D02*
X043514Y025782D01*
X043514Y025475D01*
X043590Y025475D02*
X043437Y025475D01*
X043744Y025552D02*
X043821Y025475D01*
X044051Y025475D01*
X044204Y025475D02*
X044204Y025935D01*
X044281Y025782D02*
X044435Y025782D01*
X044511Y025705D01*
X044511Y025475D01*
X044665Y025475D02*
X044741Y025475D01*
X044741Y025552D01*
X044665Y025552D01*
X044665Y025475D01*
X044895Y025475D02*
X045125Y025475D01*
X045202Y025552D01*
X045125Y025628D01*
X044972Y025628D01*
X044895Y025705D01*
X044972Y025782D01*
X045202Y025782D01*
X045355Y025705D02*
X045432Y025782D01*
X045586Y025782D01*
X045662Y025705D01*
X045662Y025628D01*
X045355Y025628D01*
X045355Y025552D02*
X045355Y025705D01*
X045355Y025552D02*
X045432Y025475D01*
X045586Y025475D01*
X045816Y025475D02*
X045816Y025782D01*
X046046Y025782D01*
X046123Y025705D01*
X046123Y025475D01*
X046276Y025475D02*
X046353Y025475D01*
X046353Y025552D01*
X046276Y025552D01*
X046276Y025475D01*
X046506Y025552D02*
X046583Y025475D01*
X046813Y025475D01*
X046967Y025475D02*
X047274Y025782D01*
X046967Y025782D02*
X047274Y025475D01*
X047427Y025475D02*
X047734Y025935D01*
X047887Y025859D02*
X047887Y025782D01*
X047964Y025705D01*
X048118Y025705D01*
X048194Y025628D01*
X048194Y025552D01*
X048118Y025475D01*
X047964Y025475D01*
X047887Y025552D01*
X047887Y025859D02*
X047964Y025935D01*
X048118Y025935D01*
X048194Y025859D01*
X048348Y025782D02*
X048501Y025782D01*
X048425Y025859D02*
X048425Y025552D01*
X048501Y025475D01*
X048655Y025552D02*
X048732Y025628D01*
X048962Y025628D01*
X048962Y025705D02*
X048962Y025475D01*
X048732Y025475D01*
X048655Y025552D01*
X048732Y025782D02*
X048885Y025782D01*
X048962Y025705D01*
X049115Y025705D02*
X049115Y025552D01*
X049192Y025475D01*
X049422Y025475D01*
X049576Y025475D02*
X049576Y025935D01*
X049422Y025782D02*
X049192Y025782D01*
X049115Y025705D01*
X049576Y025628D02*
X049806Y025782D01*
X049959Y025859D02*
X049959Y025552D01*
X050036Y025475D01*
X050189Y025475D01*
X050266Y025552D01*
X050420Y025475D02*
X050573Y025475D01*
X050496Y025475D02*
X050496Y025935D01*
X050420Y025935D01*
X050266Y025859D02*
X050189Y025935D01*
X050036Y025935D01*
X049959Y025859D01*
X049806Y025475D02*
X049576Y025628D01*
X050727Y025552D02*
X050803Y025475D01*
X050957Y025475D01*
X051033Y025552D01*
X051033Y025705D01*
X050957Y025782D01*
X050803Y025782D01*
X050727Y025705D01*
X050727Y025552D01*
X051187Y025552D02*
X051264Y025475D01*
X051494Y025475D01*
X051647Y025475D02*
X051647Y025935D01*
X051494Y025782D02*
X051264Y025782D01*
X051187Y025705D01*
X051187Y025552D01*
X051647Y025628D02*
X051878Y025782D01*
X051647Y025628D02*
X051878Y025475D01*
X046813Y025782D02*
X046583Y025782D01*
X046506Y025705D01*
X046506Y025552D01*
X044281Y025782D02*
X044204Y025705D01*
X044051Y025782D02*
X043821Y025782D01*
X043744Y025705D01*
X043744Y025552D01*
X043514Y025935D02*
X043514Y026012D01*
X042593Y025552D02*
X042516Y025628D01*
X042363Y025628D01*
X042286Y025705D01*
X042286Y025475D02*
X042516Y025475D01*
X042593Y025552D01*
X042133Y025475D02*
X041902Y025628D01*
X040598Y025782D02*
X040521Y025705D01*
D14*
X051063Y020630D02*
X051138Y020705D01*
X051289Y020705D01*
X051364Y020630D01*
X051364Y020555D01*
X051063Y020255D01*
X051364Y020255D01*
X051524Y020330D02*
X051824Y020630D01*
X051824Y020330D01*
X051749Y020255D01*
X051599Y020255D01*
X051524Y020330D01*
X051524Y020630D01*
X051599Y020705D01*
X051749Y020705D01*
X051824Y020630D01*
X042664Y017455D02*
X042363Y017455D01*
X042513Y017455D02*
X042513Y017905D01*
X042363Y017755D01*
X044475Y015533D02*
X044475Y004627D01*
X036601Y004627D01*
X036601Y015533D01*
X044475Y015533D01*
X044601Y015533D02*
X044601Y004627D01*
X052475Y004627D01*
X052475Y015533D01*
X044601Y015533D01*
X036475Y015533D02*
X036475Y004627D01*
X028601Y004627D01*
X028601Y015533D01*
X036475Y015533D01*
X028475Y015533D02*
X028475Y004627D01*
X020601Y004627D01*
X020601Y015533D01*
X028475Y015533D01*
X019938Y015001D02*
X019938Y005159D01*
X013639Y005159D01*
X013639Y015001D01*
X019938Y015001D01*
X013188Y015001D02*
X013188Y005159D01*
X006889Y005159D01*
X006889Y015001D01*
X013188Y015001D01*
X009914Y017455D02*
X009613Y017455D01*
X009763Y017455D02*
X009763Y017905D01*
X009613Y017755D01*
X006688Y015001D02*
X006688Y005159D01*
X000389Y005159D01*
X000389Y015001D01*
X006688Y015001D01*
X018313Y020255D02*
X018614Y020555D01*
X018614Y020630D01*
X018539Y020705D01*
X018388Y020705D01*
X018313Y020630D01*
X018313Y020255D02*
X018614Y020255D01*
X018774Y020330D02*
X019074Y020630D01*
X019074Y020330D01*
X018999Y020255D01*
X018849Y020255D01*
X018774Y020330D01*
X018774Y020630D01*
X018849Y020705D01*
X018999Y020705D01*
X019074Y020630D01*
X020663Y023330D02*
X020663Y024330D01*
X026663Y024330D01*
X026663Y023330D01*
X020663Y023330D01*
X020788Y024455D02*
X020923Y024455D01*
X020968Y024500D01*
X020968Y024680D01*
X020923Y024725D01*
X020788Y024725D01*
X020788Y024455D01*
X021173Y024455D02*
X021173Y024725D01*
X021083Y024725D02*
X021263Y024725D01*
X021378Y024725D02*
X021378Y024455D01*
X021378Y024545D02*
X021513Y024545D01*
X021558Y024590D01*
X021558Y024680D01*
X021513Y024725D01*
X021378Y024725D01*
X021468Y024545D02*
X021558Y024455D01*
X021878Y024455D02*
X021878Y024725D01*
X021788Y024725D02*
X021968Y024725D01*
X022083Y024725D02*
X022263Y024455D01*
X022378Y024500D02*
X022423Y024455D01*
X022513Y024455D01*
X022558Y024500D01*
X022558Y024680D01*
X022513Y024725D01*
X022423Y024725D01*
X022378Y024680D01*
X022378Y024500D01*
X022263Y024725D02*
X022083Y024455D01*
X022788Y024455D02*
X022788Y024725D01*
X022923Y024725D01*
X022968Y024680D01*
X022968Y024590D01*
X022923Y024545D01*
X022788Y024545D01*
X022878Y024545D02*
X022968Y024455D01*
X023083Y024455D02*
X023263Y024725D01*
X023378Y024725D02*
X023468Y024725D01*
X023423Y024725D02*
X023423Y024455D01*
X023378Y024455D02*
X023468Y024455D01*
X023263Y024455D02*
X023083Y024725D01*
X023788Y024725D02*
X023788Y024545D01*
X023878Y024455D01*
X023968Y024545D01*
X023968Y024725D01*
X024083Y024680D02*
X024083Y024500D01*
X024128Y024455D01*
X024218Y024455D01*
X024263Y024500D01*
X024378Y024500D02*
X024423Y024455D01*
X024513Y024455D01*
X024558Y024500D01*
X024558Y024680D02*
X024513Y024725D01*
X024423Y024725D01*
X024378Y024680D01*
X024378Y024500D01*
X024263Y024680D02*
X024218Y024725D01*
X024128Y024725D01*
X024083Y024680D01*
X024788Y024680D02*
X024788Y024500D01*
X024833Y024455D01*
X024923Y024455D01*
X024968Y024500D01*
X024968Y024680D02*
X024923Y024725D01*
X024833Y024725D01*
X024788Y024680D01*
X025083Y024725D02*
X025263Y024725D01*
X025173Y024725D02*
X025173Y024455D01*
X025378Y024500D02*
X025423Y024455D01*
X025513Y024455D01*
X025558Y024500D01*
X025558Y024545D01*
X025513Y024590D01*
X025423Y024590D01*
X025378Y024635D01*
X025378Y024680D01*
X025423Y024725D01*
X025513Y024725D01*
X025558Y024680D01*
X025788Y024680D02*
X025788Y024500D01*
X025833Y024455D01*
X025923Y024455D01*
X025968Y024500D01*
X025968Y024590D01*
X025878Y024590D01*
X025788Y024680D02*
X025833Y024725D01*
X025923Y024725D01*
X025968Y024680D01*
X026083Y024725D02*
X026263Y024455D01*
X026263Y024725D01*
X026378Y024725D02*
X026378Y024455D01*
X026513Y024455D01*
X026558Y024500D01*
X026558Y024680D01*
X026513Y024725D01*
X026378Y024725D01*
X026083Y024725D02*
X026083Y024455D01*
X052820Y009889D02*
X052820Y004771D01*
X056757Y004771D01*
X056757Y009889D01*
X052820Y009889D01*
X057070Y009889D02*
X057070Y004771D01*
X061007Y004771D01*
X061007Y009889D01*
X057070Y009889D01*
D15*
X035483Y019436D02*
X034932Y019436D01*
X034656Y019594D02*
X034656Y020066D01*
X034420Y019830D01*
X034656Y019594D01*
X034420Y019554D02*
X034420Y019830D01*
X034420Y020106D01*
X034145Y020224D02*
X033593Y020224D01*
X033593Y019436D01*
X034145Y019436D01*
X035483Y019436D02*
X035483Y020224D01*
X034932Y020224D01*
X038443Y021790D02*
X040881Y021790D01*
X040881Y024370D01*
X038443Y024370D01*
X034038Y024455D02*
X034038Y022955D01*
X033788Y022705D01*
X033288Y022705D01*
X033038Y022955D01*
X033038Y024455D01*
X032788Y024705D01*
X032288Y024705D01*
X032038Y024455D01*
X032038Y022955D01*
X031788Y022705D01*
X031288Y022705D01*
X031038Y022955D01*
X031038Y024455D01*
X031288Y024705D01*
X031788Y024705D01*
X032038Y024455D01*
X033038Y024455D02*
X033288Y024705D01*
X033788Y024705D01*
X034038Y024455D01*
X033788Y024837D02*
X033288Y024837D01*
X033038Y022955D02*
X032788Y022705D01*
X032288Y022705D01*
X032038Y022955D01*
X029918Y022085D02*
X029918Y019325D01*
X027298Y019325D01*
X027158Y019465D01*
X027158Y022085D01*
X029918Y022085D01*
X027223Y023520D02*
X026803Y023520D01*
X026803Y023730D01*
X026873Y023800D01*
X026943Y023800D01*
X027013Y023730D01*
X027013Y023520D01*
X027013Y023730D02*
X027083Y023800D01*
X027153Y023800D01*
X027223Y023730D01*
X027223Y023520D01*
X027223Y023980D02*
X026803Y023980D01*
X027223Y023980D02*
X027223Y024261D01*
X027223Y024441D02*
X026803Y024441D01*
X027013Y024511D02*
X027223Y024721D01*
X027083Y024441D02*
X026803Y024721D01*
X020523Y024721D02*
X020103Y024441D01*
X020523Y024441D01*
X020523Y024261D02*
X020383Y024121D01*
X020383Y024191D02*
X020383Y023980D01*
X020523Y023980D02*
X020103Y023980D01*
X020103Y024191D01*
X020173Y024261D01*
X020313Y024261D01*
X020383Y024191D01*
X020313Y023800D02*
X020313Y023660D01*
X020313Y023800D02*
X020453Y023800D01*
X020523Y023730D01*
X020523Y023590D01*
X020453Y023520D01*
X020173Y023520D01*
X020103Y023590D01*
X020103Y023730D01*
X020173Y023800D01*
X020103Y024721D02*
X020523Y024721D01*
X027028Y019265D02*
X027030Y019280D01*
X027035Y019294D01*
X027044Y019306D01*
X027056Y019316D01*
X027069Y019322D01*
X027084Y019325D01*
X027099Y019324D01*
X027114Y019319D01*
X027126Y019311D01*
X027137Y019300D01*
X027144Y019287D01*
X027148Y019273D01*
X027148Y019257D01*
X027144Y019243D01*
X027137Y019230D01*
X027126Y019219D01*
X027114Y019211D01*
X027099Y019206D01*
X027084Y019205D01*
X027069Y019208D01*
X027056Y019214D01*
X027044Y019224D01*
X027035Y019236D01*
X027030Y019250D01*
X027028Y019265D01*
X046310Y020903D02*
X046310Y020959D01*
X046310Y020903D02*
X047767Y020903D01*
X047767Y020959D01*
X047767Y024201D02*
X047767Y024257D01*
X046310Y024257D01*
X046310Y024201D01*
D16*
X046625Y023934D03*
D17*
X014847Y023992D02*
X014847Y021168D01*
X013230Y021168D01*
X013230Y023992D01*
X014847Y023992D01*
D18*
X041071Y023080D03*
D19*
X011406Y023052D02*
X010439Y023052D01*
X010430Y023027D02*
X010390Y022957D01*
X010338Y022895D01*
X010275Y022845D01*
X010203Y022807D01*
X010401Y022330D01*
X010472Y022363D01*
X010540Y022402D01*
X010887Y022119D01*
X011124Y022357D01*
X010842Y022703D01*
X010892Y022795D01*
X010932Y022891D01*
X010961Y022992D01*
X011406Y023037D01*
X011406Y023373D01*
X010961Y023418D01*
X010932Y023519D01*
X010892Y023615D01*
X010842Y023707D01*
X011124Y024053D01*
X010887Y024291D01*
X010540Y024008D01*
X010449Y024059D01*
X010352Y024099D01*
X010251Y024128D01*
X010206Y024573D01*
X009870Y024573D01*
X009825Y024128D01*
X009725Y024099D01*
X009628Y024059D01*
X009536Y024008D01*
X009190Y024291D01*
X008952Y024053D01*
X009235Y023707D01*
X009184Y023615D01*
X009144Y023519D01*
X009115Y023418D01*
X008671Y023373D01*
X008671Y023037D01*
X009115Y022992D01*
X009144Y022891D01*
X009184Y022795D01*
X009235Y022703D01*
X008952Y022357D01*
X009190Y022119D01*
X009536Y022402D01*
X009605Y022363D01*
X009676Y022330D01*
X009874Y022807D01*
X009809Y022840D01*
X009751Y022884D01*
X009702Y022937D01*
X009131Y022937D01*
X009149Y022879D02*
X009758Y022879D01*
X009702Y022937D02*
X009661Y022997D01*
X009632Y023063D01*
X009614Y023133D01*
X009608Y023205D01*
X009615Y023285D01*
X009638Y023363D01*
X009674Y023435D01*
X009724Y023499D01*
X009784Y023553D01*
X009853Y023594D01*
X009929Y023622D01*
X010009Y023635D01*
X010090Y023633D01*
X010169Y023615D01*
X010243Y023584D01*
X010310Y023539D01*
X010368Y023482D01*
X010414Y023416D01*
X010446Y023342D01*
X010465Y023264D01*
X010468Y023183D01*
X010457Y023103D01*
X010430Y023027D01*
X010412Y022994D02*
X010984Y022994D01*
X010945Y022937D02*
X010373Y022937D01*
X010317Y022879D02*
X010927Y022879D01*
X010903Y022821D02*
X010230Y022821D01*
X010221Y022764D02*
X010875Y022764D01*
X010844Y022706D02*
X010245Y022706D01*
X010269Y022649D02*
X010886Y022649D01*
X010933Y022591D02*
X010293Y022591D01*
X010316Y022534D02*
X010980Y022534D01*
X011027Y022476D02*
X010340Y022476D01*
X010364Y022419D02*
X011074Y022419D01*
X011121Y022361D02*
X010590Y022361D01*
X010661Y022303D02*
X011071Y022303D01*
X011013Y022246D02*
X010731Y022246D01*
X010802Y022188D02*
X010956Y022188D01*
X010898Y022131D02*
X010872Y022131D01*
X010468Y022361D02*
X010388Y022361D01*
X009784Y022591D02*
X009144Y022591D01*
X009097Y022534D02*
X009760Y022534D01*
X009736Y022476D02*
X009050Y022476D01*
X009003Y022419D02*
X009713Y022419D01*
X009689Y022361D02*
X009608Y022361D01*
X009487Y022361D02*
X008956Y022361D01*
X009006Y022303D02*
X009416Y022303D01*
X009345Y022246D02*
X009063Y022246D01*
X009121Y022188D02*
X009275Y022188D01*
X009204Y022131D02*
X009178Y022131D01*
X009191Y022649D02*
X009808Y022649D01*
X009832Y022706D02*
X009233Y022706D01*
X009201Y022764D02*
X009856Y022764D01*
X009846Y022821D02*
X009173Y022821D01*
X009093Y022994D02*
X009663Y022994D01*
X009637Y023052D02*
X008671Y023052D01*
X008671Y023109D02*
X009620Y023109D01*
X009611Y023167D02*
X008671Y023167D01*
X008671Y023224D02*
X009610Y023224D01*
X009615Y023282D02*
X008671Y023282D01*
X008671Y023339D02*
X009631Y023339D01*
X009655Y023397D02*
X008908Y023397D01*
X009126Y023455D02*
X009689Y023455D01*
X009739Y023512D02*
X009143Y023512D01*
X009166Y023570D02*
X009813Y023570D01*
X009964Y023627D02*
X009191Y023627D01*
X009223Y023685D02*
X010854Y023685D01*
X010871Y023742D02*
X009206Y023742D01*
X009159Y023800D02*
X010918Y023800D01*
X010964Y023857D02*
X009112Y023857D01*
X009065Y023915D02*
X011011Y023915D01*
X011058Y023973D02*
X009018Y023973D01*
X008971Y024030D02*
X009510Y024030D01*
X009576Y024030D02*
X010501Y024030D01*
X010567Y024030D02*
X011105Y024030D01*
X011090Y024088D02*
X010638Y024088D01*
X010708Y024145D02*
X011032Y024145D01*
X010975Y024203D02*
X010779Y024203D01*
X010849Y024260D02*
X010917Y024260D01*
X010379Y024088D02*
X009698Y024088D01*
X009827Y024145D02*
X010250Y024145D01*
X010244Y024203D02*
X009833Y024203D01*
X009839Y024260D02*
X010238Y024260D01*
X010232Y024318D02*
X009845Y024318D01*
X009850Y024375D02*
X010226Y024375D01*
X010220Y024433D02*
X009856Y024433D01*
X009862Y024491D02*
X010215Y024491D01*
X010209Y024548D02*
X009868Y024548D01*
X009368Y024145D02*
X009044Y024145D01*
X008987Y024088D02*
X009439Y024088D01*
X009298Y024203D02*
X009102Y024203D01*
X009160Y024260D02*
X009227Y024260D01*
X010114Y023627D02*
X010886Y023627D01*
X010911Y023570D02*
X010264Y023570D01*
X010337Y023512D02*
X010934Y023512D01*
X010951Y023455D02*
X010387Y023455D01*
X010422Y023397D02*
X011169Y023397D01*
X011406Y023339D02*
X010447Y023339D01*
X010461Y023282D02*
X011406Y023282D01*
X011406Y023224D02*
X010467Y023224D01*
X010466Y023167D02*
X011406Y023167D01*
X011406Y023109D02*
X010458Y023109D01*
D20*
G36*
X059943Y025174D02*
X059884Y025125D01*
X059871Y025140D01*
X059930Y025189D01*
X059943Y025174D01*
G37*
G36*
X059956Y025159D02*
X059897Y025110D01*
X059884Y025125D01*
X059943Y025174D01*
X059956Y025159D01*
G37*
G36*
X059968Y025144D02*
X059909Y025095D01*
X059896Y025110D01*
X059955Y025159D01*
X059968Y025144D01*
G37*
G36*
X060009Y025126D02*
X059950Y025077D01*
X059937Y025092D01*
X059996Y025141D01*
X060009Y025126D01*
G37*
G36*
X060115Y025061D02*
X060056Y025012D01*
X060043Y025027D01*
X060102Y025076D01*
X060115Y025061D01*
G37*
G36*
X060140Y025031D02*
X060081Y024982D01*
X060068Y024997D01*
X060127Y025046D01*
X060140Y025031D01*
G37*
G36*
X060153Y025016D02*
X060094Y024967D01*
X060081Y024982D01*
X060140Y025031D01*
X060153Y025016D01*
G37*
G36*
X060107Y025285D02*
X060048Y025236D01*
X060035Y025251D01*
X060094Y025300D01*
X060107Y025285D01*
G37*
G36*
X060094Y025300D02*
X060035Y025251D01*
X060022Y025266D01*
X060081Y025315D01*
X060094Y025300D01*
G37*
G36*
X060114Y025369D02*
X060055Y025320D01*
X060042Y025335D01*
X060101Y025384D01*
X060114Y025369D01*
G37*
G36*
X060212Y025374D02*
X060153Y025325D01*
X060140Y025340D01*
X060199Y025389D01*
X060212Y025374D01*
G37*
G36*
X060108Y025467D02*
X060049Y025418D01*
X060036Y025433D01*
X060095Y025482D01*
X060108Y025467D01*
G37*
G36*
X060523Y025738D02*
X060464Y025689D01*
X060451Y025704D01*
X060510Y025753D01*
X060523Y025738D01*
G37*
G36*
X060564Y025720D02*
X060505Y025671D01*
X060492Y025686D01*
X060551Y025735D01*
X060564Y025720D01*
G37*
G36*
X060604Y025703D02*
X060545Y025654D01*
X060532Y025669D01*
X060591Y025718D01*
X060604Y025703D01*
G37*
G36*
X060617Y025688D02*
X060558Y025639D01*
X060545Y025654D01*
X060604Y025703D01*
X060617Y025688D01*
G37*
G36*
X060657Y025670D02*
X060598Y025621D01*
X060585Y025636D01*
X060644Y025685D01*
X060657Y025670D01*
G37*
G36*
X060683Y025640D02*
X060624Y025591D01*
X060611Y025606D01*
X060670Y025655D01*
X060683Y025640D01*
G37*
G36*
X060695Y025625D02*
X060636Y025576D01*
X060623Y025591D01*
X060682Y025640D01*
X060695Y025625D01*
G37*
G36*
X060708Y025610D02*
X060649Y025561D01*
X060636Y025576D01*
X060695Y025625D01*
X060708Y025610D01*
G37*
G36*
X060720Y025595D02*
X060661Y025546D01*
X060648Y025561D01*
X060707Y025610D01*
X060720Y025595D01*
G37*
G36*
X060733Y025580D02*
X060674Y025531D01*
X060661Y025546D01*
X060720Y025595D01*
X060733Y025580D01*
G37*
G36*
X060746Y025565D02*
X060687Y025516D01*
X060674Y025531D01*
X060733Y025580D01*
X060746Y025565D01*
G37*
G36*
X060771Y025534D02*
X060712Y025485D01*
X060699Y025500D01*
X060758Y025549D01*
X060771Y025534D01*
G37*
G36*
X060796Y025505D02*
X060737Y025456D01*
X060724Y025471D01*
X060783Y025520D01*
X060796Y025505D01*
G37*
G36*
X060824Y025502D02*
X060765Y025453D01*
X060752Y025468D01*
X060811Y025517D01*
X060824Y025502D01*
G37*
G36*
X060847Y025444D02*
X060788Y025395D01*
X060775Y025410D01*
X060834Y025459D01*
X060847Y025444D01*
G37*
G36*
X060875Y025442D02*
X060816Y025393D01*
X060803Y025408D01*
X060862Y025457D01*
X060875Y025442D01*
G37*
G36*
X060872Y025414D02*
X060813Y025365D01*
X060800Y025380D01*
X060859Y025429D01*
X060872Y025414D01*
G37*
G36*
X060898Y025384D02*
X060839Y025335D01*
X060826Y025350D01*
X060885Y025399D01*
X060898Y025384D01*
G37*
G36*
X060923Y025354D02*
X060864Y025305D01*
X060851Y025320D01*
X060910Y025369D01*
X060923Y025354D01*
G37*
G36*
X060961Y025308D02*
X060902Y025259D01*
X060889Y025274D01*
X060948Y025323D01*
X060961Y025308D01*
G37*
G36*
X060974Y025293D02*
X060915Y025244D01*
X060902Y025259D01*
X060961Y025308D01*
X060974Y025293D01*
G37*
G36*
X060986Y025278D02*
X060927Y025229D01*
X060914Y025244D01*
X060973Y025293D01*
X060986Y025278D01*
G37*
G36*
X060999Y025263D02*
X060940Y025214D01*
X060927Y025229D01*
X060986Y025278D01*
X060999Y025263D01*
G37*
G36*
X061011Y025248D02*
X060952Y025199D01*
X060939Y025214D01*
X060998Y025263D01*
X061011Y025248D01*
G37*
G36*
X061024Y025233D02*
X060965Y025184D01*
X060952Y025199D01*
X061011Y025248D01*
X061024Y025233D01*
G37*
G36*
X061037Y025218D02*
X060978Y025169D01*
X060965Y025184D01*
X061024Y025233D01*
X061037Y025218D01*
G37*
G36*
X061049Y025203D02*
X060990Y025154D01*
X060977Y025169D01*
X061036Y025218D01*
X061049Y025203D01*
G37*
G36*
X061062Y025188D02*
X061003Y025139D01*
X060990Y025154D01*
X061049Y025203D01*
X061062Y025188D01*
G37*
G36*
X061075Y025173D02*
X061016Y025124D01*
X061003Y025139D01*
X061062Y025188D01*
X061075Y025173D01*
G37*
G36*
X061087Y025158D02*
X061028Y025109D01*
X061015Y025124D01*
X061074Y025173D01*
X061087Y025158D01*
G37*
G36*
X061100Y025143D02*
X061041Y025094D01*
X061028Y025109D01*
X061087Y025158D01*
X061100Y025143D01*
G37*
G36*
X061113Y025128D02*
X061054Y025079D01*
X061041Y025094D01*
X061100Y025143D01*
X061113Y025128D01*
G37*
G36*
X061125Y025112D02*
X061066Y025063D01*
X061053Y025078D01*
X061112Y025127D01*
X061125Y025112D01*
G37*
G36*
X061138Y025097D02*
X061079Y025048D01*
X061066Y025063D01*
X061125Y025112D01*
X061138Y025097D01*
G37*
G36*
X061151Y025082D02*
X061092Y025033D01*
X061079Y025048D01*
X061138Y025097D01*
X061151Y025082D01*
G37*
G36*
X061163Y025067D02*
X061104Y025018D01*
X061091Y025033D01*
X061150Y025082D01*
X061163Y025067D01*
G37*
G36*
X061176Y025052D02*
X061117Y025003D01*
X061104Y025018D01*
X061163Y025067D01*
X061176Y025052D01*
G37*
G36*
X061189Y025037D02*
X061130Y024988D01*
X061117Y025003D01*
X061176Y025052D01*
X061189Y025037D01*
G37*
G36*
X061201Y025022D02*
X061142Y024973D01*
X061129Y024988D01*
X061188Y025037D01*
X061201Y025022D01*
G37*
G36*
X061214Y025007D02*
X061155Y024958D01*
X061142Y024973D01*
X061201Y025022D01*
X061214Y025007D01*
G37*
G36*
X061227Y024992D02*
X061168Y024943D01*
X061155Y024958D01*
X061214Y025007D01*
X061227Y024992D01*
G37*
G36*
X061239Y024977D02*
X061180Y024928D01*
X061167Y024943D01*
X061226Y024992D01*
X061239Y024977D01*
G37*
G36*
X061252Y024962D02*
X061193Y024913D01*
X061180Y024928D01*
X061239Y024977D01*
X061252Y024962D01*
G37*
G36*
X061265Y024947D02*
X061206Y024898D01*
X061193Y024913D01*
X061252Y024962D01*
X061265Y024947D01*
G37*
G36*
X061277Y024931D02*
X061218Y024882D01*
X061205Y024897D01*
X061264Y024946D01*
X061277Y024931D01*
G37*
G36*
X061290Y024916D02*
X061231Y024867D01*
X061218Y024882D01*
X061277Y024931D01*
X061290Y024916D01*
G37*
G36*
X061302Y024901D02*
X061243Y024852D01*
X061230Y024867D01*
X061289Y024916D01*
X061302Y024901D01*
G37*
G36*
X061315Y024886D02*
X061256Y024837D01*
X061243Y024852D01*
X061302Y024901D01*
X061315Y024886D01*
G37*
G36*
X061328Y024871D02*
X061269Y024822D01*
X061256Y024837D01*
X061315Y024886D01*
X061328Y024871D01*
G37*
G36*
X061340Y024856D02*
X061281Y024807D01*
X061268Y024822D01*
X061327Y024871D01*
X061340Y024856D01*
G37*
G36*
X061353Y024841D02*
X061294Y024792D01*
X061281Y024807D01*
X061340Y024856D01*
X061353Y024841D01*
G37*
G36*
X061366Y024826D02*
X061307Y024777D01*
X061294Y024792D01*
X061353Y024841D01*
X061366Y024826D01*
G37*
G36*
X061378Y024811D02*
X061319Y024762D01*
X061306Y024777D01*
X061365Y024826D01*
X061378Y024811D01*
G37*
G36*
X061391Y024796D02*
X061332Y024747D01*
X061319Y024762D01*
X061378Y024811D01*
X061391Y024796D01*
G37*
G36*
X061404Y024781D02*
X061345Y024732D01*
X061332Y024747D01*
X061391Y024796D01*
X061404Y024781D01*
G37*
G36*
X061416Y024766D02*
X061357Y024717D01*
X061344Y024732D01*
X061403Y024781D01*
X061416Y024766D01*
G37*
G36*
X061429Y024751D02*
X061370Y024702D01*
X061357Y024717D01*
X061416Y024766D01*
X061429Y024751D01*
G37*
G36*
X061442Y024735D02*
X061383Y024686D01*
X061370Y024701D01*
X061429Y024750D01*
X061442Y024735D01*
G37*
G36*
X061454Y024720D02*
X061395Y024671D01*
X061382Y024686D01*
X061441Y024735D01*
X061454Y024720D01*
G37*
G36*
X061467Y024705D02*
X061408Y024656D01*
X061395Y024671D01*
X061454Y024720D01*
X061467Y024705D01*
G37*
G36*
X061480Y024690D02*
X061421Y024641D01*
X061408Y024656D01*
X061467Y024705D01*
X061480Y024690D01*
G37*
G36*
X060994Y024411D02*
X060935Y024362D01*
X060922Y024377D01*
X060981Y024426D01*
X060994Y024411D01*
G37*
G36*
X061007Y024396D02*
X060948Y024347D01*
X060935Y024362D01*
X060994Y024411D01*
X061007Y024396D01*
G37*
G36*
X061020Y024381D02*
X060961Y024332D01*
X060948Y024347D01*
X061007Y024396D01*
X061020Y024381D01*
G37*
G36*
X061032Y024366D02*
X060973Y024317D01*
X060960Y024332D01*
X061019Y024381D01*
X061032Y024366D01*
G37*
G36*
X061045Y024351D02*
X060986Y024302D01*
X060973Y024317D01*
X061032Y024366D01*
X061045Y024351D01*
G37*
G36*
X061057Y024336D02*
X060998Y024287D01*
X060985Y024302D01*
X061044Y024351D01*
X061057Y024336D01*
G37*
G36*
X060969Y024442D02*
X060910Y024393D01*
X060897Y024408D01*
X060956Y024457D01*
X060969Y024442D01*
G37*
G36*
X060941Y024444D02*
X060882Y024395D01*
X060869Y024410D01*
X060928Y024459D01*
X060941Y024444D01*
G37*
G36*
X060929Y024459D02*
X060870Y024410D01*
X060857Y024425D01*
X060916Y024474D01*
X060929Y024459D01*
G37*
G36*
X060903Y024489D02*
X060844Y024440D01*
X060831Y024455D01*
X060890Y024504D01*
X060903Y024489D01*
G37*
G36*
X060890Y024504D02*
X060831Y024455D01*
X060818Y024470D01*
X060877Y024519D01*
X060890Y024504D01*
G37*
G36*
X060878Y024519D02*
X060819Y024470D01*
X060806Y024485D01*
X060865Y024534D01*
X060878Y024519D01*
G37*
G36*
X060865Y024534D02*
X060806Y024485D01*
X060793Y024500D01*
X060852Y024549D01*
X060865Y024534D01*
G37*
G36*
X060852Y024550D02*
X060793Y024501D01*
X060780Y024516D01*
X060839Y024565D01*
X060852Y024550D01*
G37*
G36*
X060787Y024597D02*
X060728Y024548D01*
X060715Y024563D01*
X060774Y024612D01*
X060787Y024597D01*
G37*
G36*
X060774Y024612D02*
X060715Y024563D01*
X060702Y024578D01*
X060761Y024627D01*
X060774Y024612D01*
G37*
G36*
X060762Y024627D02*
X060703Y024578D01*
X060690Y024593D01*
X060749Y024642D01*
X060762Y024627D01*
G37*
G36*
X060749Y024643D02*
X060690Y024594D01*
X060677Y024609D01*
X060736Y024658D01*
X060749Y024643D01*
G37*
G36*
X060736Y024658D02*
X060677Y024609D01*
X060664Y024624D01*
X060723Y024673D01*
X060736Y024658D01*
G37*
G36*
X060709Y024660D02*
X060650Y024611D01*
X060637Y024626D01*
X060696Y024675D01*
X060709Y024660D01*
G37*
G36*
X060696Y024675D02*
X060637Y024626D01*
X060624Y024641D01*
X060683Y024690D01*
X060696Y024675D01*
G37*
G36*
X060671Y024705D02*
X060612Y024656D01*
X060599Y024671D01*
X060658Y024720D01*
X060671Y024705D01*
G37*
G36*
X060658Y024720D02*
X060599Y024671D01*
X060586Y024686D01*
X060645Y024735D01*
X060658Y024720D01*
G37*
G36*
X060618Y024738D02*
X060559Y024689D01*
X060546Y024704D01*
X060605Y024753D01*
X060618Y024738D01*
G37*
G36*
X060605Y024753D02*
X060546Y024704D01*
X060533Y024719D01*
X060592Y024768D01*
X060605Y024753D01*
G37*
G36*
X060592Y024768D02*
X060533Y024719D01*
X060520Y024734D01*
X060579Y024783D01*
X060592Y024768D01*
G37*
G36*
X060567Y024798D02*
X060508Y024749D01*
X060495Y024764D01*
X060554Y024813D01*
X060567Y024798D01*
G37*
G36*
X060539Y024800D02*
X060480Y024751D01*
X060467Y024766D01*
X060526Y024815D01*
X060539Y024800D01*
G37*
G36*
X060630Y025673D02*
X060571Y025624D01*
X060558Y025639D01*
X060617Y025688D01*
X060630Y025673D01*
G37*
G36*
X060576Y025705D02*
X060517Y025656D01*
X060504Y025671D01*
X060563Y025720D01*
X060576Y025705D01*
G37*
D21*
G36*
X060551Y025735D02*
X060477Y025673D01*
X060465Y025689D01*
X060539Y025751D01*
X060551Y025735D01*
G37*
G36*
X060402Y025790D02*
X060328Y025728D01*
X060316Y025744D01*
X060390Y025806D01*
X060402Y025790D01*
G37*
G36*
X060404Y025818D02*
X060330Y025756D01*
X060318Y025772D01*
X060392Y025834D01*
X060404Y025818D01*
G37*
G36*
X060836Y025487D02*
X060762Y025425D01*
X060750Y025441D01*
X060824Y025503D01*
X060836Y025487D01*
G37*
G36*
X060950Y025351D02*
X060876Y025289D01*
X060864Y025305D01*
X060938Y025367D01*
X060950Y025351D01*
G37*
G36*
X060963Y025336D02*
X060889Y025274D01*
X060877Y025290D01*
X060951Y025352D01*
X060963Y025336D01*
G37*
G36*
X060579Y024783D02*
X060505Y024721D01*
X060493Y024737D01*
X060567Y024799D01*
X060579Y024783D01*
G37*
G36*
X060645Y024735D02*
X060571Y024673D01*
X060559Y024689D01*
X060633Y024751D01*
X060645Y024735D01*
G37*
G36*
X060698Y024702D02*
X060624Y024640D01*
X060612Y024656D01*
X060686Y024718D01*
X060698Y024702D01*
G37*
G36*
X060814Y024594D02*
X060740Y024532D01*
X060728Y024548D01*
X060802Y024610D01*
X060814Y024594D01*
G37*
G36*
X060839Y024564D02*
X060765Y024502D01*
X060753Y024518D01*
X060827Y024580D01*
X060839Y024564D01*
G37*
G36*
X060930Y024486D02*
X060856Y024424D01*
X060844Y024440D01*
X060918Y024502D01*
X060930Y024486D01*
G37*
G36*
X060981Y024426D02*
X060907Y024364D01*
X060895Y024380D01*
X060969Y024442D01*
X060981Y024426D01*
G37*
G36*
X060287Y024794D02*
X060213Y024732D01*
X060201Y024748D01*
X060275Y024810D01*
X060287Y024794D01*
G37*
G36*
X060231Y024799D02*
X060157Y024737D01*
X060145Y024753D01*
X060219Y024815D01*
X060231Y024799D01*
G37*
G36*
X060191Y024817D02*
X060117Y024755D01*
X060105Y024771D01*
X060179Y024833D01*
X060191Y024817D01*
G37*
G36*
X060163Y024819D02*
X060089Y024757D01*
X060077Y024773D01*
X060151Y024835D01*
X060163Y024819D01*
G37*
G36*
X060150Y024834D02*
X060076Y024772D01*
X060064Y024788D01*
X060138Y024850D01*
X060150Y024834D01*
G37*
G36*
X060165Y025000D02*
X060091Y024938D01*
X060079Y024954D01*
X060153Y025016D01*
X060165Y025000D01*
G37*
G36*
X060142Y025058D02*
X060068Y024996D01*
X060056Y025012D01*
X060130Y025074D01*
X060142Y025058D01*
G37*
G36*
X060102Y025076D02*
X060028Y025014D01*
X060016Y025030D01*
X060090Y025092D01*
X060102Y025076D01*
G37*
G36*
X060021Y025111D02*
X059947Y025049D01*
X059935Y025065D01*
X060009Y025127D01*
X060021Y025111D01*
G37*
G36*
X060033Y025403D02*
X059959Y025341D01*
X059947Y025357D01*
X060021Y025419D01*
X060033Y025403D01*
G37*
G36*
X059794Y025229D02*
X059720Y025167D01*
X059708Y025183D01*
X059782Y025245D01*
X059794Y025229D01*
G37*
D22*
G36*
X059981Y025128D02*
X059938Y025092D01*
X059925Y025108D01*
X059968Y025144D01*
X059981Y025128D01*
G37*
G36*
X060000Y025350D02*
X059957Y025314D01*
X059944Y025330D01*
X059987Y025366D01*
X060000Y025350D01*
G37*
G36*
X060050Y025443D02*
X060007Y025407D01*
X059994Y025423D01*
X060037Y025459D01*
X060050Y025443D01*
G37*
G36*
X060136Y025464D02*
X060093Y025428D01*
X060080Y025444D01*
X060123Y025480D01*
X060136Y025464D01*
G37*
G36*
X060179Y025474D02*
X060136Y025438D01*
X060123Y025454D01*
X060166Y025490D01*
X060179Y025474D01*
G37*
G36*
X060077Y025748D02*
X060034Y025712D01*
X060021Y025728D01*
X060064Y025764D01*
X060077Y025748D01*
G37*
G36*
X060654Y025642D02*
X060611Y025606D01*
X060598Y025622D01*
X060641Y025658D01*
X060654Y025642D01*
G37*
G36*
X060758Y025549D02*
X060715Y025513D01*
X060702Y025529D01*
X060745Y025565D01*
X060758Y025549D01*
G37*
G36*
X060783Y025519D02*
X060740Y025483D01*
X060727Y025499D01*
X060770Y025535D01*
X060783Y025519D01*
G37*
G36*
X060834Y025459D02*
X060791Y025423D01*
X060778Y025439D01*
X060821Y025475D01*
X060834Y025459D01*
G37*
G36*
X060885Y025398D02*
X060842Y025362D01*
X060829Y025378D01*
X060872Y025414D01*
X060885Y025398D01*
G37*
G36*
X060910Y025368D02*
X060867Y025332D01*
X060854Y025348D01*
X060897Y025384D01*
X060910Y025368D01*
G37*
G36*
X060812Y024566D02*
X060769Y024530D01*
X060756Y024546D01*
X060799Y024582D01*
X060812Y024566D01*
G37*
D23*
G36*
X060526Y024816D02*
X060437Y024741D01*
X060424Y024756D01*
X060513Y024831D01*
X060526Y024816D01*
G37*
G36*
X060330Y024805D02*
X060241Y024730D01*
X060228Y024745D01*
X060317Y024820D01*
X060330Y024805D01*
G37*
G36*
X060275Y024810D02*
X060186Y024735D01*
X060173Y024750D01*
X060262Y024825D01*
X060275Y024810D01*
G37*
G36*
X060219Y024815D02*
X060130Y024740D01*
X060117Y024755D01*
X060206Y024830D01*
X060219Y024815D01*
G37*
G36*
X060138Y024850D02*
X060049Y024775D01*
X060036Y024790D01*
X060125Y024865D01*
X060138Y024850D01*
G37*
G36*
X060163Y024973D02*
X060074Y024898D01*
X060061Y024913D01*
X060150Y024988D01*
X060163Y024973D01*
G37*
G36*
X059804Y025186D02*
X059715Y025111D01*
X059702Y025126D01*
X059791Y025201D01*
X059804Y025186D01*
G37*
G36*
X059807Y025214D02*
X059718Y025139D01*
X059705Y025154D01*
X059794Y025229D01*
X059807Y025214D01*
G37*
G36*
X060443Y025773D02*
X060354Y025698D01*
X060341Y025713D01*
X060430Y025788D01*
X060443Y025773D01*
G37*
G36*
X060430Y025788D02*
X060341Y025713D01*
X060328Y025728D01*
X060417Y025803D01*
X060430Y025788D01*
G37*
G36*
X060407Y025846D02*
X060318Y025771D01*
X060305Y025786D01*
X060394Y025861D01*
X060407Y025846D01*
G37*
G36*
X059476Y024628D02*
X059387Y024553D01*
X059374Y024568D01*
X059463Y024643D01*
X059476Y024628D01*
G37*
D24*
G36*
X059509Y024681D02*
X059390Y024582D01*
X059377Y024597D01*
X059496Y024696D01*
X059509Y024681D01*
G37*
G36*
X059844Y025322D02*
X059725Y025223D01*
X059712Y025238D01*
X059831Y025337D01*
X059844Y025322D01*
G37*
G36*
X060157Y025379D02*
X060038Y025280D01*
X060025Y025295D01*
X060144Y025394D01*
X060157Y025379D01*
G37*
G36*
X060511Y025753D02*
X060392Y025654D01*
X060379Y025669D01*
X060498Y025768D01*
X060511Y025753D01*
G37*
G36*
X060394Y025861D02*
X060275Y025762D01*
X060262Y025777D01*
X060381Y025876D01*
X060394Y025861D01*
G37*
G36*
X060514Y024830D02*
X060395Y024731D01*
X060382Y024746D01*
X060501Y024845D01*
X060514Y024830D01*
G37*
G36*
X060400Y024812D02*
X060281Y024713D01*
X060268Y024728D01*
X060387Y024827D01*
X060400Y024812D01*
G37*
D25*
G36*
X060473Y024848D02*
X060324Y024723D01*
X060311Y024738D01*
X060460Y024863D01*
X060473Y024848D01*
G37*
G36*
X060501Y024846D02*
X060352Y024721D01*
X060339Y024736D01*
X060488Y024861D01*
X060501Y024846D01*
G37*
G36*
X060311Y025226D02*
X060162Y025101D01*
X060149Y025116D01*
X060298Y025241D01*
X060311Y025226D01*
G37*
G36*
X059541Y024734D02*
X059392Y024609D01*
X059379Y024624D01*
X059528Y024749D01*
X059541Y024734D01*
G37*
G36*
X059600Y024603D02*
X059451Y024478D01*
X059438Y024493D01*
X059587Y024618D01*
X059600Y024603D01*
G37*
D26*
G36*
X059721Y024704D02*
X059616Y024616D01*
X059603Y024632D01*
X059708Y024720D01*
X059721Y024704D01*
G37*
G36*
X059504Y024625D02*
X059399Y024537D01*
X059386Y024553D01*
X059491Y024641D01*
X059504Y024625D01*
G37*
G36*
X060358Y024802D02*
X060253Y024714D01*
X060240Y024730D01*
X060345Y024818D01*
X060358Y024802D01*
G37*
G36*
X060243Y025246D02*
X060138Y025158D01*
X060125Y025174D01*
X060230Y025262D01*
X060243Y025246D01*
G37*
G36*
X059827Y025282D02*
X059722Y025194D01*
X059709Y025210D01*
X059814Y025298D01*
X059827Y025282D01*
G37*
G36*
X059957Y025648D02*
X059852Y025560D01*
X059839Y025576D01*
X059944Y025664D01*
X059957Y025648D01*
G37*
G36*
X060471Y025770D02*
X060366Y025682D01*
X060353Y025698D01*
X060458Y025786D01*
X060471Y025770D01*
G37*
G36*
X060483Y025755D02*
X060378Y025667D01*
X060365Y025683D01*
X060470Y025771D01*
X060483Y025755D01*
G37*
D27*
G36*
X060248Y025301D02*
X060083Y025163D01*
X060070Y025179D01*
X060235Y025317D01*
X060248Y025301D01*
G37*
G36*
X060171Y024902D02*
X060006Y024764D01*
X059993Y024780D01*
X060158Y024918D01*
X060171Y024902D01*
G37*
G36*
X059643Y024613D02*
X059478Y024475D01*
X059465Y024491D01*
X059630Y024629D01*
X059643Y024613D01*
G37*
D28*
G36*
X059709Y024567D02*
X059694Y024554D01*
X059681Y024569D01*
X059696Y024582D01*
X059709Y024567D01*
G37*
G36*
X059751Y024731D02*
X059736Y024718D01*
X059723Y024733D01*
X059738Y024746D01*
X059751Y024731D01*
G37*
G36*
X059701Y024791D02*
X059686Y024778D01*
X059673Y024793D01*
X059688Y024806D01*
X059701Y024791D01*
G37*
G36*
X059640Y024740D02*
X059625Y024727D01*
X059612Y024742D01*
X059627Y024755D01*
X059640Y024740D01*
G37*
G36*
X059610Y024715D02*
X059595Y024702D01*
X059582Y024717D01*
X059597Y024730D01*
X059610Y024715D01*
G37*
G36*
X059580Y024690D02*
X059565Y024677D01*
X059552Y024692D01*
X059567Y024705D01*
X059580Y024690D01*
G37*
G36*
X059620Y024826D02*
X059605Y024813D01*
X059592Y024828D01*
X059607Y024841D01*
X059620Y024826D01*
G37*
G36*
X059602Y024940D02*
X059587Y024927D01*
X059574Y024942D01*
X059589Y024955D01*
X059602Y024940D01*
G37*
G36*
X059854Y024945D02*
X059839Y024932D01*
X059826Y024947D01*
X059841Y024960D01*
X059854Y024945D01*
G37*
G36*
X059965Y024936D02*
X059950Y024923D01*
X059937Y024938D01*
X059952Y024951D01*
X059965Y024936D01*
G37*
G36*
X060058Y024886D02*
X060043Y024873D01*
X060030Y024888D01*
X060045Y024901D01*
X060058Y024886D01*
G37*
G36*
X059897Y024802D02*
X059882Y024789D01*
X059869Y024804D01*
X059884Y024817D01*
X059897Y024802D01*
G37*
G36*
X059842Y024807D02*
X059827Y024794D01*
X059814Y024809D01*
X059829Y024822D01*
X059842Y024807D01*
G37*
G36*
X059887Y024691D02*
X059872Y024678D01*
X059859Y024693D01*
X059874Y024706D01*
X059887Y024691D01*
G37*
G36*
X060052Y025138D02*
X060037Y025125D01*
X060024Y025140D01*
X060039Y025153D01*
X060052Y025138D01*
G37*
G36*
X060040Y025152D02*
X060025Y025139D01*
X060012Y025154D01*
X060027Y025167D01*
X060040Y025152D01*
G37*
G36*
X060002Y025198D02*
X059987Y025185D01*
X059974Y025200D01*
X059989Y025213D01*
X060002Y025198D01*
G37*
G36*
X059976Y025228D02*
X059961Y025215D01*
X059948Y025230D01*
X059963Y025243D01*
X059976Y025228D01*
G37*
G36*
X059991Y025394D02*
X059976Y025381D01*
X059963Y025396D01*
X059978Y025409D01*
X059991Y025394D01*
G37*
G36*
X060192Y025461D02*
X060177Y025448D01*
X060164Y025463D01*
X060179Y025476D01*
X060192Y025461D01*
G37*
G36*
X060233Y025443D02*
X060218Y025430D01*
X060205Y025445D01*
X060220Y025458D01*
X060233Y025443D01*
G37*
G36*
X060286Y025411D02*
X060271Y025398D01*
X060258Y025413D01*
X060273Y025426D01*
X060286Y025411D01*
G37*
G36*
X060298Y025395D02*
X060283Y025382D01*
X060270Y025397D01*
X060285Y025410D01*
X060298Y025395D01*
G37*
G36*
X060434Y025663D02*
X060419Y025650D01*
X060406Y025665D01*
X060421Y025678D01*
X060434Y025663D01*
G37*
G36*
X060151Y025786D02*
X060136Y025773D01*
X060123Y025788D01*
X060138Y025801D01*
X060151Y025786D01*
G37*
G36*
X059899Y025626D02*
X059884Y025613D01*
X059871Y025628D01*
X059886Y025641D01*
X059899Y025626D01*
G37*
G36*
X059869Y025600D02*
X059854Y025587D01*
X059841Y025602D01*
X059856Y025615D01*
X059869Y025600D01*
G37*
G36*
X059834Y025520D02*
X059819Y025507D01*
X059806Y025522D01*
X059821Y025535D01*
X059834Y025520D01*
G37*
G36*
X059679Y025338D02*
X059664Y025325D01*
X059651Y025340D01*
X059666Y025353D01*
X059679Y025338D01*
G37*
D29*
G36*
X060174Y024931D02*
X059903Y024704D01*
X059890Y024719D01*
X060161Y024946D01*
X060174Y024931D01*
G37*
D30*
G36*
X060160Y024945D02*
X059725Y024580D01*
X059712Y024595D01*
X060147Y024960D01*
X060160Y024945D01*
G37*
G36*
X060027Y024859D02*
X059592Y024494D01*
X059579Y024509D01*
X060014Y024874D01*
X060027Y024859D01*
G37*
D31*
G36*
X059939Y024811D02*
X059534Y024472D01*
X059521Y024487D01*
X059926Y024826D01*
X059939Y024811D01*
G37*
D32*
G36*
X059915Y025177D02*
X059539Y024862D01*
X059527Y024877D01*
X059903Y025192D01*
X059915Y025177D01*
G37*
G36*
X059866Y024776D02*
X059490Y024461D01*
X059478Y024476D01*
X059854Y024791D01*
X059866Y024776D01*
G37*
D33*
G36*
X059795Y024767D02*
X059767Y024744D01*
X059755Y024759D01*
X059783Y024782D01*
X059795Y024767D01*
G37*
G36*
X059744Y024828D02*
X059716Y024805D01*
X059704Y024820D01*
X059732Y024843D01*
X059744Y024828D01*
G37*
G36*
X059681Y024903D02*
X059653Y024880D01*
X059641Y024895D01*
X059669Y024918D01*
X059681Y024903D01*
G37*
G36*
X059548Y024663D02*
X059520Y024640D01*
X059508Y024655D01*
X059536Y024678D01*
X059548Y024663D01*
G37*
G36*
X060025Y025166D02*
X059997Y025143D01*
X059985Y025158D01*
X060013Y025181D01*
X060025Y025166D01*
G37*
G36*
X060013Y025181D02*
X059985Y025158D01*
X059973Y025173D01*
X060001Y025196D01*
X060013Y025181D01*
G37*
G36*
X059988Y025212D02*
X059960Y025189D01*
X059948Y025204D01*
X059976Y025227D01*
X059988Y025212D01*
G37*
G36*
X059977Y025254D02*
X059949Y025231D01*
X059937Y025246D01*
X059965Y025269D01*
X059977Y025254D01*
G37*
G36*
X059980Y025282D02*
X059952Y025259D01*
X059940Y025274D01*
X059968Y025297D01*
X059980Y025282D01*
G37*
G36*
X059982Y025310D02*
X059954Y025287D01*
X059942Y025302D01*
X059970Y025325D01*
X059982Y025310D01*
G37*
G36*
X060184Y025376D02*
X060156Y025353D01*
X060144Y025368D01*
X060172Y025391D01*
X060184Y025376D01*
G37*
G36*
X060219Y025457D02*
X060191Y025434D01*
X060179Y025449D01*
X060207Y025472D01*
X060219Y025457D01*
G37*
G36*
X060259Y025439D02*
X060231Y025416D01*
X060219Y025431D01*
X060247Y025454D01*
X060259Y025439D01*
G37*
G36*
X060272Y025424D02*
X060244Y025401D01*
X060232Y025416D01*
X060260Y025439D01*
X060272Y025424D01*
G37*
G36*
X060309Y025379D02*
X060281Y025356D01*
X060269Y025371D01*
X060297Y025394D01*
X060309Y025379D01*
G37*
G36*
X060322Y025364D02*
X060294Y025341D01*
X060282Y025356D01*
X060310Y025379D01*
X060322Y025364D01*
G37*
G36*
X060320Y025336D02*
X060292Y025313D01*
X060280Y025328D01*
X060308Y025351D01*
X060320Y025336D01*
G37*
G36*
X060317Y025308D02*
X060289Y025285D01*
X060277Y025300D01*
X060305Y025323D01*
X060317Y025308D01*
G37*
G36*
X060315Y025281D02*
X060287Y025258D01*
X060275Y025273D01*
X060303Y025296D01*
X060315Y025281D01*
G37*
G36*
X060312Y025253D02*
X060284Y025230D01*
X060272Y025245D01*
X060300Y025268D01*
X060312Y025253D01*
G37*
G36*
X060262Y025160D02*
X060234Y025137D01*
X060222Y025152D01*
X060250Y025175D01*
X060262Y025160D01*
G37*
G36*
X060162Y025126D02*
X060134Y025103D01*
X060122Y025118D01*
X060150Y025141D01*
X060162Y025126D01*
G37*
G36*
X060134Y025129D02*
X060106Y025106D01*
X060094Y025121D01*
X060122Y025144D01*
X060134Y025129D01*
G37*
G36*
X060106Y025131D02*
X060078Y025108D01*
X060066Y025123D01*
X060094Y025146D01*
X060106Y025131D01*
G37*
G36*
X059737Y025387D02*
X059709Y025364D01*
X059697Y025379D01*
X059725Y025402D01*
X059737Y025387D01*
G37*
D34*
G36*
X059934Y024909D02*
X059453Y024505D01*
X059440Y024521D01*
X059921Y024925D01*
X059934Y024909D01*
G37*
D35*
G36*
X060012Y025001D02*
X059425Y024508D01*
X059412Y024523D01*
X059999Y025016D01*
X060012Y025001D01*
G37*
D36*
G36*
X060090Y025092D02*
X059413Y024523D01*
X059400Y024538D01*
X060077Y025107D01*
X060090Y025092D01*
G37*
D37*
G36*
X060062Y025094D02*
X059761Y024842D01*
X059748Y024858D01*
X060049Y025110D01*
X060062Y025094D01*
G37*
D38*
G36*
X060080Y025134D02*
X059885Y024971D01*
X059872Y024986D01*
X060067Y025149D01*
X060080Y025134D01*
G37*
G36*
X059589Y024800D02*
X059394Y024637D01*
X059381Y024652D01*
X059576Y024815D01*
X059589Y024800D01*
G37*
D39*
G36*
X059862Y025208D02*
X059729Y025096D01*
X059716Y025112D01*
X059849Y025224D01*
X059862Y025208D01*
G37*
G36*
X059861Y025362D02*
X059728Y025250D01*
X059715Y025266D01*
X059848Y025378D01*
X059861Y025362D01*
G37*
G36*
X059833Y025365D02*
X059700Y025253D01*
X059687Y025269D01*
X059820Y025381D01*
X059833Y025365D01*
G37*
G36*
X060260Y025285D02*
X060127Y025173D01*
X060114Y025189D01*
X060247Y025301D01*
X060260Y025285D01*
G37*
D40*
G36*
X060250Y025329D02*
X060071Y025178D01*
X060058Y025193D01*
X060237Y025344D01*
X060250Y025329D01*
G37*
G36*
X060237Y025344D02*
X060058Y025193D01*
X060045Y025208D01*
X060224Y025359D01*
X060237Y025344D01*
G37*
G36*
X060224Y025359D02*
X060045Y025208D01*
X060032Y025223D01*
X060211Y025374D01*
X060224Y025359D01*
G37*
D41*
G36*
X059890Y025206D02*
X059665Y025018D01*
X059652Y025034D01*
X059877Y025222D01*
X059890Y025206D01*
G37*
G36*
X059637Y024865D02*
X059412Y024677D01*
X059399Y024693D01*
X059624Y024881D01*
X059637Y024865D01*
G37*
G36*
X060382Y025875D02*
X060157Y025687D01*
X060144Y025703D01*
X060369Y025891D01*
X060382Y025875D01*
G37*
D42*
G36*
X059959Y025522D02*
X059674Y025283D01*
X059661Y025298D01*
X059946Y025537D01*
X059959Y025522D01*
G37*
G36*
X059903Y025191D02*
X059618Y024952D01*
X059605Y024967D01*
X059890Y025206D01*
X059903Y025191D01*
G37*
G36*
X059730Y024969D02*
X059445Y024730D01*
X059432Y024745D01*
X059717Y024984D01*
X059730Y024969D01*
G37*
D43*
G36*
X059807Y025060D02*
X059492Y024796D01*
X059479Y024812D01*
X059794Y025076D01*
X059807Y025060D01*
G37*
G36*
X059977Y025562D02*
X059662Y025298D01*
X059649Y025314D01*
X059964Y025578D01*
X059977Y025562D01*
G37*
D44*
G36*
X059897Y025444D02*
X059686Y025267D01*
X059673Y025282D01*
X059884Y025459D01*
X059897Y025444D01*
G37*
D45*
G36*
X060354Y025879D02*
X059993Y025576D01*
X059980Y025591D01*
X060341Y025894D01*
X060354Y025879D01*
G37*
D46*
G36*
X060312Y025869D02*
X059755Y025402D01*
X059742Y025417D01*
X060299Y025884D01*
X060312Y025869D01*
G37*
D47*
G36*
X060269Y025858D02*
X059802Y025467D01*
X059789Y025482D01*
X060256Y025873D01*
X060269Y025858D01*
G37*
D48*
G36*
X060120Y025759D02*
X059865Y025545D01*
X059852Y025561D01*
X060107Y025775D01*
X060120Y025759D01*
G37*
M02*
