G75*
%MOIN*%
%OFA0B0*%
%FSLAX24Y24*%
%IPPOS*%
%LPD*%
%AMOC8*
5,1,8,0,0,1.08239X$1,22.5*
%
%ADD10R,0.0600X0.0600*%
%ADD11C,0.0600*%
%ADD12R,0.0591X0.0177*%
%ADD13R,0.0390X0.0120*%
%ADD14OC8,0.0600*%
%ADD15R,0.1181X0.0630*%
%ADD16R,0.2250X0.1900*%
%ADD17R,0.0512X0.0591*%
%ADD18R,0.0220X0.0500*%
%ADD19R,0.0500X0.0220*%
%ADD20R,0.0740X0.0740*%
%ADD21C,0.0740*%
%ADD22OC8,0.0740*%
%ADD23R,0.0394X0.0433*%
%ADD24C,0.2500*%
%ADD25R,0.0433X0.0394*%
%ADD26R,0.0472X0.0551*%
%ADD27C,0.0290*%
%ADD28R,0.0354X0.0315*%
%ADD29C,0.0100*%
%ADD30C,0.0376*%
%ADD31C,0.0250*%
%ADD32C,0.0160*%
%ADD33C,0.0200*%
%ADD34C,0.0150*%
D10*
X021538Y013330D03*
X014038Y014080D03*
X007538Y014080D03*
X001038Y014080D03*
X029538Y013330D03*
X037538Y013330D03*
X045538Y013330D03*
X053288Y009330D03*
X057538Y009330D03*
D11*
X056288Y009330D03*
X056288Y008330D03*
X057538Y008330D03*
X057538Y007330D03*
X056288Y007330D03*
X056288Y006330D03*
X057538Y006330D03*
X057538Y005330D03*
X056288Y005330D03*
X053288Y005330D03*
X053288Y006330D03*
X051538Y006330D03*
X051538Y007330D03*
X053288Y007330D03*
X053288Y008330D03*
X051538Y008330D03*
X051538Y009330D03*
X051538Y010330D03*
X051538Y011330D03*
X051538Y013330D03*
X045538Y012330D03*
X045538Y011330D03*
X043538Y011330D03*
X043538Y010330D03*
X043538Y009330D03*
X045538Y009330D03*
X045538Y010330D03*
X045538Y008330D03*
X043538Y008330D03*
X043538Y007330D03*
X043538Y006330D03*
X037538Y008330D03*
X035538Y008330D03*
X035538Y007330D03*
X035538Y006330D03*
X029538Y008330D03*
X029538Y009330D03*
X029538Y010330D03*
X029538Y011330D03*
X029538Y012330D03*
X027538Y011330D03*
X027538Y010330D03*
X027538Y009330D03*
X027538Y008330D03*
X027538Y007330D03*
X027538Y006330D03*
X021538Y008330D03*
X021538Y009330D03*
X021538Y010330D03*
X021538Y011330D03*
X021538Y012330D03*
X019038Y012080D03*
X019038Y011080D03*
X019038Y010080D03*
X019038Y009080D03*
X019038Y008080D03*
X019038Y007080D03*
X019038Y006080D03*
X014038Y006080D03*
X012538Y006080D03*
X012538Y007080D03*
X014038Y007080D03*
X014038Y008080D03*
X012538Y008080D03*
X012538Y009080D03*
X014038Y009080D03*
X014038Y010080D03*
X012538Y010080D03*
X012538Y011080D03*
X014038Y011080D03*
X014038Y012080D03*
X012538Y012080D03*
X012538Y013080D03*
X014038Y013080D03*
X012538Y014080D03*
X007538Y013080D03*
X006038Y013080D03*
X006038Y012080D03*
X007538Y012080D03*
X007538Y011080D03*
X007538Y010080D03*
X006038Y010080D03*
X006038Y011080D03*
X006038Y009080D03*
X007538Y009080D03*
X007538Y008080D03*
X006038Y008080D03*
X006038Y007080D03*
X007538Y007080D03*
X007538Y006080D03*
X006038Y006080D03*
X001038Y006080D03*
X001038Y007080D03*
X001038Y008080D03*
X001038Y009080D03*
X001038Y010080D03*
X001038Y011080D03*
X001038Y012080D03*
X001038Y013080D03*
X006038Y014080D03*
X019038Y014080D03*
X019038Y013080D03*
X027538Y013330D03*
X035538Y013330D03*
X037538Y012330D03*
X037538Y011330D03*
X035538Y011330D03*
X035538Y010330D03*
X035538Y009330D03*
X037538Y009330D03*
X037538Y010330D03*
X043538Y013330D03*
X060538Y009330D03*
X060538Y008330D03*
X060538Y007330D03*
X060538Y006330D03*
X060538Y005330D03*
D12*
X048097Y021205D03*
X048097Y021455D03*
X048097Y021705D03*
X048097Y021955D03*
X048097Y022205D03*
X048097Y022455D03*
X048097Y022705D03*
X048097Y022955D03*
X048097Y023205D03*
X048097Y023455D03*
X048097Y023705D03*
X048097Y023955D03*
X045979Y023955D03*
X045979Y023705D03*
X045979Y023455D03*
X045979Y023205D03*
X045979Y022955D03*
X045979Y022705D03*
X045979Y022455D03*
X045979Y022205D03*
X045979Y021955D03*
X045979Y021705D03*
X045979Y021455D03*
X045979Y021205D03*
D13*
X015187Y021173D03*
X015187Y021428D03*
X015187Y021684D03*
X015187Y021940D03*
X015187Y022196D03*
X015187Y022452D03*
X015187Y022708D03*
X015187Y022964D03*
X015187Y023220D03*
X015187Y023476D03*
X015187Y023732D03*
X015187Y023987D03*
X012890Y023987D03*
X012890Y023732D03*
X012890Y023476D03*
X012890Y023220D03*
X012890Y022964D03*
X012890Y022708D03*
X012890Y022452D03*
X012890Y022196D03*
X012890Y021940D03*
X012890Y021684D03*
X012890Y021428D03*
X012890Y021173D03*
D14*
X012788Y019580D03*
X011788Y019580D03*
X010788Y019580D03*
X009788Y019580D03*
X009788Y018580D03*
X010788Y018580D03*
X011788Y018580D03*
X012788Y018580D03*
X013788Y018580D03*
X014788Y018580D03*
X015788Y018580D03*
X016788Y018580D03*
X017788Y018580D03*
X018788Y018580D03*
X018788Y019580D03*
X017788Y019580D03*
X016788Y019580D03*
X015788Y019580D03*
X014788Y019580D03*
X013788Y019580D03*
X042038Y019580D03*
X043038Y019580D03*
X044038Y019580D03*
X045038Y019580D03*
X046038Y019580D03*
X047038Y019580D03*
X048038Y019580D03*
X049038Y019580D03*
X050038Y019580D03*
X051038Y019580D03*
X051038Y018580D03*
X050038Y018580D03*
X049038Y018580D03*
X048038Y018580D03*
X047038Y018580D03*
X046038Y018580D03*
X045038Y018580D03*
X044038Y018580D03*
X043038Y018580D03*
X042038Y018580D03*
X042038Y005080D03*
X043038Y005080D03*
X044038Y005080D03*
X045038Y005080D03*
X046038Y005080D03*
X047038Y005080D03*
X048038Y005080D03*
X049038Y005080D03*
X050038Y005080D03*
X051038Y005080D03*
X051038Y004080D03*
X050038Y004080D03*
X049038Y004080D03*
X048038Y004080D03*
X047038Y004080D03*
X046038Y004080D03*
X045038Y004080D03*
X044038Y004080D03*
X043038Y004080D03*
X042038Y004080D03*
X018788Y004080D03*
X017788Y004080D03*
X016788Y004080D03*
X015788Y004080D03*
X014788Y004080D03*
X013788Y004080D03*
X012788Y004080D03*
X011788Y004080D03*
X010788Y004080D03*
X009788Y004080D03*
X009788Y005080D03*
X010788Y005080D03*
X011788Y005080D03*
X012788Y005080D03*
X013788Y005080D03*
X014788Y005080D03*
X015788Y005080D03*
X016788Y005080D03*
X017788Y005080D03*
X018788Y005080D03*
D15*
X041504Y022182D03*
X041504Y023978D03*
D16*
X038788Y023080D03*
D17*
X036937Y023080D03*
X036189Y023080D03*
X042689Y023855D03*
X043437Y023855D03*
D18*
X029641Y022395D03*
X029326Y022395D03*
X029011Y022395D03*
X028696Y022395D03*
X028381Y022395D03*
X028066Y022395D03*
X027751Y022395D03*
X027436Y022395D03*
X027436Y019015D03*
X027751Y019015D03*
X028066Y019015D03*
X028381Y019015D03*
X028696Y019015D03*
X029011Y019015D03*
X029326Y019015D03*
X029641Y019015D03*
D19*
X030228Y019603D03*
X030228Y019918D03*
X030228Y020233D03*
X030228Y020548D03*
X030228Y020862D03*
X030228Y021177D03*
X030228Y021492D03*
X030228Y021807D03*
X026848Y021807D03*
X026848Y021492D03*
X026848Y021177D03*
X026848Y020862D03*
X026848Y020548D03*
X026848Y020233D03*
X026848Y019918D03*
X026848Y019603D03*
D20*
X021163Y023830D03*
D21*
X022163Y023830D03*
X023163Y023830D03*
X024163Y023830D03*
X025163Y023830D03*
X026163Y023830D03*
D22*
X031538Y024205D03*
X032538Y024305D03*
X033538Y024205D03*
X033538Y023205D03*
X032538Y023305D03*
X031538Y023205D03*
D23*
X033954Y020955D03*
X034623Y020955D03*
X032248Y019855D03*
X031579Y019855D03*
X025873Y019455D03*
X025204Y019455D03*
X025204Y018655D03*
X025873Y018655D03*
X025873Y017855D03*
X025204Y017855D03*
X024954Y020555D03*
X025623Y020555D03*
X019748Y022330D03*
X019079Y022330D03*
X016873Y023790D03*
X016204Y023790D03*
X049204Y021205D03*
X049873Y021205D03*
D24*
X054538Y019580D03*
X054538Y024580D03*
X007038Y023580D03*
X007038Y019580D03*
D25*
X013704Y024580D03*
X014373Y024580D03*
X024954Y021380D03*
X025623Y021380D03*
X028654Y023780D03*
X029323Y023780D03*
X029173Y018305D03*
X028504Y018305D03*
X049204Y022580D03*
X049873Y022580D03*
D26*
X035129Y019830D03*
X033948Y019830D03*
D27*
X032913Y020155D03*
X036938Y022405D03*
X045313Y023955D03*
X048713Y021455D03*
X016013Y023220D03*
X015688Y023478D03*
X012388Y023733D03*
X012088Y023475D03*
X012388Y023220D03*
D28*
X020932Y019454D03*
X021480Y019080D03*
X020932Y018706D03*
X020105Y019080D03*
X022307Y018706D03*
X022855Y019080D03*
X023682Y018706D03*
X023682Y019454D03*
X022307Y019454D03*
D29*
X022306Y019455D01*
X021863Y019455D01*
X020933Y019455D01*
X020932Y019454D01*
X020713Y019080D02*
X020313Y018680D01*
X020213Y018580D01*
X018788Y018580D01*
X018288Y019080D02*
X017788Y019580D01*
X018788Y019580D02*
X019038Y019830D01*
X022588Y019830D01*
X022838Y019580D01*
X022855Y019563D01*
X022855Y019080D01*
X022307Y018706D02*
X022933Y018080D01*
X024413Y018080D01*
X024988Y018655D01*
X025204Y018655D01*
X025873Y018655D02*
X027076Y018655D01*
X027338Y018655D01*
X027436Y018753D01*
X027436Y019015D01*
X027751Y019015D02*
X027751Y018668D01*
X027663Y018580D01*
X026938Y017855D01*
X025873Y017855D01*
X025204Y017855D02*
X021783Y017855D01*
X020932Y018706D01*
X020713Y019080D02*
X021480Y019080D01*
X020105Y019080D02*
X018288Y019080D01*
X017288Y019080D02*
X016788Y018580D01*
X016288Y019080D02*
X015788Y018580D01*
X015288Y019080D02*
X014788Y018580D01*
X014288Y019080D02*
X014288Y020630D01*
X014838Y021180D01*
X015180Y021180D01*
X015187Y021173D01*
X015187Y021428D02*
X015185Y021430D01*
X014738Y021430D01*
X013788Y020480D01*
X013788Y019580D01*
X014788Y019580D02*
X015538Y020330D01*
X015538Y021580D01*
X015434Y021684D01*
X015187Y021684D01*
X015187Y021940D02*
X015428Y021940D01*
X015663Y021705D01*
X015738Y021630D01*
X015738Y020280D01*
X015288Y019830D01*
X015288Y019080D01*
X016288Y019080D02*
X016288Y021580D01*
X016088Y021780D01*
X015416Y022452D01*
X015187Y022452D01*
X015187Y022196D02*
X015422Y022196D01*
X015913Y021705D01*
X015913Y019705D01*
X015788Y019580D01*
X016788Y019580D02*
X016788Y021355D01*
X015435Y022708D01*
X015187Y022708D01*
X015187Y022964D02*
X015454Y022964D01*
X017288Y021130D01*
X017288Y019080D01*
X014288Y019080D02*
X013788Y018580D01*
X013288Y019080D02*
X013288Y021330D01*
X013188Y021430D01*
X012891Y021430D01*
X012890Y021428D01*
X012890Y021173D02*
X012890Y019681D01*
X012788Y019580D01*
X012288Y019080D02*
X012288Y021430D01*
X012538Y021680D01*
X012543Y021684D01*
X012890Y021684D01*
X012890Y021940D02*
X012524Y021940D01*
X011788Y021205D01*
X011788Y019580D01*
X010788Y019580D02*
X010788Y020705D01*
X012535Y022452D01*
X012890Y022452D01*
X012890Y022196D02*
X012529Y022196D01*
X011288Y020955D01*
X011288Y019080D01*
X010788Y018580D01*
X010288Y019080D02*
X009788Y018580D01*
X010288Y019080D02*
X010288Y020455D01*
X012541Y022708D01*
X012890Y022708D01*
X012890Y022964D02*
X012547Y022964D01*
X009788Y020205D01*
X009788Y019580D01*
X011788Y018580D02*
X012288Y019080D01*
X012788Y018580D02*
X013288Y019080D01*
X017426Y021807D02*
X016013Y023220D01*
X016028Y023205D01*
X016038Y023205D01*
X016013Y023220D02*
X015187Y023220D01*
X015187Y023220D01*
X015187Y023476D02*
X015189Y023478D01*
X015688Y023478D01*
X015490Y023732D02*
X015538Y023780D01*
X015548Y023790D01*
X016204Y023790D01*
X015490Y023732D02*
X015187Y023732D01*
X015187Y023987D02*
X015196Y023987D01*
X015187Y023987D02*
X014595Y024580D01*
X014373Y024580D01*
X012889Y023733D02*
X012890Y023732D01*
X012889Y023733D02*
X012388Y023733D01*
X012088Y023475D02*
X012889Y023475D01*
X012890Y023476D01*
X012889Y023220D02*
X012388Y023220D01*
X012889Y023220D02*
X012890Y023220D01*
X017426Y021807D02*
X017641Y021807D01*
X026848Y021807D01*
X026848Y021492D02*
X027126Y021492D01*
X027663Y020955D01*
X027781Y020548D02*
X028513Y021280D01*
X029038Y021705D02*
X029038Y020680D01*
X028381Y020023D01*
X028346Y020023D01*
X028163Y020205D01*
X028381Y020023D02*
X028381Y019015D01*
X028381Y018428D01*
X028504Y018305D01*
X028066Y018608D02*
X028066Y017927D01*
X028288Y017705D01*
X039038Y017705D01*
X040663Y019330D01*
X045288Y023955D01*
X045313Y023955D01*
X045979Y023955D01*
X045979Y023705D02*
X045413Y023705D01*
X042038Y020330D01*
X042038Y019580D01*
X043038Y019580D02*
X043038Y020830D01*
X045413Y023205D01*
X045979Y023205D01*
X045979Y022955D02*
X045413Y022955D01*
X043538Y021080D01*
X043538Y019080D01*
X043038Y018580D01*
X042538Y019080D02*
X042038Y018580D01*
X042538Y019080D02*
X042538Y020580D01*
X045413Y023455D01*
X045979Y023455D01*
X048097Y023205D02*
X050538Y023205D01*
X051038Y022705D01*
X051038Y020205D01*
X050538Y019705D01*
X050538Y019455D01*
X050538Y019080D01*
X051038Y018580D01*
X050038Y018580D02*
X049538Y019080D01*
X048888Y019080D01*
X048538Y019430D01*
X048538Y019830D01*
X048288Y020080D01*
X048038Y020080D01*
X047413Y020705D01*
X047413Y021630D01*
X047738Y021955D01*
X048097Y021955D01*
X048097Y021705D02*
X047763Y021705D01*
X047588Y021530D01*
X047588Y020780D01*
X048038Y020330D01*
X048288Y020330D01*
X049038Y019580D01*
X050038Y019580D02*
X050538Y020080D01*
X050538Y022580D01*
X050163Y022955D01*
X048097Y022955D01*
X049079Y022705D02*
X049204Y022580D01*
X049238Y022580D01*
X049238Y022670D01*
X049238Y022580D02*
X049238Y022280D01*
X049873Y021645D01*
X049873Y021205D01*
X049204Y021205D02*
X049129Y021130D01*
X048588Y021130D01*
X048513Y021205D01*
X048097Y021205D01*
X048097Y021455D02*
X048713Y021455D01*
X047713Y022205D02*
X047213Y021705D01*
X047213Y020655D01*
X047538Y020330D01*
X047538Y019455D01*
X047913Y019080D01*
X048538Y019080D01*
X049038Y018580D01*
X051038Y019580D02*
X051538Y020080D01*
X051538Y022830D01*
X050663Y023705D01*
X048097Y023705D01*
X045979Y022455D02*
X045538Y022455D01*
X044038Y020955D01*
X044038Y019580D01*
X045038Y019580D02*
X045038Y021205D01*
X045538Y021705D01*
X045979Y021705D01*
X045979Y021955D02*
X046413Y021955D01*
X046738Y021630D01*
X046738Y021030D01*
X045538Y019830D01*
X045538Y019080D01*
X045038Y018580D01*
X044538Y018080D02*
X044038Y018580D01*
X044538Y018080D02*
X046288Y018080D01*
X046538Y018330D01*
X046538Y019830D01*
X047038Y020330D01*
X047038Y021705D01*
X046538Y022205D01*
X045979Y022205D01*
X047713Y022205D02*
X048097Y022205D01*
X033954Y020955D02*
X032954Y021955D01*
X032913Y021955D01*
X032163Y021205D02*
X032136Y021177D01*
X030228Y021177D01*
X030228Y020862D02*
X030261Y020830D01*
X031788Y020830D01*
X031413Y020455D02*
X031321Y020548D01*
X030228Y020548D01*
X030228Y020233D02*
X030256Y020205D01*
X030963Y020205D01*
X031063Y020105D01*
X031288Y019705D02*
X031429Y019705D01*
X031579Y019855D01*
X031288Y019705D02*
X030738Y019705D01*
X030588Y019855D01*
X030526Y019918D01*
X030228Y019918D01*
X029663Y020705D02*
X029011Y020052D01*
X029011Y019015D01*
X028066Y019015D02*
X028066Y018608D01*
X026848Y019603D02*
X026021Y019603D01*
X025873Y019455D01*
X025204Y019455D02*
X024954Y019455D01*
X024205Y018706D01*
X023682Y018706D01*
X023682Y019454D02*
X023683Y019455D01*
X024163Y019455D01*
X024088Y020080D02*
X023163Y021005D01*
X022163Y021005D02*
X023251Y019918D01*
X026848Y019918D01*
X026848Y020233D02*
X026316Y020233D01*
X026163Y020080D01*
X024088Y020080D01*
X024313Y020555D02*
X024954Y020555D01*
X025623Y020555D02*
X025623Y021380D01*
X026163Y021330D02*
X026288Y021330D01*
X026441Y021177D01*
X026848Y021177D01*
X026848Y020862D02*
X026163Y020862D01*
X025630Y020548D02*
X025623Y020555D01*
X025630Y020548D02*
X026848Y020548D01*
X027781Y020548D01*
X029663Y020705D02*
X029663Y021455D01*
X030228Y021492D02*
X030826Y021492D01*
X032538Y023205D01*
X032538Y023305D01*
X032038Y023555D02*
X032038Y022955D01*
X030891Y021807D01*
X030228Y021807D01*
X029641Y022395D02*
X029641Y022807D01*
X029663Y022830D01*
X030538Y023705D01*
X031913Y023705D01*
X032513Y024305D01*
X032538Y024305D01*
X032288Y023805D02*
X033063Y023805D01*
X033138Y023805D01*
X033538Y024205D01*
X032288Y023805D02*
X032038Y023555D01*
X029413Y023830D02*
X029413Y023905D01*
X029338Y023980D01*
X029338Y023795D02*
X029323Y023780D01*
X029326Y023777D01*
X029326Y023152D01*
X029326Y022395D01*
X029338Y022382D01*
X029338Y022005D01*
X029038Y021705D01*
X027751Y022043D02*
X027663Y021955D01*
X027288Y021955D01*
X027163Y022080D01*
X019998Y022080D01*
X019748Y022330D01*
X020538Y022830D02*
X019663Y023705D01*
X018038Y023705D01*
X017663Y024080D02*
X019538Y024080D01*
X020538Y023080D01*
X020613Y023005D01*
X023838Y023005D01*
X028613Y023005D01*
X029011Y022608D01*
X029011Y022395D01*
X028066Y022395D02*
X028066Y022677D01*
X027913Y022830D01*
X023913Y022830D01*
X020538Y022830D01*
X020723Y022395D02*
X019788Y023330D01*
X018413Y023330D01*
X020723Y022395D02*
X023728Y022395D01*
X027436Y022395D01*
X027751Y022395D02*
X027751Y022043D01*
X024954Y021380D02*
X021163Y021380D01*
X032248Y019855D02*
X032273Y019830D01*
X032663Y019830D01*
X033573Y019830D01*
X033948Y019830D01*
X032913Y020155D02*
X033713Y020955D01*
X033913Y020955D01*
X033954Y020955D01*
X019538Y014455D02*
X019163Y014830D01*
X019038Y014955D01*
X006913Y014955D01*
X006038Y014080D01*
X006663Y014080D02*
X006663Y013705D01*
X006038Y013080D01*
X006913Y012955D02*
X007288Y012580D01*
X007788Y012580D01*
X008163Y012205D01*
X008163Y010830D01*
X007913Y010580D01*
X007288Y010580D01*
X005788Y010580D01*
X005413Y010205D01*
X005413Y008955D01*
X005788Y008580D01*
X006413Y008580D01*
X006538Y008455D01*
X006913Y008080D01*
X006913Y007830D01*
X006913Y006005D01*
X007838Y005080D01*
X009288Y004580D02*
X009288Y011330D01*
X007538Y013080D01*
X006913Y012955D02*
X006913Y013580D01*
X007413Y014080D01*
X007538Y014080D01*
X007163Y014580D02*
X006663Y014080D01*
X007163Y014580D02*
X011038Y014580D01*
X012538Y013080D01*
X013163Y013705D01*
X013163Y014330D01*
X013538Y014705D01*
X017413Y014705D01*
X019038Y013080D01*
X015913Y009955D01*
X015913Y005580D01*
X016288Y005205D01*
X016288Y004580D01*
X015788Y004080D01*
X016788Y004080D02*
X016788Y004330D01*
X017288Y004830D01*
X017288Y008330D01*
X019038Y010080D01*
X019038Y011080D02*
X016288Y008330D01*
X016288Y005580D01*
X016788Y005080D01*
X015788Y005080D02*
X015288Y005580D01*
X015288Y010830D01*
X014038Y012080D01*
X013538Y012580D01*
X012163Y012580D01*
X011663Y012080D01*
X012538Y012080D02*
X010288Y009830D01*
X010288Y004580D01*
X010788Y004080D01*
X011063Y004480D02*
X010788Y004755D01*
X010788Y005080D01*
X011288Y005580D01*
X011288Y007830D01*
X012538Y009080D01*
X013038Y008080D02*
X014038Y009080D01*
X014038Y008080D02*
X013288Y007330D01*
X013288Y005580D01*
X013788Y005080D01*
X014288Y005580D02*
X014788Y005080D01*
X015288Y005205D02*
X014788Y005705D01*
X014788Y010330D01*
X014038Y011080D01*
X008913Y009830D02*
X008913Y008705D01*
X008913Y004205D01*
X009288Y004580D02*
X009788Y004080D01*
X010938Y004605D02*
X011063Y004480D01*
X011288Y004255D01*
X011288Y003830D01*
X011538Y003580D01*
X013413Y003580D01*
X018288Y003580D01*
X018288Y004580D02*
X017788Y005080D01*
X018788Y005080D02*
X019538Y005830D01*
X019538Y013580D01*
X019038Y014080D01*
X019538Y014455D02*
X019788Y014205D01*
X019788Y005955D01*
X019788Y005080D01*
X019288Y004580D01*
X018288Y004580D01*
X015288Y004580D02*
X015288Y005205D01*
X015288Y004580D02*
X014788Y004080D01*
X012788Y004080D02*
X012288Y004580D01*
X012288Y005330D01*
X012538Y005580D01*
X012788Y005580D01*
X013038Y005830D01*
X013038Y008080D01*
X012538Y008080D02*
X011788Y007330D01*
X011788Y005705D01*
X011288Y005205D01*
X011288Y004580D01*
X011788Y004080D01*
X011788Y005080D02*
X012038Y005330D01*
X012038Y006580D01*
X012538Y007080D01*
X014038Y006080D02*
X014288Y005830D01*
X014288Y005580D01*
X021038Y008830D02*
X021038Y009580D01*
X021288Y009830D01*
X026163Y009830D01*
X027163Y008830D01*
X027663Y008830D01*
X028538Y007955D01*
X028538Y005330D01*
X028913Y004955D01*
X040863Y004955D01*
X041588Y004230D01*
X041588Y003905D01*
X041913Y003580D01*
X045163Y003580D01*
X045288Y003580D01*
X045538Y003830D01*
X045538Y004580D01*
X046038Y005080D01*
X044788Y005830D02*
X044788Y008330D01*
X045288Y008830D01*
X045788Y008830D01*
X046038Y009080D01*
X046038Y009830D01*
X045538Y010330D01*
X049663Y010330D01*
X051238Y008755D01*
X051988Y008755D01*
X052913Y007830D01*
X057663Y007830D01*
X058038Y007455D01*
X058038Y006830D01*
X057538Y006330D01*
X057038Y006830D02*
X056163Y006830D01*
X055163Y005830D01*
X052788Y005830D01*
X051038Y004080D01*
X050538Y003705D02*
X050538Y004580D01*
X051038Y005080D01*
X050913Y005580D02*
X050538Y005580D01*
X050038Y005080D01*
X049538Y005205D02*
X049538Y004580D01*
X050038Y004080D01*
X049038Y004080D02*
X048538Y004580D01*
X048538Y008505D01*
X047538Y008080D02*
X047288Y008330D01*
X045538Y008330D01*
X044038Y008830D02*
X043538Y009330D01*
X044413Y009455D02*
X043538Y010330D01*
X045038Y010830D02*
X045538Y011330D01*
X047538Y013330D01*
X051538Y013330D01*
X052038Y013455D02*
X051663Y013830D01*
X047038Y013830D01*
X045538Y012330D01*
X043538Y013330D02*
X039538Y013330D01*
X037538Y011330D01*
X037038Y010830D01*
X037038Y009830D01*
X037538Y009330D01*
X042538Y009330D01*
X043538Y008330D01*
X044038Y008830D02*
X044038Y007630D01*
X044038Y006080D01*
X043538Y005580D01*
X043538Y004580D01*
X043288Y004330D01*
X043038Y004080D01*
X042538Y004580D02*
X042038Y004080D01*
X042538Y004580D02*
X042538Y007455D01*
X041788Y008205D01*
X038913Y008205D01*
X038288Y008830D01*
X037288Y008830D01*
X036663Y009455D01*
X036663Y012455D01*
X037538Y013330D01*
X035538Y013330D02*
X031538Y013330D01*
X031038Y012830D01*
X029913Y011705D01*
X029538Y011330D01*
X029038Y010830D01*
X029038Y009830D01*
X029538Y009330D01*
X034538Y009330D01*
X035538Y008330D01*
X036913Y007705D02*
X037538Y008330D01*
X036913Y007705D02*
X036913Y005580D01*
X033413Y005205D02*
X041913Y005205D01*
X042038Y005080D01*
X043038Y005080D02*
X043038Y006830D01*
X043538Y007330D01*
X044413Y005955D02*
X044288Y005830D01*
X044163Y005705D01*
X044413Y005955D02*
X044413Y009455D01*
X045038Y009830D02*
X045038Y010830D01*
X045038Y009830D02*
X045538Y009330D01*
X047538Y008080D02*
X047538Y004580D01*
X048038Y004080D01*
X049038Y005080D02*
X049538Y005580D01*
X049538Y008080D01*
X050038Y006830D02*
X051038Y007830D01*
X051538Y008330D01*
X052038Y009205D02*
X052913Y008330D01*
X053288Y008330D01*
X052913Y008830D02*
X052538Y009205D01*
X052038Y009205D02*
X052038Y009580D01*
X051788Y009830D01*
X051288Y009830D01*
X051038Y010080D01*
X051038Y012580D01*
X051288Y012830D01*
X051788Y012830D01*
X052038Y013080D01*
X052038Y013455D01*
X052038Y011330D02*
X051538Y011330D01*
X052038Y011330D02*
X052288Y011080D01*
X052288Y010080D01*
X052538Y009830D01*
X059038Y009830D01*
X060538Y008330D01*
X060038Y008080D02*
X060038Y006830D01*
X060538Y006330D01*
X058413Y005205D02*
X058413Y007455D01*
X057538Y008330D01*
X059288Y008830D02*
X060038Y008080D01*
X059288Y008830D02*
X052913Y008830D01*
X053288Y007330D02*
X051538Y005580D01*
X050913Y005580D01*
X050038Y005705D02*
X049538Y005205D01*
X050038Y005705D02*
X050038Y006830D01*
X053288Y007330D02*
X056288Y007330D01*
X057038Y006830D02*
X057538Y007330D01*
X058413Y005205D02*
X058038Y004830D01*
X052538Y004830D01*
X052413Y004830D01*
X052538Y004830D01*
X050538Y003705D02*
X050163Y003330D01*
X041788Y003330D01*
X041288Y003830D01*
X041288Y004205D01*
X040788Y004705D01*
X028913Y004705D01*
X028163Y005455D01*
X028163Y007705D01*
X027538Y008330D01*
X022538Y008330D01*
X021538Y009330D01*
X021038Y008830D02*
X021538Y008330D01*
X027538Y011330D02*
X028163Y010705D01*
X028163Y009455D01*
X028788Y008830D01*
X029788Y008830D01*
X033413Y005205D01*
X029038Y005455D02*
X029038Y007830D01*
X029538Y008330D01*
X044038Y004080D02*
X044538Y004580D01*
X044538Y005580D01*
X044788Y005830D01*
X008913Y009830D02*
X008663Y010080D01*
X007538Y010080D01*
X008038Y009580D02*
X006538Y009580D01*
X006038Y009080D01*
X008038Y009580D02*
X008413Y009205D01*
X007038Y011580D02*
X007538Y012080D01*
X007038Y011580D02*
X001538Y011580D01*
X001038Y012080D01*
D30*
X008413Y009205D03*
X009663Y009080D03*
X009663Y008080D03*
X009663Y007080D03*
X009663Y006080D03*
X010788Y006080D03*
X008413Y006080D03*
X007838Y005080D03*
X008913Y004205D03*
X015588Y006930D03*
X016788Y006930D03*
X017663Y007830D03*
X016288Y008955D03*
X015588Y007930D03*
X017288Y010205D03*
X016788Y011330D03*
X018538Y011330D03*
X016788Y013205D03*
X016788Y014205D03*
X018163Y014580D03*
X011663Y012080D03*
X010038Y011155D03*
X009663Y010080D03*
X010288Y013205D03*
X010288Y014205D03*
X021863Y019455D03*
X024163Y019455D03*
X024313Y020555D03*
X023163Y021005D03*
X022163Y021005D03*
X021163Y021380D03*
X019788Y021080D03*
X018288Y022330D03*
X018413Y023330D03*
X018038Y023705D03*
X017663Y024080D03*
X026163Y021330D03*
X026163Y020862D03*
X027663Y020955D03*
X027663Y021455D03*
X028513Y021280D03*
X029663Y021455D03*
X031413Y020455D03*
X031788Y020830D03*
X032163Y021205D03*
X032913Y021955D03*
X031063Y020105D03*
X028688Y019730D03*
X028163Y020205D03*
X035663Y019830D03*
X037538Y019805D03*
X030038Y023830D03*
X048788Y021955D03*
X048538Y012330D03*
X048538Y011080D03*
X051913Y010830D03*
X051788Y012205D03*
X052538Y009205D03*
X054788Y008330D03*
X052163Y007205D03*
X050888Y007005D03*
X049038Y007005D03*
X049538Y008080D03*
X048538Y008505D03*
X049538Y008955D03*
X044038Y007630D03*
X042413Y008205D03*
X041163Y007830D03*
X041163Y007030D03*
X038663Y005705D03*
X036913Y005580D03*
X032538Y005455D03*
X029038Y005455D03*
X032538Y008330D03*
X036913Y008580D03*
X041163Y008955D03*
X041163Y010455D03*
X041163Y011330D03*
X041163Y012330D03*
X035913Y012330D03*
X032538Y011330D03*
X032538Y010455D03*
X024538Y011330D03*
X024538Y008955D03*
X018288Y003580D03*
X044163Y005705D03*
X051613Y005130D03*
X052413Y004830D03*
X054788Y005205D03*
X054788Y006330D03*
X058088Y005455D03*
X059038Y005330D03*
X059038Y006580D03*
X059038Y008330D03*
D31*
X035663Y019830D02*
X035129Y019830D01*
X035129Y020596D01*
X036938Y022405D01*
X036937Y022406D01*
X036937Y023080D01*
X038788Y023080D01*
X041504Y023978D02*
X042687Y023978D01*
X042687Y023857D01*
X042689Y023855D01*
X042688Y023856D01*
X042688Y024330D01*
X042813Y024455D01*
X054413Y024455D01*
X054538Y024580D01*
D32*
X000521Y015848D02*
X000521Y003312D01*
X018092Y003312D01*
X018014Y003390D01*
X011460Y003390D01*
X011210Y003640D01*
X011098Y003751D01*
X011098Y003768D01*
X010971Y003640D01*
X010606Y003640D01*
X010348Y003898D01*
X010348Y004251D01*
X010210Y004390D01*
X010098Y004501D01*
X010098Y004768D01*
X009971Y004640D01*
X009606Y004640D01*
X009478Y004768D01*
X009478Y004659D01*
X009617Y004520D01*
X009971Y004520D01*
X010228Y004262D01*
X010228Y003898D01*
X009971Y003640D01*
X009606Y003640D01*
X009348Y003898D01*
X009348Y004251D01*
X009210Y004390D01*
X009103Y004496D01*
X009103Y004479D01*
X009191Y004391D01*
X009241Y004270D01*
X009241Y004140D01*
X009191Y004019D01*
X009099Y003927D01*
X008979Y003877D01*
X008848Y003877D01*
X008727Y003927D01*
X008635Y004019D01*
X008585Y004140D01*
X008585Y004270D01*
X008635Y004391D01*
X008723Y004479D01*
X008723Y009096D01*
X008691Y009019D01*
X008599Y008927D01*
X008479Y008877D01*
X008348Y008877D01*
X008227Y008927D01*
X008135Y009019D01*
X008085Y009140D01*
X008085Y009264D01*
X007960Y009390D01*
X007851Y009390D01*
X007911Y009329D01*
X007978Y009168D01*
X007978Y008992D01*
X007911Y008831D01*
X007788Y008707D01*
X007626Y008640D01*
X007451Y008640D01*
X007289Y008707D01*
X007165Y008831D01*
X007098Y008992D01*
X007098Y009168D01*
X007165Y009329D01*
X007226Y009390D01*
X006617Y009390D01*
X006454Y009227D01*
X006478Y009168D01*
X006478Y008992D01*
X006411Y008831D01*
X006351Y008770D01*
X006492Y008770D01*
X006603Y008659D01*
X006728Y008534D01*
X007098Y008164D01*
X007098Y008168D01*
X007165Y008329D01*
X007289Y008453D01*
X007451Y008520D01*
X007626Y008520D01*
X007788Y008453D01*
X007911Y008329D01*
X007978Y008168D01*
X007978Y007992D01*
X007911Y007831D01*
X007788Y007707D01*
X007626Y007640D01*
X007451Y007640D01*
X007289Y007707D01*
X007165Y007831D01*
X007103Y007980D01*
X007103Y007180D01*
X007165Y007329D01*
X007289Y007453D01*
X007451Y007520D01*
X007626Y007520D01*
X007788Y007453D01*
X007911Y007329D01*
X007978Y007168D01*
X007978Y006992D01*
X007911Y006831D01*
X007788Y006707D01*
X007626Y006640D01*
X007451Y006640D01*
X007289Y006707D01*
X007165Y006831D01*
X007103Y006980D01*
X007103Y006180D01*
X007165Y006329D01*
X007289Y006453D01*
X007451Y006520D01*
X007626Y006520D01*
X007788Y006453D01*
X007911Y006329D01*
X007978Y006168D01*
X007978Y005992D01*
X007911Y005831D01*
X007788Y005707D01*
X007626Y005640D01*
X007547Y005640D01*
X007779Y005408D01*
X007904Y005408D01*
X008024Y005358D01*
X008116Y005266D01*
X008166Y005145D01*
X008166Y005015D01*
X008116Y004894D01*
X008024Y004802D01*
X007904Y004752D01*
X007773Y004752D01*
X007652Y004802D01*
X007560Y004894D01*
X007510Y005015D01*
X007510Y005139D01*
X006723Y005926D01*
X006723Y008001D01*
X006460Y008265D01*
X006423Y008302D01*
X006478Y008168D01*
X006478Y007992D01*
X006411Y007831D01*
X006288Y007707D01*
X006126Y007640D01*
X005951Y007640D01*
X005789Y007707D01*
X005665Y007831D01*
X005598Y007992D01*
X005598Y008168D01*
X005665Y008329D01*
X005726Y008390D01*
X005710Y008390D01*
X005335Y008765D01*
X005223Y008876D01*
X005223Y010284D01*
X005598Y010659D01*
X005710Y010770D01*
X005726Y010770D01*
X005665Y010831D01*
X005598Y010992D01*
X005598Y011168D01*
X005665Y011329D01*
X005726Y011390D01*
X001460Y011390D01*
X001348Y011501D01*
X001185Y011665D01*
X001126Y011640D01*
X000951Y011640D01*
X000789Y011707D01*
X000665Y011831D01*
X000598Y011992D01*
X000598Y012168D01*
X000665Y012329D01*
X000789Y012453D01*
X000951Y012520D01*
X001126Y012520D01*
X001288Y012453D01*
X001411Y012329D01*
X001478Y012168D01*
X001478Y011992D01*
X001454Y011933D01*
X001617Y011770D01*
X005726Y011770D01*
X005665Y011831D01*
X005598Y011992D01*
X005598Y012168D01*
X005665Y012329D01*
X005789Y012453D01*
X005951Y012520D01*
X006126Y012520D01*
X006288Y012453D01*
X006411Y012329D01*
X006478Y012168D01*
X006478Y011992D01*
X006411Y011831D01*
X006351Y011770D01*
X006960Y011770D01*
X007123Y011933D01*
X007098Y011992D01*
X007098Y012168D01*
X007165Y012329D01*
X007226Y012390D01*
X007210Y012390D01*
X007098Y012501D01*
X007098Y012501D01*
X006835Y012765D01*
X006835Y012765D01*
X006723Y012876D01*
X006723Y013496D01*
X006454Y013227D01*
X006478Y013168D01*
X006478Y012992D01*
X006411Y012831D01*
X006288Y012707D01*
X006126Y012640D01*
X005951Y012640D01*
X005789Y012707D01*
X005665Y012831D01*
X005598Y012992D01*
X005598Y013168D01*
X005665Y013329D01*
X005789Y013453D01*
X005951Y013520D01*
X006126Y013520D01*
X006185Y013495D01*
X006473Y013784D01*
X006473Y013980D01*
X006411Y013831D01*
X006288Y013707D01*
X006126Y013640D01*
X005951Y013640D01*
X005789Y013707D01*
X005665Y013831D01*
X005598Y013992D01*
X005598Y014168D01*
X005665Y014329D01*
X005789Y014453D01*
X005951Y014520D01*
X006126Y014520D01*
X006185Y014495D01*
X006835Y015145D01*
X019117Y015145D01*
X019228Y015034D01*
X019353Y014909D01*
X019617Y014645D01*
X019978Y014284D01*
X019978Y005001D01*
X019478Y004501D01*
X019367Y004390D01*
X019101Y004390D01*
X019228Y004262D01*
X019228Y003898D01*
X018971Y003640D01*
X018616Y003640D01*
X018616Y003515D01*
X018566Y003394D01*
X018485Y003312D01*
X041537Y003312D01*
X041098Y003751D01*
X041098Y004126D01*
X040710Y004515D01*
X028835Y004515D01*
X028723Y004626D01*
X027973Y005376D01*
X027973Y006230D01*
X027911Y006081D01*
X027788Y005957D01*
X027626Y005890D01*
X027451Y005890D01*
X027289Y005957D01*
X027165Y006081D01*
X027098Y006242D01*
X027098Y006418D01*
X027165Y006579D01*
X027289Y006703D01*
X027451Y006770D01*
X027626Y006770D01*
X027788Y006703D01*
X027911Y006579D01*
X027973Y006430D01*
X027973Y007230D01*
X027911Y007081D01*
X027788Y006957D01*
X027626Y006890D01*
X027451Y006890D01*
X027289Y006957D01*
X027165Y007081D01*
X027098Y007242D01*
X027098Y007418D01*
X027165Y007579D01*
X027289Y007703D01*
X027451Y007770D01*
X027626Y007770D01*
X027788Y007703D01*
X027911Y007579D01*
X027973Y007430D01*
X027973Y007626D01*
X027685Y007915D01*
X027626Y007890D01*
X027451Y007890D01*
X027289Y007957D01*
X027165Y008081D01*
X027141Y008140D01*
X022460Y008140D01*
X021685Y008915D01*
X021626Y008890D01*
X021451Y008890D01*
X021289Y008957D01*
X021228Y009018D01*
X021228Y008909D01*
X021392Y008745D01*
X021451Y008770D01*
X021626Y008770D01*
X021788Y008703D01*
X021911Y008579D01*
X021978Y008418D01*
X021978Y008242D01*
X021911Y008081D01*
X021788Y007957D01*
X021626Y007890D01*
X021451Y007890D01*
X021289Y007957D01*
X021165Y008081D01*
X021098Y008242D01*
X021098Y008418D01*
X021123Y008477D01*
X020960Y008640D01*
X020848Y008751D01*
X020848Y009659D01*
X021098Y009909D01*
X021210Y010020D01*
X021226Y010020D01*
X021165Y010081D01*
X021098Y010242D01*
X021098Y010418D01*
X021165Y010579D01*
X021289Y010703D01*
X021451Y010770D01*
X021626Y010770D01*
X021788Y010703D01*
X021911Y010579D01*
X021978Y010418D01*
X021978Y010242D01*
X021911Y010081D01*
X021851Y010020D01*
X026242Y010020D01*
X027154Y009108D01*
X027098Y009242D01*
X027098Y009418D01*
X027165Y009579D01*
X027289Y009703D01*
X027451Y009770D01*
X027626Y009770D01*
X027788Y009703D01*
X027911Y009579D01*
X027973Y009430D01*
X027973Y010230D01*
X027911Y010081D01*
X027788Y009957D01*
X027626Y009890D01*
X027451Y009890D01*
X027289Y009957D01*
X027165Y010081D01*
X027098Y010242D01*
X027098Y010418D01*
X027165Y010579D01*
X027289Y010703D01*
X027451Y010770D01*
X027626Y010770D01*
X027788Y010703D01*
X027911Y010579D01*
X027973Y010430D01*
X027973Y010626D01*
X027685Y010915D01*
X027626Y010890D01*
X027451Y010890D01*
X027289Y010957D01*
X027165Y011081D01*
X027098Y011242D01*
X027098Y011418D01*
X027165Y011579D01*
X027289Y011703D01*
X027451Y011770D01*
X027626Y011770D01*
X027788Y011703D01*
X027911Y011579D01*
X027978Y011418D01*
X027978Y011242D01*
X027954Y011183D01*
X028353Y010784D01*
X028353Y009534D01*
X028867Y009020D01*
X029226Y009020D01*
X029165Y009081D01*
X029098Y009242D01*
X029098Y009418D01*
X029123Y009477D01*
X028848Y009751D01*
X028848Y010909D01*
X028960Y011020D01*
X029123Y011183D01*
X029098Y011242D01*
X029098Y011418D01*
X029165Y011579D01*
X029289Y011703D01*
X029451Y011770D01*
X029626Y011770D01*
X029685Y011745D01*
X029835Y011895D01*
X030960Y013020D01*
X031460Y013520D01*
X035141Y013520D01*
X035165Y013579D01*
X035289Y013703D01*
X035451Y013770D01*
X035626Y013770D01*
X035788Y013703D01*
X035911Y013579D01*
X035978Y013418D01*
X035978Y013242D01*
X035911Y013081D01*
X035788Y012957D01*
X035626Y012890D01*
X035451Y012890D01*
X035289Y012957D01*
X035165Y013081D01*
X035141Y013140D01*
X031617Y013140D01*
X031228Y012751D01*
X030103Y011626D01*
X029954Y011477D01*
X029978Y011418D01*
X029978Y011242D01*
X029911Y011081D01*
X029788Y010957D01*
X029626Y010890D01*
X029451Y010890D01*
X029392Y010915D01*
X029228Y010751D01*
X029228Y010642D01*
X029289Y010703D01*
X029451Y010770D01*
X029626Y010770D01*
X029788Y010703D01*
X029911Y010579D01*
X029978Y010418D01*
X029978Y010242D01*
X029911Y010081D01*
X029788Y009957D01*
X029626Y009890D01*
X029451Y009890D01*
X029289Y009957D01*
X029228Y010018D01*
X029228Y009909D01*
X029392Y009745D01*
X029451Y009770D01*
X029626Y009770D01*
X029788Y009703D01*
X029911Y009579D01*
X029936Y009520D01*
X034617Y009520D01*
X034728Y009409D01*
X035392Y008745D01*
X035451Y008770D01*
X035626Y008770D01*
X035788Y008703D01*
X035911Y008579D01*
X035978Y008418D01*
X035978Y008242D01*
X035911Y008081D01*
X035788Y007957D01*
X035626Y007890D01*
X035451Y007890D01*
X035289Y007957D01*
X035165Y008081D01*
X035098Y008242D01*
X035098Y008418D01*
X035123Y008477D01*
X034460Y009140D01*
X029936Y009140D01*
X029911Y009081D01*
X029851Y009020D01*
X029867Y009020D01*
X029978Y008909D01*
X033492Y005395D01*
X036635Y005395D01*
X036585Y005515D01*
X036585Y005645D01*
X036635Y005766D01*
X036723Y005854D01*
X036723Y007784D01*
X037123Y008183D01*
X037098Y008242D01*
X037098Y008418D01*
X037165Y008579D01*
X037226Y008640D01*
X037210Y008640D01*
X037098Y008751D01*
X036585Y009265D01*
X036473Y009376D01*
X036473Y012534D01*
X037098Y013159D01*
X037098Y013688D01*
X037180Y013770D01*
X037896Y013770D01*
X037978Y013688D01*
X037978Y012972D01*
X037896Y012890D01*
X037367Y012890D01*
X036853Y012376D01*
X036853Y010914D01*
X036960Y011020D01*
X037123Y011183D01*
X037098Y011242D01*
X037098Y011418D01*
X037165Y011579D01*
X037289Y011703D01*
X037451Y011770D01*
X037626Y011770D01*
X037685Y011745D01*
X039460Y013520D01*
X043141Y013520D01*
X043165Y013579D01*
X043289Y013703D01*
X043451Y013770D01*
X043626Y013770D01*
X043788Y013703D01*
X043911Y013579D01*
X043978Y013418D01*
X043978Y013242D01*
X043911Y013081D01*
X043788Y012957D01*
X043626Y012890D01*
X043451Y012890D01*
X043289Y012957D01*
X043165Y013081D01*
X043141Y013140D01*
X039617Y013140D01*
X037954Y011477D01*
X037978Y011418D01*
X037978Y011242D01*
X037911Y011081D01*
X037788Y010957D01*
X037626Y010890D01*
X037451Y010890D01*
X037392Y010915D01*
X037228Y010751D01*
X037228Y010642D01*
X037289Y010703D01*
X037451Y010770D01*
X037626Y010770D01*
X037788Y010703D01*
X037911Y010579D01*
X037978Y010418D01*
X037978Y010242D01*
X037911Y010081D01*
X037788Y009957D01*
X037626Y009890D01*
X037451Y009890D01*
X037289Y009957D01*
X037228Y010018D01*
X037228Y009909D01*
X037392Y009745D01*
X037451Y009770D01*
X037626Y009770D01*
X037788Y009703D01*
X037911Y009579D01*
X037936Y009520D01*
X042617Y009520D01*
X042728Y009409D01*
X043392Y008745D01*
X043451Y008770D01*
X043626Y008770D01*
X043788Y008703D01*
X043848Y008642D01*
X043848Y008751D01*
X043685Y008915D01*
X043626Y008890D01*
X043451Y008890D01*
X043289Y008957D01*
X043165Y009081D01*
X043098Y009242D01*
X043098Y009418D01*
X043165Y009579D01*
X043289Y009703D01*
X043451Y009770D01*
X043626Y009770D01*
X043788Y009703D01*
X043911Y009579D01*
X043978Y009418D01*
X043978Y009242D01*
X043954Y009183D01*
X044223Y008914D01*
X044223Y009376D01*
X043685Y009915D01*
X043626Y009890D01*
X043451Y009890D01*
X043289Y009957D01*
X043165Y010081D01*
X043098Y010242D01*
X043098Y010418D01*
X043165Y010579D01*
X043289Y010703D01*
X043451Y010770D01*
X043626Y010770D01*
X043788Y010703D01*
X043911Y010579D01*
X043978Y010418D01*
X043978Y010242D01*
X043954Y010183D01*
X044603Y009534D01*
X044603Y008414D01*
X045098Y008909D01*
X045210Y009020D01*
X045226Y009020D01*
X045165Y009081D01*
X045098Y009242D01*
X045098Y009418D01*
X045123Y009477D01*
X044960Y009640D01*
X044960Y009640D01*
X044848Y009751D01*
X044848Y010909D01*
X045123Y011183D01*
X045098Y011242D01*
X045098Y011418D01*
X045165Y011579D01*
X045289Y011703D01*
X045451Y011770D01*
X045626Y011770D01*
X045685Y011745D01*
X047460Y013520D01*
X051141Y013520D01*
X051165Y013579D01*
X051226Y013640D01*
X047117Y013640D01*
X045954Y012477D01*
X045978Y012418D01*
X045978Y012242D01*
X045911Y012081D01*
X045788Y011957D01*
X045626Y011890D01*
X045451Y011890D01*
X045289Y011957D01*
X045165Y012081D01*
X045098Y012242D01*
X045098Y012418D01*
X045165Y012579D01*
X045289Y012703D01*
X045451Y012770D01*
X045626Y012770D01*
X045685Y012745D01*
X045830Y012890D01*
X045180Y012890D01*
X045098Y012972D01*
X045098Y013688D01*
X045180Y013770D01*
X045896Y013770D01*
X045978Y013688D01*
X045978Y013039D01*
X046960Y014020D01*
X051742Y014020D01*
X051853Y013909D01*
X052228Y013534D01*
X052228Y013001D01*
X052117Y012890D01*
X052117Y012890D01*
X051978Y012751D01*
X051978Y012751D01*
X051867Y012640D01*
X051367Y012640D01*
X051228Y012501D01*
X051228Y011642D01*
X051289Y011703D01*
X051451Y011770D01*
X051626Y011770D01*
X051788Y011703D01*
X051911Y011579D01*
X051936Y011520D01*
X052117Y011520D01*
X052228Y011409D01*
X052478Y011159D01*
X052478Y010159D01*
X052617Y010020D01*
X059117Y010020D01*
X059228Y009909D01*
X060392Y008745D01*
X060451Y008770D01*
X060626Y008770D01*
X060788Y008703D01*
X060798Y008693D01*
X060798Y008967D01*
X060788Y008957D01*
X060626Y008890D01*
X060451Y008890D01*
X060289Y008957D01*
X060165Y009081D01*
X060098Y009242D01*
X060098Y009418D01*
X060165Y009579D01*
X060289Y009703D01*
X060451Y009770D01*
X060626Y009770D01*
X060788Y009703D01*
X060798Y009693D01*
X060798Y015848D01*
X058680Y015848D01*
X058639Y015806D01*
X058518Y015756D01*
X058387Y015756D01*
X058267Y015806D01*
X058256Y015817D01*
X058245Y015806D01*
X058124Y015756D01*
X057994Y015756D01*
X057873Y015806D01*
X057862Y015817D01*
X057851Y015806D01*
X057731Y015756D01*
X057600Y015756D01*
X057479Y015806D01*
X057468Y015817D01*
X057458Y015806D01*
X057337Y015756D01*
X057206Y015756D01*
X057086Y015806D01*
X057075Y015817D01*
X057064Y015806D01*
X056943Y015756D01*
X056813Y015756D01*
X056692Y015806D01*
X056651Y015848D01*
X040686Y015848D01*
X040635Y015797D01*
X040514Y015747D01*
X040383Y015747D01*
X040263Y015797D01*
X040252Y015807D01*
X040241Y015797D01*
X040120Y015747D01*
X039990Y015747D01*
X039869Y015797D01*
X039858Y015807D01*
X039847Y015797D01*
X039727Y015747D01*
X039596Y015747D01*
X039475Y015797D01*
X039464Y015807D01*
X039454Y015797D01*
X039333Y015747D01*
X039202Y015747D01*
X039082Y015797D01*
X039071Y015807D01*
X039060Y015797D01*
X038939Y015747D01*
X038809Y015747D01*
X038688Y015797D01*
X038637Y015848D01*
X022686Y015848D01*
X022635Y015797D01*
X022514Y015747D01*
X022383Y015747D01*
X022263Y015797D01*
X022252Y015807D01*
X022241Y015797D01*
X022120Y015747D01*
X021990Y015747D01*
X021869Y015797D01*
X021858Y015807D01*
X021847Y015797D01*
X021727Y015747D01*
X021596Y015747D01*
X021475Y015797D01*
X021464Y015807D01*
X021454Y015797D01*
X021333Y015747D01*
X021202Y015747D01*
X021082Y015797D01*
X021071Y015807D01*
X021060Y015797D01*
X020939Y015747D01*
X020809Y015747D01*
X020688Y015797D01*
X020637Y015848D01*
X004686Y015848D01*
X004635Y015797D01*
X004514Y015747D01*
X004383Y015747D01*
X004263Y015797D01*
X004252Y015807D01*
X004241Y015797D01*
X004120Y015747D01*
X003990Y015747D01*
X003869Y015797D01*
X003858Y015807D01*
X003847Y015797D01*
X003727Y015747D01*
X003596Y015747D01*
X003475Y015797D01*
X003464Y015807D01*
X003454Y015797D01*
X003333Y015747D01*
X003202Y015747D01*
X003082Y015797D01*
X003071Y015807D01*
X003060Y015797D01*
X002939Y015747D01*
X002809Y015747D01*
X002688Y015797D01*
X002637Y015848D01*
X000521Y015848D01*
X000521Y015760D02*
X002776Y015760D01*
X002972Y015760D02*
X003170Y015760D01*
X003365Y015760D02*
X003564Y015760D01*
X003759Y015760D02*
X003957Y015760D01*
X004153Y015760D02*
X004351Y015760D01*
X004546Y015760D02*
X020776Y015760D01*
X020972Y015760D02*
X021170Y015760D01*
X021365Y015760D02*
X021564Y015760D01*
X021759Y015760D02*
X021957Y015760D01*
X022153Y015760D02*
X022351Y015760D01*
X022546Y015760D02*
X038776Y015760D01*
X038972Y015760D02*
X039170Y015760D01*
X039365Y015760D02*
X039564Y015760D01*
X039759Y015760D02*
X039957Y015760D01*
X040153Y015760D02*
X040351Y015760D01*
X040546Y015760D02*
X056804Y015760D01*
X056952Y015760D02*
X057198Y015760D01*
X057345Y015760D02*
X057591Y015760D01*
X057739Y015760D02*
X057985Y015760D01*
X058133Y015760D02*
X058379Y015760D01*
X058527Y015760D02*
X060798Y015760D01*
X060798Y015602D02*
X000521Y015602D01*
X000521Y015443D02*
X060798Y015443D01*
X060798Y015285D02*
X000521Y015285D01*
X000521Y015126D02*
X006816Y015126D01*
X006657Y014968D02*
X000521Y014968D01*
X000521Y014809D02*
X006499Y014809D01*
X006340Y014651D02*
X000521Y014651D01*
X000521Y014492D02*
X000652Y014492D01*
X000680Y014520D02*
X000598Y014438D01*
X000598Y013722D01*
X000680Y013640D01*
X001396Y013640D01*
X001478Y013722D01*
X001478Y014438D01*
X001396Y014520D01*
X000680Y014520D01*
X000598Y014334D02*
X000521Y014334D01*
X000521Y014175D02*
X000598Y014175D01*
X000598Y014017D02*
X000521Y014017D01*
X000521Y013858D02*
X000598Y013858D01*
X000621Y013700D02*
X000521Y013700D01*
X000521Y013541D02*
X006231Y013541D01*
X006270Y013700D02*
X006389Y013700D01*
X006423Y013858D02*
X006473Y013858D01*
X005807Y013700D02*
X001456Y013700D01*
X001478Y013858D02*
X005654Y013858D01*
X005598Y014017D02*
X001478Y014017D01*
X001478Y014175D02*
X005601Y014175D01*
X005670Y014334D02*
X001478Y014334D01*
X001424Y014492D02*
X005883Y014492D01*
X007103Y013501D02*
X007242Y013640D01*
X007896Y013640D01*
X007978Y013722D01*
X007978Y014390D01*
X010960Y014390D01*
X012123Y013227D01*
X012098Y013168D01*
X012098Y012992D01*
X012165Y012831D01*
X012226Y012770D01*
X012085Y012770D01*
X011973Y012659D01*
X011723Y012408D01*
X011598Y012408D01*
X011477Y012358D01*
X011385Y012266D01*
X011335Y012145D01*
X011335Y012015D01*
X011385Y011894D01*
X011477Y011802D01*
X011598Y011752D01*
X011729Y011752D01*
X011849Y011802D01*
X011941Y011894D01*
X011991Y012015D01*
X011991Y012139D01*
X012154Y012302D01*
X012098Y012168D01*
X012098Y011992D01*
X012123Y011933D01*
X010098Y009909D01*
X010098Y005392D01*
X009971Y005520D01*
X009606Y005520D01*
X009478Y005392D01*
X009478Y011409D01*
X007954Y012933D01*
X007978Y012992D01*
X007978Y013168D01*
X007911Y013329D01*
X007788Y013453D01*
X007626Y013520D01*
X007451Y013520D01*
X007289Y013453D01*
X007165Y013329D01*
X007103Y013180D01*
X007103Y013501D01*
X007143Y013541D02*
X011809Y013541D01*
X011967Y013383D02*
X007858Y013383D01*
X007955Y013224D02*
X012122Y013224D01*
X012098Y013066D02*
X007978Y013066D01*
X007980Y012907D02*
X012134Y012907D01*
X012063Y012749D02*
X008139Y012749D01*
X008297Y012590D02*
X011905Y012590D01*
X011746Y012432D02*
X008456Y012432D01*
X008614Y012273D02*
X011392Y012273D01*
X011335Y012115D02*
X008773Y012115D01*
X008931Y011956D02*
X011360Y011956D01*
X011488Y011798D02*
X009090Y011798D01*
X009248Y011639D02*
X011829Y011639D01*
X011839Y011798D02*
X011987Y011798D01*
X011967Y011956D02*
X012113Y011956D01*
X012098Y012115D02*
X011991Y012115D01*
X012125Y012273D02*
X012142Y012273D01*
X012851Y012390D02*
X013460Y012390D01*
X013623Y012227D01*
X013598Y012168D01*
X013598Y011992D01*
X013665Y011831D01*
X013789Y011707D01*
X013951Y011640D01*
X014126Y011640D01*
X014185Y011665D01*
X015098Y010751D01*
X015098Y005664D01*
X014978Y005784D01*
X014978Y010409D01*
X014454Y010933D01*
X014478Y010992D01*
X014478Y011168D01*
X014411Y011329D01*
X014288Y011453D01*
X014126Y011520D01*
X013951Y011520D01*
X013789Y011453D01*
X013665Y011329D01*
X013598Y011168D01*
X013598Y010992D01*
X013665Y010831D01*
X013789Y010707D01*
X013951Y010640D01*
X014126Y010640D01*
X014185Y010665D01*
X014598Y010251D01*
X014598Y005626D01*
X014705Y005520D01*
X014617Y005520D01*
X014478Y005659D01*
X014478Y005909D01*
X014454Y005933D01*
X014598Y005933D01*
X014478Y005992D02*
X014478Y006168D01*
X014411Y006329D01*
X014288Y006453D01*
X014126Y006520D01*
X013951Y006520D01*
X013789Y006453D01*
X013665Y006329D01*
X013598Y006168D01*
X013598Y005992D01*
X013665Y005831D01*
X013789Y005707D01*
X013951Y005640D01*
X014098Y005640D01*
X014098Y005501D01*
X014210Y005390D01*
X014348Y005251D01*
X014348Y004898D01*
X014606Y004640D01*
X014971Y004640D01*
X015098Y004768D01*
X015098Y004659D01*
X014960Y004520D01*
X014606Y004520D01*
X014348Y004262D01*
X014348Y003898D01*
X014476Y003770D01*
X014101Y003770D01*
X014228Y003898D01*
X014228Y004262D01*
X013971Y004520D01*
X013606Y004520D01*
X013348Y004262D01*
X013348Y003898D01*
X013476Y003770D01*
X013101Y003770D01*
X013228Y003898D01*
X013228Y004262D01*
X012971Y004520D01*
X012617Y004520D01*
X012478Y004659D01*
X012478Y004768D01*
X012606Y004640D01*
X012971Y004640D01*
X013228Y004898D01*
X013228Y005262D01*
X012984Y005507D01*
X013098Y005621D01*
X013098Y005501D01*
X013210Y005390D01*
X013348Y005251D01*
X013348Y004898D01*
X013606Y004640D01*
X013971Y004640D01*
X014228Y004898D01*
X014228Y005262D01*
X013971Y005520D01*
X013617Y005520D01*
X013478Y005659D01*
X013478Y007251D01*
X013892Y007665D01*
X013951Y007640D01*
X014126Y007640D01*
X014288Y007707D01*
X014411Y007831D01*
X014478Y007992D01*
X014478Y008168D01*
X014411Y008329D01*
X014288Y008453D01*
X014126Y008520D01*
X013951Y008520D01*
X013789Y008453D01*
X013665Y008329D01*
X013598Y008168D01*
X013598Y007992D01*
X013623Y007933D01*
X013228Y007539D01*
X013228Y008001D01*
X013892Y008665D01*
X013951Y008640D01*
X014126Y008640D01*
X014288Y008707D01*
X014411Y008831D01*
X014478Y008992D01*
X014478Y009168D01*
X014411Y009329D01*
X014288Y009453D01*
X014126Y009520D01*
X013951Y009520D01*
X013789Y009453D01*
X013665Y009329D01*
X013598Y009168D01*
X013598Y008992D01*
X013623Y008933D01*
X012943Y008253D01*
X012911Y008329D01*
X012788Y008453D01*
X012626Y008520D01*
X012451Y008520D01*
X012289Y008453D01*
X012165Y008329D01*
X012098Y008168D01*
X012098Y007992D01*
X012123Y007933D01*
X011598Y007409D01*
X011598Y005784D01*
X011478Y005664D01*
X011478Y007751D01*
X012392Y008665D01*
X012451Y008640D01*
X012626Y008640D01*
X012788Y008707D01*
X012911Y008831D01*
X012978Y008992D01*
X012978Y009168D01*
X012911Y009329D01*
X012788Y009453D01*
X012626Y009520D01*
X012451Y009520D01*
X012289Y009453D01*
X012165Y009329D01*
X012098Y009168D01*
X012098Y008992D01*
X012123Y008933D01*
X011098Y007909D01*
X011098Y005659D01*
X010960Y005520D01*
X010606Y005520D01*
X010478Y005392D01*
X010478Y009751D01*
X012392Y011665D01*
X012451Y011640D01*
X012626Y011640D01*
X012788Y011707D01*
X012911Y011831D01*
X012978Y011992D01*
X012978Y012168D01*
X012911Y012329D01*
X012851Y012390D01*
X012935Y012273D02*
X013577Y012273D01*
X013598Y012115D02*
X012978Y012115D01*
X012963Y011956D02*
X013613Y011956D01*
X013699Y011798D02*
X012878Y011798D01*
X012721Y011481D02*
X013855Y011481D01*
X013662Y011322D02*
X012914Y011322D01*
X012911Y011329D02*
X012788Y011453D01*
X012626Y011520D01*
X012451Y011520D01*
X012289Y011453D01*
X012165Y011329D01*
X012098Y011168D01*
X012098Y010992D01*
X012165Y010831D01*
X012289Y010707D01*
X012451Y010640D01*
X012626Y010640D01*
X012788Y010707D01*
X012911Y010831D01*
X012978Y010992D01*
X012978Y011168D01*
X012911Y011329D01*
X012978Y011164D02*
X013598Y011164D01*
X013598Y011005D02*
X012978Y011005D01*
X012918Y010847D02*
X013659Y010847D01*
X013835Y010688D02*
X012742Y010688D01*
X012626Y010520D02*
X012451Y010520D01*
X012289Y010453D01*
X012165Y010329D01*
X012098Y010168D01*
X012098Y009992D01*
X012165Y009831D01*
X012289Y009707D01*
X012451Y009640D01*
X012626Y009640D01*
X012788Y009707D01*
X012911Y009831D01*
X012978Y009992D01*
X012978Y010168D01*
X012911Y010329D01*
X012788Y010453D01*
X012626Y010520D01*
X012870Y010371D02*
X013707Y010371D01*
X013665Y010329D02*
X013598Y010168D01*
X013598Y009992D01*
X013665Y009831D01*
X013789Y009707D01*
X013951Y009640D01*
X014126Y009640D01*
X014288Y009707D01*
X014411Y009831D01*
X014478Y009992D01*
X014478Y010168D01*
X014411Y010329D01*
X014288Y010453D01*
X014126Y010520D01*
X013951Y010520D01*
X013789Y010453D01*
X013665Y010329D01*
X013617Y010213D02*
X012960Y010213D01*
X012978Y010054D02*
X013598Y010054D01*
X013638Y009896D02*
X012938Y009896D01*
X012818Y009737D02*
X013759Y009737D01*
X013756Y009420D02*
X012821Y009420D01*
X012939Y009262D02*
X013637Y009262D01*
X013598Y009103D02*
X012978Y009103D01*
X012958Y008945D02*
X013618Y008945D01*
X013476Y008786D02*
X012867Y008786D01*
X013317Y008628D02*
X012355Y008628D01*
X012328Y008469D02*
X012196Y008469D01*
X012158Y008311D02*
X012038Y008311D01*
X012098Y008152D02*
X011879Y008152D01*
X011721Y007994D02*
X012098Y007994D01*
X012025Y007835D02*
X011562Y007835D01*
X011478Y007677D02*
X011866Y007677D01*
X011708Y007518D02*
X011478Y007518D01*
X011478Y007360D02*
X011598Y007360D01*
X011598Y007201D02*
X011478Y007201D01*
X011478Y007043D02*
X011598Y007043D01*
X011598Y006884D02*
X011478Y006884D01*
X011478Y006726D02*
X011598Y006726D01*
X011598Y006567D02*
X011478Y006567D01*
X011478Y006409D02*
X011598Y006409D01*
X011598Y006250D02*
X011478Y006250D01*
X011478Y006092D02*
X011598Y006092D01*
X011598Y005933D02*
X011478Y005933D01*
X011478Y005775D02*
X011589Y005775D01*
X011098Y005775D02*
X010478Y005775D01*
X010478Y005933D02*
X011098Y005933D01*
X011098Y006092D02*
X010478Y006092D01*
X010478Y006250D02*
X011098Y006250D01*
X011098Y006409D02*
X010478Y006409D01*
X010478Y006567D02*
X011098Y006567D01*
X011098Y006726D02*
X010478Y006726D01*
X010478Y006884D02*
X011098Y006884D01*
X011098Y007043D02*
X010478Y007043D01*
X010478Y007201D02*
X011098Y007201D01*
X011098Y007360D02*
X010478Y007360D01*
X010478Y007518D02*
X011098Y007518D01*
X011098Y007677D02*
X010478Y007677D01*
X010478Y007835D02*
X011098Y007835D01*
X011183Y007994D02*
X010478Y007994D01*
X010478Y008152D02*
X011342Y008152D01*
X011500Y008311D02*
X010478Y008311D01*
X010478Y008469D02*
X011659Y008469D01*
X011817Y008628D02*
X010478Y008628D01*
X010478Y008786D02*
X011976Y008786D01*
X012118Y008945D02*
X010478Y008945D01*
X010478Y009103D02*
X012098Y009103D01*
X012137Y009262D02*
X010478Y009262D01*
X010478Y009420D02*
X012256Y009420D01*
X012259Y009737D02*
X010478Y009737D01*
X010478Y009579D02*
X014598Y009579D01*
X014598Y009737D02*
X014318Y009737D01*
X014438Y009896D02*
X014598Y009896D01*
X014598Y010054D02*
X014478Y010054D01*
X014460Y010213D02*
X014598Y010213D01*
X014479Y010371D02*
X014370Y010371D01*
X014320Y010530D02*
X011257Y010530D01*
X011415Y010688D02*
X012335Y010688D01*
X012159Y010847D02*
X011574Y010847D01*
X011732Y011005D02*
X012098Y011005D01*
X012098Y011164D02*
X011891Y011164D01*
X012049Y011322D02*
X012162Y011322D01*
X012208Y011481D02*
X012355Y011481D01*
X012366Y011639D02*
X014211Y011639D01*
X014221Y011481D02*
X014369Y011481D01*
X014414Y011322D02*
X014528Y011322D01*
X014478Y011164D02*
X014686Y011164D01*
X014845Y011005D02*
X014478Y011005D01*
X014541Y010847D02*
X015003Y010847D01*
X015098Y010688D02*
X014699Y010688D01*
X014858Y010530D02*
X015098Y010530D01*
X015098Y010371D02*
X014978Y010371D01*
X014978Y010213D02*
X015098Y010213D01*
X015098Y010054D02*
X014978Y010054D01*
X014978Y009896D02*
X015098Y009896D01*
X015098Y009737D02*
X014978Y009737D01*
X014978Y009579D02*
X015098Y009579D01*
X015098Y009420D02*
X014978Y009420D01*
X014978Y009262D02*
X015098Y009262D01*
X015098Y009103D02*
X014978Y009103D01*
X014978Y008945D02*
X015098Y008945D01*
X015098Y008786D02*
X014978Y008786D01*
X014978Y008628D02*
X015098Y008628D01*
X015098Y008469D02*
X014978Y008469D01*
X014978Y008311D02*
X015098Y008311D01*
X015098Y008152D02*
X014978Y008152D01*
X014978Y007994D02*
X015098Y007994D01*
X015098Y007835D02*
X014978Y007835D01*
X014978Y007677D02*
X015098Y007677D01*
X015098Y007518D02*
X014978Y007518D01*
X014978Y007360D02*
X015098Y007360D01*
X015098Y007201D02*
X014978Y007201D01*
X014978Y007043D02*
X015098Y007043D01*
X015098Y006884D02*
X014978Y006884D01*
X014978Y006726D02*
X015098Y006726D01*
X015098Y006567D02*
X014978Y006567D01*
X014978Y006409D02*
X015098Y006409D01*
X015098Y006250D02*
X014978Y006250D01*
X014978Y006092D02*
X015098Y006092D01*
X015098Y005933D02*
X014978Y005933D01*
X014988Y005775D02*
X015098Y005775D01*
X015478Y005775D02*
X015723Y005775D01*
X015723Y005933D02*
X015478Y005933D01*
X015478Y006092D02*
X015723Y006092D01*
X015723Y006250D02*
X015478Y006250D01*
X015478Y006409D02*
X015723Y006409D01*
X015723Y006567D02*
X015478Y006567D01*
X015478Y006726D02*
X015723Y006726D01*
X015723Y006884D02*
X015478Y006884D01*
X015478Y007043D02*
X015723Y007043D01*
X015723Y007201D02*
X015478Y007201D01*
X015478Y007360D02*
X015723Y007360D01*
X015723Y007518D02*
X015478Y007518D01*
X015478Y007677D02*
X015723Y007677D01*
X015723Y007835D02*
X015478Y007835D01*
X015478Y007994D02*
X015723Y007994D01*
X015723Y008152D02*
X015478Y008152D01*
X015478Y008311D02*
X015723Y008311D01*
X015723Y008469D02*
X015478Y008469D01*
X015478Y008628D02*
X015723Y008628D01*
X015723Y008786D02*
X015478Y008786D01*
X015478Y008945D02*
X015723Y008945D01*
X015723Y009103D02*
X015478Y009103D01*
X015478Y009262D02*
X015723Y009262D01*
X015723Y009420D02*
X015478Y009420D01*
X015478Y009579D02*
X015723Y009579D01*
X015723Y009737D02*
X015478Y009737D01*
X015478Y009896D02*
X015723Y009896D01*
X015723Y010034D02*
X015723Y005520D01*
X015617Y005520D01*
X015478Y005659D01*
X015478Y010909D01*
X014454Y011933D01*
X014478Y011992D01*
X014478Y012168D01*
X014411Y012329D01*
X014288Y012453D01*
X014126Y012520D01*
X013951Y012520D01*
X013892Y012495D01*
X013617Y012770D01*
X012851Y012770D01*
X012911Y012831D01*
X012978Y012992D01*
X012978Y013168D01*
X012954Y013227D01*
X013353Y013626D01*
X013353Y013784D01*
X013353Y014251D01*
X013617Y014515D01*
X013675Y014515D01*
X013598Y014438D01*
X013598Y013722D01*
X013680Y013640D01*
X014396Y013640D01*
X014478Y013722D01*
X014478Y014438D01*
X014401Y014515D01*
X017335Y014515D01*
X018623Y013227D01*
X018598Y013168D01*
X018598Y012992D01*
X018623Y012933D01*
X015723Y010034D01*
X015744Y010054D02*
X015478Y010054D01*
X015478Y010213D02*
X015902Y010213D01*
X016061Y010371D02*
X015478Y010371D01*
X015478Y010530D02*
X016219Y010530D01*
X016378Y010688D02*
X015478Y010688D01*
X015478Y010847D02*
X016536Y010847D01*
X016695Y011005D02*
X015382Y011005D01*
X015224Y011164D02*
X016853Y011164D01*
X017012Y011322D02*
X015065Y011322D01*
X014907Y011481D02*
X017170Y011481D01*
X017329Y011639D02*
X014748Y011639D01*
X014590Y011798D02*
X017487Y011798D01*
X017646Y011956D02*
X014463Y011956D01*
X014478Y012115D02*
X017804Y012115D01*
X017963Y012273D02*
X014435Y012273D01*
X014309Y012432D02*
X018121Y012432D01*
X018280Y012590D02*
X013797Y012590D01*
X013789Y012707D02*
X013951Y012640D01*
X014126Y012640D01*
X014288Y012707D01*
X014411Y012831D01*
X014478Y012992D01*
X014478Y013168D01*
X014411Y013329D01*
X014288Y013453D01*
X014126Y013520D01*
X013951Y013520D01*
X013789Y013453D01*
X013665Y013329D01*
X013598Y013168D01*
X013598Y012992D01*
X013665Y012831D01*
X013789Y012707D01*
X013748Y012749D02*
X013639Y012749D01*
X013634Y012907D02*
X012943Y012907D01*
X012978Y013066D02*
X013598Y013066D01*
X013622Y013224D02*
X012955Y013224D01*
X013110Y013383D02*
X013719Y013383D01*
X013621Y013700D02*
X013353Y013700D01*
X013353Y013858D02*
X013598Y013858D01*
X013598Y014017D02*
X013353Y014017D01*
X013353Y014175D02*
X013598Y014175D01*
X013598Y014334D02*
X013436Y014334D01*
X013594Y014492D02*
X013652Y014492D01*
X014424Y014492D02*
X017358Y014492D01*
X017516Y014334D02*
X014478Y014334D01*
X014478Y014175D02*
X017675Y014175D01*
X017833Y014017D02*
X014478Y014017D01*
X014478Y013858D02*
X017992Y013858D01*
X018150Y013700D02*
X014456Y013700D01*
X014358Y013383D02*
X018467Y013383D01*
X018622Y013224D02*
X014455Y013224D01*
X014478Y013066D02*
X018598Y013066D01*
X018597Y012907D02*
X014443Y012907D01*
X014329Y012749D02*
X018438Y012749D01*
X018817Y012590D02*
X019348Y012590D01*
X019288Y012707D02*
X019348Y012768D01*
X019348Y012392D01*
X019288Y012453D01*
X019126Y012520D01*
X018951Y012520D01*
X018789Y012453D01*
X018665Y012329D01*
X018598Y012168D01*
X018598Y011992D01*
X018665Y011831D01*
X018789Y011707D01*
X018951Y011640D01*
X019126Y011640D01*
X019288Y011707D01*
X019348Y011768D01*
X019348Y011392D01*
X019288Y011453D01*
X019126Y011520D01*
X018951Y011520D01*
X018789Y011453D01*
X018665Y011329D01*
X018598Y011168D01*
X018598Y010992D01*
X018623Y010933D01*
X016103Y008414D01*
X016103Y009876D01*
X018892Y012665D01*
X018951Y012640D01*
X019126Y012640D01*
X019288Y012707D01*
X019329Y012749D02*
X019348Y012749D01*
X019978Y012749D02*
X021399Y012749D01*
X021451Y012770D02*
X021289Y012703D01*
X021165Y012579D01*
X021098Y012418D01*
X021098Y012242D01*
X021165Y012081D01*
X021289Y011957D01*
X021451Y011890D01*
X021626Y011890D01*
X021788Y011957D01*
X021911Y012081D01*
X021978Y012242D01*
X021978Y012418D01*
X021911Y012579D01*
X021788Y012703D01*
X021626Y012770D01*
X021451Y012770D01*
X021678Y012749D02*
X029399Y012749D01*
X029451Y012770D02*
X029289Y012703D01*
X029165Y012579D01*
X029098Y012418D01*
X029098Y012242D01*
X029165Y012081D01*
X029289Y011957D01*
X029451Y011890D01*
X029626Y011890D01*
X029788Y011957D01*
X029911Y012081D01*
X029978Y012242D01*
X029978Y012418D01*
X029911Y012579D01*
X029788Y012703D01*
X029626Y012770D01*
X029451Y012770D01*
X029678Y012749D02*
X030688Y012749D01*
X030847Y012907D02*
X029913Y012907D01*
X029896Y012890D02*
X029978Y012972D01*
X029978Y013688D01*
X029896Y013770D01*
X029180Y013770D01*
X029098Y013688D01*
X029098Y012972D01*
X029180Y012890D01*
X029896Y012890D01*
X029978Y013066D02*
X031005Y013066D01*
X031164Y013224D02*
X029978Y013224D01*
X029978Y013383D02*
X031322Y013383D01*
X031543Y013066D02*
X035181Y013066D01*
X035410Y012907D02*
X031384Y012907D01*
X031226Y012749D02*
X036688Y012749D01*
X036847Y012907D02*
X035667Y012907D01*
X035896Y013066D02*
X037005Y013066D01*
X037098Y013224D02*
X035971Y013224D01*
X035978Y013383D02*
X037098Y013383D01*
X037098Y013541D02*
X035927Y013541D01*
X035791Y013700D02*
X037110Y013700D01*
X037967Y013700D02*
X043286Y013700D01*
X043149Y013541D02*
X037978Y013541D01*
X037978Y013383D02*
X039322Y013383D01*
X039164Y013224D02*
X037978Y013224D01*
X037978Y013066D02*
X039005Y013066D01*
X038847Y012907D02*
X037913Y012907D01*
X037788Y012703D02*
X037626Y012770D01*
X037451Y012770D01*
X037289Y012703D01*
X037165Y012579D01*
X037098Y012418D01*
X037098Y012242D01*
X037165Y012081D01*
X037289Y011957D01*
X037451Y011890D01*
X037626Y011890D01*
X037788Y011957D01*
X037911Y012081D01*
X037978Y012242D01*
X037978Y012418D01*
X037911Y012579D01*
X037788Y012703D01*
X037678Y012749D02*
X038688Y012749D01*
X038530Y012590D02*
X037901Y012590D01*
X037973Y012432D02*
X038371Y012432D01*
X038213Y012273D02*
X037978Y012273D01*
X037925Y012115D02*
X038054Y012115D01*
X037896Y011956D02*
X037785Y011956D01*
X037737Y011798D02*
X036853Y011798D01*
X036853Y011956D02*
X037291Y011956D01*
X037151Y012115D02*
X036853Y012115D01*
X036853Y012273D02*
X037098Y012273D01*
X037104Y012432D02*
X036909Y012432D01*
X037067Y012590D02*
X037176Y012590D01*
X037226Y012749D02*
X037399Y012749D01*
X036530Y012590D02*
X031067Y012590D01*
X030909Y012432D02*
X036473Y012432D01*
X036473Y012273D02*
X030750Y012273D01*
X030592Y012115D02*
X036473Y012115D01*
X036473Y011956D02*
X030433Y011956D01*
X030275Y011798D02*
X036473Y011798D01*
X036473Y011639D02*
X035852Y011639D01*
X035911Y011579D02*
X035788Y011703D01*
X035626Y011770D01*
X035451Y011770D01*
X035289Y011703D01*
X035165Y011579D01*
X035098Y011418D01*
X035098Y011242D01*
X035165Y011081D01*
X035289Y010957D01*
X035451Y010890D01*
X035626Y010890D01*
X035788Y010957D01*
X035911Y011081D01*
X035978Y011242D01*
X035978Y011418D01*
X035911Y011579D01*
X035952Y011481D02*
X036473Y011481D01*
X036473Y011322D02*
X035978Y011322D01*
X035946Y011164D02*
X036473Y011164D01*
X036473Y011005D02*
X035836Y011005D01*
X035788Y010703D02*
X035626Y010770D01*
X035451Y010770D01*
X035289Y010703D01*
X035165Y010579D01*
X035098Y010418D01*
X035098Y010242D01*
X035165Y010081D01*
X035289Y009957D01*
X035451Y009890D01*
X035626Y009890D01*
X035788Y009957D01*
X035911Y010081D01*
X035978Y010242D01*
X035978Y010418D01*
X035911Y010579D01*
X035788Y010703D01*
X035803Y010688D02*
X036473Y010688D01*
X036473Y010530D02*
X035932Y010530D01*
X035978Y010371D02*
X036473Y010371D01*
X036473Y010213D02*
X035966Y010213D01*
X035885Y010054D02*
X036473Y010054D01*
X036473Y009896D02*
X035639Y009896D01*
X035626Y009770D02*
X035451Y009770D01*
X035289Y009703D01*
X035165Y009579D01*
X035098Y009418D01*
X035098Y009242D01*
X035165Y009081D01*
X035289Y008957D01*
X035451Y008890D01*
X035626Y008890D01*
X035788Y008957D01*
X035911Y009081D01*
X035978Y009242D01*
X035978Y009418D01*
X035911Y009579D01*
X035788Y009703D01*
X035626Y009770D01*
X035705Y009737D02*
X036473Y009737D01*
X036473Y009579D02*
X035912Y009579D01*
X035977Y009420D02*
X036473Y009420D01*
X036588Y009262D02*
X035978Y009262D01*
X035921Y009103D02*
X036747Y009103D01*
X036905Y008945D02*
X035757Y008945D01*
X035863Y008628D02*
X037214Y008628D01*
X037120Y008469D02*
X035957Y008469D01*
X035978Y008311D02*
X037098Y008311D01*
X037092Y008152D02*
X035941Y008152D01*
X035824Y007994D02*
X036933Y007994D01*
X036775Y007835D02*
X031052Y007835D01*
X030894Y007994D02*
X035253Y007994D01*
X035136Y008152D02*
X030735Y008152D01*
X030577Y008311D02*
X035098Y008311D01*
X035120Y008469D02*
X030418Y008469D01*
X030260Y008628D02*
X034972Y008628D01*
X034814Y008786D02*
X030101Y008786D01*
X029943Y008945D02*
X034655Y008945D01*
X034497Y009103D02*
X029921Y009103D01*
X029156Y009103D02*
X028784Y009103D01*
X028626Y009262D02*
X029098Y009262D01*
X029099Y009420D02*
X028467Y009420D01*
X028353Y009579D02*
X029021Y009579D01*
X028863Y009737D02*
X028353Y009737D01*
X028353Y009896D02*
X028848Y009896D01*
X028848Y010054D02*
X028353Y010054D01*
X028353Y010213D02*
X028848Y010213D01*
X028848Y010371D02*
X028353Y010371D01*
X028353Y010530D02*
X028848Y010530D01*
X028848Y010688D02*
X028353Y010688D01*
X028291Y010847D02*
X028848Y010847D01*
X028945Y011005D02*
X028132Y011005D01*
X027974Y011164D02*
X029103Y011164D01*
X029098Y011322D02*
X027978Y011322D01*
X027952Y011481D02*
X029124Y011481D01*
X029225Y011639D02*
X027852Y011639D01*
X027225Y011639D02*
X021852Y011639D01*
X021911Y011579D02*
X021788Y011703D01*
X021626Y011770D01*
X021451Y011770D01*
X021289Y011703D01*
X021165Y011579D01*
X021098Y011418D01*
X021098Y011242D01*
X021165Y011081D01*
X021289Y010957D01*
X021451Y010890D01*
X021626Y010890D01*
X021788Y010957D01*
X021911Y011081D01*
X021978Y011242D01*
X021978Y011418D01*
X021911Y011579D01*
X021952Y011481D02*
X027124Y011481D01*
X027098Y011322D02*
X021978Y011322D01*
X021946Y011164D02*
X027131Y011164D01*
X027241Y011005D02*
X021836Y011005D01*
X021803Y010688D02*
X027274Y010688D01*
X027145Y010530D02*
X021932Y010530D01*
X021978Y010371D02*
X027098Y010371D01*
X027111Y010213D02*
X021966Y010213D01*
X021885Y010054D02*
X027192Y010054D01*
X027437Y009896D02*
X026367Y009896D01*
X026525Y009737D02*
X027371Y009737D01*
X027165Y009579D02*
X026684Y009579D01*
X026842Y009420D02*
X027099Y009420D01*
X027098Y009262D02*
X027001Y009262D01*
X026780Y008945D02*
X022193Y008945D01*
X022351Y008786D02*
X026939Y008786D01*
X026973Y008751D02*
X027085Y008640D01*
X027226Y008640D01*
X027165Y008579D01*
X027141Y008520D01*
X022617Y008520D01*
X021954Y009183D01*
X021978Y009242D01*
X021978Y009418D01*
X021911Y009579D01*
X021851Y009640D01*
X026085Y009640D01*
X026973Y008751D01*
X027214Y008628D02*
X022510Y008628D01*
X022289Y008311D02*
X021978Y008311D01*
X021957Y008469D02*
X022131Y008469D01*
X021972Y008628D02*
X021863Y008628D01*
X021814Y008786D02*
X021351Y008786D01*
X021319Y008945D02*
X021228Y008945D01*
X020848Y008945D02*
X019978Y008945D01*
X019978Y009103D02*
X020848Y009103D01*
X020848Y009262D02*
X019978Y009262D01*
X019978Y009420D02*
X020848Y009420D01*
X020848Y009579D02*
X019978Y009579D01*
X019978Y009737D02*
X020927Y009737D01*
X021085Y009896D02*
X019978Y009896D01*
X019978Y010054D02*
X021192Y010054D01*
X021111Y010213D02*
X019978Y010213D01*
X019978Y010371D02*
X021098Y010371D01*
X021145Y010530D02*
X019978Y010530D01*
X019978Y010688D02*
X021274Y010688D01*
X021241Y011005D02*
X019978Y011005D01*
X019978Y010847D02*
X027753Y010847D01*
X027803Y010688D02*
X027912Y010688D01*
X027932Y010530D02*
X027973Y010530D01*
X027966Y010213D02*
X027973Y010213D01*
X027973Y010054D02*
X027885Y010054D01*
X027973Y009896D02*
X027639Y009896D01*
X027705Y009737D02*
X027973Y009737D01*
X027973Y009579D02*
X027912Y009579D01*
X029242Y009896D02*
X029437Y009896D01*
X029639Y009896D02*
X035437Y009896D01*
X035371Y009737D02*
X029705Y009737D01*
X029912Y009579D02*
X035165Y009579D01*
X035099Y009420D02*
X034717Y009420D01*
X034876Y009262D02*
X035098Y009262D01*
X035156Y009103D02*
X035034Y009103D01*
X035193Y008945D02*
X035319Y008945D01*
X035351Y008786D02*
X037064Y008786D01*
X037851Y008640D02*
X038210Y008640D01*
X038723Y008126D01*
X038835Y008015D01*
X041710Y008015D01*
X042348Y007376D01*
X042348Y005392D01*
X042221Y005520D01*
X041856Y005520D01*
X041731Y005395D01*
X037192Y005395D01*
X037241Y005515D01*
X037241Y005645D01*
X037191Y005766D01*
X037103Y005854D01*
X037103Y007626D01*
X037392Y007915D01*
X037451Y007890D01*
X037626Y007890D01*
X037788Y007957D01*
X037911Y008081D01*
X037978Y008242D01*
X037978Y008418D01*
X037911Y008579D01*
X037851Y008640D01*
X037863Y008628D02*
X038222Y008628D01*
X038381Y008469D02*
X037957Y008469D01*
X037978Y008311D02*
X038539Y008311D01*
X038698Y008152D02*
X037941Y008152D01*
X037824Y007994D02*
X041731Y007994D01*
X041890Y007835D02*
X037312Y007835D01*
X037154Y007677D02*
X042048Y007677D01*
X042207Y007518D02*
X037103Y007518D01*
X037103Y007360D02*
X042348Y007360D01*
X042348Y007201D02*
X037103Y007201D01*
X037103Y007043D02*
X042348Y007043D01*
X042348Y006884D02*
X037103Y006884D01*
X037103Y006726D02*
X042348Y006726D01*
X042348Y006567D02*
X037103Y006567D01*
X037103Y006409D02*
X042348Y006409D01*
X042348Y006250D02*
X037103Y006250D01*
X037103Y006092D02*
X042348Y006092D01*
X042348Y005933D02*
X037103Y005933D01*
X037183Y005775D02*
X042348Y005775D01*
X042348Y005616D02*
X037241Y005616D01*
X037218Y005458D02*
X041794Y005458D01*
X042283Y005458D02*
X042348Y005458D01*
X042728Y005458D02*
X042794Y005458D01*
X042848Y005512D02*
X042728Y005392D01*
X042728Y007534D01*
X042617Y007645D01*
X041867Y008395D01*
X038992Y008395D01*
X038367Y009020D01*
X037851Y009020D01*
X037911Y009081D01*
X037936Y009140D01*
X042460Y009140D01*
X043123Y008477D01*
X043098Y008418D01*
X043098Y008242D01*
X043165Y008081D01*
X043289Y007957D01*
X043451Y007890D01*
X043626Y007890D01*
X043788Y007957D01*
X043848Y008018D01*
X043848Y007904D01*
X043760Y007816D01*
X043724Y007729D01*
X043626Y007770D01*
X043451Y007770D01*
X043289Y007703D01*
X043165Y007579D01*
X043098Y007418D01*
X043098Y007242D01*
X043123Y007183D01*
X042848Y006909D01*
X042848Y005512D01*
X042848Y005616D02*
X042728Y005616D01*
X042728Y005775D02*
X042848Y005775D01*
X042848Y005933D02*
X042728Y005933D01*
X042728Y006092D02*
X042848Y006092D01*
X042848Y006250D02*
X042728Y006250D01*
X042728Y006409D02*
X042848Y006409D01*
X042848Y006567D02*
X042728Y006567D01*
X042728Y006726D02*
X042848Y006726D01*
X042848Y006884D02*
X042728Y006884D01*
X042728Y007043D02*
X042982Y007043D01*
X043115Y007201D02*
X042728Y007201D01*
X042728Y007360D02*
X043098Y007360D01*
X043140Y007518D02*
X042728Y007518D01*
X042586Y007677D02*
X043263Y007677D01*
X043779Y007835D02*
X042427Y007835D01*
X042269Y007994D02*
X043253Y007994D01*
X043136Y008152D02*
X042110Y008152D01*
X041952Y008311D02*
X043098Y008311D01*
X043120Y008469D02*
X038918Y008469D01*
X038760Y008628D02*
X042972Y008628D01*
X042814Y008786D02*
X038601Y008786D01*
X038443Y008945D02*
X042655Y008945D01*
X042497Y009103D02*
X037921Y009103D01*
X037912Y009579D02*
X043165Y009579D01*
X043099Y009420D02*
X042717Y009420D01*
X042876Y009262D02*
X043098Y009262D01*
X043156Y009103D02*
X043034Y009103D01*
X043193Y008945D02*
X043319Y008945D01*
X043351Y008786D02*
X043814Y008786D01*
X044034Y009103D02*
X044223Y009103D01*
X044223Y008945D02*
X044193Y008945D01*
X044223Y009262D02*
X043978Y009262D01*
X043977Y009420D02*
X044180Y009420D01*
X044021Y009579D02*
X043912Y009579D01*
X043863Y009737D02*
X043705Y009737D01*
X043704Y009896D02*
X043639Y009896D01*
X043437Y009896D02*
X037639Y009896D01*
X037705Y009737D02*
X043371Y009737D01*
X043192Y010054D02*
X037885Y010054D01*
X037966Y010213D02*
X043111Y010213D01*
X043098Y010371D02*
X037978Y010371D01*
X037932Y010530D02*
X043145Y010530D01*
X043274Y010688D02*
X037803Y010688D01*
X037836Y011005D02*
X043241Y011005D01*
X043289Y010957D02*
X043451Y010890D01*
X043626Y010890D01*
X043788Y010957D01*
X043911Y011081D01*
X043978Y011242D01*
X043978Y011418D01*
X043911Y011579D01*
X043788Y011703D01*
X043626Y011770D01*
X043451Y011770D01*
X043289Y011703D01*
X043165Y011579D01*
X043098Y011418D01*
X043098Y011242D01*
X043165Y011081D01*
X043289Y010957D01*
X043131Y011164D02*
X037946Y011164D01*
X037978Y011322D02*
X043098Y011322D01*
X043124Y011481D02*
X037958Y011481D01*
X038116Y011639D02*
X043225Y011639D01*
X043852Y011639D02*
X045225Y011639D01*
X045124Y011481D02*
X043952Y011481D01*
X043978Y011322D02*
X045098Y011322D01*
X045103Y011164D02*
X043946Y011164D01*
X043836Y011005D02*
X044945Y011005D01*
X044848Y010847D02*
X037324Y010847D01*
X037274Y010688D02*
X037228Y010688D01*
X036945Y011005D02*
X036853Y011005D01*
X036853Y011164D02*
X037103Y011164D01*
X037098Y011322D02*
X036853Y011322D01*
X036853Y011481D02*
X037124Y011481D01*
X037225Y011639D02*
X036853Y011639D01*
X035225Y011639D02*
X030116Y011639D01*
X029958Y011481D02*
X035124Y011481D01*
X035098Y011322D02*
X029978Y011322D01*
X029946Y011164D02*
X035131Y011164D01*
X035241Y011005D02*
X029836Y011005D01*
X029803Y010688D02*
X035274Y010688D01*
X035145Y010530D02*
X029932Y010530D01*
X029978Y010371D02*
X035098Y010371D01*
X035111Y010213D02*
X029966Y010213D01*
X029885Y010054D02*
X035192Y010054D01*
X036473Y010847D02*
X029324Y010847D01*
X029274Y010688D02*
X029228Y010688D01*
X029737Y011798D02*
X019978Y011798D01*
X019978Y011956D02*
X021291Y011956D01*
X021151Y012115D02*
X019978Y012115D01*
X019978Y012273D02*
X021098Y012273D01*
X021104Y012432D02*
X019978Y012432D01*
X019978Y012590D02*
X021176Y012590D01*
X021180Y012890D02*
X021896Y012890D01*
X021978Y012972D01*
X021978Y013688D01*
X021896Y013770D01*
X021180Y013770D01*
X021098Y013688D01*
X021098Y012972D01*
X021180Y012890D01*
X021163Y012907D02*
X019978Y012907D01*
X019978Y013066D02*
X021098Y013066D01*
X021098Y013224D02*
X019978Y013224D01*
X019978Y013383D02*
X021098Y013383D01*
X021098Y013541D02*
X019978Y013541D01*
X019978Y013700D02*
X021110Y013700D01*
X021967Y013700D02*
X027286Y013700D01*
X027289Y013703D02*
X027165Y013579D01*
X027098Y013418D01*
X027098Y013242D01*
X027165Y013081D01*
X027289Y012957D01*
X027451Y012890D01*
X027626Y012890D01*
X027788Y012957D01*
X027911Y013081D01*
X027978Y013242D01*
X027978Y013418D01*
X027911Y013579D01*
X027788Y013703D01*
X027626Y013770D01*
X027451Y013770D01*
X027289Y013703D01*
X027149Y013541D02*
X021978Y013541D01*
X021978Y013383D02*
X027098Y013383D01*
X027106Y013224D02*
X021978Y013224D01*
X021978Y013066D02*
X027181Y013066D01*
X027410Y012907D02*
X021913Y012907D01*
X021901Y012590D02*
X029176Y012590D01*
X029104Y012432D02*
X021973Y012432D01*
X021978Y012273D02*
X029098Y012273D01*
X029151Y012115D02*
X021925Y012115D01*
X021785Y011956D02*
X029291Y011956D01*
X029785Y011956D02*
X029896Y011956D01*
X029925Y012115D02*
X030054Y012115D01*
X029978Y012273D02*
X030213Y012273D01*
X030371Y012432D02*
X029973Y012432D01*
X029901Y012590D02*
X030530Y012590D01*
X029163Y012907D02*
X027667Y012907D01*
X027896Y013066D02*
X029098Y013066D01*
X029098Y013224D02*
X027971Y013224D01*
X027978Y013383D02*
X029098Y013383D01*
X029098Y013541D02*
X027927Y013541D01*
X027791Y013700D02*
X029110Y013700D01*
X029967Y013700D02*
X035286Y013700D01*
X035149Y013541D02*
X029978Y013541D01*
X037242Y009896D02*
X037437Y009896D01*
X038275Y011798D02*
X045737Y011798D01*
X045785Y011956D02*
X045896Y011956D01*
X045925Y012115D02*
X046054Y012115D01*
X045978Y012273D02*
X046213Y012273D01*
X046371Y012432D02*
X045973Y012432D01*
X046067Y012590D02*
X046530Y012590D01*
X046688Y012749D02*
X046226Y012749D01*
X046384Y012907D02*
X046847Y012907D01*
X047005Y013066D02*
X046543Y013066D01*
X046701Y013224D02*
X047164Y013224D01*
X047322Y013383D02*
X046860Y013383D01*
X047018Y013541D02*
X051149Y013541D01*
X051746Y014017D02*
X060798Y014017D01*
X060798Y014175D02*
X019978Y014175D01*
X019978Y014017D02*
X046956Y014017D01*
X046798Y013858D02*
X019978Y013858D01*
X019348Y013501D02*
X019185Y013665D01*
X019126Y013640D01*
X018951Y013640D01*
X018789Y013707D01*
X018665Y013831D01*
X018598Y013992D01*
X018598Y014168D01*
X018665Y014329D01*
X018789Y014453D01*
X018951Y014520D01*
X019126Y014520D01*
X019260Y014464D01*
X019085Y014640D01*
X018960Y014765D01*
X017622Y014765D01*
X018892Y013495D01*
X018951Y013520D01*
X019126Y013520D01*
X019288Y013453D01*
X019348Y013392D01*
X019348Y013501D01*
X019309Y013541D02*
X018846Y013541D01*
X018807Y013700D02*
X018688Y013700D01*
X018654Y013858D02*
X018529Y013858D01*
X018598Y014017D02*
X018370Y014017D01*
X018212Y014175D02*
X018601Y014175D01*
X018670Y014334D02*
X018053Y014334D01*
X017895Y014492D02*
X018883Y014492D01*
X019074Y014651D02*
X017736Y014651D01*
X019193Y014492D02*
X019233Y014492D01*
X019453Y014809D02*
X060798Y014809D01*
X060798Y014651D02*
X019611Y014651D01*
X019770Y014492D02*
X060798Y014492D01*
X060798Y014334D02*
X019929Y014334D01*
X019294Y014968D02*
X060798Y014968D01*
X060798Y015126D02*
X019136Y015126D01*
X018309Y013541D02*
X013268Y013541D01*
X011650Y013700D02*
X007956Y013700D01*
X007978Y013858D02*
X011492Y013858D01*
X011333Y014017D02*
X007978Y014017D01*
X007978Y014175D02*
X011175Y014175D01*
X011016Y014334D02*
X007978Y014334D01*
X007219Y013383D02*
X007103Y013383D01*
X007103Y013224D02*
X007122Y013224D01*
X006723Y013224D02*
X006455Y013224D01*
X006478Y013066D02*
X006723Y013066D01*
X006723Y012907D02*
X006443Y012907D01*
X006329Y012749D02*
X006851Y012749D01*
X007010Y012590D02*
X000521Y012590D01*
X000521Y012432D02*
X000768Y012432D01*
X000642Y012273D02*
X000521Y012273D01*
X000521Y012115D02*
X000598Y012115D01*
X000613Y011956D02*
X000521Y011956D01*
X000521Y011798D02*
X000699Y011798D01*
X000521Y011639D02*
X001211Y011639D01*
X001126Y011520D02*
X000951Y011520D01*
X000789Y011453D01*
X000665Y011329D01*
X000598Y011168D01*
X000598Y010992D01*
X000665Y010831D01*
X000789Y010707D01*
X000951Y010640D01*
X001126Y010640D01*
X001288Y010707D01*
X001411Y010831D01*
X001478Y010992D01*
X001478Y011168D01*
X001411Y011329D01*
X001288Y011453D01*
X001126Y011520D01*
X001221Y011481D02*
X001369Y011481D01*
X001414Y011322D02*
X005662Y011322D01*
X005598Y011164D02*
X001478Y011164D01*
X001478Y011005D02*
X005598Y011005D01*
X005659Y010847D02*
X001418Y010847D01*
X001242Y010688D02*
X005628Y010688D01*
X005469Y010530D02*
X000521Y010530D01*
X000521Y010688D02*
X000835Y010688D01*
X000951Y010520D02*
X000789Y010453D01*
X000665Y010329D01*
X000598Y010168D01*
X000598Y009992D01*
X000665Y009831D01*
X000789Y009707D01*
X000951Y009640D01*
X001126Y009640D01*
X001288Y009707D01*
X001411Y009831D01*
X001478Y009992D01*
X001478Y010168D01*
X001411Y010329D01*
X001288Y010453D01*
X001126Y010520D01*
X000951Y010520D01*
X000707Y010371D02*
X000521Y010371D01*
X000521Y010213D02*
X000617Y010213D01*
X000598Y010054D02*
X000521Y010054D01*
X000521Y009896D02*
X000638Y009896D01*
X000521Y009737D02*
X000759Y009737D01*
X000789Y009453D02*
X000665Y009329D01*
X000598Y009168D01*
X000598Y008992D01*
X000665Y008831D01*
X000789Y008707D01*
X000951Y008640D01*
X001126Y008640D01*
X001288Y008707D01*
X001411Y008831D01*
X001478Y008992D01*
X001478Y009168D01*
X001411Y009329D01*
X001288Y009453D01*
X001126Y009520D01*
X000951Y009520D01*
X000789Y009453D01*
X000756Y009420D02*
X000521Y009420D01*
X000521Y009262D02*
X000637Y009262D01*
X000598Y009103D02*
X000521Y009103D01*
X000521Y008945D02*
X000618Y008945D01*
X000710Y008786D02*
X000521Y008786D01*
X000521Y008628D02*
X005472Y008628D01*
X005314Y008786D02*
X001367Y008786D01*
X001458Y008945D02*
X005223Y008945D01*
X005223Y009103D02*
X001478Y009103D01*
X001439Y009262D02*
X005223Y009262D01*
X005223Y009420D02*
X001321Y009420D01*
X001318Y009737D02*
X005223Y009737D01*
X005223Y009579D02*
X000521Y009579D01*
X001438Y009896D02*
X005223Y009896D01*
X005223Y010054D02*
X001478Y010054D01*
X001460Y010213D02*
X005223Y010213D01*
X005311Y010371D02*
X001370Y010371D01*
X000659Y010847D02*
X000521Y010847D01*
X000521Y011005D02*
X000598Y011005D01*
X000598Y011164D02*
X000521Y011164D01*
X000521Y011322D02*
X000662Y011322D01*
X000521Y011481D02*
X000855Y011481D01*
X001590Y011798D02*
X005699Y011798D01*
X005613Y011956D02*
X001463Y011956D01*
X001478Y012115D02*
X005598Y012115D01*
X005642Y012273D02*
X001435Y012273D01*
X001309Y012432D02*
X005768Y012432D01*
X006309Y012432D02*
X007168Y012432D01*
X007142Y012273D02*
X006435Y012273D01*
X006478Y012115D02*
X007098Y012115D01*
X007113Y011956D02*
X006463Y011956D01*
X006378Y011798D02*
X006987Y011798D01*
X005748Y012749D02*
X001329Y012749D01*
X001288Y012707D02*
X001411Y012831D01*
X001478Y012992D01*
X001478Y013168D01*
X001411Y013329D01*
X001288Y013453D01*
X001126Y013520D01*
X000951Y013520D01*
X000789Y013453D01*
X000665Y013329D01*
X000598Y013168D01*
X000598Y012992D01*
X000665Y012831D01*
X000789Y012707D01*
X000951Y012640D01*
X001126Y012640D01*
X001288Y012707D01*
X001443Y012907D02*
X005634Y012907D01*
X005598Y013066D02*
X001478Y013066D01*
X001455Y013224D02*
X005622Y013224D01*
X005719Y013383D02*
X001358Y013383D01*
X000719Y013383D02*
X000521Y013383D01*
X000521Y013224D02*
X000622Y013224D01*
X000598Y013066D02*
X000521Y013066D01*
X000521Y012907D02*
X000634Y012907D01*
X000521Y012749D02*
X000748Y012749D01*
X006610Y013383D02*
X006723Y013383D01*
X009407Y011481D02*
X011670Y011481D01*
X011512Y011322D02*
X009478Y011322D01*
X009478Y011164D02*
X011353Y011164D01*
X011195Y011005D02*
X009478Y011005D01*
X009478Y010847D02*
X011036Y010847D01*
X010878Y010688D02*
X009478Y010688D01*
X009478Y010530D02*
X010719Y010530D01*
X010561Y010371D02*
X009478Y010371D01*
X009478Y010213D02*
X010402Y010213D01*
X010244Y010054D02*
X009478Y010054D01*
X009478Y009896D02*
X010098Y009896D01*
X010098Y009737D02*
X009478Y009737D01*
X009478Y009579D02*
X010098Y009579D01*
X010098Y009420D02*
X009478Y009420D01*
X009478Y009262D02*
X010098Y009262D01*
X010098Y009103D02*
X009478Y009103D01*
X009478Y008945D02*
X010098Y008945D01*
X010098Y008786D02*
X009478Y008786D01*
X009478Y008628D02*
X010098Y008628D01*
X010098Y008469D02*
X009478Y008469D01*
X009478Y008311D02*
X010098Y008311D01*
X010098Y008152D02*
X009478Y008152D01*
X009478Y007994D02*
X010098Y007994D01*
X010098Y007835D02*
X009478Y007835D01*
X009478Y007677D02*
X010098Y007677D01*
X010098Y007518D02*
X009478Y007518D01*
X009478Y007360D02*
X010098Y007360D01*
X010098Y007201D02*
X009478Y007201D01*
X009478Y007043D02*
X010098Y007043D01*
X010098Y006884D02*
X009478Y006884D01*
X009478Y006726D02*
X010098Y006726D01*
X010098Y006567D02*
X009478Y006567D01*
X009478Y006409D02*
X010098Y006409D01*
X010098Y006250D02*
X009478Y006250D01*
X009478Y006092D02*
X010098Y006092D01*
X010098Y005933D02*
X009478Y005933D01*
X009478Y005775D02*
X010098Y005775D01*
X010098Y005616D02*
X009478Y005616D01*
X009478Y005458D02*
X009544Y005458D01*
X010033Y005458D02*
X010098Y005458D01*
X010478Y005458D02*
X010544Y005458D01*
X010478Y005616D02*
X011056Y005616D01*
X013033Y005458D02*
X013142Y005458D01*
X013098Y005616D02*
X013093Y005616D01*
X013478Y005775D02*
X013722Y005775D01*
X013623Y005933D02*
X013478Y005933D01*
X013478Y006092D02*
X013598Y006092D01*
X013632Y006250D02*
X013478Y006250D01*
X013478Y006409D02*
X013745Y006409D01*
X013789Y006707D02*
X013665Y006831D01*
X013598Y006992D01*
X013598Y007168D01*
X013665Y007329D01*
X013789Y007453D01*
X013951Y007520D01*
X014126Y007520D01*
X014288Y007453D01*
X014411Y007329D01*
X014478Y007168D01*
X014478Y006992D01*
X014411Y006831D01*
X014288Y006707D01*
X014126Y006640D01*
X013951Y006640D01*
X013789Y006707D01*
X013771Y006726D02*
X013478Y006726D01*
X013478Y006884D02*
X013643Y006884D01*
X013598Y007043D02*
X013478Y007043D01*
X013478Y007201D02*
X013612Y007201D01*
X013587Y007360D02*
X013696Y007360D01*
X013745Y007518D02*
X013946Y007518D01*
X014131Y007518D02*
X014598Y007518D01*
X014598Y007360D02*
X014381Y007360D01*
X014464Y007201D02*
X014598Y007201D01*
X014598Y007043D02*
X014478Y007043D01*
X014433Y006884D02*
X014598Y006884D01*
X014598Y006726D02*
X014306Y006726D01*
X014332Y006409D02*
X014598Y006409D01*
X014598Y006567D02*
X013478Y006567D01*
X014444Y006250D02*
X014598Y006250D01*
X014598Y006092D02*
X014478Y006092D01*
X014478Y005992D02*
X014454Y005933D01*
X014478Y005775D02*
X014598Y005775D01*
X014609Y005616D02*
X014521Y005616D01*
X014210Y005390D02*
X014210Y005390D01*
X014192Y005299D02*
X014301Y005299D01*
X014348Y005141D02*
X014228Y005141D01*
X014228Y004982D02*
X014348Y004982D01*
X014423Y004824D02*
X014154Y004824D01*
X013996Y004665D02*
X014581Y004665D01*
X014593Y004507D02*
X013984Y004507D01*
X014143Y004348D02*
X014434Y004348D01*
X014348Y004190D02*
X014228Y004190D01*
X014228Y004031D02*
X014348Y004031D01*
X014374Y003873D02*
X014203Y003873D01*
X013374Y003873D02*
X013203Y003873D01*
X013228Y004031D02*
X013348Y004031D01*
X013348Y004190D02*
X013228Y004190D01*
X013143Y004348D02*
X013434Y004348D01*
X013593Y004507D02*
X012984Y004507D01*
X012996Y004665D02*
X013581Y004665D01*
X013423Y004824D02*
X013154Y004824D01*
X013228Y004982D02*
X013348Y004982D01*
X013348Y005141D02*
X013228Y005141D01*
X013192Y005299D02*
X013301Y005299D01*
X014033Y005458D02*
X014142Y005458D01*
X014098Y005616D02*
X013521Y005616D01*
X015521Y005616D02*
X015723Y005616D01*
X016478Y005659D02*
X016617Y005520D01*
X016971Y005520D01*
X017098Y005392D01*
X017098Y008251D01*
X017098Y008409D01*
X018623Y009933D01*
X018598Y009992D01*
X018598Y010168D01*
X018665Y010329D01*
X018789Y010453D01*
X018951Y010520D01*
X019126Y010520D01*
X019288Y010453D01*
X019348Y010392D01*
X019348Y010768D01*
X019288Y010707D01*
X019126Y010640D01*
X018951Y010640D01*
X018892Y010665D01*
X016478Y008251D01*
X016478Y005659D01*
X016521Y005616D02*
X017098Y005616D01*
X017098Y005458D02*
X017033Y005458D01*
X017098Y005775D02*
X016478Y005775D01*
X016478Y005933D02*
X017098Y005933D01*
X017098Y006092D02*
X016478Y006092D01*
X016478Y006250D02*
X017098Y006250D01*
X017098Y006409D02*
X016478Y006409D01*
X016478Y006567D02*
X017098Y006567D01*
X017098Y006726D02*
X016478Y006726D01*
X016478Y006884D02*
X017098Y006884D01*
X017098Y007043D02*
X016478Y007043D01*
X016478Y007201D02*
X017098Y007201D01*
X017098Y007360D02*
X016478Y007360D01*
X016478Y007518D02*
X017098Y007518D01*
X017098Y007677D02*
X016478Y007677D01*
X016478Y007835D02*
X017098Y007835D01*
X017098Y007994D02*
X016478Y007994D01*
X016478Y008152D02*
X017098Y008152D01*
X017098Y008311D02*
X016538Y008311D01*
X016696Y008469D02*
X017159Y008469D01*
X017317Y008628D02*
X016855Y008628D01*
X017013Y008786D02*
X017476Y008786D01*
X017634Y008945D02*
X017172Y008945D01*
X017330Y009103D02*
X017793Y009103D01*
X017951Y009262D02*
X017489Y009262D01*
X017647Y009420D02*
X018110Y009420D01*
X018268Y009579D02*
X017806Y009579D01*
X017964Y009737D02*
X018427Y009737D01*
X018585Y009896D02*
X018123Y009896D01*
X018281Y010054D02*
X018598Y010054D01*
X018617Y010213D02*
X018440Y010213D01*
X018598Y010371D02*
X018707Y010371D01*
X018757Y010530D02*
X019348Y010530D01*
X019348Y010688D02*
X019242Y010688D01*
X018598Y011005D02*
X017232Y011005D01*
X017074Y010847D02*
X018536Y010847D01*
X018378Y010688D02*
X016915Y010688D01*
X016757Y010530D02*
X018219Y010530D01*
X018061Y010371D02*
X016598Y010371D01*
X016440Y010213D02*
X017902Y010213D01*
X017744Y010054D02*
X016281Y010054D01*
X016123Y009896D02*
X017585Y009896D01*
X017427Y009737D02*
X016103Y009737D01*
X016103Y009579D02*
X017268Y009579D01*
X017110Y009420D02*
X016103Y009420D01*
X016103Y009262D02*
X016951Y009262D01*
X016793Y009103D02*
X016103Y009103D01*
X016103Y008945D02*
X016634Y008945D01*
X016476Y008786D02*
X016103Y008786D01*
X016103Y008628D02*
X016317Y008628D01*
X016159Y008469D02*
X016103Y008469D01*
X017478Y008251D02*
X018892Y009665D01*
X018951Y009640D01*
X019126Y009640D01*
X019288Y009707D01*
X019348Y009768D01*
X019348Y009392D01*
X019288Y009453D01*
X019126Y009520D01*
X018951Y009520D01*
X018789Y009453D01*
X018665Y009329D01*
X018598Y009168D01*
X018598Y008992D01*
X018665Y008831D01*
X018789Y008707D01*
X018951Y008640D01*
X019126Y008640D01*
X019288Y008707D01*
X019348Y008768D01*
X019348Y008392D01*
X019288Y008453D01*
X019126Y008520D01*
X018951Y008520D01*
X018789Y008453D01*
X018665Y008329D01*
X018598Y008168D01*
X018598Y007992D01*
X018665Y007831D01*
X018789Y007707D01*
X018951Y007640D01*
X019126Y007640D01*
X019288Y007707D01*
X019348Y007768D01*
X019348Y007392D01*
X019288Y007453D01*
X019126Y007520D01*
X018951Y007520D01*
X018789Y007453D01*
X018665Y007329D01*
X018598Y007168D01*
X018598Y006992D01*
X018665Y006831D01*
X018789Y006707D01*
X018951Y006640D01*
X019126Y006640D01*
X019288Y006707D01*
X019348Y006768D01*
X019348Y006392D01*
X019288Y006453D01*
X019126Y006520D01*
X018951Y006520D01*
X018789Y006453D01*
X018665Y006329D01*
X018598Y006168D01*
X018598Y005992D01*
X018665Y005831D01*
X018789Y005707D01*
X018951Y005640D01*
X019080Y005640D01*
X018960Y005520D01*
X018606Y005520D01*
X018348Y005262D01*
X018348Y004898D01*
X018476Y004770D01*
X018367Y004770D01*
X018228Y004909D01*
X018228Y005262D01*
X017971Y005520D01*
X017606Y005520D01*
X017478Y005392D01*
X017478Y008251D01*
X017538Y008311D02*
X018658Y008311D01*
X018598Y008152D02*
X017478Y008152D01*
X017478Y007994D02*
X018598Y007994D01*
X018664Y007835D02*
X017478Y007835D01*
X017478Y007677D02*
X018863Y007677D01*
X018946Y007518D02*
X017478Y007518D01*
X017478Y007360D02*
X018696Y007360D01*
X018612Y007201D02*
X017478Y007201D01*
X017478Y007043D02*
X018598Y007043D01*
X018643Y006884D02*
X017478Y006884D01*
X017478Y006726D02*
X018771Y006726D01*
X018745Y006409D02*
X017478Y006409D01*
X017478Y006567D02*
X019348Y006567D01*
X019332Y006409D02*
X019348Y006409D01*
X019348Y006726D02*
X019306Y006726D01*
X019978Y006726D02*
X027343Y006726D01*
X027160Y006567D02*
X019978Y006567D01*
X019978Y006409D02*
X027098Y006409D01*
X027098Y006250D02*
X019978Y006250D01*
X019978Y006092D02*
X027161Y006092D01*
X027347Y005933D02*
X019978Y005933D01*
X019978Y005775D02*
X027973Y005775D01*
X027973Y005933D02*
X027730Y005933D01*
X027916Y006092D02*
X027973Y006092D01*
X027973Y005616D02*
X019978Y005616D01*
X019978Y005458D02*
X027973Y005458D01*
X028051Y005299D02*
X019978Y005299D01*
X019978Y005141D02*
X028209Y005141D01*
X028368Y004982D02*
X019959Y004982D01*
X019801Y004824D02*
X028526Y004824D01*
X028685Y004665D02*
X019642Y004665D01*
X019484Y004507D02*
X040718Y004507D01*
X040877Y004348D02*
X019143Y004348D01*
X019228Y004190D02*
X041035Y004190D01*
X041098Y004031D02*
X019228Y004031D01*
X019203Y003873D02*
X041098Y003873D01*
X041136Y003714D02*
X019045Y003714D01*
X018616Y003556D02*
X041294Y003556D01*
X041453Y003397D02*
X018568Y003397D01*
X018348Y003908D02*
X018268Y003908D01*
X018268Y004060D01*
X017808Y004060D01*
X017808Y004100D01*
X017768Y004100D01*
X017768Y004060D01*
X017308Y004060D01*
X017308Y003881D01*
X017419Y003770D01*
X017101Y003770D01*
X017228Y003898D01*
X017228Y004262D01*
X017109Y004382D01*
X017367Y004640D01*
X017478Y004751D01*
X017478Y004768D01*
X017606Y004640D01*
X017960Y004640D01*
X018098Y004501D01*
X018210Y004390D01*
X018476Y004390D01*
X018348Y004262D01*
X018348Y003908D01*
X018348Y004031D02*
X018268Y004031D01*
X018268Y004100D02*
X018268Y004279D01*
X017987Y004560D01*
X017808Y004560D01*
X017808Y004100D01*
X018268Y004100D01*
X018268Y004190D02*
X018348Y004190D01*
X018434Y004348D02*
X018199Y004348D01*
X018098Y004501D02*
X018098Y004501D01*
X018093Y004507D02*
X018041Y004507D01*
X017808Y004507D02*
X017768Y004507D01*
X017768Y004560D02*
X017589Y004560D01*
X017308Y004279D01*
X017308Y004100D01*
X017768Y004100D01*
X017768Y004560D01*
X017768Y004348D02*
X017808Y004348D01*
X017808Y004190D02*
X017768Y004190D01*
X017536Y004507D02*
X017234Y004507D01*
X017143Y004348D02*
X017378Y004348D01*
X017308Y004190D02*
X017228Y004190D01*
X017228Y004031D02*
X017308Y004031D01*
X017317Y003873D02*
X017203Y003873D01*
X017392Y004665D02*
X017581Y004665D01*
X018228Y004982D02*
X018348Y004982D01*
X018348Y005141D02*
X018228Y005141D01*
X018192Y005299D02*
X018385Y005299D01*
X018544Y005458D02*
X018033Y005458D01*
X017544Y005458D02*
X017478Y005458D01*
X017478Y005616D02*
X019056Y005616D01*
X018722Y005775D02*
X017478Y005775D01*
X017478Y005933D02*
X018623Y005933D01*
X018598Y006092D02*
X017478Y006092D01*
X017478Y006250D02*
X018632Y006250D01*
X019978Y006884D02*
X027973Y006884D01*
X027973Y006726D02*
X027733Y006726D01*
X027916Y006567D02*
X027973Y006567D01*
X027973Y007043D02*
X027873Y007043D01*
X027961Y007201D02*
X027973Y007201D01*
X027973Y007518D02*
X027937Y007518D01*
X027923Y007677D02*
X027814Y007677D01*
X027765Y007835D02*
X019978Y007835D01*
X019978Y007677D02*
X027263Y007677D01*
X027140Y007518D02*
X019978Y007518D01*
X019978Y007360D02*
X027098Y007360D01*
X027115Y007201D02*
X019978Y007201D01*
X019978Y007043D02*
X027204Y007043D01*
X029228Y007043D02*
X031307Y007043D01*
X031149Y007201D02*
X029228Y007201D01*
X029228Y007360D02*
X030990Y007360D01*
X030832Y007518D02*
X029228Y007518D01*
X029228Y007677D02*
X030673Y007677D01*
X030515Y007835D02*
X029312Y007835D01*
X029392Y007915D02*
X029451Y007890D01*
X029626Y007890D01*
X029788Y007957D01*
X029911Y008081D01*
X029978Y008242D01*
X029978Y008371D01*
X033205Y005145D01*
X029147Y005145D01*
X029224Y005177D01*
X029316Y005269D01*
X029366Y005390D01*
X029366Y005520D01*
X029316Y005641D01*
X029228Y005729D01*
X029228Y007751D01*
X029392Y007915D01*
X029824Y007994D02*
X030356Y007994D01*
X030198Y008152D02*
X029941Y008152D01*
X029978Y008311D02*
X030039Y008311D01*
X031211Y007677D02*
X035263Y007677D01*
X035289Y007703D02*
X035165Y007579D01*
X035098Y007418D01*
X035098Y007242D01*
X035165Y007081D01*
X035289Y006957D01*
X035451Y006890D01*
X035626Y006890D01*
X035788Y006957D01*
X035911Y007081D01*
X035978Y007242D01*
X035978Y007418D01*
X035911Y007579D01*
X035788Y007703D01*
X035626Y007770D01*
X035451Y007770D01*
X035289Y007703D01*
X035140Y007518D02*
X031369Y007518D01*
X031528Y007360D02*
X035098Y007360D01*
X035115Y007201D02*
X031686Y007201D01*
X031845Y007043D02*
X035204Y007043D01*
X035343Y006726D02*
X032162Y006726D01*
X032003Y006884D02*
X036723Y006884D01*
X036723Y006726D02*
X035733Y006726D01*
X035788Y006703D02*
X035626Y006770D01*
X035451Y006770D01*
X035289Y006703D01*
X035165Y006579D01*
X035098Y006418D01*
X035098Y006242D01*
X035165Y006081D01*
X035289Y005957D01*
X035451Y005890D01*
X035626Y005890D01*
X035788Y005957D01*
X035911Y006081D01*
X035978Y006242D01*
X035978Y006418D01*
X035911Y006579D01*
X035788Y006703D01*
X035916Y006567D02*
X036723Y006567D01*
X036723Y006409D02*
X035978Y006409D01*
X035978Y006250D02*
X036723Y006250D01*
X036723Y006092D02*
X035916Y006092D01*
X035730Y005933D02*
X036723Y005933D01*
X036644Y005775D02*
X033113Y005775D01*
X032954Y005933D02*
X035347Y005933D01*
X035161Y006092D02*
X032796Y006092D01*
X032637Y006250D02*
X035098Y006250D01*
X035098Y006409D02*
X032479Y006409D01*
X032320Y006567D02*
X035160Y006567D01*
X035873Y007043D02*
X036723Y007043D01*
X036723Y007201D02*
X035961Y007201D01*
X035978Y007360D02*
X036723Y007360D01*
X036723Y007518D02*
X035937Y007518D01*
X035814Y007677D02*
X036723Y007677D01*
X036585Y005616D02*
X033271Y005616D01*
X033430Y005458D02*
X036609Y005458D01*
X033051Y005299D02*
X029329Y005299D01*
X029366Y005458D02*
X032892Y005458D01*
X032734Y005616D02*
X029327Y005616D01*
X029228Y005775D02*
X032575Y005775D01*
X032417Y005933D02*
X029228Y005933D01*
X029228Y006092D02*
X032258Y006092D01*
X032100Y006250D02*
X029228Y006250D01*
X029228Y006409D02*
X031941Y006409D01*
X031783Y006567D02*
X029228Y006567D01*
X029228Y006726D02*
X031624Y006726D01*
X031466Y006884D02*
X029228Y006884D01*
X027253Y007994D02*
X021824Y007994D01*
X021941Y008152D02*
X022448Y008152D01*
X021253Y007994D02*
X019978Y007994D01*
X019978Y008152D02*
X021136Y008152D01*
X021098Y008311D02*
X019978Y008311D01*
X019978Y008469D02*
X021120Y008469D01*
X020972Y008628D02*
X019978Y008628D01*
X019978Y008786D02*
X020848Y008786D01*
X021978Y009262D02*
X026463Y009262D01*
X026305Y009420D02*
X021977Y009420D01*
X021912Y009579D02*
X026146Y009579D01*
X026622Y009103D02*
X022034Y009103D01*
X019348Y009420D02*
X019321Y009420D01*
X019348Y009579D02*
X018806Y009579D01*
X018756Y009420D02*
X018647Y009420D01*
X018637Y009262D02*
X018489Y009262D01*
X018598Y009103D02*
X018330Y009103D01*
X018172Y008945D02*
X018618Y008945D01*
X018710Y008786D02*
X018013Y008786D01*
X017855Y008628D02*
X019348Y008628D01*
X019348Y008469D02*
X019249Y008469D01*
X018828Y008469D02*
X017696Y008469D01*
X019214Y007677D02*
X019348Y007677D01*
X019348Y007518D02*
X019131Y007518D01*
X014598Y007677D02*
X014214Y007677D01*
X014413Y007835D02*
X014598Y007835D01*
X014598Y007994D02*
X014478Y007994D01*
X014478Y008152D02*
X014598Y008152D01*
X014598Y008311D02*
X014419Y008311D01*
X014249Y008469D02*
X014598Y008469D01*
X014598Y008628D02*
X013855Y008628D01*
X013828Y008469D02*
X013696Y008469D01*
X013658Y008311D02*
X013538Y008311D01*
X013598Y008152D02*
X013379Y008152D01*
X013228Y007994D02*
X013598Y007994D01*
X013525Y007835D02*
X013228Y007835D01*
X013228Y007677D02*
X013366Y007677D01*
X013000Y008311D02*
X012919Y008311D01*
X012749Y008469D02*
X013159Y008469D01*
X014367Y008786D02*
X014598Y008786D01*
X014598Y008945D02*
X014458Y008945D01*
X014478Y009103D02*
X014598Y009103D01*
X014598Y009262D02*
X014439Y009262D01*
X014321Y009420D02*
X014598Y009420D01*
X012138Y009896D02*
X010623Y009896D01*
X010781Y010054D02*
X012098Y010054D01*
X012117Y010213D02*
X010940Y010213D01*
X011098Y010371D02*
X012207Y010371D01*
X008723Y008945D02*
X008617Y008945D01*
X008723Y008786D02*
X007867Y008786D01*
X007958Y008945D02*
X008210Y008945D01*
X008100Y009103D02*
X007978Y009103D01*
X007939Y009262D02*
X008085Y009262D01*
X007137Y009262D02*
X006489Y009262D01*
X006478Y009103D02*
X007098Y009103D01*
X007118Y008945D02*
X006458Y008945D01*
X006367Y008786D02*
X007210Y008786D01*
X006635Y008628D02*
X008723Y008628D01*
X008723Y008469D02*
X007749Y008469D01*
X007919Y008311D02*
X008723Y008311D01*
X008723Y008152D02*
X007978Y008152D01*
X007978Y007994D02*
X008723Y007994D01*
X008723Y007835D02*
X007913Y007835D01*
X007714Y007677D02*
X008723Y007677D01*
X008723Y007518D02*
X007631Y007518D01*
X007446Y007518D02*
X007103Y007518D01*
X007103Y007360D02*
X007196Y007360D01*
X007112Y007201D02*
X007103Y007201D01*
X006723Y007201D02*
X006464Y007201D01*
X006478Y007168D02*
X006411Y007329D01*
X006288Y007453D01*
X006126Y007520D01*
X005951Y007520D01*
X005789Y007453D01*
X005665Y007329D01*
X005598Y007168D01*
X005598Y006992D01*
X005665Y006831D01*
X005789Y006707D01*
X005951Y006640D01*
X006126Y006640D01*
X006288Y006707D01*
X006411Y006831D01*
X006478Y006992D01*
X006478Y007168D01*
X006478Y007043D02*
X006723Y007043D01*
X006723Y006884D02*
X006433Y006884D01*
X006306Y006726D02*
X006723Y006726D01*
X006723Y006567D02*
X000521Y006567D01*
X000521Y006409D02*
X000745Y006409D01*
X000789Y006453D02*
X000665Y006329D01*
X000598Y006168D01*
X000598Y005992D01*
X000665Y005831D01*
X000789Y005707D01*
X000951Y005640D01*
X001126Y005640D01*
X001288Y005707D01*
X001411Y005831D01*
X001478Y005992D01*
X001478Y006168D01*
X001411Y006329D01*
X001288Y006453D01*
X001126Y006520D01*
X000951Y006520D01*
X000789Y006453D01*
X000951Y006640D02*
X001126Y006640D01*
X001288Y006707D01*
X001411Y006831D01*
X001478Y006992D01*
X001478Y007168D01*
X001411Y007329D01*
X001288Y007453D01*
X001126Y007520D01*
X000951Y007520D01*
X000789Y007453D01*
X000665Y007329D01*
X000598Y007168D01*
X000598Y006992D01*
X000665Y006831D01*
X000789Y006707D01*
X000951Y006640D01*
X000771Y006726D02*
X000521Y006726D01*
X000521Y006884D02*
X000643Y006884D01*
X000598Y007043D02*
X000521Y007043D01*
X000521Y007201D02*
X000612Y007201D01*
X000696Y007360D02*
X000521Y007360D01*
X000521Y007518D02*
X000946Y007518D01*
X000951Y007640D02*
X001126Y007640D01*
X001288Y007707D01*
X001411Y007831D01*
X001478Y007992D01*
X001478Y008168D01*
X001411Y008329D01*
X001288Y008453D01*
X001126Y008520D01*
X000951Y008520D01*
X000789Y008453D01*
X000665Y008329D01*
X000598Y008168D01*
X000598Y007992D01*
X000665Y007831D01*
X000789Y007707D01*
X000951Y007640D01*
X000863Y007677D02*
X000521Y007677D01*
X000521Y007835D02*
X000664Y007835D01*
X000598Y007994D02*
X000521Y007994D01*
X000521Y008152D02*
X000598Y008152D01*
X000658Y008311D02*
X000521Y008311D01*
X000521Y008469D02*
X000828Y008469D01*
X001249Y008469D02*
X005631Y008469D01*
X005658Y008311D02*
X001419Y008311D01*
X001478Y008152D02*
X005598Y008152D01*
X005598Y007994D02*
X001478Y007994D01*
X001413Y007835D02*
X005664Y007835D01*
X005863Y007677D02*
X001214Y007677D01*
X001131Y007518D02*
X005946Y007518D01*
X006131Y007518D02*
X006723Y007518D01*
X006723Y007360D02*
X006381Y007360D01*
X006214Y007677D02*
X006723Y007677D01*
X006723Y007835D02*
X006413Y007835D01*
X006478Y007994D02*
X006723Y007994D01*
X006573Y008152D02*
X006478Y008152D01*
X006793Y008469D02*
X007328Y008469D01*
X007158Y008311D02*
X006952Y008311D01*
X007103Y007835D02*
X007164Y007835D01*
X007103Y007677D02*
X007363Y007677D01*
X007881Y007360D02*
X008723Y007360D01*
X008723Y007201D02*
X007964Y007201D01*
X007978Y007043D02*
X008723Y007043D01*
X008723Y006884D02*
X007933Y006884D01*
X007806Y006726D02*
X008723Y006726D01*
X008723Y006567D02*
X007103Y006567D01*
X007103Y006409D02*
X007245Y006409D01*
X007132Y006250D02*
X007103Y006250D01*
X006723Y006250D02*
X006444Y006250D01*
X006411Y006329D02*
X006288Y006453D01*
X006126Y006520D01*
X005951Y006520D01*
X005789Y006453D01*
X005665Y006329D01*
X005598Y006168D01*
X005598Y005992D01*
X005665Y005831D01*
X005789Y005707D01*
X005951Y005640D01*
X006126Y005640D01*
X006288Y005707D01*
X006411Y005831D01*
X006478Y005992D01*
X006478Y006168D01*
X006411Y006329D01*
X006332Y006409D02*
X006723Y006409D01*
X007103Y006726D02*
X007271Y006726D01*
X007143Y006884D02*
X007103Y006884D01*
X007832Y006409D02*
X008723Y006409D01*
X008723Y006250D02*
X007944Y006250D01*
X007978Y006092D02*
X008723Y006092D01*
X008723Y005933D02*
X007954Y005933D01*
X007855Y005775D02*
X008723Y005775D01*
X008723Y005616D02*
X007571Y005616D01*
X007730Y005458D02*
X008723Y005458D01*
X008723Y005299D02*
X008083Y005299D01*
X008166Y005141D02*
X008723Y005141D01*
X008723Y004982D02*
X008153Y004982D01*
X008046Y004824D02*
X008723Y004824D01*
X008723Y004665D02*
X000521Y004665D01*
X000521Y004507D02*
X008723Y004507D01*
X008617Y004348D02*
X000521Y004348D01*
X000521Y004190D02*
X008585Y004190D01*
X008630Y004031D02*
X000521Y004031D01*
X000521Y003873D02*
X009374Y003873D01*
X009348Y004031D02*
X009196Y004031D01*
X009241Y004190D02*
X009348Y004190D01*
X009252Y004348D02*
X009209Y004348D01*
X009478Y004665D02*
X009581Y004665D01*
X009996Y004665D02*
X010098Y004665D01*
X010098Y004507D02*
X009984Y004507D01*
X010143Y004348D02*
X010252Y004348D01*
X010228Y004190D02*
X010348Y004190D01*
X010348Y004031D02*
X010228Y004031D01*
X010203Y003873D02*
X010374Y003873D01*
X010532Y003714D02*
X010045Y003714D01*
X009532Y003714D02*
X000521Y003714D01*
X000521Y003556D02*
X011294Y003556D01*
X011136Y003714D02*
X011045Y003714D01*
X011453Y003397D02*
X000521Y003397D01*
X000521Y004824D02*
X007631Y004824D01*
X007524Y004982D02*
X000521Y004982D01*
X000521Y005141D02*
X007509Y005141D01*
X007351Y005299D02*
X000521Y005299D01*
X000521Y005458D02*
X007192Y005458D01*
X007034Y005616D02*
X000521Y005616D01*
X000521Y005775D02*
X000722Y005775D01*
X000623Y005933D02*
X000521Y005933D01*
X000521Y006092D02*
X000598Y006092D01*
X000632Y006250D02*
X000521Y006250D01*
X001332Y006409D02*
X005745Y006409D01*
X005632Y006250D02*
X001444Y006250D01*
X001478Y006092D02*
X005598Y006092D01*
X005623Y005933D02*
X001454Y005933D01*
X001355Y005775D02*
X005722Y005775D01*
X006355Y005775D02*
X006875Y005775D01*
X006723Y005933D02*
X006454Y005933D01*
X006478Y006092D02*
X006723Y006092D01*
X005771Y006726D02*
X001306Y006726D01*
X001433Y006884D02*
X005643Y006884D01*
X005598Y007043D02*
X001478Y007043D01*
X001464Y007201D02*
X005612Y007201D01*
X005696Y007360D02*
X001381Y007360D01*
X012478Y004665D02*
X012581Y004665D01*
X014996Y004665D02*
X015098Y004665D01*
X018314Y004824D02*
X018423Y004824D01*
X019318Y009737D02*
X019348Y009737D01*
X019978Y011164D02*
X021131Y011164D01*
X021098Y011322D02*
X019978Y011322D01*
X019978Y011481D02*
X021124Y011481D01*
X021225Y011639D02*
X019978Y011639D01*
X019348Y011639D02*
X017866Y011639D01*
X017708Y011481D02*
X018855Y011481D01*
X018662Y011322D02*
X017549Y011322D01*
X017391Y011164D02*
X018598Y011164D01*
X019221Y011481D02*
X019348Y011481D01*
X018699Y011798D02*
X018025Y011798D01*
X018183Y011956D02*
X018613Y011956D01*
X018598Y012115D02*
X018342Y012115D01*
X018500Y012273D02*
X018642Y012273D01*
X018659Y012432D02*
X018768Y012432D01*
X019309Y012432D02*
X019348Y012432D01*
X020647Y017312D02*
X004676Y017312D01*
X004635Y017354D01*
X004514Y017404D01*
X004383Y017404D01*
X004263Y017354D01*
X004252Y017343D01*
X004241Y017354D01*
X004120Y017404D01*
X003990Y017404D01*
X003869Y017354D01*
X003858Y017343D01*
X003847Y017354D01*
X003727Y017404D01*
X003596Y017404D01*
X003475Y017354D01*
X003464Y017343D01*
X003454Y017354D01*
X003333Y017404D01*
X003202Y017404D01*
X003082Y017354D01*
X003071Y017343D01*
X003060Y017354D01*
X002939Y017404D01*
X002809Y017404D01*
X002688Y017354D01*
X002647Y017312D01*
X000521Y017312D01*
X000521Y026093D01*
X060798Y026093D01*
X060798Y017312D01*
X058690Y017312D01*
X058639Y017363D01*
X058518Y017413D01*
X058387Y017413D01*
X058267Y017363D01*
X058256Y017353D01*
X058245Y017363D01*
X058124Y017413D01*
X057994Y017413D01*
X057873Y017363D01*
X057862Y017353D01*
X057851Y017363D01*
X057731Y017413D01*
X057600Y017413D01*
X057479Y017363D01*
X057468Y017353D01*
X057458Y017363D01*
X057337Y017413D01*
X057206Y017413D01*
X057086Y017363D01*
X057075Y017353D01*
X057064Y017363D01*
X056943Y017413D01*
X056813Y017413D01*
X056692Y017363D01*
X056641Y017312D01*
X040676Y017312D01*
X040635Y017354D01*
X040514Y017404D01*
X040383Y017404D01*
X040263Y017354D01*
X040252Y017343D01*
X040241Y017354D01*
X040120Y017404D01*
X039990Y017404D01*
X039869Y017354D01*
X039858Y017343D01*
X039847Y017354D01*
X039727Y017404D01*
X039596Y017404D01*
X039475Y017354D01*
X039464Y017343D01*
X039454Y017354D01*
X039333Y017404D01*
X039202Y017404D01*
X039082Y017354D01*
X039071Y017343D01*
X039060Y017354D01*
X038939Y017404D01*
X038809Y017404D01*
X038688Y017354D01*
X038647Y017312D01*
X022676Y017312D01*
X022635Y017354D01*
X022514Y017404D01*
X022383Y017404D01*
X022263Y017354D01*
X022252Y017343D01*
X022241Y017354D01*
X022120Y017404D01*
X021990Y017404D01*
X021869Y017354D01*
X021858Y017343D01*
X021847Y017354D01*
X021727Y017404D01*
X021596Y017404D01*
X021475Y017354D01*
X021464Y017343D01*
X021454Y017354D01*
X021333Y017404D01*
X021202Y017404D01*
X021082Y017354D01*
X021071Y017343D01*
X021060Y017354D01*
X020939Y017404D01*
X020809Y017404D01*
X020688Y017354D01*
X020647Y017312D01*
X020679Y017345D02*
X004643Y017345D01*
X004254Y017345D02*
X004250Y017345D01*
X003861Y017345D02*
X003856Y017345D01*
X003467Y017345D02*
X003462Y017345D01*
X003073Y017345D02*
X003068Y017345D01*
X002679Y017345D02*
X000521Y017345D01*
X000521Y017504D02*
X024944Y017504D01*
X024949Y017498D02*
X025459Y017498D01*
X025538Y017578D01*
X025618Y017498D01*
X026128Y017498D01*
X026210Y017580D01*
X026210Y017665D01*
X027017Y017665D01*
X027742Y018390D01*
X027876Y018524D01*
X027876Y017849D01*
X028210Y017515D01*
X039117Y017515D01*
X039228Y017626D01*
X040853Y019251D01*
X041848Y020246D01*
X041848Y020012D01*
X041598Y019762D01*
X041598Y019398D01*
X041856Y019140D01*
X042221Y019140D01*
X042348Y019268D01*
X042348Y019159D01*
X042210Y019020D01*
X041856Y019020D01*
X041598Y018762D01*
X041598Y018398D01*
X041856Y018140D01*
X042221Y018140D01*
X042478Y018398D01*
X042478Y018751D01*
X042728Y019001D01*
X042728Y019268D01*
X042856Y019140D01*
X043221Y019140D01*
X043348Y019268D01*
X043348Y019159D01*
X043210Y019020D01*
X042856Y019020D01*
X042598Y018762D01*
X042598Y018398D01*
X042856Y018140D01*
X043221Y018140D01*
X043478Y018398D01*
X043478Y018751D01*
X043728Y019001D01*
X043728Y019268D01*
X043856Y019140D01*
X044221Y019140D01*
X044478Y019398D01*
X044478Y019762D01*
X044228Y020012D01*
X044228Y020876D01*
X045544Y022192D01*
X045544Y021895D01*
X045460Y021895D01*
X045348Y021784D01*
X044848Y021284D01*
X044848Y020012D01*
X044598Y019762D01*
X044598Y019398D01*
X044856Y019140D01*
X045221Y019140D01*
X045348Y019268D01*
X045348Y019159D01*
X045210Y019020D01*
X044856Y019020D01*
X044598Y018762D01*
X044598Y018398D01*
X044726Y018270D01*
X044617Y018270D01*
X044478Y018409D01*
X044478Y018762D01*
X044221Y019020D01*
X043856Y019020D01*
X043598Y018762D01*
X043598Y018398D01*
X043856Y018140D01*
X044210Y018140D01*
X044348Y018001D01*
X044460Y017890D01*
X046367Y017890D01*
X046617Y018140D01*
X046728Y018251D01*
X046728Y018268D01*
X046856Y018140D01*
X047221Y018140D01*
X047478Y018398D01*
X047478Y018762D01*
X047221Y019020D01*
X046856Y019020D01*
X046728Y018892D01*
X046728Y019268D01*
X046856Y019140D01*
X047221Y019140D01*
X047403Y019322D01*
X047780Y018944D01*
X047598Y018762D01*
X047598Y018398D01*
X047856Y018140D01*
X048221Y018140D01*
X048478Y018398D01*
X048478Y018762D01*
X048351Y018890D01*
X048460Y018890D01*
X048598Y018751D01*
X048598Y018398D01*
X048856Y018140D01*
X049221Y018140D01*
X049478Y018398D01*
X049478Y018762D01*
X049351Y018890D01*
X049460Y018890D01*
X049598Y018751D01*
X049598Y018398D01*
X049856Y018140D01*
X050221Y018140D01*
X050478Y018398D01*
X050478Y018762D01*
X050221Y019020D01*
X049867Y019020D01*
X049728Y019159D01*
X049617Y019270D01*
X049351Y019270D01*
X049478Y019398D01*
X049478Y019762D01*
X049221Y020020D01*
X048867Y020020D01*
X048367Y020520D01*
X048117Y020520D01*
X047778Y020859D01*
X047778Y020976D01*
X048451Y020976D01*
X048462Y020988D01*
X048510Y020940D01*
X048867Y020940D01*
X048867Y020930D01*
X048949Y020848D01*
X049459Y020848D01*
X049538Y020928D01*
X049618Y020848D01*
X050128Y020848D01*
X050210Y020930D01*
X050210Y021480D01*
X050128Y021562D01*
X050063Y021562D01*
X050063Y021724D01*
X049551Y022236D01*
X049587Y022215D01*
X049633Y022203D01*
X049855Y022203D01*
X049855Y022562D01*
X049891Y022562D01*
X049891Y022598D01*
X050251Y022598D01*
X050348Y022501D01*
X050348Y020159D01*
X050210Y020020D01*
X049856Y020020D01*
X049598Y019762D01*
X049598Y019398D01*
X049856Y019140D01*
X050221Y019140D01*
X050348Y019268D01*
X050348Y019001D01*
X050598Y018751D01*
X050598Y018398D01*
X050856Y018140D01*
X051221Y018140D01*
X051478Y018398D01*
X051478Y018762D01*
X051221Y019020D01*
X050867Y019020D01*
X050728Y019159D01*
X050728Y019268D01*
X050856Y019140D01*
X051221Y019140D01*
X051478Y019398D01*
X051478Y019751D01*
X051728Y020001D01*
X051728Y022909D01*
X051617Y023020D01*
X050742Y023895D01*
X048533Y023895D01*
X048533Y024102D01*
X048451Y024184D01*
X047744Y024184D01*
X047662Y024102D01*
X047662Y022395D01*
X047635Y022395D01*
X047135Y021895D01*
X047126Y021886D01*
X046728Y022284D01*
X046617Y022395D01*
X046415Y022395D01*
X046415Y022502D01*
X046419Y022506D01*
X046442Y022547D01*
X046455Y022593D01*
X046455Y022705D01*
X046455Y022817D01*
X046442Y022863D01*
X046419Y022904D01*
X046415Y022908D01*
X046415Y024102D01*
X046333Y024184D01*
X045626Y024184D01*
X045587Y024145D01*
X045526Y024145D01*
X045481Y024190D01*
X053204Y024190D01*
X053243Y024043D01*
X053426Y023727D01*
X053685Y023468D01*
X054002Y023285D01*
X054355Y023190D01*
X054721Y023190D01*
X055075Y023285D01*
X055392Y023468D01*
X055651Y023727D01*
X055834Y024043D01*
X055928Y024397D01*
X055928Y024763D01*
X055834Y025117D01*
X055651Y025433D01*
X055392Y025692D01*
X055075Y025875D01*
X054721Y025970D01*
X054355Y025970D01*
X054002Y025875D01*
X053685Y025692D01*
X053426Y025433D01*
X053243Y025117D01*
X053148Y024763D01*
X053148Y024720D01*
X042761Y024720D01*
X042663Y024680D01*
X042538Y024555D01*
X042464Y024480D01*
X042423Y024383D01*
X042423Y024290D01*
X042375Y024290D01*
X042328Y024243D01*
X042234Y024243D01*
X042234Y024351D01*
X042152Y024433D01*
X040855Y024433D01*
X040773Y024351D01*
X040773Y023605D01*
X040855Y023523D01*
X042152Y023523D01*
X042234Y023605D01*
X042234Y023713D01*
X042293Y023713D01*
X042293Y023502D01*
X042375Y023420D01*
X043003Y023420D01*
X043036Y023452D01*
X043037Y023449D01*
X043071Y023416D01*
X043112Y023392D01*
X043158Y023380D01*
X043389Y023380D01*
X043389Y023807D01*
X043485Y023807D01*
X043485Y023380D01*
X043717Y023380D01*
X043763Y023392D01*
X043804Y023416D01*
X043837Y023449D01*
X043861Y023490D01*
X043873Y023536D01*
X043873Y023807D01*
X043485Y023807D01*
X043485Y023903D01*
X043873Y023903D01*
X043873Y024174D01*
X043869Y024190D01*
X045145Y024190D01*
X045072Y024116D01*
X045028Y024012D01*
X045028Y023964D01*
X040585Y019520D01*
X038960Y017895D01*
X028367Y017895D01*
X028294Y017968D01*
X028778Y017968D01*
X028811Y018001D01*
X028812Y017998D01*
X028846Y017964D01*
X028887Y017940D01*
X028933Y017928D01*
X029155Y017928D01*
X029155Y018287D01*
X029191Y018287D01*
X029191Y018323D01*
X029569Y018323D01*
X029569Y018526D01*
X029557Y018571D01*
X029534Y018612D01*
X029521Y018625D01*
X029809Y018625D01*
X029891Y018707D01*
X029891Y019323D01*
X029809Y019405D01*
X029201Y019405D01*
X029201Y019974D01*
X029742Y020515D01*
X029838Y020611D01*
X029838Y019435D01*
X029920Y019353D01*
X030536Y019353D01*
X030618Y019435D01*
X030618Y019556D01*
X030660Y019515D01*
X031307Y019515D01*
X031324Y019498D01*
X031834Y019498D01*
X031913Y019578D01*
X031993Y019498D01*
X032503Y019498D01*
X032585Y019580D01*
X032585Y019640D01*
X033572Y019640D01*
X033572Y019496D01*
X033654Y019414D01*
X034242Y019414D01*
X034324Y019496D01*
X034324Y020164D01*
X034242Y020246D01*
X033654Y020246D01*
X033572Y020164D01*
X033572Y020020D01*
X033166Y020020D01*
X033198Y020098D01*
X033198Y020171D01*
X033662Y020635D01*
X033699Y020598D01*
X034209Y020598D01*
X034266Y020656D01*
X034282Y020628D01*
X034316Y020594D01*
X034357Y020571D01*
X034402Y020558D01*
X034605Y020558D01*
X034605Y020937D01*
X034641Y020937D01*
X034641Y020558D01*
X034844Y020558D01*
X034864Y020564D01*
X034864Y020246D01*
X034835Y020246D01*
X034753Y020164D01*
X034753Y019496D01*
X034835Y019414D01*
X035423Y019414D01*
X035505Y019496D01*
X035505Y019540D01*
X035598Y019502D01*
X035729Y019502D01*
X035849Y019552D01*
X035941Y019644D01*
X035991Y019765D01*
X035991Y019895D01*
X035941Y020016D01*
X035849Y020108D01*
X035729Y020158D01*
X035598Y020158D01*
X035505Y020120D01*
X035505Y020164D01*
X035423Y020246D01*
X035394Y020246D01*
X035394Y020486D01*
X037051Y022143D01*
X037100Y022163D01*
X037180Y022244D01*
X037223Y022348D01*
X037223Y022462D01*
X037202Y022512D01*
X037202Y022645D01*
X037251Y022645D01*
X037333Y022727D01*
X037333Y022815D01*
X037523Y022815D01*
X037523Y022072D01*
X037605Y021990D01*
X039971Y021990D01*
X040053Y022072D01*
X040053Y024088D01*
X039971Y024170D01*
X037605Y024170D01*
X037523Y024088D01*
X037523Y023345D01*
X037333Y023345D01*
X037333Y023433D01*
X037251Y023515D01*
X037148Y023515D01*
X037117Y023591D01*
X037049Y023658D01*
X035624Y025083D01*
X035536Y025120D01*
X030416Y025120D01*
X030327Y025083D01*
X030260Y025016D01*
X029451Y024207D01*
X028874Y024783D01*
X028786Y024820D01*
X015741Y024820D01*
X015652Y024783D01*
X015585Y024716D01*
X015156Y024287D01*
X014729Y024714D01*
X014729Y024835D01*
X014647Y024917D01*
X014098Y024917D01*
X014066Y024884D01*
X014064Y024887D01*
X014031Y024921D01*
X013990Y024945D01*
X013944Y024957D01*
X013722Y024957D01*
X013722Y024598D01*
X013685Y024598D01*
X013685Y024562D01*
X013307Y024562D01*
X013307Y024359D01*
X013319Y024314D01*
X013343Y024273D01*
X013377Y024239D01*
X013418Y024215D01*
X013463Y024203D01*
X013685Y024203D01*
X013685Y024562D01*
X013722Y024562D01*
X013722Y024203D01*
X013944Y024203D01*
X013990Y024215D01*
X014031Y024239D01*
X014064Y024273D01*
X014066Y024276D01*
X014098Y024243D01*
X014647Y024243D01*
X014655Y024251D01*
X014852Y024054D01*
X014852Y023869D01*
X014862Y023860D01*
X014852Y023850D01*
X014852Y023614D01*
X014862Y023604D01*
X014852Y023594D01*
X014852Y023358D01*
X014862Y023348D01*
X014852Y023338D01*
X014852Y023102D01*
X014862Y023092D01*
X014852Y023082D01*
X014852Y022846D01*
X014862Y022836D01*
X014852Y022826D01*
X014852Y022590D01*
X014862Y022580D01*
X014852Y022570D01*
X014852Y022334D01*
X014862Y022324D01*
X014852Y022314D01*
X014852Y022078D01*
X014862Y022068D01*
X014852Y022058D01*
X014852Y021822D01*
X014862Y021812D01*
X014852Y021802D01*
X014852Y021620D01*
X014660Y021620D01*
X014548Y021509D01*
X013598Y020559D01*
X013598Y020012D01*
X013478Y019892D01*
X013478Y021409D01*
X013378Y021509D01*
X013267Y021620D01*
X013225Y021620D01*
X013225Y021802D01*
X013215Y021812D01*
X013225Y021822D01*
X013225Y022058D01*
X013215Y022068D01*
X013225Y022078D01*
X013225Y022314D01*
X013215Y022324D01*
X013225Y022334D01*
X013225Y022570D01*
X013215Y022580D01*
X013225Y022590D01*
X013225Y022826D01*
X013215Y022836D01*
X013225Y022846D01*
X013225Y023082D01*
X013215Y023092D01*
X013225Y023102D01*
X013225Y023338D01*
X013215Y023348D01*
X013225Y023358D01*
X013225Y023594D01*
X013215Y023604D01*
X013225Y023614D01*
X013225Y023813D01*
X013229Y023817D01*
X013252Y023858D01*
X013265Y023904D01*
X013265Y023987D01*
X012890Y023987D01*
X012890Y023987D01*
X013265Y023987D01*
X013265Y024071D01*
X013252Y024117D01*
X013229Y024158D01*
X013195Y024192D01*
X013154Y024215D01*
X013108Y024227D01*
X012890Y024227D01*
X012890Y023987D01*
X012890Y023987D01*
X012890Y024227D01*
X012671Y024227D01*
X012625Y024215D01*
X012584Y024192D01*
X012551Y024158D01*
X012527Y024117D01*
X012515Y024071D01*
X012515Y023989D01*
X012445Y024017D01*
X012332Y024017D01*
X012227Y023974D01*
X012147Y023894D01*
X012103Y023789D01*
X012103Y023760D01*
X012032Y023760D01*
X011927Y023717D01*
X011847Y023636D01*
X011803Y023532D01*
X011803Y023418D01*
X011847Y023314D01*
X011927Y023233D01*
X012032Y023190D01*
X012103Y023190D01*
X012103Y023163D01*
X012147Y023059D01*
X012227Y022978D01*
X012274Y022959D01*
X009598Y020284D01*
X009598Y020012D01*
X009348Y019762D01*
X009348Y019398D01*
X009606Y019140D01*
X009971Y019140D01*
X010098Y019268D01*
X010098Y019159D01*
X009960Y019020D01*
X009606Y019020D01*
X009348Y018762D01*
X009348Y018398D01*
X009606Y018140D01*
X009971Y018140D01*
X010228Y018398D01*
X010228Y018751D01*
X010478Y019001D01*
X010478Y019268D01*
X010606Y019140D01*
X010971Y019140D01*
X011098Y019268D01*
X011098Y019159D01*
X010960Y019020D01*
X010606Y019020D01*
X010348Y018762D01*
X010348Y018398D01*
X010606Y018140D01*
X010971Y018140D01*
X011228Y018398D01*
X011228Y018751D01*
X011478Y019001D01*
X011478Y019268D01*
X011606Y019140D01*
X011971Y019140D01*
X012098Y019268D01*
X012098Y019159D01*
X011960Y019020D01*
X011606Y019020D01*
X011348Y018762D01*
X011348Y018398D01*
X011606Y018140D01*
X011971Y018140D01*
X012228Y018398D01*
X012228Y018751D01*
X012367Y018890D01*
X012478Y019001D01*
X012478Y019268D01*
X012606Y019140D01*
X012971Y019140D01*
X013098Y019268D01*
X013098Y019159D01*
X012960Y019020D01*
X012606Y019020D01*
X012348Y018762D01*
X012348Y018398D01*
X012606Y018140D01*
X012971Y018140D01*
X013228Y018398D01*
X013228Y018751D01*
X013367Y018890D01*
X013478Y019001D01*
X013478Y019268D01*
X013606Y019140D01*
X013971Y019140D01*
X014098Y019268D01*
X014098Y019159D01*
X013960Y019020D01*
X013606Y019020D01*
X013348Y018762D01*
X013348Y018398D01*
X013606Y018140D01*
X013971Y018140D01*
X014228Y018398D01*
X014228Y018751D01*
X014367Y018890D01*
X014478Y019001D01*
X014478Y019268D01*
X014606Y019140D01*
X014971Y019140D01*
X015098Y019268D01*
X015098Y019159D01*
X014960Y019020D01*
X014606Y019020D01*
X014348Y018762D01*
X014348Y018398D01*
X014606Y018140D01*
X014971Y018140D01*
X015228Y018398D01*
X015228Y018751D01*
X015478Y019001D01*
X015478Y019268D01*
X015606Y019140D01*
X015971Y019140D01*
X016098Y019268D01*
X016098Y019159D01*
X015960Y019020D01*
X015606Y019020D01*
X015348Y018762D01*
X015348Y018398D01*
X015606Y018140D01*
X015971Y018140D01*
X016228Y018398D01*
X016228Y018751D01*
X016478Y019001D01*
X016478Y019268D01*
X016606Y019140D01*
X016971Y019140D01*
X017098Y019268D01*
X017098Y019159D01*
X016960Y019020D01*
X016606Y019020D01*
X016348Y018762D01*
X016348Y018398D01*
X016606Y018140D01*
X016971Y018140D01*
X017228Y018398D01*
X017228Y018751D01*
X017478Y019001D01*
X017478Y019268D01*
X017606Y019140D01*
X017960Y019140D01*
X018210Y018890D01*
X018476Y018890D01*
X018348Y018762D01*
X018348Y018398D01*
X018606Y018140D01*
X018971Y018140D01*
X019221Y018390D01*
X020292Y018390D01*
X020403Y018501D01*
X020503Y018601D01*
X020615Y018713D01*
X020615Y018491D01*
X020697Y018409D01*
X020961Y018409D01*
X021704Y017665D01*
X024867Y017665D01*
X024867Y017580D01*
X024949Y017498D01*
X024867Y017662D02*
X000521Y017662D01*
X000521Y017821D02*
X021549Y017821D01*
X021390Y017979D02*
X000521Y017979D01*
X000521Y018138D02*
X017552Y018138D01*
X017589Y018100D02*
X017768Y018100D01*
X017768Y018560D01*
X017308Y018560D01*
X017308Y018381D01*
X017589Y018100D01*
X017768Y018138D02*
X017808Y018138D01*
X017808Y018100D02*
X017987Y018100D01*
X018268Y018381D01*
X018268Y018560D01*
X017808Y018560D01*
X017808Y018100D01*
X017808Y018296D02*
X017768Y018296D01*
X017768Y018455D02*
X017808Y018455D01*
X017808Y018560D02*
X017768Y018560D01*
X017768Y018600D01*
X017308Y018600D01*
X017308Y018779D01*
X017589Y019060D01*
X017768Y019060D01*
X017768Y018600D01*
X017808Y018600D01*
X017808Y019060D01*
X017987Y019060D01*
X018268Y018779D01*
X018268Y018600D01*
X017808Y018600D01*
X017808Y018560D01*
X017808Y018613D02*
X017768Y018613D01*
X017768Y018772D02*
X017808Y018772D01*
X017808Y018930D02*
X017768Y018930D01*
X018011Y019089D02*
X017478Y019089D01*
X017478Y019247D02*
X017499Y019247D01*
X017460Y018930D02*
X017407Y018930D01*
X017308Y018772D02*
X017249Y018772D01*
X017228Y018613D02*
X017308Y018613D01*
X017308Y018455D02*
X017228Y018455D01*
X017127Y018296D02*
X017393Y018296D01*
X018025Y018138D02*
X021232Y018138D01*
X021073Y018296D02*
X019127Y018296D01*
X018450Y018296D02*
X018183Y018296D01*
X018268Y018455D02*
X018348Y018455D01*
X018348Y018613D02*
X018268Y018613D01*
X018268Y018772D02*
X018358Y018772D01*
X018170Y018930D02*
X018117Y018930D01*
X018367Y019270D02*
X018228Y019409D01*
X018228Y019762D01*
X017971Y020020D01*
X017606Y020020D01*
X017478Y019892D01*
X017478Y021209D01*
X017367Y021320D01*
X015657Y023030D01*
X015800Y023030D01*
X015852Y022978D01*
X015957Y022935D01*
X016030Y022935D01*
X017347Y021617D01*
X020937Y021617D01*
X020885Y021566D01*
X020835Y021445D01*
X020835Y021315D01*
X020885Y021194D01*
X020977Y021102D01*
X021098Y021052D01*
X021229Y021052D01*
X021349Y021102D01*
X021437Y021190D01*
X021885Y021190D01*
X021835Y021070D01*
X021835Y020940D01*
X021885Y020819D01*
X021977Y020727D01*
X022098Y020677D01*
X022223Y020677D01*
X023172Y019728D01*
X023423Y019728D01*
X023365Y019669D01*
X023365Y019239D01*
X023447Y019157D01*
X023917Y019157D01*
X023957Y019197D01*
X023977Y019177D01*
X024098Y019127D01*
X024229Y019127D01*
X024349Y019177D01*
X024441Y019269D01*
X024491Y019390D01*
X024491Y019520D01*
X024441Y019641D01*
X024355Y019728D01*
X024867Y019728D01*
X024867Y019637D01*
X024764Y019534D01*
X024126Y018896D01*
X023999Y018896D01*
X023999Y018921D01*
X023917Y019003D01*
X023447Y019003D01*
X023365Y018921D01*
X023365Y018491D01*
X023447Y018409D01*
X023917Y018409D01*
X023999Y018491D01*
X023999Y018516D01*
X024283Y018516D01*
X024395Y018627D01*
X024395Y018627D01*
X024907Y019140D01*
X024949Y019098D01*
X025459Y019098D01*
X025538Y019178D01*
X025618Y019098D01*
X026128Y019098D01*
X026210Y019180D01*
X026210Y019413D01*
X026480Y019413D01*
X026540Y019353D01*
X027156Y019353D01*
X027238Y019435D01*
X027238Y020358D01*
X027860Y020358D01*
X027880Y020378D01*
X027835Y020270D01*
X027835Y020140D01*
X027885Y020019D01*
X027977Y019927D01*
X028098Y019877D01*
X028191Y019877D01*
X028191Y019405D01*
X027268Y019405D01*
X027186Y019323D01*
X027186Y018845D01*
X026210Y018845D01*
X026210Y018930D01*
X026128Y019012D01*
X025618Y019012D01*
X025538Y018932D01*
X025459Y019012D01*
X024949Y019012D01*
X024867Y018930D01*
X024697Y018930D01*
X024867Y018930D02*
X024867Y018802D01*
X024335Y018270D01*
X023012Y018270D01*
X022624Y018658D01*
X022624Y018783D01*
X023090Y018783D01*
X023172Y018865D01*
X023172Y019295D01*
X023090Y019377D01*
X023045Y019377D01*
X023045Y019642D01*
X022917Y019770D01*
X022667Y020020D01*
X018606Y020020D01*
X018348Y019762D01*
X018348Y019398D01*
X018476Y019270D01*
X018367Y019270D01*
X018348Y019406D02*
X018231Y019406D01*
X018228Y019564D02*
X018348Y019564D01*
X018348Y019723D02*
X018228Y019723D01*
X018110Y019881D02*
X018467Y019881D01*
X017478Y020040D02*
X022860Y020040D01*
X022806Y019881D02*
X023019Y019881D01*
X022964Y019723D02*
X023418Y019723D01*
X023365Y019564D02*
X023045Y019564D01*
X023045Y019406D02*
X023365Y019406D01*
X023365Y019247D02*
X023172Y019247D01*
X023172Y019089D02*
X024319Y019089D01*
X024419Y019247D02*
X024477Y019247D01*
X024491Y019406D02*
X024636Y019406D01*
X024764Y019534D02*
X024764Y019534D01*
X024794Y019564D02*
X024473Y019564D01*
X024360Y019723D02*
X024867Y019723D01*
X024856Y019089D02*
X027186Y019089D01*
X027186Y019247D02*
X026210Y019247D01*
X026210Y019406D02*
X026487Y019406D01*
X027209Y019406D02*
X028191Y019406D01*
X028191Y019564D02*
X027238Y019564D01*
X027238Y019723D02*
X028191Y019723D01*
X028088Y019881D02*
X027238Y019881D01*
X027238Y020040D02*
X027877Y020040D01*
X027835Y020198D02*
X027238Y020198D01*
X027238Y020357D02*
X027871Y020357D01*
X027991Y020489D02*
X028454Y020952D01*
X028579Y020952D01*
X028699Y021002D01*
X028791Y021094D01*
X028841Y021215D01*
X028841Y021345D01*
X028791Y021466D01*
X028848Y021466D01*
X028791Y021466D02*
X028699Y021558D01*
X028579Y021608D01*
X028448Y021608D01*
X028327Y021558D01*
X028235Y021466D01*
X028185Y021345D01*
X028185Y021221D01*
X027990Y021025D01*
X027941Y021141D01*
X027849Y021233D01*
X027729Y021283D01*
X027604Y021283D01*
X027238Y021649D01*
X027238Y021765D01*
X027742Y021765D01*
X027853Y021876D01*
X027941Y021964D01*
X027941Y022005D01*
X028156Y022005D01*
X028160Y022001D01*
X028201Y021977D01*
X028247Y021965D01*
X028381Y021965D01*
X028515Y021965D01*
X028560Y021977D01*
X028601Y022001D01*
X028605Y022005D01*
X029070Y022005D01*
X028960Y021895D01*
X028848Y021784D01*
X028848Y020759D01*
X028453Y020363D01*
X028441Y020391D01*
X028349Y020483D01*
X028229Y020533D01*
X028098Y020533D01*
X027991Y020489D01*
X028017Y020515D02*
X028054Y020515D01*
X028176Y020674D02*
X028763Y020674D01*
X028848Y020832D02*
X028334Y020832D01*
X028272Y020515D02*
X028605Y020515D01*
X028825Y020198D02*
X028888Y020198D01*
X028821Y020131D02*
X028821Y019445D01*
X028696Y019445D01*
X028696Y019015D01*
X028696Y019015D01*
X028696Y019445D01*
X028571Y019445D01*
X028571Y019944D01*
X029117Y020490D01*
X029117Y020490D01*
X029228Y020601D01*
X029228Y021626D01*
X029528Y021926D01*
X029528Y022005D01*
X029809Y022005D01*
X029891Y022087D01*
X029891Y022703D01*
X029848Y022746D01*
X029853Y022751D01*
X030617Y023515D01*
X031071Y023515D01*
X030988Y023433D01*
X030988Y023225D01*
X031518Y023225D01*
X031518Y023185D01*
X030988Y023185D01*
X030988Y022977D01*
X031311Y022655D01*
X031470Y022655D01*
X030812Y021997D01*
X030596Y021997D01*
X030536Y022057D01*
X029920Y022057D01*
X029838Y021975D01*
X029838Y021738D01*
X029729Y021783D01*
X029838Y021783D01*
X029729Y021783D02*
X029598Y021783D01*
X029477Y021733D01*
X029385Y021641D01*
X029335Y021520D01*
X029335Y021390D01*
X029385Y021269D01*
X029473Y021181D01*
X029473Y020784D01*
X028821Y020131D01*
X028821Y020040D02*
X028667Y020040D01*
X028571Y019881D02*
X028821Y019881D01*
X028821Y019723D02*
X028571Y019723D01*
X028571Y019564D02*
X028821Y019564D01*
X028696Y019406D02*
X028696Y019406D01*
X028696Y019247D02*
X028696Y019247D01*
X028696Y019089D02*
X028696Y019089D01*
X029201Y019406D02*
X029867Y019406D01*
X029838Y019564D02*
X029201Y019564D01*
X029201Y019723D02*
X029838Y019723D01*
X029838Y019881D02*
X029201Y019881D01*
X029267Y020040D02*
X029838Y020040D01*
X029838Y020198D02*
X029425Y020198D01*
X029584Y020357D02*
X029838Y020357D01*
X029838Y020515D02*
X029742Y020515D01*
X029363Y020674D02*
X029228Y020674D01*
X029228Y020832D02*
X029473Y020832D01*
X029473Y020991D02*
X029228Y020991D01*
X029228Y021149D02*
X029473Y021149D01*
X029369Y021308D02*
X029228Y021308D01*
X029228Y021466D02*
X029335Y021466D01*
X029378Y021625D02*
X029228Y021625D01*
X029385Y021783D02*
X029598Y021783D01*
X029528Y021942D02*
X029838Y021942D01*
X029891Y022100D02*
X030915Y022100D01*
X031073Y022259D02*
X029891Y022259D01*
X029891Y022417D02*
X031232Y022417D01*
X031390Y022576D02*
X029891Y022576D01*
X029860Y022734D02*
X031231Y022734D01*
X031073Y022893D02*
X029995Y022893D01*
X030153Y023051D02*
X030988Y023051D01*
X031518Y023210D02*
X030312Y023210D01*
X030470Y023368D02*
X030988Y023368D01*
X030408Y023844D02*
X029766Y023844D01*
X029679Y023757D02*
X030563Y024640D01*
X031252Y024640D01*
X031028Y024416D01*
X031028Y023994D01*
X031127Y023895D01*
X030460Y023895D01*
X029585Y023020D01*
X029516Y022951D01*
X029516Y023074D01*
X029516Y023443D01*
X029597Y023443D01*
X029679Y023525D01*
X029679Y023757D01*
X029679Y023685D02*
X030250Y023685D01*
X030091Y023527D02*
X029679Y023527D01*
X029516Y023368D02*
X029933Y023368D01*
X029774Y023210D02*
X029516Y023210D01*
X029516Y023051D02*
X029616Y023051D01*
X029136Y023051D02*
X028836Y023051D01*
X028803Y023084D02*
X028803Y023084D01*
X028692Y023195D01*
X020692Y023195D01*
X020617Y023270D01*
X019617Y024270D01*
X017937Y024270D01*
X017867Y024340D01*
X025953Y024340D01*
X025952Y024340D01*
X025875Y024300D01*
X025805Y024250D01*
X025744Y024188D01*
X025693Y024118D01*
X025654Y024041D01*
X025642Y024006D01*
X025596Y024119D01*
X025452Y024262D01*
X025265Y024340D01*
X025062Y024340D01*
X024874Y024262D01*
X024731Y024119D01*
X024663Y023956D01*
X024596Y024119D01*
X024452Y024262D01*
X024265Y024340D01*
X024062Y024340D01*
X023874Y024262D01*
X023731Y024119D01*
X023663Y023956D01*
X023596Y024119D01*
X023452Y024262D01*
X023265Y024340D01*
X023062Y024340D01*
X022874Y024262D01*
X022731Y024119D01*
X022663Y023956D01*
X022596Y024119D01*
X022452Y024262D01*
X022265Y024340D01*
X022062Y024340D01*
X021874Y024262D01*
X021731Y024119D01*
X021673Y023980D01*
X021673Y024258D01*
X021591Y024340D01*
X020735Y024340D01*
X020653Y024258D01*
X020653Y023402D01*
X020735Y023320D01*
X021591Y023320D01*
X021673Y023402D01*
X021673Y023680D01*
X021731Y023541D01*
X021874Y023398D01*
X022062Y023320D01*
X022265Y023320D01*
X022452Y023398D01*
X022596Y023541D01*
X022663Y023704D01*
X022731Y023541D01*
X022874Y023398D01*
X023062Y023320D01*
X023265Y023320D01*
X023452Y023398D01*
X023596Y023541D01*
X023663Y023704D01*
X023731Y023541D01*
X023874Y023398D01*
X024062Y023320D01*
X024265Y023320D01*
X024452Y023398D01*
X024596Y023541D01*
X024663Y023704D01*
X024731Y023541D01*
X024874Y023398D01*
X025062Y023320D01*
X025265Y023320D01*
X025452Y023398D01*
X025596Y023541D01*
X025642Y023654D01*
X025654Y023619D01*
X025693Y023542D01*
X025744Y023472D01*
X025805Y023410D01*
X025875Y023360D01*
X025952Y023320D01*
X026035Y023294D01*
X026120Y023280D01*
X026143Y023280D01*
X026143Y023810D01*
X026183Y023810D01*
X026183Y023280D01*
X026207Y023280D01*
X026292Y023294D01*
X026374Y023320D01*
X026452Y023360D01*
X026522Y023410D01*
X026583Y023472D01*
X026634Y023542D01*
X026673Y023619D01*
X026700Y023701D01*
X026713Y023787D01*
X026713Y023810D01*
X026183Y023810D01*
X026183Y023850D01*
X026713Y023850D01*
X026713Y023873D01*
X026700Y023959D01*
X026673Y024041D01*
X026634Y024118D01*
X026583Y024188D01*
X026522Y024250D01*
X026452Y024300D01*
X026374Y024340D01*
X028639Y024340D01*
X028822Y024157D01*
X028672Y024157D01*
X028672Y023798D01*
X028635Y023798D01*
X028635Y023762D01*
X028257Y023762D01*
X028257Y023559D01*
X028269Y023514D01*
X028293Y023473D01*
X028327Y023439D01*
X028368Y023415D01*
X028413Y023403D01*
X028635Y023403D01*
X028635Y023762D01*
X028672Y023762D01*
X028672Y023403D01*
X028894Y023403D01*
X028940Y023415D01*
X028981Y023439D01*
X029014Y023473D01*
X029016Y023476D01*
X029048Y023443D01*
X029136Y023443D01*
X029136Y022785D01*
X029102Y022785D01*
X029089Y022798D01*
X028803Y023084D01*
X028994Y022893D02*
X029136Y022893D01*
X029089Y022798D02*
X029089Y022798D01*
X028381Y022395D02*
X028381Y021965D01*
X028381Y022395D01*
X028381Y022395D01*
X028381Y022259D02*
X028381Y022259D01*
X028381Y022100D02*
X028381Y022100D01*
X027919Y021942D02*
X029006Y021942D01*
X028848Y021783D02*
X027760Y021783D01*
X027262Y021625D02*
X028848Y021625D01*
X028841Y021308D02*
X028848Y021308D01*
X028848Y021149D02*
X028814Y021149D01*
X028848Y020991D02*
X028672Y020991D01*
X028114Y021149D02*
X027933Y021149D01*
X028185Y021308D02*
X027579Y021308D01*
X027421Y021466D02*
X028235Y021466D01*
X029142Y020515D02*
X029205Y020515D01*
X029046Y020357D02*
X028984Y020357D01*
X030589Y019406D02*
X040470Y019406D01*
X040629Y019564D02*
X035861Y019564D01*
X035974Y019723D02*
X040787Y019723D01*
X040946Y019881D02*
X035991Y019881D01*
X035918Y020040D02*
X041104Y020040D01*
X041263Y020198D02*
X035471Y020198D01*
X035394Y020357D02*
X041421Y020357D01*
X041580Y020515D02*
X035423Y020515D01*
X035582Y020674D02*
X041738Y020674D01*
X041897Y020832D02*
X035740Y020832D01*
X035899Y020991D02*
X042055Y020991D01*
X042214Y021149D02*
X036057Y021149D01*
X036216Y021308D02*
X042372Y021308D01*
X042531Y021466D02*
X036374Y021466D01*
X036533Y021625D02*
X042689Y021625D01*
X042848Y021783D02*
X042254Y021783D01*
X042262Y021798D02*
X042274Y021844D01*
X042274Y022105D01*
X041581Y022105D01*
X041581Y021687D01*
X042118Y021687D01*
X042164Y021700D01*
X042205Y021723D01*
X042238Y021757D01*
X042262Y021798D01*
X042274Y021942D02*
X043006Y021942D01*
X043165Y022100D02*
X042274Y022100D01*
X042274Y022260D02*
X042274Y022521D01*
X042262Y022567D01*
X042238Y022608D01*
X042205Y022641D01*
X042164Y022665D01*
X042118Y022677D01*
X041581Y022677D01*
X041581Y022260D01*
X041426Y022260D01*
X041426Y022105D01*
X040733Y022105D01*
X040733Y021844D01*
X040746Y021798D01*
X040769Y021757D01*
X040803Y021723D01*
X040844Y021700D01*
X040890Y021687D01*
X041426Y021687D01*
X041426Y022105D01*
X041581Y022105D01*
X041581Y022260D01*
X042274Y022260D01*
X042274Y022417D02*
X043482Y022417D01*
X043640Y022576D02*
X042257Y022576D01*
X041581Y022576D02*
X041426Y022576D01*
X041426Y022677D02*
X040890Y022677D01*
X040844Y022665D01*
X040803Y022641D01*
X040769Y022608D01*
X040746Y022567D01*
X040733Y022521D01*
X040733Y022260D01*
X041426Y022260D01*
X041426Y022677D01*
X041426Y022417D02*
X041581Y022417D01*
X041581Y022259D02*
X043323Y022259D01*
X043799Y022734D02*
X040053Y022734D01*
X040053Y022576D02*
X040751Y022576D01*
X040733Y022417D02*
X040053Y022417D01*
X040053Y022259D02*
X041426Y022259D01*
X041426Y022100D02*
X041581Y022100D01*
X041581Y021942D02*
X041426Y021942D01*
X041426Y021783D02*
X041581Y021783D01*
X040754Y021783D02*
X036691Y021783D01*
X036850Y021942D02*
X040733Y021942D01*
X040733Y022100D02*
X040053Y022100D01*
X040053Y022893D02*
X043957Y022893D01*
X044116Y023051D02*
X040053Y023051D01*
X040053Y023210D02*
X044274Y023210D01*
X044433Y023368D02*
X040053Y023368D01*
X040053Y023527D02*
X040851Y023527D01*
X040773Y023685D02*
X040053Y023685D01*
X040053Y023844D02*
X040773Y023844D01*
X040773Y024002D02*
X040053Y024002D01*
X039981Y024161D02*
X040773Y024161D01*
X040773Y024319D02*
X036389Y024319D01*
X036547Y024161D02*
X037596Y024161D01*
X037523Y024002D02*
X036706Y024002D01*
X036864Y023844D02*
X037523Y023844D01*
X037523Y023685D02*
X037023Y023685D01*
X037143Y023527D02*
X037523Y023527D01*
X037523Y023368D02*
X037333Y023368D01*
X036475Y023554D02*
X036469Y023555D01*
X036237Y023555D01*
X036237Y023128D01*
X036141Y023128D01*
X036141Y023032D01*
X035753Y023032D01*
X035753Y022761D01*
X035766Y022715D01*
X035789Y022674D01*
X035823Y022641D01*
X035864Y022617D01*
X035910Y022605D01*
X036141Y022605D01*
X036141Y023032D01*
X036237Y023032D01*
X036237Y022605D01*
X036469Y022605D01*
X036515Y022617D01*
X036556Y022641D01*
X036589Y022674D01*
X036591Y022677D01*
X036623Y022645D01*
X036672Y022645D01*
X036672Y022514D01*
X035000Y020841D01*
X035000Y020937D01*
X034641Y020937D01*
X034641Y020973D01*
X034605Y020973D01*
X034605Y021352D01*
X034402Y021352D01*
X034357Y021339D01*
X034316Y021316D01*
X034282Y021282D01*
X034266Y021254D01*
X034209Y021312D01*
X033866Y021312D01*
X033241Y021936D01*
X033241Y022020D01*
X033191Y022141D01*
X033099Y022233D01*
X032979Y022283D01*
X032848Y022283D01*
X032727Y022233D01*
X032635Y022141D01*
X032585Y022020D01*
X032585Y021890D01*
X032635Y021769D01*
X032727Y021677D01*
X032848Y021627D01*
X032979Y021627D01*
X033003Y021637D01*
X033565Y021075D01*
X032930Y020440D01*
X032857Y020440D01*
X032752Y020397D01*
X032672Y020316D01*
X032628Y020212D01*
X032628Y020098D01*
X032661Y020020D01*
X032585Y020020D01*
X032585Y020130D01*
X032503Y020212D01*
X031993Y020212D01*
X031913Y020132D01*
X031834Y020212D01*
X031634Y020212D01*
X031691Y020269D01*
X031741Y020390D01*
X031741Y020502D01*
X031854Y020502D01*
X031974Y020552D01*
X032066Y020644D01*
X032116Y020765D01*
X032116Y020877D01*
X032229Y020877D01*
X032349Y020927D01*
X032441Y021019D01*
X032491Y021140D01*
X032491Y021270D01*
X032441Y021391D01*
X032349Y021483D01*
X032229Y021533D01*
X032098Y021533D01*
X031977Y021483D01*
X031885Y021391D01*
X031875Y021367D01*
X030969Y021367D01*
X032397Y022795D01*
X032750Y022795D01*
X033028Y023074D01*
X033028Y022994D01*
X033327Y022695D01*
X033750Y022695D01*
X034048Y022994D01*
X034048Y023416D01*
X033760Y023705D01*
X034048Y023994D01*
X034048Y024416D01*
X033825Y024640D01*
X035389Y024640D01*
X036475Y023554D01*
X036344Y023685D02*
X033780Y023685D01*
X033898Y023844D02*
X036185Y023844D01*
X036027Y024002D02*
X034048Y024002D01*
X034048Y024161D02*
X035868Y024161D01*
X035710Y024319D02*
X034048Y024319D01*
X033987Y024478D02*
X035551Y024478D01*
X035393Y024636D02*
X033829Y024636D01*
X035556Y025112D02*
X053242Y025112D01*
X053199Y024953D02*
X035755Y024953D01*
X035913Y024795D02*
X053157Y024795D01*
X053332Y025270D02*
X000521Y025270D01*
X000521Y025112D02*
X030395Y025112D01*
X030197Y024953D02*
X013958Y024953D01*
X013722Y024953D02*
X013685Y024953D01*
X013685Y024957D02*
X013463Y024957D01*
X013418Y024945D01*
X013377Y024921D01*
X013343Y024887D01*
X013319Y024846D01*
X013307Y024801D01*
X013307Y024598D01*
X013685Y024598D01*
X013685Y024957D01*
X013685Y024795D02*
X013722Y024795D01*
X013722Y024636D02*
X013685Y024636D01*
X013685Y024478D02*
X013722Y024478D01*
X013722Y024319D02*
X013685Y024319D01*
X013318Y024319D02*
X008217Y024319D01*
X008151Y024433D02*
X008334Y024117D01*
X008428Y023763D01*
X008428Y023397D01*
X008334Y023043D01*
X008151Y022727D01*
X007892Y022468D01*
X007575Y022285D01*
X007221Y022190D01*
X006855Y022190D01*
X006502Y022285D01*
X006185Y022468D01*
X005926Y022727D01*
X005743Y023043D01*
X005648Y023397D01*
X005648Y023763D01*
X005743Y024117D01*
X005926Y024433D01*
X006185Y024692D01*
X006502Y024875D01*
X006855Y024970D01*
X007221Y024970D01*
X007575Y024875D01*
X007892Y024692D01*
X008151Y024433D01*
X008107Y024478D02*
X013307Y024478D01*
X013307Y024636D02*
X007948Y024636D01*
X007715Y024795D02*
X013307Y024795D01*
X013449Y024953D02*
X007285Y024953D01*
X006792Y024953D02*
X000521Y024953D01*
X000521Y024795D02*
X006362Y024795D01*
X006129Y024636D02*
X000521Y024636D01*
X000521Y024478D02*
X005970Y024478D01*
X005860Y024319D02*
X000521Y024319D01*
X000521Y024161D02*
X005768Y024161D01*
X005712Y024002D02*
X000521Y024002D01*
X000521Y023844D02*
X005670Y023844D01*
X005648Y023685D02*
X000521Y023685D01*
X000521Y023527D02*
X005648Y023527D01*
X005656Y023368D02*
X000521Y023368D01*
X000521Y023210D02*
X005699Y023210D01*
X005741Y023051D02*
X000521Y023051D01*
X000521Y022893D02*
X005830Y022893D01*
X005922Y022734D02*
X000521Y022734D01*
X000521Y022576D02*
X006077Y022576D01*
X006273Y022417D02*
X000521Y022417D01*
X000521Y022259D02*
X006600Y022259D01*
X007477Y022259D02*
X011573Y022259D01*
X011732Y022417D02*
X007804Y022417D01*
X008000Y022576D02*
X011890Y022576D01*
X012049Y022734D02*
X008155Y022734D01*
X008246Y022893D02*
X012207Y022893D01*
X012154Y023051D02*
X008336Y023051D01*
X008378Y023210D02*
X011984Y023210D01*
X011824Y023368D02*
X008421Y023368D01*
X008428Y023527D02*
X011803Y023527D01*
X011895Y023685D02*
X008428Y023685D01*
X008407Y023844D02*
X012126Y023844D01*
X012294Y024002D02*
X008364Y024002D01*
X008308Y024161D02*
X012553Y024161D01*
X012515Y024002D02*
X012482Y024002D01*
X012890Y024002D02*
X012890Y024002D01*
X012890Y024161D02*
X012890Y024161D01*
X013226Y024161D02*
X014745Y024161D01*
X014852Y024002D02*
X013265Y024002D01*
X013244Y023844D02*
X014852Y023844D01*
X014852Y023685D02*
X013225Y023685D01*
X013225Y023527D02*
X014852Y023527D01*
X014852Y023368D02*
X013225Y023368D01*
X013225Y023210D02*
X014852Y023210D01*
X014852Y023051D02*
X013225Y023051D01*
X013225Y022893D02*
X014852Y022893D01*
X014852Y022734D02*
X013225Y022734D01*
X013219Y022576D02*
X014858Y022576D01*
X014852Y022417D02*
X013225Y022417D01*
X013225Y022259D02*
X014852Y022259D01*
X014852Y022100D02*
X013225Y022100D01*
X013225Y021942D02*
X014852Y021942D01*
X014852Y021783D02*
X013225Y021783D01*
X013225Y021625D02*
X014852Y021625D01*
X014506Y021466D02*
X013421Y021466D01*
X013478Y021308D02*
X014347Y021308D01*
X014189Y021149D02*
X013478Y021149D01*
X013478Y020991D02*
X014030Y020991D01*
X013872Y020832D02*
X013478Y020832D01*
X013478Y020674D02*
X013713Y020674D01*
X013598Y020515D02*
X013478Y020515D01*
X013478Y020357D02*
X013598Y020357D01*
X013598Y020198D02*
X013478Y020198D01*
X013478Y020040D02*
X013598Y020040D01*
X013499Y019247D02*
X013478Y019247D01*
X013478Y019089D02*
X014028Y019089D01*
X014078Y019247D02*
X014098Y019247D01*
X014478Y019247D02*
X014499Y019247D01*
X014478Y019089D02*
X015028Y019089D01*
X015078Y019247D02*
X015098Y019247D01*
X015478Y019247D02*
X015499Y019247D01*
X015478Y019089D02*
X016028Y019089D01*
X016078Y019247D02*
X016098Y019247D01*
X016478Y019247D02*
X016499Y019247D01*
X016478Y019089D02*
X017028Y019089D01*
X017078Y019247D02*
X017098Y019247D01*
X016516Y018930D02*
X016407Y018930D01*
X016358Y018772D02*
X016249Y018772D01*
X016228Y018613D02*
X016348Y018613D01*
X016348Y018455D02*
X016228Y018455D01*
X016127Y018296D02*
X016450Y018296D01*
X015450Y018296D02*
X015127Y018296D01*
X015228Y018455D02*
X015348Y018455D01*
X015348Y018613D02*
X015228Y018613D01*
X015249Y018772D02*
X015358Y018772D01*
X015407Y018930D02*
X015516Y018930D01*
X014516Y018930D02*
X014407Y018930D01*
X014358Y018772D02*
X014249Y018772D01*
X014228Y018613D02*
X014348Y018613D01*
X014348Y018455D02*
X014228Y018455D01*
X014127Y018296D02*
X014450Y018296D01*
X013450Y018296D02*
X013127Y018296D01*
X013228Y018455D02*
X013348Y018455D01*
X013348Y018613D02*
X013228Y018613D01*
X013249Y018772D02*
X013358Y018772D01*
X013407Y018930D02*
X013516Y018930D01*
X013028Y019089D02*
X012478Y019089D01*
X012478Y019247D02*
X012499Y019247D01*
X012516Y018930D02*
X012407Y018930D01*
X012358Y018772D02*
X012249Y018772D01*
X012228Y018613D02*
X012348Y018613D01*
X012348Y018455D02*
X012228Y018455D01*
X012127Y018296D02*
X012450Y018296D01*
X011450Y018296D02*
X011127Y018296D01*
X011228Y018455D02*
X011348Y018455D01*
X011348Y018613D02*
X011228Y018613D01*
X011249Y018772D02*
X011358Y018772D01*
X011407Y018930D02*
X011516Y018930D01*
X011478Y019089D02*
X012028Y019089D01*
X012078Y019247D02*
X012098Y019247D01*
X011499Y019247D02*
X011478Y019247D01*
X011098Y019247D02*
X011078Y019247D01*
X011028Y019089D02*
X010478Y019089D01*
X010478Y019247D02*
X010499Y019247D01*
X010516Y018930D02*
X010407Y018930D01*
X010358Y018772D02*
X010249Y018772D01*
X010228Y018613D02*
X010348Y018613D01*
X010348Y018455D02*
X010228Y018455D01*
X010127Y018296D02*
X010450Y018296D01*
X009450Y018296D02*
X007594Y018296D01*
X007575Y018285D02*
X007892Y018468D01*
X008151Y018727D01*
X008334Y019043D01*
X008428Y019397D01*
X008428Y019763D01*
X008334Y020117D01*
X008151Y020433D01*
X007892Y020692D01*
X007575Y020875D01*
X007221Y020970D01*
X006855Y020970D01*
X006502Y020875D01*
X006185Y020692D01*
X005926Y020433D01*
X005743Y020117D01*
X005648Y019763D01*
X005648Y019397D01*
X005743Y019043D01*
X005926Y018727D01*
X006185Y018468D01*
X006502Y018285D01*
X006855Y018190D01*
X007221Y018190D01*
X007575Y018285D01*
X007869Y018455D02*
X009348Y018455D01*
X009348Y018613D02*
X008037Y018613D01*
X008177Y018772D02*
X009358Y018772D01*
X009516Y018930D02*
X008268Y018930D01*
X008346Y019089D02*
X010028Y019089D01*
X010078Y019247D02*
X010098Y019247D01*
X009499Y019247D02*
X008388Y019247D01*
X008428Y019406D02*
X009348Y019406D01*
X009348Y019564D02*
X008428Y019564D01*
X008428Y019723D02*
X009348Y019723D01*
X009467Y019881D02*
X008397Y019881D01*
X008354Y020040D02*
X009598Y020040D01*
X009598Y020198D02*
X008287Y020198D01*
X008195Y020357D02*
X009671Y020357D01*
X009830Y020515D02*
X008069Y020515D01*
X007911Y020674D02*
X009988Y020674D01*
X010147Y020832D02*
X007650Y020832D01*
X006427Y020832D02*
X000521Y020832D01*
X000521Y020674D02*
X006166Y020674D01*
X006008Y020515D02*
X000521Y020515D01*
X000521Y020357D02*
X005882Y020357D01*
X005790Y020198D02*
X000521Y020198D01*
X000521Y020040D02*
X005722Y020040D01*
X005680Y019881D02*
X000521Y019881D01*
X000521Y019723D02*
X005648Y019723D01*
X005648Y019564D02*
X000521Y019564D01*
X000521Y019406D02*
X005648Y019406D01*
X005689Y019247D02*
X000521Y019247D01*
X000521Y019089D02*
X005731Y019089D01*
X005809Y018930D02*
X000521Y018930D01*
X000521Y018772D02*
X005900Y018772D01*
X006040Y018613D02*
X000521Y018613D01*
X000521Y018455D02*
X006208Y018455D01*
X006482Y018296D02*
X000521Y018296D01*
X000521Y020991D02*
X010305Y020991D01*
X010464Y021149D02*
X000521Y021149D01*
X000521Y021308D02*
X010622Y021308D01*
X010781Y021466D02*
X000521Y021466D01*
X000521Y021625D02*
X010939Y021625D01*
X011098Y021783D02*
X000521Y021783D01*
X000521Y021942D02*
X011256Y021942D01*
X011415Y022100D02*
X000521Y022100D01*
X000521Y025429D02*
X053423Y025429D01*
X053580Y025587D02*
X000521Y025587D01*
X000521Y025746D02*
X053777Y025746D01*
X054109Y025904D02*
X000521Y025904D01*
X000521Y026063D02*
X060798Y026063D01*
X060798Y025904D02*
X054967Y025904D01*
X055300Y025746D02*
X060798Y025746D01*
X060798Y025587D02*
X055497Y025587D01*
X055653Y025429D02*
X060798Y025429D01*
X060798Y025270D02*
X055745Y025270D01*
X055835Y025112D02*
X060798Y025112D01*
X060798Y024953D02*
X055877Y024953D01*
X055920Y024795D02*
X060798Y024795D01*
X060798Y024636D02*
X055928Y024636D01*
X055928Y024478D02*
X060798Y024478D01*
X060798Y024319D02*
X055907Y024319D01*
X055865Y024161D02*
X060798Y024161D01*
X060798Y024002D02*
X055810Y024002D01*
X055718Y023844D02*
X060798Y023844D01*
X060798Y023685D02*
X055609Y023685D01*
X055451Y023527D02*
X060798Y023527D01*
X060798Y023368D02*
X055219Y023368D01*
X054794Y023210D02*
X060798Y023210D01*
X060798Y023051D02*
X051586Y023051D01*
X051728Y022893D02*
X060798Y022893D01*
X060798Y022734D02*
X051728Y022734D01*
X051728Y022576D02*
X060798Y022576D01*
X060798Y022417D02*
X051728Y022417D01*
X051728Y022259D02*
X060798Y022259D01*
X060798Y022100D02*
X051728Y022100D01*
X051728Y021942D02*
X060798Y021942D01*
X060798Y021783D02*
X051728Y021783D01*
X051728Y021625D02*
X060798Y021625D01*
X060798Y021466D02*
X051728Y021466D01*
X051728Y021308D02*
X060798Y021308D01*
X060798Y021149D02*
X051728Y021149D01*
X051728Y020991D02*
X054300Y020991D01*
X054328Y020996D02*
X054190Y020969D01*
X054056Y020928D01*
X053926Y020874D01*
X053802Y020808D01*
X053685Y020730D01*
X053577Y020641D01*
X053477Y020541D01*
X053388Y020433D01*
X053310Y020316D01*
X053244Y020192D01*
X053190Y020062D01*
X053150Y019928D01*
X053122Y019790D01*
X053109Y019660D01*
X054458Y019660D01*
X054458Y019500D01*
X053109Y019500D01*
X053122Y019370D01*
X053150Y019232D01*
X053190Y019098D01*
X053244Y018968D01*
X053310Y018844D01*
X053388Y018727D01*
X053477Y018619D01*
X053577Y018519D01*
X053685Y018430D01*
X053802Y018352D01*
X053926Y018286D01*
X054056Y018232D01*
X054190Y018191D01*
X054328Y018164D01*
X054458Y018151D01*
X054458Y019500D01*
X054618Y019500D01*
X054618Y018151D01*
X054748Y018164D01*
X054886Y018191D01*
X055021Y018232D01*
X055150Y018286D01*
X055274Y018352D01*
X055391Y018430D01*
X055500Y018519D01*
X055599Y018619D01*
X055688Y018727D01*
X055766Y018844D01*
X055833Y018968D01*
X055886Y019098D01*
X055927Y019232D01*
X055955Y019370D01*
X055967Y019500D01*
X054618Y019500D01*
X054618Y019660D01*
X054458Y019660D01*
X054458Y021009D01*
X054328Y020996D01*
X054458Y020991D02*
X054618Y020991D01*
X054618Y021009D02*
X054748Y020996D01*
X054886Y020969D01*
X055021Y020928D01*
X055150Y020874D01*
X055274Y020808D01*
X055391Y020730D01*
X055500Y020641D01*
X055599Y020541D01*
X055688Y020433D01*
X055766Y020316D01*
X055833Y020192D01*
X055886Y020062D01*
X055927Y019928D01*
X055955Y019790D01*
X055967Y019660D01*
X054618Y019660D01*
X054618Y021009D01*
X054777Y020991D02*
X060798Y020991D01*
X060798Y020832D02*
X055229Y020832D01*
X055460Y020674D02*
X060798Y020674D01*
X060798Y020515D02*
X055621Y020515D01*
X055739Y020357D02*
X060798Y020357D01*
X060798Y020198D02*
X055829Y020198D01*
X055893Y020040D02*
X060798Y020040D01*
X060798Y019881D02*
X055936Y019881D01*
X055961Y019723D02*
X060798Y019723D01*
X060798Y019564D02*
X054618Y019564D01*
X054618Y019406D02*
X054458Y019406D01*
X054458Y019564D02*
X051478Y019564D01*
X051478Y019406D02*
X053119Y019406D01*
X053147Y019247D02*
X051328Y019247D01*
X051311Y018930D02*
X053264Y018930D01*
X053194Y019089D02*
X050798Y019089D01*
X050749Y019247D02*
X050728Y019247D01*
X050348Y019247D02*
X050328Y019247D01*
X050348Y019089D02*
X049798Y019089D01*
X049749Y019247D02*
X049640Y019247D01*
X049598Y019406D02*
X049478Y019406D01*
X049478Y019564D02*
X049598Y019564D01*
X049598Y019723D02*
X049478Y019723D01*
X049360Y019881D02*
X049717Y019881D01*
X050229Y020040D02*
X048847Y020040D01*
X048689Y020198D02*
X050348Y020198D01*
X050348Y020357D02*
X048530Y020357D01*
X048372Y020515D02*
X050348Y020515D01*
X050348Y020674D02*
X047963Y020674D01*
X047805Y020832D02*
X050348Y020832D01*
X050348Y020991D02*
X050210Y020991D01*
X050210Y021149D02*
X050348Y021149D01*
X050348Y021308D02*
X050210Y021308D01*
X050210Y021466D02*
X050348Y021466D01*
X050348Y021625D02*
X050063Y021625D01*
X050004Y021783D02*
X050348Y021783D01*
X050348Y021942D02*
X049845Y021942D01*
X049687Y022100D02*
X050348Y022100D01*
X050348Y022259D02*
X050219Y022259D01*
X050234Y022273D02*
X050200Y022239D01*
X050159Y022215D01*
X050113Y022203D01*
X049891Y022203D01*
X049891Y022562D01*
X050269Y022562D01*
X050269Y022359D01*
X050257Y022314D01*
X050234Y022273D01*
X050269Y022417D02*
X050348Y022417D01*
X050274Y022576D02*
X049891Y022576D01*
X049891Y022417D02*
X049855Y022417D01*
X049855Y022259D02*
X049891Y022259D01*
X047662Y022417D02*
X046415Y022417D01*
X046450Y022576D02*
X047662Y022576D01*
X047662Y022734D02*
X046455Y022734D01*
X046455Y022705D02*
X045979Y022705D01*
X045504Y022705D01*
X045979Y022705D01*
X045979Y022705D01*
X045979Y022705D01*
X046455Y022705D01*
X046425Y022893D02*
X047662Y022893D01*
X047662Y023051D02*
X046415Y023051D01*
X046415Y023210D02*
X047662Y023210D01*
X047662Y023368D02*
X046415Y023368D01*
X046415Y023527D02*
X047662Y023527D01*
X047662Y023685D02*
X046415Y023685D01*
X046415Y023844D02*
X047662Y023844D01*
X047662Y024002D02*
X046415Y024002D01*
X046356Y024161D02*
X047721Y024161D01*
X048474Y024161D02*
X053212Y024161D01*
X053267Y024002D02*
X048533Y024002D01*
X050793Y023844D02*
X053358Y023844D01*
X053468Y023685D02*
X050952Y023685D01*
X051110Y023527D02*
X053626Y023527D01*
X053858Y023368D02*
X051269Y023368D01*
X051427Y023210D02*
X054282Y023210D01*
X054458Y020832D02*
X054618Y020832D01*
X054618Y020674D02*
X054458Y020674D01*
X054458Y020515D02*
X054618Y020515D01*
X054618Y020357D02*
X054458Y020357D01*
X054458Y020198D02*
X054618Y020198D01*
X054618Y020040D02*
X054458Y020040D01*
X054458Y019881D02*
X054618Y019881D01*
X054618Y019723D02*
X054458Y019723D01*
X054458Y019247D02*
X054618Y019247D01*
X054618Y019089D02*
X054458Y019089D01*
X054458Y018930D02*
X054618Y018930D01*
X054618Y018772D02*
X054458Y018772D01*
X054458Y018613D02*
X054618Y018613D01*
X054618Y018455D02*
X054458Y018455D01*
X054458Y018296D02*
X054618Y018296D01*
X055170Y018296D02*
X060798Y018296D01*
X060798Y018138D02*
X046615Y018138D01*
X046456Y017979D02*
X060798Y017979D01*
X060798Y017821D02*
X039423Y017821D01*
X039581Y017979D02*
X044371Y017979D01*
X044212Y018138D02*
X039740Y018138D01*
X039898Y018296D02*
X041700Y018296D01*
X041598Y018455D02*
X040057Y018455D01*
X040215Y018613D02*
X041598Y018613D01*
X041608Y018772D02*
X040374Y018772D01*
X040532Y018930D02*
X041766Y018930D01*
X041749Y019247D02*
X040849Y019247D01*
X040691Y019089D02*
X042278Y019089D01*
X042328Y019247D02*
X042348Y019247D01*
X042728Y019247D02*
X042749Y019247D01*
X042728Y019089D02*
X043278Y019089D01*
X043328Y019247D02*
X043348Y019247D01*
X043728Y019247D02*
X043749Y019247D01*
X043728Y019089D02*
X045278Y019089D01*
X045328Y019247D02*
X045348Y019247D01*
X044749Y019247D02*
X044328Y019247D01*
X044478Y019406D02*
X044598Y019406D01*
X044598Y019564D02*
X044478Y019564D01*
X044478Y019723D02*
X044598Y019723D01*
X044717Y019881D02*
X044360Y019881D01*
X044228Y020040D02*
X044848Y020040D01*
X044848Y020198D02*
X044228Y020198D01*
X044228Y020357D02*
X044848Y020357D01*
X044848Y020515D02*
X044228Y020515D01*
X044228Y020674D02*
X044848Y020674D01*
X044848Y020832D02*
X044228Y020832D01*
X044343Y020991D02*
X044848Y020991D01*
X044848Y021149D02*
X044501Y021149D01*
X044660Y021308D02*
X044872Y021308D01*
X044818Y021466D02*
X045031Y021466D01*
X044977Y021625D02*
X045189Y021625D01*
X045135Y021783D02*
X045348Y021783D01*
X045294Y021942D02*
X045544Y021942D01*
X045544Y022100D02*
X045452Y022100D01*
X045232Y022417D02*
X045144Y022417D01*
X045073Y022259D02*
X044986Y022259D01*
X044915Y022100D02*
X044827Y022100D01*
X044756Y021942D02*
X044669Y021942D01*
X044598Y021783D02*
X044510Y021783D01*
X044439Y021625D02*
X044352Y021625D01*
X044281Y021466D02*
X044193Y021466D01*
X044122Y021308D02*
X044035Y021308D01*
X043964Y021149D02*
X043876Y021149D01*
X043960Y021145D02*
X043848Y021034D01*
X043848Y020012D01*
X043728Y019892D01*
X043728Y021001D01*
X045492Y022765D01*
X045504Y022765D01*
X045504Y022705D01*
X045504Y022645D01*
X045460Y022645D01*
X043960Y021145D01*
X043848Y020991D02*
X043728Y020991D01*
X043728Y020832D02*
X043848Y020832D01*
X043848Y020674D02*
X043728Y020674D01*
X043728Y020515D02*
X043848Y020515D01*
X043848Y020357D02*
X043728Y020357D01*
X043728Y020198D02*
X043848Y020198D01*
X043848Y020040D02*
X043728Y020040D01*
X041848Y020040D02*
X041642Y020040D01*
X041717Y019881D02*
X041483Y019881D01*
X041598Y019723D02*
X041325Y019723D01*
X041166Y019564D02*
X041598Y019564D01*
X041598Y019406D02*
X041008Y019406D01*
X040312Y019247D02*
X029891Y019247D01*
X029891Y019089D02*
X040153Y019089D01*
X039995Y018930D02*
X029891Y018930D01*
X029891Y018772D02*
X039836Y018772D01*
X039678Y018613D02*
X029533Y018613D01*
X029569Y018455D02*
X039519Y018455D01*
X039361Y018296D02*
X029191Y018296D01*
X029191Y018287D02*
X029569Y018287D01*
X029569Y018084D01*
X029557Y018039D01*
X029534Y017998D01*
X029500Y017964D01*
X029459Y017940D01*
X029413Y017928D01*
X029191Y017928D01*
X029191Y018287D01*
X029191Y018138D02*
X029155Y018138D01*
X029155Y017979D02*
X029191Y017979D01*
X029515Y017979D02*
X039044Y017979D01*
X039202Y018138D02*
X029569Y018138D01*
X028831Y017979D02*
X028789Y017979D01*
X028063Y017662D02*
X026210Y017662D01*
X026133Y017504D02*
X060798Y017504D01*
X060798Y017662D02*
X039264Y017662D01*
X039073Y017345D02*
X039068Y017345D01*
X038679Y017345D02*
X022643Y017345D01*
X022254Y017345D02*
X022250Y017345D01*
X021861Y017345D02*
X021856Y017345D01*
X021467Y017345D02*
X021462Y017345D01*
X021073Y017345D02*
X021068Y017345D01*
X020651Y018455D02*
X020357Y018455D01*
X020515Y018613D02*
X020615Y018613D01*
X022624Y018772D02*
X023365Y018772D01*
X023373Y018930D02*
X023172Y018930D01*
X023365Y018613D02*
X022669Y018613D01*
X022827Y018455D02*
X023401Y018455D01*
X022986Y018296D02*
X024361Y018296D01*
X024519Y018455D02*
X023963Y018455D01*
X024380Y018613D02*
X024678Y018613D01*
X024539Y018772D02*
X024836Y018772D01*
X024160Y018930D02*
X023991Y018930D01*
X026209Y018930D02*
X027186Y018930D01*
X027807Y018455D02*
X027876Y018455D01*
X027876Y018296D02*
X027648Y018296D01*
X027490Y018138D02*
X027876Y018138D01*
X027876Y017979D02*
X027331Y017979D01*
X027173Y017821D02*
X027904Y017821D01*
X025613Y017504D02*
X025464Y017504D01*
X022702Y020198D02*
X017478Y020198D01*
X017478Y020357D02*
X022543Y020357D01*
X022385Y020515D02*
X017478Y020515D01*
X017478Y020674D02*
X022226Y020674D01*
X021880Y020832D02*
X017478Y020832D01*
X017478Y020991D02*
X021835Y020991D01*
X021868Y021149D02*
X021396Y021149D01*
X020930Y021149D02*
X017478Y021149D01*
X017379Y021308D02*
X020838Y021308D01*
X020844Y021466D02*
X017221Y021466D01*
X017340Y021625D02*
X017062Y021625D01*
X017182Y021783D02*
X016904Y021783D01*
X017023Y021942D02*
X016745Y021942D01*
X016865Y022100D02*
X016587Y022100D01*
X016706Y022259D02*
X016428Y022259D01*
X016548Y022417D02*
X016270Y022417D01*
X016389Y022576D02*
X016111Y022576D01*
X016231Y022734D02*
X015953Y022734D01*
X016072Y022893D02*
X015794Y022893D01*
X016298Y023204D02*
X016298Y023277D01*
X016255Y023381D01*
X016203Y023433D01*
X016459Y023433D01*
X016516Y023491D01*
X016532Y023463D01*
X016566Y023429D01*
X016607Y023406D01*
X016652Y023393D01*
X016855Y023393D01*
X016855Y023772D01*
X016891Y023772D01*
X016891Y023808D01*
X016855Y023808D01*
X016855Y024187D01*
X016652Y024187D01*
X016607Y024174D01*
X016566Y024151D01*
X016532Y024117D01*
X016516Y024089D01*
X016459Y024147D01*
X015949Y024147D01*
X015867Y024065D01*
X015867Y023980D01*
X015528Y023980D01*
X015888Y024340D01*
X017459Y024340D01*
X017385Y024266D01*
X017335Y024145D01*
X017335Y024015D01*
X017385Y023894D01*
X017477Y023802D01*
X017598Y023752D01*
X017710Y023752D01*
X017710Y023640D01*
X017760Y023519D01*
X017852Y023427D01*
X017973Y023377D01*
X018085Y023377D01*
X018085Y023265D01*
X018135Y023144D01*
X018227Y023052D01*
X018348Y023002D01*
X018479Y023002D01*
X018599Y023052D01*
X018687Y023140D01*
X019710Y023140D01*
X020580Y022270D01*
X020085Y022270D01*
X020085Y022605D01*
X020003Y022687D01*
X019493Y022687D01*
X019436Y022629D01*
X019420Y022657D01*
X019386Y022691D01*
X019345Y022714D01*
X019299Y022727D01*
X019097Y022727D01*
X019097Y022348D01*
X019060Y022348D01*
X019060Y022312D01*
X018702Y022312D01*
X018702Y022090D01*
X018714Y022044D01*
X018738Y022003D01*
X018743Y021997D01*
X017505Y021997D01*
X016298Y023204D01*
X016298Y023210D02*
X018108Y023210D01*
X018085Y023368D02*
X016260Y023368D01*
X016855Y023527D02*
X016891Y023527D01*
X016891Y023393D02*
X017094Y023393D01*
X017139Y023406D01*
X017180Y023429D01*
X017214Y023463D01*
X017238Y023504D01*
X017250Y023550D01*
X017250Y023772D01*
X016891Y023772D01*
X016891Y023393D01*
X016891Y023685D02*
X016855Y023685D01*
X016891Y023808D02*
X017250Y023808D01*
X017250Y024030D01*
X017238Y024076D01*
X017214Y024117D01*
X017180Y024151D01*
X017139Y024174D01*
X017094Y024187D01*
X016891Y024187D01*
X016891Y023808D01*
X016891Y023844D02*
X016855Y023844D01*
X016855Y024002D02*
X016891Y024002D01*
X016891Y024161D02*
X016855Y024161D01*
X016583Y024161D02*
X015708Y024161D01*
X015867Y024319D02*
X017438Y024319D01*
X017342Y024161D02*
X017163Y024161D01*
X017250Y024002D02*
X017340Y024002D01*
X017250Y023844D02*
X017436Y023844D01*
X017250Y023685D02*
X017710Y023685D01*
X017757Y023527D02*
X017244Y023527D01*
X016609Y022893D02*
X019957Y022893D01*
X019799Y023051D02*
X018597Y023051D01*
X018229Y023051D02*
X016451Y023051D01*
X016768Y022734D02*
X020116Y022734D01*
X020085Y022576D02*
X020274Y022576D01*
X020433Y022417D02*
X020085Y022417D01*
X019097Y022417D02*
X019060Y022417D01*
X019060Y022348D02*
X019060Y022727D01*
X018858Y022727D01*
X018812Y022714D01*
X018771Y022691D01*
X018738Y022657D01*
X018714Y022616D01*
X018702Y022570D01*
X018702Y022348D01*
X019060Y022348D01*
X019060Y022576D02*
X019097Y022576D01*
X018703Y022576D02*
X016926Y022576D01*
X017085Y022417D02*
X018702Y022417D01*
X018702Y022259D02*
X017243Y022259D01*
X017402Y022100D02*
X018702Y022100D01*
X020677Y023210D02*
X029136Y023210D01*
X029136Y023368D02*
X026463Y023368D01*
X026623Y023527D02*
X028266Y023527D01*
X028257Y023685D02*
X026695Y023685D01*
X026686Y024002D02*
X028258Y024002D01*
X028257Y024001D02*
X028257Y023798D01*
X028635Y023798D01*
X028635Y024157D01*
X028413Y024157D01*
X028368Y024145D01*
X028327Y024121D01*
X028293Y024087D01*
X028269Y024046D01*
X028257Y024001D01*
X028257Y023844D02*
X026183Y023844D01*
X026183Y023685D02*
X026143Y023685D01*
X026143Y023527D02*
X026183Y023527D01*
X026183Y023368D02*
X026143Y023368D01*
X025863Y023368D02*
X025381Y023368D01*
X025581Y023527D02*
X025704Y023527D01*
X024946Y023368D02*
X024381Y023368D01*
X024581Y023527D02*
X024746Y023527D01*
X024671Y023685D02*
X024655Y023685D01*
X024644Y024002D02*
X024683Y024002D01*
X024773Y024161D02*
X024554Y024161D01*
X024315Y024319D02*
X025011Y024319D01*
X025315Y024319D02*
X025912Y024319D01*
X025724Y024161D02*
X025554Y024161D01*
X026374Y024340D02*
X026374Y024340D01*
X026415Y024319D02*
X028660Y024319D01*
X028818Y024161D02*
X026603Y024161D01*
X028635Y024002D02*
X028672Y024002D01*
X028672Y023844D02*
X028635Y023844D01*
X028635Y023685D02*
X028672Y023685D01*
X028672Y023527D02*
X028635Y023527D01*
X029925Y024002D02*
X031028Y024002D01*
X031028Y024161D02*
X030083Y024161D01*
X030242Y024319D02*
X031028Y024319D01*
X031090Y024478D02*
X030400Y024478D01*
X030559Y024636D02*
X031248Y024636D01*
X030038Y024795D02*
X028848Y024795D01*
X029022Y024636D02*
X029880Y024636D01*
X029721Y024478D02*
X029180Y024478D01*
X029339Y024319D02*
X029563Y024319D01*
X032847Y022893D02*
X033130Y022893D01*
X033028Y023051D02*
X033006Y023051D01*
X033288Y022734D02*
X032336Y022734D01*
X032178Y022576D02*
X036672Y022576D01*
X036576Y022417D02*
X032019Y022417D01*
X031861Y022259D02*
X032789Y022259D01*
X032618Y022100D02*
X031702Y022100D01*
X031544Y021942D02*
X032585Y021942D01*
X032629Y021783D02*
X031385Y021783D01*
X031227Y021625D02*
X033015Y021625D01*
X033174Y021466D02*
X032366Y021466D01*
X032476Y021308D02*
X033332Y021308D01*
X033491Y021149D02*
X032491Y021149D01*
X032413Y020991D02*
X033480Y020991D01*
X033322Y020832D02*
X032116Y020832D01*
X032079Y020674D02*
X033163Y020674D01*
X033005Y020515D02*
X031885Y020515D01*
X031728Y020357D02*
X032712Y020357D01*
X032628Y020198D02*
X032516Y020198D01*
X032585Y020040D02*
X032653Y020040D01*
X033174Y020040D02*
X033572Y020040D01*
X033606Y020198D02*
X033225Y020198D01*
X033384Y020357D02*
X034864Y020357D01*
X034864Y020515D02*
X033542Y020515D01*
X034290Y020198D02*
X034787Y020198D01*
X034753Y020040D02*
X034324Y020040D01*
X034324Y019881D02*
X034753Y019881D01*
X034753Y019723D02*
X034324Y019723D01*
X034324Y019564D02*
X034753Y019564D01*
X033572Y019564D02*
X032568Y019564D01*
X031928Y019564D02*
X031899Y019564D01*
X031847Y020198D02*
X031980Y020198D01*
X031960Y021466D02*
X031068Y021466D01*
X033038Y022259D02*
X036417Y022259D01*
X036259Y022100D02*
X033208Y022100D01*
X033241Y021942D02*
X036100Y021942D01*
X035942Y021783D02*
X033394Y021783D01*
X033553Y021625D02*
X035783Y021625D01*
X035625Y021466D02*
X033711Y021466D01*
X034213Y021308D02*
X034308Y021308D01*
X034605Y021308D02*
X034641Y021308D01*
X034641Y021352D02*
X034641Y020973D01*
X035000Y020973D01*
X035000Y021195D01*
X034988Y021241D01*
X034964Y021282D01*
X034930Y021316D01*
X034889Y021339D01*
X034844Y021352D01*
X034641Y021352D01*
X034641Y021149D02*
X034605Y021149D01*
X034605Y020991D02*
X034641Y020991D01*
X034641Y020832D02*
X034605Y020832D01*
X034605Y020674D02*
X034641Y020674D01*
X035000Y020991D02*
X035149Y020991D01*
X035000Y021149D02*
X035308Y021149D01*
X035466Y021308D02*
X034938Y021308D01*
X037008Y022100D02*
X037523Y022100D01*
X037523Y022259D02*
X037186Y022259D01*
X037223Y022417D02*
X037523Y022417D01*
X037523Y022576D02*
X037202Y022576D01*
X037333Y022734D02*
X037523Y022734D01*
X036237Y022734D02*
X036141Y022734D01*
X036141Y022893D02*
X036237Y022893D01*
X036141Y023051D02*
X034048Y023051D01*
X034048Y023210D02*
X035753Y023210D01*
X035753Y023128D02*
X036141Y023128D01*
X036141Y023555D01*
X035910Y023555D01*
X035864Y023543D01*
X035823Y023519D01*
X035789Y023486D01*
X035766Y023445D01*
X035753Y023399D01*
X035753Y023128D01*
X035753Y022893D02*
X033947Y022893D01*
X033789Y022734D02*
X035761Y022734D01*
X036141Y023210D02*
X036237Y023210D01*
X036237Y023368D02*
X036141Y023368D01*
X036141Y023527D02*
X036237Y023527D01*
X035835Y023527D02*
X033938Y023527D01*
X034048Y023368D02*
X035753Y023368D01*
X036230Y024478D02*
X042463Y024478D01*
X042423Y024319D02*
X042234Y024319D01*
X042620Y024636D02*
X036072Y024636D01*
X042156Y023527D02*
X042293Y023527D01*
X042293Y023685D02*
X042234Y023685D01*
X043389Y023685D02*
X043485Y023685D01*
X043485Y023527D02*
X043389Y023527D01*
X043485Y023844D02*
X044908Y023844D01*
X045028Y024002D02*
X043873Y024002D01*
X043873Y024161D02*
X045116Y024161D01*
X045511Y024161D02*
X045603Y024161D01*
X044750Y023685D02*
X043873Y023685D01*
X043871Y023527D02*
X044591Y023527D01*
X045461Y022734D02*
X045504Y022734D01*
X045390Y022576D02*
X045303Y022576D01*
X046753Y022259D02*
X047498Y022259D01*
X047340Y022100D02*
X046912Y022100D01*
X047070Y021942D02*
X047181Y021942D01*
X051728Y020832D02*
X053847Y020832D01*
X053617Y020674D02*
X051728Y020674D01*
X051728Y020515D02*
X053456Y020515D01*
X053337Y020357D02*
X051728Y020357D01*
X051728Y020198D02*
X053247Y020198D01*
X053183Y020040D02*
X051728Y020040D01*
X051608Y019881D02*
X053140Y019881D01*
X053115Y019723D02*
X051478Y019723D01*
X050420Y018930D02*
X050311Y018930D01*
X050469Y018772D02*
X050578Y018772D01*
X050598Y018613D02*
X050478Y018613D01*
X050478Y018455D02*
X050598Y018455D01*
X050700Y018296D02*
X050377Y018296D01*
X049700Y018296D02*
X049377Y018296D01*
X049478Y018455D02*
X049598Y018455D01*
X049598Y018613D02*
X049478Y018613D01*
X049469Y018772D02*
X049578Y018772D01*
X048598Y018613D02*
X048478Y018613D01*
X048478Y018455D02*
X048598Y018455D01*
X048700Y018296D02*
X048377Y018296D01*
X048469Y018772D02*
X048578Y018772D01*
X047766Y018930D02*
X047311Y018930D01*
X047469Y018772D02*
X047608Y018772D01*
X047598Y018613D02*
X047478Y018613D01*
X047478Y018455D02*
X047598Y018455D01*
X047700Y018296D02*
X047377Y018296D01*
X046766Y018930D02*
X046728Y018930D01*
X046728Y019089D02*
X047636Y019089D01*
X047478Y019247D02*
X047328Y019247D01*
X046749Y019247D02*
X046728Y019247D01*
X044766Y018930D02*
X044311Y018930D01*
X044469Y018772D02*
X044608Y018772D01*
X044598Y018613D02*
X044478Y018613D01*
X044478Y018455D02*
X044598Y018455D01*
X044591Y018296D02*
X044700Y018296D01*
X043700Y018296D02*
X043377Y018296D01*
X043478Y018455D02*
X043598Y018455D01*
X043598Y018613D02*
X043478Y018613D01*
X043499Y018772D02*
X043608Y018772D01*
X043657Y018930D02*
X043766Y018930D01*
X042766Y018930D02*
X042657Y018930D01*
X042608Y018772D02*
X042499Y018772D01*
X042478Y018613D02*
X042598Y018613D01*
X042598Y018455D02*
X042478Y018455D01*
X042377Y018296D02*
X042700Y018296D01*
X040643Y017345D02*
X056674Y017345D01*
X058657Y017345D02*
X060798Y017345D01*
X060798Y018455D02*
X055421Y018455D01*
X055594Y018613D02*
X060798Y018613D01*
X060798Y018772D02*
X055718Y018772D01*
X055812Y018930D02*
X060798Y018930D01*
X060798Y019089D02*
X055883Y019089D01*
X055930Y019247D02*
X060798Y019247D01*
X060798Y019406D02*
X055958Y019406D01*
X053907Y018296D02*
X051377Y018296D01*
X051478Y018455D02*
X053656Y018455D01*
X053483Y018613D02*
X051478Y018613D01*
X051469Y018772D02*
X053359Y018772D01*
X051904Y013858D02*
X060798Y013858D01*
X060798Y013700D02*
X052063Y013700D01*
X052221Y013541D02*
X060798Y013541D01*
X060798Y013383D02*
X052228Y013383D01*
X052228Y013224D02*
X060798Y013224D01*
X060798Y013066D02*
X052228Y013066D01*
X052134Y012907D02*
X060798Y012907D01*
X060798Y012749D02*
X051976Y012749D01*
X051317Y012590D02*
X060798Y012590D01*
X060798Y012432D02*
X051228Y012432D01*
X051228Y012273D02*
X060798Y012273D01*
X060798Y012115D02*
X051228Y012115D01*
X051228Y011956D02*
X060798Y011956D01*
X060798Y011798D02*
X051228Y011798D01*
X050848Y011798D02*
X046275Y011798D01*
X046433Y011956D02*
X050848Y011956D01*
X050848Y012115D02*
X046592Y012115D01*
X046750Y012273D02*
X050848Y012273D01*
X050848Y012432D02*
X046909Y012432D01*
X047067Y012590D02*
X050848Y012590D01*
X050848Y012659D02*
X050848Y010001D01*
X050960Y009890D01*
X051098Y009751D01*
X051210Y009640D01*
X051226Y009640D01*
X051165Y009579D01*
X051098Y009418D01*
X051098Y009242D01*
X051154Y009108D01*
X049853Y010409D01*
X049742Y010520D01*
X045936Y010520D01*
X045911Y010579D01*
X045788Y010703D01*
X045626Y010770D01*
X045451Y010770D01*
X045289Y010703D01*
X045228Y010642D01*
X045228Y010751D01*
X045392Y010915D01*
X045451Y010890D01*
X045626Y010890D01*
X045788Y010957D01*
X045911Y011081D01*
X045978Y011242D01*
X045978Y011418D01*
X045954Y011477D01*
X047617Y013140D01*
X051141Y013140D01*
X051165Y013081D01*
X051226Y013020D01*
X051210Y013020D01*
X051098Y012909D01*
X050848Y012659D01*
X050938Y012749D02*
X047226Y012749D01*
X047384Y012907D02*
X051097Y012907D01*
X051181Y013066D02*
X047543Y013066D01*
X046639Y013700D02*
X045967Y013700D01*
X045978Y013541D02*
X046481Y013541D01*
X046322Y013383D02*
X045978Y013383D01*
X045978Y013224D02*
X046164Y013224D01*
X046005Y013066D02*
X045978Y013066D01*
X045688Y012749D02*
X045678Y012749D01*
X045399Y012749D02*
X039226Y012749D01*
X039384Y012907D02*
X043410Y012907D01*
X043667Y012907D02*
X045163Y012907D01*
X045098Y013066D02*
X043896Y013066D01*
X043971Y013224D02*
X045098Y013224D01*
X045098Y013383D02*
X043978Y013383D01*
X043927Y013541D02*
X045098Y013541D01*
X045110Y013700D02*
X043791Y013700D01*
X043181Y013066D02*
X039543Y013066D01*
X039067Y012590D02*
X045176Y012590D01*
X045104Y012432D02*
X038909Y012432D01*
X038750Y012273D02*
X045098Y012273D01*
X045151Y012115D02*
X038592Y012115D01*
X038433Y011956D02*
X045291Y011956D01*
X045958Y011481D02*
X050848Y011481D01*
X050848Y011639D02*
X046116Y011639D01*
X045978Y011322D02*
X050848Y011322D01*
X050848Y011164D02*
X045946Y011164D01*
X045836Y011005D02*
X050848Y011005D01*
X050848Y010847D02*
X045324Y010847D01*
X045274Y010688D02*
X045228Y010688D01*
X044848Y010688D02*
X043803Y010688D01*
X043932Y010530D02*
X044848Y010530D01*
X044848Y010371D02*
X043978Y010371D01*
X043966Y010213D02*
X044848Y010213D01*
X044848Y010054D02*
X044083Y010054D01*
X044242Y009896D02*
X044848Y009896D01*
X044863Y009737D02*
X044400Y009737D01*
X044559Y009579D02*
X045021Y009579D01*
X045099Y009420D02*
X044603Y009420D01*
X044603Y009262D02*
X045098Y009262D01*
X045156Y009103D02*
X044603Y009103D01*
X044603Y008945D02*
X045134Y008945D01*
X044976Y008786D02*
X044603Y008786D01*
X044603Y008628D02*
X044817Y008628D01*
X044659Y008469D02*
X044603Y008469D01*
X043848Y007994D02*
X043824Y007994D01*
X045851Y008640D02*
X045867Y008640D01*
X046117Y008890D01*
X046228Y009001D01*
X046228Y009909D01*
X045997Y010140D01*
X049585Y010140D01*
X051159Y008565D01*
X051098Y008418D01*
X051098Y008242D01*
X051123Y008183D01*
X050960Y008020D01*
X049960Y007020D01*
X049848Y006909D01*
X049848Y005784D01*
X049728Y005664D01*
X049728Y007806D01*
X049816Y007894D01*
X049866Y008015D01*
X049866Y008145D01*
X049816Y008266D01*
X049724Y008358D01*
X049604Y008408D01*
X049473Y008408D01*
X049352Y008358D01*
X049260Y008266D01*
X049210Y008145D01*
X049210Y008015D01*
X049260Y007894D01*
X049348Y007806D01*
X049348Y005659D01*
X049210Y005520D01*
X048856Y005520D01*
X048728Y005392D01*
X048728Y008231D01*
X048816Y008319D01*
X048866Y008440D01*
X048866Y008570D01*
X048816Y008691D01*
X048724Y008783D01*
X048604Y008833D01*
X048473Y008833D01*
X048352Y008783D01*
X048260Y008691D01*
X048210Y008570D01*
X048210Y008440D01*
X048260Y008319D01*
X048348Y008231D01*
X048348Y005392D01*
X048221Y005520D01*
X047856Y005520D01*
X047728Y005392D01*
X047728Y008159D01*
X047367Y008520D01*
X045936Y008520D01*
X045911Y008579D01*
X045851Y008640D01*
X045863Y008628D02*
X048234Y008628D01*
X048210Y008469D02*
X047418Y008469D01*
X047577Y008311D02*
X048269Y008311D01*
X048348Y008152D02*
X047728Y008152D01*
X047728Y007994D02*
X048348Y007994D01*
X048348Y007835D02*
X047728Y007835D01*
X047728Y007677D02*
X048348Y007677D01*
X048348Y007518D02*
X047728Y007518D01*
X047728Y007360D02*
X048348Y007360D01*
X048348Y007201D02*
X047728Y007201D01*
X047728Y007043D02*
X048348Y007043D01*
X048348Y006884D02*
X047728Y006884D01*
X047728Y006726D02*
X048348Y006726D01*
X048348Y006567D02*
X047728Y006567D01*
X047728Y006409D02*
X048348Y006409D01*
X048348Y006250D02*
X047728Y006250D01*
X047728Y006092D02*
X048348Y006092D01*
X048348Y005933D02*
X047728Y005933D01*
X047728Y005775D02*
X048348Y005775D01*
X048348Y005616D02*
X047728Y005616D01*
X047728Y005458D02*
X047794Y005458D01*
X048283Y005458D02*
X048348Y005458D01*
X048728Y005458D02*
X048794Y005458D01*
X048728Y005616D02*
X049306Y005616D01*
X049348Y005775D02*
X048728Y005775D01*
X048728Y005933D02*
X049348Y005933D01*
X049348Y006092D02*
X048728Y006092D01*
X048728Y006250D02*
X049348Y006250D01*
X049348Y006409D02*
X048728Y006409D01*
X048728Y006567D02*
X049348Y006567D01*
X049348Y006726D02*
X048728Y006726D01*
X048728Y006884D02*
X049348Y006884D01*
X049348Y007043D02*
X048728Y007043D01*
X048728Y007201D02*
X049348Y007201D01*
X049348Y007360D02*
X048728Y007360D01*
X048728Y007518D02*
X049348Y007518D01*
X049348Y007677D02*
X048728Y007677D01*
X048728Y007835D02*
X049319Y007835D01*
X049219Y007994D02*
X048728Y007994D01*
X048728Y008152D02*
X049213Y008152D01*
X049305Y008311D02*
X048808Y008311D01*
X048866Y008469D02*
X051120Y008469D01*
X051098Y008311D02*
X049772Y008311D01*
X049864Y008152D02*
X051092Y008152D01*
X050933Y007994D02*
X049858Y007994D01*
X049757Y007835D02*
X050775Y007835D01*
X050616Y007677D02*
X049728Y007677D01*
X049728Y007518D02*
X050458Y007518D01*
X050299Y007360D02*
X049728Y007360D01*
X049728Y007201D02*
X050141Y007201D01*
X049982Y007043D02*
X049728Y007043D01*
X049728Y006884D02*
X049848Y006884D01*
X049848Y006726D02*
X049728Y006726D01*
X049728Y006567D02*
X049848Y006567D01*
X049848Y006409D02*
X049728Y006409D01*
X049728Y006250D02*
X049848Y006250D01*
X049848Y006092D02*
X049728Y006092D01*
X049728Y005933D02*
X049848Y005933D01*
X049839Y005775D02*
X049728Y005775D01*
X050122Y005520D02*
X050210Y005520D01*
X050460Y005770D01*
X051460Y005770D01*
X051580Y005890D01*
X051451Y005890D01*
X051289Y005957D01*
X051165Y006081D01*
X051098Y006242D01*
X051098Y006418D01*
X051165Y006579D01*
X051289Y006703D01*
X051451Y006770D01*
X051626Y006770D01*
X051788Y006703D01*
X051911Y006579D01*
X051978Y006418D01*
X051978Y006289D01*
X052873Y007183D01*
X052848Y007242D01*
X052848Y007418D01*
X052915Y007579D01*
X052976Y007640D01*
X052835Y007640D01*
X052723Y007751D01*
X051923Y008552D01*
X051978Y008418D01*
X051978Y008242D01*
X051911Y008081D01*
X051788Y007957D01*
X051626Y007890D01*
X051451Y007890D01*
X051392Y007915D01*
X051228Y007751D01*
X050228Y006751D01*
X050228Y005626D01*
X050122Y005520D01*
X050218Y005616D02*
X050306Y005616D01*
X050228Y005775D02*
X051464Y005775D01*
X051347Y005933D02*
X050228Y005933D01*
X050228Y006092D02*
X051161Y006092D01*
X051098Y006250D02*
X050228Y006250D01*
X050228Y006409D02*
X051098Y006409D01*
X051160Y006567D02*
X050228Y006567D01*
X050228Y006726D02*
X051343Y006726D01*
X051451Y006890D02*
X051289Y006957D01*
X051165Y007081D01*
X051098Y007242D01*
X051098Y007418D01*
X051165Y007579D01*
X051289Y007703D01*
X051451Y007770D01*
X051626Y007770D01*
X051788Y007703D01*
X051911Y007579D01*
X051978Y007418D01*
X051978Y007242D01*
X051911Y007081D01*
X051788Y006957D01*
X051626Y006890D01*
X051451Y006890D01*
X051204Y007043D02*
X050520Y007043D01*
X050678Y007201D02*
X051115Y007201D01*
X051098Y007360D02*
X050837Y007360D01*
X050995Y007518D02*
X051140Y007518D01*
X051154Y007677D02*
X051263Y007677D01*
X051312Y007835D02*
X052640Y007835D01*
X052798Y007677D02*
X051814Y007677D01*
X051937Y007518D02*
X052890Y007518D01*
X052848Y007360D02*
X051978Y007360D01*
X051961Y007201D02*
X052865Y007201D01*
X052732Y007043D02*
X051873Y007043D01*
X051733Y006726D02*
X052415Y006726D01*
X052574Y006884D02*
X050361Y006884D01*
X051916Y006567D02*
X052257Y006567D01*
X052098Y006409D02*
X051978Y006409D01*
X052477Y006250D02*
X052848Y006250D01*
X052848Y006242D02*
X052915Y006081D01*
X052976Y006020D01*
X052710Y006020D01*
X051210Y004520D01*
X050856Y004520D01*
X050728Y004392D01*
X050728Y004501D01*
X050867Y004640D01*
X051221Y004640D01*
X051478Y004898D01*
X051478Y005262D01*
X051351Y005390D01*
X051617Y005390D01*
X053142Y006915D01*
X053201Y006890D01*
X053376Y006890D01*
X053538Y006957D01*
X053661Y007081D01*
X053686Y007140D01*
X055891Y007140D01*
X055915Y007081D01*
X056030Y006966D01*
X055973Y006909D01*
X055085Y006020D01*
X053601Y006020D01*
X053661Y006081D01*
X053728Y006242D01*
X053728Y006418D01*
X053661Y006579D01*
X053538Y006703D01*
X053376Y006770D01*
X053201Y006770D01*
X053039Y006703D01*
X052915Y006579D01*
X052848Y006418D01*
X052848Y006242D01*
X052911Y006092D02*
X052319Y006092D01*
X052160Y005933D02*
X052623Y005933D01*
X052464Y005775D02*
X052002Y005775D01*
X051843Y005616D02*
X052306Y005616D01*
X052147Y005458D02*
X051685Y005458D01*
X051442Y005299D02*
X051989Y005299D01*
X051830Y005141D02*
X051478Y005141D01*
X051478Y004982D02*
X051672Y004982D01*
X051513Y004824D02*
X051404Y004824D01*
X051355Y004665D02*
X051246Y004665D01*
X050843Y004507D02*
X050734Y004507D01*
X051478Y004251D02*
X052085Y004858D01*
X052085Y004765D01*
X052135Y004644D01*
X052227Y004552D01*
X052348Y004502D01*
X052479Y004502D01*
X052599Y004552D01*
X052687Y004640D01*
X058117Y004640D01*
X058228Y004751D01*
X058492Y005015D01*
X058603Y005126D01*
X058603Y007534D01*
X057954Y008183D01*
X057978Y008242D01*
X057978Y008418D01*
X057911Y008579D01*
X057851Y008640D01*
X059210Y008640D01*
X059848Y008001D01*
X059848Y006751D01*
X060123Y006477D01*
X060098Y006418D01*
X060098Y006242D01*
X060165Y006081D01*
X060289Y005957D01*
X060451Y005890D01*
X060626Y005890D01*
X060788Y005957D01*
X060798Y005967D01*
X060798Y005693D01*
X060788Y005703D01*
X060626Y005770D01*
X060451Y005770D01*
X060289Y005703D01*
X060165Y005579D01*
X060098Y005418D01*
X060098Y005242D01*
X060165Y005081D01*
X060289Y004957D01*
X060451Y004890D01*
X060626Y004890D01*
X060788Y004957D01*
X060798Y004967D01*
X060798Y003312D01*
X050415Y003312D01*
X050617Y003515D01*
X050728Y003626D01*
X050728Y003768D01*
X050856Y003640D01*
X051221Y003640D01*
X051478Y003898D01*
X051478Y004251D01*
X051478Y004190D02*
X060798Y004190D01*
X060798Y004348D02*
X051575Y004348D01*
X051734Y004507D02*
X052337Y004507D01*
X052490Y004507D02*
X060798Y004507D01*
X060798Y004665D02*
X058142Y004665D01*
X058228Y004751D02*
X058228Y004751D01*
X058301Y004824D02*
X060798Y004824D01*
X060264Y004982D02*
X058459Y004982D01*
X058603Y005141D02*
X060141Y005141D01*
X060098Y005299D02*
X058603Y005299D01*
X058603Y005458D02*
X060115Y005458D01*
X060202Y005616D02*
X058603Y005616D01*
X058603Y005775D02*
X060798Y005775D01*
X060798Y005933D02*
X060730Y005933D01*
X060347Y005933D02*
X058603Y005933D01*
X058603Y006092D02*
X060161Y006092D01*
X060098Y006250D02*
X058603Y006250D01*
X058603Y006409D02*
X060098Y006409D01*
X060033Y006567D02*
X058603Y006567D01*
X058603Y006726D02*
X059874Y006726D01*
X059848Y006884D02*
X058603Y006884D01*
X058603Y007043D02*
X059848Y007043D01*
X059848Y007201D02*
X058603Y007201D01*
X058603Y007360D02*
X059848Y007360D01*
X059848Y007518D02*
X058603Y007518D01*
X058461Y007677D02*
X059848Y007677D01*
X059848Y007835D02*
X058302Y007835D01*
X058144Y007994D02*
X059848Y007994D01*
X059698Y008152D02*
X057985Y008152D01*
X057978Y008311D02*
X059539Y008311D01*
X059381Y008469D02*
X057957Y008469D01*
X057863Y008628D02*
X059222Y008628D01*
X059876Y009262D02*
X060098Y009262D01*
X060099Y009420D02*
X059717Y009420D01*
X059559Y009579D02*
X060165Y009579D01*
X060371Y009737D02*
X059400Y009737D01*
X059242Y009896D02*
X060798Y009896D01*
X060798Y010054D02*
X052583Y010054D01*
X052478Y010213D02*
X060798Y010213D01*
X060798Y010371D02*
X052478Y010371D01*
X052478Y010530D02*
X060798Y010530D01*
X060798Y010688D02*
X052478Y010688D01*
X052478Y010847D02*
X060798Y010847D01*
X060798Y011005D02*
X052478Y011005D01*
X052474Y011164D02*
X060798Y011164D01*
X060798Y011322D02*
X052315Y011322D01*
X052157Y011481D02*
X060798Y011481D01*
X060798Y011639D02*
X051852Y011639D01*
X051936Y011140D02*
X051960Y011140D01*
X052098Y011001D01*
X052098Y010001D01*
X052210Y009890D01*
X052460Y009640D01*
X052848Y009640D01*
X052848Y009314D01*
X052816Y009391D01*
X052724Y009483D01*
X052604Y009533D01*
X052473Y009533D01*
X052352Y009483D01*
X052260Y009391D01*
X052228Y009314D01*
X052228Y009659D01*
X052117Y009770D01*
X051867Y010020D01*
X051851Y010020D01*
X051911Y010081D01*
X051978Y010242D01*
X051978Y010418D01*
X051911Y010579D01*
X051788Y010703D01*
X051626Y010770D01*
X051451Y010770D01*
X051289Y010703D01*
X051228Y010642D01*
X051228Y011018D01*
X051289Y010957D01*
X051451Y010890D01*
X051626Y010890D01*
X051788Y010957D01*
X051911Y011081D01*
X051936Y011140D01*
X051836Y011005D02*
X052095Y011005D01*
X052098Y010847D02*
X051228Y010847D01*
X051228Y011005D02*
X051241Y011005D01*
X051228Y010688D02*
X051274Y010688D01*
X050848Y010688D02*
X045803Y010688D01*
X045932Y010530D02*
X050848Y010530D01*
X050848Y010371D02*
X049891Y010371D01*
X050050Y010213D02*
X050848Y010213D01*
X050848Y010054D02*
X050208Y010054D01*
X050367Y009896D02*
X050954Y009896D01*
X050960Y009890D02*
X050960Y009890D01*
X051113Y009737D02*
X050525Y009737D01*
X050684Y009579D02*
X051165Y009579D01*
X051099Y009420D02*
X050842Y009420D01*
X051001Y009262D02*
X051098Y009262D01*
X050780Y008945D02*
X046172Y008945D01*
X046228Y009103D02*
X050622Y009103D01*
X050463Y009262D02*
X046228Y009262D01*
X046228Y009420D02*
X050305Y009420D01*
X050146Y009579D02*
X046228Y009579D01*
X046228Y009737D02*
X049988Y009737D01*
X049829Y009896D02*
X046228Y009896D01*
X046083Y010054D02*
X049671Y010054D01*
X051885Y010054D02*
X052098Y010054D01*
X052098Y010213D02*
X051966Y010213D01*
X051978Y010371D02*
X052098Y010371D01*
X052098Y010530D02*
X051932Y010530D01*
X051803Y010688D02*
X052098Y010688D01*
X051992Y009896D02*
X052204Y009896D01*
X052150Y009737D02*
X052363Y009737D01*
X052228Y009579D02*
X052848Y009579D01*
X052848Y009420D02*
X052787Y009420D01*
X052289Y009420D02*
X052228Y009420D01*
X050939Y008786D02*
X048717Y008786D01*
X048843Y008628D02*
X051097Y008628D01*
X051957Y008469D02*
X052006Y008469D01*
X051978Y008311D02*
X052164Y008311D01*
X052323Y008152D02*
X051941Y008152D01*
X051824Y007994D02*
X052481Y007994D01*
X053601Y008020D02*
X053661Y008081D01*
X053728Y008242D01*
X053728Y008418D01*
X053661Y008579D01*
X053601Y008640D01*
X055976Y008640D01*
X055915Y008579D01*
X055848Y008418D01*
X055848Y008242D01*
X055915Y008081D01*
X055976Y008020D01*
X053601Y008020D01*
X053691Y008152D02*
X055886Y008152D01*
X055848Y008311D02*
X053728Y008311D01*
X053707Y008469D02*
X055870Y008469D01*
X055964Y008628D02*
X053613Y008628D01*
X053623Y007043D02*
X055954Y007043D01*
X055949Y006884D02*
X053111Y006884D01*
X053093Y006726D02*
X052953Y006726D01*
X052910Y006567D02*
X052794Y006567D01*
X052848Y006409D02*
X052636Y006409D01*
X053483Y006726D02*
X055790Y006726D01*
X055632Y006567D02*
X053666Y006567D01*
X053728Y006409D02*
X055473Y006409D01*
X055315Y006250D02*
X053728Y006250D01*
X053666Y006092D02*
X055156Y006092D01*
X055377Y005775D02*
X058223Y005775D01*
X058223Y005933D02*
X057730Y005933D01*
X057788Y005957D02*
X057911Y006081D01*
X057978Y006242D01*
X057978Y006418D01*
X057954Y006477D01*
X058223Y006746D01*
X058223Y005284D01*
X057960Y005020D01*
X057851Y005020D01*
X057911Y005081D01*
X057978Y005242D01*
X057978Y005418D01*
X057911Y005579D01*
X057788Y005703D01*
X057626Y005770D01*
X057451Y005770D01*
X057289Y005703D01*
X057165Y005579D01*
X057098Y005418D01*
X057098Y005242D01*
X057165Y005081D01*
X057226Y005020D01*
X056601Y005020D01*
X056661Y005081D01*
X056728Y005242D01*
X056728Y005418D01*
X056661Y005579D01*
X056538Y005703D01*
X056376Y005770D01*
X056201Y005770D01*
X056039Y005703D01*
X055915Y005579D01*
X055848Y005418D01*
X055848Y005242D01*
X055915Y005081D01*
X055976Y005020D01*
X053601Y005020D01*
X053661Y005081D01*
X053728Y005242D01*
X053728Y005418D01*
X053661Y005579D01*
X053601Y005640D01*
X055242Y005640D01*
X055848Y006246D01*
X055848Y006242D01*
X055915Y006081D01*
X056039Y005957D01*
X056201Y005890D01*
X056376Y005890D01*
X056538Y005957D01*
X056661Y006081D01*
X056728Y006242D01*
X056728Y006418D01*
X056661Y006579D01*
X056601Y006640D01*
X057117Y006640D01*
X057392Y006915D01*
X057451Y006890D01*
X057626Y006890D01*
X057788Y006957D01*
X057848Y007018D01*
X057848Y006909D01*
X057685Y006745D01*
X057626Y006770D01*
X057451Y006770D01*
X057289Y006703D01*
X057165Y006579D01*
X057098Y006418D01*
X057098Y006242D01*
X057165Y006081D01*
X057289Y005957D01*
X057451Y005890D01*
X057626Y005890D01*
X057788Y005957D01*
X057916Y006092D02*
X058223Y006092D01*
X058223Y006250D02*
X057978Y006250D01*
X057978Y006409D02*
X058223Y006409D01*
X058223Y006567D02*
X058044Y006567D01*
X058203Y006726D02*
X058223Y006726D01*
X057824Y006884D02*
X057361Y006884D01*
X057343Y006726D02*
X057203Y006726D01*
X057160Y006567D02*
X056666Y006567D01*
X056728Y006409D02*
X057098Y006409D01*
X057098Y006250D02*
X056728Y006250D01*
X056666Y006092D02*
X057161Y006092D01*
X057347Y005933D02*
X056480Y005933D01*
X056625Y005616D02*
X057202Y005616D01*
X057115Y005458D02*
X056712Y005458D01*
X056728Y005299D02*
X057098Y005299D01*
X057141Y005141D02*
X056686Y005141D01*
X055891Y005141D02*
X053686Y005141D01*
X053728Y005299D02*
X055848Y005299D01*
X055865Y005458D02*
X053712Y005458D01*
X053625Y005616D02*
X055952Y005616D01*
X056097Y005933D02*
X055535Y005933D01*
X055694Y006092D02*
X055911Y006092D01*
X057875Y005616D02*
X058223Y005616D01*
X058223Y005458D02*
X057962Y005458D01*
X057978Y005299D02*
X058223Y005299D01*
X058080Y005141D02*
X057936Y005141D01*
X060798Y004031D02*
X051478Y004031D01*
X051453Y003873D02*
X060798Y003873D01*
X060798Y003714D02*
X051295Y003714D01*
X050782Y003714D02*
X050728Y003714D01*
X050658Y003556D02*
X060798Y003556D01*
X060798Y003397D02*
X050499Y003397D01*
X051892Y004665D02*
X052127Y004665D01*
X052085Y004824D02*
X052051Y004824D01*
X048359Y008786D02*
X046013Y008786D01*
X060034Y009103D02*
X060156Y009103D01*
X060193Y008945D02*
X060319Y008945D01*
X060351Y008786D02*
X060798Y008786D01*
X060798Y008945D02*
X060757Y008945D01*
X060705Y009737D02*
X060798Y009737D01*
X040254Y017345D02*
X040250Y017345D01*
X039861Y017345D02*
X039856Y017345D01*
X039467Y017345D02*
X039462Y017345D01*
X041800Y020198D02*
X041848Y020198D01*
X023946Y023368D02*
X023381Y023368D01*
X023581Y023527D02*
X023746Y023527D01*
X023671Y023685D02*
X023655Y023685D01*
X023644Y024002D02*
X023683Y024002D01*
X023773Y024161D02*
X023554Y024161D01*
X023315Y024319D02*
X024011Y024319D01*
X023011Y024319D02*
X022315Y024319D01*
X022554Y024161D02*
X022773Y024161D01*
X022683Y024002D02*
X022644Y024002D01*
X022655Y023685D02*
X022671Y023685D01*
X022746Y023527D02*
X022581Y023527D01*
X022381Y023368D02*
X022946Y023368D01*
X021946Y023368D02*
X021639Y023368D01*
X021673Y023527D02*
X021746Y023527D01*
X020687Y023368D02*
X020519Y023368D01*
X020653Y023527D02*
X020360Y023527D01*
X020202Y023685D02*
X020653Y023685D01*
X020653Y023844D02*
X020043Y023844D01*
X019885Y024002D02*
X020653Y024002D01*
X020653Y024161D02*
X019726Y024161D01*
X020714Y024319D02*
X017888Y024319D01*
X015867Y024002D02*
X015550Y024002D01*
X015188Y024319D02*
X015124Y024319D01*
X014966Y024478D02*
X015346Y024478D01*
X015505Y024636D02*
X014807Y024636D01*
X014729Y024795D02*
X015679Y024795D01*
X021612Y024319D02*
X022011Y024319D01*
X021773Y024161D02*
X021673Y024161D01*
X021673Y024002D02*
X021683Y024002D01*
X013098Y019247D02*
X013078Y019247D01*
D33*
X015196Y023987D02*
X015788Y024580D01*
X028738Y024580D01*
X029338Y023980D01*
X029338Y023795D01*
X029413Y023830D02*
X030463Y024880D01*
X034488Y024880D01*
X035488Y024880D01*
X036913Y023455D01*
X036913Y023104D01*
X048097Y022705D02*
X049079Y022705D01*
X049163Y022580D02*
X049204Y022580D01*
X049163Y022580D02*
X048788Y022205D01*
X048788Y021955D01*
D34*
X036937Y023080D02*
X036913Y023104D01*
M02*
