G75*
%MOIN*%
%OFA0B0*%
%FSLAX24Y24*%
%IPPOS*%
%LPD*%
%AMOC8*
5,1,8,0,0,1.08239X$1,22.5*
%
%ADD10R,0.0472X0.0472*%
%ADD11C,0.0472*%
%ADD12OC8,0.0600*%
%ADD13R,0.0740X0.0740*%
%ADD14C,0.0740*%
%ADD15OC8,0.0740*%
%ADD16C,0.2500*%
%ADD17R,0.0630X0.0710*%
%ADD18C,0.0290*%
%ADD19C,0.0376*%
%ADD20C,0.0100*%
%ADD21C,0.0160*%
%ADD22C,0.0250*%
%ADD23C,0.0200*%
D10*
X021538Y013580D03*
X014288Y014080D03*
X007538Y014080D03*
X001038Y014080D03*
X029538Y013580D03*
X037538Y013580D03*
X045538Y013580D03*
X053288Y009330D03*
X057538Y009330D03*
D11*
X056288Y009330D03*
X056288Y008330D03*
X057538Y008330D03*
X057538Y007330D03*
X056288Y007330D03*
X056288Y006330D03*
X057538Y006330D03*
X057538Y005330D03*
X056288Y005330D03*
X053288Y005330D03*
X053288Y006330D03*
X051538Y006580D03*
X053288Y007330D03*
X051538Y007580D03*
X053288Y008330D03*
X051538Y008580D03*
X051538Y009580D03*
X051538Y010580D03*
X051538Y011580D03*
X051538Y012580D03*
X051538Y013580D03*
X045538Y012580D03*
X043538Y012580D03*
X043538Y011580D03*
X045538Y011580D03*
X045538Y010580D03*
X045538Y009580D03*
X043538Y009580D03*
X043538Y010580D03*
X043538Y008580D03*
X045538Y008580D03*
X045538Y007580D03*
X043538Y007580D03*
X043538Y006580D03*
X045538Y006580D03*
X037538Y006580D03*
X035538Y006580D03*
X035538Y007580D03*
X037538Y007580D03*
X037538Y008580D03*
X035538Y008580D03*
X035538Y009580D03*
X035538Y010580D03*
X037538Y010580D03*
X037538Y009580D03*
X037538Y011580D03*
X035538Y011580D03*
X035538Y012580D03*
X037538Y012580D03*
X035538Y013580D03*
X029538Y012580D03*
X029538Y011580D03*
X029538Y010580D03*
X029538Y009580D03*
X029538Y008580D03*
X029538Y007580D03*
X029538Y006580D03*
X027538Y006580D03*
X027538Y007580D03*
X027538Y008580D03*
X027538Y009580D03*
X027538Y010580D03*
X027538Y011580D03*
X027538Y012580D03*
X027538Y013580D03*
X021538Y012580D03*
X021538Y011580D03*
X021538Y010580D03*
X021538Y009580D03*
X021538Y008580D03*
X021538Y007580D03*
X021538Y006580D03*
X019288Y006080D03*
X019288Y007080D03*
X019288Y008080D03*
X019288Y009080D03*
X019288Y010080D03*
X019288Y011080D03*
X019288Y012080D03*
X019288Y013080D03*
X019288Y014080D03*
X014288Y013080D03*
X012538Y013080D03*
X012538Y012080D03*
X014288Y012080D03*
X014288Y011080D03*
X012538Y011080D03*
X012538Y010080D03*
X014288Y010080D03*
X014288Y009080D03*
X012538Y009080D03*
X012538Y008080D03*
X014288Y008080D03*
X014288Y007080D03*
X012538Y007080D03*
X012538Y006080D03*
X014288Y006080D03*
X007538Y006080D03*
X006038Y006080D03*
X006038Y007080D03*
X007538Y007080D03*
X007538Y008080D03*
X006038Y008080D03*
X006038Y009080D03*
X007538Y009080D03*
X007538Y010080D03*
X007538Y011080D03*
X006038Y011080D03*
X006038Y010080D03*
X006038Y012080D03*
X007538Y012080D03*
X007538Y013080D03*
X006038Y013080D03*
X006038Y014080D03*
X001038Y013080D03*
X001038Y012080D03*
X001038Y011080D03*
X001038Y010080D03*
X001038Y009080D03*
X001038Y008080D03*
X001038Y007080D03*
X001038Y006080D03*
X012538Y014080D03*
X043538Y013580D03*
X060538Y009330D03*
X060538Y008330D03*
X060538Y007330D03*
X060538Y006330D03*
X060538Y005330D03*
D12*
X051538Y005080D03*
X050538Y005080D03*
X049538Y005080D03*
X048538Y005080D03*
X047538Y005080D03*
X046538Y005080D03*
X045538Y005080D03*
X044538Y005080D03*
X043538Y005080D03*
X042538Y005080D03*
X042538Y004080D03*
X043538Y004080D03*
X044538Y004080D03*
X045538Y004080D03*
X046538Y004080D03*
X047538Y004080D03*
X048538Y004080D03*
X049538Y004080D03*
X050538Y004080D03*
X051538Y004080D03*
X018788Y004080D03*
X017788Y004080D03*
X016788Y004080D03*
X015788Y004080D03*
X014788Y004080D03*
X013788Y004080D03*
X012788Y004080D03*
X011788Y004080D03*
X010788Y004080D03*
X009788Y004080D03*
X009788Y005080D03*
X010788Y005080D03*
X011788Y005080D03*
X012788Y005080D03*
X013788Y005080D03*
X014788Y005080D03*
X015788Y005080D03*
X016788Y005080D03*
X017788Y005080D03*
X018788Y005080D03*
X018788Y018580D03*
X017788Y018580D03*
X016788Y018580D03*
X015788Y018580D03*
X014788Y018580D03*
X013788Y018580D03*
X012788Y018580D03*
X011788Y018580D03*
X010788Y018580D03*
X009788Y018580D03*
X009788Y019580D03*
X010788Y019580D03*
X011788Y019580D03*
X012788Y019580D03*
X013788Y019580D03*
X014788Y019580D03*
X015788Y019580D03*
X016788Y019580D03*
X017788Y019580D03*
X018788Y019580D03*
X042538Y019580D03*
X043538Y019580D03*
X044538Y019580D03*
X045538Y019580D03*
X046538Y019580D03*
X047538Y019580D03*
X048538Y019580D03*
X049538Y019580D03*
X050538Y019580D03*
X051538Y019580D03*
X051538Y018580D03*
X050538Y018580D03*
X049538Y018580D03*
X048538Y018580D03*
X047538Y018580D03*
X046538Y018580D03*
X045538Y018580D03*
X044538Y018580D03*
X043538Y018580D03*
X042538Y018580D03*
D13*
X021163Y023830D03*
D14*
X022163Y023830D03*
X023163Y023830D03*
X024163Y023830D03*
X025163Y023830D03*
X026163Y023830D03*
D15*
X031538Y024205D03*
X032538Y024305D03*
X033538Y024205D03*
X033538Y023205D03*
X032538Y023305D03*
X031538Y023205D03*
D16*
X054538Y024580D03*
X054538Y019580D03*
X007038Y019580D03*
X007038Y023580D03*
D17*
X033978Y019830D03*
X035098Y019830D03*
D18*
X032913Y020155D03*
X036938Y022405D03*
X045313Y023955D03*
X048713Y021455D03*
X016013Y023220D03*
X015688Y023478D03*
X012388Y023733D03*
X012088Y023475D03*
X012388Y023220D03*
D19*
X017663Y024080D03*
X018038Y023705D03*
X018413Y023330D03*
X021163Y021380D03*
X022163Y021005D03*
X023163Y021005D03*
X024388Y020530D03*
X026163Y020862D03*
X026163Y021330D03*
X027663Y021455D03*
X027663Y020955D03*
X028688Y021455D03*
X029663Y021455D03*
X031413Y020455D03*
X031788Y020830D03*
X032163Y021205D03*
X032913Y021955D03*
X031063Y020105D03*
X028688Y019730D03*
X035663Y019830D03*
X037538Y019805D03*
X030038Y023830D03*
X048788Y021955D03*
X048538Y012580D03*
X048538Y011330D03*
X051913Y011080D03*
X052163Y012580D03*
X054788Y009330D03*
X054788Y008330D03*
X052038Y008080D03*
X050538Y007455D03*
X050038Y008330D03*
X049538Y008630D03*
X049538Y009205D03*
X048538Y008705D03*
X047913Y007455D03*
X047913Y005830D03*
X049038Y005830D03*
X050413Y005830D03*
X054788Y006330D03*
X054788Y005205D03*
X058088Y005455D03*
X059038Y005330D03*
X059038Y006580D03*
X059038Y008330D03*
X042538Y005830D03*
X041163Y005705D03*
X041163Y007455D03*
X041163Y008705D03*
X041163Y010830D03*
X041163Y011580D03*
X041163Y012580D03*
X032538Y011580D03*
X032538Y010830D03*
X032538Y008830D03*
X029038Y005705D03*
X032538Y005455D03*
X036913Y005830D03*
X024538Y009205D03*
X024538Y011580D03*
X018538Y011330D03*
X016788Y011330D03*
X017288Y010205D03*
X016288Y008955D03*
X017663Y007830D03*
X010288Y008080D03*
X010288Y007080D03*
X010288Y009080D03*
X010288Y010080D03*
X010288Y011080D03*
X010288Y012080D03*
X010288Y013205D03*
X016788Y013205D03*
D20*
X018913Y012705D02*
X012913Y012705D01*
X012538Y013080D01*
X012163Y012705D01*
X006413Y012705D01*
X006038Y013080D01*
X007038Y013580D02*
X007538Y013080D01*
X008038Y013580D01*
X013788Y013580D01*
X014288Y013080D01*
X014038Y013580D02*
X013663Y013955D01*
X013538Y014080D01*
X012538Y014080D01*
X013663Y014705D02*
X008163Y014705D01*
X007538Y014080D01*
X006913Y014705D01*
X001663Y014705D01*
X001038Y014080D01*
X001538Y013580D02*
X007038Y013580D01*
X006413Y012455D02*
X006038Y012080D01*
X006413Y012455D02*
X012163Y012455D01*
X012538Y012080D01*
X012913Y012455D01*
X018913Y012455D01*
X019288Y012080D01*
X018913Y012705D02*
X019288Y013080D01*
X019788Y013205D02*
X019413Y013580D01*
X014038Y013580D01*
X014288Y014080D02*
X013663Y014705D01*
X019288Y014080D02*
X020038Y013330D01*
X020038Y005330D01*
X018788Y004080D01*
X018788Y005080D02*
X018913Y005080D01*
X019788Y005955D01*
X019788Y013205D01*
X021038Y012705D02*
X021038Y012080D01*
X021538Y011580D01*
X021038Y011080D01*
X021038Y010080D01*
X021538Y009580D01*
X021538Y010580D02*
X022163Y011205D01*
X028913Y011205D01*
X029538Y010580D01*
X030163Y011205D01*
X036913Y011205D01*
X037538Y010580D01*
X038163Y011205D01*
X044913Y011205D01*
X045538Y010580D01*
X043913Y010205D02*
X043538Y010580D01*
X043163Y010205D01*
X035913Y010205D01*
X035538Y010580D01*
X035163Y010205D01*
X027913Y010205D01*
X027538Y010580D01*
X027913Y009955D02*
X027538Y009580D01*
X027913Y009955D02*
X035163Y009955D01*
X035413Y009705D01*
X035538Y009580D01*
X035913Y009955D01*
X043163Y009955D01*
X043538Y009580D01*
X043913Y009955D01*
X051163Y009955D01*
X051538Y009580D01*
X051163Y010205D02*
X043913Y010205D01*
X045538Y009580D02*
X050538Y009580D01*
X051538Y008580D01*
X051163Y007955D02*
X051538Y007580D01*
X051538Y007330D01*
X052788Y006080D01*
X052788Y005830D01*
X053288Y005330D01*
X053663Y005705D01*
X057163Y005705D01*
X057538Y005330D01*
X056663Y004955D02*
X056288Y005330D01*
X055788Y004830D01*
X053038Y004830D01*
X052663Y005205D01*
X052663Y005455D01*
X051538Y006580D01*
X051163Y006955D01*
X043913Y006955D01*
X043538Y006580D01*
X044038Y006080D01*
X044038Y004580D01*
X044288Y004330D01*
X044538Y004080D01*
X046788Y003580D02*
X039163Y003580D01*
X036913Y005830D01*
X035913Y006955D02*
X035538Y006580D01*
X035163Y006955D01*
X027913Y006955D01*
X027538Y006580D01*
X029038Y005705D02*
X031413Y003330D01*
X046788Y003330D01*
X047538Y004080D01*
X047038Y003830D02*
X046788Y003580D01*
X047038Y003830D02*
X047038Y004580D01*
X047538Y005080D01*
X043538Y006580D02*
X043163Y006955D01*
X035913Y006955D01*
X035538Y007580D02*
X035913Y007955D01*
X043163Y007955D01*
X043538Y007580D01*
X043913Y007955D01*
X051163Y007955D01*
X050038Y008330D02*
X049913Y008205D01*
X049813Y008205D01*
X043913Y008205D01*
X043538Y008580D01*
X049088Y009080D02*
X049538Y008630D01*
X049088Y009080D02*
X036038Y009080D01*
X035538Y008580D01*
X035163Y007955D02*
X035538Y007580D01*
X035163Y007955D02*
X027913Y007955D01*
X027538Y007580D01*
X019288Y007080D02*
X018913Y007455D01*
X012913Y007455D01*
X012538Y007080D01*
X012163Y007455D01*
X006413Y007455D01*
X006038Y007080D01*
X007163Y006705D02*
X001413Y006705D01*
X001038Y007080D01*
X001413Y006455D02*
X007163Y006455D01*
X007538Y006080D01*
X007913Y006455D01*
X013913Y006455D01*
X014288Y006080D01*
X013913Y006705D02*
X014288Y007080D01*
X013913Y006705D02*
X007913Y006705D01*
X007538Y007080D01*
X007163Y006705D01*
X007163Y007705D02*
X001413Y007705D01*
X001038Y008080D01*
X001413Y008705D02*
X007163Y008705D01*
X007538Y009080D01*
X007913Y008705D01*
X013913Y008705D01*
X014288Y009080D01*
X012913Y009455D02*
X012538Y009080D01*
X012163Y009455D01*
X006413Y009455D01*
X006038Y009080D01*
X006413Y009705D02*
X012163Y009705D01*
X012538Y010080D01*
X012913Y009705D01*
X018913Y009705D01*
X019288Y010080D01*
X018913Y010705D02*
X012913Y010705D01*
X012538Y011080D01*
X012163Y010705D01*
X006413Y010705D01*
X006038Y011080D01*
X007163Y011455D02*
X007538Y011080D01*
X007913Y011455D01*
X013913Y011455D01*
X014288Y011080D01*
X013913Y010455D02*
X007913Y010455D01*
X007538Y010080D01*
X007163Y010455D01*
X001413Y010455D01*
X001038Y010080D01*
X001038Y011080D02*
X001413Y011455D01*
X007163Y011455D01*
X007163Y011705D02*
X007538Y012080D01*
X007913Y011705D01*
X013913Y011705D01*
X014288Y012080D01*
X013913Y010455D02*
X014288Y010080D01*
X012913Y009455D02*
X018913Y009455D01*
X019288Y009080D01*
X018913Y008455D02*
X012913Y008455D01*
X012538Y008080D01*
X012163Y008455D01*
X006413Y008455D01*
X006038Y008080D01*
X007163Y007705D02*
X007538Y008080D01*
X007913Y007705D01*
X013913Y007705D01*
X014288Y008080D01*
X018913Y008455D02*
X019288Y008080D01*
X018913Y010705D02*
X019038Y010830D01*
X019288Y011080D01*
X021038Y012705D02*
X021413Y013080D01*
X021788Y013080D01*
X022288Y013580D01*
X027538Y013580D01*
X028913Y013205D02*
X022163Y013205D01*
X021538Y012580D01*
X021538Y013580D02*
X022038Y014080D01*
X029038Y014080D01*
X029538Y013580D01*
X030038Y014080D01*
X037038Y014080D01*
X037538Y013580D01*
X038038Y014080D01*
X045038Y014080D01*
X045538Y013580D01*
X046038Y014080D01*
X053663Y014080D01*
X055788Y014080D01*
X060538Y009330D01*
X060163Y008955D01*
X056663Y008955D01*
X056288Y009330D01*
X057163Y009705D02*
X057538Y009330D01*
X057163Y009705D02*
X053663Y009705D01*
X053288Y009330D01*
X052038Y010580D01*
X051538Y010580D01*
X051163Y010205D01*
X051538Y011580D02*
X051163Y011955D01*
X043913Y011955D01*
X043538Y011580D01*
X043163Y011955D01*
X035913Y011955D01*
X035538Y011580D01*
X035163Y011955D01*
X027913Y011955D01*
X027538Y011580D01*
X028913Y013205D02*
X029538Y012580D01*
X030163Y013205D01*
X036913Y013205D01*
X037413Y012705D01*
X037538Y012580D01*
X038163Y013205D01*
X044913Y013205D01*
X045538Y012580D01*
X053288Y008330D02*
X053663Y008705D01*
X057163Y008705D01*
X057538Y008330D01*
X056663Y007955D02*
X056288Y008330D01*
X056663Y007955D02*
X060163Y007955D01*
X060288Y008080D01*
X060538Y008330D01*
X060538Y007330D02*
X057538Y007330D01*
X057163Y006705D02*
X053663Y006705D01*
X053288Y006330D01*
X056288Y006330D02*
X056663Y005955D01*
X060163Y005955D01*
X060538Y006330D01*
X060538Y005330D02*
X060163Y004955D01*
X056663Y004955D01*
X057538Y006330D02*
X057163Y006705D01*
X048538Y018580D02*
X048538Y018830D01*
X048038Y019330D01*
X048038Y019830D01*
X047163Y020705D01*
X040163Y020705D01*
X039788Y021080D01*
X037413Y021080D01*
X032413Y021080D01*
X032288Y021080D01*
X032163Y021205D01*
X031788Y021455D02*
X031913Y021580D01*
X032413Y021580D01*
X032538Y021455D01*
X048588Y021455D01*
X048713Y021455D01*
X047538Y019580D02*
X046663Y020455D01*
X040113Y020455D01*
X039738Y020830D01*
X037413Y020830D01*
X031788Y020830D01*
X031413Y020455D02*
X037538Y020455D01*
X039788Y020455D01*
X040038Y020205D01*
X046663Y020205D01*
X047038Y019830D01*
X047038Y019080D01*
X047538Y018580D01*
X046538Y019580D02*
X046038Y019080D01*
X031663Y019080D01*
X031088Y019655D01*
X031088Y020130D01*
X031063Y020105D01*
X032913Y020155D02*
X033238Y019830D01*
X033978Y019830D01*
X031788Y021455D02*
X029663Y021455D01*
X029338Y021280D02*
X029013Y020955D01*
X027663Y020955D01*
X028688Y021455D02*
X031438Y024205D01*
X031538Y024205D01*
X032913Y021955D02*
X029538Y021955D01*
X029338Y021755D01*
X029338Y021280D01*
X026163Y021330D02*
X024538Y021330D01*
X023663Y020455D01*
X011163Y020455D01*
X010163Y020455D01*
X007038Y023580D01*
X012088Y023475D02*
X012088Y024130D01*
X012663Y024705D01*
X018038Y024705D01*
X018413Y024330D01*
X018413Y023330D01*
X018038Y023705D02*
X018038Y024205D01*
X017788Y024455D01*
X017538Y024455D01*
X013111Y024455D01*
X012388Y023733D01*
X012388Y023220D02*
X013248Y024080D01*
X017663Y024080D01*
X021163Y023830D02*
X021163Y021405D01*
X021163Y021380D01*
X022163Y021005D02*
X022163Y023830D01*
X023163Y023830D02*
X023163Y021005D01*
X024381Y019080D02*
X026163Y020862D01*
X024381Y019080D02*
X024288Y019080D01*
X007538Y019080D01*
X007038Y019580D01*
X001538Y013580D02*
X001038Y013080D01*
X001038Y012080D02*
X001413Y011705D01*
X007163Y011705D01*
X006038Y010080D02*
X006413Y009705D01*
X001413Y008705D02*
X001038Y009080D01*
X001413Y006455D02*
X001038Y006080D01*
D21*
X000521Y003312D02*
X000521Y015848D01*
X002637Y015848D01*
X002688Y015797D01*
X002809Y015747D01*
X002939Y015747D01*
X003060Y015797D01*
X003071Y015807D01*
X003082Y015797D01*
X003202Y015747D01*
X003333Y015747D01*
X003454Y015797D01*
X003464Y015807D01*
X003475Y015797D01*
X003596Y015747D01*
X003727Y015747D01*
X003847Y015797D01*
X003858Y015807D01*
X003869Y015797D01*
X003990Y015747D01*
X004120Y015747D01*
X004241Y015797D01*
X004252Y015807D01*
X004263Y015797D01*
X004383Y015747D01*
X004514Y015747D01*
X004635Y015797D01*
X004686Y015848D01*
X020637Y015848D01*
X020688Y015797D01*
X020809Y015747D01*
X020939Y015747D01*
X021060Y015797D01*
X021071Y015807D01*
X021082Y015797D01*
X021202Y015747D01*
X021333Y015747D01*
X021454Y015797D01*
X021464Y015807D01*
X021475Y015797D01*
X021596Y015747D01*
X021727Y015747D01*
X021847Y015797D01*
X021858Y015807D01*
X021869Y015797D01*
X021990Y015747D01*
X022120Y015747D01*
X022241Y015797D01*
X022252Y015807D01*
X022263Y015797D01*
X022383Y015747D01*
X022514Y015747D01*
X022635Y015797D01*
X022686Y015848D01*
X038637Y015848D01*
X038688Y015797D01*
X038809Y015747D01*
X038939Y015747D01*
X039060Y015797D01*
X039071Y015807D01*
X039082Y015797D01*
X039202Y015747D01*
X039333Y015747D01*
X039454Y015797D01*
X039464Y015807D01*
X039475Y015797D01*
X039596Y015747D01*
X039727Y015747D01*
X039847Y015797D01*
X039858Y015807D01*
X039869Y015797D01*
X039990Y015747D01*
X040120Y015747D01*
X040241Y015797D01*
X040252Y015807D01*
X040263Y015797D01*
X040383Y015747D01*
X040514Y015747D01*
X040635Y015797D01*
X040686Y015848D01*
X056651Y015848D01*
X056692Y015806D01*
X056813Y015756D01*
X056943Y015756D01*
X057064Y015806D01*
X057075Y015817D01*
X057086Y015806D01*
X057206Y015756D01*
X057337Y015756D01*
X057458Y015806D01*
X057468Y015817D01*
X057479Y015806D01*
X057600Y015756D01*
X057731Y015756D01*
X057851Y015806D01*
X057862Y015817D01*
X057873Y015806D01*
X057994Y015756D01*
X058124Y015756D01*
X058245Y015806D01*
X058256Y015817D01*
X058267Y015806D01*
X058387Y015756D01*
X058518Y015756D01*
X058639Y015806D01*
X058680Y015848D01*
X060798Y015848D01*
X060798Y009602D01*
X060751Y009649D01*
X060613Y009706D01*
X060463Y009706D01*
X060440Y009697D01*
X055867Y014270D01*
X045960Y014270D01*
X045646Y013956D01*
X045431Y013956D01*
X045117Y014270D01*
X037960Y014270D01*
X037848Y014159D01*
X037646Y013956D01*
X037431Y013956D01*
X037117Y014270D01*
X029960Y014270D01*
X029646Y013956D01*
X029431Y013956D01*
X029117Y014270D01*
X021960Y014270D01*
X021848Y014159D01*
X021646Y013956D01*
X021244Y013956D01*
X021162Y013874D01*
X021162Y013286D01*
X021244Y013204D01*
X021268Y013204D01*
X020960Y012895D01*
X020848Y012784D01*
X020848Y012001D01*
X021172Y011678D01*
X021162Y011655D01*
X021162Y011505D01*
X021172Y011482D01*
X020848Y011159D01*
X020848Y010001D01*
X020960Y009890D01*
X021172Y009678D01*
X021162Y009655D01*
X021162Y009505D01*
X021219Y009367D01*
X021325Y009261D01*
X021463Y009204D01*
X021613Y009204D01*
X021751Y009261D01*
X021857Y009367D01*
X021915Y009505D01*
X021915Y009655D01*
X021857Y009793D01*
X021751Y009899D01*
X021613Y009956D01*
X021463Y009956D01*
X021440Y009947D01*
X021228Y010159D01*
X021228Y010358D01*
X021325Y010261D01*
X021463Y010204D01*
X021613Y010204D01*
X021751Y010261D01*
X021857Y010367D01*
X021915Y010505D01*
X021915Y010655D01*
X021905Y010678D01*
X022242Y011015D01*
X028835Y011015D01*
X029172Y010678D01*
X029162Y010655D01*
X029162Y010505D01*
X029208Y010395D01*
X027992Y010395D01*
X027905Y010482D01*
X027915Y010505D01*
X027915Y010655D01*
X027857Y010793D01*
X027751Y010899D01*
X027613Y010956D01*
X027463Y010956D01*
X027325Y010899D01*
X027219Y010793D01*
X027162Y010655D01*
X027162Y010505D01*
X027219Y010367D01*
X027325Y010261D01*
X027463Y010204D01*
X027613Y010204D01*
X027636Y010213D01*
X027770Y010080D01*
X027636Y009947D01*
X027613Y009956D01*
X027463Y009956D01*
X027325Y009899D01*
X027219Y009793D01*
X027162Y009655D01*
X027162Y009505D01*
X027219Y009367D01*
X027325Y009261D01*
X027463Y009204D01*
X027613Y009204D01*
X027751Y009261D01*
X027857Y009367D01*
X027915Y009505D01*
X027915Y009655D01*
X027905Y009678D01*
X027992Y009765D01*
X029208Y009765D01*
X029162Y009655D01*
X029162Y009505D01*
X029219Y009367D01*
X029325Y009261D01*
X029463Y009204D01*
X029613Y009204D01*
X029751Y009261D01*
X029857Y009367D01*
X029915Y009505D01*
X029915Y009655D01*
X029869Y009765D01*
X035085Y009765D01*
X035172Y009678D01*
X035162Y009655D01*
X035162Y009505D01*
X035219Y009367D01*
X035325Y009261D01*
X035463Y009204D01*
X035613Y009204D01*
X035751Y009261D01*
X035857Y009367D01*
X035915Y009505D01*
X035915Y009655D01*
X035905Y009678D01*
X035992Y009765D01*
X037208Y009765D01*
X037162Y009655D01*
X037162Y009505D01*
X037219Y009367D01*
X037316Y009270D01*
X035960Y009270D01*
X035848Y009159D01*
X035636Y008947D01*
X035613Y008956D01*
X035463Y008956D01*
X035325Y008899D01*
X035219Y008793D01*
X035162Y008655D01*
X035162Y008505D01*
X035219Y008367D01*
X035325Y008261D01*
X035463Y008204D01*
X035613Y008204D01*
X035751Y008261D01*
X035857Y008367D01*
X035915Y008505D01*
X035915Y008655D01*
X035905Y008678D01*
X036117Y008890D01*
X037316Y008890D01*
X037219Y008793D01*
X037162Y008655D01*
X037162Y008505D01*
X037219Y008367D01*
X037325Y008261D01*
X037463Y008204D01*
X037613Y008204D01*
X037751Y008261D01*
X037857Y008367D01*
X037915Y008505D01*
X037915Y008655D01*
X037857Y008793D01*
X037760Y008890D01*
X043316Y008890D01*
X043219Y008793D01*
X043162Y008655D01*
X043162Y008505D01*
X043219Y008367D01*
X043325Y008261D01*
X043463Y008204D01*
X043613Y008204D01*
X043636Y008213D01*
X043770Y008080D01*
X043723Y008034D01*
X043636Y007947D01*
X043613Y007956D01*
X043463Y007956D01*
X043440Y007947D01*
X043242Y008145D01*
X035835Y008145D01*
X035723Y008034D01*
X035636Y007947D01*
X035613Y007956D01*
X035463Y007956D01*
X035440Y007947D01*
X035242Y008145D01*
X027835Y008145D01*
X027723Y008034D01*
X027636Y007947D01*
X027613Y007956D01*
X027463Y007956D01*
X027325Y007899D01*
X027219Y007793D01*
X027162Y007655D01*
X027162Y007505D01*
X027219Y007367D01*
X027325Y007261D01*
X027463Y007204D01*
X027613Y007204D01*
X027751Y007261D01*
X027857Y007367D01*
X027915Y007505D01*
X027915Y007655D01*
X027905Y007678D01*
X027992Y007765D01*
X029208Y007765D01*
X029162Y007655D01*
X029162Y007505D01*
X029219Y007367D01*
X029325Y007261D01*
X029463Y007204D01*
X029613Y007204D01*
X029751Y007261D01*
X029857Y007367D01*
X029915Y007505D01*
X029915Y007655D01*
X029869Y007765D01*
X035085Y007765D01*
X035172Y007678D01*
X035162Y007655D01*
X035162Y007505D01*
X035219Y007367D01*
X035325Y007261D01*
X035463Y007204D01*
X035613Y007204D01*
X035751Y007261D01*
X035857Y007367D01*
X035915Y007505D01*
X035915Y007655D01*
X035905Y007678D01*
X035992Y007765D01*
X037208Y007765D01*
X037162Y007655D01*
X037162Y007505D01*
X037219Y007367D01*
X037325Y007261D01*
X037463Y007204D01*
X037613Y007204D01*
X037751Y007261D01*
X037857Y007367D01*
X037915Y007505D01*
X037915Y007655D01*
X037869Y007765D01*
X043085Y007765D01*
X043172Y007678D01*
X043162Y007655D01*
X043162Y007505D01*
X043219Y007367D01*
X043325Y007261D01*
X043463Y007204D01*
X043613Y007204D01*
X043751Y007261D01*
X043857Y007367D01*
X043915Y007505D01*
X043915Y007655D01*
X043905Y007678D01*
X043992Y007765D01*
X045208Y007765D01*
X045162Y007655D01*
X045162Y007505D01*
X045219Y007367D01*
X045325Y007261D01*
X045463Y007204D01*
X045613Y007204D01*
X045751Y007261D01*
X045857Y007367D01*
X045915Y007505D01*
X045915Y007655D01*
X045869Y007765D01*
X051085Y007765D01*
X051172Y007678D01*
X051162Y007655D01*
X051162Y007505D01*
X051219Y007367D01*
X051325Y007261D01*
X051348Y007251D01*
X051665Y006935D01*
X051613Y006956D01*
X051463Y006956D01*
X051440Y006947D01*
X051242Y007145D01*
X043835Y007145D01*
X043723Y007034D01*
X043636Y006947D01*
X043613Y006956D01*
X043463Y006956D01*
X043440Y006947D01*
X043242Y007145D01*
X035835Y007145D01*
X035723Y007034D01*
X035636Y006947D01*
X035613Y006956D01*
X035463Y006956D01*
X035440Y006947D01*
X035242Y007145D01*
X027835Y007145D01*
X027723Y007034D01*
X027636Y006947D01*
X027613Y006956D01*
X027463Y006956D01*
X027325Y006899D01*
X027219Y006793D01*
X027162Y006655D01*
X027162Y006505D01*
X027219Y006367D01*
X027325Y006261D01*
X027463Y006204D01*
X027613Y006204D01*
X027751Y006261D01*
X027857Y006367D01*
X027915Y006505D01*
X027915Y006655D01*
X027905Y006678D01*
X027992Y006765D01*
X029208Y006765D01*
X029162Y006655D01*
X029162Y006505D01*
X029219Y006367D01*
X029325Y006261D01*
X029463Y006204D01*
X029613Y006204D01*
X029751Y006261D01*
X029857Y006367D01*
X029915Y006505D01*
X029915Y006655D01*
X029869Y006765D01*
X035085Y006765D01*
X035172Y006678D01*
X035162Y006655D01*
X035162Y006505D01*
X035219Y006367D01*
X035325Y006261D01*
X035463Y006204D01*
X035613Y006204D01*
X035751Y006261D01*
X035857Y006367D01*
X035915Y006505D01*
X035915Y006655D01*
X035905Y006678D01*
X035992Y006765D01*
X037208Y006765D01*
X037162Y006655D01*
X037162Y006505D01*
X037219Y006367D01*
X037325Y006261D01*
X037463Y006204D01*
X037613Y006204D01*
X037751Y006261D01*
X037857Y006367D01*
X037915Y006505D01*
X037915Y006655D01*
X037869Y006765D01*
X043085Y006765D01*
X043172Y006678D01*
X043162Y006655D01*
X043162Y006505D01*
X043219Y006367D01*
X043325Y006261D01*
X043463Y006204D01*
X043613Y006204D01*
X043636Y006213D01*
X043848Y006001D01*
X043848Y005392D01*
X043721Y005520D01*
X043356Y005520D01*
X043098Y005262D01*
X043098Y004898D01*
X043356Y004640D01*
X043721Y004640D01*
X043848Y004768D01*
X043848Y004501D01*
X044098Y004251D01*
X044098Y003898D01*
X044226Y003770D01*
X043851Y003770D01*
X043978Y003898D01*
X043978Y004262D01*
X043721Y004520D01*
X043356Y004520D01*
X043098Y004262D01*
X043098Y003898D01*
X043226Y003770D01*
X042851Y003770D01*
X042978Y003898D01*
X042978Y004262D01*
X042721Y004520D01*
X042356Y004520D01*
X042098Y004262D01*
X042098Y003898D01*
X042226Y003770D01*
X039242Y003770D01*
X037241Y005771D01*
X037241Y005895D01*
X037191Y006016D01*
X037099Y006108D01*
X036979Y006158D01*
X036848Y006158D01*
X036727Y006108D01*
X036635Y006016D01*
X036585Y005895D01*
X036585Y005765D01*
X036635Y005644D01*
X036727Y005552D01*
X036848Y005502D01*
X036973Y005502D01*
X038955Y003520D01*
X031492Y003520D01*
X029366Y005646D01*
X029366Y005770D01*
X029316Y005891D01*
X029224Y005983D01*
X029104Y006033D01*
X028973Y006033D01*
X028852Y005983D01*
X028760Y005891D01*
X028710Y005770D01*
X028710Y005640D01*
X028760Y005519D01*
X028852Y005427D01*
X028973Y005377D01*
X029098Y005377D01*
X031162Y003312D01*
X000521Y003312D01*
X000521Y003397D02*
X031078Y003397D01*
X030919Y003556D02*
X000521Y003556D01*
X000521Y003714D02*
X009532Y003714D01*
X009606Y003640D02*
X009971Y003640D01*
X010228Y003898D01*
X010228Y004262D01*
X009971Y004520D01*
X009606Y004520D01*
X009348Y004262D01*
X009348Y003898D01*
X009606Y003640D01*
X009374Y003873D02*
X000521Y003873D01*
X000521Y004031D02*
X009348Y004031D01*
X009348Y004190D02*
X000521Y004190D01*
X000521Y004348D02*
X009434Y004348D01*
X009593Y004507D02*
X000521Y004507D01*
X000521Y004665D02*
X009581Y004665D01*
X009606Y004640D02*
X009971Y004640D01*
X010228Y004898D01*
X010228Y005262D01*
X009971Y005520D01*
X009606Y005520D01*
X009348Y005262D01*
X009348Y004898D01*
X009606Y004640D01*
X009423Y004824D02*
X000521Y004824D01*
X000521Y004982D02*
X009348Y004982D01*
X009348Y005141D02*
X000521Y005141D01*
X000521Y005299D02*
X009385Y005299D01*
X009544Y005458D02*
X000521Y005458D01*
X000521Y005616D02*
X019181Y005616D01*
X019213Y005704D02*
X019268Y005704D01*
X019028Y005463D01*
X018971Y005520D01*
X018606Y005520D01*
X018348Y005262D01*
X018348Y004898D01*
X018606Y004640D01*
X018971Y004640D01*
X019228Y004898D01*
X019228Y005126D01*
X019848Y005746D01*
X019848Y005409D01*
X018960Y004520D01*
X018606Y004520D01*
X018348Y004262D01*
X018348Y003898D01*
X018606Y003640D01*
X018971Y003640D01*
X019228Y003898D01*
X019228Y004251D01*
X020228Y005251D01*
X020228Y013409D01*
X020117Y013520D01*
X019655Y013982D01*
X019665Y014005D01*
X019665Y014155D01*
X019607Y014293D01*
X019501Y014399D01*
X019363Y014456D01*
X019213Y014456D01*
X019075Y014399D01*
X018969Y014293D01*
X018912Y014155D01*
X018912Y014005D01*
X018969Y013867D01*
X019066Y013770D01*
X014649Y013770D01*
X014665Y013786D01*
X014665Y014374D01*
X014583Y014456D01*
X014181Y014456D01*
X013742Y014895D01*
X008085Y014895D01*
X007646Y014456D01*
X007431Y014456D01*
X006992Y014895D01*
X001585Y014895D01*
X001473Y014784D01*
X001146Y014456D01*
X000744Y014456D01*
X000662Y014374D01*
X000662Y013786D01*
X000744Y013704D01*
X001333Y013704D01*
X001415Y013786D01*
X001415Y014188D01*
X001742Y014515D01*
X006835Y014515D01*
X007162Y014188D01*
X007162Y013786D01*
X007244Y013704D01*
X007833Y013704D01*
X007915Y013786D01*
X007915Y014188D01*
X008242Y014515D01*
X013585Y014515D01*
X013912Y014188D01*
X013912Y013975D01*
X013853Y014034D01*
X013728Y014159D01*
X013617Y014270D01*
X012867Y014270D01*
X012857Y014293D01*
X012751Y014399D01*
X012613Y014456D01*
X012463Y014456D01*
X012325Y014399D01*
X012219Y014293D01*
X012162Y014155D01*
X012162Y014005D01*
X012219Y013867D01*
X012316Y013770D01*
X007960Y013770D01*
X007636Y013447D01*
X007613Y013456D01*
X007463Y013456D01*
X007440Y013447D01*
X007117Y013770D01*
X006260Y013770D01*
X006357Y013867D01*
X006415Y014005D01*
X006415Y014155D01*
X006357Y014293D01*
X006251Y014399D01*
X006113Y014456D01*
X005963Y014456D01*
X005825Y014399D01*
X005719Y014293D01*
X005662Y014155D01*
X005662Y014005D01*
X005719Y013867D01*
X005816Y013770D01*
X001460Y013770D01*
X001348Y013659D01*
X001136Y013447D01*
X001113Y013456D01*
X000963Y013456D01*
X000825Y013399D01*
X000719Y013293D01*
X000662Y013155D01*
X000662Y013005D01*
X000719Y012867D01*
X000825Y012761D01*
X000963Y012704D01*
X001113Y012704D01*
X001251Y012761D01*
X001357Y012867D01*
X001415Y013005D01*
X001415Y013155D01*
X001405Y013178D01*
X001617Y013390D01*
X005816Y013390D01*
X005719Y013293D01*
X005662Y013155D01*
X005662Y013005D01*
X005719Y012867D01*
X005825Y012761D01*
X005963Y012704D01*
X006113Y012704D01*
X006136Y012713D01*
X006223Y012626D01*
X006270Y012580D01*
X006136Y012447D01*
X006113Y012456D01*
X005963Y012456D01*
X005825Y012399D01*
X005719Y012293D01*
X005662Y012155D01*
X005662Y012005D01*
X005708Y011895D01*
X001492Y011895D01*
X001405Y011982D01*
X001415Y012005D01*
X001415Y012155D01*
X001357Y012293D01*
X001251Y012399D01*
X001113Y012456D01*
X000963Y012456D01*
X000825Y012399D01*
X000719Y012293D01*
X000662Y012155D01*
X000662Y012005D01*
X000719Y011867D01*
X000825Y011761D01*
X000963Y011704D01*
X001113Y011704D01*
X001136Y011713D01*
X001223Y011626D01*
X001270Y011580D01*
X001223Y011534D01*
X001136Y011447D01*
X001113Y011456D01*
X000963Y011456D01*
X000825Y011399D01*
X000719Y011293D01*
X000662Y011155D01*
X000662Y011005D01*
X000521Y011005D01*
X000662Y011005D02*
X000719Y010867D01*
X000825Y010761D01*
X000963Y010704D01*
X001113Y010704D01*
X001251Y010761D01*
X001357Y010867D01*
X001415Y011005D01*
X001415Y011155D01*
X001405Y011178D01*
X001492Y011265D01*
X005708Y011265D01*
X005662Y011155D01*
X005662Y011005D01*
X001414Y011005D01*
X001411Y011164D02*
X005666Y011164D01*
X005662Y011005D02*
X005719Y010867D01*
X005825Y010761D01*
X005963Y010704D01*
X006113Y010704D01*
X006136Y010713D01*
X006205Y010645D01*
X001335Y010645D01*
X001136Y010447D01*
X001113Y010456D01*
X000963Y010456D01*
X000825Y010399D01*
X000719Y010293D01*
X000662Y010155D01*
X000662Y010005D01*
X000719Y009867D01*
X000825Y009761D01*
X000963Y009704D01*
X001113Y009704D01*
X001251Y009761D01*
X001357Y009867D01*
X001415Y010005D01*
X001415Y010155D01*
X001405Y010178D01*
X001492Y010265D01*
X005708Y010265D01*
X005662Y010155D01*
X005662Y010005D01*
X005719Y009867D01*
X005825Y009761D01*
X005963Y009704D01*
X006113Y009704D01*
X006136Y009713D01*
X006223Y009626D01*
X006270Y009580D01*
X006136Y009447D01*
X006113Y009456D01*
X005963Y009456D01*
X005825Y009399D01*
X005719Y009293D01*
X005662Y009155D01*
X005662Y009005D01*
X005708Y008895D01*
X001492Y008895D01*
X001405Y008982D01*
X001415Y009005D01*
X001415Y009155D01*
X001357Y009293D01*
X001251Y009399D01*
X001113Y009456D01*
X000963Y009456D01*
X000825Y009399D01*
X000719Y009293D01*
X000662Y009155D01*
X000662Y009005D01*
X000719Y008867D01*
X000825Y008761D01*
X000963Y008704D01*
X001113Y008704D01*
X001136Y008713D01*
X001223Y008626D01*
X001335Y008515D01*
X006205Y008515D01*
X006136Y008447D01*
X006113Y008456D01*
X005963Y008456D01*
X005825Y008399D01*
X005719Y008293D01*
X005662Y008155D01*
X005662Y008005D01*
X005708Y007895D01*
X001492Y007895D01*
X001405Y007982D01*
X001415Y008005D01*
X001415Y008155D01*
X001357Y008293D01*
X001251Y008399D01*
X001113Y008456D01*
X000963Y008456D01*
X000825Y008399D01*
X000719Y008293D01*
X000662Y008155D01*
X000662Y008005D01*
X000719Y007867D01*
X000825Y007761D01*
X000963Y007704D01*
X001113Y007704D01*
X001136Y007713D01*
X001335Y007515D01*
X006205Y007515D01*
X006136Y007447D01*
X006113Y007456D01*
X005963Y007456D01*
X005825Y007399D01*
X005719Y007293D01*
X005662Y007155D01*
X005662Y007005D01*
X005708Y006895D01*
X001492Y006895D01*
X001405Y006982D01*
X001415Y007005D01*
X001415Y007155D01*
X001357Y007293D01*
X001251Y007399D01*
X001113Y007456D01*
X000963Y007456D01*
X000825Y007399D01*
X000719Y007293D01*
X000662Y007155D01*
X000662Y007005D01*
X000719Y006867D01*
X000825Y006761D01*
X000963Y006704D01*
X001113Y006704D01*
X001136Y006713D01*
X001270Y006580D01*
X001223Y006534D01*
X001136Y006447D01*
X001113Y006456D01*
X000963Y006456D01*
X000825Y006399D01*
X000719Y006293D01*
X000662Y006155D01*
X000662Y006005D01*
X000719Y005867D01*
X000825Y005761D01*
X000963Y005704D01*
X001113Y005704D01*
X001251Y005761D01*
X001357Y005867D01*
X001415Y006005D01*
X001415Y006155D01*
X001405Y006178D01*
X001492Y006265D01*
X005708Y006265D01*
X005662Y006155D01*
X005662Y006005D01*
X005719Y005867D01*
X005825Y005761D01*
X005963Y005704D01*
X006113Y005704D01*
X006251Y005761D01*
X006357Y005867D01*
X006415Y006005D01*
X006415Y006155D01*
X006369Y006265D01*
X007085Y006265D01*
X007172Y006178D01*
X007162Y006155D01*
X007162Y006005D01*
X007219Y005867D01*
X007325Y005761D01*
X007463Y005704D01*
X007613Y005704D01*
X007751Y005761D01*
X007857Y005867D01*
X007915Y006005D01*
X007915Y006155D01*
X007905Y006178D01*
X007992Y006265D01*
X012208Y006265D01*
X012162Y006155D01*
X012162Y006005D01*
X012219Y005867D01*
X012325Y005761D01*
X012463Y005704D01*
X012613Y005704D01*
X012751Y005761D01*
X012857Y005867D01*
X012915Y006005D01*
X012915Y006155D01*
X012869Y006265D01*
X013835Y006265D01*
X013922Y006178D01*
X013912Y006155D01*
X013912Y006005D01*
X013969Y005867D01*
X014075Y005761D01*
X014213Y005704D01*
X014363Y005704D01*
X014501Y005761D01*
X014607Y005867D01*
X014665Y006005D01*
X014665Y006155D01*
X014607Y006293D01*
X014501Y006399D01*
X014363Y006456D01*
X014213Y006456D01*
X014190Y006447D01*
X014057Y006580D01*
X014190Y006713D01*
X014213Y006704D01*
X014363Y006704D01*
X014501Y006761D01*
X014607Y006867D01*
X014665Y007005D01*
X014665Y007155D01*
X014619Y007265D01*
X018835Y007265D01*
X018922Y007178D01*
X018912Y007155D01*
X018912Y007005D01*
X018969Y006867D01*
X019075Y006761D01*
X019213Y006704D01*
X019363Y006704D01*
X019501Y006761D01*
X019598Y006858D01*
X019598Y006302D01*
X019501Y006399D01*
X019363Y006456D01*
X019213Y006456D01*
X019075Y006399D01*
X018969Y006293D01*
X018912Y006155D01*
X018912Y006005D01*
X018969Y005867D01*
X019075Y005761D01*
X019213Y005704D01*
X019062Y005775D02*
X014515Y005775D01*
X014635Y005933D02*
X018942Y005933D01*
X018912Y006092D02*
X014665Y006092D01*
X014625Y006250D02*
X018952Y006250D01*
X019098Y006409D02*
X014478Y006409D01*
X014416Y006726D02*
X019161Y006726D01*
X018962Y006884D02*
X014614Y006884D01*
X014665Y007043D02*
X018912Y007043D01*
X018899Y007201D02*
X014645Y007201D01*
X014154Y007677D02*
X019598Y007677D01*
X019501Y007761D02*
X019363Y007704D01*
X019213Y007704D01*
X019075Y007761D01*
X018969Y007867D01*
X018912Y008005D01*
X018912Y008155D01*
X018922Y008178D01*
X018835Y008265D01*
X014619Y008265D01*
X014665Y008155D01*
X014665Y008005D01*
X014607Y007867D01*
X014501Y007761D01*
X014363Y007704D01*
X014213Y007704D01*
X014190Y007713D01*
X014122Y007645D01*
X018992Y007645D01*
X019190Y007447D01*
X019213Y007456D01*
X019363Y007456D01*
X019501Y007399D01*
X019598Y007302D01*
X019598Y007858D01*
X019501Y007761D01*
X019575Y007835D02*
X019598Y007835D01*
X019598Y007518D02*
X019119Y007518D01*
X019001Y007835D02*
X014575Y007835D01*
X014660Y007994D02*
X018917Y007994D01*
X018912Y008152D02*
X014665Y008152D01*
X014363Y008704D02*
X014501Y008761D01*
X014607Y008867D01*
X014665Y009005D01*
X014665Y009155D01*
X014619Y009265D01*
X018835Y009265D01*
X018922Y009178D01*
X018912Y009155D01*
X018912Y009005D01*
X018969Y008867D01*
X019075Y008761D01*
X019213Y008704D01*
X019363Y008704D01*
X019501Y008761D01*
X019598Y008858D01*
X019598Y008302D01*
X019501Y008399D01*
X019363Y008456D01*
X019213Y008456D01*
X019190Y008447D01*
X019103Y008534D01*
X018992Y008645D01*
X014122Y008645D01*
X014190Y008713D01*
X014213Y008704D01*
X014363Y008704D01*
X014526Y008786D02*
X019050Y008786D01*
X019010Y008628D02*
X019598Y008628D01*
X019598Y008786D02*
X019526Y008786D01*
X018937Y008945D02*
X014639Y008945D01*
X014665Y009103D02*
X018912Y009103D01*
X018838Y009262D02*
X014620Y009262D01*
X014619Y009895D02*
X014665Y010005D01*
X014665Y010155D01*
X014607Y010293D01*
X014501Y010399D01*
X014363Y010456D01*
X014213Y010456D01*
X014190Y010447D01*
X014122Y010515D01*
X018992Y010515D01*
X019103Y010626D01*
X019190Y010713D01*
X019213Y010704D01*
X019363Y010704D01*
X019501Y010761D01*
X019598Y010858D01*
X019598Y010302D01*
X019501Y010399D01*
X019363Y010456D01*
X019213Y010456D01*
X019075Y010399D01*
X018969Y010293D01*
X018912Y010155D01*
X018912Y010005D01*
X018922Y009982D01*
X018835Y009895D01*
X014619Y009895D01*
X014619Y009896D02*
X018835Y009896D01*
X018912Y010054D02*
X014665Y010054D01*
X014641Y010213D02*
X018936Y010213D01*
X019047Y010371D02*
X014529Y010371D01*
X014619Y010895D02*
X014665Y011005D01*
X014665Y011155D01*
X014607Y011293D01*
X014501Y011399D01*
X014363Y011456D01*
X014213Y011456D01*
X014190Y011447D01*
X014103Y011534D01*
X014057Y011580D01*
X014103Y011626D01*
X014190Y011713D01*
X014213Y011704D01*
X014363Y011704D01*
X014501Y011761D01*
X014607Y011867D01*
X014665Y012005D01*
X014665Y012155D01*
X014619Y012265D01*
X018835Y012265D01*
X018922Y012178D01*
X018912Y012155D01*
X018912Y012005D01*
X018969Y011867D01*
X019075Y011761D01*
X019213Y011704D01*
X019363Y011704D01*
X019501Y011761D01*
X019598Y011858D01*
X019598Y011302D01*
X019501Y011399D01*
X019363Y011456D01*
X019213Y011456D01*
X019075Y011399D01*
X018969Y011293D01*
X018912Y011155D01*
X018912Y011005D01*
X014664Y011005D01*
X014619Y010895D02*
X018835Y010895D01*
X018922Y010982D01*
X018912Y011005D01*
X018916Y011164D02*
X014661Y011164D01*
X014578Y011322D02*
X018998Y011322D01*
X019578Y011322D02*
X019598Y011322D01*
X019598Y011481D02*
X014157Y011481D01*
X014116Y011639D02*
X019598Y011639D01*
X019598Y011798D02*
X019538Y011798D01*
X019039Y011798D02*
X014538Y011798D01*
X014644Y011956D02*
X018932Y011956D01*
X018912Y012115D02*
X014665Y012115D01*
X014619Y012895D02*
X014665Y013005D01*
X014665Y013155D01*
X014607Y013293D01*
X014510Y013390D01*
X019066Y013390D01*
X018969Y013293D01*
X018912Y013155D01*
X018912Y013005D01*
X018922Y012982D01*
X018835Y012895D01*
X014619Y012895D01*
X014624Y012907D02*
X018847Y012907D01*
X018912Y013066D02*
X014665Y013066D01*
X014636Y013224D02*
X018941Y013224D01*
X019059Y013383D02*
X014518Y013383D01*
X014665Y013858D02*
X018978Y013858D01*
X018912Y014017D02*
X014665Y014017D01*
X014665Y014175D02*
X018920Y014175D01*
X019010Y014334D02*
X014665Y014334D01*
X014145Y014492D02*
X060798Y014492D01*
X060798Y014334D02*
X019567Y014334D01*
X019656Y014175D02*
X021865Y014175D01*
X021706Y014017D02*
X019665Y014017D01*
X019779Y013858D02*
X021162Y013858D01*
X021162Y013700D02*
X019938Y013700D01*
X020096Y013541D02*
X021162Y013541D01*
X021162Y013383D02*
X020228Y013383D01*
X020228Y013224D02*
X021224Y013224D01*
X021130Y013066D02*
X020228Y013066D01*
X020228Y012907D02*
X020972Y012907D01*
X020848Y012749D02*
X020228Y012749D01*
X020228Y012590D02*
X020848Y012590D01*
X020848Y012432D02*
X020228Y012432D01*
X020228Y012273D02*
X020848Y012273D01*
X020848Y012115D02*
X020228Y012115D01*
X020228Y011956D02*
X020894Y011956D01*
X021052Y011798D02*
X020228Y011798D01*
X020228Y011639D02*
X021162Y011639D01*
X021170Y011481D02*
X020228Y011481D01*
X020228Y011322D02*
X021012Y011322D01*
X020853Y011164D02*
X020228Y011164D01*
X020228Y011005D02*
X020848Y011005D01*
X020848Y010847D02*
X020228Y010847D01*
X020228Y010688D02*
X020848Y010688D01*
X020848Y010530D02*
X020228Y010530D01*
X020228Y010371D02*
X020848Y010371D01*
X020848Y010213D02*
X020228Y010213D01*
X020228Y010054D02*
X020848Y010054D01*
X020954Y009896D02*
X020228Y009896D01*
X020228Y009737D02*
X021113Y009737D01*
X021162Y009579D02*
X020228Y009579D01*
X020228Y009420D02*
X021197Y009420D01*
X021325Y009262D02*
X020228Y009262D01*
X020228Y009103D02*
X035793Y009103D01*
X035752Y009262D02*
X035951Y009262D01*
X035879Y009420D02*
X037197Y009420D01*
X037162Y009579D02*
X035915Y009579D01*
X035964Y009737D02*
X037196Y009737D01*
X037208Y010395D02*
X035992Y010395D01*
X035905Y010482D01*
X035915Y010505D01*
X035915Y010655D01*
X035857Y010793D01*
X035751Y010899D01*
X035613Y010956D01*
X035463Y010956D01*
X035325Y010899D01*
X035219Y010793D01*
X035162Y010655D01*
X035162Y010505D01*
X035172Y010482D01*
X035085Y010395D01*
X029869Y010395D01*
X029915Y010505D01*
X029915Y010655D01*
X029905Y010678D01*
X030242Y011015D01*
X036835Y011015D01*
X037172Y010678D01*
X037162Y010655D01*
X037162Y010505D01*
X037208Y010395D01*
X037162Y010530D02*
X035915Y010530D01*
X035901Y010688D02*
X037162Y010688D01*
X037003Y010847D02*
X035804Y010847D01*
X035273Y010847D02*
X030074Y010847D01*
X030232Y011005D02*
X036845Y011005D01*
X037065Y011322D02*
X037264Y011322D01*
X037219Y011367D02*
X037325Y011261D01*
X037463Y011204D01*
X037613Y011204D01*
X037751Y011261D01*
X037857Y011367D01*
X037915Y011505D01*
X037915Y011655D01*
X037869Y011765D01*
X043085Y011765D01*
X043172Y011678D01*
X043162Y011655D01*
X043162Y011505D01*
X043208Y011395D01*
X038085Y011395D01*
X037973Y011284D01*
X037636Y010947D01*
X037613Y010956D01*
X037463Y010956D01*
X037440Y010947D01*
X036992Y011395D01*
X035869Y011395D01*
X035915Y011505D01*
X035915Y011655D01*
X035905Y011678D01*
X035992Y011765D01*
X037208Y011765D01*
X037162Y011655D01*
X037162Y011505D01*
X037219Y011367D01*
X037172Y011481D02*
X035904Y011481D01*
X035915Y011639D02*
X037162Y011639D01*
X037224Y011164D02*
X037853Y011164D01*
X037812Y011322D02*
X038012Y011322D01*
X037904Y011481D02*
X043172Y011481D01*
X043162Y011639D02*
X037915Y011639D01*
X037695Y011005D02*
X037382Y011005D01*
X037905Y010678D02*
X038242Y011015D01*
X044835Y011015D01*
X045172Y010678D01*
X045162Y010655D01*
X045162Y010505D01*
X045208Y010395D01*
X043992Y010395D01*
X043905Y010482D01*
X043915Y010505D01*
X043915Y010655D01*
X043857Y010793D01*
X043751Y010899D01*
X043613Y010956D01*
X043463Y010956D01*
X043325Y010899D01*
X043219Y010793D01*
X043162Y010655D01*
X043162Y010505D01*
X043172Y010482D01*
X043085Y010395D01*
X037869Y010395D01*
X037915Y010505D01*
X037915Y010655D01*
X037905Y010678D01*
X037915Y010688D02*
X043176Y010688D01*
X043162Y010530D02*
X037915Y010530D01*
X038074Y010847D02*
X043273Y010847D01*
X043804Y010847D02*
X045003Y010847D01*
X044845Y011005D02*
X038232Y011005D01*
X035835Y012145D02*
X035723Y012034D01*
X035636Y011947D01*
X035613Y011956D01*
X035463Y011956D01*
X035431Y011956D01*
X035440Y011947D02*
X035242Y012145D01*
X027835Y012145D01*
X027723Y012034D01*
X027636Y011947D01*
X027613Y011956D01*
X027463Y011956D01*
X021614Y011956D01*
X021613Y011956D02*
X021463Y011956D01*
X021431Y011956D01*
X021440Y011947D02*
X021228Y012159D01*
X021228Y012358D01*
X021325Y012261D01*
X021463Y012204D01*
X021613Y012204D01*
X021751Y012261D01*
X021857Y012367D01*
X021915Y012505D01*
X021915Y012655D01*
X021905Y012678D01*
X022242Y013015D01*
X028835Y013015D01*
X029172Y012678D01*
X029162Y012655D01*
X029162Y012505D01*
X029219Y012367D01*
X029325Y012261D01*
X029463Y012204D01*
X029613Y012204D01*
X029751Y012261D01*
X029857Y012367D01*
X029915Y012505D01*
X029915Y012655D01*
X029905Y012678D01*
X030242Y013015D01*
X036835Y013015D01*
X037172Y012678D01*
X037162Y012655D01*
X037162Y012505D01*
X037219Y012367D01*
X037325Y012261D01*
X037463Y012204D01*
X037613Y012204D01*
X037751Y012261D01*
X037857Y012367D01*
X037915Y012505D01*
X037915Y012655D01*
X037905Y012678D01*
X038242Y013015D01*
X044835Y013015D01*
X045172Y012678D01*
X045162Y012655D01*
X045162Y012505D01*
X045219Y012367D01*
X045325Y012261D01*
X045463Y012204D01*
X045613Y012204D01*
X045751Y012261D01*
X045857Y012367D01*
X045915Y012505D01*
X045915Y012655D01*
X045857Y012793D01*
X045751Y012899D01*
X045613Y012956D01*
X045463Y012956D01*
X045440Y012947D01*
X045103Y013284D01*
X044992Y013395D01*
X043869Y013395D01*
X043915Y013505D01*
X043915Y013655D01*
X043857Y013793D01*
X043760Y013890D01*
X044960Y013890D01*
X045162Y013688D01*
X045162Y013286D01*
X045244Y013204D01*
X045833Y013204D01*
X045915Y013286D01*
X045915Y013688D01*
X046117Y013890D01*
X051316Y013890D01*
X051219Y013793D01*
X051162Y013655D01*
X051162Y013505D01*
X051219Y013367D01*
X051325Y013261D01*
X051463Y013204D01*
X051613Y013204D01*
X051751Y013261D01*
X051857Y013367D01*
X051915Y013505D01*
X051915Y013655D01*
X051857Y013793D01*
X051760Y013890D01*
X055710Y013890D01*
X060172Y009428D01*
X060162Y009405D01*
X060162Y009255D01*
X060172Y009232D01*
X060085Y009145D01*
X057915Y009145D01*
X057915Y009624D01*
X057833Y009706D01*
X057431Y009706D01*
X057353Y009784D01*
X057242Y009895D01*
X053585Y009895D01*
X053396Y009706D01*
X053181Y009706D01*
X052117Y010770D01*
X051960Y010770D01*
X051867Y010770D01*
X051857Y010793D01*
X051751Y010899D01*
X051613Y010956D01*
X051463Y010956D01*
X051325Y010899D01*
X051219Y010793D01*
X051162Y010655D01*
X051162Y010505D01*
X051172Y010482D01*
X051085Y010395D01*
X045869Y010395D01*
X045915Y010505D01*
X045915Y010655D01*
X045857Y010793D01*
X045751Y010899D01*
X045613Y010956D01*
X045463Y010956D01*
X045440Y010947D01*
X044992Y011395D01*
X043869Y011395D01*
X043915Y011505D01*
X043915Y011655D01*
X043905Y011678D01*
X043992Y011765D01*
X045208Y011765D01*
X045162Y011655D01*
X045162Y011505D01*
X045219Y011367D01*
X045325Y011261D01*
X045463Y011204D01*
X045613Y011204D01*
X045751Y011261D01*
X045857Y011367D01*
X045915Y011505D01*
X045915Y011655D01*
X045869Y011765D01*
X051085Y011765D01*
X051172Y011678D01*
X051162Y011655D01*
X051162Y011505D01*
X051219Y011367D01*
X051325Y011261D01*
X051463Y011204D01*
X051613Y011204D01*
X051751Y011261D01*
X051857Y011367D01*
X051915Y011505D01*
X051915Y011655D01*
X051857Y011793D01*
X051751Y011899D01*
X051613Y011956D01*
X051463Y011956D01*
X051431Y011956D01*
X051440Y011947D02*
X051242Y012145D01*
X043835Y012145D01*
X043723Y012034D01*
X043636Y011947D01*
X043613Y011956D01*
X043463Y011956D01*
X043431Y011956D01*
X043440Y011947D02*
X043242Y012145D01*
X035835Y012145D01*
X035804Y012115D02*
X035273Y012115D01*
X035325Y012261D02*
X035463Y012204D01*
X035613Y012204D01*
X035751Y012261D01*
X035857Y012367D01*
X035915Y012505D01*
X035915Y012655D01*
X035857Y012793D01*
X035751Y012899D01*
X035613Y012956D01*
X035463Y012956D01*
X035325Y012899D01*
X035219Y012793D01*
X035162Y012655D01*
X035162Y012505D01*
X035219Y012367D01*
X035325Y012261D01*
X035313Y012273D02*
X029763Y012273D01*
X029884Y012432D02*
X035193Y012432D01*
X035162Y012590D02*
X029915Y012590D01*
X029976Y012749D02*
X035201Y012749D01*
X035345Y012907D02*
X030134Y012907D01*
X029162Y012590D02*
X027915Y012590D01*
X027915Y012655D02*
X027857Y012793D01*
X027751Y012899D01*
X027613Y012956D01*
X027463Y012956D01*
X027325Y012899D01*
X027219Y012793D01*
X027162Y012655D01*
X027162Y012505D01*
X027219Y012367D01*
X027325Y012261D01*
X027463Y012204D01*
X027613Y012204D01*
X027751Y012261D01*
X027857Y012367D01*
X027915Y012505D01*
X027915Y012655D01*
X027876Y012749D02*
X029101Y012749D01*
X028943Y012907D02*
X027732Y012907D01*
X027345Y012907D02*
X022134Y012907D01*
X021976Y012749D02*
X027201Y012749D01*
X027162Y012590D02*
X021915Y012590D01*
X021884Y012432D02*
X027193Y012432D01*
X027313Y012273D02*
X021763Y012273D01*
X021613Y011956D02*
X021751Y011899D01*
X021857Y011793D01*
X021915Y011655D01*
X021915Y011505D01*
X021857Y011367D01*
X021751Y011261D01*
X021613Y011204D01*
X021463Y011204D01*
X021440Y011213D01*
X021228Y011001D01*
X021228Y010802D01*
X021325Y010899D01*
X021463Y010956D01*
X021613Y010956D01*
X021636Y010947D01*
X021973Y011284D01*
X022085Y011395D01*
X027208Y011395D01*
X027162Y011505D01*
X027162Y011655D01*
X027219Y011793D01*
X027325Y011899D01*
X027463Y011956D01*
X027614Y011956D02*
X027646Y011956D01*
X027804Y012115D02*
X021273Y012115D01*
X021313Y012273D02*
X021228Y012273D01*
X021440Y011947D02*
X021463Y011956D01*
X021853Y011798D02*
X027224Y011798D01*
X027162Y011639D02*
X021915Y011639D01*
X021904Y011481D02*
X027172Y011481D01*
X027869Y011395D02*
X027915Y011505D01*
X027915Y011655D01*
X027905Y011678D01*
X027992Y011765D01*
X029208Y011765D01*
X029162Y011655D01*
X029162Y011505D01*
X029219Y011367D01*
X029325Y011261D01*
X029463Y011204D01*
X029613Y011204D01*
X029751Y011261D01*
X029857Y011367D01*
X029915Y011505D01*
X029915Y011655D01*
X029869Y011765D01*
X035085Y011765D01*
X035172Y011678D01*
X035162Y011655D01*
X035162Y011505D01*
X035208Y011395D01*
X030085Y011395D01*
X029973Y011284D01*
X029636Y010947D01*
X029613Y010956D01*
X029463Y010956D01*
X029440Y010947D01*
X028992Y011395D01*
X027869Y011395D01*
X027904Y011481D02*
X029172Y011481D01*
X029162Y011639D02*
X027915Y011639D01*
X028845Y011005D02*
X022232Y011005D01*
X022074Y010847D02*
X027273Y010847D01*
X027176Y010688D02*
X021915Y010688D01*
X021915Y010530D02*
X027162Y010530D01*
X027218Y010371D02*
X021859Y010371D01*
X021634Y010213D02*
X027442Y010213D01*
X027634Y010213D02*
X027637Y010213D01*
X027744Y010054D02*
X021333Y010054D01*
X021228Y010213D02*
X021442Y010213D01*
X021755Y009896D02*
X027322Y009896D01*
X027196Y009737D02*
X021881Y009737D01*
X021915Y009579D02*
X027162Y009579D01*
X027197Y009420D02*
X021879Y009420D01*
X021752Y009262D02*
X027325Y009262D01*
X027463Y008956D02*
X027325Y008899D01*
X027219Y008793D01*
X027162Y008655D01*
X027162Y008505D01*
X027219Y008367D01*
X027325Y008261D01*
X027463Y008204D01*
X027613Y008204D01*
X027751Y008261D01*
X027857Y008367D01*
X027915Y008505D01*
X027915Y008655D01*
X027857Y008793D01*
X027751Y008899D01*
X027613Y008956D01*
X027463Y008956D01*
X027435Y008945D02*
X021641Y008945D01*
X021613Y008956D02*
X021463Y008956D01*
X021325Y008899D01*
X021219Y008793D01*
X021162Y008655D01*
X021162Y008505D01*
X021219Y008367D01*
X021325Y008261D01*
X021463Y008204D01*
X021613Y008204D01*
X021751Y008261D01*
X021857Y008367D01*
X021915Y008505D01*
X021915Y008655D01*
X021857Y008793D01*
X021751Y008899D01*
X021613Y008956D01*
X021435Y008945D02*
X020228Y008945D01*
X020228Y008786D02*
X021216Y008786D01*
X021162Y008628D02*
X020228Y008628D01*
X020228Y008469D02*
X021177Y008469D01*
X021276Y008311D02*
X020228Y008311D01*
X020228Y008152D02*
X043698Y008152D01*
X043683Y007994D02*
X043394Y007994D01*
X043276Y008311D02*
X037801Y008311D01*
X037900Y008469D02*
X043177Y008469D01*
X043162Y008628D02*
X037915Y008628D01*
X037860Y008786D02*
X043216Y008786D01*
X043171Y007677D02*
X037906Y007677D01*
X037915Y007518D02*
X043162Y007518D01*
X043227Y007360D02*
X037850Y007360D01*
X037227Y007360D02*
X035850Y007360D01*
X035915Y007518D02*
X037162Y007518D01*
X037171Y007677D02*
X035906Y007677D01*
X035171Y007677D02*
X029906Y007677D01*
X029915Y007518D02*
X035162Y007518D01*
X035227Y007360D02*
X029850Y007360D01*
X029227Y007360D02*
X027850Y007360D01*
X027915Y007518D02*
X029162Y007518D01*
X029171Y007677D02*
X027906Y007677D01*
X027261Y007835D02*
X021815Y007835D01*
X021857Y007793D02*
X021751Y007899D01*
X021613Y007956D01*
X021463Y007956D01*
X021325Y007899D01*
X021219Y007793D01*
X021162Y007655D01*
X021162Y007505D01*
X021219Y007367D01*
X021325Y007261D01*
X021463Y007204D01*
X021613Y007204D01*
X021751Y007261D01*
X021857Y007367D01*
X021915Y007505D01*
X021915Y007655D01*
X021857Y007793D01*
X021906Y007677D02*
X027171Y007677D01*
X027162Y007518D02*
X021915Y007518D01*
X021850Y007360D02*
X027227Y007360D01*
X027732Y007043D02*
X020228Y007043D01*
X020228Y007201D02*
X051399Y007201D01*
X051348Y007251D02*
X051348Y007251D01*
X051227Y007360D02*
X045850Y007360D01*
X045915Y007518D02*
X051162Y007518D01*
X051171Y007677D02*
X045906Y007677D01*
X045171Y007677D02*
X043906Y007677D01*
X043915Y007518D02*
X045162Y007518D01*
X045227Y007360D02*
X043850Y007360D01*
X043732Y007043D02*
X043345Y007043D01*
X043124Y006726D02*
X037885Y006726D01*
X037915Y006567D02*
X043162Y006567D01*
X043202Y006409D02*
X037875Y006409D01*
X037725Y006250D02*
X043352Y006250D01*
X043758Y006092D02*
X037116Y006092D01*
X037226Y005933D02*
X043848Y005933D01*
X043848Y005775D02*
X037241Y005775D01*
X037396Y005616D02*
X043848Y005616D01*
X043848Y005458D02*
X043783Y005458D01*
X044228Y005458D02*
X044294Y005458D01*
X044356Y005520D02*
X044228Y005392D01*
X044228Y006159D01*
X044117Y006270D01*
X043905Y006482D01*
X043915Y006505D01*
X043915Y006655D01*
X043905Y006678D01*
X043992Y006765D01*
X045208Y006765D01*
X045162Y006655D01*
X045162Y006505D01*
X045219Y006367D01*
X045325Y006261D01*
X045463Y006204D01*
X045613Y006204D01*
X045751Y006261D01*
X045857Y006367D01*
X045915Y006505D01*
X045915Y006655D01*
X045869Y006765D01*
X051085Y006765D01*
X051172Y006678D01*
X051162Y006655D01*
X051162Y006505D01*
X051219Y006367D01*
X051325Y006261D01*
X051463Y006204D01*
X051613Y006204D01*
X051636Y006213D01*
X052473Y005376D01*
X052473Y005126D01*
X052848Y004751D01*
X052960Y004640D01*
X055867Y004640D01*
X056190Y004963D01*
X056213Y004954D01*
X056363Y004954D01*
X056386Y004963D01*
X056585Y004765D01*
X060242Y004765D01*
X060353Y004876D01*
X060440Y004963D01*
X060463Y004954D01*
X060613Y004954D01*
X060751Y005011D01*
X060798Y005058D01*
X060798Y003312D01*
X047040Y003312D01*
X047367Y003640D01*
X047721Y003640D01*
X047978Y003898D01*
X047978Y004262D01*
X047721Y004520D01*
X047356Y004520D01*
X047228Y004392D01*
X047228Y004501D01*
X047367Y004640D01*
X047721Y004640D01*
X047978Y004898D01*
X047978Y005262D01*
X047721Y005520D01*
X047356Y005520D01*
X047098Y005262D01*
X047098Y004909D01*
X046960Y004770D01*
X046848Y004659D01*
X046848Y004392D01*
X046721Y004520D01*
X046356Y004520D01*
X046098Y004262D01*
X046098Y003898D01*
X046226Y003770D01*
X045851Y003770D01*
X045978Y003898D01*
X045978Y004262D01*
X045721Y004520D01*
X045356Y004520D01*
X045098Y004262D01*
X045098Y003898D01*
X045226Y003770D01*
X044851Y003770D01*
X044978Y003898D01*
X044978Y004262D01*
X044721Y004520D01*
X044367Y004520D01*
X044228Y004659D01*
X044228Y004768D01*
X044356Y004640D01*
X044721Y004640D01*
X044978Y004898D01*
X044978Y005262D01*
X044721Y005520D01*
X044356Y005520D01*
X044228Y005616D02*
X052234Y005616D01*
X052392Y005458D02*
X051783Y005458D01*
X051721Y005520D02*
X051356Y005520D01*
X051098Y005262D01*
X051098Y004898D01*
X051356Y004640D01*
X051721Y004640D01*
X051978Y004898D01*
X051978Y005262D01*
X051721Y005520D01*
X051942Y005299D02*
X052473Y005299D01*
X052473Y005141D02*
X051978Y005141D01*
X051978Y004982D02*
X052618Y004982D01*
X052776Y004824D02*
X051904Y004824D01*
X051746Y004665D02*
X052935Y004665D01*
X053510Y005020D02*
X055710Y005020D01*
X055922Y005232D01*
X055912Y005255D01*
X055912Y005405D01*
X055958Y005515D01*
X053742Y005515D01*
X053655Y005428D01*
X053665Y005405D01*
X053665Y005255D01*
X053607Y005117D01*
X053510Y005020D01*
X053617Y005141D02*
X055830Y005141D01*
X055912Y005299D02*
X053665Y005299D01*
X053685Y005458D02*
X055934Y005458D01*
X056213Y005954D02*
X056363Y005954D01*
X056386Y005963D01*
X056455Y005895D01*
X053585Y005895D01*
X053386Y005697D01*
X053363Y005706D01*
X053213Y005706D01*
X053190Y005697D01*
X052978Y005909D01*
X052978Y006108D01*
X053075Y006011D01*
X053213Y005954D01*
X053363Y005954D01*
X053501Y006011D01*
X053607Y006117D01*
X053665Y006255D01*
X053665Y006405D01*
X053655Y006428D01*
X053742Y006515D01*
X055958Y006515D01*
X055912Y006405D01*
X055912Y006255D01*
X055969Y006117D01*
X056075Y006011D01*
X056213Y005954D01*
X056417Y005933D02*
X052978Y005933D01*
X052978Y006092D02*
X052995Y006092D01*
X052933Y006204D02*
X052867Y006270D01*
X051814Y007323D01*
X051857Y007367D01*
X051915Y007505D01*
X051915Y007655D01*
X051857Y007793D01*
X051751Y007899D01*
X051613Y007956D01*
X051463Y007956D01*
X051440Y007947D01*
X051242Y008145D01*
X050317Y008145D01*
X050366Y008265D01*
X050366Y008395D01*
X050316Y008516D01*
X050224Y008608D01*
X050104Y008658D01*
X049973Y008658D01*
X049866Y008614D01*
X049866Y008695D01*
X049816Y008816D01*
X049724Y008908D01*
X049604Y008958D01*
X049479Y008958D01*
X049167Y009270D01*
X045760Y009270D01*
X045857Y009367D01*
X045867Y009390D01*
X050460Y009390D01*
X051172Y008678D01*
X051162Y008655D01*
X051162Y008505D01*
X051219Y008367D01*
X051325Y008261D01*
X051463Y008204D01*
X051613Y008204D01*
X051751Y008261D01*
X051857Y008367D01*
X051915Y008505D01*
X051915Y008655D01*
X051857Y008793D01*
X051751Y008899D01*
X051613Y008956D01*
X051463Y008956D01*
X051440Y008947D01*
X050728Y009659D01*
X050622Y009765D01*
X051085Y009765D01*
X051172Y009678D01*
X051162Y009655D01*
X051162Y009505D01*
X051219Y009367D01*
X051325Y009261D01*
X051463Y009204D01*
X051613Y009204D01*
X051751Y009261D01*
X051857Y009367D01*
X051915Y009505D01*
X051915Y009655D01*
X051857Y009793D01*
X051751Y009899D01*
X051613Y009956D01*
X051463Y009956D01*
X051440Y009947D01*
X051353Y010034D01*
X051307Y010080D01*
X051353Y010126D01*
X051440Y010213D01*
X051463Y010204D01*
X051613Y010204D01*
X051751Y010261D01*
X051857Y010367D01*
X051867Y010390D01*
X051960Y010390D01*
X052912Y009438D01*
X052912Y009036D01*
X052994Y008954D01*
X053583Y008954D01*
X053665Y009036D01*
X053665Y009438D01*
X053742Y009515D01*
X055958Y009515D01*
X055912Y009405D01*
X055912Y009255D01*
X055969Y009117D01*
X056075Y009011D01*
X056213Y008954D01*
X056363Y008954D01*
X056386Y008963D01*
X056455Y008895D01*
X053585Y008895D01*
X053386Y008697D01*
X053363Y008706D01*
X053213Y008706D01*
X053075Y008649D01*
X052969Y008543D01*
X052912Y008405D01*
X052912Y008255D01*
X052969Y008117D01*
X053075Y008011D01*
X053213Y007954D01*
X053363Y007954D01*
X053501Y008011D01*
X053607Y008117D01*
X053665Y008255D01*
X053665Y008405D01*
X053655Y008428D01*
X053742Y008515D01*
X055958Y008515D01*
X055912Y008405D01*
X055912Y008255D01*
X055969Y008117D01*
X056075Y008011D01*
X056213Y007954D01*
X056363Y007954D01*
X056386Y007963D01*
X056585Y007765D01*
X060242Y007765D01*
X060353Y007876D01*
X060440Y007963D01*
X060463Y007954D01*
X060613Y007954D01*
X060751Y008011D01*
X060798Y008058D01*
X060798Y007602D01*
X060751Y007649D01*
X060613Y007706D01*
X060463Y007706D01*
X060325Y007649D01*
X060219Y007543D01*
X060210Y007520D01*
X057867Y007520D01*
X057857Y007543D01*
X057751Y007649D01*
X057613Y007706D01*
X057463Y007706D01*
X057325Y007649D01*
X057219Y007543D01*
X057162Y007405D01*
X057162Y007255D01*
X057219Y007117D01*
X057325Y007011D01*
X057463Y006954D01*
X057613Y006954D01*
X057751Y007011D01*
X057857Y007117D01*
X057867Y007140D01*
X060210Y007140D01*
X060219Y007117D01*
X060325Y007011D01*
X060463Y006954D01*
X060613Y006954D01*
X060751Y007011D01*
X060798Y007058D01*
X060798Y006602D01*
X060751Y006649D01*
X060613Y006706D01*
X060463Y006706D01*
X060325Y006649D01*
X060219Y006543D01*
X060162Y006405D01*
X060162Y006255D01*
X060172Y006232D01*
X060085Y006145D01*
X057869Y006145D01*
X057915Y006255D01*
X057915Y006405D01*
X057857Y006543D01*
X057751Y006649D01*
X057613Y006706D01*
X057463Y006706D01*
X057440Y006697D01*
X057353Y006784D01*
X057242Y006895D01*
X053585Y006895D01*
X053386Y006697D01*
X053363Y006706D01*
X053213Y006706D01*
X053075Y006649D01*
X052969Y006543D01*
X052912Y006405D01*
X052912Y006255D01*
X052933Y006204D01*
X052914Y006250D02*
X052887Y006250D01*
X052914Y006409D02*
X052729Y006409D01*
X052570Y006567D02*
X052993Y006567D01*
X053415Y006726D02*
X052412Y006726D01*
X052253Y006884D02*
X053574Y006884D01*
X053501Y007011D02*
X053607Y007117D01*
X053665Y007255D01*
X053665Y007405D01*
X053607Y007543D01*
X053501Y007649D01*
X053363Y007706D01*
X053213Y007706D01*
X053075Y007649D01*
X052969Y007543D01*
X052912Y007405D01*
X052912Y007255D01*
X052969Y007117D01*
X053075Y007011D01*
X053213Y006954D01*
X053363Y006954D01*
X053501Y007011D01*
X053533Y007043D02*
X056044Y007043D01*
X056075Y007011D02*
X056213Y006954D01*
X056363Y006954D01*
X056501Y007011D01*
X056607Y007117D01*
X056665Y007255D01*
X056665Y007405D01*
X056607Y007543D01*
X056501Y007649D01*
X056363Y007706D01*
X056213Y007706D01*
X056075Y007649D01*
X055969Y007543D01*
X055912Y007405D01*
X055912Y007255D01*
X055969Y007117D01*
X056075Y007011D01*
X055935Y007201D02*
X053642Y007201D01*
X053665Y007360D02*
X055912Y007360D01*
X055959Y007518D02*
X053618Y007518D01*
X053435Y007677D02*
X056142Y007677D01*
X056435Y007677D02*
X057392Y007677D01*
X057209Y007518D02*
X056618Y007518D01*
X056665Y007360D02*
X057162Y007360D01*
X057185Y007201D02*
X056642Y007201D01*
X056533Y007043D02*
X057294Y007043D01*
X057253Y006884D02*
X060798Y006884D01*
X060798Y006726D02*
X057412Y006726D01*
X057833Y006567D02*
X060243Y006567D01*
X060164Y006409D02*
X057913Y006409D01*
X057912Y006250D02*
X060164Y006250D01*
X060440Y005963D02*
X060463Y005954D01*
X060613Y005954D01*
X060751Y006011D01*
X060798Y006058D01*
X060798Y005602D01*
X060751Y005649D01*
X060613Y005706D01*
X060463Y005706D01*
X060325Y005649D01*
X060219Y005543D01*
X060162Y005405D01*
X060162Y005255D01*
X060172Y005232D01*
X060085Y005145D01*
X057869Y005145D01*
X057915Y005255D01*
X057915Y005405D01*
X057857Y005543D01*
X057751Y005649D01*
X057613Y005706D01*
X057463Y005706D01*
X057440Y005697D01*
X057372Y005765D01*
X060242Y005765D01*
X060440Y005963D01*
X060410Y005933D02*
X060798Y005933D01*
X060798Y005775D02*
X060252Y005775D01*
X060292Y005616D02*
X057784Y005616D01*
X057893Y005458D02*
X060184Y005458D01*
X060162Y005299D02*
X057915Y005299D01*
X056526Y004824D02*
X056051Y004824D01*
X055892Y004665D02*
X060798Y004665D01*
X060798Y004507D02*
X051734Y004507D01*
X051721Y004520D02*
X051356Y004520D01*
X051098Y004262D01*
X051098Y003898D01*
X051356Y003640D01*
X051721Y003640D01*
X051978Y003898D01*
X051978Y004262D01*
X051721Y004520D01*
X051893Y004348D02*
X060798Y004348D01*
X060798Y004190D02*
X051978Y004190D01*
X051978Y004031D02*
X060798Y004031D01*
X060798Y003873D02*
X051953Y003873D01*
X051795Y003714D02*
X060798Y003714D01*
X060798Y003556D02*
X047283Y003556D01*
X047124Y003397D02*
X060798Y003397D01*
X060798Y004824D02*
X060301Y004824D01*
X060681Y004982D02*
X060798Y004982D01*
X060784Y005616D02*
X060798Y005616D01*
X060783Y007043D02*
X060798Y007043D01*
X060294Y007043D02*
X057783Y007043D01*
X057685Y007677D02*
X060392Y007677D01*
X060312Y007835D02*
X060798Y007835D01*
X060798Y007677D02*
X060685Y007677D01*
X060709Y007994D02*
X060798Y007994D01*
X060172Y008232D02*
X060085Y008145D01*
X057869Y008145D01*
X057915Y008255D01*
X057915Y008405D01*
X057857Y008543D01*
X057751Y008649D01*
X057613Y008706D01*
X057463Y008706D01*
X057440Y008697D01*
X057372Y008765D01*
X060242Y008765D01*
X060353Y008876D01*
X060440Y008963D01*
X060463Y008954D01*
X060613Y008954D01*
X060751Y009011D01*
X060798Y009058D01*
X060798Y008602D01*
X060751Y008649D01*
X060613Y008706D01*
X060463Y008706D01*
X060325Y008649D01*
X060219Y008543D01*
X060162Y008405D01*
X060162Y008255D01*
X060172Y008232D01*
X060162Y008311D02*
X057915Y008311D01*
X057888Y008469D02*
X060189Y008469D01*
X060304Y008628D02*
X057773Y008628D01*
X057872Y008152D02*
X060092Y008152D01*
X060773Y008628D02*
X060798Y008628D01*
X060798Y008786D02*
X060263Y008786D01*
X060422Y008945D02*
X060798Y008945D01*
X060162Y009262D02*
X057915Y009262D01*
X057915Y009420D02*
X060168Y009420D01*
X060021Y009579D02*
X057915Y009579D01*
X057400Y009737D02*
X059863Y009737D01*
X059704Y009896D02*
X052992Y009896D01*
X053150Y009737D02*
X053427Y009737D01*
X053665Y009420D02*
X055918Y009420D01*
X055912Y009262D02*
X053665Y009262D01*
X053665Y009103D02*
X055983Y009103D01*
X056405Y008945D02*
X051641Y008945D01*
X051860Y008786D02*
X053476Y008786D01*
X053054Y008628D02*
X051915Y008628D01*
X051900Y008469D02*
X052939Y008469D01*
X052912Y008311D02*
X051801Y008311D01*
X051394Y007994D02*
X053118Y007994D01*
X052955Y008152D02*
X050320Y008152D01*
X050366Y008311D02*
X051276Y008311D01*
X051177Y008469D02*
X050336Y008469D01*
X050177Y008628D02*
X051162Y008628D01*
X051064Y008786D02*
X049829Y008786D01*
X049866Y008628D02*
X049899Y008628D01*
X049636Y008945D02*
X050905Y008945D01*
X050747Y009103D02*
X049334Y009103D01*
X049176Y009262D02*
X050588Y009262D01*
X050967Y009420D02*
X051197Y009420D01*
X051162Y009579D02*
X050809Y009579D01*
X050650Y009737D02*
X051113Y009737D01*
X051333Y010054D02*
X052296Y010054D01*
X052454Y009896D02*
X051755Y009896D01*
X051881Y009737D02*
X052613Y009737D01*
X052771Y009579D02*
X051915Y009579D01*
X051879Y009420D02*
X052912Y009420D01*
X052912Y009262D02*
X051752Y009262D01*
X051325Y009262D02*
X051126Y009262D01*
X051284Y009103D02*
X052912Y009103D01*
X052833Y010054D02*
X059546Y010054D01*
X059387Y010213D02*
X052675Y010213D01*
X052516Y010371D02*
X059229Y010371D01*
X059070Y010530D02*
X052358Y010530D01*
X052199Y010688D02*
X058912Y010688D01*
X058753Y010847D02*
X051804Y010847D01*
X051859Y010371D02*
X051979Y010371D01*
X052137Y010213D02*
X051634Y010213D01*
X051442Y010213D02*
X051440Y010213D01*
X051162Y010530D02*
X045915Y010530D01*
X045901Y010688D02*
X051176Y010688D01*
X051273Y010847D02*
X045804Y010847D01*
X045382Y011005D02*
X058595Y011005D01*
X058436Y011164D02*
X045224Y011164D01*
X045264Y011322D02*
X045065Y011322D01*
X045172Y011481D02*
X043904Y011481D01*
X043915Y011639D02*
X045162Y011639D01*
X045812Y011322D02*
X051264Y011322D01*
X051172Y011481D02*
X045904Y011481D01*
X045915Y011639D02*
X051162Y011639D01*
X051853Y011798D02*
X057802Y011798D01*
X057644Y011956D02*
X051614Y011956D01*
X051463Y011956D02*
X051440Y011947D01*
X051273Y012115D02*
X057485Y012115D01*
X057327Y012273D02*
X051763Y012273D01*
X051751Y012261D02*
X051857Y012367D01*
X051915Y012505D01*
X051915Y012655D01*
X051857Y012793D01*
X051751Y012899D01*
X051613Y012956D01*
X051463Y012956D01*
X051325Y012899D01*
X051219Y012793D01*
X051162Y012655D01*
X051162Y012505D01*
X051219Y012367D01*
X051325Y012261D01*
X051463Y012204D01*
X051613Y012204D01*
X051751Y012261D01*
X051884Y012432D02*
X057168Y012432D01*
X057010Y012590D02*
X051915Y012590D01*
X051876Y012749D02*
X056851Y012749D01*
X056693Y012907D02*
X051732Y012907D01*
X051662Y013224D02*
X056376Y013224D01*
X056534Y013066D02*
X045322Y013066D01*
X045224Y013224D02*
X045163Y013224D01*
X045162Y013383D02*
X045005Y013383D01*
X045162Y013541D02*
X043915Y013541D01*
X043896Y013700D02*
X045150Y013700D01*
X044992Y013858D02*
X043792Y013858D01*
X045212Y014175D02*
X045865Y014175D01*
X045706Y014017D02*
X045371Y014017D01*
X045927Y013700D02*
X051181Y013700D01*
X051162Y013541D02*
X045915Y013541D01*
X045915Y013383D02*
X051213Y013383D01*
X051415Y013224D02*
X045853Y013224D01*
X045732Y012907D02*
X051345Y012907D01*
X051201Y012749D02*
X045876Y012749D01*
X045915Y012590D02*
X051162Y012590D01*
X051193Y012432D02*
X045884Y012432D01*
X045763Y012273D02*
X051313Y012273D01*
X051915Y011639D02*
X057961Y011639D01*
X058119Y011481D02*
X051904Y011481D01*
X051812Y011322D02*
X058278Y011322D01*
X058498Y011639D02*
X060798Y011639D01*
X060798Y011481D02*
X058657Y011481D01*
X058815Y011322D02*
X060798Y011322D01*
X060798Y011164D02*
X058974Y011164D01*
X059132Y011005D02*
X060798Y011005D01*
X060798Y010847D02*
X059291Y010847D01*
X059449Y010688D02*
X060798Y010688D01*
X060798Y010530D02*
X059608Y010530D01*
X059766Y010371D02*
X060798Y010371D01*
X060798Y010213D02*
X059925Y010213D01*
X060083Y010054D02*
X060798Y010054D01*
X060798Y009896D02*
X060242Y009896D01*
X060400Y009737D02*
X060798Y009737D01*
X056515Y007835D02*
X051815Y007835D01*
X051906Y007677D02*
X053142Y007677D01*
X052959Y007518D02*
X051915Y007518D01*
X051850Y007360D02*
X052912Y007360D01*
X052935Y007201D02*
X051936Y007201D01*
X052095Y007043D02*
X053044Y007043D01*
X053663Y006409D02*
X055914Y006409D01*
X055914Y006250D02*
X053662Y006250D01*
X053582Y006092D02*
X055995Y006092D01*
X053464Y005775D02*
X053113Y005775D01*
X052075Y005775D02*
X044228Y005775D01*
X044228Y005933D02*
X051917Y005933D01*
X051758Y006092D02*
X044228Y006092D01*
X044137Y006250D02*
X045352Y006250D01*
X045202Y006409D02*
X043979Y006409D01*
X043915Y006567D02*
X045162Y006567D01*
X045191Y006726D02*
X043953Y006726D01*
X045725Y006250D02*
X051352Y006250D01*
X051202Y006409D02*
X045875Y006409D01*
X045915Y006567D02*
X051162Y006567D01*
X051124Y006726D02*
X045885Y006726D01*
X045721Y005520D02*
X045356Y005520D01*
X045098Y005262D01*
X045098Y004898D01*
X045356Y004640D01*
X045721Y004640D01*
X045978Y004898D01*
X045978Y005262D01*
X045721Y005520D01*
X045783Y005458D02*
X046294Y005458D01*
X046356Y005520D02*
X046098Y005262D01*
X046098Y004898D01*
X046356Y004640D01*
X046721Y004640D01*
X046978Y004898D01*
X046978Y005262D01*
X046721Y005520D01*
X046356Y005520D01*
X046135Y005299D02*
X045942Y005299D01*
X045978Y005141D02*
X046098Y005141D01*
X046098Y004982D02*
X045978Y004982D01*
X045904Y004824D02*
X046173Y004824D01*
X046331Y004665D02*
X045746Y004665D01*
X045734Y004507D02*
X046343Y004507D01*
X046184Y004348D02*
X045893Y004348D01*
X045978Y004190D02*
X046098Y004190D01*
X046098Y004031D02*
X045978Y004031D01*
X045953Y003873D02*
X046124Y003873D01*
X045124Y003873D02*
X044953Y003873D01*
X044978Y004031D02*
X045098Y004031D01*
X045098Y004190D02*
X044978Y004190D01*
X044893Y004348D02*
X045184Y004348D01*
X045343Y004507D02*
X044734Y004507D01*
X044746Y004665D02*
X045331Y004665D01*
X045173Y004824D02*
X044904Y004824D01*
X044978Y004982D02*
X045098Y004982D01*
X045098Y005141D02*
X044978Y005141D01*
X044942Y005299D02*
X045135Y005299D01*
X045294Y005458D02*
X044783Y005458D01*
X043294Y005458D02*
X042783Y005458D01*
X042721Y005520D02*
X042356Y005520D01*
X042098Y005262D01*
X042098Y004898D01*
X042356Y004640D01*
X042721Y004640D01*
X042978Y004898D01*
X042978Y005262D01*
X042721Y005520D01*
X042942Y005299D02*
X043135Y005299D01*
X043098Y005141D02*
X042978Y005141D01*
X042978Y004982D02*
X043098Y004982D01*
X043173Y004824D02*
X042904Y004824D01*
X042746Y004665D02*
X043331Y004665D01*
X043343Y004507D02*
X042734Y004507D01*
X042893Y004348D02*
X043184Y004348D01*
X043098Y004190D02*
X042978Y004190D01*
X042978Y004031D02*
X043098Y004031D01*
X043124Y003873D02*
X042953Y003873D01*
X042124Y003873D02*
X039140Y003873D01*
X038981Y004031D02*
X042098Y004031D01*
X042098Y004190D02*
X038823Y004190D01*
X038664Y004348D02*
X042184Y004348D01*
X042343Y004507D02*
X038506Y004507D01*
X038347Y004665D02*
X042331Y004665D01*
X042173Y004824D02*
X038189Y004824D01*
X038030Y004982D02*
X042098Y004982D01*
X042098Y005141D02*
X037872Y005141D01*
X037713Y005299D02*
X042135Y005299D01*
X042294Y005458D02*
X037555Y005458D01*
X037334Y005141D02*
X029872Y005141D01*
X029713Y005299D02*
X037176Y005299D01*
X037017Y005458D02*
X029555Y005458D01*
X029396Y005616D02*
X036663Y005616D01*
X036585Y005775D02*
X029365Y005775D01*
X029274Y005933D02*
X036601Y005933D01*
X036711Y006092D02*
X020228Y006092D01*
X020228Y006250D02*
X021352Y006250D01*
X021325Y006261D02*
X021463Y006204D01*
X021613Y006204D01*
X021751Y006261D01*
X021857Y006367D01*
X021915Y006505D01*
X021915Y006655D01*
X021857Y006793D01*
X021751Y006899D01*
X021613Y006956D01*
X021463Y006956D01*
X021325Y006899D01*
X021219Y006793D01*
X021162Y006655D01*
X021162Y006505D01*
X021219Y006367D01*
X021325Y006261D01*
X021202Y006409D02*
X020228Y006409D01*
X020228Y006567D02*
X021162Y006567D01*
X021191Y006726D02*
X020228Y006726D01*
X020228Y006884D02*
X021310Y006884D01*
X021766Y006884D02*
X027310Y006884D01*
X027191Y006726D02*
X021885Y006726D01*
X021915Y006567D02*
X027162Y006567D01*
X027202Y006409D02*
X021875Y006409D01*
X021725Y006250D02*
X027352Y006250D01*
X027725Y006250D02*
X029352Y006250D01*
X029202Y006409D02*
X027875Y006409D01*
X027915Y006567D02*
X029162Y006567D01*
X029191Y006726D02*
X027953Y006726D01*
X028802Y005933D02*
X020228Y005933D01*
X020228Y005775D02*
X028712Y005775D01*
X028720Y005616D02*
X020228Y005616D01*
X020228Y005458D02*
X028822Y005458D01*
X029176Y005299D02*
X020228Y005299D01*
X020118Y005141D02*
X029334Y005141D01*
X029493Y004982D02*
X019959Y004982D01*
X019801Y004824D02*
X029651Y004824D01*
X029810Y004665D02*
X019642Y004665D01*
X019484Y004507D02*
X029968Y004507D01*
X030127Y004348D02*
X019325Y004348D01*
X019228Y004190D02*
X030285Y004190D01*
X030444Y004031D02*
X019228Y004031D01*
X019203Y003873D02*
X030602Y003873D01*
X030761Y003714D02*
X019045Y003714D01*
X018532Y003714D02*
X018045Y003714D01*
X017971Y003640D02*
X018228Y003898D01*
X018228Y004262D01*
X017971Y004520D01*
X017606Y004520D01*
X017348Y004262D01*
X017348Y003898D01*
X017606Y003640D01*
X017971Y003640D01*
X018203Y003873D02*
X018374Y003873D01*
X018348Y004031D02*
X018228Y004031D01*
X018228Y004190D02*
X018348Y004190D01*
X018434Y004348D02*
X018143Y004348D01*
X017984Y004507D02*
X018593Y004507D01*
X018581Y004665D02*
X018052Y004665D01*
X017987Y004600D02*
X018268Y004881D01*
X018268Y005060D01*
X017808Y005060D01*
X017808Y004600D01*
X017987Y004600D01*
X017808Y004665D02*
X017768Y004665D01*
X017768Y004600D02*
X017768Y005060D01*
X017308Y005060D01*
X017308Y004881D01*
X017589Y004600D01*
X017768Y004600D01*
X017593Y004507D02*
X016984Y004507D01*
X016971Y004520D02*
X016606Y004520D01*
X016348Y004262D01*
X016348Y003898D01*
X016606Y003640D01*
X016971Y003640D01*
X017228Y003898D01*
X017228Y004262D01*
X016971Y004520D01*
X016971Y004640D02*
X017228Y004898D01*
X017228Y005262D01*
X016971Y005520D01*
X016606Y005520D01*
X016348Y005262D01*
X016348Y004898D01*
X016606Y004640D01*
X016971Y004640D01*
X016996Y004665D02*
X017524Y004665D01*
X017366Y004824D02*
X017154Y004824D01*
X017228Y004982D02*
X017308Y004982D01*
X017308Y005100D02*
X017768Y005100D01*
X017768Y005060D01*
X017808Y005060D01*
X017808Y005100D01*
X017768Y005100D01*
X017768Y005560D01*
X017589Y005560D01*
X017308Y005279D01*
X017308Y005100D01*
X017308Y005141D02*
X017228Y005141D01*
X017192Y005299D02*
X017329Y005299D01*
X017487Y005458D02*
X017033Y005458D01*
X016544Y005458D02*
X016033Y005458D01*
X015971Y005520D02*
X015606Y005520D01*
X015348Y005262D01*
X015348Y004898D01*
X015606Y004640D01*
X015971Y004640D01*
X016228Y004898D01*
X016228Y005262D01*
X015971Y005520D01*
X016192Y005299D02*
X016385Y005299D01*
X016348Y005141D02*
X016228Y005141D01*
X016228Y004982D02*
X016348Y004982D01*
X016423Y004824D02*
X016154Y004824D01*
X015996Y004665D02*
X016581Y004665D01*
X016593Y004507D02*
X015984Y004507D01*
X015971Y004520D02*
X015606Y004520D01*
X015348Y004262D01*
X015348Y003898D01*
X015606Y003640D01*
X015971Y003640D01*
X016228Y003898D01*
X016228Y004262D01*
X015971Y004520D01*
X016143Y004348D02*
X016434Y004348D01*
X016348Y004190D02*
X016228Y004190D01*
X016228Y004031D02*
X016348Y004031D01*
X016374Y003873D02*
X016203Y003873D01*
X016045Y003714D02*
X016532Y003714D01*
X017045Y003714D02*
X017532Y003714D01*
X017374Y003873D02*
X017203Y003873D01*
X017228Y004031D02*
X017348Y004031D01*
X017348Y004190D02*
X017228Y004190D01*
X017143Y004348D02*
X017434Y004348D01*
X017768Y004824D02*
X017808Y004824D01*
X017808Y004982D02*
X017768Y004982D01*
X017808Y005100D02*
X018268Y005100D01*
X018268Y005279D01*
X017987Y005560D01*
X017808Y005560D01*
X017808Y005100D01*
X017808Y005141D02*
X017768Y005141D01*
X017768Y005299D02*
X017808Y005299D01*
X017808Y005458D02*
X017768Y005458D01*
X018090Y005458D02*
X018544Y005458D01*
X018385Y005299D02*
X018248Y005299D01*
X018268Y005141D02*
X018348Y005141D01*
X018348Y004982D02*
X018268Y004982D01*
X018211Y004824D02*
X018423Y004824D01*
X018996Y004665D02*
X019105Y004665D01*
X019154Y004824D02*
X019263Y004824D01*
X019228Y004982D02*
X019422Y004982D01*
X019580Y005141D02*
X019243Y005141D01*
X019401Y005299D02*
X019739Y005299D01*
X019848Y005458D02*
X019560Y005458D01*
X019718Y005616D02*
X019848Y005616D01*
X019598Y006409D02*
X019478Y006409D01*
X019598Y006567D02*
X014070Y006567D01*
X013850Y006250D02*
X012875Y006250D01*
X012915Y006092D02*
X013912Y006092D01*
X013942Y005933D02*
X012885Y005933D01*
X012765Y005775D02*
X014062Y005775D01*
X013971Y005520D02*
X013606Y005520D01*
X013348Y005262D01*
X013348Y004898D01*
X013606Y004640D01*
X013971Y004640D01*
X014228Y004898D01*
X014228Y005262D01*
X013971Y005520D01*
X014033Y005458D02*
X014544Y005458D01*
X014606Y005520D02*
X014348Y005262D01*
X014348Y004898D01*
X014606Y004640D01*
X014971Y004640D01*
X015228Y004898D01*
X015228Y005262D01*
X014971Y005520D01*
X014606Y005520D01*
X014385Y005299D02*
X014192Y005299D01*
X014228Y005141D02*
X014348Y005141D01*
X014348Y004982D02*
X014228Y004982D01*
X014154Y004824D02*
X014423Y004824D01*
X014581Y004665D02*
X013996Y004665D01*
X013971Y004520D02*
X013606Y004520D01*
X013348Y004262D01*
X013348Y003898D01*
X013606Y003640D01*
X013971Y003640D01*
X014228Y003898D01*
X014228Y004262D01*
X013971Y004520D01*
X013984Y004507D02*
X014593Y004507D01*
X014606Y004520D02*
X014348Y004262D01*
X014348Y003898D01*
X014606Y003640D01*
X014971Y003640D01*
X015228Y003898D01*
X015228Y004262D01*
X014971Y004520D01*
X014606Y004520D01*
X014434Y004348D02*
X014143Y004348D01*
X014228Y004190D02*
X014348Y004190D01*
X014348Y004031D02*
X014228Y004031D01*
X014203Y003873D02*
X014374Y003873D01*
X014532Y003714D02*
X014045Y003714D01*
X013532Y003714D02*
X013045Y003714D01*
X012971Y003640D02*
X013228Y003898D01*
X013228Y004262D01*
X012971Y004520D01*
X012606Y004520D01*
X012348Y004262D01*
X012348Y003898D01*
X012606Y003640D01*
X012971Y003640D01*
X013203Y003873D02*
X013374Y003873D01*
X013348Y004031D02*
X013228Y004031D01*
X013228Y004190D02*
X013348Y004190D01*
X013434Y004348D02*
X013143Y004348D01*
X012984Y004507D02*
X013593Y004507D01*
X013581Y004665D02*
X012996Y004665D01*
X012971Y004640D02*
X013228Y004898D01*
X013228Y005262D01*
X012971Y005520D01*
X012606Y005520D01*
X012348Y005262D01*
X012348Y004898D01*
X012606Y004640D01*
X012971Y004640D01*
X013154Y004824D02*
X013423Y004824D01*
X013348Y004982D02*
X013228Y004982D01*
X013228Y005141D02*
X013348Y005141D01*
X013385Y005299D02*
X013192Y005299D01*
X013033Y005458D02*
X013544Y005458D01*
X012544Y005458D02*
X012033Y005458D01*
X011971Y005520D02*
X011606Y005520D01*
X011348Y005262D01*
X011348Y004898D01*
X011606Y004640D01*
X011971Y004640D01*
X012228Y004898D01*
X012228Y005262D01*
X011971Y005520D01*
X012192Y005299D02*
X012385Y005299D01*
X012348Y005141D02*
X012228Y005141D01*
X012228Y004982D02*
X012348Y004982D01*
X012423Y004824D02*
X012154Y004824D01*
X011996Y004665D02*
X012581Y004665D01*
X012593Y004507D02*
X011984Y004507D01*
X011971Y004520D02*
X011606Y004520D01*
X011348Y004262D01*
X011348Y003898D01*
X011606Y003640D01*
X011971Y003640D01*
X012228Y003898D01*
X012228Y004262D01*
X011971Y004520D01*
X012143Y004348D02*
X012434Y004348D01*
X012348Y004190D02*
X012228Y004190D01*
X012228Y004031D02*
X012348Y004031D01*
X012374Y003873D02*
X012203Y003873D01*
X012045Y003714D02*
X012532Y003714D01*
X011532Y003714D02*
X011045Y003714D01*
X010971Y003640D02*
X011228Y003898D01*
X011228Y004262D01*
X010971Y004520D01*
X010606Y004520D01*
X010348Y004262D01*
X010348Y003898D01*
X010606Y003640D01*
X010971Y003640D01*
X011203Y003873D02*
X011374Y003873D01*
X011348Y004031D02*
X011228Y004031D01*
X011228Y004190D02*
X011348Y004190D01*
X011434Y004348D02*
X011143Y004348D01*
X010984Y004507D02*
X011593Y004507D01*
X011581Y004665D02*
X010996Y004665D01*
X010971Y004640D02*
X011228Y004898D01*
X011228Y005262D01*
X010971Y005520D01*
X010606Y005520D01*
X010348Y005262D01*
X010348Y004898D01*
X010606Y004640D01*
X010971Y004640D01*
X011154Y004824D02*
X011423Y004824D01*
X011348Y004982D02*
X011228Y004982D01*
X011228Y005141D02*
X011348Y005141D01*
X011385Y005299D02*
X011192Y005299D01*
X011033Y005458D02*
X011544Y005458D01*
X012312Y005775D02*
X007765Y005775D01*
X007885Y005933D02*
X012192Y005933D01*
X012162Y006092D02*
X007915Y006092D01*
X007977Y006250D02*
X012202Y006250D01*
X012208Y006895D02*
X007992Y006895D01*
X007905Y006982D01*
X007915Y007005D01*
X007915Y007155D01*
X007869Y007265D01*
X012085Y007265D01*
X012172Y007178D01*
X012162Y007155D01*
X012162Y007005D01*
X012208Y006895D01*
X012162Y007043D02*
X007915Y007043D01*
X007895Y007201D02*
X012149Y007201D01*
X012208Y007895D02*
X007992Y007895D01*
X007905Y007982D01*
X007915Y008005D01*
X007915Y008155D01*
X007869Y008265D01*
X012085Y008265D01*
X012172Y008178D01*
X012162Y008155D01*
X012162Y008005D01*
X012208Y007895D01*
X012167Y007994D02*
X007910Y007994D01*
X007915Y008152D02*
X012162Y008152D01*
X012208Y008895D02*
X007992Y008895D01*
X007905Y008982D01*
X007915Y009005D01*
X007915Y009155D01*
X007869Y009265D01*
X012085Y009265D01*
X012172Y009178D01*
X012162Y009155D01*
X012162Y009005D01*
X012208Y008895D01*
X012187Y008945D02*
X007943Y008945D01*
X007915Y009103D02*
X012162Y009103D01*
X012088Y009262D02*
X007870Y009262D01*
X006268Y009579D02*
X000521Y009579D01*
X000521Y009737D02*
X000883Y009737D01*
X000708Y009896D02*
X000521Y009896D01*
X000521Y010054D02*
X000662Y010054D01*
X000686Y010213D02*
X000521Y010213D01*
X000521Y010371D02*
X000797Y010371D01*
X000521Y010530D02*
X001219Y010530D01*
X001337Y010847D02*
X005740Y010847D01*
X006162Y010688D02*
X000521Y010688D01*
X000521Y010847D02*
X000740Y010847D01*
X000666Y011164D02*
X000521Y011164D01*
X000521Y011322D02*
X000748Y011322D01*
X000521Y011481D02*
X001170Y011481D01*
X001211Y011639D02*
X000521Y011639D01*
X000521Y011798D02*
X000789Y011798D01*
X000682Y011956D02*
X000521Y011956D01*
X000521Y012115D02*
X000662Y012115D01*
X000711Y012273D02*
X000521Y012273D01*
X000521Y012432D02*
X000904Y012432D01*
X001173Y012432D02*
X005904Y012432D01*
X005711Y012273D02*
X001366Y012273D01*
X001415Y012115D02*
X005662Y012115D01*
X005682Y011956D02*
X001431Y011956D01*
X000521Y012590D02*
X006260Y012590D01*
X005855Y012749D02*
X001221Y012749D01*
X001374Y012907D02*
X005703Y012907D01*
X005662Y013066D02*
X001415Y013066D01*
X001451Y013224D02*
X005691Y013224D01*
X005809Y013383D02*
X001610Y013383D01*
X001389Y013700D02*
X000521Y013700D01*
X000521Y013858D02*
X000662Y013858D01*
X000662Y014017D02*
X000521Y014017D01*
X000521Y014175D02*
X000662Y014175D01*
X000662Y014334D02*
X000521Y014334D01*
X000521Y014492D02*
X001182Y014492D01*
X001340Y014651D02*
X000521Y014651D01*
X000521Y014809D02*
X001499Y014809D01*
X001719Y014492D02*
X006858Y014492D01*
X007016Y014334D02*
X006317Y014334D01*
X006406Y014175D02*
X007162Y014175D01*
X007162Y014017D02*
X006415Y014017D01*
X006348Y013858D02*
X007162Y013858D01*
X007188Y013700D02*
X007889Y013700D01*
X007915Y013858D02*
X012228Y013858D01*
X012162Y014017D02*
X007915Y014017D01*
X007915Y014175D02*
X012170Y014175D01*
X012260Y014334D02*
X008061Y014334D01*
X008219Y014492D02*
X013608Y014492D01*
X013766Y014334D02*
X012817Y014334D01*
X013712Y014175D02*
X013912Y014175D01*
X013912Y014017D02*
X013871Y014017D01*
X013986Y014651D02*
X060798Y014651D01*
X060798Y014809D02*
X013828Y014809D01*
X012316Y013390D02*
X012219Y013293D01*
X012162Y013155D01*
X012162Y013005D01*
X012172Y012982D01*
X012085Y012895D01*
X007869Y012895D01*
X007915Y013005D01*
X007915Y013155D01*
X007905Y013178D01*
X008117Y013390D01*
X012316Y013390D01*
X012309Y013383D02*
X008110Y013383D01*
X007951Y013224D02*
X012191Y013224D01*
X012162Y013066D02*
X007915Y013066D01*
X007874Y012907D02*
X012097Y012907D01*
X012085Y012265D02*
X012172Y012178D01*
X012162Y012155D01*
X012162Y012005D01*
X012208Y011895D01*
X007992Y011895D01*
X007905Y011982D01*
X007915Y012005D01*
X007915Y012155D01*
X007869Y012265D01*
X012085Y012265D01*
X012162Y012115D02*
X007915Y012115D01*
X007931Y011956D02*
X012182Y011956D01*
X012208Y011265D02*
X012162Y011155D01*
X012162Y011005D01*
X007914Y011005D01*
X007915Y011005D02*
X007869Y010895D01*
X012085Y010895D01*
X012172Y010982D01*
X012162Y011005D01*
X012166Y011164D02*
X007911Y011164D01*
X007915Y011155D02*
X007905Y011178D01*
X007992Y011265D01*
X012208Y011265D01*
X012208Y010265D02*
X012162Y010155D01*
X012162Y010005D01*
X012172Y009982D01*
X012085Y009895D01*
X007869Y009895D01*
X007915Y010005D01*
X007915Y010155D01*
X007905Y010178D01*
X007992Y010265D01*
X012208Y010265D01*
X012186Y010213D02*
X007940Y010213D01*
X007915Y010054D02*
X012162Y010054D01*
X012085Y009896D02*
X007869Y009896D01*
X005883Y009737D02*
X001193Y009737D01*
X001369Y009896D02*
X005708Y009896D01*
X005662Y010054D02*
X001415Y010054D01*
X001440Y010213D02*
X005686Y010213D01*
X005876Y009420D02*
X001201Y009420D01*
X001370Y009262D02*
X005706Y009262D01*
X005662Y009103D02*
X001415Y009103D01*
X001443Y008945D02*
X005687Y008945D01*
X005737Y008311D02*
X001340Y008311D01*
X001415Y008152D02*
X005662Y008152D01*
X005667Y007994D02*
X001410Y007994D01*
X000751Y007835D02*
X000521Y007835D01*
X000521Y007677D02*
X001173Y007677D01*
X001332Y007518D02*
X000521Y007518D01*
X000521Y007360D02*
X000786Y007360D01*
X000681Y007201D02*
X000521Y007201D01*
X000521Y007043D02*
X000662Y007043D01*
X000712Y006884D02*
X000521Y006884D01*
X000521Y006726D02*
X000911Y006726D01*
X000848Y006409D02*
X000521Y006409D01*
X000521Y006567D02*
X001257Y006567D01*
X001477Y006250D02*
X005702Y006250D01*
X005662Y006092D02*
X001415Y006092D01*
X001385Y005933D02*
X005692Y005933D01*
X005812Y005775D02*
X001265Y005775D01*
X000812Y005775D02*
X000521Y005775D01*
X000521Y005933D02*
X000692Y005933D01*
X000662Y006092D02*
X000521Y006092D01*
X000521Y006250D02*
X000702Y006250D01*
X001415Y007043D02*
X005662Y007043D01*
X005681Y007201D02*
X001395Y007201D01*
X001291Y007360D02*
X005786Y007360D01*
X006159Y008469D02*
X000521Y008469D01*
X000521Y008311D02*
X000737Y008311D01*
X000662Y008152D02*
X000521Y008152D01*
X000521Y007994D02*
X000667Y007994D01*
X000521Y008628D02*
X001222Y008628D01*
X000800Y008786D02*
X000521Y008786D01*
X000521Y008945D02*
X000687Y008945D01*
X000662Y009103D02*
X000521Y009103D01*
X000521Y009262D02*
X000706Y009262D01*
X000876Y009420D02*
X000521Y009420D01*
X006375Y006250D02*
X007100Y006250D01*
X007162Y006092D02*
X006415Y006092D01*
X006385Y005933D02*
X007192Y005933D01*
X007312Y005775D02*
X006265Y005775D01*
X009996Y004665D02*
X010581Y004665D01*
X010593Y004507D02*
X009984Y004507D01*
X010143Y004348D02*
X010434Y004348D01*
X010348Y004190D02*
X010228Y004190D01*
X010228Y004031D02*
X010348Y004031D01*
X010374Y003873D02*
X010203Y003873D01*
X010045Y003714D02*
X010532Y003714D01*
X010423Y004824D02*
X010154Y004824D01*
X010228Y004982D02*
X010348Y004982D01*
X010348Y005141D02*
X010228Y005141D01*
X010192Y005299D02*
X010385Y005299D01*
X010544Y005458D02*
X010033Y005458D01*
X015033Y005458D02*
X015544Y005458D01*
X015385Y005299D02*
X015192Y005299D01*
X015228Y005141D02*
X015348Y005141D01*
X015348Y004982D02*
X015228Y004982D01*
X015154Y004824D02*
X015423Y004824D01*
X015581Y004665D02*
X014996Y004665D01*
X014984Y004507D02*
X015593Y004507D01*
X015434Y004348D02*
X015143Y004348D01*
X015228Y004190D02*
X015348Y004190D01*
X015348Y004031D02*
X015228Y004031D01*
X015203Y003873D02*
X015374Y003873D01*
X015532Y003714D02*
X015045Y003714D01*
X019416Y006726D02*
X019598Y006726D01*
X019598Y007360D02*
X019541Y007360D01*
X020228Y007360D02*
X021227Y007360D01*
X021162Y007518D02*
X020228Y007518D01*
X020228Y007677D02*
X021171Y007677D01*
X021261Y007835D02*
X020228Y007835D01*
X020228Y007994D02*
X027683Y007994D01*
X027801Y008311D02*
X029276Y008311D01*
X029325Y008261D02*
X029463Y008204D01*
X029613Y008204D01*
X029751Y008261D01*
X029857Y008367D01*
X029915Y008505D01*
X029915Y008655D01*
X029857Y008793D01*
X029751Y008899D01*
X029613Y008956D01*
X029463Y008956D01*
X029325Y008899D01*
X029219Y008793D01*
X029162Y008655D01*
X029162Y008505D01*
X029219Y008367D01*
X029325Y008261D01*
X029177Y008469D02*
X027900Y008469D01*
X027915Y008628D02*
X029162Y008628D01*
X029216Y008786D02*
X027860Y008786D01*
X027641Y008945D02*
X029435Y008945D01*
X029641Y008945D02*
X035435Y008945D01*
X035216Y008786D02*
X029860Y008786D01*
X029915Y008628D02*
X035162Y008628D01*
X035177Y008469D02*
X029900Y008469D01*
X029801Y008311D02*
X035276Y008311D01*
X035394Y007994D02*
X035683Y007994D01*
X035801Y008311D02*
X037276Y008311D01*
X037177Y008469D02*
X035900Y008469D01*
X035915Y008628D02*
X037162Y008628D01*
X037216Y008786D02*
X036013Y008786D01*
X035325Y009262D02*
X029752Y009262D01*
X029879Y009420D02*
X035197Y009420D01*
X035162Y009579D02*
X029915Y009579D01*
X029881Y009737D02*
X035113Y009737D01*
X035162Y010530D02*
X029915Y010530D01*
X029915Y010688D02*
X035176Y010688D01*
X035172Y011481D02*
X029904Y011481D01*
X029915Y011639D02*
X035162Y011639D01*
X035440Y011947D02*
X035463Y011956D01*
X035614Y011956D02*
X035646Y011956D01*
X035763Y012273D02*
X037313Y012273D01*
X037193Y012432D02*
X035884Y012432D01*
X035915Y012590D02*
X037162Y012590D01*
X037101Y012749D02*
X035876Y012749D01*
X035732Y012907D02*
X036943Y012907D01*
X037915Y012590D02*
X043162Y012590D01*
X043162Y012655D02*
X043162Y012505D01*
X043219Y012367D01*
X043325Y012261D01*
X043463Y012204D01*
X043613Y012204D01*
X043751Y012261D01*
X043857Y012367D01*
X043915Y012505D01*
X043915Y012655D01*
X043857Y012793D01*
X043751Y012899D01*
X043613Y012956D01*
X043463Y012956D01*
X043325Y012899D01*
X043219Y012793D01*
X043162Y012655D01*
X043201Y012749D02*
X037976Y012749D01*
X038134Y012907D02*
X043345Y012907D01*
X043732Y012907D02*
X044943Y012907D01*
X045101Y012749D02*
X043876Y012749D01*
X043915Y012590D02*
X045162Y012590D01*
X045193Y012432D02*
X043884Y012432D01*
X043763Y012273D02*
X045313Y012273D01*
X043804Y012115D02*
X043273Y012115D01*
X043313Y012273D02*
X037763Y012273D01*
X037884Y012432D02*
X043193Y012432D01*
X043440Y011947D02*
X043463Y011956D01*
X043614Y011956D02*
X043646Y011956D01*
X043901Y010688D02*
X045162Y010688D01*
X045162Y010530D02*
X043915Y010530D01*
X045760Y008890D02*
X049010Y008890D01*
X049210Y008689D01*
X049210Y008565D01*
X049260Y008444D01*
X049309Y008395D01*
X045869Y008395D01*
X045915Y008505D01*
X045915Y008655D01*
X045857Y008793D01*
X045760Y008890D01*
X045860Y008786D02*
X049114Y008786D01*
X049210Y008628D02*
X045915Y008628D01*
X045900Y008469D02*
X049250Y008469D01*
X051345Y007043D02*
X051557Y007043D01*
X053459Y007994D02*
X056118Y007994D01*
X055955Y008152D02*
X053622Y008152D01*
X053665Y008311D02*
X055912Y008311D01*
X055939Y008469D02*
X053696Y008469D01*
X051294Y005458D02*
X050783Y005458D01*
X050721Y005520D02*
X050978Y005262D01*
X050978Y004898D01*
X050721Y004640D01*
X050356Y004640D01*
X050098Y004898D01*
X050098Y005262D01*
X050356Y005520D01*
X050721Y005520D01*
X050942Y005299D02*
X051135Y005299D01*
X051098Y005141D02*
X050978Y005141D01*
X050978Y004982D02*
X051098Y004982D01*
X051173Y004824D02*
X050904Y004824D01*
X050746Y004665D02*
X051331Y004665D01*
X051343Y004507D02*
X050734Y004507D01*
X050721Y004520D02*
X050356Y004520D01*
X050098Y004262D01*
X050098Y003898D01*
X050356Y003640D01*
X050721Y003640D01*
X050978Y003898D01*
X050978Y004262D01*
X050721Y004520D01*
X050893Y004348D02*
X051184Y004348D01*
X051098Y004190D02*
X050978Y004190D01*
X050978Y004031D02*
X051098Y004031D01*
X051124Y003873D02*
X050953Y003873D01*
X050795Y003714D02*
X051282Y003714D01*
X050282Y003714D02*
X049795Y003714D01*
X049721Y003640D02*
X049978Y003898D01*
X049978Y004262D01*
X049721Y004520D01*
X049356Y004520D01*
X049098Y004262D01*
X049098Y003898D01*
X049356Y003640D01*
X049721Y003640D01*
X049953Y003873D02*
X050124Y003873D01*
X050098Y004031D02*
X049978Y004031D01*
X049978Y004190D02*
X050098Y004190D01*
X050184Y004348D02*
X049893Y004348D01*
X049734Y004507D02*
X050343Y004507D01*
X050331Y004665D02*
X049746Y004665D01*
X049721Y004640D02*
X049978Y004898D01*
X049978Y005262D01*
X049721Y005520D01*
X049356Y005520D01*
X049098Y005262D01*
X049098Y004898D01*
X049356Y004640D01*
X049721Y004640D01*
X049904Y004824D02*
X050173Y004824D01*
X050098Y004982D02*
X049978Y004982D01*
X049978Y005141D02*
X050098Y005141D01*
X050135Y005299D02*
X049942Y005299D01*
X049783Y005458D02*
X050294Y005458D01*
X049294Y005458D02*
X048783Y005458D01*
X048721Y005520D02*
X048356Y005520D01*
X048098Y005262D01*
X048098Y004898D01*
X048356Y004640D01*
X048721Y004640D01*
X048978Y004898D01*
X048978Y005262D01*
X048721Y005520D01*
X048942Y005299D02*
X049135Y005299D01*
X049098Y005141D02*
X048978Y005141D01*
X048978Y004982D02*
X049098Y004982D01*
X049173Y004824D02*
X048904Y004824D01*
X048746Y004665D02*
X049331Y004665D01*
X049343Y004507D02*
X048734Y004507D01*
X048721Y004520D02*
X048356Y004520D01*
X048098Y004262D01*
X048098Y003898D01*
X048356Y003640D01*
X048721Y003640D01*
X048978Y003898D01*
X048978Y004262D01*
X048721Y004520D01*
X048893Y004348D02*
X049184Y004348D01*
X049098Y004190D02*
X048978Y004190D01*
X048978Y004031D02*
X049098Y004031D01*
X049124Y003873D02*
X048953Y003873D01*
X048795Y003714D02*
X049282Y003714D01*
X048282Y003714D02*
X047795Y003714D01*
X047953Y003873D02*
X048124Y003873D01*
X048098Y004031D02*
X047978Y004031D01*
X047978Y004190D02*
X048098Y004190D01*
X048184Y004348D02*
X047893Y004348D01*
X047734Y004507D02*
X048343Y004507D01*
X048331Y004665D02*
X047746Y004665D01*
X047904Y004824D02*
X048173Y004824D01*
X048098Y004982D02*
X047978Y004982D01*
X047978Y005141D02*
X048098Y005141D01*
X048135Y005299D02*
X047942Y005299D01*
X047783Y005458D02*
X048294Y005458D01*
X047294Y005458D02*
X046783Y005458D01*
X046942Y005299D02*
X047135Y005299D01*
X047098Y005141D02*
X046978Y005141D01*
X046978Y004982D02*
X047098Y004982D01*
X047013Y004824D02*
X046904Y004824D01*
X046855Y004665D02*
X046746Y004665D01*
X046734Y004507D02*
X046848Y004507D01*
X047234Y004507D02*
X047343Y004507D01*
X044331Y004665D02*
X044228Y004665D01*
X043848Y004665D02*
X043746Y004665D01*
X043734Y004507D02*
X043848Y004507D01*
X043893Y004348D02*
X044002Y004348D01*
X043978Y004190D02*
X044098Y004190D01*
X044098Y004031D02*
X043978Y004031D01*
X043953Y003873D02*
X044124Y003873D01*
X038919Y003556D02*
X031457Y003556D01*
X031298Y003714D02*
X038761Y003714D01*
X038602Y003873D02*
X031140Y003873D01*
X030981Y004031D02*
X038444Y004031D01*
X038285Y004190D02*
X030823Y004190D01*
X030664Y004348D02*
X038127Y004348D01*
X037968Y004507D02*
X030506Y004507D01*
X030347Y004665D02*
X037810Y004665D01*
X037651Y004824D02*
X030189Y004824D01*
X030030Y004982D02*
X037493Y004982D01*
X037352Y006250D02*
X035725Y006250D01*
X035875Y006409D02*
X037202Y006409D01*
X037162Y006567D02*
X035915Y006567D01*
X035953Y006726D02*
X037191Y006726D01*
X035732Y007043D02*
X035345Y007043D01*
X035124Y006726D02*
X029885Y006726D01*
X029915Y006567D02*
X035162Y006567D01*
X035202Y006409D02*
X029875Y006409D01*
X029725Y006250D02*
X035352Y006250D01*
X029325Y009262D02*
X027752Y009262D01*
X027879Y009420D02*
X029197Y009420D01*
X029162Y009579D02*
X027915Y009579D01*
X027964Y009737D02*
X029196Y009737D01*
X029162Y010530D02*
X027915Y010530D01*
X027901Y010688D02*
X029162Y010688D01*
X029003Y010847D02*
X027804Y010847D01*
X029065Y011322D02*
X029264Y011322D01*
X029224Y011164D02*
X029853Y011164D01*
X029812Y011322D02*
X030012Y011322D01*
X029695Y011005D02*
X029382Y011005D01*
X029313Y012273D02*
X027763Y012273D01*
X027884Y012432D02*
X029193Y012432D01*
X029371Y014017D02*
X029706Y014017D01*
X029865Y014175D02*
X029212Y014175D01*
X022546Y015760D02*
X038776Y015760D01*
X038972Y015760D02*
X039170Y015760D01*
X039365Y015760D02*
X039564Y015760D01*
X039759Y015760D02*
X039957Y015760D01*
X040153Y015760D02*
X040351Y015760D01*
X040546Y015760D02*
X056804Y015760D01*
X056952Y015760D02*
X057198Y015760D01*
X057345Y015760D02*
X057591Y015760D01*
X057739Y015760D02*
X057985Y015760D01*
X058133Y015760D02*
X058379Y015760D01*
X058527Y015760D02*
X060798Y015760D01*
X060798Y015602D02*
X000521Y015602D01*
X000521Y015760D02*
X002776Y015760D01*
X002972Y015760D02*
X003170Y015760D01*
X003365Y015760D02*
X003564Y015760D01*
X003759Y015760D02*
X003957Y015760D01*
X004153Y015760D02*
X004351Y015760D01*
X004546Y015760D02*
X020776Y015760D01*
X020972Y015760D02*
X021170Y015760D01*
X021365Y015760D02*
X021564Y015760D01*
X021759Y015760D02*
X021957Y015760D01*
X022153Y015760D02*
X022351Y015760D01*
X022252Y017343D02*
X022241Y017354D01*
X022120Y017404D01*
X021990Y017404D01*
X021869Y017354D01*
X021858Y017343D01*
X021847Y017354D01*
X021727Y017404D01*
X021596Y017404D01*
X021475Y017354D01*
X021464Y017343D01*
X021454Y017354D01*
X021333Y017404D01*
X021202Y017404D01*
X021082Y017354D01*
X021071Y017343D01*
X021060Y017354D01*
X020939Y017404D01*
X020809Y017404D01*
X020688Y017354D01*
X020647Y017312D01*
X004676Y017312D01*
X004635Y017354D01*
X004514Y017404D01*
X004383Y017404D01*
X004263Y017354D01*
X004252Y017343D01*
X004241Y017354D01*
X004120Y017404D01*
X003990Y017404D01*
X003869Y017354D01*
X003858Y017343D01*
X003847Y017354D01*
X003727Y017404D01*
X003596Y017404D01*
X003475Y017354D01*
X003464Y017343D01*
X003454Y017354D01*
X003333Y017404D01*
X003202Y017404D01*
X003082Y017354D01*
X003071Y017343D01*
X003060Y017354D01*
X002939Y017404D01*
X002809Y017404D01*
X002688Y017354D01*
X002647Y017312D01*
X000521Y017312D01*
X000521Y026093D01*
X060798Y026093D01*
X060798Y017312D01*
X058690Y017312D01*
X058639Y017363D01*
X058518Y017413D01*
X058387Y017413D01*
X058267Y017363D01*
X058256Y017353D01*
X058245Y017363D01*
X058124Y017413D01*
X057994Y017413D01*
X057873Y017363D01*
X057862Y017353D01*
X057851Y017363D01*
X057731Y017413D01*
X057600Y017413D01*
X057479Y017363D01*
X057468Y017353D01*
X057458Y017363D01*
X057337Y017413D01*
X057206Y017413D01*
X057086Y017363D01*
X057075Y017353D01*
X057064Y017363D01*
X056943Y017413D01*
X056813Y017413D01*
X056692Y017363D01*
X056641Y017312D01*
X040676Y017312D01*
X040635Y017354D01*
X040514Y017404D01*
X040383Y017404D01*
X040263Y017354D01*
X040252Y017343D01*
X040241Y017354D01*
X040120Y017404D01*
X039990Y017404D01*
X039869Y017354D01*
X039858Y017343D01*
X039847Y017354D01*
X039727Y017404D01*
X039596Y017404D01*
X039475Y017354D01*
X039464Y017343D01*
X039454Y017354D01*
X039333Y017404D01*
X039202Y017404D01*
X039082Y017354D01*
X039071Y017343D01*
X039060Y017354D01*
X038939Y017404D01*
X038809Y017404D01*
X038688Y017354D01*
X038647Y017312D01*
X022676Y017312D01*
X022635Y017354D01*
X022514Y017404D01*
X022383Y017404D01*
X022263Y017354D01*
X022252Y017343D01*
X022250Y017345D02*
X022254Y017345D01*
X022643Y017345D02*
X038679Y017345D01*
X039068Y017345D02*
X039073Y017345D01*
X039462Y017345D02*
X039467Y017345D01*
X039856Y017345D02*
X039861Y017345D01*
X040250Y017345D02*
X040254Y017345D01*
X040643Y017345D02*
X056674Y017345D01*
X055274Y018352D02*
X055150Y018286D01*
X055021Y018232D01*
X054886Y018191D01*
X054748Y018164D01*
X054618Y018151D01*
X054618Y019500D01*
X054458Y019500D01*
X053109Y019500D01*
X053122Y019370D01*
X053150Y019232D01*
X053190Y019098D01*
X053244Y018968D01*
X053310Y018844D01*
X053388Y018727D01*
X053477Y018619D01*
X053577Y018519D01*
X053685Y018430D01*
X053802Y018352D01*
X053926Y018286D01*
X054056Y018232D01*
X054190Y018191D01*
X054328Y018164D01*
X054458Y018151D01*
X054458Y019500D01*
X054458Y019660D01*
X053109Y019660D01*
X053122Y019790D01*
X053150Y019928D01*
X053190Y020062D01*
X053244Y020192D01*
X053310Y020316D01*
X053388Y020433D01*
X053477Y020541D01*
X053577Y020641D01*
X053685Y020730D01*
X053802Y020808D01*
X053926Y020874D01*
X054056Y020928D01*
X054190Y020969D01*
X054328Y020996D01*
X054458Y021009D01*
X054458Y019660D01*
X054618Y019660D01*
X054618Y021009D01*
X054748Y020996D01*
X054886Y020969D01*
X055021Y020928D01*
X055150Y020874D01*
X055274Y020808D01*
X055391Y020730D01*
X055500Y020641D01*
X055599Y020541D01*
X055688Y020433D01*
X055766Y020316D01*
X055833Y020192D01*
X055886Y020062D01*
X055927Y019928D01*
X055955Y019790D01*
X055967Y019660D01*
X054618Y019660D01*
X054618Y019500D01*
X055967Y019500D01*
X055955Y019370D01*
X055927Y019232D01*
X055886Y019098D01*
X055833Y018968D01*
X055766Y018844D01*
X055688Y018727D01*
X055599Y018619D01*
X055500Y018519D01*
X055391Y018430D01*
X055274Y018352D01*
X055170Y018296D02*
X060798Y018296D01*
X060798Y018138D02*
X018025Y018138D01*
X017987Y018100D02*
X018268Y018381D01*
X018268Y018560D01*
X017808Y018560D01*
X017808Y018100D01*
X017987Y018100D01*
X017808Y018138D02*
X017768Y018138D01*
X017768Y018100D02*
X017768Y018560D01*
X017308Y018560D01*
X017308Y018381D01*
X017589Y018100D01*
X017768Y018100D01*
X017768Y018296D02*
X017808Y018296D01*
X017808Y018455D02*
X017768Y018455D01*
X017768Y018560D02*
X017808Y018560D01*
X017808Y018600D01*
X018268Y018600D01*
X018268Y018779D01*
X018157Y018890D01*
X018476Y018890D01*
X018348Y018762D01*
X018348Y018398D01*
X018606Y018140D01*
X018971Y018140D01*
X019228Y018398D01*
X019228Y018762D01*
X019101Y018890D01*
X024460Y018890D01*
X026104Y020534D01*
X026229Y020534D01*
X026349Y020584D01*
X026441Y020677D01*
X026491Y020797D01*
X026491Y020928D01*
X026441Y021048D01*
X026394Y021096D01*
X026441Y021144D01*
X026491Y021265D01*
X026491Y021395D01*
X026441Y021516D01*
X026349Y021608D01*
X026229Y021658D01*
X026098Y021658D01*
X025977Y021608D01*
X025889Y021520D01*
X024460Y021520D01*
X023585Y020645D01*
X010242Y020645D01*
X008154Y022733D01*
X008334Y023043D01*
X008428Y023397D01*
X008428Y023763D01*
X008334Y024117D01*
X008151Y024433D01*
X007892Y024692D01*
X007575Y024875D01*
X007221Y024970D01*
X006855Y024970D01*
X006502Y024875D01*
X006185Y024692D01*
X005926Y024433D01*
X005743Y024117D01*
X005648Y023763D01*
X005648Y023397D01*
X005743Y023043D01*
X005926Y022727D01*
X006185Y022468D01*
X006502Y022285D01*
X006855Y022190D01*
X007221Y022190D01*
X007575Y022285D01*
X007886Y022464D01*
X010085Y020265D01*
X023742Y020265D01*
X023853Y020376D01*
X024617Y021140D01*
X025889Y021140D01*
X025933Y021096D01*
X025885Y021048D01*
X025835Y020928D01*
X025835Y020803D01*
X024302Y019270D01*
X019101Y019270D01*
X019228Y019398D01*
X019228Y019762D01*
X018971Y020020D01*
X018606Y020020D01*
X018348Y019762D01*
X018348Y019398D01*
X018476Y019270D01*
X018101Y019270D01*
X018228Y019398D01*
X018228Y019762D01*
X017971Y020020D01*
X017606Y020020D01*
X017348Y019762D01*
X017348Y019398D01*
X017476Y019270D01*
X017101Y019270D01*
X017228Y019398D01*
X017228Y019762D01*
X016971Y020020D01*
X016606Y020020D01*
X016348Y019762D01*
X016348Y019398D01*
X016476Y019270D01*
X016101Y019270D01*
X016228Y019398D01*
X016228Y019762D01*
X015971Y020020D01*
X015606Y020020D01*
X015348Y019762D01*
X015348Y019398D01*
X015476Y019270D01*
X015101Y019270D01*
X015228Y019398D01*
X015228Y019762D01*
X014971Y020020D01*
X014606Y020020D01*
X014348Y019762D01*
X014348Y019398D01*
X014476Y019270D01*
X014101Y019270D01*
X014228Y019398D01*
X014228Y019762D01*
X013971Y020020D01*
X013606Y020020D01*
X013348Y019762D01*
X013348Y019398D01*
X013476Y019270D01*
X013101Y019270D01*
X013228Y019398D01*
X013228Y019762D01*
X012971Y020020D01*
X012606Y020020D01*
X012348Y019762D01*
X012348Y019398D01*
X012476Y019270D01*
X012101Y019270D01*
X012228Y019398D01*
X012228Y019762D01*
X011971Y020020D01*
X011606Y020020D01*
X011348Y019762D01*
X011348Y019398D01*
X011476Y019270D01*
X011101Y019270D01*
X011228Y019398D01*
X011228Y019762D01*
X010971Y020020D01*
X010606Y020020D01*
X010348Y019762D01*
X010348Y019398D01*
X010476Y019270D01*
X010101Y019270D01*
X010228Y019398D01*
X010228Y019762D01*
X009971Y020020D01*
X009606Y020020D01*
X009348Y019762D01*
X009348Y019398D01*
X009476Y019270D01*
X008394Y019270D01*
X008428Y019397D01*
X008428Y019763D01*
X008334Y020117D01*
X008151Y020433D01*
X007892Y020692D01*
X007575Y020875D01*
X007221Y020970D01*
X006855Y020970D01*
X006502Y020875D01*
X006185Y020692D01*
X005926Y020433D01*
X005743Y020117D01*
X005648Y019763D01*
X005648Y019397D01*
X005743Y019043D01*
X005926Y018727D01*
X006185Y018468D01*
X006502Y018285D01*
X006855Y018190D01*
X007221Y018190D01*
X007575Y018285D01*
X007892Y018468D01*
X008151Y018727D01*
X008245Y018890D01*
X009476Y018890D01*
X009348Y018762D01*
X009348Y018398D01*
X009606Y018140D01*
X009971Y018140D01*
X010228Y018398D01*
X010228Y018762D01*
X010101Y018890D01*
X010476Y018890D01*
X010348Y018762D01*
X010348Y018398D01*
X010606Y018140D01*
X010971Y018140D01*
X011228Y018398D01*
X011228Y018762D01*
X011101Y018890D01*
X011476Y018890D01*
X011348Y018762D01*
X011348Y018398D01*
X011606Y018140D01*
X011971Y018140D01*
X012228Y018398D01*
X012228Y018762D01*
X012101Y018890D01*
X012476Y018890D01*
X012348Y018762D01*
X012348Y018398D01*
X012606Y018140D01*
X012971Y018140D01*
X013228Y018398D01*
X013228Y018762D01*
X013101Y018890D01*
X013476Y018890D01*
X013348Y018762D01*
X013348Y018398D01*
X013606Y018140D01*
X013971Y018140D01*
X014228Y018398D01*
X014228Y018762D01*
X014101Y018890D01*
X014476Y018890D01*
X014348Y018762D01*
X014348Y018398D01*
X014606Y018140D01*
X014971Y018140D01*
X015228Y018398D01*
X015228Y018762D01*
X015101Y018890D01*
X015476Y018890D01*
X015348Y018762D01*
X015348Y018398D01*
X015606Y018140D01*
X015971Y018140D01*
X016228Y018398D01*
X016228Y018762D01*
X016101Y018890D01*
X016476Y018890D01*
X016348Y018762D01*
X016348Y018398D01*
X016606Y018140D01*
X016971Y018140D01*
X017228Y018398D01*
X017228Y018762D01*
X017101Y018890D01*
X017419Y018890D01*
X017308Y018779D01*
X017308Y018600D01*
X017768Y018600D01*
X017768Y018560D01*
X017393Y018296D02*
X017127Y018296D01*
X017228Y018455D02*
X017308Y018455D01*
X017308Y018613D02*
X017228Y018613D01*
X017219Y018772D02*
X017308Y018772D01*
X016358Y018772D02*
X016219Y018772D01*
X016228Y018613D02*
X016348Y018613D01*
X016348Y018455D02*
X016228Y018455D01*
X016127Y018296D02*
X016450Y018296D01*
X015450Y018296D02*
X015127Y018296D01*
X015228Y018455D02*
X015348Y018455D01*
X015348Y018613D02*
X015228Y018613D01*
X015219Y018772D02*
X015358Y018772D01*
X014450Y018296D02*
X014127Y018296D01*
X014228Y018455D02*
X014348Y018455D01*
X014348Y018613D02*
X014228Y018613D01*
X014219Y018772D02*
X014358Y018772D01*
X013358Y018772D02*
X013219Y018772D01*
X013228Y018613D02*
X013348Y018613D01*
X013348Y018455D02*
X013228Y018455D01*
X013127Y018296D02*
X013450Y018296D01*
X012450Y018296D02*
X012127Y018296D01*
X012228Y018455D02*
X012348Y018455D01*
X012348Y018613D02*
X012228Y018613D01*
X012219Y018772D02*
X012358Y018772D01*
X011358Y018772D02*
X011219Y018772D01*
X011228Y018613D02*
X011348Y018613D01*
X011348Y018455D02*
X011228Y018455D01*
X011127Y018296D02*
X011450Y018296D01*
X010450Y018296D02*
X010127Y018296D01*
X010228Y018455D02*
X010348Y018455D01*
X010348Y018613D02*
X010228Y018613D01*
X010219Y018772D02*
X010358Y018772D01*
X009450Y018296D02*
X007594Y018296D01*
X007869Y018455D02*
X009348Y018455D01*
X009348Y018613D02*
X008037Y018613D01*
X008177Y018772D02*
X009358Y018772D01*
X009348Y019406D02*
X008428Y019406D01*
X008428Y019564D02*
X009348Y019564D01*
X009348Y019723D02*
X008428Y019723D01*
X008397Y019881D02*
X009467Y019881D01*
X010110Y019881D02*
X010467Y019881D01*
X010348Y019723D02*
X010228Y019723D01*
X010228Y019564D02*
X010348Y019564D01*
X010348Y019406D02*
X010228Y019406D01*
X011228Y019406D02*
X011348Y019406D01*
X011348Y019564D02*
X011228Y019564D01*
X011228Y019723D02*
X011348Y019723D01*
X011467Y019881D02*
X011110Y019881D01*
X012110Y019881D02*
X012467Y019881D01*
X012348Y019723D02*
X012228Y019723D01*
X012228Y019564D02*
X012348Y019564D01*
X012348Y019406D02*
X012228Y019406D01*
X013110Y019881D02*
X013467Y019881D01*
X013348Y019723D02*
X013228Y019723D01*
X013228Y019564D02*
X013348Y019564D01*
X013348Y019406D02*
X013228Y019406D01*
X014228Y019406D02*
X014348Y019406D01*
X014348Y019564D02*
X014228Y019564D01*
X014228Y019723D02*
X014348Y019723D01*
X014467Y019881D02*
X014110Y019881D01*
X015110Y019881D02*
X015467Y019881D01*
X015348Y019723D02*
X015228Y019723D01*
X015228Y019564D02*
X015348Y019564D01*
X015348Y019406D02*
X015228Y019406D01*
X016228Y019406D02*
X016348Y019406D01*
X016348Y019564D02*
X016228Y019564D01*
X016228Y019723D02*
X016348Y019723D01*
X016467Y019881D02*
X016110Y019881D01*
X017110Y019881D02*
X017467Y019881D01*
X017348Y019723D02*
X017228Y019723D01*
X017228Y019564D02*
X017348Y019564D01*
X017348Y019406D02*
X017228Y019406D01*
X018110Y019881D02*
X018467Y019881D01*
X018348Y019723D02*
X018228Y019723D01*
X018228Y019564D02*
X018348Y019564D01*
X018348Y019406D02*
X018228Y019406D01*
X019228Y019406D02*
X024438Y019406D01*
X024596Y019564D02*
X019228Y019564D01*
X019228Y019723D02*
X024755Y019723D01*
X024913Y019881D02*
X019110Y019881D01*
X019219Y018772D02*
X042108Y018772D01*
X042098Y018762D02*
X042098Y018398D01*
X042356Y018140D01*
X042721Y018140D01*
X042978Y018398D01*
X042978Y018762D01*
X042851Y018890D01*
X043226Y018890D01*
X043098Y018762D01*
X043098Y018398D01*
X043356Y018140D01*
X043721Y018140D01*
X043978Y018398D01*
X043978Y018762D01*
X043851Y018890D01*
X044226Y018890D01*
X044098Y018762D01*
X044098Y018398D01*
X044356Y018140D01*
X044721Y018140D01*
X044978Y018398D01*
X044978Y018762D01*
X044851Y018890D01*
X045226Y018890D01*
X045098Y018762D01*
X045098Y018398D01*
X045356Y018140D01*
X045721Y018140D01*
X045978Y018398D01*
X045978Y018762D01*
X045851Y018890D01*
X046117Y018890D01*
X046228Y019001D01*
X046367Y019140D01*
X046721Y019140D01*
X046848Y019268D01*
X046848Y019001D01*
X046960Y018890D01*
X047098Y018751D01*
X047098Y018398D01*
X047356Y018140D01*
X047721Y018140D01*
X047978Y018398D01*
X047978Y018762D01*
X047721Y019020D01*
X047367Y019020D01*
X047228Y019159D01*
X047228Y019268D01*
X047356Y019140D01*
X047721Y019140D01*
X047848Y019268D01*
X047848Y019251D01*
X047960Y019140D01*
X048218Y018882D01*
X048098Y018762D01*
X048098Y018398D01*
X048356Y018140D01*
X048721Y018140D01*
X048978Y018398D01*
X048978Y018762D01*
X048721Y019020D01*
X048617Y019020D01*
X048497Y019140D01*
X048721Y019140D01*
X048978Y019398D01*
X048978Y019762D01*
X048721Y020020D01*
X048356Y020020D01*
X048228Y019892D01*
X048228Y019909D01*
X047353Y020784D01*
X047242Y020895D01*
X040242Y020895D01*
X039872Y021265D01*
X048500Y021265D01*
X048552Y021213D01*
X048657Y021170D01*
X048770Y021170D01*
X048875Y021213D01*
X048955Y021294D01*
X048998Y021398D01*
X048998Y021512D01*
X048955Y021616D01*
X048918Y021654D01*
X048974Y021677D01*
X049066Y021769D01*
X049116Y021890D01*
X049116Y022020D01*
X049066Y022141D01*
X048974Y022233D01*
X048854Y022283D01*
X048800Y022283D01*
X048499Y022583D01*
X048411Y022620D01*
X037126Y022620D01*
X037100Y022647D01*
X036995Y022690D01*
X036882Y022690D01*
X036777Y022647D01*
X036697Y022566D01*
X036653Y022462D01*
X036653Y022348D01*
X036697Y022244D01*
X036777Y022163D01*
X036882Y022120D01*
X036995Y022120D01*
X037043Y022140D01*
X048264Y022140D01*
X048460Y021944D01*
X048460Y021890D01*
X048510Y021769D01*
X048574Y021706D01*
X048552Y021697D01*
X048500Y021645D01*
X033022Y021645D01*
X033099Y021677D01*
X033191Y021769D01*
X033241Y021890D01*
X033241Y022020D01*
X033191Y022141D01*
X033099Y022233D01*
X032979Y022283D01*
X032848Y022283D01*
X032727Y022233D01*
X032639Y022145D01*
X029647Y022145D01*
X031262Y023760D01*
X031289Y023733D01*
X030988Y023433D01*
X030988Y023225D01*
X031518Y023225D01*
X031518Y023185D01*
X030988Y023185D01*
X030988Y022977D01*
X031311Y022655D01*
X031518Y022655D01*
X031518Y023185D01*
X031558Y023185D01*
X031558Y022655D01*
X031766Y022655D01*
X032088Y022977D01*
X032088Y023034D01*
X032327Y022795D01*
X032750Y022795D01*
X033028Y023074D01*
X033028Y022994D01*
X033327Y022695D01*
X033750Y022695D01*
X034048Y022994D01*
X034048Y023416D01*
X033760Y023705D01*
X034048Y023994D01*
X034048Y024416D01*
X033750Y024715D01*
X033327Y024715D01*
X033048Y024436D01*
X033048Y024516D01*
X032750Y024815D01*
X032327Y024815D01*
X032028Y024516D01*
X032028Y024436D01*
X031750Y024715D01*
X031327Y024715D01*
X031028Y024416D01*
X031028Y024064D01*
X028748Y021783D01*
X028623Y021783D01*
X028502Y021733D01*
X028410Y021641D01*
X028360Y021520D01*
X028360Y021390D01*
X028410Y021269D01*
X028502Y021177D01*
X028579Y021145D01*
X027937Y021145D01*
X027849Y021233D01*
X027729Y021283D01*
X027598Y021283D01*
X027477Y021233D01*
X027385Y021141D01*
X027335Y021020D01*
X027335Y020890D01*
X027385Y020769D01*
X027477Y020677D01*
X027598Y020627D01*
X027729Y020627D01*
X027849Y020677D01*
X027937Y020765D01*
X029092Y020765D01*
X029417Y021090D01*
X029496Y021169D01*
X029598Y021127D01*
X029729Y021127D01*
X029849Y021177D01*
X029937Y021265D01*
X031835Y021265D01*
X031835Y021158D01*
X031723Y021158D01*
X031602Y021108D01*
X031510Y021016D01*
X031460Y020895D01*
X031460Y020783D01*
X031348Y020783D01*
X031227Y020733D01*
X031135Y020641D01*
X031085Y020520D01*
X031085Y020433D01*
X030998Y020433D01*
X030877Y020383D01*
X030785Y020291D01*
X030735Y020170D01*
X030735Y020040D01*
X030785Y019919D01*
X030877Y019827D01*
X030898Y019818D01*
X030898Y019576D01*
X031010Y019465D01*
X031473Y019001D01*
X031585Y018890D01*
X042226Y018890D01*
X042098Y018762D01*
X042098Y018613D02*
X019228Y018613D01*
X019228Y018455D02*
X042098Y018455D01*
X042200Y018296D02*
X019127Y018296D01*
X018450Y018296D02*
X018183Y018296D01*
X018268Y018455D02*
X018348Y018455D01*
X018348Y018613D02*
X018268Y018613D01*
X018268Y018772D02*
X018358Y018772D01*
X017552Y018138D02*
X000521Y018138D01*
X000521Y018296D02*
X006482Y018296D01*
X006208Y018455D02*
X000521Y018455D01*
X000521Y018613D02*
X006040Y018613D01*
X005900Y018772D02*
X000521Y018772D01*
X000521Y018930D02*
X005809Y018930D01*
X005731Y019089D02*
X000521Y019089D01*
X000521Y019247D02*
X005689Y019247D01*
X005648Y019406D02*
X000521Y019406D01*
X000521Y019564D02*
X005648Y019564D01*
X005648Y019723D02*
X000521Y019723D01*
X000521Y019881D02*
X005680Y019881D01*
X005722Y020040D02*
X000521Y020040D01*
X000521Y020198D02*
X005790Y020198D01*
X005882Y020357D02*
X000521Y020357D01*
X000521Y020515D02*
X006008Y020515D01*
X006166Y020674D02*
X000521Y020674D01*
X000521Y020832D02*
X006427Y020832D01*
X007650Y020832D02*
X009518Y020832D01*
X009676Y020674D02*
X007911Y020674D01*
X008069Y020515D02*
X009835Y020515D01*
X009993Y020357D02*
X008195Y020357D01*
X008287Y020198D02*
X025230Y020198D01*
X025072Y020040D02*
X008354Y020040D01*
X010055Y020832D02*
X021880Y020832D01*
X021885Y020819D02*
X021977Y020727D01*
X022098Y020677D01*
X022229Y020677D01*
X022349Y020727D01*
X022441Y020819D01*
X022491Y020940D01*
X022491Y021070D01*
X022441Y021191D01*
X022353Y021279D01*
X022353Y023357D01*
X022452Y023398D01*
X022596Y023541D01*
X022663Y023704D01*
X022731Y023541D01*
X022874Y023398D01*
X022973Y023357D01*
X022973Y021279D01*
X022885Y021191D01*
X022835Y021070D01*
X022835Y020940D01*
X022885Y020819D01*
X022977Y020727D01*
X023098Y020677D01*
X023229Y020677D01*
X023349Y020727D01*
X023441Y020819D01*
X023491Y020940D01*
X023491Y021070D01*
X023441Y021191D01*
X023353Y021279D01*
X023353Y023357D01*
X023452Y023398D01*
X023596Y023541D01*
X023663Y023704D01*
X023731Y023541D01*
X023874Y023398D01*
X024062Y023320D01*
X024265Y023320D01*
X024452Y023398D01*
X024596Y023541D01*
X024663Y023704D01*
X024731Y023541D01*
X024874Y023398D01*
X025062Y023320D01*
X025265Y023320D01*
X025452Y023398D01*
X025596Y023541D01*
X025642Y023654D01*
X025654Y023619D01*
X025693Y023542D01*
X025744Y023472D01*
X025805Y023410D01*
X025875Y023360D01*
X025952Y023320D01*
X026035Y023294D01*
X026120Y023280D01*
X026143Y023280D01*
X026143Y023810D01*
X026183Y023810D01*
X026183Y023280D01*
X026207Y023280D01*
X026292Y023294D01*
X026374Y023320D01*
X026452Y023360D01*
X026522Y023410D01*
X026583Y023472D01*
X026634Y023542D01*
X026673Y023619D01*
X026700Y023701D01*
X026713Y023787D01*
X026713Y023810D01*
X026183Y023810D01*
X026183Y023850D01*
X026143Y023850D01*
X026143Y024380D01*
X026120Y024380D01*
X026035Y024366D01*
X025952Y024340D01*
X025875Y024300D01*
X025805Y024250D01*
X025744Y024188D01*
X025693Y024118D01*
X025654Y024041D01*
X025642Y024006D01*
X025596Y024119D01*
X025452Y024262D01*
X025265Y024340D01*
X025062Y024340D01*
X024874Y024262D01*
X024731Y024119D01*
X024663Y023956D01*
X024596Y024119D01*
X024452Y024262D01*
X024265Y024340D01*
X024062Y024340D01*
X023874Y024262D01*
X023731Y024119D01*
X023663Y023956D01*
X023596Y024119D01*
X023452Y024262D01*
X023265Y024340D01*
X023062Y024340D01*
X022874Y024262D01*
X022731Y024119D01*
X022663Y023956D01*
X022596Y024119D01*
X022452Y024262D01*
X022265Y024340D01*
X022062Y024340D01*
X021874Y024262D01*
X021731Y024119D01*
X021673Y023980D01*
X021673Y024258D01*
X021591Y024340D01*
X020735Y024340D01*
X020653Y024258D01*
X020653Y023402D01*
X020735Y023320D01*
X020973Y023320D01*
X020973Y021654D01*
X020885Y021566D01*
X020835Y021445D01*
X020835Y021315D01*
X020885Y021194D01*
X020977Y021102D01*
X021098Y021052D01*
X021229Y021052D01*
X021349Y021102D01*
X021441Y021194D01*
X021491Y021315D01*
X021491Y021445D01*
X021441Y021566D01*
X021353Y021654D01*
X021353Y023320D01*
X021591Y023320D01*
X021673Y023402D01*
X021673Y023680D01*
X021731Y023541D01*
X021874Y023398D01*
X021973Y023357D01*
X021973Y021279D01*
X021885Y021191D01*
X021835Y021070D01*
X021835Y020940D01*
X021885Y020819D01*
X021835Y020991D02*
X009896Y020991D01*
X009738Y021149D02*
X020930Y021149D01*
X020838Y021308D02*
X009579Y021308D01*
X009421Y021466D02*
X020844Y021466D01*
X020944Y021625D02*
X009262Y021625D01*
X009104Y021783D02*
X020973Y021783D01*
X020973Y021942D02*
X008945Y021942D01*
X008787Y022100D02*
X020973Y022100D01*
X020973Y022259D02*
X008628Y022259D01*
X008470Y022417D02*
X020973Y022417D01*
X020973Y022576D02*
X008311Y022576D01*
X008155Y022734D02*
X020973Y022734D01*
X020973Y022893D02*
X008246Y022893D01*
X008336Y023051D02*
X012154Y023051D01*
X012147Y023059D02*
X012227Y022978D01*
X012332Y022935D01*
X012445Y022935D01*
X012550Y022978D01*
X012630Y023059D01*
X012673Y023163D01*
X012673Y023236D01*
X013327Y023890D01*
X017389Y023890D01*
X017477Y023802D01*
X017598Y023752D01*
X017710Y023752D01*
X017710Y023640D01*
X017760Y023519D01*
X017852Y023427D01*
X017973Y023377D01*
X018085Y023377D01*
X018085Y023265D01*
X018135Y023144D01*
X018227Y023052D01*
X018348Y023002D01*
X018479Y023002D01*
X018599Y023052D01*
X018691Y023144D01*
X018741Y023265D01*
X018741Y023395D01*
X018691Y023516D01*
X018603Y023604D01*
X018603Y024409D01*
X018228Y024784D01*
X018117Y024895D01*
X012585Y024895D01*
X012010Y024320D01*
X011898Y024209D01*
X011898Y023688D01*
X011847Y023636D01*
X011803Y023532D01*
X011803Y023418D01*
X011847Y023314D01*
X011927Y023233D01*
X012032Y023190D01*
X012103Y023190D01*
X012103Y023163D01*
X012147Y023059D01*
X011984Y023210D02*
X008378Y023210D01*
X008421Y023368D02*
X011824Y023368D01*
X011803Y023527D02*
X008428Y023527D01*
X008428Y023685D02*
X011895Y023685D01*
X011898Y023844D02*
X008407Y023844D01*
X008364Y024002D02*
X011898Y024002D01*
X011898Y024161D02*
X008308Y024161D01*
X008217Y024319D02*
X012009Y024319D01*
X012167Y024478D02*
X008107Y024478D01*
X007948Y024636D02*
X012326Y024636D01*
X012484Y024795D02*
X007715Y024795D01*
X007285Y024953D02*
X053199Y024953D01*
X053157Y024795D02*
X032770Y024795D01*
X032929Y024636D02*
X033248Y024636D01*
X033090Y024478D02*
X033048Y024478D01*
X033829Y024636D02*
X053148Y024636D01*
X053148Y024763D02*
X053148Y024397D01*
X053243Y024043D01*
X053426Y023727D01*
X053685Y023468D01*
X054002Y023285D01*
X054355Y023190D01*
X054721Y023190D01*
X055075Y023285D01*
X055392Y023468D01*
X055651Y023727D01*
X055834Y024043D01*
X055928Y024397D01*
X055928Y024763D01*
X055834Y025117D01*
X055651Y025433D01*
X055392Y025692D01*
X055075Y025875D01*
X054721Y025970D01*
X054355Y025970D01*
X054002Y025875D01*
X053685Y025692D01*
X053426Y025433D01*
X053243Y025117D01*
X053148Y024763D01*
X053148Y024478D02*
X033987Y024478D01*
X034048Y024319D02*
X053169Y024319D01*
X053212Y024161D02*
X045511Y024161D01*
X045475Y024197D02*
X045370Y024240D01*
X045257Y024240D01*
X045152Y024197D01*
X045072Y024116D01*
X045028Y024012D01*
X045028Y023898D01*
X045072Y023794D01*
X045152Y023713D01*
X045257Y023670D01*
X045370Y023670D01*
X045475Y023713D01*
X045555Y023794D01*
X045598Y023898D01*
X045598Y024012D01*
X045555Y024116D01*
X045475Y024197D01*
X045598Y024002D02*
X053267Y024002D01*
X053358Y023844D02*
X045576Y023844D01*
X045406Y023685D02*
X053468Y023685D01*
X053626Y023527D02*
X033938Y023527D01*
X034048Y023368D02*
X053858Y023368D01*
X054282Y023210D02*
X034048Y023210D01*
X034048Y023051D02*
X060798Y023051D01*
X060798Y022893D02*
X033947Y022893D01*
X033789Y022734D02*
X060798Y022734D01*
X060798Y022576D02*
X048507Y022576D01*
X048666Y022417D02*
X060798Y022417D01*
X060798Y022259D02*
X048913Y022259D01*
X049083Y022100D02*
X060798Y022100D01*
X060798Y021942D02*
X049116Y021942D01*
X049072Y021783D02*
X060798Y021783D01*
X060798Y021625D02*
X048947Y021625D01*
X048998Y021466D02*
X060798Y021466D01*
X060798Y021308D02*
X048961Y021308D01*
X048504Y021783D02*
X033197Y021783D01*
X033241Y021942D02*
X048460Y021942D01*
X048304Y022100D02*
X033208Y022100D01*
X033038Y022259D02*
X036691Y022259D01*
X036653Y022417D02*
X029919Y022417D01*
X029761Y022259D02*
X032789Y022259D01*
X033288Y022734D02*
X031845Y022734D01*
X032004Y022893D02*
X032230Y022893D01*
X032847Y022893D02*
X033130Y022893D01*
X033028Y023051D02*
X033006Y023051D01*
X031558Y023051D02*
X031518Y023051D01*
X031518Y022893D02*
X031558Y022893D01*
X031558Y022734D02*
X031518Y022734D01*
X031231Y022734D02*
X030236Y022734D01*
X030078Y022576D02*
X036706Y022576D01*
X036938Y022405D02*
X036938Y022380D01*
X039988Y021149D02*
X060798Y021149D01*
X060798Y020991D02*
X054777Y020991D01*
X054618Y020991D02*
X054458Y020991D01*
X054300Y020991D02*
X040146Y020991D01*
X039710Y020265D02*
X039960Y020015D01*
X042351Y020015D01*
X042098Y019762D01*
X042098Y019398D01*
X042226Y019270D01*
X031742Y019270D01*
X031278Y019734D01*
X031278Y019856D01*
X031341Y019919D01*
X031391Y020040D01*
X031391Y020127D01*
X031479Y020127D01*
X031599Y020177D01*
X031687Y020265D01*
X032650Y020265D01*
X032628Y020212D01*
X032628Y020098D01*
X032672Y019994D01*
X032752Y019913D01*
X032857Y019870D01*
X032930Y019870D01*
X033160Y019640D01*
X033524Y019640D01*
X033524Y019417D01*
X033606Y019335D01*
X034351Y019335D01*
X034433Y019417D01*
X034433Y020243D01*
X034411Y020265D01*
X034665Y020265D01*
X034643Y020243D01*
X034643Y019417D01*
X034725Y019335D01*
X035471Y019335D01*
X035553Y019417D01*
X035553Y019521D01*
X035598Y019502D01*
X035729Y019502D01*
X035849Y019552D01*
X035941Y019644D01*
X035991Y019765D01*
X035991Y019895D01*
X035941Y020016D01*
X035849Y020108D01*
X035729Y020158D01*
X035598Y020158D01*
X035553Y020139D01*
X035553Y020243D01*
X035531Y020265D01*
X039710Y020265D01*
X039777Y020198D02*
X035553Y020198D01*
X035918Y020040D02*
X039935Y020040D01*
X042098Y019723D02*
X035974Y019723D01*
X035991Y019881D02*
X042217Y019881D01*
X042098Y019564D02*
X035861Y019564D01*
X035542Y019406D02*
X042098Y019406D01*
X042969Y018772D02*
X043108Y018772D01*
X043098Y018613D02*
X042978Y018613D01*
X042978Y018455D02*
X043098Y018455D01*
X043200Y018296D02*
X042877Y018296D01*
X043877Y018296D02*
X044200Y018296D01*
X044098Y018455D02*
X043978Y018455D01*
X043978Y018613D02*
X044098Y018613D01*
X044108Y018772D02*
X043969Y018772D01*
X044969Y018772D02*
X045108Y018772D01*
X045098Y018613D02*
X044978Y018613D01*
X044978Y018455D02*
X045098Y018455D01*
X045200Y018296D02*
X044877Y018296D01*
X045877Y018296D02*
X046200Y018296D01*
X046098Y018398D02*
X046356Y018140D01*
X046721Y018140D01*
X046978Y018398D01*
X046978Y018762D01*
X046721Y019020D01*
X046356Y019020D01*
X046098Y018762D01*
X046098Y018398D01*
X046098Y018455D02*
X045978Y018455D01*
X045978Y018613D02*
X046098Y018613D01*
X046108Y018772D02*
X045969Y018772D01*
X046157Y018930D02*
X046266Y018930D01*
X046316Y019089D02*
X046848Y019089D01*
X046848Y019247D02*
X046828Y019247D01*
X046811Y018930D02*
X046920Y018930D01*
X046969Y018772D02*
X047078Y018772D01*
X047098Y018613D02*
X046978Y018613D01*
X046978Y018455D02*
X047098Y018455D01*
X047200Y018296D02*
X046877Y018296D01*
X047877Y018296D02*
X048200Y018296D01*
X048098Y018455D02*
X047978Y018455D01*
X047978Y018613D02*
X048098Y018613D01*
X048108Y018772D02*
X047969Y018772D01*
X047811Y018930D02*
X048170Y018930D01*
X048011Y019089D02*
X047298Y019089D01*
X047249Y019247D02*
X047228Y019247D01*
X047828Y019247D02*
X047853Y019247D01*
X048548Y019089D02*
X053194Y019089D01*
X053147Y019247D02*
X051828Y019247D01*
X051721Y019140D02*
X051978Y019398D01*
X051978Y019762D01*
X051721Y020020D01*
X051356Y020020D01*
X051098Y019762D01*
X051098Y019398D01*
X051356Y019140D01*
X051721Y019140D01*
X051721Y019020D02*
X051356Y019020D01*
X051098Y018762D01*
X051098Y018398D01*
X051356Y018140D01*
X051721Y018140D01*
X051978Y018398D01*
X051978Y018762D01*
X051721Y019020D01*
X051811Y018930D02*
X053264Y018930D01*
X053359Y018772D02*
X051969Y018772D01*
X051978Y018613D02*
X053483Y018613D01*
X053656Y018455D02*
X051978Y018455D01*
X051877Y018296D02*
X053907Y018296D01*
X054458Y018296D02*
X054618Y018296D01*
X054618Y018455D02*
X054458Y018455D01*
X054458Y018613D02*
X054618Y018613D01*
X054618Y018772D02*
X054458Y018772D01*
X054458Y018930D02*
X054618Y018930D01*
X054618Y019089D02*
X054458Y019089D01*
X054458Y019247D02*
X054618Y019247D01*
X054618Y019406D02*
X054458Y019406D01*
X054458Y019564D02*
X051978Y019564D01*
X051978Y019406D02*
X053119Y019406D01*
X053115Y019723D02*
X051978Y019723D01*
X051860Y019881D02*
X053140Y019881D01*
X053183Y020040D02*
X048097Y020040D01*
X047939Y020198D02*
X053247Y020198D01*
X053337Y020357D02*
X047780Y020357D01*
X047622Y020515D02*
X053456Y020515D01*
X053617Y020674D02*
X047463Y020674D01*
X047305Y020832D02*
X053847Y020832D01*
X054458Y020832D02*
X054618Y020832D01*
X054618Y020674D02*
X054458Y020674D01*
X054458Y020515D02*
X054618Y020515D01*
X054618Y020357D02*
X054458Y020357D01*
X054458Y020198D02*
X054618Y020198D01*
X054618Y020040D02*
X054458Y020040D01*
X054458Y019881D02*
X054618Y019881D01*
X054618Y019723D02*
X054458Y019723D01*
X054618Y019564D02*
X060798Y019564D01*
X060798Y019406D02*
X055958Y019406D01*
X055930Y019247D02*
X060798Y019247D01*
X060798Y019089D02*
X055883Y019089D01*
X055812Y018930D02*
X060798Y018930D01*
X060798Y018772D02*
X055718Y018772D01*
X055594Y018613D02*
X060798Y018613D01*
X060798Y018455D02*
X055421Y018455D01*
X055961Y019723D02*
X060798Y019723D01*
X060798Y019881D02*
X055936Y019881D01*
X055893Y020040D02*
X060798Y020040D01*
X060798Y020198D02*
X055829Y020198D01*
X055739Y020357D02*
X060798Y020357D01*
X060798Y020515D02*
X055621Y020515D01*
X055460Y020674D02*
X060798Y020674D01*
X060798Y020832D02*
X055229Y020832D01*
X051217Y019881D02*
X050860Y019881D01*
X050978Y019762D02*
X050721Y020020D01*
X050356Y020020D01*
X050098Y019762D01*
X050098Y019398D01*
X050356Y019140D01*
X050721Y019140D01*
X050978Y019398D01*
X050978Y019762D01*
X050978Y019723D02*
X051098Y019723D01*
X051098Y019564D02*
X050978Y019564D01*
X050978Y019406D02*
X051098Y019406D01*
X051249Y019247D02*
X050828Y019247D01*
X050721Y019020D02*
X050356Y019020D01*
X050098Y018762D01*
X050098Y018398D01*
X050356Y018140D01*
X050721Y018140D01*
X050978Y018398D01*
X050978Y018762D01*
X050721Y019020D01*
X050811Y018930D02*
X051266Y018930D01*
X051108Y018772D02*
X050969Y018772D01*
X050978Y018613D02*
X051098Y018613D01*
X051098Y018455D02*
X050978Y018455D01*
X050877Y018296D02*
X051200Y018296D01*
X050200Y018296D02*
X049877Y018296D01*
X049978Y018398D02*
X049721Y018140D01*
X049356Y018140D01*
X049098Y018398D01*
X049098Y018762D01*
X049356Y019020D01*
X049721Y019020D01*
X049978Y018762D01*
X049978Y018398D01*
X049978Y018455D02*
X050098Y018455D01*
X050098Y018613D02*
X049978Y018613D01*
X049969Y018772D02*
X050108Y018772D01*
X050266Y018930D02*
X049811Y018930D01*
X049721Y019140D02*
X049356Y019140D01*
X049098Y019398D01*
X049098Y019762D01*
X049356Y020020D01*
X049721Y020020D01*
X049978Y019762D01*
X049978Y019398D01*
X049721Y019140D01*
X049828Y019247D02*
X050249Y019247D01*
X050098Y019406D02*
X049978Y019406D01*
X049978Y019564D02*
X050098Y019564D01*
X050098Y019723D02*
X049978Y019723D01*
X049860Y019881D02*
X050217Y019881D01*
X049217Y019881D02*
X048860Y019881D01*
X048978Y019723D02*
X049098Y019723D01*
X049098Y019564D02*
X048978Y019564D01*
X048978Y019406D02*
X049098Y019406D01*
X049249Y019247D02*
X048828Y019247D01*
X048811Y018930D02*
X049266Y018930D01*
X049108Y018772D02*
X048969Y018772D01*
X048978Y018613D02*
X049098Y018613D01*
X049098Y018455D02*
X048978Y018455D01*
X048877Y018296D02*
X049200Y018296D01*
X058657Y017345D02*
X060798Y017345D01*
X060798Y017504D02*
X000521Y017504D01*
X000521Y017662D02*
X060798Y017662D01*
X060798Y017821D02*
X000521Y017821D01*
X000521Y017979D02*
X060798Y017979D01*
X060798Y015443D02*
X000521Y015443D01*
X000521Y015285D02*
X060798Y015285D01*
X060798Y015126D02*
X000521Y015126D01*
X000521Y014968D02*
X060798Y014968D01*
X060798Y014175D02*
X055962Y014175D01*
X056121Y014017D02*
X060798Y014017D01*
X060798Y013858D02*
X056279Y013858D01*
X056438Y013700D02*
X060798Y013700D01*
X060798Y013541D02*
X056596Y013541D01*
X056755Y013383D02*
X060798Y013383D01*
X060798Y013224D02*
X056913Y013224D01*
X057072Y013066D02*
X060798Y013066D01*
X060798Y012907D02*
X057230Y012907D01*
X057389Y012749D02*
X060798Y012749D01*
X060798Y012590D02*
X057547Y012590D01*
X057706Y012432D02*
X060798Y012432D01*
X060798Y012273D02*
X057864Y012273D01*
X058023Y012115D02*
X060798Y012115D01*
X060798Y011956D02*
X058181Y011956D01*
X058340Y011798D02*
X060798Y011798D01*
X056217Y013383D02*
X051864Y013383D01*
X051915Y013541D02*
X056059Y013541D01*
X055900Y013700D02*
X051896Y013700D01*
X051792Y013858D02*
X055742Y013858D01*
X051284Y013858D02*
X046085Y013858D01*
X037865Y014175D02*
X037212Y014175D01*
X037371Y014017D02*
X037706Y014017D01*
X031545Y018930D02*
X024500Y018930D01*
X024658Y019089D02*
X031386Y019089D01*
X031228Y019247D02*
X024817Y019247D01*
X024975Y019406D02*
X031069Y019406D01*
X030911Y019564D02*
X025134Y019564D01*
X025292Y019723D02*
X030898Y019723D01*
X030823Y019881D02*
X025451Y019881D01*
X025609Y020040D02*
X030735Y020040D01*
X030747Y020198D02*
X025768Y020198D01*
X025926Y020357D02*
X030851Y020357D01*
X031085Y020515D02*
X026085Y020515D01*
X026438Y020674D02*
X027485Y020674D01*
X027359Y020832D02*
X026491Y020832D01*
X026465Y020991D02*
X027335Y020991D01*
X027393Y021149D02*
X026444Y021149D01*
X026491Y021308D02*
X028394Y021308D01*
X028360Y021466D02*
X026462Y021466D01*
X026310Y021625D02*
X028403Y021625D01*
X028623Y021783D02*
X023353Y021783D01*
X023353Y021625D02*
X026017Y021625D01*
X025861Y020991D02*
X024468Y020991D01*
X024309Y020832D02*
X025835Y020832D01*
X025706Y020674D02*
X024151Y020674D01*
X023992Y020515D02*
X025547Y020515D01*
X025389Y020357D02*
X023834Y020357D01*
X023613Y020674D02*
X010213Y020674D01*
X009359Y020991D02*
X000521Y020991D01*
X000521Y021149D02*
X009201Y021149D01*
X009042Y021308D02*
X000521Y021308D01*
X000521Y021466D02*
X008884Y021466D01*
X008725Y021625D02*
X000521Y021625D01*
X000521Y021783D02*
X008567Y021783D01*
X008408Y021942D02*
X000521Y021942D01*
X000521Y022100D02*
X008250Y022100D01*
X008091Y022259D02*
X007477Y022259D01*
X007804Y022417D02*
X007933Y022417D01*
X006600Y022259D02*
X000521Y022259D01*
X000521Y022417D02*
X006273Y022417D01*
X006077Y022576D02*
X000521Y022576D01*
X000521Y022734D02*
X005922Y022734D01*
X005830Y022893D02*
X000521Y022893D01*
X000521Y023051D02*
X005741Y023051D01*
X005699Y023210D02*
X000521Y023210D01*
X000521Y023368D02*
X005656Y023368D01*
X005648Y023527D02*
X000521Y023527D01*
X000521Y023685D02*
X005648Y023685D01*
X005670Y023844D02*
X000521Y023844D01*
X000521Y024002D02*
X005712Y024002D01*
X005768Y024161D02*
X000521Y024161D01*
X000521Y024319D02*
X005860Y024319D01*
X005970Y024478D02*
X000521Y024478D01*
X000521Y024636D02*
X006129Y024636D01*
X006362Y024795D02*
X000521Y024795D01*
X000521Y024953D02*
X006792Y024953D01*
X012622Y023051D02*
X015779Y023051D01*
X015772Y023059D02*
X015852Y022978D01*
X015957Y022935D01*
X016070Y022935D01*
X016175Y022978D01*
X016255Y023059D01*
X016298Y023163D01*
X016298Y023277D01*
X016255Y023381D01*
X016175Y023462D01*
X016070Y023505D01*
X015973Y023505D01*
X015973Y023534D01*
X015930Y023639D01*
X015850Y023719D01*
X015745Y023762D01*
X015632Y023762D01*
X015527Y023719D01*
X015447Y023639D01*
X015403Y023534D01*
X015403Y023421D01*
X015447Y023316D01*
X015527Y023236D01*
X015632Y023193D01*
X015728Y023193D01*
X015728Y023163D01*
X015772Y023059D01*
X015591Y023210D02*
X012673Y023210D01*
X012805Y023368D02*
X015425Y023368D01*
X015403Y023527D02*
X012964Y023527D01*
X013122Y023685D02*
X015493Y023685D01*
X015884Y023685D02*
X017710Y023685D01*
X017757Y023527D02*
X015973Y023527D01*
X016260Y023368D02*
X018085Y023368D01*
X018108Y023210D02*
X016298Y023210D01*
X016247Y023051D02*
X018229Y023051D01*
X018597Y023051D02*
X020973Y023051D01*
X020973Y023210D02*
X018719Y023210D01*
X018741Y023368D02*
X020687Y023368D01*
X020653Y023527D02*
X018681Y023527D01*
X018603Y023685D02*
X020653Y023685D01*
X020653Y023844D02*
X018603Y023844D01*
X018603Y024002D02*
X020653Y024002D01*
X020653Y024161D02*
X018603Y024161D01*
X018603Y024319D02*
X020714Y024319D01*
X021612Y024319D02*
X022011Y024319D01*
X021773Y024161D02*
X021673Y024161D01*
X021673Y024002D02*
X021683Y024002D01*
X022315Y024319D02*
X023011Y024319D01*
X022773Y024161D02*
X022554Y024161D01*
X022644Y024002D02*
X022683Y024002D01*
X022671Y023685D02*
X022655Y023685D01*
X022581Y023527D02*
X022746Y023527D01*
X022946Y023368D02*
X022381Y023368D01*
X022353Y023210D02*
X022973Y023210D01*
X022973Y023051D02*
X022353Y023051D01*
X022353Y022893D02*
X022973Y022893D01*
X022973Y022734D02*
X022353Y022734D01*
X022353Y022576D02*
X022973Y022576D01*
X022973Y022417D02*
X022353Y022417D01*
X022353Y022259D02*
X022973Y022259D01*
X022973Y022100D02*
X022353Y022100D01*
X022353Y021942D02*
X022973Y021942D01*
X022973Y021783D02*
X022353Y021783D01*
X022353Y021625D02*
X022973Y021625D01*
X022973Y021466D02*
X022353Y021466D01*
X022353Y021308D02*
X022973Y021308D01*
X022868Y021149D02*
X022459Y021149D01*
X022491Y020991D02*
X022835Y020991D01*
X022880Y020832D02*
X022447Y020832D01*
X021868Y021149D02*
X021396Y021149D01*
X021488Y021308D02*
X021973Y021308D01*
X021973Y021466D02*
X021483Y021466D01*
X021383Y021625D02*
X021973Y021625D01*
X021973Y021783D02*
X021353Y021783D01*
X021353Y021942D02*
X021973Y021942D01*
X021973Y022100D02*
X021353Y022100D01*
X021353Y022259D02*
X021973Y022259D01*
X021973Y022417D02*
X021353Y022417D01*
X021353Y022576D02*
X021973Y022576D01*
X021973Y022734D02*
X021353Y022734D01*
X021353Y022893D02*
X021973Y022893D01*
X021973Y023051D02*
X021353Y023051D01*
X021353Y023210D02*
X021973Y023210D01*
X021946Y023368D02*
X021639Y023368D01*
X021673Y023527D02*
X021746Y023527D01*
X023353Y023210D02*
X030174Y023210D01*
X030333Y023368D02*
X026463Y023368D01*
X026623Y023527D02*
X030491Y023527D01*
X030650Y023685D02*
X026695Y023685D01*
X026713Y023850D02*
X026713Y023873D01*
X026700Y023959D01*
X026673Y024041D01*
X026634Y024118D01*
X026583Y024188D01*
X026522Y024250D01*
X026452Y024300D01*
X026374Y024340D01*
X026292Y024366D01*
X026207Y024380D01*
X026183Y024380D01*
X026183Y023850D01*
X026713Y023850D01*
X026686Y024002D02*
X030967Y024002D01*
X031028Y024161D02*
X026603Y024161D01*
X026415Y024319D02*
X031028Y024319D01*
X031090Y024478D02*
X018534Y024478D01*
X018376Y024636D02*
X031248Y024636D01*
X031829Y024636D02*
X032148Y024636D01*
X032028Y024478D02*
X031987Y024478D01*
X032307Y024795D02*
X018217Y024795D01*
X017436Y023844D02*
X013281Y023844D01*
X023315Y024319D02*
X024011Y024319D01*
X023773Y024161D02*
X023554Y024161D01*
X023644Y024002D02*
X023683Y024002D01*
X023671Y023685D02*
X023655Y023685D01*
X023581Y023527D02*
X023746Y023527D01*
X023946Y023368D02*
X023381Y023368D01*
X024381Y023368D02*
X024946Y023368D01*
X024746Y023527D02*
X024581Y023527D01*
X024655Y023685D02*
X024671Y023685D01*
X024683Y024002D02*
X024644Y024002D01*
X024554Y024161D02*
X024773Y024161D01*
X025011Y024319D02*
X024315Y024319D01*
X025315Y024319D02*
X025912Y024319D01*
X026143Y024319D02*
X026183Y024319D01*
X026183Y024161D02*
X026143Y024161D01*
X026143Y024002D02*
X026183Y024002D01*
X026183Y023844D02*
X030808Y023844D01*
X031029Y023527D02*
X031082Y023527D01*
X030988Y023368D02*
X030870Y023368D01*
X030712Y023210D02*
X031518Y023210D01*
X031073Y022893D02*
X030395Y022893D01*
X030553Y023051D02*
X030988Y023051D01*
X030016Y023051D02*
X023353Y023051D01*
X023353Y022893D02*
X029857Y022893D01*
X029699Y022734D02*
X023353Y022734D01*
X023353Y022576D02*
X029540Y022576D01*
X029382Y022417D02*
X023353Y022417D01*
X023353Y022259D02*
X029223Y022259D01*
X029065Y022100D02*
X023353Y022100D01*
X023353Y021942D02*
X028906Y021942D01*
X028570Y021149D02*
X027933Y021149D01*
X027841Y020674D02*
X031168Y020674D01*
X031460Y020832D02*
X029159Y020832D01*
X029318Y020991D02*
X031500Y020991D01*
X031701Y021149D02*
X029782Y021149D01*
X029545Y021149D02*
X029476Y021149D01*
X031620Y020198D02*
X032628Y020198D01*
X032653Y020040D02*
X031391Y020040D01*
X031303Y019881D02*
X032830Y019881D01*
X033077Y019723D02*
X031289Y019723D01*
X031448Y019564D02*
X033524Y019564D01*
X033535Y019406D02*
X031606Y019406D01*
X034422Y019406D02*
X034655Y019406D01*
X034643Y019564D02*
X034433Y019564D01*
X034433Y019723D02*
X034643Y019723D01*
X034643Y019881D02*
X034433Y019881D01*
X034433Y020040D02*
X034643Y020040D01*
X034643Y020198D02*
X034433Y020198D01*
X033780Y023685D02*
X045220Y023685D01*
X045051Y023844D02*
X033898Y023844D01*
X034048Y024002D02*
X045028Y024002D01*
X045116Y024161D02*
X034048Y024161D01*
X031241Y023685D02*
X031187Y023685D01*
X026183Y023685D02*
X026143Y023685D01*
X026143Y023527D02*
X026183Y023527D01*
X026183Y023368D02*
X026143Y023368D01*
X025863Y023368D02*
X025381Y023368D01*
X025581Y023527D02*
X025704Y023527D01*
X025724Y024161D02*
X025554Y024161D01*
X024406Y021466D02*
X023353Y021466D01*
X023353Y021308D02*
X024247Y021308D01*
X024089Y021149D02*
X023459Y021149D01*
X023491Y020991D02*
X023930Y020991D01*
X023772Y020832D02*
X023447Y020832D01*
X021861Y017345D02*
X021856Y017345D01*
X021467Y017345D02*
X021462Y017345D01*
X021073Y017345D02*
X021068Y017345D01*
X020679Y017345D02*
X004643Y017345D01*
X004254Y017345D02*
X004250Y017345D01*
X003861Y017345D02*
X003856Y017345D01*
X003467Y017345D02*
X003462Y017345D01*
X003073Y017345D02*
X003068Y017345D01*
X002679Y017345D02*
X000521Y017345D01*
X001561Y014334D02*
X005760Y014334D01*
X005670Y014175D02*
X001415Y014175D01*
X001415Y014017D02*
X005662Y014017D01*
X005728Y013858D02*
X001415Y013858D01*
X001231Y013541D02*
X000521Y013541D01*
X000521Y013383D02*
X000809Y013383D01*
X000691Y013224D02*
X000521Y013224D01*
X000521Y013066D02*
X000662Y013066D01*
X000703Y012907D02*
X000521Y012907D01*
X000521Y012749D02*
X000855Y012749D01*
X007346Y013541D02*
X007731Y013541D01*
X007682Y014492D02*
X007395Y014492D01*
X007236Y014651D02*
X007840Y014651D01*
X007999Y014809D02*
X007078Y014809D01*
X007915Y011155D02*
X007915Y011005D01*
X019007Y010530D02*
X019598Y010530D01*
X019598Y010688D02*
X019165Y010688D01*
X019587Y010847D02*
X019598Y010847D01*
X019598Y010371D02*
X019529Y010371D01*
X021228Y010847D02*
X021273Y010847D01*
X021232Y011005D02*
X021695Y011005D01*
X021853Y011164D02*
X021391Y011164D01*
X021812Y011322D02*
X022012Y011322D01*
X021860Y008786D02*
X027216Y008786D01*
X027162Y008628D02*
X021915Y008628D01*
X021900Y008469D02*
X027177Y008469D01*
X027276Y008311D02*
X021801Y008311D01*
X019598Y008311D02*
X019590Y008311D01*
X019598Y008469D02*
X019168Y008469D01*
X054794Y023210D02*
X060798Y023210D01*
X060798Y023368D02*
X055219Y023368D01*
X055451Y023527D02*
X060798Y023527D01*
X060798Y023685D02*
X055609Y023685D01*
X055718Y023844D02*
X060798Y023844D01*
X060798Y024002D02*
X055810Y024002D01*
X055865Y024161D02*
X060798Y024161D01*
X060798Y024319D02*
X055907Y024319D01*
X055928Y024478D02*
X060798Y024478D01*
X060798Y024636D02*
X055928Y024636D01*
X055920Y024795D02*
X060798Y024795D01*
X060798Y024953D02*
X055877Y024953D01*
X055835Y025112D02*
X060798Y025112D01*
X060798Y025270D02*
X055745Y025270D01*
X055653Y025429D02*
X060798Y025429D01*
X060798Y025587D02*
X055497Y025587D01*
X055300Y025746D02*
X060798Y025746D01*
X060798Y025904D02*
X054967Y025904D01*
X054109Y025904D02*
X000521Y025904D01*
X000521Y025746D02*
X053777Y025746D01*
X053580Y025587D02*
X000521Y025587D01*
X000521Y025429D02*
X053423Y025429D01*
X053332Y025270D02*
X000521Y025270D01*
X000521Y025112D02*
X053242Y025112D01*
X060798Y026063D02*
X000521Y026063D01*
D22*
X035098Y019830D02*
X035663Y019830D01*
D23*
X036938Y022380D02*
X048363Y022380D01*
X048788Y021955D01*
M02*
