G75*
%MOIN*%
%OFA0B0*%
%FSLAX24Y24*%
%IPPOS*%
%LPD*%
%AMOC8*
5,1,8,0,0,1.08239X$1,22.5*
%
%ADD10C,0.0277*%
%ADD11R,0.0680X0.0680*%
%ADD12C,0.0680*%
%ADD13OC8,0.0680*%
%ADD14R,0.0820X0.0820*%
%ADD15C,0.0820*%
%ADD16OC8,0.0820*%
%ADD17C,0.2580*%
%ADD18R,0.0710X0.0790*%
D10*
X002874Y016075D03*
X003268Y016075D03*
X003661Y016075D03*
X004055Y016075D03*
X004449Y016075D03*
X004449Y017075D03*
X004055Y017075D03*
X003661Y017075D03*
X003268Y017075D03*
X002874Y017075D03*
X020874Y017075D03*
X021268Y017075D03*
X021661Y017075D03*
X022055Y017075D03*
X022449Y017075D03*
X022449Y016075D03*
X022055Y016075D03*
X021661Y016075D03*
X021268Y016075D03*
X020874Y016075D03*
X038874Y016075D03*
X039268Y016075D03*
X039661Y016075D03*
X040055Y016075D03*
X040449Y016075D03*
X040449Y017075D03*
X040055Y017075D03*
X039661Y017075D03*
X039268Y017075D03*
X038874Y017075D03*
X056878Y017085D03*
X057272Y017085D03*
X057665Y017085D03*
X058059Y017085D03*
X058453Y017085D03*
X058453Y016085D03*
X058059Y016085D03*
X057665Y016085D03*
X057272Y016085D03*
X056878Y016085D03*
D11*
X045538Y013330D03*
X037538Y013330D03*
X029538Y013330D03*
X021538Y013330D03*
X014038Y014080D03*
X007538Y014080D03*
X001038Y014080D03*
X053288Y009330D03*
X057538Y009330D03*
D12*
X056288Y009330D03*
X056288Y008330D03*
X057538Y008330D03*
X057538Y007330D03*
X056288Y007330D03*
X056288Y006330D03*
X057538Y006330D03*
X057538Y005330D03*
X056288Y005330D03*
X053288Y005330D03*
X053288Y006330D03*
X051538Y006330D03*
X051538Y007330D03*
X053288Y007330D03*
X053288Y008330D03*
X051538Y008330D03*
X051538Y009330D03*
X051538Y010330D03*
X051538Y011330D03*
X051538Y013330D03*
X045538Y012330D03*
X045538Y011330D03*
X043538Y011330D03*
X043538Y010330D03*
X043538Y009330D03*
X045538Y009330D03*
X045538Y010330D03*
X045538Y008330D03*
X043538Y008330D03*
X043538Y007330D03*
X043538Y006330D03*
X037538Y008330D03*
X035538Y008330D03*
X035538Y007330D03*
X035538Y006330D03*
X029538Y008330D03*
X029538Y009330D03*
X029538Y010330D03*
X029538Y011330D03*
X029538Y012330D03*
X027538Y011330D03*
X027538Y010330D03*
X027538Y009330D03*
X027538Y008330D03*
X027538Y007330D03*
X027538Y006330D03*
X021538Y008330D03*
X021538Y009330D03*
X021538Y010330D03*
X021538Y011330D03*
X021538Y012330D03*
X019038Y012080D03*
X019038Y011080D03*
X019038Y010080D03*
X019038Y009080D03*
X019038Y008080D03*
X019038Y007080D03*
X019038Y006080D03*
X014038Y006080D03*
X012538Y006080D03*
X012538Y007080D03*
X014038Y007080D03*
X014038Y008080D03*
X012538Y008080D03*
X012538Y009080D03*
X014038Y009080D03*
X014038Y010080D03*
X012538Y010080D03*
X012538Y011080D03*
X014038Y011080D03*
X014038Y012080D03*
X012538Y012080D03*
X012538Y013080D03*
X014038Y013080D03*
X012538Y014080D03*
X007538Y013080D03*
X006038Y013080D03*
X006038Y012080D03*
X007538Y012080D03*
X007538Y011080D03*
X007538Y010080D03*
X006038Y010080D03*
X006038Y011080D03*
X006038Y009080D03*
X007538Y009080D03*
X007538Y008080D03*
X006038Y008080D03*
X006038Y007080D03*
X007538Y007080D03*
X007538Y006080D03*
X006038Y006080D03*
X001038Y006080D03*
X001038Y007080D03*
X001038Y008080D03*
X001038Y009080D03*
X001038Y010080D03*
X001038Y011080D03*
X001038Y012080D03*
X001038Y013080D03*
X006038Y014080D03*
X019038Y014080D03*
X019038Y013080D03*
X027538Y013330D03*
X035538Y013330D03*
X037538Y012330D03*
X037538Y011330D03*
X035538Y011330D03*
X035538Y010330D03*
X035538Y009330D03*
X037538Y009330D03*
X037538Y010330D03*
X043538Y013330D03*
X060538Y009330D03*
X060538Y008330D03*
X060538Y007330D03*
X060538Y006330D03*
X060538Y005330D03*
D13*
X009788Y004080D03*
X010788Y004080D03*
X011788Y004080D03*
X012788Y004080D03*
X013788Y004080D03*
X014788Y004080D03*
X015788Y004080D03*
X016788Y004080D03*
X017788Y004080D03*
X018788Y004080D03*
X018788Y005080D03*
X017788Y005080D03*
X016788Y005080D03*
X015788Y005080D03*
X014788Y005080D03*
X013788Y005080D03*
X012788Y005080D03*
X011788Y005080D03*
X010788Y005080D03*
X009788Y005080D03*
X009788Y018580D03*
X010788Y018580D03*
X011788Y018580D03*
X012788Y018580D03*
X013788Y018580D03*
X014788Y018580D03*
X015788Y018580D03*
X016788Y018580D03*
X017788Y018580D03*
X018788Y018580D03*
X018788Y019580D03*
X017788Y019580D03*
X016788Y019580D03*
X015788Y019580D03*
X014788Y019580D03*
X013788Y019580D03*
X012788Y019580D03*
X011788Y019580D03*
X010788Y019580D03*
X009788Y019580D03*
X042038Y019580D03*
X043038Y019580D03*
X044038Y019580D03*
X045038Y019580D03*
X046038Y019580D03*
X047038Y019580D03*
X048038Y019580D03*
X049038Y019580D03*
X050038Y019580D03*
X051038Y019580D03*
X051038Y018580D03*
X050038Y018580D03*
X049038Y018580D03*
X048038Y018580D03*
X047038Y018580D03*
X046038Y018580D03*
X045038Y018580D03*
X044038Y018580D03*
X043038Y018580D03*
X042038Y018580D03*
X042038Y005080D03*
X043038Y005080D03*
X044038Y005080D03*
X045038Y005080D03*
X046038Y005080D03*
X047038Y005080D03*
X048038Y005080D03*
X049038Y005080D03*
X050038Y005080D03*
X051038Y005080D03*
X051038Y004080D03*
X050038Y004080D03*
X049038Y004080D03*
X048038Y004080D03*
X047038Y004080D03*
X046038Y004080D03*
X045038Y004080D03*
X044038Y004080D03*
X043038Y004080D03*
X042038Y004080D03*
D14*
X021163Y023830D03*
D15*
X022163Y023830D03*
X023163Y023830D03*
X024163Y023830D03*
X025163Y023830D03*
X026163Y023830D03*
D16*
X031538Y024205D03*
X032538Y024305D03*
X033538Y024205D03*
X033538Y023205D03*
X032538Y023305D03*
X031538Y023205D03*
D17*
X054538Y024580D03*
X054538Y019580D03*
X007038Y019580D03*
X007038Y023580D03*
D18*
X033978Y019830D03*
X035098Y019830D03*
M02*
