%
M48
M72
T01C0.0150
T02C0.0197
T03C0.0236
T04C0.0315
T05C0.0400
T06C0.1260
%
T01
X32913Y19905
X36938Y22155
X45313Y23705
X48713Y21205
X16013Y22970
X15688Y23228
X12388Y23483
X12088Y23225
X12388Y22970
T02
X4449Y16825
X4055Y16825
X3661Y16825
X3268Y16825
X2874Y16825
X2874Y16075
X3268Y16075
X3661Y16075
X4055Y16075
X4449Y16075
X20874Y16075
X21268Y16075
X21661Y16075
X22055Y16075
X22449Y16075
X22449Y16825
X22055Y16825
X21661Y16825
X21268Y16825
X20874Y16825
X38874Y16825
X39268Y16825
X39661Y16825
X40055Y16825
X40449Y16825
X40449Y16075
X40055Y16075
X39661Y16075
X39268Y16075
X38874Y16075
X56878Y16085
X57272Y16085
X57665Y16085
X58059Y16085
X58453Y16085
X58453Y16835
X58059Y16835
X57665Y16835
X57272Y16835
X56878Y16835
T03
X52163Y12580
X51913Y11080
X48538Y11330
X48538Y12580
X49538Y9205
X48538Y8705
X49538Y8630
X50038Y8330
X50538Y7455
X52038Y8080
X54788Y8330
X54788Y9330
X59038Y8330
X59038Y6580
X59038Y5330
X58088Y5455
X54788Y5205
X54788Y6330
X50413Y5830
X49038Y5830
X47913Y5830
X47913Y7455
X42538Y5830
X41163Y5705
X41163Y7455
X41163Y8705
X41163Y10830
X41163Y11580
X41163Y12580
X32538Y11580
X32538Y10830
X32538Y8830
X36913Y5830
X32538Y5455
X29038Y5705
X24538Y9205
X24538Y11580
X18538Y11330
X16788Y11330
X17288Y10205
X16288Y8955
X17663Y7830
X10288Y8080
X10288Y7080
X10288Y9080
X10288Y10080
X10288Y11080
X10288Y12080
X10288Y13205
X16788Y13205
X28688Y19480
X27663Y20705
X27663Y21205
X28688Y21205
X29663Y21205
X31788Y20580
X32163Y20955
X31413Y20205
X31063Y19855
X32913Y21705
X30038Y23580
X26163Y21080
X26163Y20612
X24388Y20280
X23163Y20755
X22163Y20755
X21163Y21130
X18413Y23080
X18038Y23455
X17663Y23830
X35663Y19580
X37538Y19555
X48788Y21705
T04
X51538Y13580
X51538Y12580
X51538Y11580
X51538Y10580
X51538Y9580
X53288Y9330
X51538Y8580
X53288Y8330
X51538Y7580
X51538Y6580
X53288Y6330
X53288Y7330
X56288Y7330
X57538Y7330
X57538Y6330
X56288Y6330
X56288Y5330
X57538Y5330
X60538Y5330
X60538Y6330
X60538Y7330
X60538Y8330
X60538Y9330
X57538Y9330
X56288Y9330
X56288Y8330
X57538Y8330
X53288Y5330
X45538Y6580
X45538Y7580
X43538Y7580
X43538Y6580
X43538Y8580
X45538Y8580
X45538Y9580
X43538Y9580
X43538Y10580
X45538Y10580
X45538Y11580
X45538Y12580
X43538Y12580
X43538Y11580
X43538Y13580
X45538Y13580
X37538Y13580
X35538Y13580
X35538Y12580
X35538Y11580
X37538Y11580
X37538Y12580
X37538Y10580
X35538Y10580
X35538Y9580
X37538Y9580
X37538Y8580
X35538Y8580
X35538Y7580
X35538Y6580
X37538Y6580
X37538Y7580
X29538Y7580
X29538Y6580
X27538Y6580
X27538Y7580
X27538Y8580
X27538Y9580
X27538Y10580
X27538Y11580
X27538Y12580
X27538Y13580
X29538Y13580
X29538Y12580
X29538Y11580
X29538Y10580
X29538Y9580
X29538Y8580
X21538Y8580
X21538Y7580
X21538Y6580
X19288Y6080
X19288Y7080
X19288Y8080
X19288Y9080
X19288Y10080
X19288Y11080
X19288Y12080
X19288Y13080
X19288Y14080
X21538Y13580
X21538Y12580
X21538Y11580
X21538Y10580
X21538Y9580
X14288Y9080
X12538Y9080
X12538Y8080
X14288Y8080
X14288Y7080
X12538Y7080
X12538Y6080
X14288Y6080
X7538Y6080
X7538Y7080
X6038Y7080
X6038Y6080
X6038Y8080
X7538Y8080
X7538Y9080
X6038Y9080
X6038Y10080
X7538Y10080
X7538Y11080
X6038Y11080
X6038Y12080
X6038Y13080
X7538Y13080
X7538Y12080
X7538Y14080
X6038Y14080
X1038Y14080
X1038Y13080
X1038Y12080
X1038Y11080
X1038Y10080
X1038Y9080
X1038Y8080
X1038Y7080
X1038Y6080
X12538Y10080
X14288Y10080
X14288Y11080
X12538Y11080
X12538Y12080
X14288Y12080
X14288Y13080
X12538Y13080
X12538Y14080
X14288Y14080
T05
X9788Y4080
X10788Y4080
X11788Y4080
X12788Y4080
X13788Y4080
X14788Y4080
X15788Y4080
X16788Y4080
X17788Y4080
X18788Y4080
X18788Y5080
X17788Y5080
X16788Y5080
X15788Y5080
X14788Y5080
X13788Y5080
X12788Y5080
X11788Y5080
X10788Y5080
X9788Y5080
X9788Y18330
X10788Y18330
X11788Y18330
X12788Y18330
X13788Y18330
X14788Y18330
X15788Y18330
X16788Y18330
X17788Y18330
X18788Y18330
X18788Y19330
X17788Y19330
X16788Y19330
X15788Y19330
X14788Y19330
X13788Y19330
X12788Y19330
X11788Y19330
X10788Y19330
X9788Y19330
X21163Y23580
X22163Y23580
X23163Y23580
X24163Y23580
X25163Y23580
X26163Y23580
X31538Y23955
X32538Y24055
X33538Y23955
X33538Y22955
X32538Y23055
X31538Y22955
X42538Y19330
X43538Y19330
X44538Y19330
X45538Y19330
X46538Y19330
X47538Y19330
X48538Y19330
X49538Y19330
X50538Y19330
X51538Y19330
X51538Y18330
X50538Y18330
X49538Y18330
X48538Y18330
X47538Y18330
X46538Y18330
X45538Y18330
X44538Y18330
X43538Y18330
X42538Y18330
X42538Y5080
X43538Y5080
X44538Y5080
X45538Y5080
X46538Y5080
X47538Y5080
X48538Y5080
X49538Y5080
X50538Y5080
X51538Y5080
X51538Y4080
X50538Y4080
X49538Y4080
X48538Y4080
X47538Y4080
X46538Y4080
X45538Y4080
X44538Y4080
X43538Y4080
X42538Y4080
T06
X54538Y19330
X54538Y24330
X7038Y23330
X7038Y19330
M30
