G75*
%MOIN*%
%OFA0B0*%
%FSLAX24Y24*%
%IPPOS*%
%LPD*%
%AMOC8*
5,1,8,0,0,1.08239X$1,22.5*
%
%ADD10C,0.0277*%
%ADD11R,0.0552X0.0552*%
%ADD12C,0.0552*%
%ADD13OC8,0.0680*%
%ADD14R,0.0820X0.0820*%
%ADD15C,0.0820*%
%ADD16OC8,0.0820*%
%ADD17C,0.2580*%
%ADD18R,0.0710X0.0790*%
D10*
X002874Y016075D03*
X003268Y016075D03*
X003661Y016075D03*
X004055Y016075D03*
X004449Y016075D03*
X004449Y016825D03*
X004055Y016825D03*
X003661Y016825D03*
X003268Y016825D03*
X002874Y016825D03*
X020874Y016825D03*
X021268Y016825D03*
X021661Y016825D03*
X022055Y016825D03*
X022449Y016825D03*
X022449Y016075D03*
X022055Y016075D03*
X021661Y016075D03*
X021268Y016075D03*
X020874Y016075D03*
X038874Y016075D03*
X039268Y016075D03*
X039661Y016075D03*
X040055Y016075D03*
X040449Y016075D03*
X040449Y016825D03*
X040055Y016825D03*
X039661Y016825D03*
X039268Y016825D03*
X038874Y016825D03*
X056878Y016835D03*
X057272Y016835D03*
X057665Y016835D03*
X058059Y016835D03*
X058453Y016835D03*
X058453Y016085D03*
X058059Y016085D03*
X057665Y016085D03*
X057272Y016085D03*
X056878Y016085D03*
D11*
X045538Y013580D03*
X037538Y013580D03*
X029538Y013580D03*
X021538Y013580D03*
X014288Y014080D03*
X007538Y014080D03*
X001038Y014080D03*
X053288Y009330D03*
X057538Y009330D03*
D12*
X056288Y009330D03*
X056288Y008330D03*
X057538Y008330D03*
X057538Y007330D03*
X056288Y007330D03*
X056288Y006330D03*
X057538Y006330D03*
X057538Y005330D03*
X056288Y005330D03*
X053288Y005330D03*
X053288Y006330D03*
X053288Y007330D03*
X051538Y007580D03*
X051538Y006580D03*
X053288Y008330D03*
X051538Y008580D03*
X051538Y009580D03*
X051538Y010580D03*
X051538Y011580D03*
X051538Y012580D03*
X051538Y013580D03*
X045538Y012580D03*
X045538Y011580D03*
X043538Y011580D03*
X043538Y012580D03*
X043538Y013580D03*
X037538Y012580D03*
X037538Y011580D03*
X035538Y011580D03*
X035538Y012580D03*
X035538Y013580D03*
X029538Y012580D03*
X029538Y011580D03*
X029538Y010580D03*
X029538Y009580D03*
X029538Y008580D03*
X029538Y007580D03*
X029538Y006580D03*
X027538Y006580D03*
X027538Y007580D03*
X027538Y008580D03*
X027538Y009580D03*
X027538Y010580D03*
X027538Y011580D03*
X027538Y012580D03*
X027538Y013580D03*
X021538Y012580D03*
X021538Y011580D03*
X021538Y010580D03*
X021538Y009580D03*
X021538Y008580D03*
X021538Y007580D03*
X021538Y006580D03*
X019288Y006080D03*
X019288Y007080D03*
X019288Y008080D03*
X019288Y009080D03*
X019288Y010080D03*
X019288Y011080D03*
X019288Y012080D03*
X019288Y013080D03*
X019288Y014080D03*
X014288Y013080D03*
X012538Y013080D03*
X012538Y012080D03*
X014288Y012080D03*
X014288Y011080D03*
X012538Y011080D03*
X012538Y010080D03*
X014288Y010080D03*
X014288Y009080D03*
X012538Y009080D03*
X012538Y008080D03*
X014288Y008080D03*
X014288Y007080D03*
X012538Y007080D03*
X012538Y006080D03*
X014288Y006080D03*
X007538Y006080D03*
X007538Y007080D03*
X006038Y007080D03*
X006038Y006080D03*
X006038Y008080D03*
X007538Y008080D03*
X007538Y009080D03*
X006038Y009080D03*
X006038Y010080D03*
X007538Y010080D03*
X007538Y011080D03*
X006038Y011080D03*
X006038Y012080D03*
X006038Y013080D03*
X007538Y013080D03*
X007538Y012080D03*
X006038Y014080D03*
X001038Y013080D03*
X001038Y012080D03*
X001038Y011080D03*
X001038Y010080D03*
X001038Y009080D03*
X001038Y008080D03*
X001038Y007080D03*
X001038Y006080D03*
X012538Y014080D03*
X035538Y010580D03*
X037538Y010580D03*
X037538Y009580D03*
X035538Y009580D03*
X035538Y008580D03*
X037538Y008580D03*
X037538Y007580D03*
X037538Y006580D03*
X035538Y006580D03*
X035538Y007580D03*
X043538Y007580D03*
X043538Y006580D03*
X045538Y006580D03*
X045538Y007580D03*
X045538Y008580D03*
X043538Y008580D03*
X043538Y009580D03*
X045538Y009580D03*
X045538Y010580D03*
X043538Y010580D03*
X060538Y009330D03*
X060538Y008330D03*
X060538Y007330D03*
X060538Y006330D03*
X060538Y005330D03*
D13*
X009788Y004080D03*
X010788Y004080D03*
X011788Y004080D03*
X012788Y004080D03*
X013788Y004080D03*
X014788Y004080D03*
X015788Y004080D03*
X016788Y004080D03*
X017788Y004080D03*
X018788Y004080D03*
X018788Y005080D03*
X017788Y005080D03*
X016788Y005080D03*
X015788Y005080D03*
X014788Y005080D03*
X013788Y005080D03*
X012788Y005080D03*
X011788Y005080D03*
X010788Y005080D03*
X009788Y005080D03*
X009788Y018330D03*
X010788Y018330D03*
X011788Y018330D03*
X012788Y018330D03*
X013788Y018330D03*
X014788Y018330D03*
X015788Y018330D03*
X016788Y018330D03*
X017788Y018330D03*
X018788Y018330D03*
X018788Y019330D03*
X017788Y019330D03*
X016788Y019330D03*
X015788Y019330D03*
X014788Y019330D03*
X013788Y019330D03*
X012788Y019330D03*
X011788Y019330D03*
X010788Y019330D03*
X009788Y019330D03*
X042538Y019330D03*
X043538Y019330D03*
X044538Y019330D03*
X045538Y019330D03*
X046538Y019330D03*
X047538Y019330D03*
X048538Y019330D03*
X049538Y019330D03*
X050538Y019330D03*
X051538Y019330D03*
X051538Y018330D03*
X050538Y018330D03*
X049538Y018330D03*
X048538Y018330D03*
X047538Y018330D03*
X046538Y018330D03*
X045538Y018330D03*
X044538Y018330D03*
X043538Y018330D03*
X042538Y018330D03*
X042538Y005080D03*
X043538Y005080D03*
X044538Y005080D03*
X045538Y005080D03*
X046538Y005080D03*
X047538Y005080D03*
X048538Y005080D03*
X049538Y005080D03*
X050538Y005080D03*
X051538Y005080D03*
X051538Y004080D03*
X050538Y004080D03*
X049538Y004080D03*
X048538Y004080D03*
X047538Y004080D03*
X046538Y004080D03*
X045538Y004080D03*
X044538Y004080D03*
X043538Y004080D03*
X042538Y004080D03*
D14*
X021163Y023580D03*
D15*
X022163Y023580D03*
X023163Y023580D03*
X024163Y023580D03*
X025163Y023580D03*
X026163Y023580D03*
D16*
X031538Y023955D03*
X032538Y024055D03*
X033538Y023955D03*
X033538Y022955D03*
X032538Y023055D03*
X031538Y022955D03*
D17*
X054538Y024330D03*
X054538Y019330D03*
X007038Y019330D03*
X007038Y023330D03*
D18*
X033978Y019580D03*
X035098Y019580D03*
M02*
