G75*
%MOIN*%
%OFA0B0*%
%FSLAX24Y24*%
%IPPOS*%
%LPD*%
%AMOC8*
5,1,8,0,0,1.08239X$1,22.5*
%
%ADD10C,0.0000*%
%ADD11C,0.0060*%
%ADD12C,0.0040*%
%ADD13R,1.4375X0.4375*%
%ADD14C,0.0080*%
%ADD15C,0.0100*%
%ADD16R,0.1500X0.1500*%
%ADD17C,0.0059*%
D10*
X000150Y005656D02*
X000150Y026756D01*
X061150Y026756D01*
X061150Y005656D01*
X000150Y005656D01*
D11*
X009404Y016086D02*
X009831Y016086D01*
X009617Y016086D02*
X009617Y016726D01*
X009831Y016513D01*
X010048Y016619D02*
X010475Y016192D01*
X010369Y016086D01*
X010155Y016086D01*
X010048Y016192D01*
X010048Y016619D01*
X010155Y016726D01*
X010369Y016726D01*
X010475Y016619D01*
X010475Y016192D01*
X010693Y016192D02*
X010800Y016086D01*
X011013Y016086D01*
X011120Y016192D01*
X010693Y016619D01*
X010693Y016192D01*
X011120Y016192D02*
X011120Y016619D01*
X011013Y016726D01*
X010800Y016726D01*
X010693Y016619D01*
X011338Y016513D02*
X011551Y016086D01*
X011765Y016513D01*
X011982Y016406D02*
X011982Y016299D01*
X012409Y016299D01*
X012409Y016192D02*
X012409Y016406D01*
X012302Y016513D01*
X012089Y016513D01*
X011982Y016406D01*
X012089Y016086D02*
X012302Y016086D01*
X012409Y016192D01*
X012627Y016086D02*
X012840Y016299D01*
X012733Y016299D02*
X013054Y016299D01*
X013054Y016086D02*
X013054Y016726D01*
X012733Y016726D01*
X012627Y016619D01*
X012627Y016406D01*
X012733Y016299D01*
X018471Y015301D02*
X018471Y014761D01*
X018561Y014761D02*
X018381Y014761D01*
X018753Y014761D02*
X019023Y014761D01*
X019114Y014851D01*
X019023Y014941D01*
X018753Y014941D01*
X018753Y015031D02*
X018753Y014761D01*
X018753Y015031D02*
X018843Y015121D01*
X019023Y015121D01*
X019392Y015121D02*
X019392Y014761D01*
X019482Y014761D02*
X019302Y014761D01*
X019392Y015121D02*
X019482Y015121D01*
X019672Y015121D02*
X019762Y015121D01*
X019942Y014941D01*
X019942Y014761D02*
X019942Y015121D01*
X020134Y015031D02*
X020225Y015121D01*
X020405Y015121D01*
X020495Y015031D01*
X020495Y014851D01*
X020405Y014761D01*
X020225Y014761D01*
X020134Y014941D02*
X020495Y014941D01*
X020687Y014941D02*
X020687Y014851D01*
X020777Y014761D01*
X020957Y014761D01*
X021047Y014851D01*
X020957Y015031D02*
X021047Y015121D01*
X021047Y015211D01*
X020957Y015301D01*
X020777Y015301D01*
X020687Y015211D01*
X020777Y015031D02*
X020687Y014941D01*
X020777Y015031D02*
X020957Y015031D01*
X020134Y015031D02*
X020134Y014941D01*
X019392Y015301D02*
X019392Y015391D01*
X018561Y015301D02*
X018471Y015301D01*
X019206Y025580D02*
X019206Y026121D01*
X018936Y026121D01*
X018846Y026031D01*
X018846Y025851D01*
X018936Y025761D01*
X019206Y025761D01*
X019394Y025761D02*
X019484Y025851D01*
X019484Y026211D01*
X019574Y026121D02*
X019394Y026121D01*
X019762Y026121D02*
X019943Y026121D01*
X019852Y026211D02*
X019852Y025851D01*
X019762Y025761D01*
X020135Y025761D02*
X020135Y026031D01*
X020225Y026121D01*
X020405Y026121D01*
X020495Y026031D01*
X020495Y026301D02*
X020495Y025761D01*
X018653Y025761D02*
X018653Y025851D01*
X018563Y025851D01*
X018563Y025761D01*
X018653Y025761D01*
X018653Y026031D02*
X018653Y026121D01*
X018563Y026121D01*
X018563Y026031D01*
X018653Y026031D01*
X018377Y025761D02*
X018017Y026301D01*
X017464Y026301D02*
X017825Y025761D01*
X017272Y025761D02*
X017272Y026301D01*
X017182Y026121D02*
X017002Y026121D01*
X016912Y026031D01*
X016912Y025761D01*
X016720Y025851D02*
X016630Y025941D01*
X016359Y025941D01*
X016359Y026031D02*
X016359Y025761D01*
X016630Y025761D01*
X016720Y025851D01*
X016630Y026121D02*
X016450Y026121D01*
X016359Y026031D01*
X016167Y026031D02*
X016167Y025851D01*
X016077Y025761D01*
X015807Y025761D01*
X015615Y025761D02*
X015615Y026301D01*
X015807Y026121D02*
X016077Y026121D01*
X016167Y026031D01*
X015615Y025941D02*
X015345Y026121D01*
X015154Y026031D02*
X015064Y026121D01*
X014794Y026121D01*
X014602Y026121D02*
X014422Y026121D01*
X014512Y026211D02*
X014512Y025851D01*
X014422Y025761D01*
X014234Y025761D02*
X014234Y026121D01*
X014234Y025941D02*
X014054Y026121D01*
X013963Y026121D01*
X013773Y026121D02*
X013683Y026121D01*
X013683Y025761D01*
X013773Y025761D02*
X013593Y025761D01*
X013405Y025851D02*
X013405Y026031D01*
X013315Y026121D01*
X013045Y026121D01*
X012852Y026031D02*
X012762Y026121D01*
X012582Y026121D01*
X012492Y026031D01*
X012492Y025761D01*
X012300Y025761D02*
X012210Y025761D01*
X012210Y025851D01*
X012300Y025851D01*
X012300Y025761D01*
X012024Y025761D02*
X011754Y025761D01*
X011663Y025851D01*
X011754Y025941D01*
X011934Y025941D01*
X012024Y026031D01*
X011934Y026121D01*
X011663Y026121D01*
X011471Y026031D02*
X011381Y026121D01*
X011201Y026121D01*
X011111Y026031D01*
X011111Y025941D01*
X011471Y025941D01*
X011471Y025851D02*
X011471Y026031D01*
X011471Y025851D02*
X011381Y025761D01*
X011201Y025761D01*
X010919Y025761D02*
X010919Y026121D01*
X010649Y026121D01*
X010559Y026031D01*
X010559Y025761D01*
X010366Y025761D02*
X010276Y025761D01*
X010276Y025851D01*
X010366Y025851D01*
X010366Y025761D01*
X010090Y025851D02*
X010000Y025761D01*
X009730Y025761D01*
X009538Y025761D02*
X009177Y026121D01*
X009177Y025761D02*
X009538Y026121D01*
X009730Y026121D02*
X010000Y026121D01*
X010090Y026031D01*
X010090Y025851D01*
X008985Y025761D02*
X008625Y026301D01*
X008433Y026211D02*
X008343Y026301D01*
X008162Y026301D01*
X008072Y026211D01*
X008162Y026031D02*
X008072Y025941D01*
X008072Y025851D01*
X008162Y025761D01*
X008343Y025761D01*
X008433Y025851D01*
X008343Y026031D02*
X008162Y026031D01*
X008343Y026031D02*
X008433Y026121D01*
X008433Y026211D01*
X007880Y026121D02*
X007700Y026121D01*
X007790Y026211D02*
X007790Y025851D01*
X007700Y025761D01*
X007512Y025851D02*
X007422Y025941D01*
X007152Y025941D01*
X007152Y026031D02*
X007152Y025761D01*
X007422Y025761D01*
X007512Y025851D01*
X007422Y026121D02*
X007242Y026121D01*
X007152Y026031D01*
X006959Y026031D02*
X006959Y025851D01*
X006869Y025761D01*
X006599Y025761D01*
X006407Y025761D02*
X006407Y026301D01*
X006599Y026121D02*
X006869Y026121D01*
X006959Y026031D01*
X006407Y025941D02*
X006137Y026121D01*
X005947Y026211D02*
X005947Y025851D01*
X005857Y025761D01*
X005676Y025761D01*
X005586Y025851D01*
X005394Y025761D02*
X005214Y025761D01*
X005304Y025761D02*
X005304Y026301D01*
X005394Y026301D01*
X005586Y026211D02*
X005676Y026301D01*
X005857Y026301D01*
X005947Y026211D01*
X006137Y025761D02*
X006407Y025941D01*
X005026Y026031D02*
X005026Y025851D01*
X004936Y025761D01*
X004756Y025761D01*
X004665Y025851D01*
X004665Y026031D01*
X004756Y026121D01*
X004936Y026121D01*
X005026Y026031D01*
X004473Y026031D02*
X004473Y025851D01*
X004383Y025761D01*
X004113Y025761D01*
X003921Y025761D02*
X003921Y026301D01*
X004113Y026121D02*
X004383Y026121D01*
X004473Y026031D01*
X003921Y025941D02*
X003651Y026121D01*
X003921Y025941D02*
X003651Y025761D01*
X012852Y025761D02*
X012852Y026301D01*
X013045Y025761D02*
X013315Y025761D01*
X013405Y025851D01*
X013683Y026301D02*
X013683Y026391D01*
X014794Y025851D02*
X014884Y025941D01*
X015064Y025941D01*
X015154Y026031D01*
X015154Y025761D02*
X014884Y025761D01*
X014794Y025851D01*
X015345Y025761D02*
X015615Y025941D01*
X017182Y026121D02*
X017272Y026031D01*
D12*
X023114Y007261D02*
X023114Y006826D01*
X022897Y006826D01*
X022824Y006898D01*
X022824Y007043D01*
X022897Y007116D01*
X023114Y007116D01*
X022677Y007116D02*
X022677Y006898D01*
X022604Y006826D01*
X022387Y006826D01*
X022387Y006753D02*
X022459Y006680D01*
X022532Y006680D01*
X022387Y006753D02*
X022387Y007116D01*
X021802Y007043D02*
X021730Y007116D01*
X021512Y007116D01*
X021585Y006971D02*
X021730Y006971D01*
X021802Y007043D01*
X021802Y006826D02*
X021585Y006826D01*
X021512Y006898D01*
X021585Y006971D01*
X021365Y006971D02*
X021075Y006971D01*
X021075Y007043D01*
X021147Y007116D01*
X021292Y007116D01*
X021365Y007043D01*
X021365Y006898D01*
X021292Y006826D01*
X021147Y006826D01*
X020928Y006826D02*
X020928Y007116D01*
X020710Y007116D01*
X020637Y007043D01*
X020637Y006826D01*
X020673Y006446D02*
X020810Y006446D01*
X020878Y006378D01*
X020878Y006105D01*
X020810Y006036D01*
X020673Y006036D01*
X020605Y006105D01*
X020464Y006173D02*
X020327Y006310D01*
X020259Y006310D01*
X020119Y006241D02*
X020050Y006310D01*
X019913Y006310D01*
X019845Y006241D01*
X019845Y006173D01*
X020119Y006173D01*
X020119Y006105D02*
X020119Y006241D01*
X020119Y006105D02*
X020050Y006036D01*
X019913Y006036D01*
X019704Y006105D02*
X019636Y006173D01*
X019431Y006173D01*
X019431Y006241D02*
X019431Y006036D01*
X019636Y006036D01*
X019704Y006105D01*
X019636Y006310D02*
X019499Y006310D01*
X019431Y006241D01*
X019290Y006310D02*
X019153Y006310D01*
X019221Y006378D02*
X019221Y006105D01*
X019153Y006036D01*
X019014Y006036D02*
X018877Y006036D01*
X018945Y006036D02*
X018945Y006310D01*
X019014Y006310D01*
X018945Y006446D02*
X018945Y006515D01*
X018737Y006310D02*
X018601Y006036D01*
X018464Y006310D01*
X018323Y006241D02*
X018255Y006310D01*
X018118Y006310D01*
X018049Y006241D01*
X018049Y006173D01*
X018323Y006173D01*
X018323Y006105D02*
X018323Y006241D01*
X018323Y006105D02*
X018255Y006036D01*
X018118Y006036D01*
X017494Y006105D02*
X017494Y006378D01*
X017426Y006446D01*
X017289Y006446D01*
X017221Y006378D01*
X017080Y006241D02*
X017080Y006105D01*
X017012Y006036D01*
X016875Y006036D01*
X016806Y006105D01*
X016806Y006241D01*
X016875Y006310D01*
X017012Y006310D01*
X017080Y006241D01*
X017221Y006105D02*
X017289Y006036D01*
X017426Y006036D01*
X017494Y006105D01*
X016666Y006036D02*
X016666Y006310D01*
X016597Y006310D01*
X016529Y006241D01*
X016460Y006310D01*
X016392Y006241D01*
X016392Y006036D01*
X016529Y006036D02*
X016529Y006241D01*
X016251Y006310D02*
X016183Y006310D01*
X016114Y006241D01*
X016046Y006310D01*
X015978Y006241D01*
X015978Y006036D01*
X016114Y006036D02*
X016114Y006241D01*
X016251Y006310D02*
X016251Y006036D01*
X015837Y006105D02*
X015837Y006241D01*
X015768Y006310D01*
X015632Y006310D01*
X015563Y006241D01*
X015563Y006105D01*
X015632Y006036D01*
X015768Y006036D01*
X015837Y006105D01*
X015423Y006036D02*
X015423Y006310D01*
X015217Y006310D01*
X015149Y006241D01*
X015149Y006036D01*
X015008Y006036D02*
X014803Y006036D01*
X014735Y006105D01*
X014803Y006173D01*
X014940Y006173D01*
X015008Y006241D01*
X014940Y006310D01*
X014735Y006310D01*
X014179Y006310D02*
X014179Y006036D01*
X014179Y006241D02*
X013906Y006241D01*
X013906Y006310D02*
X013906Y006036D01*
X013697Y006105D02*
X013628Y006036D01*
X013697Y006105D02*
X013697Y006378D01*
X013765Y006310D02*
X013628Y006310D01*
X013489Y006310D02*
X013352Y006310D01*
X013420Y006378D02*
X013420Y006105D01*
X013352Y006036D01*
X013213Y006036D02*
X013213Y006310D01*
X013213Y006173D02*
X013076Y006310D01*
X013007Y006310D01*
X012867Y006310D02*
X012799Y006310D01*
X012799Y006036D01*
X012867Y006036D02*
X012731Y006036D01*
X012591Y006036D02*
X012386Y006036D01*
X012318Y006105D01*
X012318Y006241D01*
X012386Y006310D01*
X012591Y006310D01*
X012591Y006446D02*
X012591Y006036D01*
X012177Y006105D02*
X012177Y006310D01*
X012177Y006105D02*
X012108Y006036D01*
X011903Y006036D01*
X011903Y006310D01*
X011762Y006310D02*
X011626Y006310D01*
X011694Y006378D02*
X011694Y006105D01*
X011626Y006036D01*
X011486Y006036D02*
X011349Y006036D01*
X011418Y006036D02*
X011418Y006310D01*
X011486Y006310D01*
X011418Y006446D02*
X011418Y006515D01*
X011210Y006241D02*
X011210Y006105D01*
X011142Y006036D01*
X011005Y006036D01*
X010936Y006105D01*
X010936Y006241D01*
X011005Y006310D01*
X011142Y006310D01*
X011210Y006241D01*
X010796Y006310D02*
X010796Y006036D01*
X010796Y006310D02*
X010590Y006310D01*
X010522Y006241D01*
X010522Y006036D01*
X010381Y006241D02*
X010108Y006241D01*
X009967Y006310D02*
X009898Y006241D01*
X009762Y006241D01*
X009693Y006173D01*
X009693Y006105D01*
X009762Y006036D01*
X009898Y006036D01*
X009967Y006105D01*
X009967Y006310D02*
X009967Y006378D01*
X009898Y006446D01*
X009762Y006446D01*
X009693Y006378D01*
X009552Y006446D02*
X009552Y006036D01*
X009552Y006241D02*
X009484Y006310D01*
X009347Y006310D01*
X009279Y006241D01*
X009279Y006036D01*
X009138Y006105D02*
X009070Y006173D01*
X008865Y006173D01*
X008865Y006241D02*
X008865Y006036D01*
X009070Y006036D01*
X009138Y006105D01*
X009070Y006310D02*
X008933Y006310D01*
X008865Y006241D01*
X008724Y006173D02*
X008587Y006310D01*
X008519Y006310D01*
X008378Y006241D02*
X008310Y006310D01*
X008173Y006310D01*
X008105Y006241D01*
X008105Y006173D01*
X008378Y006173D01*
X008378Y006105D02*
X008378Y006241D01*
X008378Y006105D02*
X008310Y006036D01*
X008173Y006036D01*
X007964Y006036D02*
X007964Y006310D01*
X007827Y006446D01*
X007691Y006310D01*
X007691Y006036D01*
X007550Y006036D02*
X007413Y006036D01*
X007481Y006036D02*
X007481Y006446D01*
X007550Y006446D01*
X007691Y006241D02*
X007964Y006241D01*
X007274Y006310D02*
X007205Y006310D01*
X007205Y006036D01*
X007137Y006036D02*
X007274Y006036D01*
X006997Y006036D02*
X006997Y006446D01*
X007205Y006446D02*
X007205Y006515D01*
X006997Y006173D02*
X006792Y006310D01*
X006652Y006241D02*
X006584Y006310D01*
X006447Y006310D01*
X006378Y006241D01*
X006378Y006173D01*
X006652Y006173D01*
X006652Y006105D02*
X006652Y006241D01*
X006652Y006105D02*
X006584Y006036D01*
X006447Y006036D01*
X006792Y006036D02*
X006997Y006173D01*
X005823Y006105D02*
X005755Y006036D01*
X005618Y006036D01*
X005550Y006105D01*
X005550Y006173D01*
X005618Y006241D01*
X005687Y006241D01*
X005618Y006241D02*
X005550Y006310D01*
X005550Y006378D01*
X005618Y006446D01*
X005755Y006446D01*
X005823Y006378D01*
X005409Y006105D02*
X005341Y006105D01*
X005341Y006036D01*
X005409Y006036D01*
X005409Y006105D01*
X005202Y006105D02*
X004928Y006378D01*
X004928Y006105D01*
X004997Y006036D01*
X005133Y006036D01*
X005202Y006105D01*
X005202Y006378D01*
X005133Y006446D01*
X004997Y006446D01*
X004928Y006378D01*
X008724Y006310D02*
X008724Y006036D01*
X012799Y006446D02*
X012799Y006515D01*
X013906Y006310D02*
X014043Y006446D01*
X014179Y006310D01*
X020464Y006310D02*
X020464Y006036D01*
X020605Y006378D02*
X020673Y006446D01*
X021433Y006310D02*
X021501Y006310D01*
X021638Y006173D01*
X021638Y006036D02*
X021638Y006310D01*
X021779Y006241D02*
X021779Y006173D01*
X022052Y006173D01*
X022052Y006241D02*
X021984Y006310D01*
X021847Y006310D01*
X021779Y006241D01*
X021847Y006036D02*
X021984Y006036D01*
X022052Y006105D01*
X022052Y006241D01*
X022193Y006310D02*
X022398Y006310D01*
X022467Y006241D01*
X022467Y006105D01*
X022398Y006036D01*
X022193Y006036D01*
X022193Y006446D01*
X022607Y006241D02*
X022607Y006036D01*
X022607Y006241D02*
X022676Y006310D01*
X022881Y006310D01*
X022881Y006036D01*
X023022Y006036D02*
X023022Y006310D01*
X023295Y006310D02*
X023295Y006105D01*
X023227Y006036D01*
X023022Y006036D01*
X023850Y006036D02*
X023850Y006446D01*
X023850Y006310D02*
X024056Y006310D01*
X024124Y006241D01*
X024124Y006105D01*
X024056Y006036D01*
X023850Y006036D01*
X024265Y006173D02*
X024538Y006173D01*
X024538Y006241D02*
X024470Y006310D01*
X024333Y006310D01*
X024265Y006241D01*
X024265Y006173D01*
X024333Y006036D02*
X024470Y006036D01*
X024538Y006105D01*
X024538Y006241D01*
X024679Y006310D02*
X024884Y006310D01*
X024953Y006241D01*
X024884Y006173D01*
X024747Y006173D01*
X024679Y006105D01*
X024747Y006036D01*
X024953Y006036D01*
X025093Y006036D02*
X025299Y006036D01*
X025367Y006105D01*
X025299Y006173D01*
X025093Y006173D01*
X025093Y006241D02*
X025093Y006036D01*
X025093Y006241D02*
X025162Y006310D01*
X025299Y006310D01*
X025508Y006241D02*
X025508Y006173D01*
X025781Y006173D01*
X025781Y006241D02*
X025713Y006310D01*
X025576Y006310D01*
X025508Y006241D01*
X025576Y006036D02*
X025713Y006036D01*
X025781Y006105D01*
X025781Y006241D01*
X025921Y006036D02*
X026058Y006036D01*
X025989Y006036D02*
X025989Y006446D01*
X026058Y006446D01*
X026198Y006241D02*
X026198Y006173D01*
X026472Y006173D01*
X026472Y006241D02*
X026404Y006310D01*
X026267Y006310D01*
X026198Y006241D01*
X026267Y006036D02*
X026404Y006036D01*
X026472Y006105D01*
X026472Y006241D01*
X026613Y006241D02*
X026681Y006173D01*
X026886Y006173D01*
X026750Y006173D02*
X026613Y006036D01*
X026613Y006241D02*
X026613Y006378D01*
X026681Y006446D01*
X026886Y006446D01*
X026886Y006036D01*
X026905Y006826D02*
X026687Y006826D01*
X026615Y006898D01*
X026615Y007188D01*
X026687Y007261D01*
X026905Y007261D01*
X026905Y006826D01*
X026468Y006898D02*
X026468Y007043D01*
X026395Y007116D01*
X026250Y007116D01*
X026177Y007043D01*
X026177Y006971D01*
X026468Y006971D01*
X026468Y006898D02*
X026395Y006826D01*
X026250Y006826D01*
X026030Y006826D02*
X025813Y006826D01*
X025740Y006898D01*
X025813Y006971D01*
X025958Y006971D01*
X026030Y007043D01*
X025958Y007116D01*
X025740Y007116D01*
X025593Y007116D02*
X025520Y007116D01*
X025520Y006826D01*
X025448Y006826D02*
X025593Y006826D01*
X025301Y006898D02*
X025229Y006826D01*
X025011Y006826D01*
X025011Y006753D02*
X025011Y007116D01*
X025229Y007116D01*
X025301Y007043D01*
X025301Y006898D01*
X025156Y006680D02*
X025084Y006680D01*
X025011Y006753D01*
X024864Y006826D02*
X024864Y007116D01*
X024646Y007116D01*
X024574Y007043D01*
X024574Y006826D01*
X024427Y006898D02*
X024354Y006826D01*
X024209Y006826D01*
X024136Y006971D02*
X024427Y006971D01*
X024427Y007043D02*
X024354Y007116D01*
X024209Y007116D01*
X024136Y007043D01*
X024136Y006971D01*
X023989Y007043D02*
X023917Y007116D01*
X023699Y007116D01*
X023699Y007261D02*
X023699Y006826D01*
X023917Y006826D01*
X023989Y006898D01*
X023989Y007043D01*
X024427Y007043D02*
X024427Y006898D01*
X025520Y007261D02*
X025520Y007333D01*
D13*
X019463Y012218D03*
D14*
X012360Y018271D02*
X011900Y018271D01*
X011746Y018424D01*
X011746Y018577D01*
X011900Y018731D01*
X012360Y018731D01*
X012360Y019191D02*
X011900Y019191D01*
X011746Y019038D01*
X011746Y018884D01*
X011900Y018731D01*
X012360Y018271D02*
X012360Y019191D01*
X012360Y020271D02*
X012360Y020884D01*
X012053Y021191D01*
X011746Y020884D01*
X011746Y020271D01*
X011746Y020731D02*
X012360Y020731D01*
X012491Y022071D02*
X011877Y022071D01*
X011570Y022224D02*
X011417Y022071D01*
X011110Y022071D01*
X010957Y022224D01*
X010650Y022224D02*
X010496Y022071D01*
X010189Y022071D01*
X010036Y022224D01*
X010036Y022838D01*
X010189Y022991D01*
X010496Y022991D01*
X010650Y022838D01*
X010650Y022224D01*
X011570Y022224D02*
X011570Y022838D01*
X011417Y022991D01*
X011110Y022991D01*
X010957Y022838D01*
X011877Y022991D02*
X012491Y022991D01*
X012491Y022071D01*
X012491Y022531D02*
X012184Y022531D01*
X008985Y021038D02*
X008985Y020424D01*
X008832Y020271D01*
X008525Y020271D01*
X008371Y020424D01*
X008371Y021038D02*
X008525Y021191D01*
X008832Y021191D01*
X008985Y021038D01*
X008985Y019191D02*
X008525Y019191D01*
X008371Y019038D01*
X008371Y018424D01*
X008525Y018271D01*
X008985Y018271D01*
X008985Y019191D01*
D15*
X007650Y017156D02*
X015150Y017156D01*
X015150Y023656D01*
X007650Y023656D01*
X007650Y017156D01*
D16*
X010150Y018656D03*
X013525Y018656D03*
X013525Y020656D03*
X010150Y020656D03*
D17*
X003236Y017129D02*
X002953Y016783D01*
X003004Y016691D01*
X003044Y016594D01*
X003073Y016494D01*
X003518Y016448D01*
X003518Y016113D01*
X003073Y016067D01*
X003044Y015967D01*
X003004Y015870D01*
X002953Y015779D01*
X003236Y015432D01*
X002998Y015195D01*
X002652Y015477D01*
X002584Y015438D01*
X002513Y015405D01*
X002315Y015883D01*
X002379Y015916D01*
X002437Y015959D01*
X002487Y016012D01*
X002527Y016072D01*
X002556Y016138D01*
X002575Y016208D01*
X002581Y016281D01*
X002573Y016361D01*
X002551Y016438D01*
X002514Y016511D01*
X002465Y016574D01*
X002404Y016628D01*
X002335Y016669D01*
X002259Y016697D01*
X002179Y016710D01*
X002099Y016708D01*
X002020Y016691D01*
X001945Y016659D01*
X001878Y016615D01*
X001821Y016558D01*
X001775Y016492D01*
X001742Y016418D01*
X001723Y016339D01*
X001720Y016258D01*
X001732Y016179D01*
X001758Y016102D01*
X001798Y016032D01*
X001851Y015971D01*
X001914Y015920D01*
X001985Y015883D01*
X001787Y015405D01*
X001716Y015438D01*
X001648Y015477D01*
X001302Y015195D01*
X001064Y015432D01*
X001347Y015779D01*
X001296Y015870D01*
X001256Y015967D01*
X001227Y016067D01*
X000782Y016113D01*
X000782Y016448D01*
X001227Y016494D01*
X001256Y016594D01*
X001296Y016691D01*
X001347Y016783D01*
X001064Y017129D01*
X001302Y017366D01*
X001648Y017084D01*
X001740Y017134D01*
X001836Y017174D01*
X001937Y017204D01*
X001982Y017648D01*
X002318Y017648D01*
X002363Y017204D01*
X002464Y017174D01*
X002560Y017134D01*
X002652Y017084D01*
X002998Y017366D01*
X003236Y017129D01*
X003220Y017109D02*
X002683Y017109D01*
X002606Y017109D02*
X001694Y017109D01*
X001617Y017109D02*
X001080Y017109D01*
X001102Y017167D02*
X001547Y017167D01*
X001476Y017224D02*
X001159Y017224D01*
X001217Y017282D02*
X001405Y017282D01*
X001335Y017339D02*
X001275Y017339D01*
X001127Y017051D02*
X003173Y017051D01*
X003126Y016994D02*
X001174Y016994D01*
X001221Y016936D02*
X003079Y016936D01*
X003032Y016879D02*
X001268Y016879D01*
X001315Y016821D02*
X002985Y016821D01*
X002964Y016764D02*
X001336Y016764D01*
X001305Y016706D02*
X002090Y016706D01*
X002204Y016706D02*
X002995Y016706D01*
X003021Y016649D02*
X002370Y016649D01*
X002446Y016591D02*
X003045Y016591D01*
X003062Y016533D02*
X002496Y016533D01*
X002532Y016476D02*
X003247Y016476D01*
X003518Y016418D02*
X002556Y016418D01*
X002573Y016361D02*
X003518Y016361D01*
X003518Y016303D02*
X002578Y016303D01*
X002578Y016246D02*
X003518Y016246D01*
X003518Y016188D02*
X002569Y016188D01*
X002553Y016131D02*
X003518Y016131D01*
X003128Y016073D02*
X002527Y016073D01*
X002489Y016015D02*
X003058Y016015D01*
X003040Y015958D02*
X002435Y015958D01*
X002349Y015900D02*
X003016Y015900D01*
X002989Y015843D02*
X002331Y015843D01*
X002355Y015785D02*
X002957Y015785D01*
X002995Y015728D02*
X002379Y015728D01*
X002403Y015670D02*
X003042Y015670D01*
X003089Y015613D02*
X002427Y015613D01*
X002451Y015555D02*
X003136Y015555D01*
X003183Y015497D02*
X002474Y015497D01*
X002498Y015440D02*
X002587Y015440D01*
X002698Y015440D02*
X003230Y015440D01*
X003186Y015382D02*
X002768Y015382D01*
X002839Y015325D02*
X003128Y015325D01*
X003071Y015267D02*
X002909Y015267D01*
X002980Y015210D02*
X003013Y015210D01*
X001897Y015670D02*
X001258Y015670D01*
X001211Y015613D02*
X001873Y015613D01*
X001849Y015555D02*
X001164Y015555D01*
X001117Y015497D02*
X001826Y015497D01*
X001802Y015440D02*
X001713Y015440D01*
X001602Y015440D02*
X001070Y015440D01*
X001114Y015382D02*
X001532Y015382D01*
X001461Y015325D02*
X001172Y015325D01*
X001229Y015267D02*
X001391Y015267D01*
X001320Y015210D02*
X001287Y015210D01*
X001305Y015728D02*
X001921Y015728D01*
X001945Y015785D02*
X001343Y015785D01*
X001311Y015843D02*
X001969Y015843D01*
X001952Y015900D02*
X001284Y015900D01*
X001260Y015958D02*
X001867Y015958D01*
X001813Y016015D02*
X001242Y016015D01*
X001172Y016073D02*
X001775Y016073D01*
X001748Y016131D02*
X000782Y016131D01*
X000782Y016188D02*
X001730Y016188D01*
X001722Y016246D02*
X000782Y016246D01*
X000782Y016303D02*
X001722Y016303D01*
X001728Y016361D02*
X000782Y016361D01*
X000782Y016418D02*
X001742Y016418D01*
X001768Y016476D02*
X001053Y016476D01*
X001238Y016533D02*
X001804Y016533D01*
X001854Y016591D02*
X001255Y016591D01*
X001279Y016649D02*
X001929Y016649D01*
X001817Y017167D02*
X002483Y017167D01*
X002361Y017224D02*
X001939Y017224D01*
X001945Y017282D02*
X002355Y017282D01*
X002349Y017339D02*
X001951Y017339D01*
X001957Y017397D02*
X002343Y017397D01*
X002338Y017454D02*
X001962Y017454D01*
X001968Y017512D02*
X002332Y017512D01*
X002326Y017569D02*
X001974Y017569D01*
X001980Y017627D02*
X002320Y017627D01*
X002895Y017282D02*
X003083Y017282D01*
X003025Y017339D02*
X002965Y017339D01*
X002824Y017224D02*
X003141Y017224D01*
X003198Y017167D02*
X002753Y017167D01*
M02*
