G75*
%MOIN*%
%OFA0B0*%
%FSLAX24Y24*%
%IPPOS*%
%LPD*%
%AMOC8*
5,1,8,0,0,1.08239X$1,22.5*
%
%ADD10C,0.0664*%
%ADD11C,0.1227*%
%ADD12R,0.0500X0.0220*%
%ADD13R,0.0220X0.0500*%
%ADD14C,0.0480*%
%ADD15R,0.0256X0.0354*%
%ADD16C,0.0472*%
%ADD17C,0.1266*%
%ADD18C,0.1700*%
%ADD19C,0.0660*%
%ADD20C,0.1300*%
%ADD21R,0.0157X0.0472*%
%ADD22R,0.0472X0.0551*%
%ADD23R,0.1181X0.0630*%
%ADD24R,0.2250X0.1900*%
%ADD25R,0.0512X0.0591*%
%ADD26R,0.0709X0.0394*%
%ADD27OC8,0.0740*%
%ADD28R,0.0394X0.0433*%
%ADD29R,0.0433X0.0394*%
%ADD30R,0.0551X0.0394*%
%ADD31R,0.0300X0.0450*%
%ADD32R,0.0118X0.0394*%
%ADD33C,0.0118*%
%ADD34C,0.2500*%
%ADD35C,0.0290*%
%ADD36R,0.0500X0.0250*%
%ADD37R,0.0500X0.0500*%
%ADD38R,0.0250X0.0500*%
%ADD39C,0.0500*%
%ADD40C,0.0200*%
%ADD41C,0.0100*%
%ADD42C,0.0300*%
%ADD43C,0.2461*%
D10*
X029541Y006660D03*
X030525Y006660D03*
X031509Y006660D03*
D11*
X032651Y007645D03*
X028399Y007645D03*
D12*
X036210Y010678D03*
X036210Y010993D03*
X036210Y011308D03*
X036210Y011623D03*
X036210Y011938D03*
X036210Y012253D03*
X036210Y012568D03*
X036210Y012883D03*
X039590Y012883D03*
X039590Y012568D03*
X039590Y012253D03*
X039590Y011938D03*
X039590Y011623D03*
X039590Y011308D03*
X039590Y010993D03*
X039590Y010678D03*
D13*
X039002Y010091D03*
X038687Y010091D03*
X038372Y010091D03*
X038057Y010091D03*
X037743Y010091D03*
X037428Y010091D03*
X037113Y010091D03*
X036798Y010091D03*
X036798Y013471D03*
X037113Y013471D03*
X037428Y013471D03*
X037743Y013471D03*
X038057Y013471D03*
X038372Y013471D03*
X038687Y013471D03*
X039002Y013471D03*
D14*
X045400Y011406D03*
X045400Y008406D03*
X051400Y008406D03*
X051400Y011406D03*
D15*
X043800Y010194D03*
X043150Y010194D03*
X043150Y009367D03*
X043800Y009367D03*
D16*
X042900Y022294D02*
X042900Y022767D01*
X041900Y022767D02*
X041900Y022294D01*
D17*
X040900Y024531D03*
X044900Y024531D03*
D18*
X051425Y023693D03*
X053275Y022512D03*
X053275Y024874D03*
D19*
X024267Y023281D03*
X024267Y022501D03*
X023283Y022501D03*
X023283Y023281D03*
D20*
X021405Y024351D03*
X026145Y024351D03*
D21*
X028504Y023057D03*
X028760Y023057D03*
X029016Y023057D03*
X029272Y023057D03*
X029528Y023057D03*
X029784Y023057D03*
X030040Y023057D03*
X030296Y023057D03*
X030296Y020754D03*
X030040Y020754D03*
X029784Y020754D03*
X029528Y020754D03*
X029272Y020754D03*
X029016Y020754D03*
X028760Y020754D03*
X028504Y020754D03*
D22*
X033809Y008406D03*
X034991Y008406D03*
D23*
X050741Y017758D03*
X050741Y019553D03*
D24*
X048025Y018656D03*
D25*
X049776Y016781D03*
X050524Y016781D03*
X050524Y020531D03*
X049776Y020531D03*
D26*
X052150Y020604D03*
X052150Y021707D03*
D27*
X037600Y015906D03*
X036600Y015806D03*
X036600Y014806D03*
X037600Y014906D03*
X035600Y014906D03*
X035600Y015906D03*
D28*
X038690Y014906D03*
X039360Y014906D03*
X042690Y016656D03*
X043360Y016656D03*
X043025Y017446D03*
X043025Y018115D03*
X030485Y025156D03*
X029815Y025156D03*
X027610Y022431D03*
X026940Y022431D03*
X026940Y021381D03*
X027610Y021381D03*
X025610Y021406D03*
X024940Y021406D03*
X024940Y020531D03*
X025610Y020531D03*
X028450Y009740D03*
X028450Y009071D03*
X032625Y009071D03*
X032625Y009740D03*
X034065Y007531D03*
X034735Y007531D03*
D29*
X031775Y009071D03*
X030950Y009071D03*
X030950Y009740D03*
X031775Y009740D03*
X030125Y009740D03*
X029300Y009740D03*
X029300Y009071D03*
X030125Y009071D03*
X034815Y012568D03*
X035485Y012568D03*
X040315Y011628D03*
X040985Y011628D03*
X041815Y010181D03*
X042485Y010181D03*
X042485Y009356D03*
X041815Y009356D03*
X043315Y008156D03*
X043985Y008156D03*
X044190Y013031D03*
X044860Y013031D03*
X044860Y014031D03*
X044190Y014031D03*
X043940Y016656D03*
X044610Y016656D03*
X044025Y017446D03*
X044025Y018115D03*
X042025Y018115D03*
X042025Y017446D03*
X042110Y016656D03*
X041440Y016656D03*
X039360Y015906D03*
X038690Y015906D03*
X042940Y020781D03*
X043610Y020781D03*
X049400Y023821D03*
X049400Y024490D03*
X030485Y024281D03*
X029815Y024281D03*
X027610Y023281D03*
X026940Y023281D03*
X026940Y020531D03*
X027610Y020531D03*
X028565Y020031D03*
X029235Y020031D03*
X052940Y009906D03*
X053610Y009906D03*
D30*
X043458Y015531D03*
X042592Y015905D03*
X042592Y015156D03*
D31*
X042425Y018806D03*
X043025Y018806D03*
X043625Y018806D03*
X043625Y020006D03*
X043025Y020006D03*
X042425Y020006D03*
D32*
X042559Y014338D03*
X042756Y014338D03*
X042953Y014338D03*
X043150Y014338D03*
X043347Y014338D03*
X043544Y014338D03*
X043544Y012723D03*
X043347Y012723D03*
X043150Y012723D03*
X042953Y012723D03*
X042756Y012723D03*
X042559Y012723D03*
D33*
X048943Y025518D02*
X048943Y025794D01*
X048943Y025518D02*
X048667Y025518D01*
X048667Y025794D01*
X048943Y025794D01*
X048943Y025635D02*
X048667Y025635D01*
X048667Y025752D02*
X048943Y025752D01*
X049633Y025794D02*
X049633Y025518D01*
X049357Y025518D01*
X049357Y025794D01*
X049633Y025794D01*
X049633Y025635D02*
X049357Y025635D01*
X049357Y025752D02*
X049633Y025752D01*
X027982Y025794D02*
X027982Y025518D01*
X027982Y025794D02*
X028258Y025794D01*
X028258Y025518D01*
X027982Y025518D01*
X027982Y025635D02*
X028258Y025635D01*
X028258Y025752D02*
X027982Y025752D01*
X027292Y025794D02*
X027292Y025518D01*
X027292Y025794D02*
X027568Y025794D01*
X027568Y025518D01*
X027292Y025518D01*
X027292Y025635D02*
X027568Y025635D01*
X027568Y025752D02*
X027292Y025752D01*
D34*
X006900Y012156D03*
X006900Y008156D03*
X054400Y008156D03*
X054400Y013156D03*
D35*
X046275Y018656D03*
X045150Y016656D03*
X040900Y016656D03*
X041363Y012568D03*
X026275Y020531D03*
X029528Y023656D03*
X030296Y023656D03*
X029075Y024281D03*
D36*
X043150Y011976D03*
X043150Y010836D03*
D37*
X043150Y011406D03*
D38*
X043705Y011406D03*
D39*
X052150Y015406D02*
X054400Y013156D01*
X052150Y015406D02*
X052150Y020604D01*
X052150Y021707D02*
X052955Y022512D01*
X053275Y022512D01*
D40*
X052150Y020604D02*
X051792Y020604D01*
X050741Y019553D01*
X050524Y019770D01*
X050524Y020531D01*
X048025Y018656D02*
X048025Y018532D01*
X049776Y016781D01*
X048025Y018656D02*
X046275Y018656D01*
X046275Y016406D01*
X044190Y014321D01*
X044190Y014031D01*
X044190Y013821D01*
X043900Y013531D01*
X043525Y013531D01*
X043347Y013352D01*
X043169Y013531D01*
X042725Y013531D01*
X042575Y013381D01*
X042425Y013531D01*
X040775Y013531D01*
X039400Y014906D01*
X039360Y014906D02*
X039360Y014215D01*
X039350Y014206D01*
X038700Y012581D02*
X038663Y012581D01*
X038650Y012568D01*
X043900Y013531D02*
X044190Y013240D01*
X044190Y013031D01*
D41*
X000350Y005856D02*
X000350Y026556D01*
X060950Y026556D01*
X060950Y005856D01*
X036076Y005856D01*
X037841Y007621D01*
X037935Y007714D01*
X037935Y009731D01*
X038213Y009731D01*
X038215Y009732D01*
X038217Y009731D01*
X038528Y009731D01*
X038530Y009732D01*
X038532Y009731D01*
X038843Y009731D01*
X038845Y009732D01*
X038847Y009731D01*
X039158Y009731D01*
X039222Y009795D01*
X039222Y010386D01*
X039158Y010451D01*
X038847Y010451D01*
X038847Y011059D01*
X038160Y011747D01*
X038160Y011832D01*
X038120Y011928D01*
X038047Y012001D01*
X037952Y012041D01*
X037848Y012041D01*
X037785Y012014D01*
X037785Y012107D01*
X037745Y012203D01*
X037672Y012276D01*
X037577Y012316D01*
X037473Y012316D01*
X037378Y012276D01*
X037305Y012203D01*
X037265Y012107D01*
X037265Y012004D01*
X037305Y011908D01*
X037365Y011848D01*
X037365Y011714D01*
X038122Y010957D01*
X038102Y010966D01*
X037998Y010966D01*
X037903Y010926D01*
X037830Y010853D01*
X037790Y010757D01*
X037790Y010654D01*
X037830Y010558D01*
X037897Y010490D01*
X037897Y010451D01*
X037587Y010451D01*
X037585Y010449D01*
X037583Y010451D01*
X037272Y010451D01*
X037270Y010449D01*
X037268Y010451D01*
X036957Y010451D01*
X036955Y010449D01*
X036953Y010451D01*
X036642Y010451D01*
X036578Y010386D01*
X036578Y009795D01*
X036638Y009735D01*
X036638Y008994D01*
X035334Y007691D01*
X035041Y007691D01*
X035041Y007793D01*
X034977Y007857D01*
X034492Y007857D01*
X034428Y007793D01*
X034428Y007268D01*
X034492Y007204D01*
X034977Y007204D01*
X035041Y007268D01*
X035041Y007371D01*
X035466Y007371D01*
X035560Y007464D01*
X036958Y008862D01*
X036958Y009731D01*
X037268Y009731D01*
X037268Y007999D01*
X035584Y006316D01*
X031790Y006316D01*
X031884Y006410D01*
X031951Y006572D01*
X031951Y006748D01*
X031914Y006839D01*
X031935Y006860D01*
X031935Y007378D01*
X031965Y007306D01*
X032015Y007220D01*
X032076Y007140D01*
X032147Y007070D01*
X032226Y007009D01*
X032313Y006959D01*
X032405Y006920D01*
X032502Y006894D01*
X032601Y006881D01*
X032601Y007595D01*
X032701Y007595D01*
X032701Y007695D01*
X032601Y007695D01*
X032601Y008408D01*
X032601Y008408D01*
X032502Y008395D01*
X032405Y008369D01*
X032313Y008331D01*
X032226Y008281D01*
X032147Y008220D01*
X032076Y008149D01*
X032015Y008070D01*
X031965Y007983D01*
X031935Y007911D01*
X031935Y008764D01*
X032037Y008764D01*
X032102Y008828D01*
X032102Y009313D01*
X032037Y009378D01*
X031513Y009378D01*
X031448Y009313D01*
X031448Y009231D01*
X031277Y009231D01*
X031277Y009313D01*
X031212Y009378D01*
X030688Y009378D01*
X030623Y009313D01*
X030623Y008828D01*
X030688Y008764D01*
X031212Y008764D01*
X031277Y008828D01*
X031277Y008911D01*
X031448Y008911D01*
X031448Y008828D01*
X031513Y008764D01*
X031615Y008764D01*
X031615Y007095D01*
X031597Y007103D01*
X031421Y007103D01*
X031259Y007035D01*
X031134Y006911D01*
X031067Y006748D01*
X031067Y006572D01*
X031134Y006410D01*
X031229Y006316D01*
X030862Y006316D01*
X030893Y006346D01*
X030937Y006408D01*
X030972Y006475D01*
X030995Y006548D01*
X031005Y006610D01*
X030575Y006610D01*
X030575Y006710D01*
X031005Y006710D01*
X030995Y006773D01*
X030972Y006846D01*
X030937Y006913D01*
X030893Y006975D01*
X030839Y007028D01*
X030778Y007073D01*
X030710Y007107D01*
X030638Y007131D01*
X030575Y007141D01*
X030575Y006710D01*
X030475Y006710D01*
X030475Y006610D01*
X030045Y006610D01*
X030055Y006548D01*
X030078Y006475D01*
X030113Y006408D01*
X030157Y006346D01*
X030188Y006316D01*
X029821Y006316D01*
X029916Y006410D01*
X029983Y006572D01*
X029983Y006748D01*
X029916Y006911D01*
X029791Y007035D01*
X029629Y007103D01*
X029460Y007103D01*
X029460Y008764D01*
X029562Y008764D01*
X029627Y008828D01*
X029627Y008911D01*
X029798Y008911D01*
X029798Y008828D01*
X029863Y008764D01*
X030387Y008764D01*
X030452Y008828D01*
X030452Y009313D01*
X030387Y009378D01*
X029863Y009378D01*
X029798Y009313D01*
X029798Y009231D01*
X029627Y009231D01*
X029627Y009313D01*
X029562Y009378D01*
X029038Y009378D01*
X028973Y009313D01*
X028973Y008828D01*
X029038Y008764D01*
X029140Y008764D01*
X029140Y007829D01*
X029123Y007891D01*
X029085Y007983D01*
X029035Y008070D01*
X028974Y008149D01*
X028903Y008220D01*
X028824Y008281D01*
X028737Y008331D01*
X028645Y008369D01*
X028548Y008395D01*
X028449Y008408D01*
X028449Y007695D01*
X028349Y007695D01*
X028349Y008408D01*
X028349Y008408D01*
X028250Y008395D01*
X028153Y008369D01*
X028061Y008331D01*
X027974Y008281D01*
X027895Y008220D01*
X027824Y008149D01*
X027763Y008070D01*
X027713Y007983D01*
X027675Y007891D01*
X027649Y007794D01*
X027636Y007695D01*
X027636Y007695D01*
X028349Y007695D01*
X028349Y007595D01*
X027636Y007595D01*
X027636Y007595D01*
X027649Y007495D01*
X027675Y007399D01*
X027713Y007306D01*
X027763Y007220D01*
X027824Y007140D01*
X027895Y007070D01*
X027974Y007009D01*
X028061Y006959D01*
X028153Y006920D01*
X028250Y006894D01*
X028349Y006881D01*
X028349Y007595D01*
X028449Y007595D01*
X028449Y006881D01*
X028449Y006881D01*
X028548Y006894D01*
X028645Y006920D01*
X028737Y006959D01*
X028824Y007009D01*
X028903Y007070D01*
X028974Y007140D01*
X029035Y007220D01*
X029085Y007306D01*
X029123Y007399D01*
X029140Y007461D01*
X029140Y006848D01*
X029099Y006748D01*
X029099Y006572D01*
X029166Y006410D01*
X029260Y006316D01*
X012966Y006316D01*
X009216Y010066D01*
X007975Y011307D01*
X007988Y011320D01*
X008167Y011631D01*
X008260Y011976D01*
X008260Y012335D01*
X008167Y012680D01*
X007988Y012991D01*
X007735Y013244D01*
X007425Y013423D01*
X007079Y013516D01*
X006721Y013516D01*
X006375Y013423D01*
X006065Y013244D01*
X005812Y012991D01*
X005633Y012680D01*
X005540Y012335D01*
X005540Y011976D01*
X005633Y011631D01*
X005812Y011320D01*
X006065Y011067D01*
X006375Y010888D01*
X006721Y010796D01*
X007079Y010796D01*
X007425Y010888D01*
X007735Y011067D01*
X007749Y011081D01*
X008990Y009839D01*
X012740Y006089D01*
X012764Y006066D01*
X009216Y006066D01*
X007975Y007307D01*
X007988Y007320D01*
X008167Y007631D01*
X008260Y007976D01*
X008260Y008335D01*
X008167Y008680D01*
X007988Y008991D01*
X007735Y009244D01*
X007425Y009423D01*
X007079Y009516D01*
X006721Y009516D01*
X006375Y009423D01*
X006065Y009244D01*
X005812Y008991D01*
X005633Y008680D01*
X005540Y008335D01*
X005540Y007976D01*
X005633Y007631D01*
X005812Y007320D01*
X006065Y007067D01*
X006375Y006888D01*
X006721Y006796D01*
X007079Y006796D01*
X007425Y006888D01*
X007735Y007067D01*
X007749Y007081D01*
X008974Y005856D01*
X000350Y005856D01*
X000350Y005951D02*
X008878Y005951D01*
X008780Y006050D02*
X000350Y006050D01*
X000350Y006148D02*
X008681Y006148D01*
X008583Y006247D02*
X000350Y006247D01*
X000350Y006345D02*
X008484Y006345D01*
X008386Y006444D02*
X000350Y006444D01*
X000350Y006542D02*
X008287Y006542D01*
X008189Y006641D02*
X000350Y006641D01*
X000350Y006739D02*
X008090Y006739D01*
X007992Y006838D02*
X007236Y006838D01*
X007508Y006936D02*
X007893Y006936D01*
X007795Y007035D02*
X007678Y007035D01*
X008050Y007232D02*
X011598Y007232D01*
X011499Y007330D02*
X007994Y007330D01*
X008051Y007429D02*
X011401Y007429D01*
X011302Y007527D02*
X008108Y007527D01*
X008164Y007626D02*
X011204Y007626D01*
X011105Y007724D02*
X008192Y007724D01*
X008219Y007823D02*
X011007Y007823D01*
X010908Y007921D02*
X008245Y007921D01*
X008260Y008020D02*
X010810Y008020D01*
X010711Y008118D02*
X008260Y008118D01*
X008260Y008217D02*
X010613Y008217D01*
X010514Y008315D02*
X008260Y008315D01*
X008239Y008414D02*
X010416Y008414D01*
X010317Y008512D02*
X008212Y008512D01*
X008186Y008611D02*
X010219Y008611D01*
X010120Y008709D02*
X008151Y008709D01*
X008094Y008808D02*
X010022Y008808D01*
X009923Y008906D02*
X008037Y008906D01*
X007974Y009005D02*
X009825Y009005D01*
X009726Y009103D02*
X007876Y009103D01*
X007777Y009202D02*
X009628Y009202D01*
X009529Y009300D02*
X007638Y009300D01*
X007467Y009399D02*
X009431Y009399D01*
X009332Y009497D02*
X007148Y009497D01*
X006652Y009497D02*
X000350Y009497D01*
X000350Y009399D02*
X006333Y009399D01*
X006162Y009300D02*
X000350Y009300D01*
X000350Y009202D02*
X006023Y009202D01*
X005924Y009103D02*
X000350Y009103D01*
X000350Y009005D02*
X005826Y009005D01*
X005763Y008906D02*
X000350Y008906D01*
X000350Y008808D02*
X005706Y008808D01*
X005649Y008709D02*
X000350Y008709D01*
X000350Y008611D02*
X005614Y008611D01*
X005588Y008512D02*
X000350Y008512D01*
X000350Y008414D02*
X005561Y008414D01*
X005540Y008315D02*
X000350Y008315D01*
X000350Y008217D02*
X005540Y008217D01*
X005540Y008118D02*
X000350Y008118D01*
X000350Y008020D02*
X005540Y008020D01*
X005555Y007921D02*
X000350Y007921D01*
X000350Y007823D02*
X005581Y007823D01*
X005608Y007724D02*
X000350Y007724D01*
X000350Y007626D02*
X005636Y007626D01*
X005692Y007527D02*
X000350Y007527D01*
X000350Y007429D02*
X005749Y007429D01*
X005806Y007330D02*
X000350Y007330D01*
X000350Y007232D02*
X005901Y007232D01*
X005999Y007133D02*
X000350Y007133D01*
X000350Y007035D02*
X006122Y007035D01*
X006292Y006936D02*
X000350Y006936D01*
X000350Y006838D02*
X006564Y006838D01*
X006900Y008156D02*
X009150Y005906D01*
X035900Y005906D01*
X037775Y007781D01*
X037775Y010058D01*
X037743Y010091D01*
X038057Y010091D02*
X038057Y010698D01*
X038050Y010706D01*
X037853Y010876D02*
X036570Y010876D01*
X036570Y010838D02*
X036570Y011149D01*
X036568Y011151D01*
X036570Y011153D01*
X036570Y011411D01*
X036580Y011421D01*
X036600Y011455D01*
X036610Y011493D01*
X036610Y011618D01*
X036215Y011618D01*
X036215Y011628D01*
X036610Y011628D01*
X036610Y011753D01*
X036600Y011791D01*
X036580Y011825D01*
X036570Y011835D01*
X036570Y012094D01*
X036568Y012095D01*
X036570Y012097D01*
X036570Y012408D01*
X038505Y012408D01*
X038553Y012360D01*
X038648Y012321D01*
X038709Y012321D01*
X038811Y012218D01*
X038990Y012218D01*
X038990Y011639D01*
X039166Y011463D01*
X039197Y011463D01*
X039190Y011438D01*
X039190Y011313D01*
X039585Y011313D01*
X039585Y011303D01*
X039190Y011303D01*
X039190Y011178D01*
X039200Y011140D01*
X039220Y011106D01*
X039230Y011096D01*
X039230Y010838D01*
X039232Y010836D01*
X039230Y010834D01*
X039230Y010523D01*
X039294Y010458D01*
X039886Y010458D01*
X039950Y010523D01*
X039950Y010834D01*
X039948Y010836D01*
X039950Y010838D01*
X039950Y011096D01*
X039960Y011106D01*
X039980Y011140D01*
X039990Y011178D01*
X039990Y011303D01*
X039595Y011303D01*
X039595Y011313D01*
X039990Y011313D01*
X039990Y011384D01*
X040053Y011321D01*
X040155Y011321D01*
X040155Y009549D01*
X040990Y008714D01*
X041084Y008621D01*
X042341Y008621D01*
X042591Y008871D01*
X042685Y008964D01*
X042685Y009049D01*
X042747Y009049D01*
X042811Y009113D01*
X042811Y009207D01*
X042912Y009207D01*
X042912Y009144D01*
X042977Y009080D01*
X043324Y009080D01*
X043388Y009144D01*
X043388Y009590D01*
X043324Y009654D01*
X042977Y009654D01*
X042912Y009590D01*
X042912Y009527D01*
X042811Y009527D01*
X042811Y009598D01*
X042747Y009662D01*
X042223Y009662D01*
X042171Y009611D01*
X042152Y009644D01*
X042124Y009672D01*
X042090Y009692D01*
X042052Y009702D01*
X041864Y009702D01*
X041864Y009404D01*
X041767Y009404D01*
X041767Y009702D01*
X041579Y009702D01*
X041541Y009692D01*
X041507Y009672D01*
X041479Y009644D01*
X041459Y009610D01*
X041449Y009572D01*
X041449Y009404D01*
X041767Y009404D01*
X041767Y009307D01*
X041864Y009307D01*
X041864Y009009D01*
X042052Y009009D01*
X042090Y009019D01*
X042124Y009039D01*
X042152Y009067D01*
X042171Y009100D01*
X042223Y009049D01*
X042317Y009049D01*
X042209Y008941D01*
X041216Y008941D01*
X040475Y009681D01*
X040475Y011321D01*
X040577Y011321D01*
X040629Y011372D01*
X040648Y011339D01*
X040676Y011311D01*
X040710Y011291D01*
X040748Y011281D01*
X040936Y011281D01*
X040936Y011580D01*
X041033Y011580D01*
X041033Y011676D01*
X041351Y011676D01*
X041351Y011845D01*
X041341Y011883D01*
X041321Y011917D01*
X041293Y011945D01*
X041259Y011965D01*
X041221Y011975D01*
X041033Y011975D01*
X041033Y011676D01*
X040936Y011676D01*
X040936Y011975D01*
X040748Y011975D01*
X040710Y011965D01*
X040676Y011945D01*
X040648Y011917D01*
X040629Y011883D01*
X040577Y011935D01*
X040053Y011935D01*
X039990Y011872D01*
X039990Y011933D01*
X039595Y011933D01*
X039595Y011943D01*
X039990Y011943D01*
X039990Y012068D01*
X039980Y012106D01*
X039960Y012140D01*
X039950Y012150D01*
X039950Y012408D01*
X041162Y012408D01*
X041218Y012352D01*
X041312Y012313D01*
X041391Y012313D01*
X042365Y011339D01*
X042459Y011246D01*
X042790Y011246D01*
X042790Y011110D01*
X042842Y011058D01*
X042790Y011006D01*
X042790Y010665D01*
X042854Y010601D01*
X042990Y010601D01*
X042990Y010481D01*
X042977Y010481D01*
X042912Y010417D01*
X042912Y010354D01*
X042811Y010354D01*
X042811Y010423D01*
X042747Y010487D01*
X042223Y010487D01*
X042171Y010436D01*
X042152Y010469D01*
X042124Y010497D01*
X042090Y010517D01*
X042052Y010527D01*
X041864Y010527D01*
X041864Y010229D01*
X041767Y010229D01*
X041767Y010527D01*
X041579Y010527D01*
X041541Y010517D01*
X041507Y010497D01*
X041479Y010469D01*
X041459Y010435D01*
X041449Y010397D01*
X041449Y010229D01*
X041767Y010229D01*
X041767Y010132D01*
X041864Y010132D01*
X041864Y009834D01*
X042052Y009834D01*
X042090Y009844D01*
X042124Y009864D01*
X042152Y009892D01*
X042171Y009925D01*
X042223Y009874D01*
X042747Y009874D01*
X042811Y009938D01*
X042811Y010034D01*
X042912Y010034D01*
X042912Y009971D01*
X042977Y009907D01*
X043324Y009907D01*
X043388Y009971D01*
X043388Y010417D01*
X043324Y010481D01*
X043310Y010481D01*
X043310Y010601D01*
X043446Y010601D01*
X043510Y010665D01*
X043510Y011006D01*
X043458Y011058D01*
X043490Y011090D01*
X043534Y011046D01*
X043839Y011046D01*
X045240Y009644D01*
X045240Y008718D01*
X045202Y008702D01*
X045103Y008604D01*
X045050Y008475D01*
X045050Y008336D01*
X045058Y008316D01*
X044311Y008316D01*
X044311Y008398D01*
X044247Y008462D01*
X043723Y008462D01*
X043671Y008411D01*
X043652Y008444D01*
X043624Y008472D01*
X043590Y008492D01*
X043552Y008502D01*
X043364Y008502D01*
X043364Y008204D01*
X043267Y008204D01*
X043267Y008502D01*
X043079Y008502D01*
X043041Y008492D01*
X043007Y008472D01*
X042979Y008444D01*
X042959Y008410D01*
X042949Y008372D01*
X042949Y008204D01*
X043267Y008204D01*
X043267Y008107D01*
X043364Y008107D01*
X043364Y007809D01*
X043552Y007809D01*
X043590Y007819D01*
X043624Y007839D01*
X043652Y007867D01*
X043671Y007900D01*
X043723Y007849D01*
X044247Y007849D01*
X044311Y007913D01*
X044311Y007996D01*
X045216Y007996D01*
X045292Y008071D01*
X045330Y008056D01*
X045470Y008056D01*
X045598Y008109D01*
X045697Y008207D01*
X045750Y008336D01*
X045750Y008475D01*
X045697Y008604D01*
X045598Y008702D01*
X045560Y008718D01*
X045560Y009777D01*
X043940Y011397D01*
X043940Y011701D01*
X043876Y011766D01*
X043534Y011766D01*
X043490Y011721D01*
X043458Y011753D01*
X043510Y011805D01*
X043510Y012146D01*
X043446Y012211D01*
X043310Y012211D01*
X043310Y012417D01*
X043383Y012417D01*
X043393Y012407D01*
X043427Y012387D01*
X043465Y012377D01*
X043544Y012377D01*
X043623Y012377D01*
X043661Y012387D01*
X043695Y012407D01*
X043723Y012434D01*
X043743Y012469D01*
X043753Y012507D01*
X043753Y012723D01*
X043544Y012723D01*
X043544Y012377D01*
X043544Y012723D01*
X043544Y012723D01*
X043544Y012723D01*
X043753Y012723D01*
X043753Y012940D01*
X043743Y012978D01*
X043723Y013012D01*
X043695Y013040D01*
X043661Y013060D01*
X043623Y013070D01*
X043544Y013070D01*
X043544Y012723D01*
X043544Y012723D01*
X043544Y013070D01*
X043507Y013070D01*
X043507Y013215D01*
X043612Y013321D01*
X043813Y013321D01*
X043864Y013270D01*
X043864Y012788D01*
X043928Y012724D01*
X044452Y012724D01*
X044504Y012775D01*
X044523Y012742D01*
X044551Y012714D01*
X044585Y012694D01*
X044623Y012684D01*
X044811Y012684D01*
X044811Y012982D01*
X044908Y012982D01*
X044908Y012684D01*
X045096Y012684D01*
X045134Y012694D01*
X045168Y012714D01*
X045196Y012742D01*
X045216Y012776D01*
X045226Y012814D01*
X045226Y012982D01*
X044908Y012982D01*
X044908Y013079D01*
X044811Y013079D01*
X044811Y013377D01*
X044623Y013377D01*
X044585Y013367D01*
X044551Y013347D01*
X044523Y013319D01*
X044504Y013286D01*
X044452Y013337D01*
X044390Y013337D01*
X044197Y013531D01*
X044390Y013724D01*
X044452Y013724D01*
X044504Y013775D01*
X044523Y013742D01*
X044551Y013714D01*
X044585Y013694D01*
X044623Y013684D01*
X044811Y013684D01*
X044811Y013982D01*
X044908Y013982D01*
X044908Y013684D01*
X045096Y013684D01*
X045134Y013694D01*
X045168Y013714D01*
X045196Y013742D01*
X045216Y013776D01*
X045226Y013814D01*
X045226Y013982D01*
X044908Y013982D01*
X044908Y014079D01*
X044811Y014079D01*
X044811Y014377D01*
X044623Y014377D01*
X044585Y014367D01*
X044551Y014347D01*
X044523Y014319D01*
X044504Y014286D01*
X044478Y014312D01*
X046362Y016196D01*
X046485Y016319D01*
X046485Y018446D01*
X046790Y018446D01*
X046790Y017660D01*
X046854Y017596D01*
X048664Y017596D01*
X049410Y016849D01*
X049410Y016440D01*
X049475Y016375D01*
X049955Y016375D01*
X052740Y013590D01*
X052740Y010212D01*
X052678Y010212D01*
X052614Y010148D01*
X052614Y009846D01*
X051508Y008740D01*
X051470Y008756D01*
X051330Y008756D01*
X051202Y008702D01*
X051103Y008604D01*
X051050Y008475D01*
X051050Y008336D01*
X051103Y008207D01*
X051202Y008109D01*
X051330Y008056D01*
X051470Y008056D01*
X051598Y008109D01*
X051697Y008207D01*
X051750Y008336D01*
X051750Y008475D01*
X051734Y008513D01*
X052819Y009599D01*
X053202Y009599D01*
X053254Y009650D01*
X053273Y009617D01*
X053301Y009589D01*
X053335Y009569D01*
X053373Y009559D01*
X053561Y009559D01*
X053561Y009857D01*
X053658Y009857D01*
X053658Y009559D01*
X053846Y009559D01*
X053884Y009569D01*
X053918Y009589D01*
X053946Y009617D01*
X053966Y009651D01*
X053976Y009689D01*
X053976Y009857D01*
X053658Y009857D01*
X053658Y009954D01*
X053561Y009954D01*
X053561Y010252D01*
X053373Y010252D01*
X053335Y010242D01*
X053301Y010222D01*
X053273Y010194D01*
X053254Y010161D01*
X053202Y010212D01*
X053060Y010212D01*
X053060Y012902D01*
X053133Y012631D01*
X053312Y012320D01*
X053565Y012067D01*
X053875Y011888D01*
X054221Y011796D01*
X054579Y011796D01*
X054925Y011888D01*
X055235Y012067D01*
X055488Y012320D01*
X055667Y012631D01*
X055760Y012976D01*
X055760Y013335D01*
X055667Y013680D01*
X055488Y013991D01*
X055235Y014244D01*
X054925Y014423D01*
X054579Y014516D01*
X054221Y014516D01*
X053875Y014423D01*
X053727Y014337D01*
X052510Y015555D01*
X052510Y020297D01*
X052550Y020297D01*
X052614Y020362D01*
X052614Y020847D01*
X052550Y020911D01*
X052350Y020911D01*
X052222Y020964D01*
X052078Y020964D01*
X051950Y020911D01*
X051750Y020911D01*
X051686Y020847D01*
X051686Y020795D01*
X050869Y019978D01*
X050734Y019978D01*
X050734Y020125D01*
X050825Y020125D01*
X050890Y020190D01*
X050890Y020871D01*
X050825Y020936D01*
X050223Y020936D01*
X050171Y020884D01*
X050152Y020918D01*
X050124Y020946D01*
X050090Y020966D01*
X050052Y020976D01*
X049826Y020976D01*
X049826Y020581D01*
X049726Y020581D01*
X049726Y020976D01*
X049500Y020976D01*
X049462Y020966D01*
X049428Y020946D01*
X049400Y020918D01*
X049380Y020884D01*
X049370Y020846D01*
X049370Y020581D01*
X049726Y020581D01*
X049726Y020481D01*
X049370Y020481D01*
X049370Y020215D01*
X049380Y020177D01*
X049400Y020143D01*
X049428Y020115D01*
X049462Y020095D01*
X049500Y020085D01*
X049726Y020085D01*
X049726Y020481D01*
X049826Y020481D01*
X049826Y020085D01*
X050052Y020085D01*
X050090Y020095D01*
X050124Y020115D01*
X050152Y020143D01*
X050171Y020177D01*
X050223Y020125D01*
X050314Y020125D01*
X050314Y019978D01*
X050104Y019978D01*
X050040Y019914D01*
X050040Y019193D01*
X050104Y019128D01*
X051377Y019128D01*
X051441Y019193D01*
X051441Y019914D01*
X051420Y019935D01*
X051782Y020297D01*
X051790Y020297D01*
X051790Y015334D01*
X051845Y015202D01*
X053218Y013828D01*
X053133Y013680D01*
X053060Y013409D01*
X053060Y013723D01*
X050448Y016335D01*
X050474Y016335D01*
X050474Y016731D01*
X050574Y016731D01*
X050574Y016831D01*
X050474Y016831D01*
X050474Y017226D01*
X050248Y017226D01*
X050210Y017216D01*
X050176Y017196D01*
X050148Y017168D01*
X050129Y017134D01*
X050077Y017186D01*
X049668Y017186D01*
X049227Y017627D01*
X049260Y017660D01*
X049260Y019651D01*
X049195Y019716D01*
X048185Y019716D01*
X048185Y022379D01*
X049319Y023514D01*
X049662Y023514D01*
X049727Y023578D01*
X049727Y024063D01*
X049662Y024128D01*
X049138Y024128D01*
X049073Y024063D01*
X049073Y023721D01*
X047865Y022512D01*
X047865Y019716D01*
X046854Y019716D01*
X046790Y019651D01*
X046790Y018866D01*
X046426Y018866D01*
X046419Y018872D01*
X046326Y018911D01*
X046224Y018911D01*
X046131Y018872D01*
X046059Y018800D01*
X046020Y018706D01*
X046020Y018605D01*
X046059Y018511D01*
X046065Y018505D01*
X046065Y016492D01*
X043980Y014408D01*
X043980Y014337D01*
X043928Y014337D01*
X043864Y014273D01*
X043864Y014141D01*
X043753Y014141D01*
X043753Y014338D01*
X043753Y014554D01*
X043748Y014571D01*
X043866Y014571D01*
X043960Y014664D01*
X044770Y015474D01*
X044770Y016349D01*
X044872Y016349D01*
X044936Y016413D01*
X044936Y016496D01*
X044949Y016496D01*
X045006Y016439D01*
X045099Y016401D01*
X045201Y016401D01*
X045294Y016439D01*
X045366Y016511D01*
X045405Y016605D01*
X045405Y016706D01*
X045366Y016800D01*
X045294Y016872D01*
X045201Y016911D01*
X045099Y016911D01*
X045006Y016872D01*
X044949Y016816D01*
X044936Y016816D01*
X044936Y016898D01*
X044872Y016962D01*
X044348Y016962D01*
X044283Y016898D01*
X044283Y016413D01*
X044348Y016349D01*
X044450Y016349D01*
X044450Y015606D01*
X043734Y014891D01*
X043259Y014891D01*
X043062Y014694D01*
X042907Y014850D01*
X042913Y014850D01*
X042978Y014914D01*
X042978Y015399D01*
X042913Y015463D01*
X042752Y015463D01*
X042752Y015598D01*
X042913Y015598D01*
X042978Y015662D01*
X042978Y016147D01*
X042913Y016211D01*
X042752Y016211D01*
X042752Y016329D01*
X042933Y016329D01*
X042997Y016393D01*
X042997Y016918D01*
X042933Y016982D01*
X042448Y016982D01*
X042400Y016934D01*
X042372Y016962D01*
X042270Y016962D01*
X042270Y017139D01*
X042287Y017139D01*
X042352Y017203D01*
X042352Y017688D01*
X042287Y017753D01*
X041763Y017753D01*
X041698Y017688D01*
X041698Y017203D01*
X041763Y017139D01*
X041950Y017139D01*
X041950Y016962D01*
X041848Y016962D01*
X041783Y016898D01*
X041783Y016413D01*
X041848Y016349D01*
X042372Y016349D01*
X042400Y016377D01*
X042432Y016345D01*
X042432Y016211D01*
X042271Y016211D01*
X042206Y016147D01*
X042206Y015662D01*
X042271Y015598D01*
X042432Y015598D01*
X042432Y015463D01*
X042271Y015463D01*
X042206Y015399D01*
X042206Y015000D01*
X041600Y015606D01*
X041600Y016349D01*
X041702Y016349D01*
X041767Y016413D01*
X041767Y016898D01*
X041702Y016962D01*
X041178Y016962D01*
X041114Y016898D01*
X041114Y016816D01*
X041101Y016816D01*
X041044Y016872D01*
X040951Y016911D01*
X040849Y016911D01*
X040756Y016872D01*
X040684Y016800D01*
X040645Y016706D01*
X040645Y016605D01*
X040684Y016511D01*
X040756Y016439D01*
X040849Y016401D01*
X040951Y016401D01*
X041044Y016439D01*
X041101Y016496D01*
X041114Y016496D01*
X041114Y016413D01*
X041178Y016349D01*
X041280Y016349D01*
X041280Y015474D01*
X042090Y014664D01*
X042157Y014598D01*
X042155Y014598D01*
X042060Y014558D01*
X041987Y014485D01*
X041947Y014389D01*
X041947Y014286D01*
X041987Y014190D01*
X042060Y014117D01*
X042155Y014078D01*
X042259Y014078D01*
X042354Y014117D01*
X042390Y014153D01*
X042390Y014095D01*
X042455Y014031D01*
X042595Y014031D01*
X042605Y014021D01*
X042639Y014001D01*
X042677Y013991D01*
X042756Y013991D01*
X042756Y014338D01*
X042756Y014338D01*
X042756Y013991D01*
X042835Y013991D01*
X042873Y014001D01*
X042907Y014021D01*
X042917Y014031D01*
X043190Y014031D01*
X043190Y014014D01*
X043290Y013914D01*
X043384Y013821D01*
X043864Y013821D01*
X043864Y013791D01*
X043813Y013741D01*
X043438Y013741D01*
X043347Y013649D01*
X043256Y013741D01*
X042638Y013741D01*
X042575Y013677D01*
X042512Y013741D01*
X040862Y013741D01*
X039666Y014936D01*
X039666Y015168D01*
X039602Y015232D01*
X039117Y015232D01*
X039053Y015168D01*
X039053Y014643D01*
X039117Y014579D01*
X039150Y014579D01*
X039150Y014373D01*
X039130Y014353D01*
X039090Y014257D01*
X039090Y014154D01*
X039130Y014058D01*
X039203Y013985D01*
X039298Y013946D01*
X039402Y013946D01*
X039497Y013985D01*
X039570Y014058D01*
X039610Y014154D01*
X039610Y014257D01*
X039570Y014353D01*
X039570Y014354D01*
X039570Y014439D01*
X040688Y013321D01*
X042338Y013321D01*
X042365Y013294D01*
X042365Y013294D01*
X042399Y013259D01*
X042399Y012975D01*
X042390Y012966D01*
X042390Y012481D01*
X042455Y012417D01*
X042595Y012417D01*
X042605Y012407D01*
X042639Y012387D01*
X042677Y012377D01*
X042756Y012377D01*
X042756Y012723D01*
X042756Y012723D01*
X042756Y012377D01*
X042835Y012377D01*
X042873Y012387D01*
X042907Y012407D01*
X042917Y012417D01*
X042990Y012417D01*
X042990Y012211D01*
X042854Y012211D01*
X042790Y012146D01*
X042790Y011805D01*
X042842Y011753D01*
X042790Y011701D01*
X042790Y011566D01*
X042591Y011566D01*
X041618Y012539D01*
X041618Y012619D01*
X041579Y012712D01*
X041507Y012784D01*
X041413Y012823D01*
X041312Y012823D01*
X041218Y012784D01*
X041162Y012728D01*
X039950Y012728D01*
X039950Y013038D01*
X039886Y013103D01*
X039294Y013103D01*
X039230Y013038D01*
X039230Y012727D01*
X039232Y012725D01*
X039230Y012723D01*
X039230Y012524D01*
X039216Y012538D01*
X038960Y012538D01*
X038960Y012632D01*
X038920Y012728D01*
X038847Y012801D01*
X038752Y012841D01*
X038648Y012841D01*
X038553Y012801D01*
X038480Y012728D01*
X036570Y012728D01*
X036570Y013038D01*
X036506Y013103D01*
X036370Y013103D01*
X036370Y013412D01*
X035185Y014597D01*
X035185Y014642D01*
X035401Y014426D01*
X035799Y014426D01*
X035826Y014453D01*
X036578Y013702D01*
X036578Y013175D01*
X036642Y013111D01*
X036953Y013111D01*
X036955Y013112D01*
X036957Y013111D01*
X037268Y013111D01*
X037270Y013112D01*
X037272Y013111D01*
X037583Y013111D01*
X037585Y013112D01*
X037587Y013111D01*
X037898Y013111D01*
X037900Y013112D01*
X037902Y013111D01*
X038213Y013111D01*
X038215Y013112D01*
X038217Y013111D01*
X038528Y013111D01*
X038530Y013112D01*
X038532Y013111D01*
X038843Y013111D01*
X038845Y013112D01*
X038847Y013111D01*
X039158Y013111D01*
X039222Y013175D01*
X039222Y013766D01*
X039158Y013831D01*
X038847Y013831D01*
X038845Y013829D01*
X038843Y013831D01*
X038532Y013831D01*
X038530Y013829D01*
X038528Y013831D01*
X038217Y013831D01*
X038215Y013829D01*
X038213Y013831D01*
X037902Y013831D01*
X037900Y013829D01*
X037898Y013831D01*
X037587Y013831D01*
X037585Y013829D01*
X037583Y013831D01*
X037273Y013831D01*
X040177Y013831D01*
X040079Y013930D02*
X037273Y013930D01*
X037273Y014028D02*
X039160Y014028D01*
X039101Y014127D02*
X037273Y014127D01*
X037273Y014225D02*
X039090Y014225D01*
X039117Y014324D02*
X037273Y014324D01*
X037273Y014422D02*
X039150Y014422D01*
X039150Y014521D02*
X037894Y014521D01*
X037799Y014426D02*
X038080Y014707D01*
X038080Y014746D01*
X038384Y014746D01*
X038384Y014643D01*
X038448Y014579D01*
X038933Y014579D01*
X038997Y014643D01*
X038997Y015168D01*
X038933Y015232D01*
X038850Y015232D01*
X038850Y015599D01*
X038952Y015599D01*
X039017Y015663D01*
X039017Y016148D01*
X038952Y016212D01*
X038428Y016212D01*
X038364Y016148D01*
X038364Y015663D01*
X038428Y015599D01*
X038530Y015599D01*
X038530Y015232D01*
X038448Y015232D01*
X038384Y015168D01*
X038384Y015066D01*
X038080Y015066D01*
X038080Y015104D01*
X037799Y015386D01*
X037401Y015386D01*
X037273Y015257D01*
X037273Y015359D01*
X037053Y015579D01*
X037080Y015607D01*
X037080Y016004D01*
X036799Y016286D01*
X036401Y016286D01*
X036120Y016004D01*
X036120Y015607D01*
X036401Y015326D01*
X036799Y015326D01*
X036826Y015353D01*
X036953Y015227D01*
X036953Y015132D01*
X036799Y015286D01*
X036401Y015286D01*
X036374Y015258D01*
X036066Y015566D01*
X035939Y015566D01*
X036080Y015707D01*
X036080Y016104D01*
X035799Y016386D01*
X035401Y016386D01*
X035120Y016104D01*
X035120Y015707D01*
X035261Y015566D01*
X035209Y015566D01*
X035115Y015472D01*
X034865Y015222D01*
X034865Y014464D01*
X034959Y014371D01*
X036050Y013279D01*
X036050Y013103D01*
X035914Y013103D01*
X035850Y013038D01*
X035850Y012728D01*
X035811Y012728D01*
X035811Y012810D01*
X035747Y012875D01*
X035635Y012875D01*
X035635Y012973D01*
X035695Y013033D01*
X035735Y013129D01*
X035735Y013232D01*
X035695Y013328D01*
X035622Y013401D01*
X035527Y013441D01*
X035423Y013441D01*
X035328Y013401D01*
X035255Y013328D01*
X035215Y013232D01*
X035215Y013129D01*
X035255Y013033D01*
X035315Y012973D01*
X035315Y012875D01*
X035223Y012875D01*
X035171Y012823D01*
X035152Y012857D01*
X035124Y012885D01*
X035090Y012905D01*
X035052Y012915D01*
X034864Y012915D01*
X034864Y012616D01*
X034767Y012616D01*
X034767Y012519D01*
X034864Y012519D01*
X034864Y012221D01*
X035052Y012221D01*
X035090Y012231D01*
X035124Y012251D01*
X035152Y012279D01*
X035171Y012312D01*
X035223Y012261D01*
X035747Y012261D01*
X035811Y012325D01*
X035811Y012408D01*
X035850Y012408D01*
X035850Y012097D01*
X035852Y012095D01*
X035850Y012094D01*
X035850Y011835D01*
X035840Y011825D01*
X035820Y011791D01*
X035810Y011753D01*
X035810Y011628D01*
X036205Y011628D01*
X036205Y011618D01*
X035810Y011618D01*
X035810Y011493D01*
X035820Y011455D01*
X035840Y011421D01*
X035850Y011411D01*
X035850Y011153D01*
X030487Y011153D01*
X029381Y010047D01*
X029038Y010047D01*
X028973Y009983D01*
X028973Y009900D01*
X028757Y009900D01*
X028757Y010002D01*
X028692Y010067D01*
X028208Y010067D01*
X028143Y010002D01*
X028143Y009478D01*
X028194Y009427D01*
X028161Y009407D01*
X028133Y009380D01*
X028113Y009345D01*
X028103Y009307D01*
X028103Y009119D01*
X028402Y009119D01*
X028402Y009022D01*
X028498Y009022D01*
X028498Y008704D01*
X028667Y008704D01*
X028705Y008715D01*
X028739Y008734D01*
X028767Y008762D01*
X028787Y008796D01*
X028797Y008835D01*
X028797Y009022D01*
X028498Y009022D01*
X028498Y009119D01*
X028797Y009119D01*
X028797Y009307D01*
X028787Y009345D01*
X028767Y009380D01*
X028739Y009407D01*
X028706Y009427D01*
X028757Y009478D01*
X028757Y009580D01*
X028973Y009580D01*
X028973Y009498D01*
X029038Y009433D01*
X029562Y009433D01*
X029627Y009498D01*
X029627Y009840D01*
X030619Y010833D01*
X032642Y010833D01*
X031856Y010047D01*
X031513Y010047D01*
X031448Y009983D01*
X031448Y009498D01*
X031513Y009433D01*
X032037Y009433D01*
X032102Y009498D01*
X032102Y009580D01*
X032318Y009580D01*
X032318Y009478D01*
X032369Y009427D01*
X032336Y009407D01*
X032308Y009380D01*
X032288Y009345D01*
X032278Y009307D01*
X032278Y009119D01*
X032577Y009119D01*
X032577Y009022D01*
X032673Y009022D01*
X032673Y008704D01*
X032842Y008704D01*
X032880Y008715D01*
X032914Y008734D01*
X032942Y008762D01*
X032962Y008796D01*
X032972Y008835D01*
X032972Y009022D01*
X032673Y009022D01*
X032673Y009119D01*
X032972Y009119D01*
X032972Y009307D01*
X032962Y009345D01*
X032942Y009380D01*
X032914Y009407D01*
X032881Y009427D01*
X032932Y009478D01*
X032932Y010002D01*
X032867Y010067D01*
X032383Y010067D01*
X032318Y010002D01*
X032318Y009900D01*
X032161Y009900D01*
X032779Y010518D01*
X035854Y010518D01*
X035914Y010458D01*
X036506Y010458D01*
X036570Y010523D01*
X036570Y010834D01*
X036568Y010836D01*
X036570Y010838D01*
X036570Y010778D02*
X037798Y010778D01*
X037790Y010679D02*
X036570Y010679D01*
X036570Y010581D02*
X037820Y010581D01*
X037897Y010482D02*
X036529Y010482D01*
X036578Y010384D02*
X032645Y010384D01*
X032743Y010482D02*
X035891Y010482D01*
X036210Y010678D02*
X032713Y010678D01*
X031775Y009740D01*
X032625Y009740D01*
X032932Y009694D02*
X036638Y009694D01*
X036638Y009596D02*
X032932Y009596D01*
X032932Y009497D02*
X036638Y009497D01*
X036638Y009399D02*
X032923Y009399D01*
X032972Y009300D02*
X036638Y009300D01*
X036638Y009202D02*
X035722Y009202D01*
X035745Y009178D02*
X035672Y009251D01*
X035577Y009291D01*
X035473Y009291D01*
X035378Y009251D01*
X035305Y009178D01*
X035265Y009082D01*
X035265Y008997D01*
X035059Y008791D01*
X034709Y008791D01*
X034644Y008727D01*
X034644Y008084D01*
X034709Y008020D01*
X035272Y008020D01*
X035337Y008084D01*
X035337Y008616D01*
X035491Y008771D01*
X035577Y008771D01*
X035672Y008810D01*
X035745Y008883D01*
X035785Y008979D01*
X035785Y009082D01*
X035745Y009178D01*
X035776Y009103D02*
X036638Y009103D01*
X036638Y009005D02*
X035785Y009005D01*
X035755Y008906D02*
X036549Y008906D01*
X036451Y008808D02*
X035666Y008808D01*
X035430Y008709D02*
X036352Y008709D01*
X036254Y008611D02*
X035337Y008611D01*
X035337Y008512D02*
X036155Y008512D01*
X036057Y008414D02*
X035337Y008414D01*
X035337Y008315D02*
X035958Y008315D01*
X035860Y008217D02*
X035337Y008217D01*
X035337Y008118D02*
X035761Y008118D01*
X035663Y008020D02*
X033969Y008020D01*
X034091Y008020D01*
X034156Y008084D01*
X034156Y008727D01*
X034091Y008791D01*
X033528Y008791D01*
X033463Y008727D01*
X033463Y008084D01*
X033528Y008020D01*
X033649Y008020D01*
X033649Y007720D01*
X033759Y007611D01*
X033759Y007268D01*
X033823Y007204D01*
X034308Y007204D01*
X034372Y007268D01*
X034372Y007793D01*
X034308Y007857D01*
X033969Y007857D01*
X033969Y008020D01*
X033969Y007921D02*
X035564Y007921D01*
X035466Y007823D02*
X035012Y007823D01*
X035041Y007724D02*
X035367Y007724D01*
X035400Y007531D02*
X034735Y007531D01*
X034428Y007527D02*
X034372Y007527D01*
X034372Y007429D02*
X034428Y007429D01*
X034428Y007330D02*
X034372Y007330D01*
X034335Y007232D02*
X034465Y007232D01*
X034428Y007626D02*
X034372Y007626D01*
X034372Y007724D02*
X034428Y007724D01*
X034458Y007823D02*
X034342Y007823D01*
X034156Y008118D02*
X034644Y008118D01*
X034644Y008217D02*
X034156Y008217D01*
X034156Y008315D02*
X034644Y008315D01*
X034644Y008414D02*
X034156Y008414D01*
X034156Y008512D02*
X034644Y008512D01*
X034644Y008611D02*
X034156Y008611D01*
X034156Y008709D02*
X034644Y008709D01*
X034991Y008496D02*
X035525Y009031D01*
X035328Y009202D02*
X032972Y009202D01*
X032972Y009005D02*
X035265Y009005D01*
X035274Y009103D02*
X032673Y009103D01*
X032577Y009103D02*
X032102Y009103D01*
X032102Y009005D02*
X032278Y009005D01*
X032278Y009022D02*
X032278Y008835D01*
X032288Y008796D01*
X032308Y008762D01*
X032336Y008734D01*
X032370Y008715D01*
X032408Y008704D01*
X032577Y008704D01*
X032577Y009022D01*
X032278Y009022D01*
X032278Y008906D02*
X032102Y008906D01*
X032081Y008808D02*
X032285Y008808D01*
X032391Y008709D02*
X031935Y008709D01*
X031935Y008611D02*
X033463Y008611D01*
X033463Y008709D02*
X032859Y008709D01*
X032965Y008808D02*
X035076Y008808D01*
X035174Y008906D02*
X032972Y008906D01*
X032673Y008906D02*
X032577Y008906D01*
X032577Y008808D02*
X032673Y008808D01*
X032673Y008709D02*
X032577Y008709D01*
X032577Y009005D02*
X032673Y009005D01*
X032278Y009202D02*
X032102Y009202D01*
X032102Y009300D02*
X032278Y009300D01*
X032327Y009399D02*
X028748Y009399D01*
X028757Y009497D02*
X028974Y009497D01*
X028973Y009300D02*
X028797Y009300D01*
X028797Y009202D02*
X028973Y009202D01*
X028973Y009103D02*
X028498Y009103D01*
X028402Y009103D02*
X010179Y009103D01*
X010277Y009005D02*
X028103Y009005D01*
X028103Y009022D02*
X028103Y008835D01*
X028113Y008796D01*
X028133Y008762D01*
X028161Y008734D01*
X028195Y008715D01*
X028233Y008704D01*
X028402Y008704D01*
X028402Y009022D01*
X028103Y009022D01*
X028103Y008906D02*
X010376Y008906D01*
X010474Y008808D02*
X028110Y008808D01*
X028216Y008709D02*
X010573Y008709D01*
X010671Y008611D02*
X029140Y008611D01*
X029140Y008709D02*
X028684Y008709D01*
X028790Y008808D02*
X028994Y008808D01*
X028973Y008906D02*
X028797Y008906D01*
X028797Y009005D02*
X028973Y009005D01*
X029300Y009071D02*
X029300Y006901D01*
X029541Y006660D01*
X029851Y006345D02*
X030159Y006345D01*
X030094Y006444D02*
X029930Y006444D01*
X029970Y006542D02*
X030056Y006542D01*
X029983Y006641D02*
X030475Y006641D01*
X030475Y006710D02*
X030045Y006710D01*
X030055Y006773D01*
X030078Y006846D01*
X030113Y006913D01*
X030157Y006975D01*
X030211Y007028D01*
X030272Y007073D01*
X030340Y007107D01*
X030412Y007131D01*
X030475Y007141D01*
X030475Y006710D01*
X030475Y006739D02*
X030575Y006739D01*
X030575Y006641D02*
X031067Y006641D01*
X031067Y006739D02*
X031001Y006739D01*
X030974Y006838D02*
X031104Y006838D01*
X031159Y006936D02*
X030921Y006936D01*
X030830Y007035D02*
X031258Y007035D01*
X031615Y007133D02*
X030624Y007133D01*
X030575Y007133D02*
X030475Y007133D01*
X030426Y007133D02*
X029460Y007133D01*
X029460Y007232D02*
X031615Y007232D01*
X031615Y007330D02*
X029460Y007330D01*
X029460Y007429D02*
X031615Y007429D01*
X031615Y007527D02*
X029460Y007527D01*
X029460Y007626D02*
X031615Y007626D01*
X031615Y007724D02*
X029460Y007724D01*
X029460Y007823D02*
X031615Y007823D01*
X031615Y007921D02*
X029460Y007921D01*
X029460Y008020D02*
X031615Y008020D01*
X031615Y008118D02*
X029460Y008118D01*
X029460Y008217D02*
X031615Y008217D01*
X031615Y008315D02*
X029460Y008315D01*
X029460Y008414D02*
X031615Y008414D01*
X031615Y008512D02*
X029460Y008512D01*
X029460Y008611D02*
X031615Y008611D01*
X031615Y008709D02*
X029460Y008709D01*
X029606Y008808D02*
X029819Y008808D01*
X029798Y008906D02*
X029627Y008906D01*
X029300Y009071D02*
X030125Y009071D01*
X030452Y009103D02*
X030623Y009103D01*
X030623Y009005D02*
X030452Y009005D01*
X030452Y008906D02*
X030623Y008906D01*
X030644Y008808D02*
X030431Y008808D01*
X030452Y009202D02*
X030623Y009202D01*
X030623Y009300D02*
X030452Y009300D01*
X030387Y009433D02*
X029863Y009433D01*
X029798Y009498D01*
X029798Y009983D01*
X029863Y010047D01*
X030387Y010047D01*
X030452Y009983D01*
X030452Y009900D01*
X030623Y009900D01*
X030623Y009983D01*
X030688Y010047D01*
X030790Y010047D01*
X030790Y010098D01*
X030730Y010158D01*
X030690Y010254D01*
X030690Y010357D01*
X030730Y010453D01*
X030803Y010526D01*
X030898Y010566D01*
X031002Y010566D01*
X031097Y010526D01*
X031170Y010453D01*
X031210Y010357D01*
X031210Y010254D01*
X031170Y010158D01*
X031110Y010098D01*
X031110Y010047D01*
X031212Y010047D01*
X031277Y009983D01*
X031277Y009498D01*
X031212Y009433D01*
X030688Y009433D01*
X030623Y009498D01*
X030623Y009580D01*
X030452Y009580D01*
X030452Y009498D01*
X030387Y009433D01*
X030451Y009497D02*
X030624Y009497D01*
X030950Y009740D02*
X030125Y009740D01*
X029798Y009694D02*
X029627Y009694D01*
X029627Y009596D02*
X029798Y009596D01*
X029799Y009497D02*
X029626Y009497D01*
X029627Y009300D02*
X029798Y009300D01*
X029798Y009793D02*
X029627Y009793D01*
X029677Y009891D02*
X029798Y009891D01*
X029805Y009990D02*
X029776Y009990D01*
X029874Y010088D02*
X030790Y010088D01*
X030718Y010187D02*
X029973Y010187D01*
X030071Y010285D02*
X030690Y010285D01*
X030701Y010384D02*
X030170Y010384D01*
X030268Y010482D02*
X030759Y010482D01*
X030950Y010306D02*
X030950Y009740D01*
X031277Y009694D02*
X031448Y009694D01*
X031448Y009596D02*
X031277Y009596D01*
X031276Y009497D02*
X031449Y009497D01*
X031448Y009300D02*
X031277Y009300D01*
X031277Y008906D02*
X031448Y008906D01*
X031469Y008808D02*
X031256Y008808D01*
X030950Y009071D02*
X031775Y009071D01*
X031775Y006926D01*
X031509Y006660D01*
X031199Y006345D02*
X030891Y006345D01*
X030956Y006444D02*
X031120Y006444D01*
X031080Y006542D02*
X030994Y006542D01*
X030575Y006838D02*
X030475Y006838D01*
X030475Y006936D02*
X030575Y006936D01*
X030575Y007035D02*
X030475Y007035D01*
X030220Y007035D02*
X029792Y007035D01*
X029891Y006936D02*
X030129Y006936D01*
X030076Y006838D02*
X029946Y006838D01*
X029983Y006739D02*
X030049Y006739D01*
X029231Y006345D02*
X012937Y006345D01*
X012838Y006444D02*
X029152Y006444D01*
X029111Y006542D02*
X012740Y006542D01*
X012641Y006641D02*
X029099Y006641D01*
X029099Y006739D02*
X012543Y006739D01*
X012444Y006838D02*
X029135Y006838D01*
X029140Y006936D02*
X028683Y006936D01*
X028858Y007035D02*
X029140Y007035D01*
X029140Y007133D02*
X028967Y007133D01*
X029042Y007232D02*
X029140Y007232D01*
X029140Y007330D02*
X029095Y007330D01*
X029131Y007429D02*
X029140Y007429D01*
X028449Y007429D02*
X028349Y007429D01*
X028349Y007527D02*
X028449Y007527D01*
X028349Y007626D02*
X011656Y007626D01*
X011558Y007724D02*
X027639Y007724D01*
X027656Y007823D02*
X011459Y007823D01*
X011361Y007921D02*
X027687Y007921D01*
X027734Y008020D02*
X011262Y008020D01*
X011164Y008118D02*
X027800Y008118D01*
X027891Y008217D02*
X011065Y008217D01*
X010967Y008315D02*
X028033Y008315D01*
X028349Y008315D02*
X028449Y008315D01*
X028449Y008408D02*
X028449Y008408D01*
X028449Y008217D02*
X028349Y008217D01*
X028349Y008118D02*
X028449Y008118D01*
X028449Y008020D02*
X028349Y008020D01*
X028349Y007921D02*
X028449Y007921D01*
X028449Y007823D02*
X028349Y007823D01*
X028349Y007724D02*
X028449Y007724D01*
X028449Y007330D02*
X028349Y007330D01*
X028349Y007232D02*
X028449Y007232D01*
X028449Y007133D02*
X028349Y007133D01*
X028349Y007035D02*
X028449Y007035D01*
X028449Y006936D02*
X028349Y006936D01*
X028349Y006881D02*
X028349Y006881D01*
X028115Y006936D02*
X012346Y006936D01*
X012247Y007035D02*
X027940Y007035D01*
X027831Y007133D02*
X012149Y007133D01*
X012050Y007232D02*
X027756Y007232D01*
X027703Y007330D02*
X011952Y007330D01*
X011853Y007429D02*
X027667Y007429D01*
X027645Y007527D02*
X011755Y007527D01*
X011696Y007133D02*
X008149Y007133D01*
X008247Y007035D02*
X011795Y007035D01*
X011893Y006936D02*
X008346Y006936D01*
X008444Y006838D02*
X011992Y006838D01*
X012090Y006739D02*
X008543Y006739D01*
X008641Y006641D02*
X012189Y006641D01*
X012287Y006542D02*
X008740Y006542D01*
X008838Y006444D02*
X012386Y006444D01*
X012484Y006345D02*
X008937Y006345D01*
X009035Y006247D02*
X012583Y006247D01*
X012681Y006148D02*
X009134Y006148D01*
X010868Y008414D02*
X029140Y008414D01*
X029140Y008512D02*
X010770Y008512D01*
X010080Y009202D02*
X028103Y009202D01*
X028103Y009300D02*
X009982Y009300D01*
X009883Y009399D02*
X028152Y009399D01*
X028143Y009497D02*
X009785Y009497D01*
X009686Y009596D02*
X028143Y009596D01*
X028143Y009694D02*
X009588Y009694D01*
X009489Y009793D02*
X028143Y009793D01*
X028143Y009891D02*
X009391Y009891D01*
X009292Y009990D02*
X028143Y009990D01*
X028450Y009740D02*
X029300Y009740D01*
X030553Y010993D01*
X036210Y010993D01*
X036570Y010975D02*
X038105Y010975D01*
X038006Y011073D02*
X036570Y011073D01*
X036570Y011172D02*
X037908Y011172D01*
X037809Y011270D02*
X036570Y011270D01*
X036570Y011369D02*
X037711Y011369D01*
X037612Y011467D02*
X036603Y011467D01*
X036610Y011566D02*
X037514Y011566D01*
X037415Y011664D02*
X036610Y011664D01*
X036607Y011763D02*
X037365Y011763D01*
X037352Y011861D02*
X036570Y011861D01*
X036570Y011960D02*
X037283Y011960D01*
X037265Y012058D02*
X036570Y012058D01*
X036570Y012157D02*
X037285Y012157D01*
X037357Y012255D02*
X036570Y012255D01*
X036570Y012354D02*
X038569Y012354D01*
X038774Y012255D02*
X037693Y012255D01*
X037765Y012157D02*
X038990Y012157D01*
X038990Y012058D02*
X037785Y012058D01*
X037525Y012056D02*
X037525Y011781D01*
X038372Y010933D01*
X038372Y010091D01*
X038687Y010091D02*
X038687Y010993D01*
X037900Y011781D01*
X038089Y011960D02*
X038990Y011960D01*
X038990Y011861D02*
X038148Y011861D01*
X038160Y011763D02*
X038990Y011763D01*
X038990Y011664D02*
X038243Y011664D01*
X038341Y011566D02*
X039064Y011566D01*
X039162Y011467D02*
X038440Y011467D01*
X038538Y011369D02*
X039190Y011369D01*
X039190Y011270D02*
X038637Y011270D01*
X038735Y011172D02*
X039192Y011172D01*
X039230Y011073D02*
X038834Y011073D01*
X038847Y010975D02*
X039230Y010975D01*
X039230Y010876D02*
X038847Y010876D01*
X038847Y010778D02*
X039230Y010778D01*
X039230Y010679D02*
X038847Y010679D01*
X038847Y010581D02*
X039230Y010581D01*
X039271Y010482D02*
X038847Y010482D01*
X039222Y010384D02*
X040155Y010384D01*
X040155Y010482D02*
X039909Y010482D01*
X039950Y010581D02*
X040155Y010581D01*
X040155Y010679D02*
X039950Y010679D01*
X039950Y010778D02*
X040155Y010778D01*
X040155Y010876D02*
X039950Y010876D01*
X039950Y010975D02*
X040155Y010975D01*
X040155Y011073D02*
X039950Y011073D01*
X039988Y011172D02*
X040155Y011172D01*
X040155Y011270D02*
X039990Y011270D01*
X039990Y011369D02*
X040006Y011369D01*
X040310Y011623D02*
X039590Y011623D01*
X039232Y011623D01*
X039150Y011706D01*
X039150Y012156D01*
X039247Y012253D01*
X039275Y012253D01*
X039150Y012378D01*
X038877Y012378D01*
X038687Y012568D01*
X038650Y012568D01*
X036210Y012568D01*
X035485Y012568D01*
X035475Y012578D01*
X035475Y013181D01*
X035685Y013339D02*
X035991Y013339D01*
X036050Y013240D02*
X035732Y013240D01*
X035735Y013142D02*
X036050Y013142D01*
X035855Y013043D02*
X035699Y013043D01*
X035635Y012945D02*
X035850Y012945D01*
X035850Y012846D02*
X035775Y012846D01*
X035811Y012748D02*
X035850Y012748D01*
X036210Y012883D02*
X036210Y013346D01*
X035025Y014531D01*
X035025Y015156D01*
X035275Y015406D01*
X036000Y015406D01*
X036600Y014806D01*
X036874Y015210D02*
X036953Y015210D01*
X036871Y015309D02*
X036323Y015309D01*
X036320Y015407D02*
X036225Y015407D01*
X036221Y015506D02*
X036126Y015506D01*
X036123Y015604D02*
X035977Y015604D01*
X036076Y015703D02*
X036120Y015703D01*
X036120Y015801D02*
X036080Y015801D01*
X036080Y015900D02*
X036120Y015900D01*
X036120Y015998D02*
X036080Y015998D01*
X036080Y016097D02*
X036212Y016097D01*
X036311Y016195D02*
X035989Y016195D01*
X035891Y016294D02*
X037253Y016294D01*
X037351Y016392D02*
X000350Y016392D01*
X000350Y016294D02*
X035309Y016294D01*
X035211Y016195D02*
X000350Y016195D01*
X000350Y016097D02*
X035120Y016097D01*
X035120Y015998D02*
X000350Y015998D01*
X000350Y015900D02*
X035120Y015900D01*
X035120Y015801D02*
X000350Y015801D01*
X000350Y015703D02*
X035124Y015703D01*
X035223Y015604D02*
X000350Y015604D01*
X000350Y015506D02*
X035149Y015506D01*
X035050Y015407D02*
X000350Y015407D01*
X000350Y015309D02*
X034952Y015309D01*
X034865Y015210D02*
X000350Y015210D01*
X000350Y015112D02*
X034865Y015112D01*
X034865Y015013D02*
X000350Y015013D01*
X000350Y014915D02*
X034865Y014915D01*
X034865Y014816D02*
X000350Y014816D01*
X000350Y014718D02*
X034865Y014718D01*
X034865Y014619D02*
X000350Y014619D01*
X000350Y014521D02*
X034865Y014521D01*
X034907Y014422D02*
X000350Y014422D01*
X000350Y014324D02*
X035006Y014324D01*
X035104Y014225D02*
X000350Y014225D01*
X000350Y014127D02*
X035203Y014127D01*
X035301Y014028D02*
X000350Y014028D01*
X000350Y013930D02*
X035400Y013930D01*
X035498Y013831D02*
X000350Y013831D01*
X000350Y013733D02*
X035597Y013733D01*
X035695Y013634D02*
X000350Y013634D01*
X000350Y013536D02*
X035794Y013536D01*
X035892Y013437D02*
X035535Y013437D01*
X035415Y013437D02*
X007372Y013437D01*
X007571Y013339D02*
X035265Y013339D01*
X035218Y013240D02*
X007739Y013240D01*
X007837Y013142D02*
X035215Y013142D01*
X035251Y013043D02*
X007936Y013043D01*
X008015Y012945D02*
X035315Y012945D01*
X035194Y012846D02*
X035158Y012846D01*
X034864Y012846D02*
X034767Y012846D01*
X034767Y012915D02*
X034579Y012915D01*
X034541Y012905D01*
X034507Y012885D01*
X034479Y012857D01*
X034459Y012823D01*
X034449Y012785D01*
X034449Y012616D01*
X034767Y012616D01*
X034767Y012915D01*
X034767Y012748D02*
X034864Y012748D01*
X034864Y012649D02*
X034767Y012649D01*
X034767Y012551D02*
X008202Y012551D01*
X008176Y012649D02*
X034449Y012649D01*
X034449Y012748D02*
X008129Y012748D01*
X008072Y012846D02*
X034473Y012846D01*
X034449Y012519D02*
X034449Y012351D01*
X034459Y012313D01*
X034479Y012279D01*
X034507Y012251D01*
X034541Y012231D01*
X034579Y012221D01*
X034767Y012221D01*
X034767Y012519D01*
X034449Y012519D01*
X034449Y012452D02*
X008229Y012452D01*
X008255Y012354D02*
X034449Y012354D01*
X034503Y012255D02*
X008260Y012255D01*
X008260Y012157D02*
X035850Y012157D01*
X035850Y012255D02*
X035128Y012255D01*
X034864Y012255D02*
X034767Y012255D01*
X034767Y012354D02*
X034864Y012354D01*
X034864Y012452D02*
X034767Y012452D01*
X035811Y012354D02*
X035850Y012354D01*
X035850Y012058D02*
X008260Y012058D01*
X008255Y011960D02*
X035850Y011960D01*
X035850Y011861D02*
X008229Y011861D01*
X008203Y011763D02*
X035813Y011763D01*
X035810Y011664D02*
X008176Y011664D01*
X008130Y011566D02*
X035810Y011566D01*
X035817Y011467D02*
X008073Y011467D01*
X008016Y011369D02*
X035850Y011369D01*
X035850Y011270D02*
X008012Y011270D01*
X008110Y011172D02*
X035850Y011172D01*
X036578Y010285D02*
X032546Y010285D01*
X032448Y010187D02*
X036578Y010187D01*
X036578Y010088D02*
X032349Y010088D01*
X032318Y009990D02*
X032251Y009990D01*
X031995Y010187D02*
X031182Y010187D01*
X031210Y010285D02*
X032094Y010285D01*
X032192Y010384D02*
X031199Y010384D01*
X031141Y010482D02*
X032291Y010482D01*
X032389Y010581D02*
X030367Y010581D01*
X030465Y010679D02*
X032488Y010679D01*
X032586Y010778D02*
X030564Y010778D01*
X030308Y010975D02*
X008307Y010975D01*
X008209Y011073D02*
X030407Y011073D01*
X030210Y010876D02*
X008406Y010876D01*
X008504Y010778D02*
X030111Y010778D01*
X030013Y010679D02*
X008603Y010679D01*
X008701Y010581D02*
X029914Y010581D01*
X029816Y010482D02*
X008800Y010482D01*
X008898Y010384D02*
X029717Y010384D01*
X029619Y010285D02*
X008997Y010285D01*
X009095Y010187D02*
X029520Y010187D01*
X029422Y010088D02*
X009194Y010088D01*
X009150Y009906D02*
X012900Y006156D01*
X035650Y006156D01*
X037400Y007906D01*
X037428Y007933D01*
X037428Y010091D01*
X036798Y010091D02*
X036798Y008928D01*
X035400Y007531D01*
X035524Y007429D02*
X036697Y007429D01*
X036795Y007527D02*
X035623Y007527D01*
X035721Y007626D02*
X036894Y007626D01*
X036992Y007724D02*
X035820Y007724D01*
X035918Y007823D02*
X037091Y007823D01*
X037189Y007921D02*
X036017Y007921D01*
X036115Y008020D02*
X037268Y008020D01*
X037268Y008118D02*
X036214Y008118D01*
X036312Y008217D02*
X037268Y008217D01*
X037268Y008315D02*
X036411Y008315D01*
X036509Y008414D02*
X037268Y008414D01*
X037268Y008512D02*
X036608Y008512D01*
X036706Y008611D02*
X037268Y008611D01*
X037268Y008709D02*
X036805Y008709D01*
X036903Y008808D02*
X037268Y008808D01*
X037268Y008906D02*
X036958Y008906D01*
X036958Y009005D02*
X037268Y009005D01*
X037268Y009103D02*
X036958Y009103D01*
X036958Y009202D02*
X037268Y009202D01*
X037268Y009300D02*
X036958Y009300D01*
X036958Y009399D02*
X037268Y009399D01*
X037268Y009497D02*
X036958Y009497D01*
X036958Y009596D02*
X037268Y009596D01*
X037268Y009694D02*
X036958Y009694D01*
X036580Y009793D02*
X032932Y009793D01*
X032932Y009891D02*
X036578Y009891D01*
X036578Y009990D02*
X032932Y009990D01*
X032318Y009497D02*
X032101Y009497D01*
X031448Y009793D02*
X031277Y009793D01*
X031277Y009891D02*
X031448Y009891D01*
X031455Y009990D02*
X031270Y009990D01*
X031110Y010088D02*
X031897Y010088D01*
X030630Y009990D02*
X030445Y009990D01*
X028980Y009990D02*
X028757Y009990D01*
X028498Y009005D02*
X028402Y009005D01*
X028402Y008906D02*
X028498Y008906D01*
X028498Y008808D02*
X028402Y008808D01*
X028402Y008709D02*
X028498Y008709D01*
X028765Y008315D02*
X029140Y008315D01*
X029140Y008217D02*
X028907Y008217D01*
X028998Y008118D02*
X029140Y008118D01*
X029140Y008020D02*
X029064Y008020D01*
X029111Y007921D02*
X029140Y007921D01*
X031935Y007921D02*
X031939Y007921D01*
X031935Y008020D02*
X031986Y008020D01*
X031935Y008118D02*
X032052Y008118D01*
X032143Y008217D02*
X031935Y008217D01*
X031935Y008315D02*
X032285Y008315D01*
X032601Y008315D02*
X032701Y008315D01*
X032701Y008408D02*
X032701Y007695D01*
X033414Y007695D01*
X033401Y007794D01*
X033375Y007891D01*
X033337Y007983D01*
X033287Y008070D01*
X033226Y008149D01*
X033155Y008220D01*
X033076Y008281D01*
X032989Y008331D01*
X032897Y008369D01*
X032800Y008395D01*
X032701Y008408D01*
X032701Y008408D01*
X032701Y008217D02*
X032601Y008217D01*
X032601Y008118D02*
X032701Y008118D01*
X032701Y008020D02*
X032601Y008020D01*
X032601Y007921D02*
X032701Y007921D01*
X032701Y007823D02*
X032601Y007823D01*
X032601Y007724D02*
X032701Y007724D01*
X032701Y007626D02*
X033744Y007626D01*
X033759Y007527D02*
X033405Y007527D01*
X033401Y007495D02*
X033414Y007595D01*
X032701Y007595D01*
X032701Y006881D01*
X032800Y006894D01*
X032897Y006920D01*
X032989Y006959D01*
X033076Y007009D01*
X033155Y007070D01*
X033226Y007140D01*
X033287Y007220D01*
X033337Y007306D01*
X033375Y007399D01*
X033401Y007495D01*
X033383Y007429D02*
X033759Y007429D01*
X033759Y007330D02*
X033347Y007330D01*
X033294Y007232D02*
X033795Y007232D01*
X034065Y007531D02*
X033809Y007786D01*
X033809Y008406D01*
X033463Y008414D02*
X031935Y008414D01*
X031935Y008512D02*
X033463Y008512D01*
X033463Y008315D02*
X033017Y008315D01*
X033159Y008217D02*
X033463Y008217D01*
X033463Y008118D02*
X033250Y008118D01*
X033316Y008020D02*
X033649Y008020D01*
X033649Y007921D02*
X033363Y007921D01*
X033394Y007823D02*
X033649Y007823D01*
X033649Y007724D02*
X033411Y007724D01*
X033414Y007695D02*
X033414Y007695D01*
X033414Y007595D02*
X033414Y007595D01*
X033219Y007133D02*
X036401Y007133D01*
X036303Y007035D02*
X033110Y007035D01*
X032935Y006936D02*
X036204Y006936D01*
X036106Y006838D02*
X031915Y006838D01*
X031935Y006936D02*
X032367Y006936D01*
X032192Y007035D02*
X031935Y007035D01*
X031935Y007133D02*
X032083Y007133D01*
X032008Y007232D02*
X031935Y007232D01*
X031935Y007330D02*
X031955Y007330D01*
X032601Y007330D02*
X032701Y007330D01*
X032701Y007232D02*
X032601Y007232D01*
X032601Y007133D02*
X032701Y007133D01*
X032701Y007035D02*
X032601Y007035D01*
X032601Y006936D02*
X032701Y006936D01*
X032701Y006881D02*
X032701Y006881D01*
X032601Y006881D02*
X032601Y006881D01*
X032601Y007429D02*
X032701Y007429D01*
X032701Y007527D02*
X032601Y007527D01*
X031951Y006739D02*
X036007Y006739D01*
X035909Y006641D02*
X031951Y006641D01*
X031939Y006542D02*
X035810Y006542D01*
X035712Y006444D02*
X031898Y006444D01*
X031819Y006345D02*
X035613Y006345D01*
X036172Y005951D02*
X060950Y005951D01*
X060950Y006050D02*
X036270Y006050D01*
X036369Y006148D02*
X060950Y006148D01*
X060950Y006247D02*
X036467Y006247D01*
X036566Y006345D02*
X060950Y006345D01*
X060950Y006444D02*
X036664Y006444D01*
X036763Y006542D02*
X060950Y006542D01*
X060950Y006641D02*
X036861Y006641D01*
X036960Y006739D02*
X060950Y006739D01*
X060950Y006838D02*
X054876Y006838D01*
X054872Y006836D02*
X054999Y006888D01*
X055121Y006953D01*
X055235Y007030D01*
X055341Y007117D01*
X055439Y007214D01*
X055526Y007321D01*
X055602Y007435D01*
X055667Y007556D01*
X055720Y007683D01*
X055760Y007815D01*
X055787Y007950D01*
X055800Y008087D01*
X055800Y008106D01*
X054450Y008106D01*
X054450Y008206D01*
X054350Y008206D01*
X054350Y009556D01*
X054331Y009556D01*
X054194Y009542D01*
X054059Y009515D01*
X053928Y009475D01*
X053801Y009423D01*
X053679Y009358D01*
X053565Y009281D01*
X053459Y009194D01*
X053361Y009097D01*
X053274Y008990D01*
X053198Y008876D01*
X053133Y008755D01*
X053080Y008628D01*
X053040Y008496D01*
X053013Y008361D01*
X053000Y008224D01*
X053000Y008206D01*
X054350Y008206D01*
X054350Y008106D01*
X053000Y008106D01*
X053000Y008087D01*
X053013Y007950D01*
X053040Y007815D01*
X053080Y007683D01*
X053133Y007556D01*
X053198Y007435D01*
X053274Y007321D01*
X053361Y007214D01*
X053459Y007117D01*
X053565Y007030D01*
X053679Y006953D01*
X053801Y006888D01*
X053928Y006836D01*
X054059Y006796D01*
X054194Y006769D01*
X054331Y006756D01*
X054350Y006756D01*
X054350Y008106D01*
X054450Y008106D01*
X054450Y006756D01*
X054469Y006756D01*
X054606Y006769D01*
X054741Y006796D01*
X054872Y006836D01*
X055088Y006936D02*
X060950Y006936D01*
X060950Y007035D02*
X055241Y007035D01*
X055357Y007133D02*
X060950Y007133D01*
X060950Y007232D02*
X055453Y007232D01*
X055532Y007330D02*
X060950Y007330D01*
X060950Y007429D02*
X055598Y007429D01*
X055652Y007527D02*
X060950Y007527D01*
X060950Y007626D02*
X055696Y007626D01*
X055732Y007724D02*
X060950Y007724D01*
X060950Y007823D02*
X055761Y007823D01*
X055781Y007921D02*
X060950Y007921D01*
X060950Y008020D02*
X055793Y008020D01*
X055800Y008206D02*
X055800Y008224D01*
X055787Y008361D01*
X055760Y008496D01*
X055720Y008628D01*
X055667Y008755D01*
X055602Y008876D01*
X055526Y008990D01*
X055439Y009097D01*
X055341Y009194D01*
X055235Y009281D01*
X055121Y009358D01*
X054999Y009423D01*
X054872Y009475D01*
X054741Y009515D01*
X054606Y009542D01*
X054469Y009556D01*
X054450Y009556D01*
X054450Y008206D01*
X055800Y008206D01*
X055800Y008217D02*
X060950Y008217D01*
X060950Y008315D02*
X055791Y008315D01*
X055776Y008414D02*
X060950Y008414D01*
X060950Y008512D02*
X055755Y008512D01*
X055725Y008611D02*
X060950Y008611D01*
X060950Y008709D02*
X055686Y008709D01*
X055639Y008808D02*
X060950Y008808D01*
X060950Y008906D02*
X055582Y008906D01*
X055514Y009005D02*
X060950Y009005D01*
X060950Y009103D02*
X055432Y009103D01*
X055332Y009202D02*
X060950Y009202D01*
X060950Y009300D02*
X055207Y009300D01*
X055044Y009399D02*
X060950Y009399D01*
X060950Y009497D02*
X054800Y009497D01*
X054450Y009497D02*
X054350Y009497D01*
X054350Y009399D02*
X054450Y009399D01*
X054450Y009300D02*
X054350Y009300D01*
X054350Y009202D02*
X054450Y009202D01*
X054450Y009103D02*
X054350Y009103D01*
X054350Y009005D02*
X054450Y009005D01*
X054450Y008906D02*
X054350Y008906D01*
X054350Y008808D02*
X054450Y008808D01*
X054450Y008709D02*
X054350Y008709D01*
X054350Y008611D02*
X054450Y008611D01*
X054450Y008512D02*
X054350Y008512D01*
X054350Y008414D02*
X054450Y008414D01*
X054450Y008315D02*
X054350Y008315D01*
X054350Y008217D02*
X054450Y008217D01*
X054450Y008118D02*
X060950Y008118D01*
X060950Y009596D02*
X053925Y009596D01*
X053976Y009694D02*
X060950Y009694D01*
X060950Y009793D02*
X053976Y009793D01*
X053976Y009954D02*
X053976Y010122D01*
X053966Y010160D01*
X053946Y010194D01*
X053918Y010222D01*
X053884Y010242D01*
X053846Y010252D01*
X053658Y010252D01*
X053658Y009954D01*
X053976Y009954D01*
X053976Y009990D02*
X060950Y009990D01*
X060950Y010088D02*
X053976Y010088D01*
X053951Y010187D02*
X060950Y010187D01*
X060950Y010285D02*
X053060Y010285D01*
X053060Y010384D02*
X060950Y010384D01*
X060950Y010482D02*
X053060Y010482D01*
X053060Y010581D02*
X060950Y010581D01*
X060950Y010679D02*
X053060Y010679D01*
X053060Y010778D02*
X060950Y010778D01*
X060950Y010876D02*
X053060Y010876D01*
X053060Y010975D02*
X060950Y010975D01*
X060950Y011073D02*
X053060Y011073D01*
X053060Y011172D02*
X060950Y011172D01*
X060950Y011270D02*
X053060Y011270D01*
X053060Y011369D02*
X060950Y011369D01*
X060950Y011467D02*
X053060Y011467D01*
X053060Y011566D02*
X060950Y011566D01*
X060950Y011664D02*
X053060Y011664D01*
X053060Y011763D02*
X060950Y011763D01*
X060950Y011861D02*
X054824Y011861D01*
X055048Y011960D02*
X060950Y011960D01*
X060950Y012058D02*
X055219Y012058D01*
X055324Y012157D02*
X060950Y012157D01*
X060950Y012255D02*
X055423Y012255D01*
X055507Y012354D02*
X060950Y012354D01*
X060950Y012452D02*
X055564Y012452D01*
X055621Y012551D02*
X060950Y012551D01*
X060950Y012649D02*
X055672Y012649D01*
X055699Y012748D02*
X060950Y012748D01*
X060950Y012846D02*
X055725Y012846D01*
X055751Y012945D02*
X060950Y012945D01*
X060950Y013043D02*
X055760Y013043D01*
X055760Y013142D02*
X060950Y013142D01*
X060950Y013240D02*
X055760Y013240D01*
X055759Y013339D02*
X060950Y013339D01*
X060950Y013437D02*
X055733Y013437D01*
X055706Y013536D02*
X060950Y013536D01*
X060950Y013634D02*
X055680Y013634D01*
X055637Y013733D02*
X060950Y013733D01*
X060950Y013831D02*
X055580Y013831D01*
X055524Y013930D02*
X060950Y013930D01*
X060950Y014028D02*
X055451Y014028D01*
X055352Y014127D02*
X060950Y014127D01*
X060950Y014225D02*
X055254Y014225D01*
X055097Y014324D02*
X060950Y014324D01*
X060950Y014422D02*
X054926Y014422D01*
X053874Y014422D02*
X053643Y014422D01*
X053544Y014521D02*
X060950Y014521D01*
X060950Y014619D02*
X053446Y014619D01*
X053347Y014718D02*
X060950Y014718D01*
X060950Y014816D02*
X053249Y014816D01*
X053150Y014915D02*
X060950Y014915D01*
X060950Y015013D02*
X053052Y015013D01*
X052953Y015112D02*
X060950Y015112D01*
X060950Y015210D02*
X052855Y015210D01*
X052756Y015309D02*
X060950Y015309D01*
X060950Y015407D02*
X052658Y015407D01*
X052559Y015506D02*
X060950Y015506D01*
X060950Y015604D02*
X052510Y015604D01*
X052510Y015703D02*
X060950Y015703D01*
X060950Y015801D02*
X052510Y015801D01*
X052510Y015900D02*
X060950Y015900D01*
X060950Y015998D02*
X052510Y015998D01*
X052510Y016097D02*
X060950Y016097D01*
X060950Y016195D02*
X052510Y016195D01*
X052510Y016294D02*
X060950Y016294D01*
X060950Y016392D02*
X052510Y016392D01*
X052510Y016491D02*
X060950Y016491D01*
X060950Y016589D02*
X052510Y016589D01*
X052510Y016688D02*
X060950Y016688D01*
X060950Y016786D02*
X052510Y016786D01*
X052510Y016885D02*
X060950Y016885D01*
X060950Y016983D02*
X052510Y016983D01*
X052510Y017082D02*
X060950Y017082D01*
X060950Y017180D02*
X052510Y017180D01*
X052510Y017279D02*
X060950Y017279D01*
X060950Y017377D02*
X052510Y017377D01*
X052510Y017476D02*
X060950Y017476D01*
X060950Y017574D02*
X052510Y017574D01*
X052510Y017673D02*
X060950Y017673D01*
X060950Y017771D02*
X052510Y017771D01*
X052510Y017870D02*
X060950Y017870D01*
X060950Y017968D02*
X052510Y017968D01*
X052510Y018067D02*
X060950Y018067D01*
X060950Y018165D02*
X052510Y018165D01*
X052510Y018264D02*
X060950Y018264D01*
X060950Y018362D02*
X052510Y018362D01*
X052510Y018461D02*
X060950Y018461D01*
X060950Y018559D02*
X052510Y018559D01*
X052510Y018658D02*
X060950Y018658D01*
X060950Y018756D02*
X052510Y018756D01*
X052510Y018855D02*
X060950Y018855D01*
X060950Y018953D02*
X052510Y018953D01*
X052510Y019052D02*
X060950Y019052D01*
X060950Y019150D02*
X052510Y019150D01*
X052510Y019249D02*
X060950Y019249D01*
X060950Y019347D02*
X052510Y019347D01*
X052510Y019446D02*
X060950Y019446D01*
X060950Y019544D02*
X052510Y019544D01*
X052510Y019643D02*
X060950Y019643D01*
X060950Y019741D02*
X052510Y019741D01*
X052510Y019840D02*
X060950Y019840D01*
X060950Y019938D02*
X052510Y019938D01*
X052510Y020037D02*
X060950Y020037D01*
X060950Y020135D02*
X052510Y020135D01*
X052510Y020234D02*
X060950Y020234D01*
X060950Y020332D02*
X052584Y020332D01*
X052614Y020431D02*
X060950Y020431D01*
X060950Y020529D02*
X052614Y020529D01*
X052614Y020628D02*
X060950Y020628D01*
X060950Y020726D02*
X052614Y020726D01*
X052614Y020825D02*
X060950Y020825D01*
X060950Y020923D02*
X052321Y020923D01*
X051979Y020923D02*
X050838Y020923D01*
X050890Y020825D02*
X051686Y020825D01*
X051616Y020726D02*
X050890Y020726D01*
X050890Y020628D02*
X051518Y020628D01*
X051419Y020529D02*
X050890Y020529D01*
X050890Y020431D02*
X051321Y020431D01*
X051222Y020332D02*
X050890Y020332D01*
X050890Y020234D02*
X051124Y020234D01*
X051025Y020135D02*
X050835Y020135D01*
X050927Y020037D02*
X050734Y020037D01*
X050314Y020037D02*
X048185Y020037D01*
X048185Y020135D02*
X049408Y020135D01*
X049370Y020234D02*
X048185Y020234D01*
X048185Y020332D02*
X049370Y020332D01*
X049370Y020431D02*
X048185Y020431D01*
X048185Y020529D02*
X049726Y020529D01*
X049726Y020431D02*
X049826Y020431D01*
X049826Y020332D02*
X049726Y020332D01*
X049726Y020234D02*
X049826Y020234D01*
X049826Y020135D02*
X049726Y020135D01*
X050064Y019938D02*
X048185Y019938D01*
X048185Y019840D02*
X050040Y019840D01*
X050040Y019741D02*
X048185Y019741D01*
X047865Y019741D02*
X043885Y019741D01*
X043885Y019735D02*
X043885Y020276D01*
X043821Y020341D01*
X043770Y020341D01*
X043770Y020474D01*
X043872Y020474D01*
X043936Y020538D01*
X043936Y021023D01*
X043872Y021087D01*
X043348Y021087D01*
X043283Y021023D01*
X043283Y020538D01*
X043348Y020474D01*
X043450Y020474D01*
X043450Y020341D01*
X043429Y020341D01*
X043365Y020276D01*
X043365Y019735D01*
X043429Y019671D01*
X043821Y019671D01*
X043885Y019735D01*
X043885Y019840D02*
X047865Y019840D01*
X047865Y019938D02*
X043885Y019938D01*
X043885Y020037D02*
X047865Y020037D01*
X047865Y020135D02*
X043885Y020135D01*
X043885Y020234D02*
X047865Y020234D01*
X047865Y020332D02*
X043829Y020332D01*
X043770Y020431D02*
X047865Y020431D01*
X047865Y020529D02*
X043927Y020529D01*
X043936Y020628D02*
X047865Y020628D01*
X047865Y020726D02*
X043936Y020726D01*
X043936Y020825D02*
X047865Y020825D01*
X047865Y020923D02*
X043936Y020923D01*
X043936Y021022D02*
X047865Y021022D01*
X047865Y021120D02*
X043100Y021120D01*
X043100Y021087D02*
X043100Y022005D01*
X043194Y022098D01*
X043246Y022225D01*
X043246Y022836D01*
X043194Y022963D01*
X043096Y023060D01*
X042969Y023113D01*
X042831Y023113D01*
X042704Y023060D01*
X042606Y022963D01*
X042554Y022836D01*
X042554Y022225D01*
X042606Y022098D01*
X042704Y022001D01*
X042780Y021969D01*
X042780Y021087D01*
X042678Y021087D01*
X042614Y021023D01*
X042614Y020538D01*
X042678Y020474D01*
X043202Y020474D01*
X043267Y020538D01*
X043267Y021023D01*
X043202Y021087D01*
X043100Y021087D01*
X043100Y021219D02*
X047865Y021219D01*
X047865Y021317D02*
X043100Y021317D01*
X043100Y021416D02*
X047865Y021416D01*
X047865Y021514D02*
X043100Y021514D01*
X043100Y021613D02*
X047865Y021613D01*
X047865Y021711D02*
X043100Y021711D01*
X043100Y021810D02*
X047865Y021810D01*
X047865Y021908D02*
X043100Y021908D01*
X043102Y022007D02*
X047865Y022007D01*
X047865Y022105D02*
X043196Y022105D01*
X043237Y022204D02*
X047865Y022204D01*
X047865Y022302D02*
X043246Y022302D01*
X043246Y022401D02*
X047865Y022401D01*
X047865Y022499D02*
X043246Y022499D01*
X043246Y022598D02*
X047950Y022598D01*
X048049Y022696D02*
X043246Y022696D01*
X043246Y022795D02*
X048147Y022795D01*
X048246Y022893D02*
X043222Y022893D01*
X043165Y022992D02*
X048344Y022992D01*
X048443Y023090D02*
X043024Y023090D01*
X042776Y023090D02*
X042111Y023090D01*
X042083Y023109D02*
X042013Y023138D01*
X041938Y023153D01*
X041929Y023153D01*
X041929Y022559D01*
X042286Y022559D01*
X042286Y022805D01*
X042271Y022879D01*
X042242Y022950D01*
X042200Y023013D01*
X042146Y023067D01*
X042083Y023109D01*
X041929Y023090D02*
X041871Y023090D01*
X041871Y023153D02*
X041862Y023153D01*
X041787Y023138D01*
X041717Y023109D01*
X041654Y023067D01*
X041600Y023013D01*
X041558Y022950D01*
X041529Y022879D01*
X041514Y022805D01*
X041514Y022559D01*
X041871Y022559D01*
X041871Y022502D01*
X041514Y022502D01*
X041514Y022256D01*
X041529Y022182D01*
X041558Y022111D01*
X041600Y022048D01*
X041654Y021994D01*
X041717Y021952D01*
X041787Y021923D01*
X041862Y021908D01*
X041871Y021908D01*
X041871Y022502D01*
X041929Y022502D01*
X041929Y022559D01*
X041871Y022559D01*
X041871Y023153D01*
X041871Y022992D02*
X041929Y022992D01*
X041929Y022893D02*
X041871Y022893D01*
X041871Y022795D02*
X041929Y022795D01*
X041929Y022696D02*
X041871Y022696D01*
X041871Y022598D02*
X041929Y022598D01*
X041929Y022502D02*
X042286Y022502D01*
X042286Y022256D01*
X042271Y022182D01*
X042242Y022111D01*
X042200Y022048D01*
X042146Y021994D01*
X042083Y021952D01*
X042013Y021923D01*
X041938Y021908D01*
X041929Y021908D01*
X041929Y022502D01*
X041929Y022499D02*
X041871Y022499D01*
X041871Y022401D02*
X041929Y022401D01*
X041929Y022302D02*
X041871Y022302D01*
X041871Y022204D02*
X041929Y022204D01*
X041929Y022105D02*
X041871Y022105D01*
X041871Y022007D02*
X041929Y022007D01*
X042158Y022007D02*
X042698Y022007D01*
X042780Y021908D02*
X030754Y021908D01*
X030852Y022007D02*
X041642Y022007D01*
X041562Y022105D02*
X030951Y022105D01*
X031049Y022204D02*
X041524Y022204D01*
X041514Y022302D02*
X031148Y022302D01*
X031185Y022339D02*
X031185Y024722D01*
X030791Y025115D01*
X030791Y025418D01*
X030727Y025482D01*
X030242Y025482D01*
X030178Y025418D01*
X030178Y024893D01*
X030242Y024829D01*
X030625Y024829D01*
X030865Y024589D01*
X030865Y022558D01*
X030797Y022626D01*
X030702Y022666D01*
X030598Y022666D01*
X030503Y022626D01*
X030442Y022566D01*
X030216Y022566D01*
X030200Y022582D01*
X030200Y022711D01*
X030420Y022711D01*
X030484Y022775D01*
X030484Y023339D01*
X030456Y023368D01*
X030456Y023455D01*
X030512Y023511D01*
X030551Y023605D01*
X030551Y023706D01*
X030512Y023800D01*
X030440Y023872D01*
X030346Y023911D01*
X030245Y023911D01*
X030151Y023872D01*
X030079Y023800D01*
X030041Y023706D01*
X030041Y023605D01*
X030079Y023511D01*
X030136Y023455D01*
X030136Y023403D01*
X029944Y023403D01*
X029944Y023974D01*
X030077Y023974D01*
X030129Y024025D01*
X030148Y023992D01*
X030176Y023964D01*
X030210Y023944D01*
X030248Y023934D01*
X030436Y023934D01*
X030436Y024232D01*
X030533Y024232D01*
X030533Y023934D01*
X030721Y023934D01*
X030759Y023944D01*
X030793Y023964D01*
X030821Y023992D01*
X030841Y024026D01*
X030851Y024064D01*
X030851Y024232D01*
X030533Y024232D01*
X030533Y024329D01*
X030436Y024329D01*
X030436Y024627D01*
X030248Y024627D01*
X030210Y024617D01*
X030176Y024597D01*
X030148Y024569D01*
X030129Y024536D01*
X030077Y024587D01*
X029553Y024587D01*
X029489Y024523D01*
X029489Y024441D01*
X029276Y024441D01*
X029219Y024497D01*
X029126Y024536D01*
X029024Y024536D01*
X028931Y024497D01*
X028874Y024441D01*
X028591Y024441D01*
X027660Y025371D01*
X027737Y025448D01*
X027737Y025863D01*
X027638Y025962D01*
X027222Y025962D01*
X027123Y025863D01*
X027123Y025448D01*
X027222Y025349D01*
X027270Y025349D01*
X027270Y025310D01*
X028365Y024214D01*
X028459Y024121D01*
X028874Y024121D01*
X028931Y024064D01*
X029024Y024026D01*
X029126Y024026D01*
X029219Y024064D01*
X029276Y024121D01*
X029489Y024121D01*
X029489Y024038D01*
X029553Y023974D01*
X029624Y023974D01*
X029624Y023892D01*
X029579Y023911D01*
X029477Y023911D01*
X029384Y023872D01*
X029312Y023800D01*
X029273Y023706D01*
X029273Y023605D01*
X029312Y023511D01*
X029368Y023455D01*
X029368Y023443D01*
X029272Y023443D01*
X029174Y023443D01*
X029135Y023433D01*
X029101Y023413D01*
X029091Y023403D01*
X028892Y023403D01*
X028888Y023400D01*
X028885Y023403D01*
X028636Y023403D01*
X028632Y023400D01*
X028629Y023403D01*
X028380Y023403D01*
X028316Y023339D01*
X028316Y023095D01*
X027915Y022694D01*
X027852Y022757D01*
X027367Y022757D01*
X027303Y022693D01*
X027303Y022168D01*
X027367Y022104D01*
X027852Y022104D01*
X027916Y022168D01*
X027916Y022271D01*
X027944Y022271D01*
X028384Y022711D01*
X028629Y022711D01*
X028632Y022715D01*
X028636Y022711D01*
X028885Y022711D01*
X028888Y022715D01*
X028892Y022711D01*
X029091Y022711D01*
X029101Y022701D01*
X029135Y022681D01*
X029174Y022671D01*
X029272Y022671D01*
X029272Y023057D01*
X029272Y023057D01*
X029272Y022671D01*
X029371Y022671D01*
X029409Y022681D01*
X029443Y022701D01*
X029453Y022711D01*
X029624Y022711D01*
X029624Y022231D01*
X028959Y021566D01*
X028865Y021472D01*
X028865Y021100D01*
X028636Y021100D01*
X028632Y021097D01*
X028629Y021100D01*
X028384Y021100D01*
X028172Y021313D01*
X028067Y021418D01*
X027916Y021480D01*
X027916Y021643D01*
X027852Y021707D01*
X027367Y021707D01*
X027303Y021643D01*
X027303Y021118D01*
X027367Y021054D01*
X027852Y021054D01*
X027911Y021113D01*
X027954Y021078D01*
X028316Y020716D01*
X028316Y020472D01*
X028380Y020408D01*
X028629Y020408D01*
X028632Y020411D01*
X028636Y020408D01*
X028885Y020408D01*
X028888Y020411D01*
X028892Y020408D01*
X029112Y020408D01*
X029112Y020337D01*
X028973Y020337D01*
X028921Y020286D01*
X028902Y020319D01*
X028874Y020347D01*
X028840Y020367D01*
X028802Y020377D01*
X028614Y020377D01*
X028614Y020079D01*
X028517Y020079D01*
X028517Y020377D01*
X028329Y020377D01*
X028291Y020367D01*
X028257Y020347D01*
X028229Y020319D01*
X028209Y020285D01*
X028199Y020247D01*
X028199Y020079D01*
X028517Y020079D01*
X028517Y019982D01*
X028199Y019982D01*
X028199Y019814D01*
X028209Y019776D01*
X028229Y019742D01*
X028257Y019714D01*
X028291Y019694D01*
X028304Y019691D01*
X026676Y019691D01*
X025996Y020371D01*
X026074Y020371D01*
X026131Y020314D01*
X026224Y020276D01*
X026326Y020276D01*
X026419Y020314D01*
X026491Y020386D01*
X026530Y020480D01*
X026530Y020581D01*
X026491Y020675D01*
X026419Y020747D01*
X026326Y020786D01*
X026224Y020786D01*
X026131Y020747D01*
X026074Y020691D01*
X025916Y020691D01*
X025916Y020793D01*
X025852Y020857D01*
X025770Y020857D01*
X025770Y021079D01*
X025852Y021079D01*
X025916Y021143D01*
X025916Y021668D01*
X025852Y021732D01*
X025367Y021732D01*
X025303Y021668D01*
X025303Y021143D01*
X025367Y021079D01*
X025450Y021079D01*
X025450Y020857D01*
X025367Y020857D01*
X025303Y020793D01*
X025303Y020268D01*
X025367Y020204D01*
X025710Y020204D01*
X026543Y019371D01*
X029716Y019371D01*
X029810Y019464D01*
X030200Y019854D01*
X030200Y020408D01*
X030420Y020408D01*
X030484Y020472D01*
X030484Y021036D01*
X030420Y021100D01*
X030171Y021100D01*
X030168Y021097D01*
X030164Y021100D01*
X029946Y021100D01*
X031091Y022246D01*
X031185Y022339D01*
X031185Y022401D02*
X041514Y022401D01*
X041514Y022499D02*
X031185Y022499D01*
X031185Y022598D02*
X041514Y022598D01*
X041514Y022696D02*
X031185Y022696D01*
X031185Y022795D02*
X041514Y022795D01*
X041534Y022893D02*
X031185Y022893D01*
X031185Y022992D02*
X041586Y022992D01*
X041689Y023090D02*
X031185Y023090D01*
X031185Y023189D02*
X048541Y023189D01*
X048640Y023287D02*
X031185Y023287D01*
X031185Y023386D02*
X048738Y023386D01*
X048837Y023484D02*
X031185Y023484D01*
X031185Y023583D02*
X048935Y023583D01*
X049034Y023681D02*
X031185Y023681D01*
X031185Y023780D02*
X049073Y023780D01*
X049073Y023878D02*
X045267Y023878D01*
X045321Y023901D02*
X045530Y024110D01*
X045643Y024383D01*
X045643Y024678D01*
X045530Y024951D01*
X045321Y025160D01*
X045048Y025274D01*
X044752Y025274D01*
X044479Y025160D01*
X044270Y024951D01*
X044157Y024678D01*
X044157Y024383D01*
X044270Y024110D01*
X044479Y023901D01*
X044752Y023787D01*
X045048Y023787D01*
X045321Y023901D01*
X045397Y023977D02*
X049073Y023977D01*
X049085Y024075D02*
X045495Y024075D01*
X045556Y024174D02*
X050585Y024174D01*
X050611Y024237D02*
X050465Y023884D01*
X050465Y023502D01*
X050611Y023149D01*
X050881Y022879D01*
X051234Y022733D01*
X051616Y022733D01*
X051968Y022879D01*
X052238Y023149D01*
X052385Y023502D01*
X052385Y023884D01*
X052238Y024237D01*
X051968Y024507D01*
X051616Y024653D01*
X051234Y024653D01*
X050881Y024507D01*
X050611Y024237D01*
X050646Y024272D02*
X049727Y024272D01*
X049727Y024248D02*
X049727Y024733D01*
X049662Y024797D01*
X049655Y024797D01*
X049655Y025349D01*
X049703Y025349D01*
X049802Y025448D01*
X049802Y025863D01*
X049703Y025962D01*
X049287Y025962D01*
X049188Y025863D01*
X049188Y025448D01*
X049287Y025349D01*
X049335Y025349D01*
X049335Y024797D01*
X049138Y024797D01*
X049073Y024733D01*
X049073Y024248D01*
X049138Y024183D01*
X049662Y024183D01*
X049727Y024248D01*
X049727Y024371D02*
X050745Y024371D01*
X050843Y024469D02*
X049727Y024469D01*
X049727Y024568D02*
X051028Y024568D01*
X051822Y024568D02*
X052323Y024568D01*
X052313Y024597D02*
X052350Y024491D01*
X052398Y024390D01*
X052458Y024294D01*
X052528Y024207D01*
X052608Y024127D01*
X052695Y024057D01*
X052791Y023997D01*
X052892Y023949D01*
X052998Y023912D01*
X053107Y023887D01*
X053219Y023874D01*
X053225Y023874D01*
X053225Y024824D01*
X053325Y024824D01*
X053325Y023874D01*
X053331Y023874D01*
X053443Y023887D01*
X053552Y023912D01*
X053658Y023949D01*
X053759Y023997D01*
X053855Y024057D01*
X053942Y024127D01*
X054022Y024207D01*
X054092Y024294D01*
X054152Y024390D01*
X054200Y024491D01*
X054237Y024597D01*
X054262Y024706D01*
X054275Y024818D01*
X054275Y024824D01*
X053325Y024824D01*
X053325Y024924D01*
X054275Y024924D01*
X054275Y024930D01*
X054262Y025042D01*
X054237Y025151D01*
X054200Y025257D01*
X060950Y025257D01*
X060950Y025159D02*
X054235Y025159D01*
X054258Y025060D02*
X060950Y025060D01*
X060950Y024962D02*
X054271Y024962D01*
X054269Y024765D02*
X060950Y024765D01*
X060950Y024863D02*
X053325Y024863D01*
X053325Y024924D02*
X053225Y024924D01*
X053225Y024824D01*
X052275Y024824D01*
X052275Y024818D01*
X052288Y024706D01*
X052313Y024597D01*
X052297Y024666D02*
X049727Y024666D01*
X049695Y024765D02*
X052281Y024765D01*
X052275Y024924D02*
X053225Y024924D01*
X053225Y025874D01*
X053219Y025874D01*
X053107Y025861D01*
X052998Y025836D01*
X052892Y025799D01*
X052791Y025751D01*
X052695Y025691D01*
X052608Y025621D01*
X052528Y025541D01*
X052458Y025454D01*
X052398Y025358D01*
X052350Y025257D01*
X049655Y025257D01*
X049655Y025159D02*
X052315Y025159D01*
X052313Y025151D02*
X052350Y025257D01*
X052397Y025356D02*
X049710Y025356D01*
X049802Y025454D02*
X052459Y025454D01*
X052539Y025553D02*
X049802Y025553D01*
X049802Y025651D02*
X052646Y025651D01*
X052789Y025750D02*
X049802Y025750D01*
X049802Y025848D02*
X053049Y025848D01*
X053225Y025848D02*
X053325Y025848D01*
X053331Y025874D02*
X053325Y025874D01*
X053325Y024924D01*
X053325Y024962D02*
X053225Y024962D01*
X053225Y025060D02*
X053325Y025060D01*
X053325Y025159D02*
X053225Y025159D01*
X053225Y025257D02*
X053325Y025257D01*
X053325Y025356D02*
X053225Y025356D01*
X053225Y025454D02*
X053325Y025454D01*
X053325Y025553D02*
X053225Y025553D01*
X053225Y025651D02*
X053325Y025651D01*
X053325Y025750D02*
X053225Y025750D01*
X053331Y025874D02*
X053443Y025861D01*
X053552Y025836D01*
X053658Y025799D01*
X053759Y025751D01*
X053855Y025691D01*
X053942Y025621D01*
X054022Y025541D01*
X054092Y025454D01*
X054152Y025358D01*
X054200Y025257D01*
X054153Y025356D02*
X060950Y025356D01*
X060950Y025454D02*
X054091Y025454D01*
X054011Y025553D02*
X060950Y025553D01*
X060950Y025651D02*
X053904Y025651D01*
X053761Y025750D02*
X060950Y025750D01*
X060950Y025848D02*
X053501Y025848D01*
X053225Y024863D02*
X049655Y024863D01*
X049655Y024962D02*
X052279Y024962D01*
X052275Y024930D02*
X052275Y024924D01*
X052275Y024930D02*
X052288Y025042D01*
X052313Y025151D01*
X052292Y025060D02*
X049655Y025060D01*
X049335Y025060D02*
X045421Y025060D01*
X045323Y025159D02*
X049335Y025159D01*
X049335Y025257D02*
X045088Y025257D01*
X044712Y025257D02*
X041088Y025257D01*
X041048Y025274D02*
X040752Y025274D01*
X040479Y025160D01*
X040270Y024951D01*
X040157Y024678D01*
X040157Y024383D01*
X040270Y024110D01*
X040479Y023901D01*
X040752Y023787D01*
X041048Y023787D01*
X041321Y023901D01*
X041530Y024110D01*
X041643Y024383D01*
X041643Y024678D01*
X041530Y024951D01*
X041321Y025160D01*
X041048Y025274D01*
X041323Y025159D02*
X044477Y025159D01*
X044379Y025060D02*
X041421Y025060D01*
X041520Y024962D02*
X044280Y024962D01*
X044233Y024863D02*
X041567Y024863D01*
X041607Y024765D02*
X044193Y024765D01*
X044157Y024666D02*
X041643Y024666D01*
X041643Y024568D02*
X044157Y024568D01*
X044157Y024469D02*
X041643Y024469D01*
X041638Y024371D02*
X044162Y024371D01*
X044203Y024272D02*
X041597Y024272D01*
X041556Y024174D02*
X044244Y024174D01*
X044305Y024075D02*
X041495Y024075D01*
X041397Y023977D02*
X044403Y023977D01*
X044533Y023878D02*
X041267Y023878D01*
X040533Y023878D02*
X031185Y023878D01*
X031185Y023977D02*
X040403Y023977D01*
X040305Y024075D02*
X031185Y024075D01*
X031185Y024174D02*
X040244Y024174D01*
X040203Y024272D02*
X031185Y024272D01*
X031185Y024371D02*
X040162Y024371D01*
X040157Y024469D02*
X031185Y024469D01*
X031185Y024568D02*
X040157Y024568D01*
X040157Y024666D02*
X031185Y024666D01*
X031142Y024765D02*
X040193Y024765D01*
X040233Y024863D02*
X031044Y024863D01*
X030945Y024962D02*
X040280Y024962D01*
X040379Y025060D02*
X030847Y025060D01*
X030791Y025159D02*
X040477Y025159D01*
X040712Y025257D02*
X030791Y025257D01*
X030791Y025356D02*
X048533Y025356D01*
X048539Y025350D02*
X048586Y025323D01*
X048639Y025309D01*
X048756Y025309D01*
X048756Y025607D01*
X048458Y025607D01*
X048458Y025490D01*
X048472Y025437D01*
X048500Y025389D01*
X048539Y025350D01*
X048468Y025454D02*
X030755Y025454D01*
X030525Y025156D02*
X031025Y024656D01*
X031025Y022406D01*
X029784Y021164D01*
X029784Y020754D01*
X030040Y020754D02*
X030040Y019920D01*
X029650Y019531D01*
X026610Y019531D01*
X025610Y020531D01*
X026275Y020531D01*
X026511Y020628D02*
X026614Y020628D01*
X026614Y020726D02*
X026440Y020726D01*
X026614Y020773D02*
X026614Y020288D01*
X026678Y020224D01*
X027202Y020224D01*
X027254Y020275D01*
X027273Y020242D01*
X027301Y020214D01*
X027335Y020194D01*
X027373Y020184D01*
X027561Y020184D01*
X027561Y020482D01*
X027658Y020482D01*
X027658Y020184D01*
X027846Y020184D01*
X027884Y020194D01*
X027918Y020214D01*
X027946Y020242D01*
X027966Y020276D01*
X027976Y020314D01*
X027976Y020482D01*
X027658Y020482D01*
X027658Y020579D01*
X027561Y020579D01*
X027561Y020877D01*
X027373Y020877D01*
X027335Y020867D01*
X027301Y020847D01*
X027273Y020819D01*
X027254Y020786D01*
X027202Y020837D01*
X027100Y020837D01*
X027100Y021054D01*
X027183Y021054D01*
X027247Y021118D01*
X027247Y021643D01*
X027183Y021707D01*
X026840Y021707D01*
X026180Y022368D01*
X026118Y022429D01*
X025854Y022581D01*
X025559Y022661D01*
X024677Y022661D01*
X024640Y022750D01*
X024516Y022874D01*
X024475Y022891D01*
X024516Y022907D01*
X024640Y023031D01*
X024677Y023121D01*
X025676Y023121D01*
X025786Y023113D01*
X025998Y023057D01*
X026188Y022947D01*
X026270Y022874D01*
X026317Y022828D01*
X026634Y022511D01*
X026634Y022168D01*
X026698Y022104D01*
X027183Y022104D01*
X027247Y022168D01*
X027247Y022693D01*
X027183Y022757D01*
X027100Y022757D01*
X027100Y022974D01*
X027202Y022974D01*
X027254Y023025D01*
X027273Y022992D01*
X027301Y022964D01*
X027335Y022944D01*
X027373Y022934D01*
X027561Y022934D01*
X027561Y023232D01*
X027658Y023232D01*
X027658Y022934D01*
X027846Y022934D01*
X027884Y022944D01*
X027918Y022964D01*
X027946Y022992D01*
X027966Y023026D01*
X027976Y023064D01*
X027976Y023232D01*
X027658Y023232D01*
X027658Y023329D01*
X027561Y023329D01*
X027561Y023627D01*
X027373Y023627D01*
X027335Y023617D01*
X027301Y023597D01*
X027273Y023569D01*
X027254Y023536D01*
X027202Y023587D01*
X026678Y023587D01*
X026614Y023523D01*
X026614Y023038D01*
X026678Y022974D01*
X026780Y022974D01*
X026780Y022817D01*
X026543Y023054D01*
X026543Y023054D01*
X026496Y023101D01*
X026388Y023209D01*
X026124Y023361D01*
X025829Y023441D01*
X024677Y023441D01*
X024640Y023530D01*
X024516Y023654D01*
X024355Y023721D01*
X024180Y023721D01*
X024018Y023654D01*
X023894Y023530D01*
X023827Y023368D01*
X023827Y023193D01*
X023894Y023031D01*
X024018Y022907D01*
X024059Y022891D01*
X024018Y022874D01*
X023894Y022750D01*
X023827Y022588D01*
X023827Y022413D01*
X023894Y022251D01*
X024018Y022127D01*
X024180Y022061D01*
X024355Y022061D01*
X024516Y022127D01*
X024640Y022251D01*
X024677Y022341D01*
X025406Y022341D01*
X025516Y022333D01*
X025728Y022277D01*
X025918Y022167D01*
X026000Y022094D01*
X026634Y021461D01*
X026634Y021118D01*
X026698Y021054D01*
X026780Y021054D01*
X026780Y020837D01*
X026678Y020837D01*
X026614Y020773D01*
X026665Y020825D02*
X025885Y020825D01*
X025916Y020726D02*
X026110Y020726D01*
X025770Y020923D02*
X026780Y020923D01*
X026780Y021022D02*
X025770Y021022D01*
X025893Y021120D02*
X026634Y021120D01*
X026634Y021219D02*
X025916Y021219D01*
X025916Y021317D02*
X026634Y021317D01*
X026634Y021416D02*
X025916Y021416D01*
X025916Y021514D02*
X026581Y021514D01*
X026482Y021613D02*
X025916Y021613D01*
X025873Y021711D02*
X026384Y021711D01*
X026285Y021810D02*
X024200Y021810D01*
X024102Y021908D02*
X026187Y021908D01*
X026088Y022007D02*
X024003Y022007D01*
X024072Y022105D02*
X023905Y022105D01*
X023942Y022204D02*
X023806Y022204D01*
X023873Y022302D02*
X023708Y022302D01*
X023686Y022324D02*
X023723Y022413D01*
X023723Y022588D01*
X023656Y022750D01*
X023535Y022870D01*
X023596Y022914D01*
X023649Y022968D01*
X023693Y023029D01*
X023728Y023096D01*
X023751Y023168D01*
X023763Y023241D01*
X023323Y023241D01*
X023323Y023321D01*
X023243Y023321D01*
X023243Y023760D01*
X023170Y023749D01*
X023099Y023725D01*
X023031Y023691D01*
X022970Y023647D01*
X022917Y023593D01*
X022872Y023532D01*
X022838Y023465D01*
X022815Y023393D01*
X022803Y023321D01*
X023243Y023321D01*
X023243Y023241D01*
X022803Y023241D01*
X022815Y023168D01*
X022838Y023096D01*
X022872Y023029D01*
X022917Y022968D01*
X022970Y022914D01*
X023031Y022870D01*
X022910Y022750D01*
X022843Y022588D01*
X022843Y022413D01*
X022910Y022251D01*
X023034Y022127D01*
X023195Y022061D01*
X023370Y022061D01*
X023460Y022097D01*
X024312Y021246D01*
X024634Y021246D01*
X024634Y021143D01*
X024698Y021079D01*
X025183Y021079D01*
X025247Y021143D01*
X025247Y021668D01*
X025183Y021732D01*
X024698Y021732D01*
X024634Y021668D01*
X024634Y021566D01*
X024444Y021566D01*
X023686Y022324D01*
X023718Y022401D02*
X023832Y022401D01*
X023827Y022499D02*
X023723Y022499D01*
X023719Y022598D02*
X023831Y022598D01*
X023872Y022696D02*
X023678Y022696D01*
X023611Y022795D02*
X023939Y022795D01*
X024053Y022893D02*
X023566Y022893D01*
X023666Y022992D02*
X023934Y022992D01*
X023870Y023090D02*
X023725Y023090D01*
X023754Y023189D02*
X023829Y023189D01*
X023827Y023287D02*
X023323Y023287D01*
X023323Y023321D02*
X023763Y023321D01*
X023751Y023393D01*
X023728Y023465D01*
X023693Y023532D01*
X023649Y023593D01*
X023596Y023647D01*
X023534Y023691D01*
X023467Y023725D01*
X023395Y023749D01*
X023323Y023760D01*
X023323Y023321D01*
X023323Y023386D02*
X023243Y023386D01*
X023243Y023484D02*
X023323Y023484D01*
X023323Y023583D02*
X023243Y023583D01*
X023243Y023681D02*
X023323Y023681D01*
X023548Y023681D02*
X024084Y023681D01*
X023947Y023583D02*
X023657Y023583D01*
X023718Y023484D02*
X023875Y023484D01*
X023834Y023386D02*
X023752Y023386D01*
X023243Y023287D02*
X000350Y023287D01*
X000350Y023189D02*
X022811Y023189D01*
X022841Y023090D02*
X000350Y023090D01*
X000350Y022992D02*
X022900Y022992D01*
X023000Y022893D02*
X000350Y022893D01*
X000350Y022795D02*
X022955Y022795D01*
X022888Y022696D02*
X000350Y022696D01*
X000350Y022598D02*
X022847Y022598D01*
X022843Y022499D02*
X000350Y022499D01*
X000350Y022401D02*
X022848Y022401D01*
X022889Y022302D02*
X000350Y022302D01*
X000350Y022204D02*
X022958Y022204D01*
X023088Y022105D02*
X000350Y022105D01*
X000350Y022007D02*
X023551Y022007D01*
X023649Y021908D02*
X000350Y021908D01*
X000350Y021810D02*
X023748Y021810D01*
X023846Y021711D02*
X000350Y021711D01*
X000350Y021613D02*
X023945Y021613D01*
X024043Y021514D02*
X000350Y021514D01*
X000350Y021416D02*
X024142Y021416D01*
X024240Y021317D02*
X000350Y021317D01*
X000350Y021219D02*
X024634Y021219D01*
X024657Y021120D02*
X000350Y021120D01*
X000350Y021022D02*
X025450Y021022D01*
X025450Y020923D02*
X000350Y020923D01*
X000350Y020825D02*
X024615Y020825D01*
X024623Y020839D02*
X024604Y020805D01*
X024594Y020767D01*
X024594Y020579D01*
X024892Y020579D01*
X024892Y020897D01*
X024724Y020897D01*
X024686Y020887D01*
X024651Y020867D01*
X024623Y020839D01*
X024594Y020726D02*
X000350Y020726D01*
X000350Y020628D02*
X024594Y020628D01*
X024594Y020482D02*
X024594Y020294D01*
X024604Y020256D01*
X024623Y020222D01*
X024651Y020194D01*
X024686Y020174D01*
X024724Y020164D01*
X024892Y020164D01*
X024892Y020482D01*
X024989Y020482D01*
X024989Y020579D01*
X025287Y020579D01*
X025287Y020767D01*
X025277Y020805D01*
X025257Y020839D01*
X025229Y020867D01*
X025195Y020887D01*
X025157Y020897D01*
X024989Y020897D01*
X024989Y020579D01*
X024892Y020579D01*
X024892Y020482D01*
X024594Y020482D01*
X024594Y020431D02*
X000350Y020431D01*
X000350Y020529D02*
X024892Y020529D01*
X024989Y020529D02*
X025303Y020529D01*
X025287Y020482D02*
X024989Y020482D01*
X024989Y020164D01*
X025157Y020164D01*
X025195Y020174D01*
X025229Y020194D01*
X025257Y020222D01*
X025277Y020256D01*
X025287Y020294D01*
X025287Y020482D01*
X025287Y020431D02*
X025303Y020431D01*
X025303Y020332D02*
X025287Y020332D01*
X025264Y020234D02*
X025338Y020234D01*
X024989Y020234D02*
X024892Y020234D01*
X024892Y020332D02*
X024989Y020332D01*
X024989Y020431D02*
X024892Y020431D01*
X024892Y020628D02*
X024989Y020628D01*
X024989Y020726D02*
X024892Y020726D01*
X024892Y020825D02*
X024989Y020825D01*
X025266Y020825D02*
X025335Y020825D01*
X025303Y020726D02*
X025287Y020726D01*
X025287Y020628D02*
X025303Y020628D01*
X025610Y020531D02*
X025610Y021406D01*
X026113Y022208D02*
X026069Y022250D01*
X026023Y022288D01*
X025974Y022324D01*
X025923Y022357D01*
X025871Y022386D01*
X025816Y022413D01*
X025761Y022436D01*
X025704Y022456D01*
X025645Y022472D01*
X025586Y022485D01*
X025527Y022494D01*
X025466Y022499D01*
X025406Y022501D01*
X024267Y022501D01*
X024595Y022795D02*
X026350Y022795D01*
X026317Y022828D02*
X026317Y022828D01*
X026249Y022893D02*
X024481Y022893D01*
X024600Y022992D02*
X026110Y022992D01*
X025873Y023090D02*
X024664Y023090D01*
X024662Y022696D02*
X026449Y022696D01*
X026547Y022598D02*
X025794Y022598D01*
X025854Y022581D02*
X025854Y022581D01*
X025997Y022499D02*
X026634Y022499D01*
X026634Y022401D02*
X026147Y022401D01*
X026118Y022429D02*
X026118Y022429D01*
X026180Y022368D02*
X026180Y022368D01*
X026245Y022302D02*
X026634Y022302D01*
X026634Y022204D02*
X026344Y022204D01*
X026442Y022105D02*
X026697Y022105D01*
X026541Y022007D02*
X029400Y022007D01*
X029498Y022105D02*
X027853Y022105D01*
X027916Y022204D02*
X029597Y022204D01*
X029624Y022302D02*
X027976Y022302D01*
X028074Y022401D02*
X029624Y022401D01*
X029624Y022499D02*
X028173Y022499D01*
X028271Y022598D02*
X029624Y022598D01*
X029624Y022696D02*
X029435Y022696D01*
X029272Y022696D02*
X029272Y022696D01*
X029272Y022795D02*
X029272Y022795D01*
X029272Y022893D02*
X029272Y022893D01*
X029272Y022992D02*
X029272Y022992D01*
X029272Y023057D02*
X029272Y023443D01*
X029272Y023057D01*
X029272Y023057D01*
X029272Y023090D02*
X029272Y023090D01*
X029272Y023189D02*
X029272Y023189D01*
X029272Y023287D02*
X029272Y023287D01*
X029272Y023386D02*
X029272Y023386D01*
X029339Y023484D02*
X027976Y023484D01*
X027976Y023497D02*
X027966Y023535D01*
X027946Y023569D01*
X027918Y023597D01*
X027884Y023617D01*
X027846Y023627D01*
X027658Y023627D01*
X027658Y023329D01*
X027976Y023329D01*
X027976Y023497D01*
X027933Y023583D02*
X029282Y023583D01*
X029273Y023681D02*
X026515Y023681D01*
X026576Y023706D02*
X026296Y023591D01*
X025994Y023591D01*
X025714Y023706D01*
X025501Y023920D01*
X025385Y024199D01*
X025385Y024502D01*
X025501Y024781D01*
X025714Y024995D01*
X025994Y025111D01*
X026296Y025111D01*
X026576Y024995D01*
X026789Y024781D01*
X026905Y024502D01*
X026905Y024199D01*
X026789Y023920D01*
X026576Y023706D01*
X026649Y023780D02*
X029303Y023780D01*
X029399Y023878D02*
X026747Y023878D01*
X026813Y023977D02*
X029550Y023977D01*
X029489Y024075D02*
X029230Y024075D01*
X029075Y024281D02*
X028525Y024281D01*
X027430Y025376D01*
X027430Y025656D01*
X027737Y025651D02*
X027813Y025651D01*
X027813Y025553D02*
X027737Y025553D01*
X027737Y025454D02*
X027813Y025454D01*
X027813Y025448D02*
X027912Y025349D01*
X028328Y025349D01*
X028427Y025448D01*
X028427Y025496D01*
X029249Y025496D01*
X029509Y025236D01*
X029509Y024893D01*
X029573Y024829D01*
X030058Y024829D01*
X030122Y024893D01*
X030122Y025418D01*
X030058Y025482D01*
X029715Y025482D01*
X029382Y025816D01*
X028427Y025816D01*
X028427Y025863D01*
X028328Y025962D01*
X027912Y025962D01*
X027813Y025863D01*
X027813Y025448D01*
X027906Y025356D02*
X027676Y025356D01*
X027775Y025257D02*
X029488Y025257D01*
X029509Y025159D02*
X027873Y025159D01*
X027972Y025060D02*
X029509Y025060D01*
X029509Y024962D02*
X028070Y024962D01*
X028169Y024863D02*
X029539Y024863D01*
X029533Y024568D02*
X028464Y024568D01*
X028366Y024666D02*
X030788Y024666D01*
X030759Y024617D02*
X030721Y024627D01*
X030533Y024627D01*
X030533Y024329D01*
X030851Y024329D01*
X030851Y024497D01*
X030841Y024535D01*
X030821Y024569D01*
X030793Y024597D01*
X030759Y024617D01*
X030822Y024568D02*
X030865Y024568D01*
X030851Y024469D02*
X030865Y024469D01*
X030851Y024371D02*
X030865Y024371D01*
X030865Y024272D02*
X030533Y024272D01*
X030533Y024174D02*
X030436Y024174D01*
X030436Y024075D02*
X030533Y024075D01*
X030533Y023977D02*
X030436Y023977D01*
X030425Y023878D02*
X030865Y023878D01*
X030865Y023780D02*
X030520Y023780D01*
X030551Y023681D02*
X030865Y023681D01*
X030865Y023583D02*
X030541Y023583D01*
X030485Y023484D02*
X030865Y023484D01*
X030865Y023386D02*
X030456Y023386D01*
X030484Y023287D02*
X030865Y023287D01*
X030865Y023189D02*
X030484Y023189D01*
X030484Y023090D02*
X030865Y023090D01*
X030865Y022992D02*
X030484Y022992D01*
X030484Y022893D02*
X030865Y022893D01*
X030865Y022795D02*
X030484Y022795D01*
X030474Y022598D02*
X030200Y022598D01*
X030200Y022696D02*
X030865Y022696D01*
X030865Y022598D02*
X030826Y022598D01*
X030650Y022406D02*
X030150Y022406D01*
X030040Y022516D01*
X030040Y023057D01*
X030296Y023057D02*
X030296Y023656D01*
X030106Y023484D02*
X029944Y023484D01*
X029944Y023583D02*
X030050Y023583D01*
X030041Y023681D02*
X029944Y023681D01*
X029944Y023780D02*
X030071Y023780D01*
X030167Y023878D02*
X029944Y023878D01*
X030080Y023977D02*
X030163Y023977D01*
X029815Y024281D02*
X029075Y024281D01*
X029247Y024469D02*
X029489Y024469D01*
X029784Y024249D02*
X029815Y024281D01*
X029784Y024249D02*
X029784Y023057D01*
X029784Y022164D01*
X029025Y021406D01*
X029025Y020763D01*
X029016Y020754D01*
X028760Y020754D01*
X028504Y020754D02*
X028067Y021191D01*
X028167Y021317D02*
X028865Y021317D01*
X028865Y021219D02*
X028266Y021219D01*
X028364Y021120D02*
X028865Y021120D01*
X028865Y021416D02*
X028069Y021416D01*
X028067Y021418D02*
X028067Y021418D01*
X028067Y021418D01*
X027916Y021514D02*
X028907Y021514D01*
X029006Y021613D02*
X027916Y021613D01*
X027303Y021613D02*
X027247Y021613D01*
X027247Y021514D02*
X027303Y021514D01*
X027303Y021416D02*
X027247Y021416D01*
X027247Y021317D02*
X027303Y021317D01*
X027303Y021219D02*
X027247Y021219D01*
X027247Y021120D02*
X027303Y021120D01*
X027100Y021022D02*
X028010Y021022D01*
X028109Y020923D02*
X027100Y020923D01*
X027215Y020825D02*
X027278Y020825D01*
X027561Y020825D02*
X027658Y020825D01*
X027658Y020877D02*
X027658Y020579D01*
X027976Y020579D01*
X027976Y020747D01*
X027966Y020785D01*
X027946Y020819D01*
X027918Y020847D01*
X027884Y020867D01*
X027846Y020877D01*
X027658Y020877D01*
X027658Y020726D02*
X027561Y020726D01*
X027610Y021380D02*
X027656Y021378D01*
X027702Y021373D01*
X027748Y021365D01*
X027792Y021354D01*
X027836Y021339D01*
X027879Y021322D01*
X027920Y021301D01*
X027960Y021277D01*
X027998Y021251D01*
X028034Y021222D01*
X028067Y021190D01*
X027941Y020825D02*
X028207Y020825D01*
X028306Y020726D02*
X027976Y020726D01*
X027976Y020628D02*
X028316Y020628D01*
X028316Y020529D02*
X027658Y020529D01*
X027658Y020431D02*
X027561Y020431D01*
X027561Y020332D02*
X027658Y020332D01*
X027658Y020234D02*
X027561Y020234D01*
X027281Y020234D02*
X027212Y020234D01*
X026940Y020531D02*
X026940Y021381D01*
X026113Y022208D01*
X025988Y022105D02*
X024462Y022105D01*
X024592Y022204D02*
X025854Y022204D01*
X026383Y022988D02*
X026339Y023030D01*
X026293Y023068D01*
X026244Y023104D01*
X026193Y023137D01*
X026141Y023166D01*
X026086Y023193D01*
X026031Y023216D01*
X025974Y023236D01*
X025915Y023252D01*
X025856Y023265D01*
X025797Y023274D01*
X025736Y023279D01*
X025676Y023281D01*
X025264Y023281D01*
X024267Y023281D01*
X024450Y023681D02*
X025775Y023681D01*
X025641Y023780D02*
X021909Y023780D01*
X021836Y023706D02*
X022049Y023920D01*
X022165Y024199D01*
X022165Y024502D01*
X022049Y024781D01*
X021836Y024995D01*
X021556Y025111D01*
X021254Y025111D01*
X020974Y024995D01*
X020761Y024781D01*
X020645Y024502D01*
X020645Y024199D01*
X020761Y023920D01*
X020974Y023706D01*
X021254Y023591D01*
X021556Y023591D01*
X021836Y023706D01*
X021775Y023681D02*
X023018Y023681D01*
X022909Y023583D02*
X000350Y023583D01*
X000350Y023681D02*
X021035Y023681D01*
X020901Y023780D02*
X000350Y023780D01*
X000350Y023878D02*
X020803Y023878D01*
X020737Y023977D02*
X000350Y023977D01*
X000350Y024075D02*
X020696Y024075D01*
X020656Y024174D02*
X000350Y024174D01*
X000350Y024272D02*
X020645Y024272D01*
X020645Y024371D02*
X000350Y024371D01*
X000350Y024469D02*
X020645Y024469D01*
X020672Y024568D02*
X000350Y024568D01*
X000350Y024666D02*
X020713Y024666D01*
X020754Y024765D02*
X000350Y024765D01*
X000350Y024863D02*
X020843Y024863D01*
X020941Y024962D02*
X000350Y024962D01*
X000350Y025060D02*
X021132Y025060D01*
X021678Y025060D02*
X025872Y025060D01*
X025681Y024962D02*
X021869Y024962D01*
X021967Y024863D02*
X025583Y024863D01*
X025494Y024765D02*
X022056Y024765D01*
X022097Y024666D02*
X025453Y024666D01*
X025412Y024568D02*
X022138Y024568D01*
X022165Y024469D02*
X025385Y024469D01*
X025385Y024371D02*
X022165Y024371D01*
X022165Y024272D02*
X025385Y024272D01*
X025396Y024174D02*
X022154Y024174D01*
X022114Y024075D02*
X025436Y024075D01*
X025477Y023977D02*
X022073Y023977D01*
X022007Y023878D02*
X025543Y023878D01*
X026034Y023386D02*
X026614Y023386D01*
X026614Y023484D02*
X024659Y023484D01*
X024587Y023583D02*
X026673Y023583D01*
X026614Y023287D02*
X026253Y023287D01*
X026124Y023361D02*
X026124Y023361D01*
X026388Y023209D02*
X026388Y023209D01*
X026409Y023189D02*
X026614Y023189D01*
X026614Y023090D02*
X026507Y023090D01*
X026606Y022992D02*
X026660Y022992D01*
X026704Y022893D02*
X026780Y022893D01*
X027100Y022893D02*
X028114Y022893D01*
X028016Y022795D02*
X027100Y022795D01*
X027244Y022696D02*
X027306Y022696D01*
X027303Y022598D02*
X027247Y022598D01*
X027247Y022499D02*
X027303Y022499D01*
X027303Y022401D02*
X027247Y022401D01*
X027247Y022302D02*
X027303Y022302D01*
X027303Y022204D02*
X027247Y022204D01*
X027184Y022105D02*
X027366Y022105D01*
X027610Y022431D02*
X027878Y022431D01*
X028504Y023057D01*
X028504Y022982D01*
X028311Y023090D02*
X027976Y023090D01*
X027976Y023189D02*
X028316Y023189D01*
X028316Y023287D02*
X027658Y023287D01*
X027658Y023189D02*
X027561Y023189D01*
X027561Y023090D02*
X027658Y023090D01*
X027658Y022992D02*
X027561Y022992D01*
X027273Y022992D02*
X027220Y022992D01*
X026940Y023281D02*
X026940Y022431D01*
X026383Y022988D01*
X026865Y023281D02*
X026940Y023281D01*
X027207Y023583D02*
X027286Y023583D01*
X027561Y023583D02*
X027658Y023583D01*
X027658Y023484D02*
X027561Y023484D01*
X027561Y023386D02*
X027658Y023386D01*
X027976Y023386D02*
X028362Y023386D01*
X028920Y024075D02*
X026854Y024075D01*
X026894Y024174D02*
X028406Y024174D01*
X028307Y024272D02*
X026905Y024272D01*
X026905Y024371D02*
X028209Y024371D01*
X028110Y024469D02*
X026905Y024469D01*
X026878Y024568D02*
X028012Y024568D01*
X027913Y024666D02*
X026837Y024666D01*
X026796Y024765D02*
X027815Y024765D01*
X027716Y024863D02*
X026707Y024863D01*
X026609Y024962D02*
X027618Y024962D01*
X027519Y025060D02*
X026418Y025060D01*
X027123Y025454D02*
X000350Y025454D01*
X000350Y025356D02*
X027215Y025356D01*
X027322Y025257D02*
X000350Y025257D01*
X000350Y025159D02*
X027421Y025159D01*
X027123Y025553D02*
X000350Y025553D01*
X000350Y025651D02*
X027123Y025651D01*
X027123Y025750D02*
X000350Y025750D01*
X000350Y025848D02*
X027123Y025848D01*
X027206Y025947D02*
X000350Y025947D01*
X000350Y026045D02*
X060950Y026045D01*
X060950Y025947D02*
X049719Y025947D01*
X049495Y025656D02*
X049495Y024585D01*
X049400Y024490D01*
X049073Y024469D02*
X045643Y024469D01*
X045643Y024568D02*
X049073Y024568D01*
X049073Y024666D02*
X045643Y024666D01*
X045607Y024765D02*
X049105Y024765D01*
X049335Y024863D02*
X045567Y024863D01*
X045520Y024962D02*
X049335Y024962D01*
X049281Y025356D02*
X049076Y025356D01*
X049071Y025350D02*
X049110Y025389D01*
X049137Y025437D01*
X049152Y025490D01*
X049152Y025607D01*
X048853Y025607D01*
X048853Y025309D01*
X048970Y025309D01*
X049023Y025323D01*
X049071Y025350D01*
X049142Y025454D02*
X049188Y025454D01*
X049188Y025553D02*
X049152Y025553D01*
X049188Y025651D02*
X048853Y025651D01*
X048853Y025607D02*
X048853Y025704D01*
X048756Y025704D01*
X048756Y025607D01*
X048853Y025607D01*
X048853Y025553D02*
X048756Y025553D01*
X048756Y025651D02*
X029546Y025651D01*
X029448Y025750D02*
X048458Y025750D01*
X048458Y025704D02*
X048458Y025821D01*
X048472Y025874D01*
X048500Y025922D01*
X048539Y025961D01*
X048586Y025988D01*
X048639Y026002D01*
X048756Y026002D01*
X048756Y025704D01*
X048458Y025704D01*
X048465Y025848D02*
X028427Y025848D01*
X028344Y025947D02*
X048525Y025947D01*
X048756Y025947D02*
X048853Y025947D01*
X048853Y026002D02*
X048853Y025704D01*
X049152Y025704D01*
X049152Y025821D01*
X049137Y025874D01*
X049110Y025922D01*
X049071Y025961D01*
X049023Y025988D01*
X048970Y026002D01*
X048853Y026002D01*
X048853Y025848D02*
X048756Y025848D01*
X048756Y025750D02*
X048853Y025750D01*
X048853Y025454D02*
X048756Y025454D01*
X048756Y025356D02*
X048853Y025356D01*
X048458Y025553D02*
X029645Y025553D01*
X029389Y025356D02*
X028335Y025356D01*
X028427Y025454D02*
X029291Y025454D01*
X029315Y025656D02*
X029815Y025156D01*
X030122Y025159D02*
X030178Y025159D01*
X030178Y025257D02*
X030122Y025257D01*
X030122Y025356D02*
X030178Y025356D01*
X030214Y025454D02*
X030086Y025454D01*
X030122Y025060D02*
X030178Y025060D01*
X030178Y024962D02*
X030122Y024962D01*
X030092Y024863D02*
X030208Y024863D01*
X030147Y024568D02*
X030097Y024568D01*
X030436Y024568D02*
X030533Y024568D01*
X030533Y024469D02*
X030436Y024469D01*
X030436Y024371D02*
X030533Y024371D01*
X030851Y024174D02*
X030865Y024174D01*
X030851Y024075D02*
X030865Y024075D01*
X030865Y023977D02*
X030806Y023977D01*
X030690Y024765D02*
X028267Y024765D01*
X028563Y024469D02*
X028903Y024469D01*
X029528Y023656D02*
X029528Y023057D01*
X029109Y022696D02*
X028370Y022696D01*
X028213Y022992D02*
X027946Y022992D01*
X027913Y022696D02*
X027917Y022696D01*
X026836Y021711D02*
X029104Y021711D01*
X029203Y021810D02*
X026738Y021810D01*
X026639Y021908D02*
X029301Y021908D01*
X029557Y021711D02*
X030104Y021711D01*
X030006Y021613D02*
X029458Y021613D01*
X029360Y021514D02*
X029907Y021514D01*
X029809Y021416D02*
X029261Y021416D01*
X029185Y021339D02*
X029944Y022098D01*
X029944Y022385D01*
X029990Y022339D01*
X030084Y022246D01*
X030442Y022246D01*
X030503Y022185D01*
X030556Y022163D01*
X029624Y021231D01*
X029624Y021140D01*
X029528Y021140D01*
X029528Y020754D01*
X029528Y020754D01*
X029528Y021140D01*
X029429Y021140D01*
X029391Y021130D01*
X029357Y021110D01*
X029347Y021100D01*
X029185Y021100D01*
X029185Y021339D01*
X029185Y021317D02*
X029710Y021317D01*
X029624Y021219D02*
X029185Y021219D01*
X029185Y021120D02*
X029374Y021120D01*
X029528Y021120D02*
X029528Y021120D01*
X029528Y021022D02*
X029528Y021022D01*
X029528Y020923D02*
X029528Y020923D01*
X029528Y020825D02*
X029528Y020825D01*
X029528Y020754D02*
X029528Y020368D01*
X029626Y020368D01*
X029665Y020378D01*
X029699Y020398D01*
X029709Y020408D01*
X029880Y020408D01*
X029880Y020218D01*
X029847Y020251D01*
X029752Y020291D01*
X029648Y020291D01*
X029561Y020254D01*
X029561Y020273D01*
X029497Y020337D01*
X029432Y020337D01*
X029432Y020368D01*
X029528Y020368D01*
X029528Y020754D01*
X029528Y020754D01*
X029528Y020726D02*
X029528Y020726D01*
X029528Y020628D02*
X029528Y020628D01*
X029528Y020529D02*
X029528Y020529D01*
X029528Y020431D02*
X029528Y020431D01*
X029502Y020332D02*
X029880Y020332D01*
X029880Y020234D02*
X029865Y020234D01*
X029700Y020031D02*
X029235Y020031D01*
X029272Y020068D01*
X029272Y020754D01*
X028967Y020332D02*
X028889Y020332D01*
X028614Y020332D02*
X028517Y020332D01*
X028517Y020234D02*
X028614Y020234D01*
X028614Y020135D02*
X028517Y020135D01*
X028517Y020037D02*
X026330Y020037D01*
X026231Y020135D02*
X028199Y020135D01*
X028199Y020234D02*
X027938Y020234D01*
X027976Y020332D02*
X028241Y020332D01*
X028357Y020431D02*
X027976Y020431D01*
X027658Y020628D02*
X027561Y020628D01*
X026614Y020529D02*
X026530Y020529D01*
X026510Y020431D02*
X026614Y020431D01*
X026614Y020332D02*
X026437Y020332D01*
X026668Y020234D02*
X026133Y020234D01*
X026113Y020332D02*
X026034Y020332D01*
X025779Y020135D02*
X000350Y020135D01*
X000350Y020037D02*
X025877Y020037D01*
X025976Y019938D02*
X000350Y019938D01*
X000350Y019840D02*
X026074Y019840D01*
X026173Y019741D02*
X000350Y019741D01*
X000350Y019643D02*
X026271Y019643D01*
X026370Y019544D02*
X000350Y019544D01*
X000350Y019446D02*
X026468Y019446D01*
X026625Y019741D02*
X028229Y019741D01*
X028199Y019840D02*
X026527Y019840D01*
X026428Y019938D02*
X028199Y019938D01*
X029791Y019446D02*
X046790Y019446D01*
X046790Y019544D02*
X029890Y019544D01*
X029988Y019643D02*
X042214Y019643D01*
X042217Y019641D02*
X042255Y019631D01*
X042400Y019631D01*
X042400Y019981D01*
X042125Y019981D01*
X042125Y019761D01*
X042135Y019723D01*
X042155Y019688D01*
X042183Y019660D01*
X042217Y019641D01*
X042130Y019741D02*
X030087Y019741D01*
X030185Y019840D02*
X042125Y019840D01*
X042125Y019938D02*
X030200Y019938D01*
X030200Y020037D02*
X042125Y020037D01*
X042125Y020031D02*
X042400Y020031D01*
X042400Y020381D01*
X042255Y020381D01*
X042217Y020370D01*
X042183Y020351D01*
X042155Y020323D01*
X042135Y020288D01*
X042125Y020250D01*
X042125Y020031D01*
X042125Y020135D02*
X030200Y020135D01*
X030200Y020234D02*
X042125Y020234D01*
X042164Y020332D02*
X030200Y020332D01*
X030443Y020431D02*
X043450Y020431D01*
X043421Y020332D02*
X043229Y020332D01*
X043221Y020341D02*
X042829Y020341D01*
X042765Y020276D01*
X042765Y019735D01*
X042829Y019671D01*
X043221Y019671D01*
X043285Y019735D01*
X043285Y020276D01*
X043221Y020341D01*
X043285Y020234D02*
X043365Y020234D01*
X043365Y020135D02*
X043285Y020135D01*
X043285Y020037D02*
X043365Y020037D01*
X043365Y019938D02*
X043285Y019938D01*
X043285Y019840D02*
X043365Y019840D01*
X043365Y019741D02*
X043285Y019741D01*
X043610Y020006D02*
X043610Y020781D01*
X043283Y020825D02*
X043267Y020825D01*
X043267Y020923D02*
X043283Y020923D01*
X043283Y021022D02*
X043267Y021022D01*
X043267Y020726D02*
X043283Y020726D01*
X043283Y020628D02*
X043267Y020628D01*
X043258Y020529D02*
X043292Y020529D01*
X042940Y020781D02*
X042940Y022531D01*
X042900Y022531D01*
X042554Y022499D02*
X042286Y022499D01*
X042286Y022401D02*
X042554Y022401D01*
X042554Y022302D02*
X042286Y022302D01*
X042276Y022204D02*
X042563Y022204D01*
X042604Y022105D02*
X042238Y022105D01*
X042286Y022598D02*
X042554Y022598D01*
X042554Y022696D02*
X042286Y022696D01*
X042286Y022795D02*
X042554Y022795D01*
X042578Y022893D02*
X042266Y022893D01*
X042214Y022992D02*
X042635Y022992D01*
X042780Y021810D02*
X030655Y021810D01*
X030557Y021711D02*
X042780Y021711D01*
X042780Y021613D02*
X030458Y021613D01*
X030360Y021514D02*
X042780Y021514D01*
X042780Y021416D02*
X030261Y021416D01*
X030163Y021317D02*
X042780Y021317D01*
X042780Y021219D02*
X030064Y021219D01*
X029966Y021120D02*
X042780Y021120D01*
X042614Y021022D02*
X030484Y021022D01*
X030484Y020923D02*
X042614Y020923D01*
X042614Y020825D02*
X030484Y020825D01*
X030484Y020726D02*
X042614Y020726D01*
X042614Y020628D02*
X030484Y020628D01*
X030484Y020529D02*
X042623Y020529D01*
X042595Y020381D02*
X042450Y020381D01*
X042450Y020031D01*
X042400Y020031D01*
X042400Y019981D01*
X042450Y019981D01*
X042450Y020031D01*
X042725Y020031D01*
X042725Y020250D01*
X042715Y020288D01*
X042695Y020323D01*
X042667Y020351D01*
X042633Y020370D01*
X042595Y020381D01*
X042686Y020332D02*
X042821Y020332D01*
X042765Y020234D02*
X042725Y020234D01*
X042725Y020135D02*
X042765Y020135D01*
X042765Y020037D02*
X042725Y020037D01*
X042725Y019981D02*
X042725Y019761D01*
X042715Y019723D01*
X042695Y019688D01*
X042667Y019660D01*
X042633Y019641D01*
X042595Y019631D01*
X042450Y019631D01*
X042450Y019981D01*
X042725Y019981D01*
X042725Y019938D02*
X042765Y019938D01*
X042765Y019840D02*
X042725Y019840D01*
X042720Y019741D02*
X042765Y019741D01*
X042636Y019643D02*
X046790Y019643D01*
X046790Y019347D02*
X000350Y019347D01*
X000350Y019249D02*
X046790Y019249D01*
X046790Y019150D02*
X000350Y019150D01*
X000350Y019052D02*
X042165Y019052D01*
X042165Y019076D02*
X042165Y018772D01*
X041865Y018472D01*
X041865Y018422D01*
X041763Y018422D01*
X041698Y018358D01*
X041698Y017873D01*
X041763Y017808D01*
X042287Y017808D01*
X042352Y017873D01*
X042352Y018358D01*
X042287Y018422D01*
X042268Y018422D01*
X042316Y018471D01*
X042621Y018471D01*
X042685Y018535D01*
X042685Y019076D01*
X042621Y019141D01*
X042229Y019141D01*
X042165Y019076D01*
X042165Y018953D02*
X000350Y018953D01*
X000350Y018855D02*
X042165Y018855D01*
X042149Y018756D02*
X000350Y018756D01*
X000350Y018658D02*
X042051Y018658D01*
X041952Y018559D02*
X000350Y018559D01*
X000350Y018461D02*
X041865Y018461D01*
X042025Y018406D02*
X042025Y018115D01*
X042025Y018406D02*
X042425Y018806D01*
X042685Y018855D02*
X042765Y018855D01*
X042765Y018953D02*
X042685Y018953D01*
X042685Y019052D02*
X042765Y019052D01*
X042765Y019076D02*
X042765Y018535D01*
X042829Y018471D01*
X042865Y018471D01*
X042865Y018442D01*
X042783Y018442D01*
X042718Y018377D01*
X042718Y017853D01*
X042769Y017802D01*
X042736Y017782D01*
X042708Y017755D01*
X042688Y017720D01*
X042678Y017682D01*
X042678Y017494D01*
X042977Y017494D01*
X042977Y017397D01*
X043073Y017397D01*
X043073Y017079D01*
X043242Y017079D01*
X043280Y017090D01*
X043314Y017109D01*
X043342Y017137D01*
X043362Y017171D01*
X043372Y017210D01*
X043372Y017397D01*
X043073Y017397D01*
X043073Y017494D01*
X043372Y017494D01*
X043372Y017682D01*
X043362Y017720D01*
X043342Y017755D01*
X043314Y017782D01*
X043281Y017802D01*
X043332Y017853D01*
X043332Y018377D01*
X043267Y018442D01*
X043185Y018442D01*
X043185Y018471D01*
X043221Y018471D01*
X043285Y018535D01*
X043285Y019076D01*
X043221Y019141D01*
X042829Y019141D01*
X042765Y019076D01*
X042765Y018756D02*
X042685Y018756D01*
X042685Y018658D02*
X042765Y018658D01*
X042765Y018559D02*
X042685Y018559D01*
X042718Y018362D02*
X042347Y018362D01*
X042352Y018264D02*
X042718Y018264D01*
X042718Y018165D02*
X042352Y018165D01*
X042352Y018067D02*
X042718Y018067D01*
X042718Y017968D02*
X042352Y017968D01*
X042348Y017870D02*
X042718Y017870D01*
X042725Y017771D02*
X000350Y017771D01*
X000350Y017673D02*
X041698Y017673D01*
X041698Y017574D02*
X000350Y017574D01*
X000350Y017476D02*
X041698Y017476D01*
X041698Y017377D02*
X000350Y017377D01*
X000350Y017279D02*
X041698Y017279D01*
X041722Y017180D02*
X000350Y017180D01*
X000350Y017082D02*
X041950Y017082D01*
X041950Y016983D02*
X000350Y016983D01*
X000350Y016885D02*
X039149Y016885D01*
X039128Y016876D02*
X039055Y016803D01*
X039015Y016707D01*
X039015Y016604D01*
X039055Y016508D01*
X039115Y016448D01*
X039115Y016212D01*
X039098Y016212D01*
X039033Y016148D01*
X039033Y015663D01*
X039098Y015599D01*
X039622Y015599D01*
X039686Y015663D01*
X039686Y016148D01*
X039622Y016212D01*
X039435Y016212D01*
X039435Y016448D01*
X039495Y016508D01*
X039535Y016604D01*
X039535Y016707D01*
X039495Y016803D01*
X039422Y016876D01*
X039327Y016916D01*
X039223Y016916D01*
X039128Y016876D01*
X039048Y016786D02*
X000350Y016786D01*
X000350Y016688D02*
X039015Y016688D01*
X039021Y016589D02*
X000350Y016589D01*
X000350Y016491D02*
X039072Y016491D01*
X039115Y016392D02*
X037849Y016392D01*
X037815Y016426D02*
X037650Y016426D01*
X037650Y015956D01*
X037550Y015956D01*
X037550Y016426D01*
X037385Y016426D01*
X037080Y016121D01*
X037080Y015956D01*
X037550Y015956D01*
X037550Y015856D01*
X037080Y015856D01*
X037080Y015690D01*
X037385Y015386D01*
X037550Y015386D01*
X037550Y015856D01*
X037650Y015856D01*
X037650Y015956D01*
X038120Y015956D01*
X038120Y016121D01*
X037815Y016426D01*
X037650Y016392D02*
X037550Y016392D01*
X037550Y016294D02*
X037650Y016294D01*
X037650Y016195D02*
X037550Y016195D01*
X037550Y016097D02*
X037650Y016097D01*
X037650Y015998D02*
X037550Y015998D01*
X037550Y015900D02*
X037080Y015900D01*
X037080Y015998D02*
X037080Y015998D01*
X037080Y016097D02*
X036988Y016097D01*
X036889Y016195D02*
X037154Y016195D01*
X037650Y015900D02*
X038364Y015900D01*
X038364Y015998D02*
X038120Y015998D01*
X038120Y016097D02*
X038364Y016097D01*
X038411Y016195D02*
X038046Y016195D01*
X037947Y016294D02*
X039115Y016294D01*
X039080Y016195D02*
X038970Y016195D01*
X039017Y016097D02*
X039033Y016097D01*
X039033Y015998D02*
X039017Y015998D01*
X039017Y015900D02*
X039033Y015900D01*
X039033Y015801D02*
X039017Y015801D01*
X039017Y015703D02*
X039033Y015703D01*
X039092Y015604D02*
X038958Y015604D01*
X038850Y015506D02*
X041280Y015506D01*
X041280Y015604D02*
X039627Y015604D01*
X039686Y015703D02*
X041280Y015703D01*
X041280Y015801D02*
X039686Y015801D01*
X039686Y015900D02*
X041280Y015900D01*
X041280Y015998D02*
X039686Y015998D01*
X039686Y016097D02*
X041280Y016097D01*
X041280Y016195D02*
X039639Y016195D01*
X039435Y016294D02*
X041280Y016294D01*
X041135Y016392D02*
X039435Y016392D01*
X039478Y016491D02*
X040704Y016491D01*
X040652Y016589D02*
X039529Y016589D01*
X039535Y016688D02*
X040645Y016688D01*
X040678Y016786D02*
X039502Y016786D01*
X039401Y016885D02*
X040787Y016885D01*
X041013Y016885D02*
X041114Y016885D01*
X040900Y016656D02*
X041440Y016656D01*
X041440Y015540D01*
X042250Y014731D01*
X042800Y014731D01*
X042953Y014577D01*
X042953Y014338D01*
X043150Y014338D02*
X043150Y014556D01*
X043325Y014731D01*
X043800Y014731D01*
X044610Y015540D01*
X044610Y016656D01*
X045150Y016656D01*
X045263Y016885D02*
X046065Y016885D01*
X046065Y016983D02*
X044100Y016983D01*
X044100Y016962D02*
X044100Y017139D01*
X044287Y017139D01*
X044352Y017203D01*
X044352Y017688D01*
X044287Y017753D01*
X043763Y017753D01*
X043698Y017688D01*
X043698Y017203D01*
X043763Y017139D01*
X043780Y017139D01*
X043780Y016962D01*
X043678Y016962D01*
X043650Y016934D01*
X043602Y016982D01*
X043117Y016982D01*
X043053Y016918D01*
X043053Y016393D01*
X043117Y016329D01*
X043298Y016329D01*
X043298Y015837D01*
X043137Y015837D01*
X043072Y015773D01*
X043072Y015288D01*
X043137Y015224D01*
X043779Y015224D01*
X043844Y015288D01*
X043844Y015773D01*
X043779Y015837D01*
X043618Y015837D01*
X043618Y016345D01*
X043650Y016377D01*
X043678Y016349D01*
X044202Y016349D01*
X044267Y016413D01*
X044267Y016898D01*
X044202Y016962D01*
X044100Y016962D01*
X044100Y017082D02*
X046065Y017082D01*
X046065Y017180D02*
X044328Y017180D01*
X044352Y017279D02*
X046065Y017279D01*
X046065Y017377D02*
X044352Y017377D01*
X044352Y017476D02*
X046065Y017476D01*
X046065Y017574D02*
X044352Y017574D01*
X044352Y017673D02*
X046065Y017673D01*
X046065Y017771D02*
X043325Y017771D01*
X043332Y017870D02*
X043702Y017870D01*
X043698Y017873D02*
X043763Y017808D01*
X044287Y017808D01*
X044352Y017873D01*
X044352Y018358D01*
X044287Y018422D01*
X044185Y018422D01*
X044185Y018472D01*
X043885Y018772D01*
X043885Y019076D01*
X043821Y019141D01*
X043429Y019141D01*
X043365Y019076D01*
X043365Y018535D01*
X043429Y018471D01*
X043734Y018471D01*
X043782Y018422D01*
X043763Y018422D01*
X043698Y018358D01*
X043698Y017873D01*
X043698Y017968D02*
X043332Y017968D01*
X043332Y018067D02*
X043698Y018067D01*
X043698Y018165D02*
X043332Y018165D01*
X043332Y018264D02*
X043698Y018264D01*
X043703Y018362D02*
X043332Y018362D01*
X043185Y018461D02*
X043744Y018461D01*
X044025Y018406D02*
X043625Y018806D01*
X043885Y018855D02*
X046113Y018855D01*
X046041Y018756D02*
X043901Y018756D01*
X043999Y018658D02*
X046020Y018658D01*
X046039Y018559D02*
X044098Y018559D01*
X044185Y018461D02*
X046065Y018461D01*
X046065Y018362D02*
X044347Y018362D01*
X044352Y018264D02*
X046065Y018264D01*
X046065Y018165D02*
X044352Y018165D01*
X044352Y018067D02*
X046065Y018067D01*
X046065Y017968D02*
X044352Y017968D01*
X044348Y017870D02*
X046065Y017870D01*
X046485Y017870D02*
X046790Y017870D01*
X046790Y017968D02*
X046485Y017968D01*
X046485Y018067D02*
X046790Y018067D01*
X046790Y018165D02*
X046485Y018165D01*
X046485Y018264D02*
X046790Y018264D01*
X046790Y018362D02*
X046485Y018362D01*
X046790Y018953D02*
X043885Y018953D01*
X043885Y019052D02*
X046790Y019052D01*
X048025Y018656D02*
X048025Y022446D01*
X049400Y023821D01*
X049727Y023780D02*
X050465Y023780D01*
X050465Y023878D02*
X049727Y023878D01*
X049727Y023977D02*
X050503Y023977D01*
X050544Y024075D02*
X049715Y024075D01*
X049727Y023681D02*
X050465Y023681D01*
X050465Y023583D02*
X049727Y023583D01*
X049289Y023484D02*
X050472Y023484D01*
X050513Y023386D02*
X049191Y023386D01*
X049092Y023287D02*
X050554Y023287D01*
X050594Y023189D02*
X048994Y023189D01*
X048895Y023090D02*
X050670Y023090D01*
X050768Y022992D02*
X048797Y022992D01*
X048698Y022893D02*
X050867Y022893D01*
X051085Y022795D02*
X048600Y022795D01*
X048501Y022696D02*
X052315Y022696D01*
X052315Y022703D02*
X052315Y022381D01*
X051948Y022014D01*
X051750Y022014D01*
X051686Y021949D01*
X051686Y021464D01*
X051750Y021400D01*
X051950Y021400D01*
X052078Y021347D01*
X052222Y021347D01*
X052350Y021400D01*
X052550Y021400D01*
X052614Y021464D01*
X052614Y021662D01*
X052691Y021738D01*
X052731Y021698D01*
X053084Y021552D01*
X053466Y021552D01*
X053819Y021698D01*
X054089Y021968D01*
X054235Y022321D01*
X054235Y022703D01*
X054089Y023056D01*
X053819Y023326D01*
X053466Y023472D01*
X053084Y023472D01*
X052731Y023326D01*
X052461Y023056D01*
X052315Y022703D01*
X052353Y022795D02*
X051764Y022795D01*
X051982Y022893D02*
X052394Y022893D01*
X052435Y022992D02*
X052081Y022992D01*
X052179Y023090D02*
X052496Y023090D01*
X052594Y023189D02*
X052255Y023189D01*
X052296Y023287D02*
X052693Y023287D01*
X052876Y023386D02*
X052336Y023386D01*
X052377Y023484D02*
X060950Y023484D01*
X060950Y023386D02*
X053674Y023386D01*
X053857Y023287D02*
X060950Y023287D01*
X060950Y023189D02*
X053956Y023189D01*
X054054Y023090D02*
X060950Y023090D01*
X060950Y022992D02*
X054115Y022992D01*
X054156Y022893D02*
X060950Y022893D01*
X060950Y022795D02*
X054197Y022795D01*
X054235Y022696D02*
X060950Y022696D01*
X060950Y022598D02*
X054235Y022598D01*
X054235Y022499D02*
X060950Y022499D01*
X060950Y022401D02*
X054235Y022401D01*
X054227Y022302D02*
X060950Y022302D01*
X060950Y022204D02*
X054186Y022204D01*
X054146Y022105D02*
X060950Y022105D01*
X060950Y022007D02*
X054105Y022007D01*
X054029Y021908D02*
X060950Y021908D01*
X060950Y021810D02*
X053930Y021810D01*
X053832Y021711D02*
X060950Y021711D01*
X060950Y021613D02*
X053613Y021613D01*
X052937Y021613D02*
X052614Y021613D01*
X052614Y021514D02*
X060950Y021514D01*
X060950Y021416D02*
X052566Y021416D01*
X052663Y021711D02*
X052718Y021711D01*
X052138Y022204D02*
X048185Y022204D01*
X048185Y022302D02*
X052236Y022302D01*
X052315Y022401D02*
X048206Y022401D01*
X048304Y022499D02*
X052315Y022499D01*
X052315Y022598D02*
X048403Y022598D01*
X048185Y022105D02*
X052039Y022105D01*
X051743Y022007D02*
X048185Y022007D01*
X048185Y021908D02*
X051686Y021908D01*
X051686Y021810D02*
X048185Y021810D01*
X048185Y021711D02*
X051686Y021711D01*
X051686Y021613D02*
X048185Y021613D01*
X048185Y021514D02*
X051686Y021514D01*
X051734Y021416D02*
X048185Y021416D01*
X048185Y021317D02*
X060950Y021317D01*
X060950Y021219D02*
X048185Y021219D01*
X048185Y021120D02*
X060950Y021120D01*
X060950Y021022D02*
X048185Y021022D01*
X048185Y020923D02*
X049405Y020923D01*
X049370Y020825D02*
X048185Y020825D01*
X048185Y020726D02*
X049370Y020726D01*
X049370Y020628D02*
X048185Y020628D01*
X049726Y020628D02*
X049826Y020628D01*
X049826Y020726D02*
X049726Y020726D01*
X049726Y020825D02*
X049826Y020825D01*
X049826Y020923D02*
X049726Y020923D01*
X050147Y020923D02*
X050210Y020923D01*
X050213Y020135D02*
X050144Y020135D01*
X050040Y019643D02*
X049260Y019643D01*
X049260Y019544D02*
X050040Y019544D01*
X050040Y019446D02*
X049260Y019446D01*
X049260Y019347D02*
X050040Y019347D01*
X050040Y019249D02*
X049260Y019249D01*
X049260Y019150D02*
X050083Y019150D01*
X049260Y019052D02*
X051790Y019052D01*
X051790Y019150D02*
X051399Y019150D01*
X051441Y019249D02*
X051790Y019249D01*
X051790Y019347D02*
X051441Y019347D01*
X051441Y019446D02*
X051790Y019446D01*
X051790Y019544D02*
X051441Y019544D01*
X051441Y019643D02*
X051790Y019643D01*
X051790Y019741D02*
X051441Y019741D01*
X051441Y019840D02*
X051790Y019840D01*
X051790Y019938D02*
X051422Y019938D01*
X051521Y020037D02*
X051790Y020037D01*
X051790Y020135D02*
X051619Y020135D01*
X051718Y020234D02*
X051790Y020234D01*
X051790Y018953D02*
X049260Y018953D01*
X049260Y018855D02*
X051790Y018855D01*
X051790Y018756D02*
X049260Y018756D01*
X049260Y018658D02*
X051790Y018658D01*
X051790Y018559D02*
X049260Y018559D01*
X049260Y018461D02*
X051790Y018461D01*
X051790Y018362D02*
X049260Y018362D01*
X049260Y018264D02*
X051790Y018264D01*
X051790Y018165D02*
X051451Y018165D01*
X051423Y018193D01*
X051389Y018213D01*
X051351Y018223D01*
X050791Y018223D01*
X050791Y017808D01*
X051481Y017808D01*
X051481Y018093D01*
X051471Y018131D01*
X051451Y018165D01*
X051481Y018067D02*
X051790Y018067D01*
X051790Y017968D02*
X051481Y017968D01*
X051481Y017870D02*
X051790Y017870D01*
X051790Y017771D02*
X050791Y017771D01*
X050791Y017808D02*
X050791Y017708D01*
X051481Y017708D01*
X051481Y017423D01*
X051471Y017385D01*
X051451Y017351D01*
X051423Y017323D01*
X051389Y017303D01*
X051351Y017293D01*
X050791Y017293D01*
X050791Y017708D01*
X050691Y017708D01*
X050691Y017293D01*
X050130Y017293D01*
X050092Y017303D01*
X050058Y017323D01*
X050030Y017351D01*
X050010Y017385D01*
X050000Y017423D01*
X050000Y017708D01*
X050691Y017708D01*
X050691Y017808D01*
X050691Y018223D01*
X050130Y018223D01*
X050092Y018213D01*
X050058Y018193D01*
X050030Y018165D01*
X050010Y018131D01*
X050000Y018093D01*
X050000Y017808D01*
X050691Y017808D01*
X050791Y017808D01*
X050791Y017870D02*
X050691Y017870D01*
X050691Y017968D02*
X050791Y017968D01*
X050791Y018067D02*
X050691Y018067D01*
X050691Y018165D02*
X050791Y018165D01*
X050691Y017771D02*
X049260Y017771D01*
X049260Y017673D02*
X050000Y017673D01*
X050000Y017574D02*
X049279Y017574D01*
X049378Y017476D02*
X050000Y017476D01*
X050015Y017377D02*
X049476Y017377D01*
X049575Y017279D02*
X051790Y017279D01*
X051790Y017377D02*
X051466Y017377D01*
X051481Y017476D02*
X051790Y017476D01*
X051790Y017574D02*
X051481Y017574D01*
X051481Y017673D02*
X051790Y017673D01*
X050791Y017673D02*
X050691Y017673D01*
X050691Y017574D02*
X050791Y017574D01*
X050791Y017476D02*
X050691Y017476D01*
X050691Y017377D02*
X050791Y017377D01*
X050800Y017226D02*
X050574Y017226D01*
X050574Y016831D01*
X050930Y016831D01*
X050930Y017096D01*
X050920Y017134D01*
X050900Y017168D01*
X050872Y017196D01*
X050838Y017216D01*
X050800Y017226D01*
X050888Y017180D02*
X051790Y017180D01*
X051790Y017082D02*
X050930Y017082D01*
X050930Y016983D02*
X051790Y016983D01*
X051790Y016885D02*
X050930Y016885D01*
X050930Y016731D02*
X050574Y016731D01*
X050574Y016335D01*
X050800Y016335D01*
X050838Y016345D01*
X050872Y016365D01*
X050900Y016393D01*
X050920Y016427D01*
X050930Y016465D01*
X050930Y016731D01*
X050930Y016688D02*
X051790Y016688D01*
X051790Y016786D02*
X050574Y016786D01*
X050574Y016688D02*
X050474Y016688D01*
X050474Y016589D02*
X050574Y016589D01*
X050574Y016491D02*
X050474Y016491D01*
X050474Y016392D02*
X050574Y016392D01*
X050489Y016294D02*
X051790Y016294D01*
X051790Y016392D02*
X050899Y016392D01*
X050930Y016491D02*
X051790Y016491D01*
X051790Y016589D02*
X050930Y016589D01*
X050574Y016885D02*
X050474Y016885D01*
X050474Y016983D02*
X050574Y016983D01*
X050574Y017082D02*
X050474Y017082D01*
X050474Y017180D02*
X050574Y017180D01*
X050160Y017180D02*
X050083Y017180D01*
X049776Y016781D02*
X052900Y013656D01*
X052900Y009906D01*
X051400Y008406D01*
X051750Y008414D02*
X053024Y008414D01*
X053009Y008315D02*
X051741Y008315D01*
X051701Y008217D02*
X053000Y008217D01*
X053007Y008020D02*
X045240Y008020D01*
X045150Y008156D02*
X045400Y008406D01*
X045400Y009711D01*
X043705Y011406D01*
X043940Y011467D02*
X045015Y011467D01*
X045010Y011444D02*
X045010Y011436D01*
X045370Y011436D01*
X045370Y011796D01*
X045362Y011796D01*
X045286Y011781D01*
X045215Y011751D01*
X045151Y011708D01*
X045097Y011654D01*
X045054Y011590D01*
X045025Y011519D01*
X045010Y011444D01*
X045010Y011376D02*
X045010Y011367D01*
X045025Y011292D01*
X045054Y011221D01*
X045097Y011157D01*
X045151Y011103D01*
X045215Y011060D01*
X045286Y011030D01*
X045362Y011016D01*
X045370Y011016D01*
X045370Y011376D01*
X045010Y011376D01*
X045010Y011369D02*
X043968Y011369D01*
X044067Y011270D02*
X045034Y011270D01*
X045087Y011172D02*
X044165Y011172D01*
X044264Y011073D02*
X045196Y011073D01*
X045370Y011073D02*
X045430Y011073D01*
X045430Y011016D02*
X045438Y011016D01*
X045514Y011030D01*
X045585Y011060D01*
X045649Y011103D01*
X045703Y011157D01*
X045746Y011221D01*
X045775Y011292D01*
X045790Y011367D01*
X045790Y011376D01*
X045430Y011376D01*
X045430Y011436D01*
X045370Y011436D01*
X045370Y011376D01*
X045430Y011376D01*
X045430Y011016D01*
X045430Y011172D02*
X045370Y011172D01*
X045370Y011270D02*
X045430Y011270D01*
X045430Y011369D02*
X045370Y011369D01*
X045430Y011436D02*
X045790Y011436D01*
X045790Y011444D01*
X045775Y011519D01*
X045746Y011590D01*
X045703Y011654D01*
X045649Y011708D01*
X045585Y011751D01*
X045514Y011781D01*
X045438Y011796D01*
X045430Y011796D01*
X045430Y011436D01*
X045430Y011467D02*
X045370Y011467D01*
X045370Y011566D02*
X045430Y011566D01*
X045430Y011664D02*
X045370Y011664D01*
X045370Y011763D02*
X045430Y011763D01*
X045557Y011763D02*
X052740Y011763D01*
X052740Y011861D02*
X043510Y011861D01*
X043510Y011960D02*
X052740Y011960D01*
X052740Y012058D02*
X043510Y012058D01*
X043500Y012157D02*
X052740Y012157D01*
X052740Y012255D02*
X043310Y012255D01*
X043310Y012354D02*
X052740Y012354D01*
X052740Y012452D02*
X043733Y012452D01*
X043753Y012551D02*
X052740Y012551D01*
X052740Y012649D02*
X043753Y012649D01*
X043753Y012748D02*
X043904Y012748D01*
X043864Y012846D02*
X043753Y012846D01*
X043752Y012945D02*
X043864Y012945D01*
X043864Y013043D02*
X043690Y013043D01*
X043544Y013043D02*
X043544Y013043D01*
X043544Y012945D02*
X043544Y012945D01*
X043544Y012846D02*
X043544Y012846D01*
X043544Y012748D02*
X043544Y012748D01*
X043544Y012649D02*
X043544Y012649D01*
X043544Y012551D02*
X043544Y012551D01*
X043544Y012452D02*
X043544Y012452D01*
X043347Y012723D02*
X043347Y013352D01*
X043187Y013215D02*
X043187Y013030D01*
X042917Y013030D01*
X042907Y013040D01*
X042873Y013060D01*
X042835Y013070D01*
X042756Y013070D01*
X042719Y013070D01*
X042719Y013228D01*
X042812Y013321D01*
X043082Y013321D01*
X043137Y013265D01*
X043137Y013265D01*
X043187Y013215D01*
X043162Y013240D02*
X042732Y013240D01*
X042719Y013142D02*
X043187Y013142D01*
X043187Y013043D02*
X042903Y013043D01*
X042756Y013043D02*
X042756Y013043D01*
X042756Y013070D02*
X042756Y012723D01*
X042756Y012723D01*
X042756Y013070D01*
X042756Y012945D02*
X042756Y012945D01*
X042756Y012846D02*
X042756Y012846D01*
X042756Y012748D02*
X042756Y012748D01*
X042756Y012649D02*
X042756Y012649D01*
X042756Y012551D02*
X042756Y012551D01*
X042756Y012452D02*
X042756Y012452D01*
X042990Y012354D02*
X041803Y012354D01*
X041705Y012452D02*
X042419Y012452D01*
X042390Y012551D02*
X041618Y012551D01*
X041605Y012649D02*
X042390Y012649D01*
X042390Y012748D02*
X041544Y012748D01*
X041363Y012568D02*
X042525Y011406D01*
X043150Y011406D01*
X042790Y011566D02*
X042591Y011566D01*
X042493Y011664D02*
X042790Y011664D01*
X042832Y011763D02*
X042394Y011763D01*
X042296Y011861D02*
X042790Y011861D01*
X042790Y011960D02*
X042197Y011960D01*
X042099Y012058D02*
X042790Y012058D01*
X042800Y012157D02*
X042000Y012157D01*
X041902Y012255D02*
X042990Y012255D01*
X043150Y011976D02*
X043150Y012723D01*
X043507Y013142D02*
X043864Y013142D01*
X043864Y013240D02*
X043532Y013240D01*
X044137Y013084D02*
X044190Y013031D01*
X044389Y013339D02*
X044542Y013339D01*
X044811Y013339D02*
X044908Y013339D01*
X044908Y013377D02*
X044908Y013079D01*
X045226Y013079D01*
X045226Y013247D01*
X045216Y013285D01*
X045196Y013319D01*
X045168Y013347D01*
X045134Y013367D01*
X045096Y013377D01*
X044908Y013377D01*
X044908Y013240D02*
X044811Y013240D01*
X044811Y013142D02*
X044908Y013142D01*
X044908Y013043D02*
X052740Y013043D01*
X052740Y012945D02*
X045226Y012945D01*
X045226Y012846D02*
X052740Y012846D01*
X052740Y012748D02*
X045200Y012748D01*
X044908Y012748D02*
X044811Y012748D01*
X044811Y012846D02*
X044908Y012846D01*
X044908Y012945D02*
X044811Y012945D01*
X044520Y012748D02*
X044476Y012748D01*
X044290Y013437D02*
X052740Y013437D01*
X052740Y013339D02*
X045177Y013339D01*
X045226Y013240D02*
X052740Y013240D01*
X052740Y013142D02*
X045226Y013142D01*
X045187Y013733D02*
X052598Y013733D01*
X052499Y013831D02*
X045226Y013831D01*
X045226Y013930D02*
X052401Y013930D01*
X052302Y014028D02*
X044908Y014028D01*
X044908Y014079D02*
X045226Y014079D01*
X045226Y014247D01*
X045216Y014285D01*
X045196Y014319D01*
X045168Y014347D01*
X045134Y014367D01*
X045096Y014377D01*
X044908Y014377D01*
X044908Y014079D01*
X044908Y014127D02*
X044811Y014127D01*
X044811Y014225D02*
X044908Y014225D01*
X044908Y014324D02*
X044811Y014324D01*
X044687Y014521D02*
X051810Y014521D01*
X051711Y014619D02*
X044786Y014619D01*
X044884Y014718D02*
X051613Y014718D01*
X051514Y014816D02*
X044983Y014816D01*
X045081Y014915D02*
X051416Y014915D01*
X051317Y015013D02*
X045180Y015013D01*
X045278Y015112D02*
X051219Y015112D01*
X051120Y015210D02*
X045377Y015210D01*
X045475Y015309D02*
X051022Y015309D01*
X050923Y015407D02*
X045574Y015407D01*
X045672Y015506D02*
X050825Y015506D01*
X050726Y015604D02*
X045771Y015604D01*
X045869Y015703D02*
X050628Y015703D01*
X050529Y015801D02*
X045968Y015801D01*
X046066Y015900D02*
X050431Y015900D01*
X050332Y015998D02*
X046165Y015998D01*
X046263Y016097D02*
X050234Y016097D01*
X050135Y016195D02*
X046362Y016195D01*
X046460Y016294D02*
X050037Y016294D01*
X050588Y016195D02*
X051790Y016195D01*
X051790Y016097D02*
X050686Y016097D01*
X050785Y015998D02*
X051790Y015998D01*
X051790Y015900D02*
X050883Y015900D01*
X050982Y015801D02*
X051790Y015801D01*
X051790Y015703D02*
X051080Y015703D01*
X051179Y015604D02*
X051790Y015604D01*
X051790Y015506D02*
X051277Y015506D01*
X051376Y015407D02*
X051790Y015407D01*
X051801Y015309D02*
X051474Y015309D01*
X051573Y015210D02*
X051841Y015210D01*
X051935Y015112D02*
X051671Y015112D01*
X051770Y015013D02*
X052033Y015013D01*
X052132Y014915D02*
X051868Y014915D01*
X051967Y014816D02*
X052230Y014816D01*
X052329Y014718D02*
X052065Y014718D01*
X052164Y014619D02*
X052427Y014619D01*
X052526Y014521D02*
X052262Y014521D01*
X052361Y014422D02*
X052624Y014422D01*
X052723Y014324D02*
X052459Y014324D01*
X052558Y014225D02*
X052821Y014225D01*
X052920Y014127D02*
X052656Y014127D01*
X052755Y014028D02*
X053018Y014028D01*
X053117Y013930D02*
X052853Y013930D01*
X052952Y013831D02*
X053215Y013831D01*
X053163Y013733D02*
X053050Y013733D01*
X053060Y013634D02*
X053120Y013634D01*
X053094Y013536D02*
X053060Y013536D01*
X053060Y013437D02*
X053067Y013437D01*
X052740Y013536D02*
X044202Y013536D01*
X044301Y013634D02*
X052696Y013634D01*
X052204Y014127D02*
X045226Y014127D01*
X045226Y014225D02*
X052105Y014225D01*
X052007Y014324D02*
X045192Y014324D01*
X044908Y013930D02*
X044811Y013930D01*
X044811Y013831D02*
X044908Y013831D01*
X044908Y013733D02*
X044811Y013733D01*
X044532Y013733D02*
X044461Y013733D01*
X044190Y014031D02*
X044140Y013981D01*
X043450Y013981D01*
X043350Y014081D01*
X043350Y014334D01*
X043347Y014338D01*
X043544Y014338D02*
X043753Y014338D01*
X043544Y014338D01*
X043544Y014338D01*
X043753Y014324D02*
X043914Y014324D01*
X043864Y014225D02*
X043753Y014225D01*
X043753Y014422D02*
X043995Y014422D01*
X044093Y014521D02*
X043753Y014521D01*
X043915Y014619D02*
X044192Y014619D01*
X044290Y014718D02*
X044013Y014718D01*
X044112Y014816D02*
X044389Y014816D01*
X044487Y014915D02*
X044210Y014915D01*
X044309Y015013D02*
X044586Y015013D01*
X044684Y015112D02*
X044407Y015112D01*
X044506Y015210D02*
X044783Y015210D01*
X044881Y015309D02*
X044604Y015309D01*
X044703Y015407D02*
X044980Y015407D01*
X045078Y015506D02*
X044770Y015506D01*
X044770Y015604D02*
X045177Y015604D01*
X045275Y015703D02*
X044770Y015703D01*
X044770Y015801D02*
X045374Y015801D01*
X045472Y015900D02*
X044770Y015900D01*
X044770Y015998D02*
X045571Y015998D01*
X045669Y016097D02*
X044770Y016097D01*
X044770Y016195D02*
X045768Y016195D01*
X045866Y016294D02*
X044770Y016294D01*
X044915Y016392D02*
X045965Y016392D01*
X046063Y016491D02*
X045346Y016491D01*
X045398Y016589D02*
X046065Y016589D01*
X046065Y016688D02*
X045405Y016688D01*
X045372Y016786D02*
X046065Y016786D01*
X046485Y016786D02*
X049410Y016786D01*
X049410Y016688D02*
X046485Y016688D01*
X046485Y016589D02*
X049410Y016589D01*
X049410Y016491D02*
X046485Y016491D01*
X046485Y016392D02*
X049458Y016392D01*
X049375Y016885D02*
X046485Y016885D01*
X046485Y016983D02*
X049276Y016983D01*
X049178Y017082D02*
X046485Y017082D01*
X046485Y017180D02*
X049079Y017180D01*
X048981Y017279D02*
X046485Y017279D01*
X046485Y017377D02*
X048882Y017377D01*
X048784Y017476D02*
X046485Y017476D01*
X046485Y017574D02*
X048685Y017574D01*
X049260Y017870D02*
X050000Y017870D01*
X050000Y017968D02*
X049260Y017968D01*
X049260Y018067D02*
X050000Y018067D01*
X050030Y018165D02*
X049260Y018165D01*
X046790Y017771D02*
X046485Y017771D01*
X046485Y017673D02*
X046790Y017673D01*
X045037Y016885D02*
X044936Y016885D01*
X044936Y016491D02*
X044954Y016491D01*
X044450Y016294D02*
X043618Y016294D01*
X043618Y016195D02*
X044450Y016195D01*
X044450Y016097D02*
X043618Y016097D01*
X043618Y015998D02*
X044450Y015998D01*
X044450Y015900D02*
X043618Y015900D01*
X043816Y015801D02*
X044450Y015801D01*
X044450Y015703D02*
X043844Y015703D01*
X043844Y015604D02*
X044447Y015604D01*
X044349Y015506D02*
X043844Y015506D01*
X043844Y015407D02*
X044250Y015407D01*
X044152Y015309D02*
X043844Y015309D01*
X043955Y015112D02*
X042978Y015112D01*
X042978Y015210D02*
X044053Y015210D01*
X043856Y015013D02*
X042978Y015013D01*
X042978Y014915D02*
X043758Y014915D01*
X043184Y014816D02*
X042941Y014816D01*
X043039Y014718D02*
X043086Y014718D01*
X042756Y014324D02*
X042756Y014324D01*
X042756Y014225D02*
X042756Y014225D01*
X042756Y014127D02*
X042756Y014127D01*
X042756Y014028D02*
X042756Y014028D01*
X042598Y014028D02*
X040574Y014028D01*
X040476Y014127D02*
X042050Y014127D01*
X041972Y014225D02*
X040377Y014225D01*
X040279Y014324D02*
X041947Y014324D01*
X041961Y014422D02*
X040180Y014422D01*
X040082Y014521D02*
X042022Y014521D01*
X042135Y014619D02*
X039983Y014619D01*
X039885Y014718D02*
X042037Y014718D01*
X041938Y014816D02*
X039786Y014816D01*
X039688Y014915D02*
X041840Y014915D01*
X041741Y015013D02*
X039666Y015013D01*
X039666Y015112D02*
X041643Y015112D01*
X041544Y015210D02*
X039624Y015210D01*
X039400Y014906D02*
X039360Y014906D01*
X039053Y014915D02*
X038997Y014915D01*
X038997Y015013D02*
X039053Y015013D01*
X039053Y015112D02*
X038997Y015112D01*
X038955Y015210D02*
X039095Y015210D01*
X038850Y015309D02*
X041446Y015309D01*
X041347Y015407D02*
X038850Y015407D01*
X038530Y015407D02*
X037837Y015407D01*
X037815Y015386D02*
X038120Y015690D01*
X038120Y015856D01*
X037650Y015856D01*
X037650Y015386D01*
X037815Y015386D01*
X037876Y015309D02*
X038530Y015309D01*
X038426Y015210D02*
X037974Y015210D01*
X038073Y015112D02*
X038384Y015112D01*
X038690Y014906D02*
X037600Y014906D01*
X037273Y014554D02*
X037401Y014426D01*
X037799Y014426D01*
X037992Y014619D02*
X038408Y014619D01*
X038384Y014718D02*
X038080Y014718D01*
X038690Y014906D02*
X038690Y015906D01*
X038364Y015801D02*
X038120Y015801D01*
X038120Y015703D02*
X038364Y015703D01*
X038423Y015604D02*
X038034Y015604D01*
X037935Y015506D02*
X038530Y015506D01*
X039275Y015990D02*
X039360Y015906D01*
X039275Y015990D02*
X039275Y016656D01*
X041096Y016491D02*
X041114Y016491D01*
X041600Y016294D02*
X042432Y016294D01*
X042254Y016195D02*
X041600Y016195D01*
X041600Y016097D02*
X042206Y016097D01*
X042206Y015998D02*
X041600Y015998D01*
X041600Y015900D02*
X042206Y015900D01*
X042206Y015801D02*
X041600Y015801D01*
X041600Y015703D02*
X042206Y015703D01*
X042264Y015604D02*
X041603Y015604D01*
X041701Y015506D02*
X042432Y015506D01*
X042214Y015407D02*
X041800Y015407D01*
X041898Y015309D02*
X042206Y015309D01*
X042206Y015210D02*
X041997Y015210D01*
X042095Y015112D02*
X042206Y015112D01*
X042194Y015013D02*
X042206Y015013D01*
X042592Y015156D02*
X042592Y015905D01*
X042592Y016557D01*
X042690Y016656D01*
X042110Y016656D01*
X042110Y017361D01*
X042025Y017446D01*
X042352Y017476D02*
X042977Y017476D01*
X042977Y017397D02*
X042678Y017397D01*
X042678Y017210D01*
X042688Y017171D01*
X042708Y017137D01*
X042736Y017109D01*
X042770Y017090D01*
X042808Y017079D01*
X042977Y017079D01*
X042977Y017397D01*
X042977Y017377D02*
X043073Y017377D01*
X043073Y017279D02*
X042977Y017279D01*
X042977Y017180D02*
X043073Y017180D01*
X043073Y017082D02*
X042977Y017082D01*
X042800Y017082D02*
X042270Y017082D01*
X042270Y016983D02*
X043780Y016983D01*
X043780Y017082D02*
X043250Y017082D01*
X043364Y017180D02*
X043722Y017180D01*
X043698Y017279D02*
X043372Y017279D01*
X043372Y017377D02*
X043698Y017377D01*
X043698Y017476D02*
X043073Y017476D01*
X043372Y017574D02*
X043698Y017574D01*
X043698Y017673D02*
X043372Y017673D01*
X043025Y018115D02*
X043025Y018806D01*
X043285Y018855D02*
X043365Y018855D01*
X043365Y018953D02*
X043285Y018953D01*
X043285Y019052D02*
X043365Y019052D01*
X043365Y018756D02*
X043285Y018756D01*
X043285Y018658D02*
X043365Y018658D01*
X043365Y018559D02*
X043285Y018559D01*
X042865Y018461D02*
X042306Y018461D01*
X041703Y018362D02*
X000350Y018362D01*
X000350Y018264D02*
X041698Y018264D01*
X041698Y018165D02*
X000350Y018165D01*
X000350Y018067D02*
X041698Y018067D01*
X041698Y017968D02*
X000350Y017968D01*
X000350Y017870D02*
X041702Y017870D01*
X042352Y017673D02*
X042678Y017673D01*
X042678Y017574D02*
X042352Y017574D01*
X042352Y017377D02*
X042678Y017377D01*
X042678Y017279D02*
X042352Y017279D01*
X042328Y017180D02*
X042686Y017180D01*
X042997Y016885D02*
X043053Y016885D01*
X043053Y016786D02*
X042997Y016786D01*
X042997Y016688D02*
X043053Y016688D01*
X043053Y016589D02*
X042997Y016589D01*
X042997Y016491D02*
X043053Y016491D01*
X043054Y016392D02*
X042996Y016392D01*
X042929Y016195D02*
X043298Y016195D01*
X043298Y016097D02*
X042978Y016097D01*
X042978Y015998D02*
X043298Y015998D01*
X043298Y015900D02*
X042978Y015900D01*
X042978Y015801D02*
X043101Y015801D01*
X043072Y015703D02*
X042978Y015703D01*
X042919Y015604D02*
X043072Y015604D01*
X043072Y015506D02*
X042752Y015506D01*
X042969Y015407D02*
X043072Y015407D01*
X043072Y015309D02*
X042978Y015309D01*
X043458Y015531D02*
X043458Y016557D01*
X043360Y016656D01*
X043940Y016656D01*
X043940Y017361D01*
X044025Y017446D01*
X044267Y016885D02*
X044283Y016885D01*
X044283Y016786D02*
X044267Y016786D01*
X044267Y016688D02*
X044283Y016688D01*
X044283Y016589D02*
X044267Y016589D01*
X044267Y016491D02*
X044283Y016491D01*
X044304Y016392D02*
X044246Y016392D01*
X043298Y016294D02*
X042752Y016294D01*
X041804Y016392D02*
X041746Y016392D01*
X041767Y016491D02*
X041783Y016491D01*
X041783Y016589D02*
X041767Y016589D01*
X041767Y016688D02*
X041783Y016688D01*
X041783Y016786D02*
X041767Y016786D01*
X041767Y016885D02*
X041783Y016885D01*
X044025Y018115D02*
X044025Y018406D01*
X042450Y019643D02*
X042400Y019643D01*
X042400Y019741D02*
X042450Y019741D01*
X042450Y019840D02*
X042400Y019840D01*
X042400Y019938D02*
X042450Y019938D01*
X042450Y020037D02*
X042400Y020037D01*
X042400Y020135D02*
X042450Y020135D01*
X042450Y020234D02*
X042400Y020234D01*
X042400Y020332D02*
X042450Y020332D01*
X043610Y020006D02*
X043625Y020006D01*
X045597Y024272D02*
X049073Y024272D01*
X049073Y024371D02*
X045638Y024371D01*
X049152Y025750D02*
X049188Y025750D01*
X049188Y025848D02*
X049144Y025848D01*
X049085Y025947D02*
X049272Y025947D01*
X052006Y024469D02*
X052360Y024469D01*
X052410Y024371D02*
X052105Y024371D01*
X052203Y024272D02*
X052476Y024272D01*
X052561Y024174D02*
X052265Y024174D01*
X052305Y024075D02*
X052673Y024075D01*
X052834Y023977D02*
X052346Y023977D01*
X052385Y023878D02*
X053183Y023878D01*
X053225Y023878D02*
X053325Y023878D01*
X053367Y023878D02*
X060950Y023878D01*
X060950Y023780D02*
X052385Y023780D01*
X052385Y023681D02*
X060950Y023681D01*
X060950Y023583D02*
X052385Y023583D01*
X053225Y023977D02*
X053325Y023977D01*
X053325Y024075D02*
X053225Y024075D01*
X053225Y024174D02*
X053325Y024174D01*
X053325Y024272D02*
X053225Y024272D01*
X053225Y024371D02*
X053325Y024371D01*
X053325Y024469D02*
X053225Y024469D01*
X053225Y024568D02*
X053325Y024568D01*
X053325Y024666D02*
X053225Y024666D01*
X053225Y024765D02*
X053325Y024765D01*
X053989Y024174D02*
X060950Y024174D01*
X060950Y024272D02*
X054074Y024272D01*
X054140Y024371D02*
X060950Y024371D01*
X060950Y024469D02*
X054190Y024469D01*
X054227Y024568D02*
X060950Y024568D01*
X060950Y024666D02*
X054253Y024666D01*
X053877Y024075D02*
X060950Y024075D01*
X060950Y023977D02*
X053716Y023977D01*
X060950Y026144D02*
X000350Y026144D01*
X000350Y026242D02*
X060950Y026242D01*
X060950Y026341D02*
X000350Y026341D01*
X000350Y026439D02*
X060950Y026439D01*
X060950Y026538D02*
X000350Y026538D01*
X000350Y023484D02*
X022848Y023484D01*
X022814Y023386D02*
X000350Y023386D01*
X000350Y020332D02*
X024594Y020332D01*
X024617Y020234D02*
X000350Y020234D01*
X000350Y013437D02*
X006428Y013437D01*
X006229Y013339D02*
X000350Y013339D01*
X000350Y013240D02*
X006061Y013240D01*
X005963Y013142D02*
X000350Y013142D01*
X000350Y013043D02*
X005864Y013043D01*
X005785Y012945D02*
X000350Y012945D01*
X000350Y012846D02*
X005728Y012846D01*
X005671Y012748D02*
X000350Y012748D01*
X000350Y012649D02*
X005624Y012649D01*
X005598Y012551D02*
X000350Y012551D01*
X000350Y012452D02*
X005571Y012452D01*
X005545Y012354D02*
X000350Y012354D01*
X000350Y012255D02*
X005540Y012255D01*
X005540Y012157D02*
X000350Y012157D01*
X000350Y012058D02*
X005540Y012058D01*
X005545Y011960D02*
X000350Y011960D01*
X000350Y011861D02*
X005571Y011861D01*
X005597Y011763D02*
X000350Y011763D01*
X000350Y011664D02*
X005624Y011664D01*
X005670Y011566D02*
X000350Y011566D01*
X000350Y011467D02*
X005727Y011467D01*
X005784Y011369D02*
X000350Y011369D01*
X000350Y011270D02*
X005862Y011270D01*
X005961Y011172D02*
X000350Y011172D01*
X000350Y011073D02*
X006059Y011073D01*
X006226Y010975D02*
X000350Y010975D01*
X000350Y010876D02*
X006420Y010876D01*
X007380Y010876D02*
X007953Y010876D01*
X007855Y010975D02*
X007574Y010975D01*
X007741Y011073D02*
X007756Y011073D01*
X008052Y010778D02*
X000350Y010778D01*
X000350Y010679D02*
X008150Y010679D01*
X008249Y010581D02*
X000350Y010581D01*
X000350Y010482D02*
X008347Y010482D01*
X008446Y010384D02*
X000350Y010384D01*
X000350Y010285D02*
X008544Y010285D01*
X008643Y010187D02*
X000350Y010187D01*
X000350Y010088D02*
X008741Y010088D01*
X008840Y009990D02*
X000350Y009990D01*
X000350Y009891D02*
X008938Y009891D01*
X009037Y009793D02*
X000350Y009793D01*
X000350Y009694D02*
X009135Y009694D01*
X009234Y009596D02*
X000350Y009596D01*
X006900Y012156D02*
X009150Y009906D01*
X025224Y021120D02*
X025326Y021120D01*
X025303Y021219D02*
X025247Y021219D01*
X025247Y021317D02*
X025303Y021317D01*
X025303Y021416D02*
X025247Y021416D01*
X025247Y021514D02*
X025303Y021514D01*
X025303Y021613D02*
X025247Y021613D01*
X025204Y021711D02*
X025346Y021711D01*
X024940Y021406D02*
X024378Y021406D01*
X023283Y022501D01*
X024299Y021711D02*
X024677Y021711D01*
X024634Y021613D02*
X024397Y021613D01*
X024661Y022302D02*
X025632Y022302D01*
X025786Y023113D02*
X025786Y023113D01*
X027737Y025750D02*
X027813Y025750D01*
X027813Y025848D02*
X027737Y025848D01*
X027653Y025947D02*
X027897Y025947D01*
X028120Y025656D02*
X029315Y025656D01*
X030485Y025156D02*
X030525Y025156D01*
X030027Y022302D02*
X029944Y022302D01*
X029944Y022204D02*
X030484Y022204D01*
X030498Y022105D02*
X029944Y022105D01*
X029852Y022007D02*
X030400Y022007D01*
X030301Y021908D02*
X029754Y021908D01*
X029655Y021810D02*
X030203Y021810D01*
X036600Y015806D02*
X037113Y015293D01*
X037113Y013471D01*
X036798Y013471D02*
X036798Y013708D01*
X035600Y014906D01*
X035306Y014521D02*
X035261Y014521D01*
X035208Y014619D02*
X035185Y014619D01*
X035360Y014422D02*
X035857Y014422D01*
X035956Y014324D02*
X035458Y014324D01*
X035557Y014225D02*
X036054Y014225D01*
X036153Y014127D02*
X035655Y014127D01*
X035754Y014028D02*
X036251Y014028D01*
X036350Y013930D02*
X035852Y013930D01*
X035951Y013831D02*
X036448Y013831D01*
X036547Y013733D02*
X036049Y013733D01*
X036148Y013634D02*
X036578Y013634D01*
X036578Y013536D02*
X036246Y013536D01*
X036345Y013437D02*
X036578Y013437D01*
X036578Y013339D02*
X036370Y013339D01*
X036370Y013240D02*
X036578Y013240D01*
X036611Y013142D02*
X036370Y013142D01*
X036565Y013043D02*
X039235Y013043D01*
X039230Y012945D02*
X036570Y012945D01*
X036570Y012846D02*
X039230Y012846D01*
X039230Y012748D02*
X038901Y012748D01*
X038953Y012649D02*
X039230Y012649D01*
X039230Y012551D02*
X038960Y012551D01*
X039275Y012253D02*
X039590Y012253D01*
X039590Y012568D02*
X041363Y012568D01*
X041182Y012748D02*
X039950Y012748D01*
X039950Y012846D02*
X042390Y012846D01*
X042390Y012945D02*
X039950Y012945D01*
X039945Y013043D02*
X042399Y013043D01*
X042399Y013142D02*
X039189Y013142D01*
X039222Y013240D02*
X042399Y013240D01*
X042559Y013365D02*
X042559Y012723D01*
X041449Y012255D02*
X039950Y012255D01*
X039950Y012157D02*
X041548Y012157D01*
X041646Y012058D02*
X039990Y012058D01*
X039990Y011960D02*
X040701Y011960D01*
X040936Y011960D02*
X041033Y011960D01*
X041033Y011861D02*
X040936Y011861D01*
X040936Y011763D02*
X041033Y011763D01*
X041033Y011664D02*
X042040Y011664D01*
X041942Y011763D02*
X041351Y011763D01*
X041347Y011861D02*
X041843Y011861D01*
X041745Y011960D02*
X041268Y011960D01*
X041351Y011580D02*
X041033Y011580D01*
X041033Y011281D01*
X041221Y011281D01*
X041259Y011291D01*
X041293Y011311D01*
X041321Y011339D01*
X041341Y011373D01*
X041351Y011411D01*
X041351Y011580D01*
X041351Y011566D02*
X042139Y011566D01*
X042237Y011467D02*
X041351Y011467D01*
X041338Y011369D02*
X042336Y011369D01*
X042434Y011270D02*
X040475Y011270D01*
X040475Y011172D02*
X042790Y011172D01*
X042827Y011073D02*
X040475Y011073D01*
X040475Y010975D02*
X042790Y010975D01*
X042790Y010876D02*
X040475Y010876D01*
X040475Y010778D02*
X042790Y010778D01*
X042790Y010679D02*
X040475Y010679D01*
X040475Y010581D02*
X042990Y010581D01*
X042990Y010482D02*
X042752Y010482D01*
X042811Y010384D02*
X042912Y010384D01*
X043150Y010194D02*
X043150Y010835D01*
X043150Y010836D01*
X043310Y010581D02*
X044304Y010581D01*
X044205Y010679D02*
X043510Y010679D01*
X043510Y010778D02*
X044107Y010778D01*
X044008Y010876D02*
X043510Y010876D01*
X043510Y010975D02*
X043910Y010975D01*
X043507Y011073D02*
X043473Y011073D01*
X043614Y010511D02*
X043580Y010491D01*
X043552Y010463D01*
X043532Y010429D01*
X043522Y010391D01*
X043522Y010208D01*
X043786Y010208D01*
X043786Y010521D01*
X043652Y010521D01*
X043614Y010511D01*
X043571Y010482D02*
X043310Y010482D01*
X043388Y010384D02*
X043522Y010384D01*
X043522Y010285D02*
X043388Y010285D01*
X043388Y010187D02*
X043786Y010187D01*
X043786Y010180D02*
X043522Y010180D01*
X043522Y009997D01*
X043532Y009959D01*
X043552Y009925D01*
X043580Y009897D01*
X043614Y009877D01*
X043652Y009867D01*
X043786Y009867D01*
X043786Y010180D01*
X043814Y010180D01*
X043814Y010208D01*
X044078Y010208D01*
X044078Y010391D01*
X044068Y010429D01*
X044048Y010463D01*
X044020Y010491D01*
X043986Y010511D01*
X043948Y010521D01*
X043814Y010521D01*
X043814Y010208D01*
X043786Y010208D01*
X043786Y010180D01*
X043814Y010180D02*
X043814Y009867D01*
X043948Y009867D01*
X043986Y009877D01*
X044020Y009897D01*
X044048Y009925D01*
X044068Y009959D01*
X044078Y009997D01*
X044078Y010180D01*
X043814Y010180D01*
X043814Y010187D02*
X044698Y010187D01*
X044599Y010285D02*
X044078Y010285D01*
X044078Y010384D02*
X044501Y010384D01*
X044402Y010482D02*
X044029Y010482D01*
X043814Y010482D02*
X043786Y010482D01*
X043786Y010384D02*
X043814Y010384D01*
X043814Y010285D02*
X043786Y010285D01*
X043786Y010088D02*
X043814Y010088D01*
X043814Y009990D02*
X043786Y009990D01*
X043786Y009891D02*
X043814Y009891D01*
X044010Y009891D02*
X044993Y009891D01*
X044895Y009990D02*
X044076Y009990D01*
X044078Y010088D02*
X044796Y010088D01*
X045052Y010285D02*
X052740Y010285D01*
X052740Y010384D02*
X044953Y010384D01*
X044855Y010482D02*
X052740Y010482D01*
X052740Y010581D02*
X044756Y010581D01*
X044658Y010679D02*
X052740Y010679D01*
X052740Y010778D02*
X044559Y010778D01*
X044461Y010876D02*
X052740Y010876D01*
X052740Y010975D02*
X044362Y010975D01*
X043940Y011566D02*
X045044Y011566D01*
X045107Y011664D02*
X043940Y011664D01*
X043879Y011763D02*
X045243Y011763D01*
X045693Y011664D02*
X051164Y011664D01*
X051202Y011702D02*
X051103Y011604D01*
X051050Y011475D01*
X051050Y011336D01*
X051103Y011207D01*
X051202Y011109D01*
X051330Y011056D01*
X051470Y011056D01*
X051598Y011109D01*
X051697Y011207D01*
X051750Y011336D01*
X051750Y011475D01*
X051697Y011604D01*
X051598Y011702D01*
X051470Y011756D01*
X051330Y011756D01*
X051202Y011702D01*
X051087Y011566D02*
X045756Y011566D01*
X045785Y011467D02*
X051050Y011467D01*
X051050Y011369D02*
X045790Y011369D01*
X045766Y011270D02*
X051077Y011270D01*
X051139Y011172D02*
X045713Y011172D01*
X045604Y011073D02*
X051288Y011073D01*
X051512Y011073D02*
X052740Y011073D01*
X052740Y011172D02*
X051661Y011172D01*
X051723Y011270D02*
X052740Y011270D01*
X052740Y011369D02*
X051750Y011369D01*
X051750Y011467D02*
X052740Y011467D01*
X052740Y011566D02*
X051713Y011566D01*
X051636Y011664D02*
X052740Y011664D01*
X053060Y011861D02*
X053976Y011861D01*
X053752Y011960D02*
X053060Y011960D01*
X053060Y012058D02*
X053581Y012058D01*
X053476Y012157D02*
X053060Y012157D01*
X053060Y012255D02*
X053377Y012255D01*
X053293Y012354D02*
X053060Y012354D01*
X053060Y012452D02*
X053236Y012452D01*
X053179Y012551D02*
X053060Y012551D01*
X053060Y012649D02*
X053128Y012649D01*
X053101Y012748D02*
X053060Y012748D01*
X053060Y012846D02*
X053075Y012846D01*
X051908Y014422D02*
X044589Y014422D01*
X044527Y014324D02*
X044490Y014324D01*
X043430Y013733D02*
X043264Y013733D01*
X043373Y013831D02*
X040771Y013831D01*
X040673Y013930D02*
X043275Y013930D01*
X043190Y014028D02*
X042915Y014028D01*
X042630Y013733D02*
X042520Y013733D01*
X042575Y013381D02*
X042559Y013365D01*
X042390Y014127D02*
X042364Y014127D01*
X042207Y014338D02*
X042559Y014338D01*
X040670Y013339D02*
X039222Y013339D01*
X039222Y013437D02*
X040571Y013437D01*
X040473Y013536D02*
X039222Y013536D01*
X039222Y013634D02*
X040374Y013634D01*
X040276Y013733D02*
X039222Y013733D01*
X039540Y014028D02*
X039980Y014028D01*
X039882Y014127D02*
X039599Y014127D01*
X039610Y014225D02*
X039783Y014225D01*
X039685Y014324D02*
X039583Y014324D01*
X039570Y014422D02*
X039586Y014422D01*
X039077Y014619D02*
X038973Y014619D01*
X038997Y014718D02*
X039053Y014718D01*
X039053Y014816D02*
X038997Y014816D01*
X037650Y015407D02*
X037550Y015407D01*
X037550Y015506D02*
X037650Y015506D01*
X037650Y015604D02*
X037550Y015604D01*
X037550Y015703D02*
X037650Y015703D01*
X037650Y015801D02*
X037550Y015801D01*
X037265Y015506D02*
X037126Y015506D01*
X037166Y015604D02*
X037077Y015604D01*
X037080Y015703D02*
X037080Y015703D01*
X037080Y015801D02*
X037080Y015801D01*
X037225Y015407D02*
X037363Y015407D01*
X037324Y015309D02*
X037273Y015309D01*
X037273Y014554D02*
X037273Y013831D01*
X037273Y014521D02*
X037306Y014521D01*
X036570Y012748D02*
X038499Y012748D01*
X039950Y012354D02*
X041216Y012354D01*
X041033Y011566D02*
X040936Y011566D01*
X040936Y011467D02*
X041033Y011467D01*
X041033Y011369D02*
X040936Y011369D01*
X040631Y011369D02*
X040625Y011369D01*
X040315Y011628D02*
X040315Y009615D01*
X041150Y008781D01*
X042275Y008781D01*
X042525Y009031D01*
X042525Y009315D01*
X042485Y009356D01*
X042496Y009367D01*
X043150Y009367D01*
X043388Y009399D02*
X043562Y009399D01*
X043562Y009497D02*
X043388Y009497D01*
X043382Y009596D02*
X043568Y009596D01*
X043562Y009590D02*
X043562Y009144D01*
X043626Y009080D01*
X043973Y009080D01*
X044038Y009144D01*
X044038Y009590D01*
X043973Y009654D01*
X043626Y009654D01*
X043562Y009590D01*
X043562Y009300D02*
X043388Y009300D01*
X043388Y009202D02*
X043562Y009202D01*
X043603Y009103D02*
X043347Y009103D01*
X042954Y009103D02*
X042801Y009103D01*
X042811Y009202D02*
X042912Y009202D01*
X042685Y009005D02*
X045240Y009005D01*
X045240Y009103D02*
X043996Y009103D01*
X044038Y009202D02*
X045240Y009202D01*
X045240Y009300D02*
X044038Y009300D01*
X044038Y009399D02*
X045240Y009399D01*
X045240Y009497D02*
X044038Y009497D01*
X044032Y009596D02*
X045240Y009596D01*
X045190Y009694D02*
X042083Y009694D01*
X042151Y009891D02*
X042205Y009891D01*
X041864Y009891D02*
X041767Y009891D01*
X041767Y009834D02*
X041767Y010132D01*
X041449Y010132D01*
X041449Y009964D01*
X041459Y009926D01*
X041479Y009892D01*
X041507Y009864D01*
X041541Y009844D01*
X041579Y009834D01*
X041767Y009834D01*
X041767Y009694D02*
X041864Y009694D01*
X041864Y009596D02*
X041767Y009596D01*
X041767Y009497D02*
X041864Y009497D01*
X041767Y009399D02*
X040758Y009399D01*
X040660Y009497D02*
X041449Y009497D01*
X041455Y009596D02*
X040561Y009596D01*
X040475Y009694D02*
X041548Y009694D01*
X041479Y009891D02*
X040475Y009891D01*
X040475Y009793D02*
X045092Y009793D01*
X045347Y009990D02*
X052614Y009990D01*
X052614Y010088D02*
X045249Y010088D01*
X045150Y010187D02*
X052652Y010187D01*
X052614Y009891D02*
X045446Y009891D01*
X045544Y009793D02*
X052561Y009793D01*
X052462Y009694D02*
X045560Y009694D01*
X045560Y009596D02*
X052364Y009596D01*
X052265Y009497D02*
X045560Y009497D01*
X045560Y009399D02*
X052167Y009399D01*
X052068Y009300D02*
X045560Y009300D01*
X045560Y009202D02*
X051970Y009202D01*
X051871Y009103D02*
X045560Y009103D01*
X045560Y009005D02*
X051773Y009005D01*
X051674Y008906D02*
X045560Y008906D01*
X045560Y008808D02*
X051576Y008808D01*
X051831Y008611D02*
X053075Y008611D01*
X053045Y008512D02*
X051735Y008512D01*
X051930Y008709D02*
X053114Y008709D01*
X053161Y008808D02*
X052028Y008808D01*
X052127Y008906D02*
X053218Y008906D01*
X053286Y009005D02*
X052225Y009005D01*
X052324Y009103D02*
X053368Y009103D01*
X053468Y009202D02*
X052422Y009202D01*
X052521Y009300D02*
X053593Y009300D01*
X053756Y009399D02*
X052619Y009399D01*
X052718Y009497D02*
X054000Y009497D01*
X053658Y009596D02*
X053561Y009596D01*
X053561Y009694D02*
X053658Y009694D01*
X053658Y009793D02*
X053561Y009793D01*
X053658Y009891D02*
X060950Y009891D01*
X054450Y008020D02*
X054350Y008020D01*
X054350Y008118D02*
X051607Y008118D01*
X051193Y008118D02*
X045607Y008118D01*
X045701Y008217D02*
X051099Y008217D01*
X051059Y008315D02*
X045741Y008315D01*
X045750Y008414D02*
X051050Y008414D01*
X051065Y008512D02*
X045735Y008512D01*
X045690Y008611D02*
X051110Y008611D01*
X051218Y008709D02*
X045582Y008709D01*
X045240Y008808D02*
X042528Y008808D01*
X042627Y008906D02*
X045240Y008906D01*
X045218Y008709D02*
X042430Y008709D01*
X042273Y009005D02*
X041152Y009005D01*
X041054Y009103D02*
X041458Y009103D01*
X041459Y009101D02*
X041479Y009067D01*
X041507Y009039D01*
X041541Y009019D01*
X041579Y009009D01*
X041767Y009009D01*
X041767Y009307D01*
X041449Y009307D01*
X041449Y009139D01*
X041459Y009101D01*
X041449Y009202D02*
X040955Y009202D01*
X040857Y009300D02*
X041449Y009300D01*
X041767Y009300D02*
X041864Y009300D01*
X041864Y009202D02*
X041767Y009202D01*
X041767Y009103D02*
X041864Y009103D01*
X040995Y008709D02*
X037935Y008709D01*
X037935Y008611D02*
X045110Y008611D01*
X045065Y008512D02*
X037935Y008512D01*
X037935Y008414D02*
X042961Y008414D01*
X042949Y008315D02*
X037935Y008315D01*
X037935Y008217D02*
X042949Y008217D01*
X042949Y008107D02*
X042949Y007939D01*
X042959Y007901D01*
X042979Y007867D01*
X043007Y007839D01*
X043041Y007819D01*
X043079Y007809D01*
X043267Y007809D01*
X043267Y008107D01*
X042949Y008107D01*
X042949Y008020D02*
X037935Y008020D01*
X037935Y008118D02*
X043267Y008118D01*
X043267Y008020D02*
X043364Y008020D01*
X043364Y007921D02*
X043267Y007921D01*
X043267Y007823D02*
X043364Y007823D01*
X043596Y007823D02*
X053039Y007823D01*
X053019Y007921D02*
X044311Y007921D01*
X043985Y008156D02*
X045150Y008156D01*
X045050Y008414D02*
X044296Y008414D01*
X043674Y008414D02*
X043670Y008414D01*
X043364Y008414D02*
X043267Y008414D01*
X043267Y008315D02*
X043364Y008315D01*
X043364Y008217D02*
X043267Y008217D01*
X042954Y007921D02*
X037935Y007921D01*
X037935Y007823D02*
X043035Y007823D01*
X040897Y008808D02*
X037935Y008808D01*
X037935Y008906D02*
X040798Y008906D01*
X040700Y009005D02*
X037935Y009005D01*
X037935Y009103D02*
X040601Y009103D01*
X040503Y009202D02*
X037935Y009202D01*
X037935Y009300D02*
X040404Y009300D01*
X040306Y009399D02*
X037935Y009399D01*
X037935Y009497D02*
X040207Y009497D01*
X040155Y009596D02*
X037935Y009596D01*
X037935Y009694D02*
X040155Y009694D01*
X040155Y009793D02*
X039220Y009793D01*
X039222Y009891D02*
X040155Y009891D01*
X040155Y009990D02*
X039222Y009990D01*
X039222Y010088D02*
X040155Y010088D01*
X040155Y010187D02*
X039222Y010187D01*
X039222Y010285D02*
X040155Y010285D01*
X040475Y010285D02*
X041449Y010285D01*
X041449Y010384D02*
X040475Y010384D01*
X040475Y010482D02*
X041491Y010482D01*
X041767Y010482D02*
X041864Y010482D01*
X041864Y010384D02*
X041767Y010384D01*
X041767Y010285D02*
X041864Y010285D01*
X041767Y010187D02*
X040475Y010187D01*
X040475Y010088D02*
X041449Y010088D01*
X041449Y009990D02*
X040475Y009990D01*
X041767Y009990D02*
X041864Y009990D01*
X041864Y010088D02*
X041767Y010088D01*
X042139Y010482D02*
X042217Y010482D01*
X042498Y010194D02*
X042485Y010181D01*
X042498Y010194D02*
X043150Y010194D01*
X043388Y010088D02*
X043522Y010088D01*
X043524Y009990D02*
X043388Y009990D01*
X043590Y009891D02*
X042764Y009891D01*
X042811Y009990D02*
X042912Y009990D01*
X042918Y009596D02*
X042811Y009596D01*
X043468Y011763D02*
X043531Y011763D01*
X040315Y011628D02*
X040310Y011623D01*
X034991Y008496D02*
X034991Y008406D01*
X035025Y008406D01*
X035041Y007330D02*
X036598Y007330D01*
X036500Y007232D02*
X035005Y007232D01*
X037058Y006838D02*
X053924Y006838D01*
X053712Y006936D02*
X037157Y006936D01*
X037255Y007035D02*
X053559Y007035D01*
X053443Y007133D02*
X037354Y007133D01*
X037452Y007232D02*
X053347Y007232D01*
X053268Y007330D02*
X037551Y007330D01*
X037649Y007429D02*
X053202Y007429D01*
X053148Y007527D02*
X037748Y007527D01*
X037846Y007626D02*
X053104Y007626D01*
X053068Y007724D02*
X037935Y007724D01*
X052816Y009596D02*
X053294Y009596D01*
X052940Y009906D02*
X052900Y009906D01*
X053228Y010187D02*
X053268Y010187D01*
X053561Y010187D02*
X053658Y010187D01*
X053658Y010088D02*
X053561Y010088D01*
X053561Y009990D02*
X053658Y009990D01*
X054350Y007921D02*
X054450Y007921D01*
X054450Y007823D02*
X054350Y007823D01*
X054350Y007724D02*
X054450Y007724D01*
X054450Y007626D02*
X054350Y007626D01*
X054350Y007527D02*
X054450Y007527D01*
X054450Y007429D02*
X054350Y007429D01*
X054350Y007330D02*
X054450Y007330D01*
X054450Y007232D02*
X054350Y007232D01*
X054350Y007133D02*
X054450Y007133D01*
X054450Y007035D02*
X054350Y007035D01*
X054350Y006936D02*
X054450Y006936D01*
X054450Y006838D02*
X054350Y006838D01*
D42*
X041900Y012906D03*
X042207Y014338D03*
X041900Y015781D03*
X044025Y015781D03*
X043525Y017781D03*
X042525Y017781D03*
X039275Y016656D03*
X039350Y014206D03*
X038700Y012581D03*
X037525Y012056D03*
X037900Y011781D03*
X038050Y010706D03*
X035525Y009031D03*
X030950Y010306D03*
X035475Y013181D03*
X029700Y020031D03*
X029650Y021531D03*
X030650Y022406D03*
D43*
X002025Y024881D03*
X002025Y007531D03*
X059275Y007531D03*
X059275Y024881D03*
M02*
