G75*
%MOIN*%
%OFA0B0*%
%FSLAX24Y24*%
%IPPOS*%
%LPD*%
%AMOC8*
5,1,8,0,0,1.08239X$1,22.5*
%
%ADD10C,0.0744*%
%ADD11C,0.1307*%
%ADD12R,0.0580X0.0300*%
%ADD13R,0.0300X0.0580*%
%ADD14C,0.0560*%
%ADD15R,0.0336X0.0434*%
%ADD16C,0.0552*%
%ADD17C,0.1346*%
%ADD18C,0.1780*%
%ADD19C,0.0740*%
%ADD20C,0.1380*%
%ADD21R,0.0237X0.0552*%
%ADD22R,0.0552X0.0631*%
%ADD23R,0.1261X0.0710*%
%ADD24R,0.2330X0.1980*%
%ADD25R,0.0592X0.0671*%
%ADD26R,0.0789X0.0474*%
%ADD27OC8,0.0820*%
%ADD28R,0.0474X0.0513*%
%ADD29R,0.0513X0.0474*%
%ADD30R,0.0631X0.0474*%
%ADD31R,0.0380X0.0530*%
%ADD32R,0.0157X0.0433*%
%ADD33C,0.0142*%
%ADD34C,0.2580*%
%ADD35C,0.0300*%
%ADD36R,0.0580X0.0330*%
%ADD37R,0.0580X0.0580*%
%ADD38R,0.0330X0.0580*%
%ADD39C,0.2541*%
D10*
X029541Y006660D03*
X030525Y006660D03*
X031509Y006660D03*
D11*
X032651Y007645D03*
X028399Y007645D03*
D12*
X036210Y010678D03*
X036210Y010993D03*
X036210Y011308D03*
X036210Y011623D03*
X036210Y011938D03*
X036210Y012253D03*
X036210Y012568D03*
X036210Y012883D03*
X039590Y012883D03*
X039590Y012568D03*
X039590Y012253D03*
X039590Y011938D03*
X039590Y011623D03*
X039590Y011308D03*
X039590Y010993D03*
X039590Y010678D03*
D13*
X039002Y010091D03*
X038687Y010091D03*
X038372Y010091D03*
X038057Y010091D03*
X037743Y010091D03*
X037428Y010091D03*
X037113Y010091D03*
X036798Y010091D03*
X036798Y013471D03*
X037113Y013471D03*
X037428Y013471D03*
X037743Y013471D03*
X038057Y013471D03*
X038372Y013471D03*
X038687Y013471D03*
X039002Y013471D03*
D14*
X045400Y011406D03*
X045400Y008406D03*
X051400Y008406D03*
X051400Y011406D03*
D15*
X043800Y010194D03*
X043150Y010194D03*
X043150Y009367D03*
X043800Y009367D03*
D16*
X042900Y022294D02*
X042900Y022767D01*
X041900Y022767D02*
X041900Y022294D01*
D17*
X040900Y024531D03*
X044900Y024531D03*
D18*
X051425Y023693D03*
X053275Y022512D03*
X053275Y024874D03*
D19*
X024267Y023281D03*
X024267Y022501D03*
X023283Y022501D03*
X023283Y023281D03*
D20*
X021405Y024351D03*
X026145Y024351D03*
D21*
X028504Y023057D03*
X028760Y023057D03*
X029016Y023057D03*
X029272Y023057D03*
X029528Y023057D03*
X029784Y023057D03*
X030040Y023057D03*
X030296Y023057D03*
X030296Y020754D03*
X030040Y020754D03*
X029784Y020754D03*
X029528Y020754D03*
X029272Y020754D03*
X029016Y020754D03*
X028760Y020754D03*
X028504Y020754D03*
D22*
X033809Y008406D03*
X034991Y008406D03*
D23*
X050741Y017758D03*
X050741Y019553D03*
D24*
X048025Y018656D03*
D25*
X049776Y016781D03*
X050524Y016781D03*
X050524Y020531D03*
X049776Y020531D03*
D26*
X052150Y020604D03*
X052150Y021707D03*
D27*
X037600Y015906D03*
X036600Y015806D03*
X036600Y014806D03*
X037600Y014906D03*
X035600Y014906D03*
X035600Y015906D03*
D28*
X038690Y014906D03*
X039360Y014906D03*
X042690Y016656D03*
X043360Y016656D03*
X043025Y017446D03*
X043025Y018115D03*
X030485Y025156D03*
X029815Y025156D03*
X027610Y022431D03*
X026940Y022431D03*
X026940Y021381D03*
X027610Y021381D03*
X025610Y021406D03*
X024940Y021406D03*
X024940Y020531D03*
X025610Y020531D03*
X028450Y009740D03*
X028450Y009071D03*
X032625Y009071D03*
X032625Y009740D03*
X034065Y007531D03*
X034735Y007531D03*
D29*
X031775Y009071D03*
X030950Y009071D03*
X030950Y009740D03*
X031775Y009740D03*
X030125Y009740D03*
X029300Y009740D03*
X029300Y009071D03*
X030125Y009071D03*
X034815Y012568D03*
X035485Y012568D03*
X040315Y011628D03*
X040985Y011628D03*
X041815Y010181D03*
X042485Y010181D03*
X042485Y009356D03*
X041815Y009356D03*
X043315Y008156D03*
X043985Y008156D03*
X044190Y013031D03*
X044860Y013031D03*
X044860Y014031D03*
X044190Y014031D03*
X043940Y016656D03*
X044610Y016656D03*
X044025Y017446D03*
X044025Y018115D03*
X042025Y018115D03*
X042025Y017446D03*
X042110Y016656D03*
X041440Y016656D03*
X039360Y015906D03*
X038690Y015906D03*
X042940Y020781D03*
X043610Y020781D03*
X049400Y023821D03*
X049400Y024490D03*
X030485Y024281D03*
X029815Y024281D03*
X027610Y023281D03*
X026940Y023281D03*
X026940Y020531D03*
X027610Y020531D03*
X028565Y020031D03*
X029235Y020031D03*
X052940Y009906D03*
X053610Y009906D03*
D30*
X043458Y015531D03*
X042592Y015905D03*
X042592Y015156D03*
D31*
X042425Y018806D03*
X043025Y018806D03*
X043625Y018806D03*
X043625Y020006D03*
X043025Y020006D03*
X042425Y020006D03*
D32*
X042756Y014338D03*
X042953Y014338D03*
X043150Y014338D03*
X043347Y014338D03*
X043544Y014338D03*
X043544Y012723D03*
X043347Y012723D03*
X043150Y012723D03*
X042953Y012723D03*
X042756Y012723D03*
D33*
X048971Y025490D02*
X048971Y025822D01*
X048971Y025490D02*
X048639Y025490D01*
X048639Y025822D01*
X048971Y025822D01*
X048971Y025631D02*
X048639Y025631D01*
X048639Y025772D02*
X048971Y025772D01*
X049661Y025822D02*
X049661Y025490D01*
X049329Y025490D01*
X049329Y025822D01*
X049661Y025822D01*
X049661Y025631D02*
X049329Y025631D01*
X049329Y025772D02*
X049661Y025772D01*
X027954Y025822D02*
X027954Y025490D01*
X027954Y025822D02*
X028286Y025822D01*
X028286Y025490D01*
X027954Y025490D01*
X027954Y025631D02*
X028286Y025631D01*
X028286Y025772D02*
X027954Y025772D01*
X027264Y025822D02*
X027264Y025490D01*
X027264Y025822D02*
X027596Y025822D01*
X027596Y025490D01*
X027264Y025490D01*
X027264Y025631D02*
X027596Y025631D01*
X027596Y025772D02*
X027264Y025772D01*
D34*
X006900Y012156D03*
X006900Y008156D03*
X054400Y008156D03*
X054400Y013156D03*
D35*
X046275Y018656D03*
X045150Y016656D03*
X040900Y016656D03*
X041363Y012568D03*
X026275Y020531D03*
X029528Y023656D03*
X030296Y023656D03*
X029075Y024281D03*
D36*
X043150Y011976D03*
X043150Y010836D03*
D37*
X043150Y011406D03*
D38*
X043705Y011406D03*
D39*
X002025Y007531D03*
X002025Y024881D03*
X059275Y024881D03*
X059275Y007531D03*
M02*
