G75*
%MOIN*%
%OFA0B0*%
%FSLAX24Y24*%
%IPPOS*%
%LPD*%
%AMOC8*
5,1,8,0,0,1.08239X$1,22.5*
%
%ADD10C,0.0664*%
%ADD11C,0.1227*%
%ADD12C,0.0480*%
%ADD13C,0.0472*%
%ADD14C,0.1266*%
%ADD15C,0.1700*%
%ADD16C,0.0660*%
%ADD17C,0.1300*%
%ADD18OC8,0.0740*%
%ADD19C,0.2500*%
%ADD20C,0.0290*%
%ADD21C,0.0300*%
%ADD22C,0.0100*%
%ADD23C,0.0200*%
%ADD24C,0.2461*%
D10*
X029541Y006660D03*
X030525Y006660D03*
X031509Y006660D03*
D11*
X032651Y007645D03*
X028399Y007645D03*
D12*
X045400Y008406D03*
X045400Y011406D03*
X051400Y011406D03*
X051400Y008406D03*
D13*
X042900Y022294D02*
X042900Y022767D01*
X041900Y022767D02*
X041900Y022294D01*
D14*
X040900Y024531D03*
X044900Y024531D03*
D15*
X051425Y023693D03*
X053275Y022512D03*
X053275Y024874D03*
D16*
X024267Y023281D03*
X024267Y022501D03*
X023283Y022501D03*
X023283Y023281D03*
D17*
X021405Y024351D03*
X026145Y024351D03*
D18*
X035600Y015906D03*
X036600Y015806D03*
X037600Y015906D03*
X037600Y014906D03*
X036600Y014806D03*
X035600Y014906D03*
D19*
X054400Y013156D03*
X054400Y008156D03*
X006900Y008156D03*
X006900Y012156D03*
D20*
X026275Y020531D03*
X029528Y023656D03*
X030296Y023656D03*
X029075Y024281D03*
X040900Y016656D03*
X045150Y016656D03*
X046275Y018656D03*
X041363Y012568D03*
D21*
X041900Y012906D03*
X042207Y014338D03*
X041900Y015781D03*
X044025Y015781D03*
X043525Y017781D03*
X042525Y017781D03*
X039275Y016656D03*
X039350Y014206D03*
X038700Y012581D03*
X037525Y012056D03*
X037900Y011781D03*
X038050Y010706D03*
X035525Y009031D03*
X030950Y010306D03*
X035475Y013181D03*
X029700Y020031D03*
X029650Y021531D03*
X030650Y022406D03*
D22*
X000350Y026556D02*
X000350Y005856D01*
X060950Y005856D01*
X060950Y026556D01*
X000350Y026556D01*
X000350Y026538D02*
X060950Y026538D01*
X060950Y026439D02*
X000350Y026439D01*
X000350Y026341D02*
X060950Y026341D01*
X060950Y026242D02*
X000350Y026242D01*
X000350Y026144D02*
X060950Y026144D01*
X060950Y026045D02*
X000350Y026045D01*
X000350Y025947D02*
X060950Y025947D01*
X060950Y025848D02*
X053501Y025848D01*
X053552Y025836D02*
X053443Y025861D01*
X053331Y025874D01*
X053325Y025874D01*
X053325Y024924D01*
X054275Y024924D01*
X054275Y024930D01*
X054262Y025042D01*
X054237Y025151D01*
X054200Y025257D01*
X060950Y025257D01*
X060950Y025159D02*
X054235Y025159D01*
X054258Y025060D02*
X060950Y025060D01*
X060950Y024962D02*
X054271Y024962D01*
X054275Y024824D02*
X053325Y024824D01*
X053325Y023874D01*
X053331Y023874D01*
X053443Y023887D01*
X053552Y023912D01*
X053658Y023949D01*
X053759Y023997D01*
X053855Y024057D01*
X053942Y024127D01*
X054022Y024207D01*
X054092Y024294D01*
X054152Y024390D01*
X054200Y024491D01*
X054237Y024597D01*
X054262Y024706D01*
X054275Y024818D01*
X054275Y024824D01*
X054269Y024765D02*
X060950Y024765D01*
X060950Y024863D02*
X053325Y024863D01*
X053325Y024824D02*
X053325Y024924D01*
X053225Y024924D01*
X053225Y024824D01*
X053325Y024824D01*
X053325Y024765D02*
X053225Y024765D01*
X053225Y024824D02*
X053225Y023874D01*
X053219Y023874D01*
X053107Y023887D01*
X052998Y023912D01*
X052892Y023949D01*
X052791Y023997D01*
X052695Y024057D01*
X052608Y024127D01*
X052528Y024207D01*
X052458Y024294D01*
X052398Y024390D01*
X052350Y024491D01*
X052313Y024597D01*
X052288Y024706D01*
X052275Y024818D01*
X052275Y024824D01*
X053225Y024824D01*
X053225Y024863D02*
X045567Y024863D01*
X045530Y024951D02*
X045321Y025160D01*
X045048Y025274D01*
X044752Y025274D01*
X044479Y025160D01*
X044270Y024951D01*
X044157Y024678D01*
X044157Y024383D01*
X044270Y024110D01*
X044479Y023901D01*
X044752Y023787D01*
X045048Y023787D01*
X045321Y023901D01*
X045530Y024110D01*
X045643Y024383D01*
X045643Y024678D01*
X045530Y024951D01*
X045520Y024962D02*
X052279Y024962D01*
X052275Y024930D02*
X052275Y024924D01*
X053225Y024924D01*
X053225Y025874D01*
X053219Y025874D01*
X053107Y025861D01*
X052998Y025836D01*
X052892Y025799D01*
X052791Y025751D01*
X052695Y025691D01*
X052608Y025621D01*
X052528Y025541D01*
X052458Y025454D01*
X052398Y025358D01*
X052350Y025257D01*
X045088Y025257D01*
X045323Y025159D02*
X052315Y025159D01*
X052313Y025151D02*
X052350Y025257D01*
X052397Y025356D02*
X000350Y025356D01*
X000350Y025454D02*
X052459Y025454D01*
X052539Y025553D02*
X000350Y025553D01*
X000350Y025651D02*
X052646Y025651D01*
X052789Y025750D02*
X000350Y025750D01*
X000350Y025848D02*
X053049Y025848D01*
X053225Y025848D02*
X053325Y025848D01*
X053325Y025750D02*
X053225Y025750D01*
X053225Y025651D02*
X053325Y025651D01*
X053325Y025553D02*
X053225Y025553D01*
X053225Y025454D02*
X053325Y025454D01*
X053325Y025356D02*
X053225Y025356D01*
X053225Y025257D02*
X053325Y025257D01*
X053325Y025159D02*
X053225Y025159D01*
X053225Y025060D02*
X053325Y025060D01*
X053325Y024962D02*
X053225Y024962D01*
X053225Y024666D02*
X053325Y024666D01*
X053325Y024568D02*
X053225Y024568D01*
X053225Y024469D02*
X053325Y024469D01*
X053325Y024371D02*
X053225Y024371D01*
X053225Y024272D02*
X053325Y024272D01*
X053325Y024174D02*
X053225Y024174D01*
X053225Y024075D02*
X053325Y024075D01*
X053325Y023977D02*
X053225Y023977D01*
X053225Y023878D02*
X053325Y023878D01*
X053367Y023878D02*
X060950Y023878D01*
X060950Y023780D02*
X052385Y023780D01*
X052385Y023878D02*
X053183Y023878D01*
X052834Y023977D02*
X052346Y023977D01*
X052385Y023884D02*
X052238Y024237D01*
X051968Y024507D01*
X051616Y024653D01*
X051234Y024653D01*
X050881Y024507D01*
X050611Y024237D01*
X050465Y023884D01*
X050465Y023502D01*
X050611Y023149D01*
X050881Y022879D01*
X051234Y022733D01*
X051616Y022733D01*
X051968Y022879D01*
X052238Y023149D01*
X052385Y023502D01*
X052385Y023884D01*
X052385Y023681D02*
X060950Y023681D01*
X060950Y023583D02*
X052385Y023583D01*
X052377Y023484D02*
X060950Y023484D01*
X060950Y023386D02*
X053674Y023386D01*
X053819Y023326D02*
X053466Y023472D01*
X053084Y023472D01*
X052731Y023326D01*
X052461Y023056D01*
X052315Y022703D01*
X052315Y022321D01*
X052461Y021968D01*
X052731Y021698D01*
X053084Y021552D01*
X053466Y021552D01*
X053819Y021698D01*
X054089Y021968D01*
X054235Y022321D01*
X054235Y022703D01*
X054089Y023056D01*
X053819Y023326D01*
X053857Y023287D02*
X060950Y023287D01*
X060950Y023189D02*
X053956Y023189D01*
X054054Y023090D02*
X060950Y023090D01*
X060950Y022992D02*
X054115Y022992D01*
X054156Y022893D02*
X060950Y022893D01*
X060950Y022795D02*
X054197Y022795D01*
X054235Y022696D02*
X060950Y022696D01*
X060950Y022598D02*
X054235Y022598D01*
X054235Y022499D02*
X060950Y022499D01*
X060950Y022401D02*
X054235Y022401D01*
X054227Y022302D02*
X060950Y022302D01*
X060950Y022204D02*
X054186Y022204D01*
X054146Y022105D02*
X060950Y022105D01*
X060950Y022007D02*
X054105Y022007D01*
X054029Y021908D02*
X060950Y021908D01*
X060950Y021810D02*
X053930Y021810D01*
X053832Y021711D02*
X060950Y021711D01*
X060950Y021613D02*
X053613Y021613D01*
X052937Y021613D02*
X034544Y021613D01*
X034446Y021711D02*
X052718Y021711D01*
X052620Y021810D02*
X034347Y021810D01*
X034249Y021908D02*
X052521Y021908D01*
X052445Y022007D02*
X043102Y022007D01*
X043096Y022001D02*
X043194Y022098D01*
X043246Y022225D01*
X043246Y022836D01*
X043194Y022963D01*
X043096Y023060D01*
X042969Y023113D01*
X042831Y023113D01*
X042704Y023060D01*
X042606Y022963D01*
X042554Y022836D01*
X042554Y022225D01*
X042606Y022098D01*
X042704Y022001D01*
X042831Y021948D01*
X042969Y021948D01*
X043096Y022001D01*
X043196Y022105D02*
X052404Y022105D01*
X052364Y022204D02*
X043237Y022204D01*
X043246Y022302D02*
X052323Y022302D01*
X052315Y022401D02*
X043246Y022401D01*
X043246Y022499D02*
X052315Y022499D01*
X052315Y022598D02*
X043246Y022598D01*
X043246Y022696D02*
X052315Y022696D01*
X052353Y022795D02*
X051764Y022795D01*
X051982Y022893D02*
X052394Y022893D01*
X052435Y022992D02*
X052081Y022992D01*
X052179Y023090D02*
X052496Y023090D01*
X052594Y023189D02*
X052255Y023189D01*
X052296Y023287D02*
X052693Y023287D01*
X052876Y023386D02*
X052336Y023386D01*
X052305Y024075D02*
X052673Y024075D01*
X052561Y024174D02*
X052265Y024174D01*
X052203Y024272D02*
X052476Y024272D01*
X052410Y024371D02*
X052105Y024371D01*
X052006Y024469D02*
X052360Y024469D01*
X052323Y024568D02*
X051822Y024568D01*
X052297Y024666D02*
X045643Y024666D01*
X045643Y024568D02*
X051028Y024568D01*
X050843Y024469D02*
X045643Y024469D01*
X045638Y024371D02*
X050745Y024371D01*
X050646Y024272D02*
X045597Y024272D01*
X045556Y024174D02*
X050585Y024174D01*
X050544Y024075D02*
X045495Y024075D01*
X045397Y023977D02*
X050503Y023977D01*
X050465Y023878D02*
X045267Y023878D01*
X044533Y023878D02*
X041267Y023878D01*
X041321Y023901D02*
X041530Y024110D01*
X041643Y024383D01*
X041643Y024678D01*
X041530Y024951D01*
X041321Y025160D01*
X041048Y025274D01*
X040752Y025274D01*
X040479Y025160D01*
X040270Y024951D01*
X040157Y024678D01*
X040157Y024383D01*
X040270Y024110D01*
X040479Y023901D01*
X040752Y023787D01*
X041048Y023787D01*
X041321Y023901D01*
X041397Y023977D02*
X044403Y023977D01*
X044305Y024075D02*
X041495Y024075D01*
X041556Y024174D02*
X044244Y024174D01*
X044203Y024272D02*
X041597Y024272D01*
X041638Y024371D02*
X044162Y024371D01*
X044157Y024469D02*
X041643Y024469D01*
X041643Y024568D02*
X044157Y024568D01*
X044157Y024666D02*
X041643Y024666D01*
X041607Y024765D02*
X044193Y024765D01*
X044233Y024863D02*
X041567Y024863D01*
X041520Y024962D02*
X044280Y024962D01*
X044379Y025060D02*
X041421Y025060D01*
X041323Y025159D02*
X044477Y025159D01*
X044712Y025257D02*
X041088Y025257D01*
X040712Y025257D02*
X000350Y025257D01*
X000350Y025159D02*
X040477Y025159D01*
X040379Y025060D02*
X026418Y025060D01*
X026296Y025111D02*
X025994Y025111D01*
X025714Y024995D01*
X025501Y024781D01*
X025385Y024502D01*
X025385Y024199D01*
X025501Y023920D01*
X025714Y023706D01*
X025994Y023591D01*
X026296Y023591D01*
X026576Y023706D01*
X026789Y023920D01*
X026905Y024199D01*
X026905Y024502D01*
X026789Y024781D01*
X026576Y024995D01*
X026296Y025111D01*
X026609Y024962D02*
X040280Y024962D01*
X040233Y024863D02*
X026707Y024863D01*
X026796Y024765D02*
X040193Y024765D01*
X040157Y024666D02*
X026837Y024666D01*
X026878Y024568D02*
X040157Y024568D01*
X040157Y024469D02*
X029247Y024469D01*
X029219Y024497D02*
X029126Y024536D01*
X029024Y024536D01*
X028931Y024497D01*
X028859Y024425D01*
X028820Y024331D01*
X028820Y024230D01*
X028859Y024136D01*
X028931Y024064D01*
X029024Y024026D01*
X029126Y024026D01*
X029219Y024064D01*
X029291Y024136D01*
X029330Y024230D01*
X029330Y024331D01*
X029291Y024425D01*
X029219Y024497D01*
X029314Y024371D02*
X040162Y024371D01*
X040203Y024272D02*
X029330Y024272D01*
X029307Y024174D02*
X040244Y024174D01*
X040305Y024075D02*
X029230Y024075D01*
X029384Y023872D02*
X029312Y023800D01*
X029273Y023706D01*
X029273Y023605D01*
X029312Y023511D01*
X029384Y023439D01*
X029477Y023401D01*
X029557Y023401D01*
X029865Y023092D01*
X029865Y020233D01*
X029847Y020251D01*
X029752Y020291D01*
X029648Y020291D01*
X029553Y020251D01*
X029480Y020178D01*
X029440Y020082D01*
X029440Y019979D01*
X029480Y019883D01*
X029540Y019823D01*
X029540Y018889D01*
X035215Y013214D01*
X035215Y013147D01*
X032534Y010466D01*
X031158Y010466D01*
X031097Y010526D01*
X031002Y010566D01*
X030898Y010566D01*
X030803Y010526D01*
X030730Y010453D01*
X030690Y010357D01*
X030690Y010254D01*
X030730Y010158D01*
X030803Y010085D01*
X030898Y010046D01*
X031002Y010046D01*
X031097Y010085D01*
X031158Y010146D01*
X032666Y010146D01*
X035365Y012844D01*
X035365Y009238D01*
X035305Y009178D01*
X035265Y009082D01*
X035265Y008979D01*
X035305Y008883D01*
X035378Y008810D01*
X035473Y008771D01*
X035577Y008771D01*
X035672Y008810D01*
X035745Y008883D01*
X035785Y008979D01*
X035785Y009082D01*
X035745Y009178D01*
X035685Y009238D01*
X035685Y013023D01*
X035695Y013033D01*
X035725Y013104D01*
X037115Y011714D01*
X037209Y011621D01*
X037692Y011621D01*
X037753Y011560D01*
X037848Y011521D01*
X037952Y011521D01*
X038040Y011557D01*
X038040Y010966D01*
X037998Y010966D01*
X037903Y010926D01*
X037830Y010853D01*
X037790Y010757D01*
X037790Y010654D01*
X037830Y010558D01*
X037903Y010485D01*
X037998Y010446D01*
X038102Y010446D01*
X038197Y010485D01*
X038270Y010558D01*
X038310Y010654D01*
X038310Y010739D01*
X038360Y010789D01*
X038360Y014372D01*
X038266Y014466D01*
X038053Y014679D01*
X038080Y014707D01*
X038080Y015104D01*
X037799Y015386D01*
X037401Y015386D01*
X037120Y015104D01*
X037120Y014707D01*
X037401Y014426D01*
X037799Y014426D01*
X037826Y014453D01*
X038040Y014239D01*
X038040Y012004D01*
X037952Y012041D01*
X037848Y012041D01*
X037785Y012014D01*
X037785Y012107D01*
X037745Y012203D01*
X037672Y012276D01*
X037577Y012316D01*
X037473Y012316D01*
X037378Y012276D01*
X037317Y012216D01*
X037316Y012216D01*
X034060Y015472D01*
X030435Y019097D01*
X030435Y022253D01*
X030503Y022185D01*
X030598Y022146D01*
X030702Y022146D01*
X030797Y022185D01*
X030858Y022246D01*
X033459Y022246D01*
X039015Y016689D01*
X039015Y016604D01*
X039055Y016508D01*
X039128Y016435D01*
X039223Y016396D01*
X039327Y016396D01*
X039422Y016435D01*
X039495Y016508D01*
X039535Y016604D01*
X039535Y016707D01*
X039495Y016803D01*
X039422Y016876D01*
X039327Y016916D01*
X039241Y016916D01*
X033591Y022566D01*
X030858Y022566D01*
X030797Y022626D01*
X030702Y022666D01*
X030598Y022666D01*
X030503Y022626D01*
X030435Y022558D01*
X030435Y023437D01*
X030440Y023439D01*
X030512Y023511D01*
X030551Y023605D01*
X030551Y023706D01*
X030512Y023800D01*
X030440Y023872D01*
X030346Y023911D01*
X030245Y023911D01*
X030151Y023872D01*
X030079Y023800D01*
X030041Y023706D01*
X030041Y023605D01*
X030079Y023511D01*
X030115Y023476D01*
X030115Y023295D01*
X029783Y023627D01*
X029783Y023706D01*
X029744Y023800D01*
X029672Y023872D01*
X029579Y023911D01*
X029477Y023911D01*
X029384Y023872D01*
X029399Y023878D02*
X026747Y023878D01*
X026813Y023977D02*
X040403Y023977D01*
X040533Y023878D02*
X030425Y023878D01*
X030520Y023780D02*
X050465Y023780D01*
X050465Y023681D02*
X030551Y023681D01*
X030541Y023583D02*
X050465Y023583D01*
X050472Y023484D02*
X030485Y023484D01*
X030435Y023386D02*
X050513Y023386D01*
X050554Y023287D02*
X030435Y023287D01*
X030435Y023189D02*
X050594Y023189D01*
X050670Y023090D02*
X043024Y023090D01*
X043165Y022992D02*
X050768Y022992D01*
X050867Y022893D02*
X043222Y022893D01*
X043246Y022795D02*
X051085Y022795D01*
X053716Y023977D02*
X060950Y023977D01*
X060950Y024075D02*
X053877Y024075D01*
X053989Y024174D02*
X060950Y024174D01*
X060950Y024272D02*
X054074Y024272D01*
X054140Y024371D02*
X060950Y024371D01*
X060950Y024469D02*
X054190Y024469D01*
X054227Y024568D02*
X060950Y024568D01*
X060950Y024666D02*
X054253Y024666D01*
X054200Y025257D02*
X054152Y025358D01*
X054092Y025454D01*
X054022Y025541D01*
X053942Y025621D01*
X053855Y025691D01*
X053759Y025751D01*
X053658Y025799D01*
X053552Y025836D01*
X053761Y025750D02*
X060950Y025750D01*
X060950Y025651D02*
X053904Y025651D01*
X054011Y025553D02*
X060950Y025553D01*
X060950Y025454D02*
X054091Y025454D01*
X054153Y025356D02*
X060950Y025356D01*
X060950Y021514D02*
X034643Y021514D01*
X034741Y021416D02*
X060950Y021416D01*
X060950Y021317D02*
X034840Y021317D01*
X034938Y021219D02*
X060950Y021219D01*
X060950Y021120D02*
X035037Y021120D01*
X035135Y021022D02*
X060950Y021022D01*
X060950Y020923D02*
X035234Y020923D01*
X035332Y020825D02*
X060950Y020825D01*
X060950Y020726D02*
X035431Y020726D01*
X035529Y020628D02*
X060950Y020628D01*
X060950Y020529D02*
X035628Y020529D01*
X035726Y020431D02*
X060950Y020431D01*
X060950Y020332D02*
X035825Y020332D01*
X035923Y020234D02*
X060950Y020234D01*
X060950Y020135D02*
X036022Y020135D01*
X036120Y020037D02*
X060950Y020037D01*
X060950Y019938D02*
X036219Y019938D01*
X036317Y019840D02*
X060950Y019840D01*
X060950Y019741D02*
X036416Y019741D01*
X036514Y019643D02*
X060950Y019643D01*
X060950Y019544D02*
X036613Y019544D01*
X036711Y019446D02*
X060950Y019446D01*
X060950Y019347D02*
X036810Y019347D01*
X036908Y019249D02*
X060950Y019249D01*
X060950Y019150D02*
X037007Y019150D01*
X037105Y019052D02*
X060950Y019052D01*
X060950Y018953D02*
X037204Y018953D01*
X037302Y018855D02*
X046113Y018855D01*
X046131Y018872D02*
X046059Y018800D01*
X046020Y018706D01*
X046020Y018605D01*
X046059Y018511D01*
X046131Y018439D01*
X046224Y018401D01*
X046326Y018401D01*
X046419Y018439D01*
X046491Y018511D01*
X046530Y018605D01*
X046530Y018706D01*
X046491Y018800D01*
X046419Y018872D01*
X046326Y018911D01*
X046224Y018911D01*
X046131Y018872D01*
X046041Y018756D02*
X037401Y018756D01*
X037499Y018658D02*
X046020Y018658D01*
X046039Y018559D02*
X037598Y018559D01*
X037696Y018461D02*
X046109Y018461D01*
X046441Y018461D02*
X060950Y018461D01*
X060950Y018559D02*
X046511Y018559D01*
X046530Y018658D02*
X060950Y018658D01*
X060950Y018756D02*
X046509Y018756D01*
X046437Y018855D02*
X060950Y018855D01*
X060950Y018362D02*
X037795Y018362D01*
X037893Y018264D02*
X060950Y018264D01*
X060950Y018165D02*
X037992Y018165D01*
X038090Y018067D02*
X060950Y018067D01*
X060950Y017968D02*
X038189Y017968D01*
X038287Y017870D02*
X060950Y017870D01*
X060950Y017771D02*
X038386Y017771D01*
X038484Y017673D02*
X060950Y017673D01*
X060950Y017574D02*
X038583Y017574D01*
X038681Y017476D02*
X060950Y017476D01*
X060950Y017377D02*
X038780Y017377D01*
X038878Y017279D02*
X060950Y017279D01*
X060950Y017180D02*
X038977Y017180D01*
X039075Y017082D02*
X060950Y017082D01*
X060950Y016983D02*
X039174Y016983D01*
X039401Y016885D02*
X040787Y016885D01*
X040756Y016872D02*
X040849Y016911D01*
X040951Y016911D01*
X041044Y016872D01*
X041116Y016800D01*
X041155Y016706D01*
X041155Y016605D01*
X041116Y016511D01*
X041044Y016439D01*
X040951Y016401D01*
X040849Y016401D01*
X040756Y016439D01*
X040684Y016511D01*
X040645Y016605D01*
X040645Y016706D01*
X040684Y016800D01*
X040756Y016872D01*
X040678Y016786D02*
X039502Y016786D01*
X039535Y016688D02*
X040645Y016688D01*
X040652Y016589D02*
X039529Y016589D01*
X039478Y016491D02*
X040704Y016491D01*
X041096Y016491D02*
X044954Y016491D01*
X044934Y016511D02*
X045006Y016439D01*
X045099Y016401D01*
X045201Y016401D01*
X045294Y016439D01*
X045366Y016511D01*
X045405Y016605D01*
X045405Y016706D01*
X045366Y016800D01*
X045294Y016872D01*
X045201Y016911D01*
X045099Y016911D01*
X045006Y016872D01*
X044934Y016800D01*
X044895Y016706D01*
X044895Y016605D01*
X044934Y016511D01*
X044902Y016589D02*
X041148Y016589D01*
X041155Y016688D02*
X044895Y016688D01*
X044928Y016786D02*
X041122Y016786D01*
X041013Y016885D02*
X045037Y016885D01*
X045263Y016885D02*
X060950Y016885D01*
X060950Y016786D02*
X045372Y016786D01*
X045405Y016688D02*
X060950Y016688D01*
X060950Y016589D02*
X045398Y016589D01*
X045346Y016491D02*
X060950Y016491D01*
X060950Y016392D02*
X037849Y016392D01*
X037815Y016426D02*
X037650Y016426D01*
X037650Y015956D01*
X037550Y015956D01*
X037550Y016426D01*
X037385Y016426D01*
X037080Y016121D01*
X037080Y015956D01*
X037550Y015956D01*
X037550Y015856D01*
X037080Y015856D01*
X037080Y015690D01*
X037385Y015386D01*
X037550Y015386D01*
X037550Y015856D01*
X037650Y015856D01*
X037650Y015956D01*
X038120Y015956D01*
X038120Y016121D01*
X037815Y016426D01*
X037650Y016392D02*
X037550Y016392D01*
X037550Y016294D02*
X037650Y016294D01*
X037650Y016195D02*
X037550Y016195D01*
X037550Y016097D02*
X037650Y016097D01*
X037650Y015998D02*
X037550Y015998D01*
X037550Y015900D02*
X037080Y015900D01*
X037080Y015998D02*
X037080Y015998D01*
X037080Y016004D02*
X036799Y016286D01*
X036401Y016286D01*
X036120Y016004D01*
X036120Y015607D01*
X036401Y015326D01*
X036799Y015326D01*
X037080Y015607D01*
X037080Y016004D01*
X037080Y016097D02*
X036988Y016097D01*
X036889Y016195D02*
X037154Y016195D01*
X037253Y016294D02*
X035891Y016294D01*
X035799Y016386D02*
X036080Y016104D01*
X036080Y015707D01*
X035799Y015426D01*
X035401Y015426D01*
X035120Y015707D01*
X035120Y016104D01*
X035401Y016386D01*
X035799Y016386D01*
X035989Y016195D02*
X036311Y016195D01*
X036212Y016097D02*
X036080Y016097D01*
X036080Y015998D02*
X036120Y015998D01*
X036120Y015900D02*
X036080Y015900D01*
X036080Y015801D02*
X036120Y015801D01*
X036120Y015703D02*
X036076Y015703D01*
X036123Y015604D02*
X035977Y015604D01*
X035879Y015506D02*
X036221Y015506D01*
X036320Y015407D02*
X034125Y015407D01*
X034223Y015309D02*
X035324Y015309D01*
X035401Y015386D02*
X035120Y015104D01*
X035120Y014707D01*
X035401Y014426D01*
X035799Y014426D01*
X036080Y014707D01*
X036080Y015104D01*
X035799Y015386D01*
X035401Y015386D01*
X035321Y015506D02*
X034026Y015506D01*
X033928Y015604D02*
X035223Y015604D01*
X035124Y015703D02*
X033829Y015703D01*
X033731Y015801D02*
X035120Y015801D01*
X035120Y015900D02*
X033632Y015900D01*
X033534Y015998D02*
X035120Y015998D01*
X035120Y016097D02*
X033435Y016097D01*
X033337Y016195D02*
X035211Y016195D01*
X035309Y016294D02*
X033238Y016294D01*
X033140Y016392D02*
X037351Y016392D01*
X037650Y015900D02*
X060950Y015900D01*
X060950Y015998D02*
X038120Y015998D01*
X038120Y016097D02*
X060950Y016097D01*
X060950Y016195D02*
X038046Y016195D01*
X037947Y016294D02*
X060950Y016294D01*
X060950Y015801D02*
X038120Y015801D01*
X038120Y015856D02*
X038120Y015690D01*
X037815Y015386D01*
X037650Y015386D01*
X037650Y015856D01*
X038120Y015856D01*
X038120Y015703D02*
X060950Y015703D01*
X060950Y015604D02*
X038034Y015604D01*
X037935Y015506D02*
X060950Y015506D01*
X060950Y015407D02*
X037837Y015407D01*
X037876Y015309D02*
X060950Y015309D01*
X060950Y015210D02*
X037974Y015210D01*
X038073Y015112D02*
X060950Y015112D01*
X060950Y015013D02*
X038080Y015013D01*
X038080Y014915D02*
X060950Y014915D01*
X060950Y014816D02*
X038080Y014816D01*
X038080Y014718D02*
X060950Y014718D01*
X060950Y014619D02*
X038113Y014619D01*
X038211Y014521D02*
X042022Y014521D01*
X041999Y014498D02*
X042060Y014558D01*
X042155Y014598D01*
X042259Y014598D01*
X042354Y014558D01*
X042428Y014485D01*
X042467Y014389D01*
X042467Y014286D01*
X042428Y014190D01*
X042354Y014117D01*
X042259Y014078D01*
X042155Y014078D01*
X042060Y014117D01*
X041999Y014178D01*
X039610Y014178D01*
X039610Y014154D01*
X039570Y014058D01*
X039560Y014048D01*
X039560Y013144D01*
X038960Y012544D01*
X038960Y012529D01*
X038920Y012433D01*
X038847Y012360D01*
X038752Y012321D01*
X038648Y012321D01*
X038553Y012360D01*
X038480Y012433D01*
X038440Y012529D01*
X038440Y012632D01*
X038480Y012728D01*
X038553Y012801D01*
X038648Y012841D01*
X038663Y012841D01*
X039140Y013317D01*
X039140Y014048D01*
X039130Y014058D01*
X039090Y014154D01*
X039090Y014257D01*
X039130Y014353D01*
X039203Y014426D01*
X039298Y014466D01*
X039384Y014466D01*
X039416Y014498D01*
X041999Y014498D01*
X042207Y014338D02*
X039482Y014338D01*
X039350Y014206D01*
X039117Y014324D02*
X038360Y014324D01*
X038360Y014225D02*
X039090Y014225D01*
X039101Y014127D02*
X038360Y014127D01*
X038360Y014028D02*
X039140Y014028D01*
X039140Y013930D02*
X038360Y013930D01*
X038360Y013831D02*
X039140Y013831D01*
X039140Y013733D02*
X038360Y013733D01*
X038360Y013634D02*
X039140Y013634D01*
X039140Y013536D02*
X038360Y013536D01*
X038360Y013437D02*
X039140Y013437D01*
X039140Y013339D02*
X038360Y013339D01*
X038360Y013240D02*
X039063Y013240D01*
X038964Y013142D02*
X038360Y013142D01*
X038360Y013043D02*
X038866Y013043D01*
X038767Y012945D02*
X038360Y012945D01*
X038360Y012846D02*
X038669Y012846D01*
X038499Y012748D02*
X038360Y012748D01*
X038360Y012649D02*
X038447Y012649D01*
X038440Y012551D02*
X038360Y012551D01*
X038360Y012452D02*
X038472Y012452D01*
X038569Y012354D02*
X038360Y012354D01*
X038360Y012255D02*
X053377Y012255D01*
X053312Y012320D02*
X053565Y012067D01*
X053875Y011888D01*
X054221Y011796D01*
X054579Y011796D01*
X054925Y011888D01*
X055235Y012067D01*
X055488Y012320D01*
X055667Y012631D01*
X055760Y012976D01*
X055760Y013335D01*
X055667Y013680D01*
X055488Y013991D01*
X055235Y014244D01*
X054925Y014423D01*
X054579Y014516D01*
X054221Y014516D01*
X053875Y014423D01*
X053565Y014244D01*
X053312Y013991D01*
X053133Y013680D01*
X053040Y013335D01*
X053040Y012976D01*
X053133Y012631D01*
X053312Y012320D01*
X053293Y012354D02*
X041509Y012354D01*
X041507Y012352D02*
X041579Y012423D01*
X041618Y012517D01*
X041618Y012619D01*
X041579Y012712D01*
X041507Y012784D01*
X041413Y012823D01*
X041312Y012823D01*
X041218Y012784D01*
X041146Y012712D01*
X041108Y012619D01*
X041108Y012517D01*
X041146Y012423D01*
X041218Y012352D01*
X041312Y012313D01*
X041413Y012313D01*
X041507Y012352D01*
X041591Y012452D02*
X053236Y012452D01*
X053179Y012551D02*
X041618Y012551D01*
X041605Y012649D02*
X053128Y012649D01*
X053101Y012748D02*
X041544Y012748D01*
X041182Y012748D02*
X039164Y012748D01*
X039263Y012846D02*
X053075Y012846D01*
X053049Y012945D02*
X039361Y012945D01*
X039460Y013043D02*
X053040Y013043D01*
X053040Y013142D02*
X039558Y013142D01*
X039560Y013240D02*
X053040Y013240D01*
X053041Y013339D02*
X039560Y013339D01*
X039560Y013437D02*
X053067Y013437D01*
X053094Y013536D02*
X039560Y013536D01*
X039560Y013634D02*
X053120Y013634D01*
X053163Y013733D02*
X039560Y013733D01*
X039560Y013831D02*
X053220Y013831D01*
X053276Y013930D02*
X039560Y013930D01*
X039560Y014028D02*
X053349Y014028D01*
X053448Y014127D02*
X042364Y014127D01*
X042442Y014225D02*
X053546Y014225D01*
X053703Y014324D02*
X042467Y014324D01*
X042454Y014422D02*
X053874Y014422D01*
X054926Y014422D02*
X060950Y014422D01*
X060950Y014324D02*
X055097Y014324D01*
X055254Y014225D02*
X060950Y014225D01*
X060950Y014127D02*
X055352Y014127D01*
X055451Y014028D02*
X060950Y014028D01*
X060950Y013930D02*
X055524Y013930D01*
X055580Y013831D02*
X060950Y013831D01*
X060950Y013733D02*
X055637Y013733D01*
X055680Y013634D02*
X060950Y013634D01*
X060950Y013536D02*
X055706Y013536D01*
X055733Y013437D02*
X060950Y013437D01*
X060950Y013339D02*
X055759Y013339D01*
X055760Y013240D02*
X060950Y013240D01*
X060950Y013142D02*
X055760Y013142D01*
X055760Y013043D02*
X060950Y013043D01*
X060950Y012945D02*
X055751Y012945D01*
X055725Y012846D02*
X060950Y012846D01*
X060950Y012748D02*
X055699Y012748D01*
X055672Y012649D02*
X060950Y012649D01*
X060950Y012551D02*
X055621Y012551D01*
X055564Y012452D02*
X060950Y012452D01*
X060950Y012354D02*
X055507Y012354D01*
X055423Y012255D02*
X060950Y012255D01*
X060950Y012157D02*
X055324Y012157D01*
X055219Y012058D02*
X060950Y012058D01*
X060950Y011960D02*
X055048Y011960D01*
X054824Y011861D02*
X060950Y011861D01*
X060950Y011763D02*
X045557Y011763D01*
X045585Y011751D02*
X045514Y011781D01*
X045438Y011796D01*
X045430Y011796D01*
X045430Y011436D01*
X045370Y011436D01*
X045370Y011796D01*
X045362Y011796D01*
X045286Y011781D01*
X045215Y011751D01*
X045151Y011708D01*
X045097Y011654D01*
X045054Y011590D01*
X045025Y011519D01*
X045010Y011444D01*
X045010Y011436D01*
X045370Y011436D01*
X045370Y011376D01*
X045010Y011376D01*
X045010Y011367D01*
X045025Y011292D01*
X045054Y011221D01*
X045097Y011157D01*
X045151Y011103D01*
X045215Y011060D01*
X045286Y011030D01*
X045362Y011016D01*
X045370Y011016D01*
X045370Y011376D01*
X045430Y011376D01*
X045430Y011436D01*
X045790Y011436D01*
X045790Y011444D01*
X045775Y011519D01*
X045746Y011590D01*
X045703Y011654D01*
X045649Y011708D01*
X045585Y011751D01*
X045693Y011664D02*
X051164Y011664D01*
X051202Y011702D02*
X051103Y011604D01*
X051050Y011475D01*
X051050Y011336D01*
X051103Y011207D01*
X051202Y011109D01*
X051330Y011056D01*
X051470Y011056D01*
X051598Y011109D01*
X051697Y011207D01*
X051750Y011336D01*
X051750Y011475D01*
X051697Y011604D01*
X051598Y011702D01*
X051470Y011756D01*
X051330Y011756D01*
X051202Y011702D01*
X051087Y011566D02*
X045756Y011566D01*
X045785Y011467D02*
X051050Y011467D01*
X051050Y011369D02*
X045790Y011369D01*
X045790Y011367D02*
X045790Y011376D01*
X045430Y011376D01*
X045430Y011016D01*
X045438Y011016D01*
X045514Y011030D01*
X045585Y011060D01*
X045649Y011103D01*
X045703Y011157D01*
X045746Y011221D01*
X045775Y011292D01*
X045790Y011367D01*
X045766Y011270D02*
X051077Y011270D01*
X051139Y011172D02*
X045713Y011172D01*
X045604Y011073D02*
X051288Y011073D01*
X051512Y011073D02*
X060950Y011073D01*
X060950Y010975D02*
X038360Y010975D01*
X038360Y011073D02*
X045196Y011073D01*
X045087Y011172D02*
X038360Y011172D01*
X038360Y011270D02*
X045034Y011270D01*
X045010Y011369D02*
X038360Y011369D01*
X038360Y011467D02*
X045015Y011467D01*
X045044Y011566D02*
X038360Y011566D01*
X038360Y011664D02*
X045107Y011664D01*
X045243Y011763D02*
X038360Y011763D01*
X038360Y011861D02*
X053976Y011861D01*
X053752Y011960D02*
X038360Y011960D01*
X038360Y012058D02*
X053581Y012058D01*
X053476Y012157D02*
X038360Y012157D01*
X038040Y012157D02*
X037765Y012157D01*
X037785Y012058D02*
X038040Y012058D01*
X038040Y012255D02*
X037693Y012255D01*
X037525Y012056D02*
X037250Y012056D01*
X033900Y015406D01*
X030275Y019031D01*
X030275Y023635D01*
X030296Y023656D01*
X030106Y023484D02*
X029926Y023484D01*
X030024Y023386D02*
X030115Y023386D01*
X030050Y023583D02*
X029827Y023583D01*
X029783Y023681D02*
X030041Y023681D01*
X030071Y023780D02*
X029753Y023780D01*
X029657Y023878D02*
X030167Y023878D01*
X029528Y023656D02*
X030025Y023158D01*
X030025Y019031D01*
X030150Y018906D01*
X035400Y013656D01*
X037275Y011781D01*
X037900Y011781D01*
X037747Y011566D02*
X035685Y011566D01*
X035685Y011664D02*
X037165Y011664D01*
X037115Y011714D02*
X037115Y011714D01*
X037067Y011763D02*
X035685Y011763D01*
X035685Y011861D02*
X036968Y011861D01*
X036870Y011960D02*
X035685Y011960D01*
X035685Y012058D02*
X036771Y012058D01*
X036673Y012157D02*
X035685Y012157D01*
X035685Y012255D02*
X036574Y012255D01*
X036476Y012354D02*
X035685Y012354D01*
X035685Y012452D02*
X036377Y012452D01*
X036279Y012551D02*
X035685Y012551D01*
X035685Y012649D02*
X036180Y012649D01*
X036082Y012748D02*
X035685Y012748D01*
X035685Y012846D02*
X035983Y012846D01*
X035885Y012945D02*
X035685Y012945D01*
X035699Y013043D02*
X035786Y013043D01*
X035525Y013131D02*
X035475Y013181D01*
X032600Y010306D01*
X030950Y010306D01*
X031141Y010482D02*
X032550Y010482D01*
X032649Y010581D02*
X000350Y010581D01*
X000350Y010679D02*
X032747Y010679D01*
X032846Y010778D02*
X000350Y010778D01*
X000350Y010876D02*
X006420Y010876D01*
X006375Y010888D02*
X006721Y010796D01*
X007079Y010796D01*
X007425Y010888D01*
X007735Y011067D01*
X007988Y011320D01*
X008167Y011631D01*
X008260Y011976D01*
X008260Y012335D01*
X008167Y012680D01*
X007988Y012991D01*
X007735Y013244D01*
X007425Y013423D01*
X007079Y013516D01*
X006721Y013516D01*
X006375Y013423D01*
X006065Y013244D01*
X005812Y012991D01*
X005633Y012680D01*
X005540Y012335D01*
X005540Y011976D01*
X005633Y011631D01*
X005812Y011320D01*
X006065Y011067D01*
X006375Y010888D01*
X006226Y010975D02*
X000350Y010975D01*
X000350Y011073D02*
X006059Y011073D01*
X005961Y011172D02*
X000350Y011172D01*
X000350Y011270D02*
X005862Y011270D01*
X005784Y011369D02*
X000350Y011369D01*
X000350Y011467D02*
X005727Y011467D01*
X005670Y011566D02*
X000350Y011566D01*
X000350Y011664D02*
X005624Y011664D01*
X005597Y011763D02*
X000350Y011763D01*
X000350Y011861D02*
X005571Y011861D01*
X005545Y011960D02*
X000350Y011960D01*
X000350Y012058D02*
X005540Y012058D01*
X005540Y012157D02*
X000350Y012157D01*
X000350Y012255D02*
X005540Y012255D01*
X005545Y012354D02*
X000350Y012354D01*
X000350Y012452D02*
X005571Y012452D01*
X005598Y012551D02*
X000350Y012551D01*
X000350Y012649D02*
X005624Y012649D01*
X005671Y012748D02*
X000350Y012748D01*
X000350Y012846D02*
X005728Y012846D01*
X005785Y012945D02*
X000350Y012945D01*
X000350Y013043D02*
X005864Y013043D01*
X005963Y013142D02*
X000350Y013142D01*
X000350Y013240D02*
X006061Y013240D01*
X006229Y013339D02*
X000350Y013339D01*
X000350Y013437D02*
X006428Y013437D01*
X007372Y013437D02*
X034992Y013437D01*
X034894Y013536D02*
X000350Y013536D01*
X000350Y013634D02*
X034795Y013634D01*
X034697Y013733D02*
X000350Y013733D01*
X000350Y013831D02*
X034598Y013831D01*
X034500Y013930D02*
X000350Y013930D01*
X000350Y014028D02*
X034401Y014028D01*
X034303Y014127D02*
X000350Y014127D01*
X000350Y014225D02*
X034204Y014225D01*
X034106Y014324D02*
X000350Y014324D01*
X000350Y014422D02*
X034007Y014422D01*
X033909Y014521D02*
X000350Y014521D01*
X000350Y014619D02*
X033810Y014619D01*
X033712Y014718D02*
X000350Y014718D01*
X000350Y014816D02*
X033613Y014816D01*
X033515Y014915D02*
X000350Y014915D01*
X000350Y015013D02*
X033416Y015013D01*
X033318Y015112D02*
X000350Y015112D01*
X000350Y015210D02*
X033219Y015210D01*
X033121Y015309D02*
X000350Y015309D01*
X000350Y015407D02*
X033022Y015407D01*
X032924Y015506D02*
X000350Y015506D01*
X000350Y015604D02*
X032825Y015604D01*
X032727Y015703D02*
X000350Y015703D01*
X000350Y015801D02*
X032628Y015801D01*
X032530Y015900D02*
X000350Y015900D01*
X000350Y015998D02*
X032431Y015998D01*
X032333Y016097D02*
X000350Y016097D01*
X000350Y016195D02*
X032234Y016195D01*
X032136Y016294D02*
X000350Y016294D01*
X000350Y016392D02*
X032037Y016392D01*
X031939Y016491D02*
X000350Y016491D01*
X000350Y016589D02*
X031840Y016589D01*
X031742Y016688D02*
X000350Y016688D01*
X000350Y016786D02*
X031643Y016786D01*
X031545Y016885D02*
X000350Y016885D01*
X000350Y016983D02*
X031446Y016983D01*
X031348Y017082D02*
X000350Y017082D01*
X000350Y017180D02*
X031249Y017180D01*
X031151Y017279D02*
X000350Y017279D01*
X000350Y017377D02*
X031052Y017377D01*
X030954Y017476D02*
X000350Y017476D01*
X000350Y017574D02*
X030855Y017574D01*
X030757Y017673D02*
X000350Y017673D01*
X000350Y017771D02*
X030658Y017771D01*
X030560Y017870D02*
X000350Y017870D01*
X000350Y017968D02*
X030461Y017968D01*
X030363Y018067D02*
X000350Y018067D01*
X000350Y018165D02*
X030264Y018165D01*
X030166Y018264D02*
X000350Y018264D01*
X000350Y018362D02*
X030067Y018362D01*
X029969Y018461D02*
X000350Y018461D01*
X000350Y018559D02*
X029870Y018559D01*
X029772Y018658D02*
X000350Y018658D01*
X000350Y018756D02*
X029673Y018756D01*
X029575Y018855D02*
X000350Y018855D01*
X000350Y018953D02*
X029540Y018953D01*
X029540Y019052D02*
X000350Y019052D01*
X000350Y019150D02*
X029540Y019150D01*
X029540Y019249D02*
X000350Y019249D01*
X000350Y019347D02*
X029540Y019347D01*
X029540Y019446D02*
X000350Y019446D01*
X000350Y019544D02*
X029540Y019544D01*
X029540Y019643D02*
X000350Y019643D01*
X000350Y019741D02*
X029540Y019741D01*
X029523Y019840D02*
X000350Y019840D01*
X000350Y019938D02*
X029457Y019938D01*
X029440Y020037D02*
X000350Y020037D01*
X000350Y020135D02*
X029462Y020135D01*
X029535Y020234D02*
X000350Y020234D01*
X000350Y020332D02*
X026113Y020332D01*
X026131Y020314D02*
X026224Y020276D01*
X026326Y020276D01*
X026419Y020314D01*
X026491Y020386D01*
X026530Y020480D01*
X026530Y020581D01*
X026491Y020675D01*
X026419Y020747D01*
X026326Y020786D01*
X026224Y020786D01*
X026131Y020747D01*
X026059Y020675D01*
X026020Y020581D01*
X026020Y020480D01*
X026059Y020386D01*
X026131Y020314D01*
X026040Y020431D02*
X000350Y020431D01*
X000350Y020529D02*
X026020Y020529D01*
X026039Y020628D02*
X000350Y020628D01*
X000350Y020726D02*
X026110Y020726D01*
X026440Y020726D02*
X029865Y020726D01*
X029865Y020628D02*
X026511Y020628D01*
X026530Y020529D02*
X029865Y020529D01*
X029865Y020431D02*
X026510Y020431D01*
X026437Y020332D02*
X029865Y020332D01*
X029865Y020234D02*
X029865Y020234D01*
X029700Y020031D02*
X029700Y018956D01*
X035475Y013181D01*
X035525Y013131D02*
X035525Y009031D01*
X035722Y009202D02*
X053468Y009202D01*
X053459Y009194D02*
X053361Y009097D01*
X053274Y008990D01*
X053198Y008876D01*
X053133Y008755D01*
X053080Y008628D01*
X053040Y008496D01*
X053013Y008361D01*
X053000Y008224D01*
X053000Y008206D01*
X054350Y008206D01*
X054350Y009556D01*
X054331Y009556D01*
X054194Y009542D01*
X054059Y009515D01*
X053928Y009475D01*
X053801Y009423D01*
X053679Y009358D01*
X053565Y009281D01*
X053459Y009194D01*
X053368Y009103D02*
X035776Y009103D01*
X035785Y009005D02*
X053286Y009005D01*
X053218Y008906D02*
X035755Y008906D01*
X035666Y008808D02*
X053161Y008808D01*
X053114Y008709D02*
X051582Y008709D01*
X051598Y008702D02*
X051470Y008756D01*
X051330Y008756D01*
X051202Y008702D01*
X051103Y008604D01*
X051050Y008475D01*
X051050Y008336D01*
X051103Y008207D01*
X051202Y008109D01*
X051330Y008056D01*
X051470Y008056D01*
X051598Y008109D01*
X051697Y008207D01*
X051750Y008336D01*
X051750Y008475D01*
X051697Y008604D01*
X051598Y008702D01*
X051690Y008611D02*
X053075Y008611D01*
X053045Y008512D02*
X051735Y008512D01*
X051750Y008414D02*
X053024Y008414D01*
X053009Y008315D02*
X051741Y008315D01*
X051701Y008217D02*
X053000Y008217D01*
X053000Y008106D02*
X053000Y008087D01*
X053013Y007950D01*
X053040Y007815D01*
X053080Y007683D01*
X053133Y007556D01*
X053198Y007435D01*
X053274Y007321D01*
X053361Y007214D01*
X053459Y007117D01*
X053565Y007030D01*
X053679Y006953D01*
X053801Y006888D01*
X053928Y006836D01*
X054059Y006796D01*
X054194Y006769D01*
X054331Y006756D01*
X054350Y006756D01*
X054350Y008106D01*
X053000Y008106D01*
X053007Y008020D02*
X033316Y008020D01*
X033337Y007983D02*
X033287Y008070D01*
X033226Y008149D01*
X033155Y008220D01*
X033076Y008281D01*
X032989Y008331D01*
X032897Y008369D01*
X032800Y008395D01*
X032701Y008408D01*
X032701Y008408D01*
X032701Y007695D01*
X032601Y007695D01*
X032601Y008408D01*
X032601Y008408D01*
X032502Y008395D01*
X032405Y008369D01*
X032313Y008331D01*
X032226Y008281D01*
X032147Y008220D01*
X032076Y008149D01*
X032015Y008070D01*
X031965Y007983D01*
X031927Y007891D01*
X031901Y007794D01*
X031888Y007695D01*
X031888Y007695D01*
X032601Y007695D01*
X032601Y007595D01*
X031888Y007595D01*
X031888Y007595D01*
X031901Y007495D01*
X031927Y007399D01*
X031965Y007306D01*
X032015Y007220D01*
X032076Y007140D01*
X032147Y007070D01*
X032226Y007009D01*
X032313Y006959D01*
X032405Y006920D01*
X032502Y006894D01*
X032601Y006881D01*
X032601Y007595D01*
X032701Y007595D01*
X032701Y007695D01*
X033414Y007695D01*
X033401Y007794D01*
X033375Y007891D01*
X033337Y007983D01*
X033363Y007921D02*
X053019Y007921D01*
X053039Y007823D02*
X033394Y007823D01*
X033411Y007724D02*
X053068Y007724D01*
X053104Y007626D02*
X032701Y007626D01*
X032701Y007595D02*
X033414Y007595D01*
X033414Y007595D01*
X033401Y007495D01*
X033375Y007399D01*
X033337Y007306D01*
X033287Y007220D01*
X033226Y007140D01*
X033155Y007070D01*
X033076Y007009D01*
X032989Y006959D01*
X032897Y006920D01*
X032800Y006894D01*
X032701Y006881D01*
X032701Y006881D01*
X032701Y007595D01*
X032701Y007527D02*
X032601Y007527D01*
X032601Y007429D02*
X032701Y007429D01*
X032701Y007330D02*
X032601Y007330D01*
X032601Y007232D02*
X032701Y007232D01*
X032701Y007133D02*
X032601Y007133D01*
X032601Y007035D02*
X032701Y007035D01*
X032701Y006936D02*
X032601Y006936D01*
X032601Y006881D02*
X032601Y006881D01*
X032367Y006936D02*
X031859Y006936D01*
X031884Y006911D02*
X031760Y007035D01*
X031597Y007103D01*
X031421Y007103D01*
X031259Y007035D01*
X031134Y006911D01*
X031067Y006748D01*
X031067Y006572D01*
X031134Y006410D01*
X031259Y006286D01*
X031421Y006218D01*
X031597Y006218D01*
X031760Y006286D01*
X031884Y006410D01*
X031951Y006572D01*
X031951Y006748D01*
X031884Y006911D01*
X031915Y006838D02*
X053924Y006838D01*
X053712Y006936D02*
X032935Y006936D01*
X033110Y007035D02*
X053559Y007035D01*
X053443Y007133D02*
X033219Y007133D01*
X033294Y007232D02*
X053347Y007232D01*
X053268Y007330D02*
X033347Y007330D01*
X033383Y007429D02*
X053202Y007429D01*
X053148Y007527D02*
X033405Y007527D01*
X033414Y007695D02*
X033414Y007695D01*
X033250Y008118D02*
X045193Y008118D01*
X045202Y008109D02*
X045330Y008056D01*
X045470Y008056D01*
X045598Y008109D01*
X045697Y008207D01*
X045750Y008336D01*
X045750Y008475D01*
X045697Y008604D01*
X045598Y008702D01*
X045470Y008756D01*
X045330Y008756D01*
X045202Y008702D01*
X045103Y008604D01*
X045050Y008475D01*
X045050Y008336D01*
X045103Y008207D01*
X045202Y008109D01*
X045099Y008217D02*
X033159Y008217D01*
X033017Y008315D02*
X045059Y008315D01*
X045050Y008414D02*
X008239Y008414D01*
X008260Y008335D02*
X008167Y008680D01*
X007988Y008991D01*
X007735Y009244D01*
X007425Y009423D01*
X007079Y009516D01*
X006721Y009516D01*
X006375Y009423D01*
X006065Y009244D01*
X005812Y008991D01*
X005633Y008680D01*
X005540Y008335D01*
X005540Y007976D01*
X005633Y007631D01*
X005812Y007320D01*
X006065Y007067D01*
X006375Y006888D01*
X006721Y006796D01*
X007079Y006796D01*
X007425Y006888D01*
X007735Y007067D01*
X007988Y007320D01*
X008167Y007631D01*
X008260Y007976D01*
X008260Y008335D01*
X008260Y008315D02*
X028033Y008315D01*
X028061Y008331D02*
X027974Y008281D01*
X027895Y008220D01*
X027824Y008149D01*
X027763Y008070D01*
X027713Y007983D01*
X027675Y007891D01*
X027649Y007794D01*
X027636Y007695D01*
X027636Y007695D01*
X028349Y007695D01*
X028349Y008408D01*
X028349Y008408D01*
X028250Y008395D01*
X028153Y008369D01*
X028061Y008331D01*
X027891Y008217D02*
X008260Y008217D01*
X008260Y008118D02*
X027800Y008118D01*
X027734Y008020D02*
X008260Y008020D01*
X008245Y007921D02*
X027687Y007921D01*
X027656Y007823D02*
X008219Y007823D01*
X008192Y007724D02*
X027639Y007724D01*
X027636Y007595D02*
X027636Y007595D01*
X028349Y007595D01*
X028349Y007695D01*
X028449Y007695D01*
X028449Y008408D01*
X028449Y008408D01*
X028548Y008395D01*
X028645Y008369D01*
X028737Y008331D01*
X028824Y008281D01*
X028903Y008220D01*
X028974Y008149D01*
X029035Y008070D01*
X029085Y007983D01*
X029123Y007891D01*
X029149Y007794D01*
X029162Y007695D01*
X029162Y007695D01*
X028449Y007695D01*
X028449Y007595D01*
X029162Y007595D01*
X029162Y007595D01*
X029149Y007495D01*
X029123Y007399D01*
X029085Y007306D01*
X029035Y007220D01*
X028974Y007140D01*
X028903Y007070D01*
X028824Y007009D01*
X028737Y006959D01*
X028645Y006920D01*
X028548Y006894D01*
X028449Y006881D01*
X028449Y006881D01*
X028449Y007595D01*
X028349Y007595D01*
X028349Y006881D01*
X028349Y006881D01*
X028250Y006894D01*
X028153Y006920D01*
X028061Y006959D01*
X027974Y007009D01*
X027895Y007070D01*
X027824Y007140D01*
X027763Y007220D01*
X027713Y007306D01*
X027675Y007399D01*
X027649Y007495D01*
X027636Y007595D01*
X027645Y007527D02*
X008108Y007527D01*
X008164Y007626D02*
X028349Y007626D01*
X028349Y007724D02*
X028449Y007724D01*
X028449Y007626D02*
X032601Y007626D01*
X032601Y007724D02*
X032701Y007724D01*
X032701Y007823D02*
X032601Y007823D01*
X032601Y007921D02*
X032701Y007921D01*
X032701Y008020D02*
X032601Y008020D01*
X032601Y008118D02*
X032701Y008118D01*
X032701Y008217D02*
X032601Y008217D01*
X032601Y008315D02*
X032701Y008315D01*
X032285Y008315D02*
X028765Y008315D01*
X028907Y008217D02*
X032143Y008217D01*
X032052Y008118D02*
X028998Y008118D01*
X029064Y008020D02*
X031986Y008020D01*
X031939Y007921D02*
X029111Y007921D01*
X029142Y007823D02*
X031908Y007823D01*
X031891Y007724D02*
X029159Y007724D01*
X029153Y007527D02*
X031897Y007527D01*
X031919Y007429D02*
X029131Y007429D01*
X029095Y007330D02*
X031955Y007330D01*
X032008Y007232D02*
X029042Y007232D01*
X028967Y007133D02*
X030426Y007133D01*
X030412Y007131D02*
X030340Y007107D01*
X030272Y007073D01*
X030211Y007028D01*
X030157Y006975D01*
X030113Y006913D01*
X030078Y006846D01*
X030055Y006773D01*
X030045Y006710D01*
X030475Y006710D01*
X030475Y006610D01*
X030575Y006610D01*
X030575Y006180D01*
X030638Y006190D01*
X030710Y006214D01*
X030778Y006248D01*
X030839Y006293D01*
X030893Y006346D01*
X030937Y006408D01*
X030972Y006475D01*
X030995Y006548D01*
X031005Y006610D01*
X030575Y006610D01*
X030575Y006710D01*
X031005Y006710D01*
X030995Y006773D01*
X030972Y006846D01*
X030937Y006913D01*
X030893Y006975D01*
X030839Y007028D01*
X030778Y007073D01*
X030710Y007107D01*
X030638Y007131D01*
X030575Y007141D01*
X030575Y006710D01*
X030475Y006710D01*
X030475Y007141D01*
X030412Y007131D01*
X030475Y007133D02*
X030575Y007133D01*
X030624Y007133D02*
X032083Y007133D01*
X032192Y007035D02*
X031761Y007035D01*
X031951Y006739D02*
X060950Y006739D01*
X060950Y006641D02*
X031951Y006641D01*
X031939Y006542D02*
X060950Y006542D01*
X060950Y006444D02*
X031898Y006444D01*
X031819Y006345D02*
X060950Y006345D01*
X060950Y006247D02*
X031665Y006247D01*
X031353Y006247D02*
X030775Y006247D01*
X030891Y006345D02*
X031199Y006345D01*
X031120Y006444D02*
X030956Y006444D01*
X030994Y006542D02*
X031080Y006542D01*
X031067Y006641D02*
X030575Y006641D01*
X030575Y006739D02*
X030475Y006739D01*
X030475Y006641D02*
X029983Y006641D01*
X029983Y006572D02*
X029916Y006410D01*
X029791Y006286D01*
X029629Y006218D01*
X029453Y006218D01*
X029290Y006286D01*
X029166Y006410D01*
X029099Y006572D01*
X029099Y006748D01*
X029166Y006911D01*
X029290Y007035D01*
X029453Y007103D01*
X029629Y007103D01*
X029791Y007035D01*
X029916Y006911D01*
X029983Y006748D01*
X029983Y006572D01*
X029970Y006542D02*
X030056Y006542D01*
X030055Y006548D02*
X030078Y006475D01*
X030113Y006408D01*
X030157Y006346D01*
X030211Y006293D01*
X030272Y006248D01*
X030340Y006214D01*
X030412Y006190D01*
X030475Y006180D01*
X030475Y006610D01*
X030045Y006610D01*
X030055Y006548D01*
X030094Y006444D02*
X029930Y006444D01*
X029851Y006345D02*
X030159Y006345D01*
X030275Y006247D02*
X029697Y006247D01*
X029385Y006247D02*
X000350Y006247D01*
X000350Y006345D02*
X029231Y006345D01*
X029152Y006444D02*
X000350Y006444D01*
X000350Y006542D02*
X029111Y006542D01*
X029099Y006641D02*
X000350Y006641D01*
X000350Y006739D02*
X029099Y006739D01*
X029135Y006838D02*
X007236Y006838D01*
X007508Y006936D02*
X028115Y006936D01*
X027940Y007035D02*
X007678Y007035D01*
X007801Y007133D02*
X027831Y007133D01*
X027756Y007232D02*
X007899Y007232D01*
X007994Y007330D02*
X027703Y007330D01*
X027667Y007429D02*
X008051Y007429D01*
X008212Y008512D02*
X045065Y008512D01*
X045110Y008611D02*
X008186Y008611D01*
X008151Y008709D02*
X045218Y008709D01*
X045582Y008709D02*
X051218Y008709D01*
X051110Y008611D02*
X045690Y008611D01*
X045735Y008512D02*
X051065Y008512D01*
X051050Y008414D02*
X045750Y008414D01*
X045741Y008315D02*
X051059Y008315D01*
X051099Y008217D02*
X045701Y008217D01*
X045607Y008118D02*
X051193Y008118D01*
X051607Y008118D02*
X054350Y008118D01*
X054350Y008106D02*
X054350Y008206D01*
X054450Y008206D01*
X054450Y009556D01*
X054469Y009556D01*
X054606Y009542D01*
X054741Y009515D01*
X054872Y009475D01*
X054999Y009423D01*
X055121Y009358D01*
X055235Y009281D01*
X055341Y009194D01*
X055439Y009097D01*
X055526Y008990D01*
X055602Y008876D01*
X055667Y008755D01*
X055720Y008628D01*
X055760Y008496D01*
X055787Y008361D01*
X055800Y008224D01*
X055800Y008206D01*
X054450Y008206D01*
X054450Y008106D01*
X055800Y008106D01*
X055800Y008087D01*
X055787Y007950D01*
X055760Y007815D01*
X055720Y007683D01*
X055667Y007556D01*
X055602Y007435D01*
X055526Y007321D01*
X055439Y007214D01*
X055341Y007117D01*
X055235Y007030D01*
X055121Y006953D01*
X054999Y006888D01*
X054872Y006836D01*
X054741Y006796D01*
X054606Y006769D01*
X054469Y006756D01*
X054450Y006756D01*
X054450Y008106D01*
X054350Y008106D01*
X054350Y008020D02*
X054450Y008020D01*
X054450Y008118D02*
X060950Y008118D01*
X060950Y008020D02*
X055793Y008020D01*
X055781Y007921D02*
X060950Y007921D01*
X060950Y007823D02*
X055761Y007823D01*
X055732Y007724D02*
X060950Y007724D01*
X060950Y007626D02*
X055696Y007626D01*
X055652Y007527D02*
X060950Y007527D01*
X060950Y007429D02*
X055598Y007429D01*
X055532Y007330D02*
X060950Y007330D01*
X060950Y007232D02*
X055453Y007232D01*
X055357Y007133D02*
X060950Y007133D01*
X060950Y007035D02*
X055241Y007035D01*
X055088Y006936D02*
X060950Y006936D01*
X060950Y006838D02*
X054876Y006838D01*
X054450Y006838D02*
X054350Y006838D01*
X054350Y006936D02*
X054450Y006936D01*
X054450Y007035D02*
X054350Y007035D01*
X054350Y007133D02*
X054450Y007133D01*
X054450Y007232D02*
X054350Y007232D01*
X054350Y007330D02*
X054450Y007330D01*
X054450Y007429D02*
X054350Y007429D01*
X054350Y007527D02*
X054450Y007527D01*
X054450Y007626D02*
X054350Y007626D01*
X054350Y007724D02*
X054450Y007724D01*
X054450Y007823D02*
X054350Y007823D01*
X054350Y007921D02*
X054450Y007921D01*
X054450Y008217D02*
X054350Y008217D01*
X054350Y008315D02*
X054450Y008315D01*
X054450Y008414D02*
X054350Y008414D01*
X054350Y008512D02*
X054450Y008512D01*
X054450Y008611D02*
X054350Y008611D01*
X054350Y008709D02*
X054450Y008709D01*
X054450Y008808D02*
X054350Y008808D01*
X054350Y008906D02*
X054450Y008906D01*
X054450Y009005D02*
X054350Y009005D01*
X054350Y009103D02*
X054450Y009103D01*
X054450Y009202D02*
X054350Y009202D01*
X054350Y009300D02*
X054450Y009300D01*
X054450Y009399D02*
X054350Y009399D01*
X054350Y009497D02*
X054450Y009497D01*
X054800Y009497D02*
X060950Y009497D01*
X060950Y009399D02*
X055044Y009399D01*
X055207Y009300D02*
X060950Y009300D01*
X060950Y009202D02*
X055332Y009202D01*
X055432Y009103D02*
X060950Y009103D01*
X060950Y009005D02*
X055514Y009005D01*
X055582Y008906D02*
X060950Y008906D01*
X060950Y008808D02*
X055639Y008808D01*
X055686Y008709D02*
X060950Y008709D01*
X060950Y008611D02*
X055725Y008611D01*
X055755Y008512D02*
X060950Y008512D01*
X060950Y008414D02*
X055776Y008414D01*
X055791Y008315D02*
X060950Y008315D01*
X060950Y008217D02*
X055800Y008217D01*
X054000Y009497D02*
X035685Y009497D01*
X035685Y009399D02*
X053756Y009399D01*
X053593Y009300D02*
X035685Y009300D01*
X035685Y009596D02*
X060950Y009596D01*
X060950Y009694D02*
X035685Y009694D01*
X035685Y009793D02*
X060950Y009793D01*
X060950Y009891D02*
X035685Y009891D01*
X035685Y009990D02*
X060950Y009990D01*
X060950Y010088D02*
X035685Y010088D01*
X035685Y010187D02*
X060950Y010187D01*
X060950Y010285D02*
X035685Y010285D01*
X035685Y010384D02*
X060950Y010384D01*
X060950Y010482D02*
X038190Y010482D01*
X038280Y010581D02*
X060950Y010581D01*
X060950Y010679D02*
X038310Y010679D01*
X038348Y010778D02*
X060950Y010778D01*
X060950Y010876D02*
X038360Y010876D01*
X038200Y010856D02*
X038050Y010706D01*
X038200Y010856D02*
X038200Y014306D01*
X037600Y014906D01*
X037120Y014915D02*
X037080Y014915D01*
X037080Y015004D02*
X036799Y015286D01*
X036401Y015286D01*
X036120Y015004D01*
X036120Y014607D01*
X036401Y014326D01*
X036799Y014326D01*
X037080Y014607D01*
X037080Y015004D01*
X037071Y015013D02*
X037120Y015013D01*
X037127Y015112D02*
X036973Y015112D01*
X036874Y015210D02*
X037226Y015210D01*
X037324Y015309D02*
X035876Y015309D01*
X035974Y015210D02*
X036326Y015210D01*
X036227Y015112D02*
X036073Y015112D01*
X036080Y015013D02*
X036129Y015013D01*
X036120Y014915D02*
X036080Y014915D01*
X036080Y014816D02*
X036120Y014816D01*
X036120Y014718D02*
X036080Y014718D01*
X036120Y014619D02*
X035992Y014619D01*
X035894Y014521D02*
X036206Y014521D01*
X036305Y014422D02*
X035110Y014422D01*
X035208Y014324D02*
X037956Y014324D01*
X038040Y014225D02*
X035307Y014225D01*
X035405Y014127D02*
X038040Y014127D01*
X038040Y014028D02*
X035504Y014028D01*
X035602Y013930D02*
X038040Y013930D01*
X038040Y013831D02*
X035701Y013831D01*
X035799Y013733D02*
X038040Y013733D01*
X038040Y013634D02*
X035898Y013634D01*
X035996Y013536D02*
X038040Y013536D01*
X038040Y013437D02*
X036095Y013437D01*
X036193Y013339D02*
X038040Y013339D01*
X038040Y013240D02*
X036292Y013240D01*
X036390Y013142D02*
X038040Y013142D01*
X038040Y013043D02*
X036489Y013043D01*
X036587Y012945D02*
X038040Y012945D01*
X038040Y012846D02*
X036686Y012846D01*
X036784Y012748D02*
X038040Y012748D01*
X038040Y012649D02*
X036883Y012649D01*
X036981Y012551D02*
X038040Y012551D01*
X038040Y012452D02*
X037080Y012452D01*
X037178Y012354D02*
X038040Y012354D01*
X037357Y012255D02*
X037277Y012255D01*
X038831Y012354D02*
X041216Y012354D01*
X041135Y012452D02*
X038928Y012452D01*
X038967Y012551D02*
X041108Y012551D01*
X041120Y012649D02*
X039066Y012649D01*
X038040Y011467D02*
X035685Y011467D01*
X035685Y011369D02*
X038040Y011369D01*
X038040Y011270D02*
X035685Y011270D01*
X035685Y011172D02*
X038040Y011172D01*
X038040Y011073D02*
X035685Y011073D01*
X035685Y010975D02*
X038040Y010975D01*
X037853Y010876D02*
X035685Y010876D01*
X035685Y010778D02*
X037798Y010778D01*
X037790Y010679D02*
X035685Y010679D01*
X035685Y010581D02*
X037820Y010581D01*
X037910Y010482D02*
X035685Y010482D01*
X035365Y010482D02*
X033003Y010482D01*
X033101Y010581D02*
X035365Y010581D01*
X035365Y010679D02*
X033200Y010679D01*
X033298Y010778D02*
X035365Y010778D01*
X035365Y010876D02*
X033397Y010876D01*
X033495Y010975D02*
X035365Y010975D01*
X035365Y011073D02*
X033594Y011073D01*
X033692Y011172D02*
X035365Y011172D01*
X035365Y011270D02*
X033791Y011270D01*
X033889Y011369D02*
X035365Y011369D01*
X035365Y011467D02*
X033988Y011467D01*
X034086Y011566D02*
X035365Y011566D01*
X035365Y011664D02*
X034185Y011664D01*
X034283Y011763D02*
X035365Y011763D01*
X035365Y011861D02*
X034382Y011861D01*
X034480Y011960D02*
X035365Y011960D01*
X035365Y012058D02*
X034579Y012058D01*
X034677Y012157D02*
X035365Y012157D01*
X035365Y012255D02*
X034776Y012255D01*
X034874Y012354D02*
X035365Y012354D01*
X035365Y012452D02*
X034973Y012452D01*
X035071Y012551D02*
X035365Y012551D01*
X035365Y012649D02*
X035170Y012649D01*
X035268Y012748D02*
X035365Y012748D01*
X035111Y013043D02*
X007936Y013043D01*
X008015Y012945D02*
X035013Y012945D01*
X034914Y012846D02*
X008072Y012846D01*
X008129Y012748D02*
X034816Y012748D01*
X034717Y012649D02*
X008176Y012649D01*
X008202Y012551D02*
X034619Y012551D01*
X034520Y012452D02*
X008229Y012452D01*
X008255Y012354D02*
X034422Y012354D01*
X034323Y012255D02*
X008260Y012255D01*
X008260Y012157D02*
X034225Y012157D01*
X034126Y012058D02*
X008260Y012058D01*
X008255Y011960D02*
X034028Y011960D01*
X033929Y011861D02*
X008229Y011861D01*
X008203Y011763D02*
X033831Y011763D01*
X033732Y011664D02*
X008176Y011664D01*
X008130Y011566D02*
X033634Y011566D01*
X033535Y011467D02*
X008073Y011467D01*
X008016Y011369D02*
X033437Y011369D01*
X033338Y011270D02*
X007938Y011270D01*
X007839Y011172D02*
X033240Y011172D01*
X033141Y011073D02*
X007741Y011073D01*
X007574Y010975D02*
X033043Y010975D01*
X032944Y010876D02*
X007380Y010876D01*
X007148Y009497D02*
X035365Y009497D01*
X035365Y009399D02*
X007467Y009399D01*
X007638Y009300D02*
X035365Y009300D01*
X035328Y009202D02*
X007777Y009202D01*
X007876Y009103D02*
X035274Y009103D01*
X035265Y009005D02*
X007974Y009005D01*
X008037Y008906D02*
X035295Y008906D01*
X035384Y008808D02*
X008094Y008808D01*
X006652Y009497D02*
X000350Y009497D01*
X000350Y009399D02*
X006333Y009399D01*
X006162Y009300D02*
X000350Y009300D01*
X000350Y009202D02*
X006023Y009202D01*
X005924Y009103D02*
X000350Y009103D01*
X000350Y009005D02*
X005826Y009005D01*
X005763Y008906D02*
X000350Y008906D01*
X000350Y008808D02*
X005706Y008808D01*
X005649Y008709D02*
X000350Y008709D01*
X000350Y008611D02*
X005614Y008611D01*
X005588Y008512D02*
X000350Y008512D01*
X000350Y008414D02*
X005561Y008414D01*
X005540Y008315D02*
X000350Y008315D01*
X000350Y008217D02*
X005540Y008217D01*
X005540Y008118D02*
X000350Y008118D01*
X000350Y008020D02*
X005540Y008020D01*
X005555Y007921D02*
X000350Y007921D01*
X000350Y007823D02*
X005581Y007823D01*
X005608Y007724D02*
X000350Y007724D01*
X000350Y007626D02*
X005636Y007626D01*
X005692Y007527D02*
X000350Y007527D01*
X000350Y007429D02*
X005749Y007429D01*
X005806Y007330D02*
X000350Y007330D01*
X000350Y007232D02*
X005901Y007232D01*
X005999Y007133D02*
X000350Y007133D01*
X000350Y007035D02*
X006122Y007035D01*
X006292Y006936D02*
X000350Y006936D01*
X000350Y006838D02*
X006564Y006838D01*
X000350Y006148D02*
X060950Y006148D01*
X060950Y006050D02*
X000350Y006050D01*
X000350Y005951D02*
X060950Y005951D01*
X060950Y011172D02*
X051661Y011172D01*
X051723Y011270D02*
X060950Y011270D01*
X060950Y011369D02*
X051750Y011369D01*
X051750Y011467D02*
X060950Y011467D01*
X060950Y011566D02*
X051713Y011566D01*
X051636Y011664D02*
X060950Y011664D01*
X060950Y014521D02*
X042392Y014521D01*
X042050Y014127D02*
X039599Y014127D01*
X039199Y014422D02*
X038310Y014422D01*
X037857Y014422D02*
X036895Y014422D01*
X036994Y014521D02*
X037306Y014521D01*
X037208Y014619D02*
X037080Y014619D01*
X037080Y014718D02*
X037120Y014718D01*
X037120Y014816D02*
X037080Y014816D01*
X036880Y015407D02*
X037363Y015407D01*
X037265Y015506D02*
X036979Y015506D01*
X037077Y015604D02*
X037166Y015604D01*
X037080Y015703D02*
X037080Y015703D01*
X037080Y015801D02*
X037080Y015801D01*
X037550Y015801D02*
X037650Y015801D01*
X037650Y015703D02*
X037550Y015703D01*
X037550Y015604D02*
X037650Y015604D01*
X037650Y015506D02*
X037550Y015506D01*
X037550Y015407D02*
X037650Y015407D01*
X039072Y016491D02*
X033041Y016491D01*
X032943Y016589D02*
X039021Y016589D01*
X039015Y016688D02*
X032844Y016688D01*
X032746Y016786D02*
X038918Y016786D01*
X038820Y016885D02*
X032647Y016885D01*
X032549Y016983D02*
X038721Y016983D01*
X038623Y017082D02*
X032450Y017082D01*
X032352Y017180D02*
X038524Y017180D01*
X038426Y017279D02*
X032253Y017279D01*
X032155Y017377D02*
X038327Y017377D01*
X038229Y017476D02*
X032056Y017476D01*
X031958Y017574D02*
X038130Y017574D01*
X038032Y017673D02*
X031859Y017673D01*
X031761Y017771D02*
X037933Y017771D01*
X037835Y017870D02*
X031662Y017870D01*
X031564Y017968D02*
X037736Y017968D01*
X037638Y018067D02*
X031465Y018067D01*
X031367Y018165D02*
X037539Y018165D01*
X037441Y018264D02*
X031268Y018264D01*
X031170Y018362D02*
X037342Y018362D01*
X037244Y018461D02*
X031071Y018461D01*
X030973Y018559D02*
X037145Y018559D01*
X037047Y018658D02*
X030874Y018658D01*
X030776Y018756D02*
X036948Y018756D01*
X036850Y018855D02*
X030677Y018855D01*
X030579Y018953D02*
X036751Y018953D01*
X036653Y019052D02*
X030480Y019052D01*
X030435Y019150D02*
X036554Y019150D01*
X036456Y019249D02*
X030435Y019249D01*
X030435Y019347D02*
X036357Y019347D01*
X036259Y019446D02*
X030435Y019446D01*
X030435Y019544D02*
X036160Y019544D01*
X036062Y019643D02*
X030435Y019643D01*
X030435Y019741D02*
X035963Y019741D01*
X035865Y019840D02*
X030435Y019840D01*
X030435Y019938D02*
X035766Y019938D01*
X035668Y020037D02*
X030435Y020037D01*
X030435Y020135D02*
X035569Y020135D01*
X035471Y020234D02*
X030435Y020234D01*
X030435Y020332D02*
X035372Y020332D01*
X035274Y020431D02*
X030435Y020431D01*
X030435Y020529D02*
X035175Y020529D01*
X035077Y020628D02*
X030435Y020628D01*
X030435Y020726D02*
X034978Y020726D01*
X034880Y020825D02*
X030435Y020825D01*
X030435Y020923D02*
X034781Y020923D01*
X034683Y021022D02*
X030435Y021022D01*
X030435Y021120D02*
X034584Y021120D01*
X034486Y021219D02*
X030435Y021219D01*
X030435Y021317D02*
X034387Y021317D01*
X034289Y021416D02*
X030435Y021416D01*
X030435Y021514D02*
X034190Y021514D01*
X034092Y021613D02*
X030435Y021613D01*
X030435Y021711D02*
X033993Y021711D01*
X033895Y021810D02*
X030435Y021810D01*
X030435Y021908D02*
X033796Y021908D01*
X033698Y022007D02*
X030435Y022007D01*
X030435Y022105D02*
X033599Y022105D01*
X033501Y022204D02*
X030816Y022204D01*
X030650Y022406D02*
X033525Y022406D01*
X039275Y016656D01*
X035226Y015210D02*
X034322Y015210D01*
X034420Y015112D02*
X035127Y015112D01*
X035120Y015013D02*
X034519Y015013D01*
X034617Y014915D02*
X035120Y014915D01*
X035120Y014816D02*
X034716Y014816D01*
X034814Y014718D02*
X035120Y014718D01*
X035208Y014619D02*
X034913Y014619D01*
X035011Y014521D02*
X035306Y014521D01*
X035091Y013339D02*
X007571Y013339D01*
X007739Y013240D02*
X035189Y013240D01*
X035210Y013142D02*
X007837Y013142D01*
X000350Y010482D02*
X030759Y010482D01*
X030701Y010384D02*
X000350Y010384D01*
X000350Y010285D02*
X030690Y010285D01*
X030718Y010187D02*
X000350Y010187D01*
X000350Y010088D02*
X030800Y010088D01*
X031100Y010088D02*
X035365Y010088D01*
X035365Y009990D02*
X000350Y009990D01*
X000350Y009891D02*
X035365Y009891D01*
X035365Y009793D02*
X000350Y009793D01*
X000350Y009694D02*
X035365Y009694D01*
X035365Y009596D02*
X000350Y009596D01*
X000350Y020825D02*
X029865Y020825D01*
X029865Y020923D02*
X000350Y020923D01*
X000350Y021022D02*
X029865Y021022D01*
X029865Y021120D02*
X000350Y021120D01*
X000350Y021219D02*
X029865Y021219D01*
X029865Y021317D02*
X000350Y021317D01*
X000350Y021416D02*
X029865Y021416D01*
X029865Y021514D02*
X000350Y021514D01*
X000350Y021613D02*
X029865Y021613D01*
X029865Y021711D02*
X000350Y021711D01*
X000350Y021810D02*
X029865Y021810D01*
X029865Y021908D02*
X000350Y021908D01*
X000350Y022007D02*
X029865Y022007D01*
X029865Y022105D02*
X024462Y022105D01*
X024516Y022127D02*
X024640Y022251D01*
X024707Y022413D01*
X024707Y022588D01*
X024640Y022750D01*
X024516Y022874D01*
X024475Y022891D01*
X024516Y022907D01*
X024640Y023031D01*
X024707Y023193D01*
X024707Y023368D01*
X024640Y023530D01*
X024516Y023654D01*
X024355Y023721D01*
X024180Y023721D01*
X024018Y023654D01*
X023894Y023530D01*
X023827Y023368D01*
X023827Y023193D01*
X023894Y023031D01*
X024018Y022907D01*
X024059Y022891D01*
X024018Y022874D01*
X023894Y022750D01*
X023827Y022588D01*
X023827Y022413D01*
X023894Y022251D01*
X024018Y022127D01*
X024180Y022061D01*
X024355Y022061D01*
X024516Y022127D01*
X024592Y022204D02*
X029865Y022204D01*
X029865Y022302D02*
X024661Y022302D01*
X024702Y022401D02*
X029865Y022401D01*
X029865Y022499D02*
X024707Y022499D01*
X024703Y022598D02*
X029865Y022598D01*
X029865Y022696D02*
X024662Y022696D01*
X024595Y022795D02*
X029865Y022795D01*
X029865Y022893D02*
X024481Y022893D01*
X024600Y022992D02*
X029865Y022992D01*
X029865Y023090D02*
X024664Y023090D01*
X024705Y023189D02*
X029769Y023189D01*
X029670Y023287D02*
X024707Y023287D01*
X024700Y023386D02*
X029572Y023386D01*
X029339Y023484D02*
X024659Y023484D01*
X024587Y023583D02*
X029282Y023583D01*
X029273Y023681D02*
X026515Y023681D01*
X026649Y023780D02*
X029303Y023780D01*
X028920Y024075D02*
X026854Y024075D01*
X026894Y024174D02*
X028843Y024174D01*
X028820Y024272D02*
X026905Y024272D01*
X026905Y024371D02*
X028836Y024371D01*
X028903Y024469D02*
X026905Y024469D01*
X025872Y025060D02*
X021678Y025060D01*
X021556Y025111D02*
X021836Y024995D01*
X022049Y024781D01*
X022165Y024502D01*
X022165Y024199D01*
X022049Y023920D01*
X021836Y023706D01*
X021556Y023591D01*
X021254Y023591D01*
X020974Y023706D01*
X020761Y023920D01*
X020645Y024199D01*
X020645Y024502D01*
X020761Y024781D01*
X020974Y024995D01*
X021254Y025111D01*
X021556Y025111D01*
X021869Y024962D02*
X025681Y024962D01*
X025583Y024863D02*
X021967Y024863D01*
X022056Y024765D02*
X025494Y024765D01*
X025453Y024666D02*
X022097Y024666D01*
X022138Y024568D02*
X025412Y024568D01*
X025385Y024469D02*
X022165Y024469D01*
X022165Y024371D02*
X025385Y024371D01*
X025385Y024272D02*
X022165Y024272D01*
X022154Y024174D02*
X025396Y024174D01*
X025436Y024075D02*
X022114Y024075D01*
X022073Y023977D02*
X025477Y023977D01*
X025543Y023878D02*
X022007Y023878D01*
X021909Y023780D02*
X025641Y023780D01*
X025775Y023681D02*
X024450Y023681D01*
X024084Y023681D02*
X023548Y023681D01*
X023534Y023691D02*
X023467Y023725D01*
X023395Y023749D01*
X023323Y023760D01*
X023323Y023321D01*
X023243Y023321D01*
X023243Y023760D01*
X023170Y023749D01*
X023099Y023725D01*
X023031Y023691D01*
X022970Y023647D01*
X022917Y023593D01*
X022872Y023532D01*
X022838Y023465D01*
X022815Y023393D01*
X022803Y023321D01*
X023243Y023321D01*
X023243Y023241D01*
X022803Y023241D01*
X022815Y023168D01*
X022838Y023096D01*
X022872Y023029D01*
X022917Y022968D01*
X022970Y022914D01*
X023031Y022870D01*
X022910Y022750D01*
X022843Y022588D01*
X022843Y022413D01*
X022910Y022251D01*
X023034Y022127D01*
X023195Y022061D01*
X023370Y022061D01*
X023532Y022127D01*
X023656Y022251D01*
X023723Y022413D01*
X023723Y022588D01*
X023656Y022750D01*
X023535Y022870D01*
X023596Y022914D01*
X023649Y022968D01*
X023693Y023029D01*
X023728Y023096D01*
X023751Y023168D01*
X023763Y023241D01*
X023323Y023241D01*
X023323Y023321D01*
X023763Y023321D01*
X023751Y023393D01*
X023728Y023465D01*
X023693Y023532D01*
X023649Y023593D01*
X023596Y023647D01*
X023534Y023691D01*
X023657Y023583D02*
X023947Y023583D01*
X023875Y023484D02*
X023718Y023484D01*
X023752Y023386D02*
X023834Y023386D01*
X023827Y023287D02*
X023323Y023287D01*
X023243Y023287D02*
X000350Y023287D01*
X000350Y023189D02*
X022811Y023189D01*
X022841Y023090D02*
X000350Y023090D01*
X000350Y022992D02*
X022900Y022992D01*
X023000Y022893D02*
X000350Y022893D01*
X000350Y022795D02*
X022955Y022795D01*
X022888Y022696D02*
X000350Y022696D01*
X000350Y022598D02*
X022847Y022598D01*
X022843Y022499D02*
X000350Y022499D01*
X000350Y022401D02*
X022848Y022401D01*
X022889Y022302D02*
X000350Y022302D01*
X000350Y022204D02*
X022958Y022204D01*
X023088Y022105D02*
X000350Y022105D01*
X000350Y023386D02*
X022814Y023386D01*
X022848Y023484D02*
X000350Y023484D01*
X000350Y023583D02*
X022909Y023583D01*
X023018Y023681D02*
X021775Y023681D01*
X021035Y023681D02*
X000350Y023681D01*
X000350Y023780D02*
X020901Y023780D01*
X020803Y023878D02*
X000350Y023878D01*
X000350Y023977D02*
X020737Y023977D01*
X020696Y024075D02*
X000350Y024075D01*
X000350Y024174D02*
X020656Y024174D01*
X020645Y024272D02*
X000350Y024272D01*
X000350Y024371D02*
X020645Y024371D01*
X020645Y024469D02*
X000350Y024469D01*
X000350Y024568D02*
X020672Y024568D01*
X020713Y024666D02*
X000350Y024666D01*
X000350Y024765D02*
X020754Y024765D01*
X020843Y024863D02*
X000350Y024863D01*
X000350Y024962D02*
X020941Y024962D01*
X021132Y025060D02*
X000350Y025060D01*
X023243Y023681D02*
X023323Y023681D01*
X023323Y023583D02*
X023243Y023583D01*
X023243Y023484D02*
X023323Y023484D01*
X023323Y023386D02*
X023243Y023386D01*
X023754Y023189D02*
X023829Y023189D01*
X023870Y023090D02*
X023725Y023090D01*
X023666Y022992D02*
X023934Y022992D01*
X024053Y022893D02*
X023566Y022893D01*
X023611Y022795D02*
X023939Y022795D01*
X023872Y022696D02*
X023678Y022696D01*
X023719Y022598D02*
X023831Y022598D01*
X023827Y022499D02*
X023723Y022499D01*
X023718Y022401D02*
X023832Y022401D01*
X023873Y022302D02*
X023677Y022302D01*
X023608Y022204D02*
X023942Y022204D01*
X024072Y022105D02*
X023478Y022105D01*
X030435Y022204D02*
X030484Y022204D01*
X030474Y022598D02*
X030435Y022598D01*
X030435Y022696D02*
X041514Y022696D01*
X041514Y022598D02*
X030826Y022598D01*
X030435Y022795D02*
X041514Y022795D01*
X041514Y022805D02*
X041514Y022559D01*
X041871Y022559D01*
X041871Y022502D01*
X041514Y022502D01*
X041514Y022256D01*
X041529Y022182D01*
X041558Y022111D01*
X041600Y022048D01*
X041654Y021994D01*
X041717Y021952D01*
X041787Y021923D01*
X041862Y021908D01*
X041871Y021908D01*
X041871Y022502D01*
X041929Y022502D01*
X041929Y022559D01*
X042286Y022559D01*
X042286Y022805D01*
X042271Y022879D01*
X042242Y022950D01*
X042200Y023013D01*
X042146Y023067D01*
X042083Y023109D01*
X042013Y023138D01*
X041938Y023153D01*
X041929Y023153D01*
X041929Y022559D01*
X041871Y022559D01*
X041871Y023153D01*
X041862Y023153D01*
X041787Y023138D01*
X041717Y023109D01*
X041654Y023067D01*
X041600Y023013D01*
X041558Y022950D01*
X041529Y022879D01*
X041514Y022805D01*
X041534Y022893D02*
X030435Y022893D01*
X030435Y022992D02*
X041586Y022992D01*
X041689Y023090D02*
X030435Y023090D01*
X033658Y022499D02*
X041514Y022499D01*
X041514Y022401D02*
X033756Y022401D01*
X033855Y022302D02*
X041514Y022302D01*
X041524Y022204D02*
X033953Y022204D01*
X034052Y022105D02*
X041562Y022105D01*
X041642Y022007D02*
X034150Y022007D01*
X041871Y022007D02*
X041929Y022007D01*
X041929Y022105D02*
X041871Y022105D01*
X041871Y022204D02*
X041929Y022204D01*
X041929Y022302D02*
X041871Y022302D01*
X041871Y022401D02*
X041929Y022401D01*
X041929Y022499D02*
X041871Y022499D01*
X041929Y022502D02*
X041929Y021908D01*
X041938Y021908D01*
X042013Y021923D01*
X042083Y021952D01*
X042146Y021994D01*
X042200Y022048D01*
X042242Y022111D01*
X042271Y022182D01*
X042286Y022256D01*
X042286Y022502D01*
X041929Y022502D01*
X041929Y022598D02*
X041871Y022598D01*
X041871Y022696D02*
X041929Y022696D01*
X041929Y022795D02*
X041871Y022795D01*
X041871Y022893D02*
X041929Y022893D01*
X041929Y022992D02*
X041871Y022992D01*
X041871Y023090D02*
X041929Y023090D01*
X042111Y023090D02*
X042776Y023090D01*
X042635Y022992D02*
X042214Y022992D01*
X042266Y022893D02*
X042578Y022893D01*
X042554Y022795D02*
X042286Y022795D01*
X042286Y022696D02*
X042554Y022696D01*
X042554Y022598D02*
X042286Y022598D01*
X042286Y022499D02*
X042554Y022499D01*
X042554Y022401D02*
X042286Y022401D01*
X042286Y022302D02*
X042554Y022302D01*
X042563Y022204D02*
X042276Y022204D01*
X042238Y022105D02*
X042604Y022105D01*
X042698Y022007D02*
X042158Y022007D01*
X045607Y024765D02*
X052281Y024765D01*
X052275Y024930D02*
X052288Y025042D01*
X052313Y025151D01*
X052292Y025060D02*
X045421Y025060D01*
X045370Y011763D02*
X045430Y011763D01*
X045430Y011664D02*
X045370Y011664D01*
X045370Y011566D02*
X045430Y011566D01*
X045430Y011467D02*
X045370Y011467D01*
X045370Y011369D02*
X045430Y011369D01*
X045430Y011270D02*
X045370Y011270D01*
X045370Y011172D02*
X045430Y011172D01*
X045430Y011073D02*
X045370Y011073D01*
X035365Y010384D02*
X032904Y010384D01*
X032806Y010285D02*
X035365Y010285D01*
X035365Y010187D02*
X032707Y010187D01*
X028449Y008315D02*
X028349Y008315D01*
X028349Y008217D02*
X028449Y008217D01*
X028449Y008118D02*
X028349Y008118D01*
X028349Y008020D02*
X028449Y008020D01*
X028449Y007921D02*
X028349Y007921D01*
X028349Y007823D02*
X028449Y007823D01*
X028449Y007527D02*
X028349Y007527D01*
X028349Y007429D02*
X028449Y007429D01*
X028449Y007330D02*
X028349Y007330D01*
X028349Y007232D02*
X028449Y007232D01*
X028449Y007133D02*
X028349Y007133D01*
X028349Y007035D02*
X028449Y007035D01*
X028449Y006936D02*
X028349Y006936D01*
X028683Y006936D02*
X029191Y006936D01*
X029289Y007035D02*
X028858Y007035D01*
X029792Y007035D02*
X030220Y007035D01*
X030129Y006936D02*
X029891Y006936D01*
X029946Y006838D02*
X030076Y006838D01*
X030049Y006739D02*
X029983Y006739D01*
X030475Y006838D02*
X030575Y006838D01*
X030575Y006936D02*
X030475Y006936D01*
X030475Y007035D02*
X030575Y007035D01*
X030830Y007035D02*
X031258Y007035D01*
X031159Y006936D02*
X030921Y006936D01*
X030974Y006838D02*
X031104Y006838D01*
X031067Y006739D02*
X031001Y006739D01*
X030575Y006542D02*
X030475Y006542D01*
X030475Y006444D02*
X030575Y006444D01*
X030575Y006345D02*
X030475Y006345D01*
X030475Y006247D02*
X030575Y006247D01*
D23*
X038700Y012581D02*
X039350Y013231D01*
X039350Y014206D01*
D24*
X059275Y007531D03*
X059275Y024881D03*
X002025Y024881D03*
X002025Y007531D03*
M02*
