%
M48
M72
T01C0.0150
T02C0.0160
T03C0.0315
T04C0.0320
T05C0.0360
T06C0.0400
T07C0.0443
T08C0.0827
T09C0.0866
T10C0.0900
T11C0.1180
T12C0.1240
T13C0.1260
%
T01
X26275Y20531
X29528Y23656
X30296Y23656
X29075Y24281
X40900Y16656
X45150Y16656
X46275Y18656
X41363Y12568
T02
X41900Y12906
X42207Y14338
X41900Y15781
X44025Y15781
X43525Y17781
X42525Y17781
X39275Y16656
X39350Y14206
X38700Y12581
X37525Y12056
X37900Y11781
X38050Y10706
X35525Y9031
X30950Y10306
X35475Y13181
X29700Y20031
X29650Y21531
X30650Y22406
T03
X41900Y22531
X42900Y22531
T04
X45400Y11406
X45400Y8406
X51400Y8406
X51400Y11406
T05
X24267Y22501
X24267Y23281
X23283Y23281
X23283Y22501
T06
X35600Y15906
X36600Y15806
X37600Y15906
X37600Y14906
X36600Y14806
X35600Y14906
T07
X31509Y6660
X30525Y6660
X29541Y6660
T08
X28399Y7645
X32651Y7645
T09
X40900Y24531
X44900Y24531
T10
X26145Y24351
X21405Y24351
T11
X51425Y23693
X53275Y22512
X53275Y24874
T12
X2025Y7531
X2025Y24881
X59275Y24881
X59275Y7531
T13
X54400Y8156
X54400Y13156
X6900Y12156
X6900Y8156
M30
